<svg width="61px" height="149px" viewBox="0 0 61 149" version="1.1" xml:space="preserve" xmlns="http://www.w3.org/2000/svg" xmlns:xlink="http://www.w3.org/1999/xlink">
  <defs/>
  <g>
    <title>drum-cymbal-c</title>
    <desc>Created with Sketch.</desc>
    <g id="music" stroke="none" stroke-width="1" fill="none" fill-rule="evenodd">
      <g id="drum-cymbal-c" fill-rule="nonzero">
        <g id="Group" transform="translate(30.500000, 58.672862)">
          <path d="M16.4,29.5594796 C16.65,28.2546468 16.9,27.0501859 17.15,25.8457249 C17.95,22.3828996 18.4,18.8197026 19,15.3066914 C19.1,14.5539033 19.2,13.8513011 19.35,13.098513 C19.4,12.7472119 19.35,12.4962825 19.2,12.1951673 C18.75,11.3420074 18.2,10.6394052 17.35,10.1375465 C16.9,9.8866171 16.5,9.58550186 16.15,9.18401487 C15.75,8.73234201 15.65,8.1802974 15.9,7.62825279 C16.15,7.12639405 16.6,6.87546468 17.15,6.92565056 C17.55,6.97583643 17.95,7.07620818 18.3,7.27695167 C18.5,7.42750929 18.65,7.62825279 19,7.62825279 C19,7.37732342 19.05,7.12639405 19.05,6.82527881 C19.05,6.52416357 19.05,6.2732342 19.1,5.97211896 C19.1,5.16914498 19.1,4.41635688 19.1,3.6133829 C19.1,3.21189591 19.15,2.8605948 19.25,2.45910781 C19.35,2.05762082 19.5,1.75650558 19.85,1.50557621 C20.15,1.30483271 20.5,1.40520446 20.8,1.50557621 C21,1.25464684 21.15,0.953531599 21.4,0.752788104 C21.95,0.250929368 22.55,0.250929368 22.85,1.05390335 C22.9,1.20446097 22.95,1.35501859 23.05,1.50557621 C23.1,1.50557621 23.15,1.50557621 23.2,1.50557621 C24.25,1.10408922 24.7,1.35501859 24.8,2.45910781 C24.95,3.6133829 24.8,4.71747212 24.7,5.87174721 C24.55,7.62825279 24.1,9.33457249 23.8,11.0910781 C23.75,11.2918216 23.75,11.5427509 23.65,11.6933086 C23.05,12.8475836 23.05,14.1524164 22.9,15.4070632 C22.8,16.3605948 22.65,17.3141264 22.5,18.267658 C22.4,19.2211896 22.3,20.1747212 22.2,21.1282528 C21.9,24.0390335 21.45,26.9498141 21,29.8605948 C20.95,30.3122677 20.8,30.7639405 20.7,31.2156134 C20.55,31.8680297 20.15,32.3698885 19.55,32.6208178 C19.35,32.7211896 19.2,32.8215613 19,32.8717472 C15.9,34.2267658 12.8,35.4814126 9.65,36.6858736 C9,36.936803 8.35,37.2379182 7.7,37.5390335 C6.4,38.0910781 5.1,38.5427509 3.8,39.0446097 C3.45,39.1449814 3.1,39.2453532 2.7,39.1449814 C2.35,39.0947955 1.95,39.0446097 1.6,39.0947955 C1.1,39.1449814 0.85,38.894052 0.65,38.4925651 C0.55,38.3420074 0.5,38.1914498 0.4,38.0408922 C0.05,37.33829 0.1,37.0873606 0.65,36.5855019 C1.3,35.9832714 2.05,35.4814126 2.85,35.1301115 C3.7,34.7788104 4.6,34.3271375 5.5,34.0260223 C8.75,32.8717472 11.95,31.4665428 15.2,30.2118959 C15.55,29.9609665 15.95,29.760223 16.4,29.5594796 Z M20.4,12.3457249 C20.35,12.5464684 20.3,12.7472119 20.3,12.8977695 C20.15,14.2527881 20,15.5576208 19.8,16.9126394 C19.3,19.5724907 19,22.2825279 18.45,24.9423792 C18.1,26.4479554 17.8,27.9033457 17.5,29.4089219 C17.4,29.9609665 17.15,30.2620818 16.65,30.5130112 C15.1,31.2156134 13.5,31.8680297 11.95,32.4702602 C8.8,33.7249071 5.65,35.0297398 2.5,36.4349442 C2.1,36.6356877 1.7,36.8364312 1.35,37.0873606 C1.05,37.2881041 1.05,37.4888476 1.15,37.8401487 C1.25,38.0910781 1.45,38.1914498 1.7,38.2416357 C2.5,38.2416357 3.25,38.1412639 4,37.8903346 C6.85,36.7862454 9.65,35.732342 12.45,34.5780669 C14.6,33.7249071 16.7,32.7713755 18.85,31.9182156 C19.45,31.6672862 19.75,31.2156134 19.85,30.563197 C19.95,29.6598513 20.15,28.7565056 20.25,27.8531599 C20.55,25.4442379 20.85,23.0855019 21.15,20.6765799 C21.4,18.8698885 21.6,17.0130112 21.9,15.2063197 C22.1,14.0018587 22.2,12.7472119 22.7,11.5929368 C22.8,11.3921933 22.85,11.1412639 22.85,10.8903346 C23.1,9.48513011 23.4,8.02973978 23.6,6.62453532 C23.75,5.42007435 23.8,4.21561338 23.9,3.01115242 C23.9,2.81040892 23.95,2.55947955 23.65,2.50929368 C23.45,2.6598513 23.4,2.91078067 23.35,3.16171004 C23.2,4.16542751 22.95,5.16914498 22.9,6.22304833 C22.85,6.62453532 22.8,6.97583643 22.7,7.37732342 C22.65,7.67843866 22.4,7.87918216 22.2,7.77881041 C21.95,7.67843866 21.85,7.47769517 21.85,7.2267658 C21.85,6.87546468 21.85,6.52416357 21.95,6.17286245 C22.15,5.06877323 22.1,3.91449814 22.15,2.76022305 C22.15,2.40892193 22.1,2.10780669 22.1,1.75650558 C21.9,1.7063197 21.85,1.80669145 21.8,1.9070632 C21.6,2.30855019 21.5,2.76022305 21.5,3.26208178 C21.5,4.16542751 21.5,5.11895911 21.45,6.02230483 C21.45,6.42379182 21.4,6.82527881 21.35,7.17657993 C21.3,7.52788104 21.15,7.57806691 20.75,7.42750929 C20.7,7.42750929 20.65,7.37732342 20.55,7.32713755 C20.4,6.72490706 20.45,6.12267658 20.45,5.5204461 C20.45,4.71747212 20.45,3.91449814 20.4,3.06133829 C20.4,2.8605948 20.4,2.6598513 20.1,2.55947955 C19.75,4.41635688 20.05,6.32342007 19.8,8.1802974 C19.75,8.38104089 19.8,8.58178439 19.9,8.78252788 C20.1,8.98327138 20.3,9.03345725 20.55,9.03345725 C20.8,9.08364312 21,9.133829 21.25,9.18401487 C21.4,9.23420074 21.55,9.38475836 21.55,9.58550186 C21.55,9.78624535 21.4,9.8866171 21.2,9.8866171 C20.3,9.93680297 19.45,9.83643123 18.9,9.03345725 C18.5,8.48141264 18,8.23048327 17.45,7.87918216 C17.1,7.67843866 17,7.72862454 16.65,8.23048327 C16.75,8.38104089 16.85,8.53159851 16.95,8.63197026 C17.2,8.83271375 17.4,9.03345725 17.7,9.18401487 C18.75,9.73605948 19.45,10.5892193 20,11.6431227 C20.15,11.894052 20.25,12.0947955 20.4,12.3457249 Z" id="Shape" fill="#010101"/>
          <path d="M20.4,12.3457249 C20.25,12.0947955 20.15,11.894052 20,11.6431227 C19.45,10.5892193 18.75,9.73605948 17.7,9.18401487 C17.45,9.03345725 17.2,8.83271375 16.95,8.63197026 C16.8,8.53159851 16.75,8.38104089 16.65,8.23048327 C16.95,7.72862454 17.1,7.67843866 17.45,7.87918216 C17.95,8.23048327 18.5,8.48141264 18.9,9.03345725 C19.45,9.83643123 20.3,9.93680297 21.2,9.8866171 C21.4,9.8866171 21.55,9.78624535 21.55,9.58550186 C21.55,9.38475836 21.45,9.23420074 21.25,9.18401487 C21,9.133829 20.8,9.03345725 20.55,9.03345725 C20.3,8.98327138 20.1,8.9330855 19.9,8.78252788 C19.8,8.58178439 19.8,8.38104089 19.8,8.1802974 C20.05,6.32342007 19.75,4.41635688 20.1,2.55947955 C20.45,2.60966543 20.4,2.8605948 20.4,3.06133829 C20.4,3.86431227 20.4,4.66728625 20.45,5.5204461 C20.45,6.12267658 20.4,6.72490706 20.55,7.32713755 C20.6,7.37732342 20.7,7.42750929 20.75,7.42750929 C21.15,7.57806691 21.3,7.52788104 21.35,7.17657993 C21.4,6.77509294 21.45,6.42379182 21.45,6.02230483 C21.45,5.11895911 21.45,4.16542751 21.5,3.26208178 C21.5,2.81040892 21.65,2.35873606 21.8,1.9070632 C21.85,1.80669145 21.9,1.75650558 22.1,1.75650558 C22.1,2.05762082 22.15,2.40892193 22.15,2.76022305 C22.1,3.91449814 22.2,5.01858736 21.95,6.17286245 C21.9,6.52416357 21.9,6.87546468 21.85,7.2267658 C21.85,7.52788104 21.95,7.72862454 22.2,7.77881041 C22.4,7.82899628 22.65,7.62825279 22.7,7.37732342 C22.8,6.97583643 22.85,6.62453532 22.9,6.22304833 C22.95,5.21933086 23.2,4.21561338 23.35,3.16171004 C23.4,2.91078067 23.45,2.6598513 23.65,2.50929368 C23.9,2.60966543 23.9,2.81040892 23.9,3.01115242 C23.8,4.21561338 23.75,5.42007435 23.6,6.62453532 C23.4,8.07992565 23.1,9.48513011 22.85,10.8903346 C22.8,11.1412639 22.8,11.3921933 22.7,11.5929368 C22.2,12.7472119 22.1,14.0018587 21.9,15.2063197 C21.6,17.0130112 21.4,18.8698885 21.15,20.6765799 C20.85,23.0855019 20.55,25.4442379 20.25,27.8531599 C20.15,28.7565056 20,29.6598513 19.85,30.563197 C19.75,31.2156134 19.5,31.6672862 18.85,31.9182156 C16.7,32.7713755 14.6,33.7249071 12.45,34.5780669 C9.65,35.6821561 6.8,36.7862454 4,37.8903346 C3.25,38.1914498 2.5,38.2918216 1.7,38.2416357 C1.45,38.2416357 1.25,38.0910781 1.15,37.8401487 C1,37.5390335 1.05,37.2881041 1.35,37.0873606 C1.7,36.8364312 2.1,36.5855019 2.5,36.4349442 C5.6,35.0297398 8.75,33.7249071 11.95,32.4702602 C13.55,31.8680297 15.1,31.2156134 16.65,30.5130112 C17.15,30.3122677 17.4,29.9609665 17.5,29.4089219 C17.8,27.9033457 18.1,26.4479554 18.45,24.9423792 C19.05,22.2825279 19.35,19.5724907 19.8,16.9126394 C20.05,15.6078067 20.15,14.2527881 20.3,12.8977695 C20.3,12.7472119 20.35,12.5966543 20.4,12.3457249 Z" id="Shape" fill="#D0E9EA"/>
        </g>
        <g id="Group" transform="translate(30.000000, 102.836431)">
          <path d="M4.25,38.9442379 C4.1,37.2379182 3.85,35.5817844 3.6,33.9758364 C3.3,31.9684015 3.05,29.9107807 2.65,27.9033457 C2.35,26.2472119 2.05,24.5910781 1.8,22.8847584 C1.55,21.2286245 1.35,19.5724907 1.3,17.9163569 C1.25,16.66171 1.25,15.4070632 1.25,14.1022305 C1.25,12.5966543 1.25,11.0910781 1.35,9.53531599 C1.45,7.77881041 1.6,6.07249071 1.75,4.31598513 C1.75,4.16542751 1.8,3.96468401 1.8,3.81412639 C1.75,2.96096654 2.15,2.25836431 2.45,1.45539033 C2.7,0.802973978 4,0.301115242 4.55,0.351301115 C5,0.351301115 5.35,0.602230483 5.65,0.802973978 C6.05,1.15427509 6.4,1.50557621 6.5,2.05762082 C6.6,2.81040892 6.7,3.51301115 6.7,4.26579926 C6.65,5.82156134 6.7,7.37732342 6.55,8.9330855 C6.5,9.33457249 6.35,9.68587361 6.3,10.0873606 C6.2,10.5892193 6.25,11.1412639 6.2,11.6431227 C6.15,12.295539 6.15,12.9479554 6.05,13.6505576 C5.95,14.8048327 5.9,15.9089219 5.9,17.063197 C5.9,17.866171 5.9,18.7193309 5.9,19.5223048 C5.9,19.9237918 5.95,20.3252788 6,20.7267658 C6.35,23.035316 6.8,25.2936803 7.3,27.5520446 C7.4,27.9033457 7.45,28.3048327 7.5,28.7063197 C7.9,31.0148699 8.25,33.3234201 8.7,35.5817844 C9,37.2881041 9.2,38.9944238 9.75,40.6505576 C9.8,40.8011152 9.8,40.901487 9.85,41.0520446 C9.95,41.7546468 9.85,41.9052045 9.2,42.3066914 C9.05,42.3568773 8.95,42.4572491 8.8,42.5074349 C7.4,42.9089219 6.05,43.4609665 4.6,43.66171 C3.55,43.8122677 2.5,43.9628253 1.45,44.1133829 C1.2,44.1635688 0.95,44.1133829 0.7,44.1133829 C0.2,44.1133829 -0.05,43.7620818 0.15,43.2100372 C0.3,42.7583643 0.6,42.4070632 1,42.105948 C2.2,41.1524164 3.1,39.9479554 4.25,38.9442379 Z M8.75,41.5539033 C8.9,41.302974 8.8,41.1524164 8.8,41.0018587 C8.55,39.697026 8.25,38.4423792 8,37.1375465 C7.7,35.3810409 7.4,33.6245353 7.1,31.8680297 C6.85,30.4126394 6.65,28.9572491 6.3,27.5018587 C6.1,26.7490706 6,25.9962825 5.85,25.2434944 C5.7,24.5408922 5.55,23.7881041 5.4,23.0855019 C5.25,22.232342 5.05,21.3791822 5,20.4758364 C4.9,19.3215613 4.9,18.1171004 4.9,16.9126394 C4.9,14.8550186 5.15,12.7472119 5.3,10.6895911 C5.35,9.98698885 5.6,9.28438662 5.55,8.53159851 C5.5,8.13011152 5.55,7.77881041 5.55,7.37732342 C5.55,6.17286245 5.6,4.96840149 5.6,3.71375465 C5.6,3.06133829 5.55,2.45910781 5.3,1.85687732 C5.1,1.35501859 4.8,1.15427509 4.25,1.15427509 C3.7,1.15427509 3.4,1.30483271 3.15,1.80669145 C3.05,1.95724907 3,2.10780669 2.95,2.30855019 C2.6,3.26208178 2.6,4.21561338 2.5,5.16914498 C2.45,5.87174721 2.45,6.57434944 2.35,7.2267658 C2.2,8.23048327 2.15,9.23420074 2.15,10.1877323 C2.15,11.1914498 2.2,12.1951673 2.15,13.1486989 C2,15.105948 2.1,17.063197 2.25,19.0204461 C2.45,21.8810409 3,24.6412639 3.45,27.4516729 C3.75,29.1078067 4,30.7639405 4.25,32.3698885 C4.35,33.1226766 4.4,33.8754647 4.55,34.6282528 C4.8,35.7825279 4.85,36.936803 4.95,38.1412639 C4.95,38.3420074 4.9,38.4925651 4.85,38.6933086 C4.7,39.295539 4.45,39.7973978 3.85,40.1988848 C3.7,40.2992565 3.55,40.5 3.4,40.6505576 C2.95,41.1524164 2.5,41.6040892 1.95,42.0055762 C1.7,42.2063197 1.45,42.4572491 1.2,42.7081784 C1.1,42.8085502 1.05,42.9591078 1.2,43.1096654 C3.9,43.0092937 6.4,42.5074349 8.75,41.5539033 Z" id="Shape" fill="#010101"/>
          <path d="M8.75,41.5539033 C6.4,42.5074349 3.9,43.0092937 1.35,43.260223 C1.2,43.1096654 1.2,43.0092937 1.35,42.8587361 C1.6,42.6078067 1.8,42.3568773 2.1,42.1561338 C2.65,41.7546468 3.1,41.302974 3.55,40.8011152 C3.7,40.6505576 3.8,40.4498141 4,40.3494424 C4.6,39.9479554 4.8,39.4460967 5,38.8438662 C5.05,38.6431227 5.1,38.4925651 5.1,38.2918216 C5.05,37.0873606 4.95,35.9330855 4.7,34.7788104 C4.55,34.0260223 4.5,33.2732342 4.4,32.5204461 C4.15,30.8643123 3.85,29.2081784 3.6,27.6022305 C3.15,24.7918216 2.55,22.0315985 2.4,19.1710037 C2.25,17.2137546 2.2,15.2565056 2.3,13.2992565 C2.35,12.295539 2.3,11.2918216 2.3,10.33829 C2.3,9.33457249 2.35,8.33085502 2.5,7.37732342 C2.6,6.67472119 2.6,6.02230483 2.65,5.3197026 C2.75,4.366171 2.75,3.41263941 3.1,2.45910781 C3.15,2.30855019 3.2,2.15799257 3.3,1.95724907 C3.55,1.45539033 3.85,1.30483271 4.4,1.30483271 C4.95,1.30483271 5.25,1.50557621 5.45,2.00743494 C5.65,2.60966543 5.7,3.26208178 5.75,3.86431227 C5.75,5.06877323 5.75,6.2732342 5.7,7.52788104 C5.7,7.92936803 5.65,8.28066914 5.7,8.68215613 C5.75,9.38475836 5.5,10.0873606 5.45,10.8401487 C5.3,12.8977695 5.1,15.0055762 5.05,17.063197 C5.05,18.267658 5.05,19.4219331 5.15,20.6263941 C5.2,21.4795539 5.4,22.3327138 5.55,23.2360595 C5.7,23.9386617 5.85,24.6914498 6,25.394052 C6.15,26.1468401 6.25,26.8996283 6.45,27.6524164 C6.8,29.1078067 6.95,30.563197 7.25,32.0185874 C7.55,33.7750929 7.85,35.5315985 8.15,37.2881041 C8.4,38.5929368 8.65,39.8475836 8.95,41.1524164 C8.8,41.1524164 8.85,41.302974 8.75,41.5539033 Z" id="Shape" fill="#D0E9EA"/>
        </g>
        <g id="Group" transform="translate(7.000000, 103.840149)">
          <path d="M23.65,3.46282528 C23.5,4.11524164 23.15,4.66728625 22.7,5.21933086 C21.7,6.42379182 20.7,7.67843866 19.8,8.9330855 C19.25,9.68587361 18.75,10.4386617 18.25,11.2416357 C17.05,13.0483271 15.9,14.9052045 14.7,16.7118959 C14.35,17.2137546 14.15,17.8159851 13.85,18.3178439 C13.15,19.7230483 12.8,21.1784387 12.45,22.6840149 C12.2,23.9386617 11.85,25.2434944 11.6,26.4981413 C11.35,27.5018587 11.15,28.5055762 10.95,29.5092937 C10.65,30.8141264 10.4,32.1189591 10.1,33.4237918 C9.9,34.4275093 9.7,35.4312268 9.5,36.4349442 C9.45,36.5855019 9.45,36.7360595 9.45,36.8364312 C9.2,37.6394052 8.85,37.8401487 7.9,37.6895911 C6.3,37.4386617 4.7,37.1877323 3.1,36.8866171 C2.7,36.8364312 2.3,36.7360595 1.9,36.6858736 C1.45,36.6356877 1.1,36.4851301 0.8,36.1840149 C0.3,35.8327138 0.25,35.3810409 0.7,35.0799257 C1,34.8791822 1.3,34.7286245 1.7,34.6784387 C2.8,34.4275093 3.8,33.9256506 4.75,33.4237918 C5.2,33.2230483 5.55,32.972119 5.55,32.4200743 C6.5,29.9609665 6.9,27.3011152 7.65,24.7918216 C8.1,23.2360595 8.5,21.6301115 9,20.0743494 C9.2,19.3717472 9.4,18.669145 9.55,17.9665428 C9.85,16.66171 10.5,15.5576208 11.15,14.4033457 C11.85,13.1988848 12.7,11.9944238 13.55,10.8903346 C14.75,9.33457249 15.7,7.62825279 16.75,5.97211896 C17.2,5.26951673 17.65,4.5669145 18.1,3.86431227 C18.15,3.81412639 18.2,3.71375465 18.25,3.66356877 C18.75,3.46282528 18.9,3.01115242 19.1,2.6598513 C19.55,1.85687732 20.25,1.20446097 21,0.602230483 C21.75,-4.2577053e-14 22.65,0.100371747 23.45,0.752788104 C23.85,1.05390335 23.9,1.45539033 23.95,1.85687732 C23.95,2.05762082 24,2.25836431 23.95,2.45910781 C23.9,2.81040892 23.8,3.16171004 23.65,3.46282528 Z M1.7,35.7825279 C1.95,35.9330855 2.2,35.9832714 2.45,36.0334572 C4.1,36.2843866 5.7,36.535316 7.35,36.7862454 C8.35,36.936803 8.6,37.0371747 8.8,35.8327138 C8.9,35.0297398 9,34.1765799 9.15,33.3736059 C9.65,30.8141264 10.15,28.3048327 10.8,25.795539 C10.95,25.1933086 11.15,24.5408922 11.25,23.9386617 C11.45,22.8847584 11.65,21.8810409 12,20.8773234 C12.1,20.5762082 12.2,20.3252788 12.25,20.0241636 C12.55,18.4684015 13.25,17.063197 14.15,15.8085502 C15.25,14.2527881 16.3,12.5966543 17.4,11.0408922 C18.95,8.78252788 20.6,6.52416357 22.25,4.31598513 C22.75,3.66356877 23,2.8605948 23.15,2.10780669 C23.2,1.75650558 23,1.55576208 22.6,1.55576208 C21.8,1.50557621 21.2,1.75650558 20.8,2.30855019 C20.5,2.76022305 20.2,3.21189591 19.85,3.6133829 C19.15,4.41635688 18.55,5.26951673 17.95,6.17286245 C17.2,7.27695167 16.55,8.38104089 15.85,9.48513011 C14.95,10.9405204 13.85,12.2453532 12.95,13.7007435 C12.35,14.6040892 11.8,15.4572491 11.3,16.4107807 C10.95,17.063197 10.7,17.7156134 10.5,18.4182156 C10.05,20.1245353 9.55,21.7806691 9.05,23.4869888 C8.6,25.0929368 8.15,26.6988848 7.75,28.3048327 C7.4,29.8104089 7,31.2657993 6.55,32.7211896 C6.3,33.4237918 5.9,33.9758364 5.2,34.3773234 C4.3,34.8791822 3.4,35.3810409 2.35,35.5817844 C2.15,35.6319703 2,35.6821561 1.85,35.7825279 C1.75,35.6319703 1.75,35.732342 1.7,35.7825279 Z" id="Shape" fill="#010101"/>
          <path d="M1.7,35.7825279 C1.75,35.732342 1.75,35.6319703 1.85,35.5817844 C2,35.4814126 2.2,35.4312268 2.35,35.3810409 C3.4,35.1802974 4.3,34.6784387 5.2,34.1765799 C5.9,33.7750929 6.3,33.2230483 6.55,32.5204461 C7.05,31.0650558 7.4,29.6096654 7.75,28.1040892 C8.15,26.4981413 8.6,24.8921933 9.05,23.2862454 C9.5,21.5799257 10.05,19.9237918 10.5,18.2174721 C10.7,17.5148699 10.95,16.8624535 11.3,16.2100372 C11.8,15.3066914 12.35,14.4033457 12.95,13.5 C13.9,12.0947955 14.95,10.739777 15.85,9.28438662 C16.55,8.1802974 17.2,7.0260223 17.95,5.97211896 C18.55,5.11895911 19.15,4.21561338 19.85,3.41263941 C20.2,3.01115242 20.5,2.55947955 20.8,2.10780669 C21.2,1.55576208 21.8,1.25464684 22.6,1.35501859 C23,1.40520446 23.2,1.60594796 23.15,1.9070632 C23,2.71003717 22.75,3.46282528 22.25,4.11524164 C20.6,6.32342007 18.95,8.58178439 17.4,10.8401487 C16.3,12.4460967 15.25,14.0520446 14.15,15.6078067 C13.25,16.9126394 12.55,18.267658 12.25,19.8234201 C12.2,20.1245353 12.1,20.4256506 12,20.6765799 C11.65,21.6802974 11.5,22.7342007 11.25,23.7379182 C11.1,24.3401487 10.95,24.9925651 10.8,25.5947955 C10.1,28.1040892 9.6,30.6133829 9.15,33.1728625 C9,33.9758364 8.9,34.8289963 8.8,35.6319703 C8.6,36.8364312 8.35,36.7360595 7.35,36.5855019 C5.7,36.3345725 4.1,36.0836431 2.45,35.8327138 C2.2,36.0334572 1.95,35.9832714 1.7,35.7825279 Z" id="Shape" fill="#D0E9EA"/>
        </g>
        <g id="Group" transform="translate(7.500000, 56.163569)">
          <path d="M1.85,2.05762082 C1.9,1.50557621 1.95,1.15427509 1.95,0.802973978 C1.95,0.451672862 2.15,0.200743494 2.45,0.100371747 C2.75,-1.40304435e-14 3.1,0.200743494 3.35,0.501858736 C3.55,0.752788104 3.55,1.15427509 3.85,1.30483271 C3.9,1.30483271 3.9,1.25464684 3.95,1.25464684 C4.1,0.953531599 4.2,0.602230483 4.6,0.602230483 C5.05,0.652416357 5.4,0.903345725 5.6,1.30483271 C5.95,1.95724907 6.25,2.60966543 6.4,3.31226766 C6.65,4.41635688 6.9,5.57063197 7.15,6.67472119 C7.2,6.92565056 7.2,7.2267658 7.5,7.47769517 C7.85,7.12639405 8.1,6.67472119 8.6,6.4739777 C8.85,6.37360595 9.1,6.2732342 9.35,6.32342007 C9.9,6.37360595 10.2,6.87546468 10.05,7.37732342 C10,7.52788104 9.9,7.67843866 9.85,7.82899628 C9.6,8.23048327 9.5,8.63197026 9.55,9.133829 C9.55,9.33457249 9.55,9.48513011 9.5,9.68587361 C9.45,10.8903346 8.85,11.6933086 7.9,12.1951673 C7.8,12.2453532 7.7,12.295539 7.65,12.3457249 C7.6,12.3959108 7.55,12.4460967 7.5,12.4460967 C8,15.2565056 8.6,18.0669145 9.4,20.8271375 C9.75,22.0315985 10.05,23.2862454 10.4,24.4907063 C10.65,25.394052 11.05,26.2472119 11.45,27.1003717 C11.9,28.0539033 12.65,28.8066914 13.35,29.5594796 C13.9,30.16171 14.5,30.7137546 15.05,31.3159851 C15.95,32.2695167 17,32.972119 18,33.7750929 C18.9,34.4776952 19.75,35.330855 20.65,36.133829 C21.2,36.6356877 21.75,37.1877323 22.2,37.7899628 C22.9,38.6431227 22.7,39.8475836 21.85,40.3494424 C21.6,40.5 21.35,40.5501859 21.1,40.6505576 C20.7,40.8011152 20.35,40.8011152 19.95,40.5501859 C18.95,39.9479554 17.95,39.3457249 17.05,38.6431227 C15.2,37.1877323 13.45,35.6319703 11.7,34.0762082 C10.35,32.8717472 9.1,31.5167286 8.15,29.9107807 C7.6,29.0074349 7.2,28.0037175 6.95,27 C6.45,24.8921933 6.05,22.7843866 5.6,20.6765799 C5.3,19.3215613 4.95,18.0167286 4.8,16.66171 C4.7,15.8587361 4.6,15.105948 4.45,14.302974 C4.35,13.5501859 4.15,12.8475836 3.65,12.1951673 C3.2,11.5929368 2.95,10.8401487 2.65,10.1375465 C2.1,8.9330855 1.75,7.67843866 1.4,6.42379182 C1.1,5.42007435 0.85,4.41635688 0.55,3.41263941 C0.4,2.91078067 0.25,2.35873606 0.45,1.85687732 C0.65,1.25464684 1.1,1.10408922 1.6,1.55576208 C1.6,1.7063197 1.65,1.80669145 1.85,2.05762082 Z M3.8,4.5669145 C3.75,3.6133829 3.45,2.71003717 2.85,1.75650558 C2.75,2.76022305 3.15,3.46282528 3.4,4.26579926 C3.45,4.46654275 3.45,4.71747212 3.5,4.91821561 C3.65,5.72118959 3.8,6.4739777 3.9,7.27695167 C3.95,7.52788104 3.85,7.72862454 3.6,7.77881041 C3.4,7.82899628 3.2,7.72862454 3.1,7.47769517 C2.95,7.17657993 2.8,6.87546468 2.75,6.57434944 C2.5,5.62081784 2.05,4.76765799 1.7,3.81412639 C1.65,3.6133829 1.55,3.41263941 1.25,3.46282528 C1.6,4.76765799 1.95,6.02230483 2.35,7.32713755 C2.8,8.9330855 3.4,10.4888476 4.25,11.9442379 C4.8,12.8977695 5.15,13.901487 5.3,15.0055762 C5.5,16.4107807 5.7,17.8159851 6.05,19.2211896 C6.55,21.429368 7.05,23.6375465 7.5,25.8457249 C7.95,28.0539033 8.9,29.9107807 10.45,31.5167286 C12.05,33.2732342 13.85,34.7788104 15.65,36.2843866 C16.05,36.5855019 16.35,37.0371747 16.75,37.2881041 C17.8,37.9907063 18.85,38.6933086 19.85,39.4460967 C20.15,39.6468401 20.4,39.7472119 20.7,39.7472119 C21.25,39.7472119 21.5,39.4460967 21.3,38.8438662 C21.1,38.2918216 20.85,37.7899628 20.4,37.3884758 C19.15,36.133829 17.8,35.0297398 16.45,33.9758364 C16.15,33.7750929 15.85,33.5743494 15.6,33.3234201 C14.5,32.2193309 13.4,31.0650558 12.25,30.0111524 C10.85,28.7063197 10,27 9.45,25.1933086 C8.5,21.9814126 7.65,18.7193309 6.95,15.4572491 C6.7,14.302974 6.5,13.1486989 6.5,11.9442379 C6.9,11.6933086 7.3,11.3921933 7.7,11.1914498 C8.25,10.8903346 8.5,10.3884758 8.5,9.73605948 C8.55,9.03345725 8.55,8.28066914 8.8,7.57806691 C8.65,7.52788104 8.55,7.57806691 8.5,7.67843866 C8.15,8.07992565 7.8,8.53159851 7.65,9.03345725 C7.35,9.78624535 6.7,9.93680297 6.05,9.98698885 C5.9,9.98698885 5.8,9.8866171 5.75,9.78624535 C5.65,9.58550186 5.75,9.43494424 5.85,9.33457249 C6.1,9.08364312 6.5,9.18401487 6.75,8.78252788 C6.2,6.52416357 5.85,4.21561338 4.95,1.95724907 C4.7,2.10780669 4.75,2.25836431 4.75,2.45910781 C4.95,3.76394052 5.15,5.06877323 5.35,6.37360595 C5.4,6.82527881 5.3,7.12639405 5.1,7.17657993 C4.9,7.2267658 4.7,7.07620818 4.55,6.62453532 C4.25,5.92193309 4.05,5.21933086 3.8,4.5669145 Z" id="Shape" fill="#010101"/>
          <path d="M3.8,4.5669145 C4.05,5.26951673 4.25,5.92193309 4.5,6.62453532 C4.65,7.07620818 4.85,7.2267658 5.05,7.17657993 C5.3,7.12639405 5.4,6.82527881 5.3,6.37360595 C5.1,5.06877323 4.9,3.76394052 4.7,2.45910781 C4.65,2.25836431 4.65,2.10780669 4.9,1.95724907 C5.8,4.21561338 6.1,6.52416357 6.7,8.78252788 C6.5,9.18401487 6.05,9.08364312 5.8,9.33457249 C5.65,9.48513011 5.6,9.58550186 5.7,9.78624535 C5.75,9.93680297 5.85,10.0371747 6,9.98698885 C6.65,9.8866171 7.3,9.78624535 7.6,9.03345725 C7.8,8.53159851 8.15,8.07992565 8.45,7.67843866 C8.5,7.57806691 8.6,7.52788104 8.75,7.57806691 C8.5,8.23048327 8.5,8.98327138 8.45,9.73605948 C8.4,10.3884758 8.15,10.8903346 7.65,11.1914498 C7.25,11.4423792 6.9,11.6933086 6.45,11.9442379 C6.45,13.1486989 6.65,14.302974 6.9,15.4572491 C7.6,18.7193309 8.45,21.9814126 9.4,25.1933086 C9.95,27 10.8,28.6561338 12.2,30.0111524 C13.35,31.0650558 14.4,32.2193309 15.55,33.3234201 C15.8,33.5743494 16.1,33.7750929 16.4,33.9758364 C17.75,35.0297398 19.1,36.133829 20.35,37.3884758 C20.75,37.7899628 21.05,38.2918216 21.25,38.8438662 C21.45,39.3959108 21.25,39.7472119 20.65,39.7472119 C20.35,39.7472119 20.05,39.6468401 19.8,39.4460967 C18.75,38.6933086 17.7,37.9907063 16.7,37.2881041 C16.3,36.9869888 16,36.5855019 15.6,36.2843866 C13.8,34.8289963 12,33.2732342 10.4,31.5167286 C8.9,29.9107807 7.9,28.0037175 7.45,25.8457249 C7,23.6375465 6.5,21.429368 6,19.2211896 C5.65,17.8159851 5.45,16.4107807 5.25,15.0055762 C5.1,13.9516729 4.8,12.9479554 4.2,11.9442379 C3.35,10.4888476 2.8,8.9330855 2.3,7.32713755 C1.9,6.02230483 1.6,4.76765799 1.2,3.46282528 C1.45,3.41263941 1.6,3.66356877 1.65,3.81412639 C1.95,4.71747212 2.45,5.62081784 2.7,6.57434944 C2.75,6.87546468 2.95,7.17657993 3.05,7.47769517 C3.15,7.72862454 3.35,7.82899628 3.55,7.77881041 C3.75,7.72862454 3.85,7.52788104 3.85,7.27695167 C3.7,6.4739777 3.6,5.72118959 3.45,4.91821561 C3.4,4.71747212 3.4,4.51672862 3.35,4.26579926 C3.65,4.21561338 3.7,4.41635688 3.8,4.5669145 Z" id="Shape" fill="#D0E9EA"/>
          <path d="M3.8,4.5669145 C3.7,4.46654275 3.65,4.21561338 3.4,4.21561338 C3.15,3.46282528 2.75,2.71003717 2.85,1.7063197 C3.45,2.6598513 3.75,3.56319703 3.8,4.5669145 Z" id="Shape" fill="#A9BDBE"/>
        </g>
        <g id="Group" transform="translate(3.000000, 12.000000)">
          <path d="M29.8,23.3364312 C29.75,23.8884758 29.75,24.3903346 29.75,24.8921933 C29.75,28.3048327 29.75,31.7174721 29.75,35.0799257 C29.75,38.2416357 29.8,41.4033457 29.8,44.5650558 C29.8,46.4219331 29.75,48.3289963 29.75,50.1858736 C29.75,52.7453532 29.75,55.3048327 29.75,57.8643123 C29.75,60.7249071 29.75,63.6356877 29.75,66.4962825 C29.75,69.1561338 29.75,71.866171 29.75,74.5260223 C29.75,76.9349442 29.7,79.3438662 29.7,81.7026022 C29.7,84.16171 29.7,86.570632 29.7,89.0297398 C29.7,89.8828996 29.95,90.1840149 30.7,90.4349442 C31.95,90.8364312 33.2,91.1877323 34.45,91.5892193 C35.95,92.0408922 37.55,92.3420074 39,92.9944238 C39.45,93.1951673 39.85,93.1449814 40.3,93.1951673 C41.15,93.2453532 41.9,93.5966543 42.7,93.9479554 C43.7,94.3996283 44,96.105948 43.55,96.8587361 C42.9,98.0130112 41.7,98.464684 40.6,98.0130112 C40.05,97.7620818 39.5,97.4609665 39.1,97.0092937 C38.8,96.7081784 38.5,96.5074349 38.1,96.3568773 C35.55,95.3531599 32.95,94.3494424 30.3,93.697026 C30.15,93.6468401 29.95,93.6468401 29.85,93.6468401 C28.6,94.098513 27.35,93.8977695 26.1,93.6468401 C25.7,93.5464684 25.3,93.5464684 24.9,93.6468401 C24.35,93.7973978 23.8,93.9479554 23.3,94.098513 C21.1,94.7007435 19,95.5539033 16.9,96.4070632 C16.6,96.5074349 16.35,96.6579926 16.1,96.9089219 C15.65,97.3605948 15.1,97.66171 14.5,97.9628253 C13.2,98.6654275 11.35,97.4609665 11.35,95.8550186 C11.35,94.901487 11.75,94.1988848 12.65,93.7472119 C13.4,93.3959108 14.2,93.0947955 15.05,93.0947955 C15.5,93.0947955 15.9,92.9944238 16.35,92.8438662 C18.15,92.1412639 20,91.7899628 21.85,91.1877323 C22.7,90.8866171 23.55,90.6858736 24.35,90.4349442 C25.1,90.1840149 25.55,89.5315985 25.6,88.7286245 C25.6,87.4739777 25.6,86.2193309 25.6,85.0148699 C25.6,81.7527881 25.6,78.4405204 25.6,75.1784387 C25.6,71.4144981 25.55,67.6505576 25.55,63.8866171 C25.55,61.0260223 25.55,58.2156134 25.55,55.3550186 C25.55,51.0892193 25.55,46.8736059 25.55,42.6078067 C25.55,39.7472119 25.55,36.8364312 25.55,33.9758364 C25.55,30.9144981 25.6,27.9033457 25.6,24.8420074 C25.6,24.3903346 25.55,23.9888476 25.55,23.5371747 C25.1,23.1356877 24.65,23.035316 24.1,23.035316 C20.55,22.8345725 17.05,22.3828996 13.6,21.5297398 C10.85,20.8271375 8.15,19.9739777 5.7,18.5185874 C4.4,17.7657993 3.2,16.9628253 2.2,15.8587361 C1.4,14.9553903 0.75,13.9516729 0.5,12.697026 C0.25,11.3921933 0.4,10.1877323 1.1,8.98327138 C2,7.37732342 3.35,6.2732342 4.85,5.36988848 C7.05,4.01486989 9.35,3.01115242 11.85,2.30855019 C13.45,1.85687732 15.1,1.45539033 16.75,1.15427509 C18.95,0.752788104 21.15,0.451672862 23.4,0.351301115 C24.5,0.301115242 25.6,0.200743494 26.7,0.150557621 C29.15,0.0501858736 31.65,0.200743494 34.1,0.451672862 C36.15,0.652416357 38.2,0.903345725 40.25,1.35501859 C43.15,2.00743494 46,2.71003717 48.65,3.96468401 C50.15,4.71747212 51.6,5.5204461 52.9,6.62453532 C53.9,7.47769517 54.65,8.48141264 55.15,9.68587361 C55.9,11.3420074 55.65,12.9479554 54.75,14.5037175 C53.95,15.9089219 52.8,16.9126394 51.5,17.7657993 C49.7,18.9200743 47.8,19.7732342 45.8,20.4758364 C42.5,21.6301115 39.1,22.3327138 35.65,22.7342007 C34.05,22.9349442 32.5,23.1858736 30.9,23.0855019 C30.6,23.1858736 30.2,23.2862454 29.8,23.3364312 Z M28.15,22.232342 C28.65,22.232342 29.2,22.232342 29.7,22.232342 C31.65,22.232342 33.6,22.0315985 35.55,21.830855 C36.75,21.6802974 37.9,21.4795539 39.1,21.3289963 C41.15,21.027881 43.15,20.4256506 45.1,19.8736059 C46.15,19.5724907 47.15,19.070632 48.2,18.6189591 C50.15,17.7657993 51.95,16.7118959 53.35,15.0055762 C55.1,12.8977695 55.05,10.7899628 53.45,8.78252788 C52.85,8.02973978 52.1,7.42750929 51.35,6.82527881 C50.25,6.02230483 49.05,5.42007435 47.8,4.86802974 C45.4,3.86431227 42.95,3.06133829 40.4,2.55947955 C38.8,2.25836431 37.2,1.95724907 35.55,1.75650558 C33.75,1.50557621 32,1.40520446 30.15,1.40520446 C28.7,1.40520446 27.2,1.25464684 25.75,1.35501859 C23.45,1.50557621 21.15,1.60594796 18.85,2.00743494 C16.9,2.35873606 14.9,2.60966543 13,3.21189591 C10.2,4.06505576 7.45,4.91821561 5,6.57434944 C3.75,7.42750929 2.7,8.43122677 2,9.73605948 C1.15,11.2918216 1.3,12.8475836 2.2,14.302974 C2.9,15.4070632 3.9,16.3104089 5.05,17.0130112 C6.95,18.2174721 8.95,19.1208178 11.1,19.8234201 C13.6,20.6263941 16.1,21.2286245 18.65,21.5799257 C20.15,21.7806691 21.65,21.9312268 23.15,22.0817844 C24.85,22.232342 26.5,22.0817844 28.15,22.232342 Z M26.8,23.3866171 C26.75,24.0892193 26.65,24.6412639 26.65,25.2434944 C26.65,28.1040892 26.75,30.964684 26.7,33.8252788 C26.7,34.8791822 26.7,35.9832714 26.7,37.0371747 C26.65,39.4460967 26.75,41.9052045 26.7,44.3141264 C26.7,47.2750929 26.65,50.2360595 26.7,53.197026 C26.75,55.204461 26.7,57.16171 26.7,59.169145 C26.7,63.133829 26.55,67.0483271 26.7,71.0130112 C26.75,73.0204461 26.7,75.0780669 26.7,77.0855019 C26.7,79.4944238 26.65,81.9535316 26.65,84.3624535 C26.65,85.7174721 26.65,87.0724907 26.65,88.4275093 C26.65,88.8791822 26.6,89.330855 26.9,89.732342 C27.45,89.8828996 27.95,89.9832714 28.5,89.7825279 C28.7,89.0297398 28.6,88.2769517 28.6,87.5743494 C28.55,84.3122677 28.55,81 28.55,77.7379182 C28.55,76.4330855 28.5,75.0780669 28.6,73.7732342 C28.7,72.7695167 28.55,71.7156134 28.55,70.66171 C28.55,67.1988848 28.55,63.7862454 28.55,60.3234201 C28.55,59.4702602 28.45,58.6672862 28.55,57.8141264 C28.65,56.8104089 28.6,55.8066914 28.55,54.8531599 C28.55,53.5483271 28.6,52.1933086 28.55,50.8884758 C28.5,48.7304833 28.5,46.5724907 28.5,44.4144981 C28.5,42.9089219 28.55,41.3531599 28.55,39.8475836 C28.55,38.7936803 28.4,37.6895911 28.5,36.6356877 C28.65,35.0297398 28.45,33.4739777 28.5,31.8680297 C28.55,31.0148699 28.5,30.2118959 28.5,29.3587361 C28.5,27.9033457 28.5,26.4981413 28.5,25.0427509 C28.5,24.3903346 28.5,23.7881041 28.3,23.1356877 C27.9,23.2862454 27.4,23.3364312 26.8,23.3866171 Z M39.05,94.1486989 C38.95,94.098513 38.85,93.9981413 38.75,93.9479554 C37.6,93.5966543 36.5,93.1951673 35.3,92.9442379 C33.8,92.5929368 32.4,92.1412639 30.95,91.6895911 C30.75,91.6394052 30.55,91.4386617 30.25,91.6895911 C30.2,92.0408922 30.15,92.4423792 30.4,92.8438662 C33.15,93.5464684 35.85,94.5501859 38.5,95.6040892 C38.9,95.1524164 39.15,94.7509294 39.05,94.1486989 Z M24.8,91.6895911 C24.7,91.6895911 24.6,91.6394052 24.55,91.6394052 C21.95,92.3921933 19.35,93.1449814 16.75,93.8977695 C16.55,93.9479554 16.25,93.9981413 16.15,94.4498141 C16.3,94.8011152 16.35,95.3531599 16.9,95.6040892 C18.4,94.9516729 19.95,94.3996283 21.5,93.8977695 C22.4,93.5966543 23.35,93.3457249 24.25,93.0446097 C24.85,92.894052 24.95,92.6933086 24.95,92.0910781 C24.9,91.9405204 24.8,91.7899628 24.8,91.6895911 Z M26.1,93.0446097 C27.2,93.1951673 28.3,93.4962825 29.4,92.9944238 C29.45,92.2416357 29.55,91.5390335 29.1,90.8364312 C28.1,90.9869888 27.2,90.7862454 26.25,90.6356877 C25.9,91.3884758 25.6,92.1412639 26.1,93.0446097 Z" id="Shape" fill="#010101"/>
          <path d="M28.15,22.232342 C26.5,22.1319703 24.9,22.232342 23.25,22.0817844 C21.75,21.9312268 20.25,21.7806691 18.75,21.5799257 C16.15,21.2286245 13.65,20.6263941 11.2,19.8234201 C9.05,19.1710037 7.05,18.2174721 5.15,17.0130112 C4,16.3104089 3,15.4070632 2.3,14.302974 C1.4,12.8977695 1.25,11.2918216 2.1,9.73605948 C2.8,8.38104089 3.9,7.42750929 5.1,6.57434944 C7.55,4.91821561 10.3,4.06505576 13.1,3.21189591 C15,2.60966543 17,2.35873606 18.95,2.00743494 C21.25,1.60594796 23.55,1.50557621 25.85,1.35501859 C27.3,1.25464684 28.75,1.40520446 30.25,1.40520446 C32.05,1.40520446 33.85,1.50557621 35.65,1.75650558 C37.25,1.95724907 38.9,2.25836431 40.5,2.55947955 C43.05,3.06133829 45.5,3.86431227 47.9,4.86802974 C49.15,5.36988848 50.35,6.02230483 51.45,6.82527881 C52.25,7.37732342 53,8.02973978 53.55,8.78252788 C55.1,10.7899628 55.2,12.8977695 53.45,15.0055762 C52.05,16.66171 50.25,17.7156134 48.3,18.6189591 C47.3,19.070632 46.3,19.5724907 45.2,19.8736059 C43.2,20.4256506 41.25,21.0780669 39.2,21.3289963 C38,21.4795539 36.85,21.6802974 35.65,21.830855 C33.7,22.0817844 31.75,22.232342 29.8,22.232342 C29.15,22.232342 28.65,22.232342 28.15,22.232342 Z M24.65,5.87174721 C25.15,6.87546468 26.1,7.2267658 27.1,7.37732342 C27.9,7.52788104 28.7,7.47769517 29.5,7.37732342 C30,7.32713755 30.5,7.07620818 31,6.92565056 C31.4,6.77509294 31.35,6.22304833 31.7,6.07249071 C32.35,5.97211896 32.85,6.12267658 33.4,6.37360595 C34.4,6.82527881 35.4,7.37732342 36.3,8.02973978 C36.5,8.1802974 36.75,8.38104089 37,8.53159851 C37.2,8.68215613 37.4,8.63197026 37.55,8.48141264 C37.75,8.28066914 37.65,8.07992565 37.55,7.92936803 C37.4,7.72862454 37.25,7.52788104 37.05,7.42750929 C35.5,6.42379182 33.95,5.3197026 32.1,4.86802974 C31.75,4.76765799 31.4,4.66728625 31.1,4.26579926 C31.1,3.76394052 31.2,3.01115242 30.4,2.76022305 C29.9,2.76022305 29.45,3.11152416 29.05,3.26208178 C28.4,2.81040892 27.85,2.96096654 27.3,3.31226766 C27.15,3.26208178 27,3.16171004 26.85,3.11152416 C26,2.71003717 25.5,2.91078067 25.2,3.76394052 C25.1,4.01486989 25.05,4.26579926 25,4.51672862 C24.6,4.81784387 24.15,4.81784387 23.7,4.91821561 C22.15,5.42007435 20.65,6.12267658 19.35,7.12639405 C18.95,7.42750929 18.6,7.72862454 18.65,8.28066914 C19,8.58178439 19.25,8.48141264 19.55,8.28066914 C20.1,7.92936803 20.65,7.62825279 21.2,7.27695167 C22.15,6.67472119 23.35,6.22304833 24.65,5.87174721 Z" id="Shape" fill="#FFC941"/>
          <path d="M26.8,23.3866171 C27.4,23.3364312 27.9,23.2360595 28.45,23.1858736 C28.65,23.83829 28.65,24.4907063 28.65,25.0929368 C28.65,26.5483271 28.65,27.9535316 28.65,29.4089219 C28.65,30.2620818 28.65,31.0650558 28.65,31.9182156 C28.6,33.5241636 28.8,35.0799257 28.65,36.6858736 C28.55,37.739777 28.7,38.8438662 28.7,39.8977695 C28.7,41.4033457 28.65,42.9591078 28.65,44.464684 C28.65,46.6226766 28.65,48.7806691 28.7,50.9386617 C28.7,52.2434944 28.65,53.5483271 28.7,54.9033457 C28.7,55.9070632 28.75,56.9107807 28.7,57.8643123 C28.6,58.7174721 28.75,59.5204461 28.7,60.3736059 C28.65,63.8364312 28.65,67.2490706 28.7,70.7118959 C28.7,71.7657993 28.85,72.7695167 28.75,73.8234201 C28.65,75.1282528 28.7,76.4832714 28.7,77.7881041 C28.7,81.0501859 28.65,84.3624535 28.75,87.6245353 C28.75,88.3271375 28.85,89.0799257 28.65,89.8327138 C28.1,90.0334572 27.55,89.9330855 27.05,89.7825279 C26.75,89.3810409 26.8,88.929368 26.8,88.4776952 C26.8,87.1226766 26.8,85.767658 26.8,84.4126394 C26.8,82.0037175 26.85,79.5446097 26.85,77.1356877 C26.85,75.1282528 26.9,73.070632 26.85,71.063197 C26.75,67.098513 26.9,63.1840149 26.85,59.2193309 C26.85,57.2118959 26.9,55.2546468 26.85,53.2472119 C26.8,50.2862454 26.85,47.3252788 26.85,44.3643123 C26.85,41.9553903 26.75,39.4962825 26.85,37.0873606 C26.9,36.0334572 26.85,34.929368 26.85,33.8754647 C26.85,31.0148699 26.8,28.1542751 26.8,25.2936803 C26.65,24.6914498 26.75,24.0892193 26.8,23.3866171 Z" id="Shape" fill="#CDE6E7"/>
          <path d="M39.05,94.1486989 C39.15,94.7007435 38.9,95.1524164 38.5,95.6040892 C35.85,94.5501859 33.15,93.5966543 30.4,92.8438662 C30.15,92.4423792 30.2,92.0408922 30.25,91.6895911 C30.55,91.4386617 30.75,91.6394052 30.95,91.6895911 C32.4,92.1412639 33.85,92.5929368 35.3,92.9442379 C36.45,93.2453532 37.6,93.5966543 38.75,93.9479554 C38.85,93.9981413 38.95,94.098513 39.05,94.1486989 Z" id="Shape" fill="#CAE2E3"/>
          <path d="M24.8,91.6895911 C24.85,91.8401487 24.9,91.9907063 24.9,92.1412639 C24.9,92.7434944 24.8,92.894052 24.2,93.0947955 C23.3,93.3959108 22.35,93.6468401 21.45,93.9479554 C19.9,94.4498141 18.35,95.0018587 16.85,95.6542751 C16.3,95.3531599 16.25,94.8513011 16.1,94.5 C16.2,94.098513 16.45,94.0483271 16.7,93.9479554 C19.3,93.1951673 21.9,92.4423792 24.5,91.6895911 C24.6,91.5892193 24.65,91.6394052 24.8,91.6895911 Z" id="Shape" fill="#CAE2E3"/>
          <path d="M26.1,93.0446097 C25.6,92.1412639 25.9,91.4386617 26.25,90.6356877 C27.2,90.8364312 28.15,91.0371747 29.1,90.8364312 C29.55,91.5390335 29.45,92.2416357 29.4,92.9944238 C28.3,93.4460967 27.2,93.1951673 26.1,93.0446097 Z" id="Shape" fill="#C8DFE0"/>
          <path d="M24.65,5.87174721 C23.35,6.17286245 22.2,6.67472119 21.1,7.32713755 C20.55,7.67843866 20,7.9795539 19.45,8.33085502 C19.15,8.48141264 18.85,8.58178439 18.55,8.33085502 C18.55,7.77881041 18.9,7.47769517 19.25,7.17657993 C20.55,6.17286245 22.05,5.47026022 23.6,4.96840149 C24,4.81784387 24.45,4.81784387 24.9,4.5669145 C24.95,4.31598513 25,4.06505576 25.1,3.81412639 C25.4,2.91078067 25.9,2.76022305 26.75,3.16171004 C26.9,3.21189591 27.05,3.31226766 27.2,3.36245353 C27.75,2.96096654 28.3,2.8605948 28.95,3.31226766 C29.35,3.16171004 29.8,2.8605948 30.3,2.81040892 C31.15,3.06133829 31,3.76394052 31,4.31598513 C31.3,4.71747212 31.65,4.81784387 32,4.91821561 C33.85,5.42007435 35.4,6.4739777 36.95,7.47769517 C37.15,7.62825279 37.3,7.77881041 37.45,7.9795539 C37.55,8.13011152 37.65,8.33085502 37.45,8.53159851 C37.3,8.68215613 37.1,8.73234201 36.9,8.58178439 C36.65,8.43122677 36.45,8.28066914 36.2,8.07992565 C35.3,7.42750929 34.35,6.87546468 33.3,6.42379182 C32.8,6.17286245 32.25,6.07249071 31.6,6.12267658 C31.3,6.2732342 31.3,6.82527881 30.9,6.97583643 C30.4,7.12639405 29.9,7.37732342 29.4,7.42750929 C28.6,7.52788104 27.8,7.57806691 27,7.42750929 C26.1,7.2267658 25.15,6.92565056 24.65,5.87174721 Z M27.55,4.61710037 C27,4.71747212 26.65,4.06505576 26.05,3.96468401 C26.35,4.76765799 26.9,4.86802974 27.5,4.86802974 C28.05,4.96840149 28.6,4.96840149 29.15,4.86802974 C29.35,4.81784387 29.5,4.66728625 29.35,4.41635688 C28.85,4.86802974 28.5,4.46654275 28.15,4.16542751 C27.95,4.366171 27.75,4.51672862 27.55,4.61710037 Z M30.15,5.67100372 C29.45,5.92193309 28.7,5.72118959 28,5.82156134 C27.3,5.92193309 26.65,5.47026022 25.95,5.62081784 C26.2,5.92193309 26.5,6.02230483 26.8,6.12267658 C27.35,6.22304833 27.9,6.32342007 28.45,6.42379182 C29.2,6.57434944 29.55,6.42379182 30.15,5.67100372 Z" id="Shape" fill="#020201"/>
          <path d="M30.15,5.67100372 C29.55,6.42379182 29.2,6.57434944 28.45,6.42379182 C27.9,6.32342007 27.35,6.22304833 26.8,6.12267658 C26.5,6.07249071 26.2,5.97211896 25.95,5.62081784 C26.7,5.47026022 27.3,5.92193309 28,5.82156134 C28.7,5.77137546 29.45,5.92193309 30.15,5.67100372 Z" id="Shape" fill="#A2B5B6"/>
          <path d="M27.55,4.61710037 C27.75,4.46654275 27.9,4.366171 28.15,4.16542751 C28.5,4.46654275 28.85,4.81784387 29.35,4.41635688 C29.5,4.71747212 29.4,4.81784387 29.15,4.86802974 C28.6,4.96840149 28.05,5.01858736 27.5,4.86802974 C27.55,4.81784387 27.55,4.71747212 27.55,4.61710037 Z" id="Shape" fill="#A6BABA"/>
          <path d="M27.55,4.61710037 C27.55,4.71747212 27.55,4.76765799 27.55,4.86802974 C26.95,4.86802974 26.35,4.76765799 26.1,3.96468401 C26.7,4.11524164 27,4.71747212 27.55,4.61710037 Z" id="Shape" fill="#656768"/>
        </g>
        <g id="Group" transform="translate(26.000000, 22.037175)">
          <path d="M4.95,8.07992565 C3.95,7.9795539 2.95,7.52788104 2.05,6.77509294 C1.9,6.62453532 1.85,6.42379182 1.85,6.22304833 C1.85,5.97211896 2.1,5.77137546 2.35,5.82156134 C2.65,5.87174721 2.85,6.07249071 3.05,6.22304833 C3.5,6.52416357 3.95,6.77509294 4.45,6.87546468 C5.55,7.17657993 6.5,6.82527881 7.4,6.2732342 C7.6,6.17286245 7.8,5.97211896 8,5.87174721 C8.15,5.77137546 8.3,5.82156134 8.45,5.97211896 C8.6,6.12267658 8.55,6.2732342 8.55,6.42379182 C8.5,6.67472119 8.3,6.82527881 8.1,6.97583643 C7.25,7.72862454 6.25,8.07992565 4.95,8.07992565 Z" id="Shape" fill="#0B0B0B"/>
          <path d="M9.25,0.451672862 C9.9,0.451672862 10.4,0.953531599 10.35,1.60594796 C10.3,2.25836431 9.75,2.81040892 9.25,2.81040892 C8.55,2.76022305 8.15,2.30855019 8.2,1.50557621 C8.2,0.802973978 8.6,0.451672862 9.25,0.451672862 Z" id="Shape" fill="#0D0C0D"/>
          <path d="M0.15,1.85687732 C0.15,1.20446097 0.55,0.853159851 1.2,0.853159851 C1.85,0.903345725 2.35,1.35501859 2.35,1.95724907 C2.35,2.45910781 1.75,2.96096654 1.2,2.96096654 C0.65,3.06133829 0.15,2.50929368 0.15,1.85687732 Z" id="Shape" fill="#0B0B0B"/>
        </g>
      </g>
    </g>
  </g>
</svg>