<svg width="80px" height="139px" viewBox="0 0 80 139" version="1.1" xml:space="preserve" xmlns="http://www.w3.org/2000/svg" xmlns:xlink="http://www.w3.org/1999/xlink">
  <defs/>
  <g>
    <title>drum-snare-a</title>
    <desc>Created with Sketch.</desc>
    <g id="music" stroke="none" stroke-width="1" fill="none" fill-rule="evenodd">
      <g id="drum-snare-a" fill-rule="nonzero">
        <g id="Group" transform="translate(17.000000, 19.000000)">
          <path d="M19.1223529,56.35 C19.2741176,48.4 19.1729412,40.45 19.1729412,32.45 C18.6164706,32.4 18.1611765,32.35 17.7058824,32.35 C16.2388235,32.45 14.8223529,32.25 13.3552941,32.05 C12.0905882,31.9 10.7752941,31.75 9.51058824,31.5 C8.14470588,31.25 6.88,30.8 5.56470588,30.4 C4.95764706,30.2 4.35058824,29.95 3.74352941,29.75 C2.78235294,29.45 1.97294118,28.8 1.11294118,28.35 C0.809411765,28.2 0.708235294,27.85 0.657647059,27.55 C0.556470588,26.25 0.505882353,24.9 0.758823529,23.6 C0.809411765,23.4 0.86,23.2 1.01176471,23.1 C1.41647059,22.9 1.36588235,22.55 1.36588235,22.15 C1.26470588,18.4 1.16352941,14.65 1.31529412,10.95 C1.16352941,10.5 0.657647059,10.5 0.556470588,10.15 C0.455294118,9.8 0.455294118,9.45 0.404705882,9.1 C0.354117647,8 0.354117647,6.85 0.303529412,5.75 C0.252941176,5.1 0.556470588,4.7 1.06235294,4.4 C2.02352941,3.8 3.08588235,3.4 4.14823529,3.05 C6.32352941,2.35 8.49882353,1.85 10.7247059,1.5 C12.5964706,1.2 14.4682353,1 16.3905882,0.8 C20.5388235,0.4 24.6870588,0.25 28.8352941,0.45 C31.7188235,0.55 34.5517647,0.85 37.3847059,1.35 C38.2952941,1.5 39.2058824,1.75 40.0658824,2 C40.3694118,2.1 40.6729412,2.2 40.9764706,2.35 C42.14,2.85 42.6964706,3.8 42.6964706,5 C42.7470588,6.05 42.7976471,7.05 42.5447059,8.1 C42.4941176,8.4 42.4941176,8.75 42.4941176,9.05 C42.1905882,9.3 41.9376471,9.5 41.5835294,9.75 C41.5835294,13.2 41.5835294,16.65 41.5835294,20.35 C41.6341176,20.55 42.14,20.55 42.2411765,20.95 C42.3423529,21.35 42.3929412,21.75 42.4435294,22.15 C42.5447059,23.45 42.5447059,24.8 42.5447059,26.1 C42.5447059,26.65 42.2917647,27 41.8870588,27.3 C41.7352941,27.4 41.6341176,27.5 41.4823529,27.55 C39.4588235,28.6 37.4352941,29.55 35.26,30.15 C34.5011765,30.35 33.7929412,30.5 33.0341176,30.65 C31.3141176,31 29.6447059,31.35 27.9247059,31.65 C26.9635294,31.8 26.0023529,31.9 25.0411765,32 C24.5858824,32.05 24.1305882,32.05 23.7258824,32.25 C23.4729412,32.6 23.6247059,33 23.6247059,33.4 C23.6247059,35.9 23.6247059,38.35 23.5741176,40.8 C23.5235294,42.9 23.5741176,45 23.5741176,47.1 C23.5741176,50 23.7258824,52.95 23.6247059,55.85 C23.6247059,56.15 23.6247059,56.4 23.6752941,56.65 C23.8776471,57 24.1305882,57.05 24.3835294,57.15 C26.1541176,57.7 27.9247059,58.25 29.6952941,58.7 C30.7576471,59 31.7694118,59.3 32.7811765,59.65 C33.2364706,59.8 33.6411765,59.8 34.0964706,59.85 C34.9564706,59.9 35.7658824,60.2 36.4741176,60.6 C37.5364706,61.2 37.8905882,62.45 37.3847059,63.5 C36.7270588,64.7 35.5129412,65.2 34.3494118,64.6 C33.8435294,64.35 33.3376471,64.05 32.9329412,63.7 C32.5788235,63.35 32.1741176,63.15 31.7188235,62.95 C29.1894118,61.95 26.66,61.05 24.0294118,60.4 C23.8270588,60.35 23.6752941,60.35 23.4223529,60.4 C22.2588235,60.8 21.0447059,60.65 19.8305882,60.4 C19.2741176,60.3 18.7176471,60.25 18.1611765,60.45 C17.8070588,60.6 17.4529412,60.65 17.0988235,60.7 C14.7717647,61.3 12.4952941,62.2 10.2694118,63.1 C10.0164706,63.2 9.81411765,63.35 9.56117647,63.55 C9.10588235,64 8.54941176,64.3 7.94235294,64.6 C6.47529412,65.35 4.65411765,63.9 4.75529412,62.45 C4.80588235,61.55 5.16,60.85 6.07058824,60.45 C6.82941176,60.1 7.63882353,59.8 8.49882353,59.8 C9.05529412,59.8 9.51058824,59.65 10.0164706,59.5 C11.7870588,58.85 13.6588235,58.5 15.4294118,57.9 C16.2894118,57.65 17.1494118,57.4 17.9588235,57.15 C18.5152941,57 18.7176471,56.55 19.1223529,56.35 Z M17.5541176,9.25 C17.3011765,9.2 17.0482353,9.2 16.8458824,9.25 C15.7835294,9.15 14.7211765,9.15 13.7094118,9.2 C13.6588235,9.15 13.6082353,9.15 13.5576471,9.15 C12.7988235,8.95 11.9894118,9 11.18,8.9 C8.49882353,8.65 5.81764706,8.3 3.23764706,7.5 C2.68117647,7.35 2.07411765,7.1 1.51764706,6.9 C1.36588235,7.45 1.56823529,7.95 1.56823529,8.45 C1.56823529,9.6 1.61882353,9.9 3.08588235,10.4 C3.28823529,10.45 3.49058824,10.55 3.64235294,10.6 C5.00823529,10.95 6.37411765,11.3 7.79058824,11.55 C9.35882353,11.8 10.9270588,12.15 12.5458824,12.05 C12.9505882,12.15 13.3552941,12.15 13.76,12.1 C14.1647059,12.25 14.5694118,12.2 14.9741176,12.2 C18.2623529,12.4 21.6011765,12.2 24.8894118,12.05 C26.0529412,12 27.2164706,11.95 28.38,11.8 C31.7188235,11.4 35.0070588,11 38.2447059,9.95 C39.4588235,9.55 40.5717647,9.15 41.6341176,8.4 C41.7858824,7.45 41.7858824,6.5 41.7352941,5.55 C41.7352941,5.5 41.6341176,5.45 41.5835294,5.4 C40.2176471,6 38.9023529,6.7 37.4352941,7.1 C32.5788235,8.3 27.6211765,8.9 22.6129412,9.1 C21.5,9.15 20.4376471,9.15 19.3247059,9.2 C19.2235294,9.2 19.1729412,9.2 19.0717647,9.2 C18.5152941,9.15 18.06,9.1 17.5541176,9.25 Z M12.6470588,30.85 C12.7482353,30.9 12.8494118,31 12.9505882,31 C15.0752941,31.1 17.2,31.4 19.3247059,31.3 C19.9823529,31.25 20.5894118,31.35 21.2470588,31.15 C21.4494118,31.2 21.7023529,31.25 21.9047059,31.1 C22.1070588,31.1 22.3094118,31.1 22.5117647,31.1 C27.0141176,30.9 31.4152941,30.1 35.7152941,28.85 C37.5364706,28.35 39.1552941,27.5 40.7741176,26.6 C40.9764706,26.5 41.1788235,26.35 41.28,26.15 C41.28,25.05 41.28,23.9 41.28,22.75 C40.8752941,22.8 40.6223529,23 40.3694118,23.2 C39.9141176,23.55 39.4082353,23.85 38.9023529,24.05 C36.9294118,24.9 34.9058824,25.55 32.8317647,26.05 C30.5552941,26.6 28.2282353,26.9 25.9011765,27.25 C25.2435294,27.35 24.6364706,27.45 23.9788235,27.5 C23.2705882,27.55 22.5117647,27.6 21.8035294,27.75 C20.4882353,27.65 19.2235294,27.7 17.9082353,27.75 C16.3905882,27.6 14.8223529,27.5 13.3047059,27.55 C13.0011765,27.55 12.6976471,27.5 12.3941176,27.5 C12.1411765,27.3 11.8882353,27.35 11.5847059,27.3 C9.25764706,27 7.03176471,26.4 4.75529412,25.75 C3.89529412,25.5 3.13647059,25.1 2.32705882,24.75 C1.87176471,24.55 1.61882353,24.75 1.56823529,25.2 C1.51764706,26.05 1.56823529,26.85 1.66941176,27.75 C1.97294118,27.95 2.27647059,28.1 2.58,28.3 C3.89529412,29.05 5.36235294,29.4 6.77882353,29.8 C8.6,30.35 10.4211765,30.9 12.2929412,30.85 L12.3941176,30.9 L12.6470588,30.85 Z M15.8341176,13.5 C15.6823529,13.5 15.5305882,13.5 15.4294118,13.5 C15.1258824,13.3 14.8223529,13.35 14.4682353,13.35 C13.4058824,13.3 12.2929412,13.3 11.2811765,13.15 C11.0788235,13.35 11.0788235,13.55 11.0282353,13.75 C11.0282353,14.1 11.0282353,14.45 10.9776471,14.85 C10.8764706,15.6 10.5729412,15.85 9.81411765,15.95 C9.56117647,15.95 9.30823529,15.9 9.10588235,16.1 C8.80235294,18.15 8.75176471,20.25 8.85294118,22.35 C9.10588235,22.45 9.30823529,22.5 9.46,22.55 C10.2694118,22.85 10.6741176,23.45 10.7247059,24.3 C10.7247059,24.6 10.7247059,24.95 10.7247059,25.25 C10.7247059,25.5 10.6741176,25.75 10.9776471,26 C12.1917647,25.9 13.5070588,26.3 14.8223529,26.25 C16.2388235,26.3 17.6552941,26.4 19.0211765,26.45 C19.5776471,26.45 20.1341176,26.55 20.6905882,26.3 C21.1458824,26.35 21.6517647,26.4 22.1070588,26.25 C22.2588235,26.25 22.4105882,26.3 22.5623529,26.3 C25.1929412,26.05 27.7729412,25.8 30.3529412,25.35 C31.0611765,25.25 31.7188235,24.95 32.4270588,24.75 C32.2247059,22.8 32.8823529,21.4 34.9058824,20.9 C34.8047059,19.05 35.0070588,17.25 34.8047059,15.4 C34.6023529,15.35 34.4505882,15.3 34.2988235,15.25 C33.1858824,14.95 32.9835294,14.7 32.8317647,13.55 C32.7811765,13.2 32.8317647,12.75 32.5788235,12.45 C31.0105882,12.65 29.4929412,12.9 27.9752941,13.05 C25.6482353,13.3 23.3211765,13.4 20.9941176,13.4 C20.7411765,13.4 20.4882353,13.35 20.2858824,13.55 C19.5776471,13.45 18.8694118,13.5 18.1611765,13.6 C17.4529412,13.45 16.6435294,13.35 15.8341176,13.5 Z M38.6494118,5.45 C38.4976471,5.15 38.2952941,5.15 38.1435294,5.1 C37.0811765,4.9 36.0188235,4.7 34.9058824,4.5 C32.4776471,4.1 29.9988235,3.95 27.5705882,3.85 C24.3329412,3.75 21.0952941,3.8 17.8576471,4.1 C16.1376471,4.25 14.4176471,4.4 12.6976471,4.65 C10.5223529,5 8.34705882,5.5 6.22235294,6.1 C5.76705882,6.25 5.26117647,6.3 4.80588235,6.65 C4.90705882,6.7 4.95764706,6.8 5.05882353,6.8 C5.26117647,6.85 5.41294118,6.95 5.61529412,7 C8.04352941,7.5 10.4717647,7.85 12.9505882,7.9 C15.48,7.95 17.9588235,8 20.4882353,7.95 C23.0176471,7.95 25.4964706,7.75 27.9752941,7.5 C29.8976471,7.35 31.82,6.95 33.7423529,6.65 C35.3611765,6.5 36.98,6.05 38.6494118,5.45 Z M41.2294118,4.05 C41.1282353,3.7 40.9258824,3.6 40.7235294,3.5 C40.0658824,3.15 39.4082353,2.9 38.7,2.7 C36.8788235,2.25 35.0576471,2 33.2364706,1.8 C31.6176471,1.6 29.9482353,1.55 28.2788235,1.5 C23.7258824,1.4 19.1729412,1.55 14.62,2.05 C11.4329412,2.4 8.29647059,2.95 5.26117647,3.8 C4.60352941,4 3.94588235,4.2 3.28823529,4.45 C2.78235294,4.6 2.32705882,4.9 1.97294118,5.25 C1.82117647,5.4 1.77058824,5.6 1.92235294,5.8 C2.47882353,6.35 3.23764706,6.45 3.89529412,6.1 C4.55294118,5.75 5.21058824,5.45 5.91882353,5.25 C6.93058824,4.95 7.94235294,4.7 8.95411765,4.45 C12.1917647,3.65 15.48,3.2 18.7682353,3.05 C24.1811765,2.85 29.5941176,2.75 34.9564706,3.5 C36.5752941,3.75 38.2447059,3.9 39.8129412,4.5 C40.3694118,4.75 40.8247059,4.6 41.2294118,4.05 Z M7.48705882,21.95 C7.48705882,19.95 7.48705882,17.9 7.53764706,15.8 C7.18352941,15.65 6.88,15.55 6.57647059,15.45 C5.66588235,15.15 5.21058824,14.55 5.31176471,13.55 C5.36235294,13.15 5.31176471,12.7 5.31176471,12.25 C4.24941176,11.95 3.28823529,11.65 2.22588235,11.35 C2.22588235,11.65 2.17529412,11.85 2.17529412,12.05 C2.17529412,13.55 2.17529412,15.1 2.22588235,16.6 C2.22588235,17.8 2.37764706,19 2.32705882,20.2 C2.27647059,21.3 2.42823529,22.4 2.52941176,23.55 C3.33882353,24.05 4.14823529,24.35 5.10941176,24.55 C5.16,24.1 5.16,23.75 5.21058824,23.4 C5.36235294,22.55 5.71647059,22.25 6.57647059,22.15 C6.88,22.1 7.08235294,22.2 7.48705882,21.95 Z M22.4105882,56.45 C22.4105882,48.4 22.4105882,40.5 22.4105882,32.55 C22.4105882,32.5 22.36,32.5 22.36,32.45 C22.36,32.4 22.3094118,32.4 22.2082353,32.3 C21.6011765,32.3 20.9941176,32.3 20.3364706,32.5 C20.3364706,32.65 20.2858824,32.85 20.2858824,33 C20.3364706,33.85 20.3870588,34.65 20.3870588,35.5 C20.3870588,39.55 20.3870588,43.55 20.3870588,47.6 C20.3870588,49.85 20.2858824,52.15 20.3364706,54.4 C20.3364706,55.05 20.1847059,55.75 20.4376471,56.4 C21.0447059,56.55 21.6517647,56.6 22.4105882,56.45 Z M38.2952941,22.9 C38.9023529,22.6 39.3576471,22.4 39.8129412,22.1 C40.2176471,21.85 40.3694118,21.55 40.42,21 C40.6729412,17.6 40.5211765,14.25 40.5717647,10.85 C40.5717647,10.65 40.5717647,10.45 40.2682353,10.35 C39.7623529,10.55 39.2058824,10.8 38.7,11 C38.4976471,11.4 38.5988235,11.8 38.6494118,12.15 C38.8517647,13.5 38.2447059,14.4 37.0305882,14.9 C36.7776471,15 36.5247059,15.15 36.2717647,15.25 C36.2717647,17.05 36.2717647,18.85 36.2717647,20.65 C36.6258824,20.7 36.9294118,20.75 37.2835294,20.8 C37.84,20.9 38.1435294,21.25 38.1941176,21.75 C38.2447059,22.1 38.2447059,22.4 38.2952941,22.9 Z M32.2247059,62.2 C32.6294118,61.75 32.9329412,61.3 32.7811765,60.7 C31.9211765,60.35 24.5858824,58.3 23.9282353,58.2 C23.8270588,58.6 23.8270588,58.95 24.0294118,59.4 C26.8117647,60.15 29.5435294,61.05 32.2247059,62.2 Z M18.2117647,58.2 C17.3011765,58.45 16.34,58.75 15.3788235,59.05 C14.4176471,59.35 13.4564706,59.55 12.4952941,59.9 C11.5341176,60.2 10.5223529,60.3 9.61176471,60.8 C9.66235294,61.35 9.81411765,61.85 10.1682353,62.1 C10.4717647,62.2 10.5729412,62.1 10.7247059,62.05 C11.9894118,61.5 13.3047059,61.05 14.5694118,60.65 C15.6317647,60.3 16.6941176,59.95 17.8070588,59.65 C18.3129412,59.5 18.4647059,59.3 18.4647059,58.8 C18.5152941,58.55 18.4647059,58.35 18.2117647,58.2 Z M37.1317647,11.5 C36.0694118,11.75 35.0070588,11.8 34.0458824,12.2 C34.0458824,12.95 34.2482353,13.55 34.4505882,14.2 C35.4117647,14.4 36.1705882,14.25 36.98,13.8 C37.2329412,13.65 37.3847059,13.5 37.3847059,13.25 C37.3847059,12.7 37.5364706,12.15 37.1317647,11.5 Z M19.7294118,57.2 C19.6788235,57.95 19.6282353,58.5 19.5776471,59.1 C19.5776471,59.5 19.8305882,59.8 20.1341176,59.75 C20.9435294,59.65 21.8035294,59.95 22.7141176,59.6 C22.7141176,59.25 22.7647059,58.9 22.7141176,58.55 C22.6635294,58.2 22.8658824,57.85 22.5623529,57.45 C21.6517647,57.6 20.7411765,57.4 19.7294118,57.2 Z M6.57647059,23.2 C6.22235294,23.75 6.07058824,24.25 6.32352941,24.9 C7.33529412,25.3 8.34705882,25.6 9.56117647,25.55 C9.56117647,25.15 9.61176471,24.75 9.61176471,24.35 C9.61176471,24 9.40941176,23.75 9.05529412,23.65 C8.24588235,23.4 7.48705882,23.1 6.57647059,23.2 Z M33.9447059,24.35 C34.9058824,24.35 35.7152941,23.95 36.5247059,23.7 C36.7776471,23.65 36.9294118,23.4 36.9294118,23.15 C36.98,22.75 37.0811765,22.3 36.7776471,21.9 C36.3729412,21.9 36.0188235,21.85 35.6647059,21.9 C34.4,22.25 33.6917647,22.2 33.9447059,24.35 Z M6.67764706,14.3 C7.79058824,14.8 8.29647059,14.85 9.71294118,14.55 C9.81411765,14.05 9.86470588,13.5 9.61176471,12.9 C8.54941176,12.85 7.58823529,12.45 6.52588235,12.5 C6.52588235,13.2 6.52588235,13.7 6.67764706,14.3 Z" id="Shape" fill="#010001"/>
          <path d="M20.3870588,13.5 C20.5894118,13.35 20.8423529,13.35 21.0952941,13.35 C23.4223529,13.35 25.7494118,13.25 28.0764706,13 C29.5941176,12.85 31.1117647,12.6 32.68,12.4 C32.9329412,12.7 32.8823529,13.15 32.9329412,13.5 C33.0847059,14.65 33.2870588,14.9 34.4,15.2 C34.5517647,15.25 34.7035294,15.3 34.9058824,15.35 C35.1082353,17.15 34.9058824,19 35.0070588,20.85 C32.9329412,21.35 32.2752941,22.75 32.5282353,24.7 C31.82,24.9 31.1623529,25.2 30.4541176,25.3 C27.8741176,25.7 25.2941176,26 22.6635294,26.25 C22.5117647,26.25 22.36,26.25 22.2082353,26.2 C22.4611765,25.75 23.1188235,26.2 23.4223529,25.7 C23.4223529,23.8 23.4223529,21.85 23.4223529,19.9 C23.4223529,19.8 23.4223529,19.65 23.4223529,19.55 C23.1188235,18.85 23.22,18.15 23.22,17.45 C23.22,16.35 23.22,15.3 23.22,14.2 C23.22,13.95 23.2705882,13.7 23.0176471,13.55 C22.1070588,13.55 21.2470588,13.5 20.3870588,13.5 Z" id="Shape" fill="#D0E9EA"/>
          <path d="M38.6494118,5.45 C37.0305882,6 35.3611765,6.45 33.6917647,6.75 C31.7694118,7.05 29.8976471,7.4 27.9247059,7.6 C25.4458824,7.8 22.9164706,8 20.4376471,8.05 C17.9082353,8.05 15.4294118,8.05 12.9,8 C10.4211765,7.95 7.99294118,7.6 5.56470588,7.1 C5.36235294,7.05 5.16,7 5.00823529,6.9 C4.95764706,6.85 4.85647059,6.8 4.75529412,6.75 C5.21058824,6.45 5.66588235,6.35 6.17176471,6.2 C8.29647059,5.6 10.4717647,5.1 12.6470588,4.75 C14.3670588,4.5 16.0870588,4.35 17.8070588,4.2 C21.0447059,3.95 24.2823529,3.9 27.52,3.95 C29.9988235,4 32.4270588,4.15 34.8552941,4.6 C35.9176471,4.8 36.98,4.95 38.0929412,5.2 C38.2952941,5.15 38.4470588,5.2 38.6494118,5.45 Z" id="Shape" fill="#F4E6D0"/>
          <path d="M19.2741176,9.25 C20.3870588,9.2 21.4494118,9.2 22.5623529,9.15 C27.5705882,8.95 32.5282353,8.35 37.3847059,7.15 C38.8517647,6.8 40.1670588,6.05 41.5329412,5.45 C41.5835294,5.5 41.6847059,5.55 41.6847059,5.6 C41.7352941,6.55 41.7352941,7.5 41.5835294,8.45 C40.5211765,9.2 39.3576471,9.6 38.1941176,10 C35.0070588,11 31.6682353,11.4 28.3294118,11.85 C27.1658824,12 26.0023529,12.05 24.8388235,12.1 C21.5505882,12.25 18.2117647,12.45 14.9235294,12.25 C14.5188235,12.25 14.1141176,12.3 13.7094118,12.15 C13.7094118,11.2 13.7094118,10.2 13.7094118,9.25 C14.7717647,9.2 15.8341176,9.2 16.8458824,9.3 C16.3905882,10.2 16.6435294,11.15 16.6941176,12.1 C17.7058824,12.1 18.6670588,12.1 19.5776471,12.1 C20.2352941,11.5 19.9823529,10.75 19.9823529,10.05 C19.9823529,9.55 19.4258824,9.55 19.2741176,9.25 Z M39.4082353,7.9 C38.9529412,7.7 38.5988235,7.75 38.1941176,7.9 C37.2835294,8.2 36.3729412,8.55 35.4623529,8.7 C33.8435294,8.95 32.2752941,9.4 30.6564706,9.7 C30.2517647,9.75 29.9988235,10 29.7964706,10.3 C30.1,10.8 30.5552941,10.7 30.96,10.6 C32.1235294,10.4 33.2870588,10.15 34.4505882,9.9 C35.7658824,9.6 37.0811765,9.3 38.3964706,8.85 C38.8011765,8.7 39.2058824,8.5 39.4082353,7.9 Z" id="Shape" fill="#D0E9EA"/>
          <path d="M20.3870588,13.5 C21.2470588,13.55 22.0564706,13.55 22.8658824,13.6 C23.1188235,13.8 23.0682353,14.05 23.0682353,14.25 C23.0682353,15.35 23.0682353,16.4 23.0682353,17.5 C23.0682353,18.2 22.9670588,18.95 23.2705882,19.6 C23.3211765,19.7 23.2705882,19.85 23.2705882,19.95 C23.2705882,21.9 23.2705882,23.85 23.2705882,25.75 C22.9670588,26.25 22.3094118,25.8 22.0564706,26.25 C21.6011765,26.4 21.1458824,26.35 20.64,26.3 C19.8305882,26.15 19.0211765,26.4 18.2623529,26.15 C18.2117647,26 18.1611765,25.95 18.1611765,25.9 C18.1611765,21.8 18.1611765,17.65 18.1611765,13.55 C18.9705882,13.45 19.6788235,13.4 20.3870588,13.5 Z" id="Shape" fill="#F3FFFF"/>
          <path d="M21.9047059,27.7 C22.6129412,27.55 23.3211765,27.5 24.08,27.45 C24.7376471,27.4 25.3447059,27.3 26.0023529,27.2 C28.3294118,26.85 30.6564706,26.55 32.9329412,26 C35.0070588,25.5 37.0305882,24.8 39.0035294,24 C39.5094118,23.8 40.0152941,23.5 40.4705882,23.15 C40.7235294,22.95 40.9764706,22.75 41.3811765,22.7 C41.3811765,23.85 41.3811765,24.95 41.3811765,26.1 C41.28,26.3 41.0776471,26.45 40.8752941,26.55 C39.2564706,27.45 37.6376471,28.3 35.8164706,28.8 C31.4658824,30.05 27.0647059,30.8 22.6129412,31.05 C22.4105882,31.05 22.2082353,31.05 22.0058824,31.05 C21.9047059,29.95 21.9047059,28.8 21.9047059,27.7 Z M39.56,25.15 C39.0541176,25.3 38.4470588,25.4 37.8905882,25.55 C37.0811765,25.75 36.2717647,26.1 35.4623529,26.2 C34.2988235,26.35 33.2364706,26.75 32.0729412,27 C31.82,27.05 31.6176471,27.2 31.4152941,27.3 C31.2129412,27.4 31.1117647,27.55 31.2635294,27.85 C31.82,27.95 32.4270588,27.95 33.0341176,27.8 C34.6023529,27.4 36.12,27.05 37.6882353,26.65 C38.3964706,26.45 39.0541176,26.25 39.6611765,25.8 C39.9141176,25.65 39.9141176,25.4 39.56,25.15 Z" id="Shape" fill="#D0E9EA"/>
          <path d="M41.2294118,4.05 C40.8247059,4.6 40.3694118,4.75 39.7623529,4.5 C38.1941176,3.9 36.5752941,3.7 34.9058824,3.5 C29.5435294,2.75 24.08,2.8 18.7176471,3.05 C15.4294118,3.2 12.1411765,3.65 8.90352941,4.45 C7.89176471,4.7 6.88,4.95 5.86823529,5.25 C5.16,5.45 4.50235294,5.75 3.84470588,6.1 C3.18705882,6.45 2.42823529,6.35 1.87176471,5.8 C1.72,5.65 1.72,5.4 1.92235294,5.25 C2.32705882,4.9 2.73176471,4.6 3.23764706,4.45 C3.89529412,4.25 4.55294118,4 5.21058824,3.8 C8.29647059,2.95 11.4329412,2.4 14.5694118,2.05 C19.1223529,1.55 23.6752941,1.45 28.2282353,1.5 C29.8976471,1.55 31.5670588,1.6 33.1858824,1.8 C35.0070588,2 36.8788235,2.25 38.6494118,2.7 C39.3576471,2.9 40.0152941,3.15 40.6729412,3.5 C40.9258824,3.6 41.1282353,3.7 41.2294118,4.05 Z" id="Shape" fill="#AACECF"/>
          <path d="M7.48705882,21.95 C7.08235294,22.2 6.82941176,22.1 6.62705882,22.1 C5.76705882,22.15 5.41294118,22.5 5.26117647,23.35 C5.21058824,23.7 5.21058824,24.05 5.16,24.5 C4.19882353,24.3 3.33882353,24 2.58,23.5 C2.47882353,22.4 2.32705882,21.3 2.37764706,20.15 C2.42823529,18.95 2.27647059,17.75 2.27647059,16.55 C2.22588235,15.05 2.27647059,13.5 2.22588235,12 C2.22588235,11.8 2.22588235,11.6 2.27647059,11.3 C3.33882353,11.6 4.3,11.9 5.36235294,12.2 C5.36235294,12.65 5.41294118,13.05 5.36235294,13.5 C5.26117647,14.5 5.66588235,15.1 6.62705882,15.4 C6.93058824,15.5 7.23411765,15.6 7.58823529,15.75 C7.53764706,17.9 7.48705882,19.95 7.48705882,21.95 Z" id="Shape" fill="#CFE8E9"/>
          <path d="M22.4105882,56.45 C21.6517647,56.6 21.0952941,56.55 20.4376471,56.4 C20.1847059,55.75 20.3364706,55.05 20.3364706,54.4 C20.2858824,52.15 20.3870588,49.85 20.3870588,47.6 C20.3870588,43.55 20.3870588,39.55 20.3870588,35.5 C20.3870588,34.65 20.3364706,33.85 20.2858824,33 C20.2858824,32.85 20.3364706,32.7 20.3364706,32.5 C20.9941176,32.35 21.6011765,32.3 22.2082353,32.3 C22.3094118,32.35 22.3094118,32.4 22.36,32.45 C22.36,32.5 22.4105882,32.5 22.4105882,32.55 C22.4105882,40.45 22.4105882,48.4 22.4105882,56.45 Z" id="Shape" fill="#CFE8E9"/>
          <path d="M14.8729412,26.25 C13.5576471,26.3 12.2423529,25.95 11.0282353,26 C10.7247059,25.75 10.7752941,25.5 10.7752941,25.25 C10.7752941,24.95 10.7752941,24.6 10.7752941,24.3 C10.7247059,23.45 10.32,22.9 9.51058824,22.55 C9.30823529,22.5 9.10588235,22.4 8.90352941,22.35 C8.80235294,20.25 8.85294118,18.15 9.15647059,16.1 C9.40941176,15.85 9.66235294,15.95 9.86470588,15.95 C10.6741176,15.85 10.9270588,15.6 11.0282353,14.85 C11.0788235,14.5 11.0788235,14.15 11.0788235,13.75 C11.0788235,13.55 11.0788235,13.35 11.3317647,13.15 C12.3435294,13.3 13.4564706,13.3 14.5188235,13.35 C14.8223529,13.35 15.1764706,13.3 15.48,13.5 C14.8223529,13.55 14.2152941,13.55 13.5070588,13.6 C13.5070588,15 13.5070588,16.35 13.5070588,17.7 C13.5070588,19.1 13.5070588,20.5 13.5070588,21.9 C13.5070588,23.25 13.4058824,24.6 13.5576471,25.95 C14.0635294,25.95 14.5188235,26 14.9235294,26 C14.8729412,26.1 14.8729412,26.15 14.8729412,26.25 Z" id="Shape" fill="#D0E9EA"/>
          <path d="M38.2952941,22.9 C38.2447059,22.4 38.2447059,22.1 38.1941176,21.75 C38.0929412,21.2 37.84,20.85 37.2835294,20.8 C36.98,20.75 36.6764706,20.7 36.2717647,20.65 C36.2717647,18.85 36.2717647,17.05 36.2717647,15.25 C36.5247059,15.15 36.7776471,15 37.0305882,14.9 C38.2447059,14.35 38.8011765,13.45 38.6494118,12.15 C38.5988235,11.8 38.4976471,11.45 38.7,11 C39.2058824,10.8 39.7117647,10.55 40.2682353,10.35 C40.5717647,10.45 40.5717647,10.65 40.5717647,10.85 C40.5211765,14.25 40.6729412,17.6 40.42,21 C40.3694118,21.5 40.2176471,21.85 39.8129412,22.1 C39.3576471,22.4 38.9023529,22.6 38.2952941,22.9 Z" id="Shape" fill="#CFE8E9"/>
          <path d="M14.8729412,26 C14.4176471,26 14.0129412,25.95 13.5070588,25.95 C13.3552941,24.55 13.4564706,23.2 13.4564706,21.9 C13.4564706,20.5 13.4564706,19.1 13.4564706,17.7 C13.4564706,16.35 13.4564706,15 13.4564706,13.6 C14.1647059,13.55 14.8223529,13.5 15.4294118,13.5 C15.5811765,13.5 15.7329412,13.5 15.8341176,13.5 C15.8341176,14.75 15.8341176,16.05 15.8341176,17.3 C15.8341176,17.65 15.8847059,18 15.9352941,18.35 C16.1376471,19.4 16.1376471,20.5 15.9352941,21.55 C15.8847059,21.95 15.7835294,22.3 15.7835294,22.7 C15.7835294,23.55 15.7835294,24.35 15.7835294,25.2 C15.7835294,25.45 15.8341176,25.7 15.5811765,25.9 C15.4294118,26 15.1764706,26 14.8729412,26 Z" id="Shape" fill="#F3FFFF"/>
          <path d="M14.8729412,26 C15.1258824,26 15.4294118,25.95 15.6823529,25.95 C15.9352941,25.7 15.8847059,25.45 15.8847059,25.25 C15.8847059,24.4 15.8847059,23.6 15.8847059,22.75 C15.8847059,22.35 15.9858824,21.95 16.0364706,21.6 C16.1882353,20.55 16.2388235,19.45 16.0364706,18.4 C15.9858824,18.05 15.9352941,17.7 15.9352941,17.35 C15.9352941,16.1 15.9352941,14.8 15.9352941,13.55 C16.7447059,13.4 17.5541176,13.5 18.3635294,13.55 C18.3635294,17.65 18.3635294,21.8 18.3635294,25.9 C18.3635294,25.95 18.4141176,26.05 18.4647059,26.15 C19.2235294,26.35 20.0329412,26.15 20.8423529,26.3 C20.2858824,26.55 19.7294118,26.45 19.1729412,26.45 C17.7564706,26.4 16.34,26.3 14.9741176,26.25 C14.8729412,26.15 14.8729412,26.1 14.8729412,26 Z" id="Shape" fill="#D0E9EA"/>
          <path d="M12.4447059,30.8 C10.5223529,30.85 8.70117647,30.3 6.93058824,29.75 C5.51411765,29.3 4.04705882,29 2.73176471,28.25 C2.42823529,28.05 2.12470588,27.9 1.82117647,27.7 C1.72,26.8 1.66941176,26 1.72,25.15 C1.77058824,24.7 2.02352941,24.5 2.47882353,24.7 C3.28823529,25.05 4.09764706,25.45 4.90705882,25.7 C7.13294118,26.3 9.40941176,26.95 11.7364706,27.25 C11.9894118,27.3 12.2929412,27.25 12.5458824,27.45 C12.2929412,27.55 11.9894118,27.4 11.6858824,27.85 C11.6858824,28.65 11.6858824,29.6 11.6858824,30.55 C11.8376471,30.7 12.2929412,30.4 12.4447059,30.8 Z M3.33882353,27.1 C3.28823529,27.6 3.69294118,27.75 4.04705882,27.95 C5.46352941,28.6 6.98117647,29.05 8.54941176,29.4 C8.95411765,29.5 9.35882353,29.55 9.76352941,29.6 C10.0670588,29.65 10.2694118,29.35 10.1682353,29.05 C10.0670588,28.8 9.91529412,28.65 9.66235294,28.6 C9.05529412,28.5 8.44823529,28.4 7.89176471,28.2 C6.77882353,27.85 5.66588235,27.5 4.55294118,27.1 C4.09764706,26.95 3.74352941,26.8 3.33882353,27.1 Z" id="Shape" fill="#CFE8E8"/>
          <path d="M12.4447059,12.05 C10.8258824,12.15 9.25764706,11.8 7.68941176,11.55 C6.27294118,11.3 4.90705882,10.95 3.54117647,10.6 C3.33882353,10.55 3.13647059,10.5 2.98470588,10.4 C1.56823529,9.9 1.46705882,9.6 1.46705882,8.45 C1.46705882,7.95 1.26470588,7.45 1.41647059,6.9 C2.02352941,7.1 2.58,7.35 3.13647059,7.5 C5.71647059,8.3 8.39764706,8.65 11.0788235,8.9 C11.8882353,9 12.6976471,8.9 13.4564706,9.15 C12.8494118,9.15 12.2423529,9.2 11.6858824,9.2 C11.4329412,9.2 11.18,9.15 11.0282353,9.45 C10.9776471,10.2 10.9776471,10.95 11.0282353,11.8 C11.4329412,11.85 11.7364706,11.85 12.04,11.85 C12.2423529,11.85 12.3435294,11.9 12.4447059,12.05 Z M7.89176471,10.85 C8.19529412,10.85 8.29647059,10.9 8.34705882,10.85 C8.49882353,10.85 8.65058824,10.75 8.70117647,10.6 C8.75176471,10.4 8.65058824,10.3 8.54941176,10.2 C8.29647059,9.95 7.99294118,9.9 7.68941176,9.85 C6.47529412,9.7 5.26117647,9.4 4.04705882,9.05 C3.84470588,9 3.64235294,8.95 3.44,8.9 C3.18705882,8.85 2.93411765,8.9 2.83294118,9.15 C2.73176471,9.35 2.93411765,9.65 3.28823529,9.75 C3.64235294,9.9 4.04705882,10 4.45176471,10.1 C5.66588235,10.5 6.88,10.7 7.89176471,10.85 Z" id="Shape" fill="#CEE7E8"/>
          <path d="M13.4058824,27.45 C14.9235294,27.45 16.4917647,27.55 18.0094118,27.65 C17.5541176,28.7 17.8070588,29.8 17.8070588,30.95 C19.0211765,31 20.1341176,31 21.1964706,31.05 C20.5894118,31.3 19.9317647,31.2 19.2741176,31.2 C17.1494118,31.35 15.0247059,31 12.9,30.9 C12.7988235,30.9 12.6976471,30.8 12.5964706,30.75 C13.1529412,30.65 13.7094118,30.8 14.3164706,30.6 C14.0129412,29.65 14.5188235,28.65 14.2658824,27.8 C14.0129412,27.6 13.6082353,27.85 13.4058824,27.45 Z" id="Shape" fill="#D0E9EA"/>
          <path d="M21.2470588,31.1 C20.1341176,31.05 19.0211765,31.05 17.8576471,31 C17.8576471,29.85 17.6047059,28.75 18.06,27.7 C19.3752941,27.65 20.64,27.6 21.9552941,27.7 C21.9552941,28.8 21.9552941,29.95 21.9552941,31.05 C21.7023529,31.15 21.5,31.15 21.2470588,31.1 Z" id="Shape" fill="#F0FCFC"/>
          <path d="M32.2247059,62.2 C29.5435294,61.1 26.7611765,60.2 24.0294118,59.45 C23.8270588,59 23.8270588,58.65 23.9282353,58.25 C24.5858824,58.35 31.9211765,60.4 32.7811765,60.75 C32.9835294,61.3 32.68,61.7 32.2247059,62.2 Z" id="Shape" fill="#CAE2E3"/>
          <path d="M18.2117647,58.2 C18.4647059,58.35 18.4647059,58.6 18.4647059,58.75 C18.4647059,59.3 18.3129412,59.5 17.8070588,59.6 C16.6941176,59.9 15.6317647,60.25 14.5694118,60.6 C13.2541176,61.05 11.9894118,61.5 10.7247059,62 C10.5729412,62.05 10.4717647,62.2 10.1682353,62.05 C9.81411765,61.8 9.66235294,61.3 9.61176471,60.75 C10.5223529,60.25 11.5341176,60.15 12.4952941,59.85 C13.4564706,59.55 14.4176471,59.3 15.3788235,59 C16.34,58.75 17.3011765,58.45 18.2117647,58.2 Z" id="Shape" fill="#CAE2E3"/>
          <path d="M19.2741176,9.25 C19.4764706,9.55 19.9823529,9.55 19.9823529,10 C19.9823529,10.7 20.1847059,11.45 19.5776471,12.05 C18.6670588,12.05 17.7058824,12.05 16.6941176,12.05 C16.6435294,11.1 16.3905882,10.15 16.8458824,9.25 C17.0988235,9.2 17.3517647,9.2 17.5541176,9.25 C18.06,9.6 18.5152941,9.6 19.0211765,9.25 C19.0717647,9.25 19.1729412,9.25 19.2741176,9.25 Z" id="Shape" fill="#F3FFFF"/>
          <path d="M13.4058824,27.45 C13.6082353,27.8 14.0129412,27.55 14.3164706,27.85 C14.5694118,28.75 14.0635294,29.7 14.3670588,30.65 C13.76,30.9 13.1529412,30.7 12.6470588,30.8 L12.5458824,30.8 L12.4447059,30.75 C12.2929412,30.35 11.8376471,30.65 11.6858824,30.45 C11.6858824,29.45 11.6858824,28.55 11.6858824,27.75 C11.9388235,27.35 12.2929412,27.45 12.5458824,27.35 C12.8494118,27.45 13.1023529,27.45 13.4058824,27.45 Z" id="Shape" fill="#F1FDFD"/>
          <path d="M37.1317647,11.5 C37.5364706,12.1 37.3847059,12.7 37.3847059,13.25 C37.3847059,13.5 37.1823529,13.65 36.98,13.8 C36.2211765,14.25 35.4117647,14.4 34.4505882,14.2 C34.2482353,13.6 34.0458824,12.95 34.0458824,12.2 C35.0070588,11.8 36.0694118,11.75 37.1317647,11.5 Z" id="Shape" fill="#CAE2E3"/>
          <path d="M12.4447059,12.05 C12.3435294,11.9 12.2423529,11.85 12.04,11.85 C11.7364706,11.85 11.4329412,11.8 11.0282353,11.8 C10.9776471,11 10.9776471,10.2 11.0282353,9.45 C11.2305882,9.15 11.4835294,9.25 11.6858824,9.2 C12.2929412,9.2 12.9,9.15 13.4564706,9.15 C13.5070588,9.1 13.5576471,9.1 13.6082353,9.2 C13.6082353,10.15 13.6082353,11.15 13.6082353,12.1 C13.2541176,12.15 12.8494118,12.15 12.4447059,12.05 Z" id="Shape" fill="#F0FCFC"/>
          <path d="M19.7294118,57.2 C20.7411765,57.4 21.6517647,57.6 22.5117647,57.45 C22.8152941,57.85 22.6129412,58.25 22.6635294,58.55 C22.7141176,58.9 22.6635294,59.25 22.6635294,59.6 C21.7529412,59.95 20.9435294,59.65 20.0835294,59.75 C19.78,59.8 19.5270588,59.45 19.5270588,59.1 C19.6282353,58.5 19.6788235,57.95 19.7294118,57.2 Z" id="Shape" fill="#CEE7E8"/>
          <path d="M6.57647059,23.2 C7.48705882,23.1 8.24588235,23.4 9.00470588,23.6 C9.35882353,23.7 9.56117647,23.95 9.56117647,24.3 C9.56117647,24.7 9.56117647,25.1 9.51058824,25.5 C8.29647059,25.6 7.28470588,25.25 6.27294118,24.85 C6.07058824,24.25 6.27294118,23.75 6.57647059,23.2 Z" id="Shape" fill="#C9E1E2"/>
          <path d="M33.9447059,24.35 C33.6917647,22.2 34.4,22.25 35.7152941,21.9 C36.0694118,21.8 36.4235294,21.9 36.8282353,21.9 C37.0811765,22.3 36.98,22.75 36.98,23.15 C36.98,23.4 36.8282353,23.65 36.5752941,23.7 C35.7152941,23.95 34.9058824,24.35 33.9447059,24.35 Z" id="Shape" fill="#C9E1E2"/>
          <path d="M6.67764706,14.3 C6.52588235,13.7 6.52588235,13.15 6.57647059,12.55 C7.63882353,12.5 8.6,12.9 9.66235294,12.95 C9.91529412,13.55 9.86470588,14.05 9.76352941,14.6 C8.29647059,14.85 7.79058824,14.8 6.67764706,14.3 Z" id="Shape" fill="#C8E0E1"/>
          <path d="M19.0211765,9.25 C18.5152941,9.6 18.06,9.6 17.5541176,9.25 C18.06,9.1 18.5152941,9.15 19.0211765,9.25 Z" id="Shape" fill="#D0E9EA"/>
          <path d="M39.4082353,7.9 C39.2058824,8.5 38.8517647,8.7 38.3964706,8.85 C37.1317647,9.3 35.8164706,9.65 34.4505882,9.9 C33.2870588,10.15 32.1235294,10.35 30.96,10.6 C30.5552941,10.65 30.0494118,10.8 29.7964706,10.3 C29.9988235,9.95 30.2011765,9.75 30.6564706,9.7 C32.2752941,9.45 33.8435294,9 35.4623529,8.7 C36.4235294,8.55 37.2835294,8.2 38.1941176,7.9 C38.5482353,7.75 38.9529412,7.7 39.4082353,7.9 Z" id="Shape" fill="#FCFEFE"/>
          <path d="M39.56,25.15 C39.9141176,25.4 39.9141176,25.65 39.6611765,25.85 C39.0541176,26.25 38.3964706,26.5 37.6882353,26.7 C36.1705882,27.1 34.6023529,27.45 33.0341176,27.85 C32.4270588,28 31.8705882,28 31.2635294,27.9 C31.1623529,27.6 31.2635294,27.45 31.4152941,27.35 C31.6176471,27.2 31.82,27.1 32.0729412,27.05 C33.1858824,26.8 34.2988235,26.4 35.4623529,26.25 C36.2717647,26.15 37.0811765,25.8 37.8905882,25.6 C38.4470588,25.4 39.0035294,25.3 39.56,25.15 Z" id="Shape" fill="#FCFEFD"/>
          <path d="M3.33882353,27.1 C3.74352941,26.8 4.09764706,27 4.50235294,27.1 C5.61529412,27.45 6.72823529,27.85 7.84117647,28.2 C8.39764706,28.35 9.00470588,28.45 9.61176471,28.6 C9.86470588,28.65 10.0164706,28.8 10.1176471,29.05 C10.2188235,29.35 10.0164706,29.65 9.71294118,29.6 C9.30823529,29.55 8.90352941,29.5 8.49882353,29.4 C6.98117647,29.05 5.46352941,28.6 3.99647059,27.95 C3.69294118,27.75 3.28823529,27.6 3.33882353,27.1 Z" id="Shape" fill="#090A0A"/>
          <path d="M7.89176471,10.85 C6.88,10.7 5.66588235,10.5 4.45176471,10.15 C4.04705882,10.05 3.69294118,9.95 3.28823529,9.8 C2.93411765,9.7 2.78235294,9.4 2.83294118,9.2 C2.93411765,8.95 3.18705882,8.9 3.44,8.95 C3.64235294,9 3.84470588,9 4.04705882,9.1 C5.26117647,9.45 6.47529412,9.75 7.68941176,9.9 C7.99294118,9.95 8.34705882,10 8.54941176,10.25 C8.65058824,10.35 8.75176471,10.5 8.70117647,10.65 C8.65058824,10.8 8.49882353,10.9 8.34705882,10.9 C8.29647059,10.9 8.19529412,10.85 7.89176471,10.85 Z" id="Shape" fill="#0B0C0D"/>
        </g>
      </g>
    </g>
  </g>
</svg>