<svg width="116px" height="156px" viewBox="0 0 116 156" version="1.1" xml:space="preserve" xmlns="http://www.w3.org/2000/svg" xmlns:xlink="http://www.w3.org/1999/xlink">
  <defs/>
  <g>
    <title>drum-kit-c</title>
    <desc>Created with Sketch.</desc>
    <g id="music" stroke="none" stroke-width="1" fill="none" fill-rule="evenodd">
      <g id="drum-kit-c" fill-rule="nonzero">
        <g id="Group" transform="translate(78.000000, 63.678967)">
          <path d="M25.95,6.62435424 C26.2,6.12250923 26.45,5.62066421 26.65,5.06863469 C27.05,4.01476015 27.45,2.96088561 27.9,1.95719557 C28.1,1.45535055 28.45,1.05387454 28.75,0.652398524 C29.05,0.301107011 29.5,0.150553506 29.95,0.200738007 C30.4,0.250922509 30.6,0.602214022 30.75,1.00369004 C30.75,1.05387454 30.85,1.10405904 30.9,1.20442804 C31.2,1.10405904 31.5,0.953505535 31.75,0.853136531 C31.8,0.80295203 31.9,0.853136531 32,0.80295203 C32.8,1.10405904 32.9,1.75645756 32.8,2.55940959 C33.2,2.6095941 33.5,2.40885609 33.85,2.50922509 C34.35,2.6597786 34.6,2.96088561 34.65,3.41254613 C34.7,3.91439114 34.6,4.41623616 34.4,4.91808118 C33.75,6.47380074 32.9,7.92915129 32,9.33431734 C31.1,10.6892989 30.15,11.9439114 29.25,13.298893 C28.85,13.901107 28.6,14.5535055 28.3,15.2560886 C27.15,18.2169742 26.55,21.3284133 25.65,24.3896679 C25.15,25.995572 24.55,27.601476 24,29.1571956 C23.7,29.9099631 23.25,30.5623616 22.55,31.0642066 C21.15,32.0678967 19.8,33.1217712 18.4,34.0752768 C16.75,35.2295203 15.15,36.4339483 13.55,37.5881919 C12.85,38.0900369 12.1,38.5918819 11.3,38.9431734 C10.65,39.1940959 10.2,39.695941 9.65,40.097417 C8.3,41.0509225 6.95,42.0546125 5.4,42.7571956 C4.3,43.2590406 3.2,43.4597786 2.05,43.1084871 C1.95,43.1084871 1.9,43.0583026 1.8,43.0583026 C0.45,42.4560886 -0.3,41.301845 0.8,39.79631 C1.3,39.1439114 1.95,38.6922509 2.55,38.1904059 C3.15,37.6885609 3.8,37.2369004 4.5,36.8354244 C5.5,36.2332103 6.55,35.6309963 7.55,35.0287823 C8.5,34.5269373 9.4,33.9247232 10.3,33.3225092 C11.05,32.8206642 11.85,32.3188192 12.7,31.9173432 C13.5,31.5660517 14.1,30.9638376 14.75,30.4619926 C16.3,29.3579336 17.8,28.1535055 19.35,26.999262 C19.6,26.798524 19.8,26.5476015 19.95,26.2464945 C20.1,25.9453875 20.2,25.6442804 20.25,25.3431734 C20.7,23.4863469 21.4,21.6797048 21.85,19.8228782 C22.5,17.2132841 23.3,14.6538745 23.8,12.0442804 C23.9,11.5926199 23.85,11.1911439 23.7,10.7896679 C23.15,9.53505535 22.8,8.2302583 22.55,6.87527675 C22.5,6.62435424 22.45,6.32324723 22.45,6.02214022 C22.5,5.16900369 23.2,4.51660517 24.05,4.56678967 C24.35,4.56678967 24.55,4.76752768 24.75,4.96826568 C25.1,5.26937269 25.25,5.72103321 25.45,6.07232472 C25.55,6.27306273 25.6,6.52398524 25.95,6.62435424 Z M28.25,9.78597786 C28.05,10.0369004 27.85,10.0870849 27.6,10.0369004 C26.65,9.78597786 25.9,9.38450185 25.45,8.48118081 C25.15,7.77859779 24.8,7.12619926 24.45,6.42361624 C24.25,5.97195572 24,5.82140221 23.75,5.87158672 C23.45,5.92177122 23.35,6.27306273 23.55,6.82509225 C24,8.0295203 24.25,9.28413284 24.8,10.4383764 C25.1,11.0405904 25.15,11.6929889 25.05,12.4457565 C24.95,13.1483395 24.85,13.8509225 24.6,14.5535055 C23.9,16.7616236 23.55,19.0701107 22.75,21.2782288 C22.3,22.6332103 21.9,24.0383764 21.5,25.3933579 C21.1,26.698155 20.5,27.8523985 19.35,28.6051661 C18.75,29.0066421 18.15,29.4081181 17.6,29.8597786 C16.35,30.8634686 15.1,31.8169742 13.7,32.6701107 C13.4,32.8708487 13.1,33.0214022 12.8,33.2723247 C12.2,33.8243542 11.45,34.1254613 10.75,34.4767528 C10.55,34.5771218 10.3,34.5771218 10.1,34.7778598 C9.4,35.3800738 8.45,35.5808118 7.8,36.2332103 C6.3,36.8354244 5.15,37.9394834 3.8,38.7926199 C3.45,39.0435424 3.05,39.2944649 2.7,39.5453875 C2.2,39.9468635 1.7,40.3483395 1.55,41.0509225 C1.45,41.502583 1.55,41.7535055 2,41.904059 C3,42.3055351 3.95,42.2553506 4.9,41.7535055 C6.2,41.000738 7.5,40.2479705 8.8,39.4450185 C9.25,39.1940959 9.6,38.7926199 10.05,38.4915129 C11.55,37.4376384 13.2,36.5845018 14.65,35.4804428 C15.15,35.0789668 15.65,34.6774908 16.2,34.3261993 C17.9,33.1217712 19.6,31.9173432 21.25,30.7129151 C22,30.2110701 22.6,29.5586716 22.95,28.7557196 C23.45,27.5512915 23.95,26.296679 24.3,25.0420664 C24.95,22.8339483 25.55,20.6258303 26.1,18.4177122 C26.35,17.4140221 26.6,16.4103321 27,15.4568266 C27.5,14.2523985 28.05,13.098155 28.85,12.0944649 C29.3,11.4922509 29.75,10.8900369 30.2,10.2376384 C31.4,8.43099631 32.6,6.67453875 33.6,4.76752768 C33.75,4.46642066 33.9,4.16531365 33.9,3.86420664 C33.9,3.66346863 33.85,3.46273063 33.6,3.36236162 C33.2,3.41254613 33.05,3.71365314 32.85,4.06494465 C32.15,5.21918819 31.45,6.42361624 30.75,7.57785978 C30.65,7.72841328 30.5,7.87896679 30.3,7.92915129 C30.15,7.82878229 30.05,7.72841328 30.1,7.52767528 C30.15,7.27675277 30.2,7.02583026 30.3,6.82509225 C30.9,5.72103321 31.25,4.51660517 31.7,3.41254613 C31.8,3.11143911 31.85,2.8103321 31.9,2.45904059 C31.9,2.25830258 31.75,2.10774908 31.55,2.05756458 C31.4,2.00738007 31.25,2.05756458 31.15,2.20811808 C31.1,2.30848708 31.05,2.40885609 31,2.55940959 C30.55,3.56309963 30.05,4.61697417 29.6,5.62066421 C29.4,6.07232472 29.2,6.47380074 29,6.92546125 C28.9,7.07601476 28.75,7.12619926 28.6,7.12619926 C28.35,7.07601476 28.3,6.92546125 28.25,6.72472325 C28.25,6.67453875 28.25,6.57416974 28.25,6.47380074 C28.75,5.16900369 29.25,3.86420664 29.75,2.55940959 C29.85,2.35867159 29.9,2.10774908 29.9,1.85682657 C29.9,1.65608856 29.8,1.55571956 29.65,1.50553506 C29.5,1.45535055 29.35,1.50553506 29.2,1.60590406 C29.1,1.70627306 29.05,1.80664207 29,1.90701107 C28.8,2.40885609 28.55,2.91070111 28.35,3.46273063 C27.75,5.06863469 27.35,6.77490775 26.3,8.1298893 C26.5,9.18376384 27.85,8.98302583 28.25,9.78597786 Z" id="Shape" fill="#010101"/>
          <path d="M28.25,9.78597786 C27.85,8.93284133 26.5,9.13357934 26.3,8.0295203 C27.35,6.67453875 27.75,4.96826568 28.35,3.36236162 C28.55,2.86051661 28.75,2.30848708 29,1.80664207 C29.05,1.70627306 29.1,1.60590406 29.2,1.50553506 C29.3,1.40516605 29.5,1.35498155 29.65,1.40516605 C29.8,1.45535055 29.9,1.60590406 29.9,1.75645756 C29.85,2.00738007 29.8,2.20811808 29.75,2.45904059 C29.25,3.76383764 28.75,5.06863469 28.25,6.37343173 C28.2,6.42361624 28.2,6.52398524 28.25,6.62435424 C28.3,6.82509225 28.35,7.02583026 28.6,7.02583026 C28.75,7.07601476 28.95,6.97564576 29,6.82509225 C29.2,6.37343173 29.4,5.97195572 29.6,5.5202952 C30.05,4.51660517 30.55,3.51291513 31,2.45904059 C31.05,2.35867159 31.1,2.20811808 31.15,2.10774908 C31.25,1.95719557 31.4,1.90701107 31.55,1.95719557 C31.75,2.00738007 31.9,2.15793358 31.9,2.35867159 C31.85,2.6597786 31.85,3.01107011 31.7,3.31217712 C31.2,4.46642066 30.9,5.67084871 30.3,6.72472325 C30.2,6.92546125 30.15,7.17638376 30.1,7.42730627 C30.05,7.57785978 30.15,7.72841328 30.3,7.82878229 C30.55,7.82878229 30.65,7.67822878 30.75,7.47749077 C31.45,6.32324723 32.15,5.16900369 32.85,3.96457565 C33.05,3.66346863 33.2,3.36236162 33.6,3.26199262 C33.85,3.36236162 33.9,3.51291513 33.9,3.76383764 C33.9,4.06494465 33.75,4.36605166 33.6,4.66715867 C32.6,6.57416974 31.4,8.38081181 30.2,10.1372694 C29.8,10.7394834 29.35,11.3918819 28.85,11.9940959 C28.05,12.997786 27.5,14.1520295 27,15.3564576 C26.6,16.3099631 26.35,17.3136531 26.1,18.3173432 C25.5,20.5254613 24.95,22.7335793 24.3,24.9416974 C23.9,26.19631 23.45,27.4509225 22.95,28.6553506 C22.6,29.4583026 22,30.1107011 21.25,30.6125461 C19.55,31.8169742 17.85,33.0214022 16.2,34.2258303 C15.7,34.5771218 15.2,34.9785978 14.65,35.3800738 C13.2,36.4841328 11.55,37.3372694 10.05,38.3911439 C9.65,38.6922509 9.25,39.0435424 8.8,39.3446494 C7.5,40.1476015 6.2,40.900369 4.9,41.6531365 C4,42.1549815 3,42.2553506 2,41.80369 C1.6,41.6531365 1.45,41.3520295 1.55,40.9505535 C1.7,40.298155 2.2,39.8464945 2.7,39.4450185 C3.05,39.1940959 3.4,38.9431734 3.8,38.6922509 C5.15,37.8391144 6.3,36.7350554 7.8,36.1328413 C8.45,35.4804428 9.4,35.2797048 10.1,34.6774908 C10.3,34.5269373 10.55,34.4767528 10.75,34.3763838 C11.45,34.0250923 12.2,33.6738007 12.8,33.1719557 C13.05,32.9210332 13.4,32.7704797 13.7,32.5697417 C15.05,31.7166052 16.35,30.8132841 17.6,29.7594096 C18.15,29.3077491 18.75,28.8560886 19.35,28.504797 C20.5,27.7520295 21.1,26.597786 21.5,25.2929889 C21.9,23.9380074 22.3,22.5328413 22.75,21.1778598 C23.5,18.9697417 23.85,16.6612546 24.6,14.4531365 C24.8,13.7505535 24.95,13.098155 25.05,12.3453875 C25.15,11.6428044 25.1,10.9904059 24.8,10.3380074 C24.25,9.18376384 23.95,7.92915129 23.55,6.72472325 C23.35,6.22287823 23.45,5.87158672 23.75,5.77121771 C24,5.72103321 24.25,5.87158672 24.45,6.32324723 C24.8,7.02583026 25.1,7.67822878 25.45,8.38081181 C25.85,9.28413284 26.65,9.73579336 27.6,9.93653137 C27.8,10.0870849 28.05,10.0369004 28.25,9.78597786 Z" id="Shape" fill="#DD002B"/>
        </g>
        <g id="Group" transform="translate(3.000000, 67.191882)">
          <path d="M1.3,2.91070111 C1.3,2.6597786 1.3,2.40885609 1.35,2.10774908 C1.45,1.30479705 1.85,1.00369004 2.65,1.10405904 C2.8,1.10405904 2.95,1.20442804 3.05,1.25461255 C3.25,1.20442804 3.3,1.05387454 3.35,0.903321033 C3.95,0.0501845018 4.95,-7.96862576e-14 5.5,0.853136531 C5.8,1.30479705 6.05,1.80664207 6.2,2.35867159 C6.6,3.86420664 7.2,5.3195572 7.5,6.87527675 C7.55,7.07601476 7.6,7.27675277 7.85,7.32693727 C8.1,6.97564576 8.35,6.62435424 8.65,6.32324723 C9.15,5.72103321 9.8,5.4701107 10.6,5.5704797 C11.7,5.67084871 12.2,6.57416974 11.7,7.57785978 C11.55,7.87896679 11.35,8.1800738 11.1,8.48118081 C10.7,9.03321033 10.4,9.63542435 10.35,10.3380074 C10.25,10.9904059 10.15,11.6929889 9.8,12.295203 C9.45,12.897417 9.45,13.499631 9.5,14.1520295 C9.65,16.1594096 10.2,18.1166052 10.6,20.0236162 C11.05,22.0811808 11.6,24.0885609 12.05,26.095941 C12.2,26.7483395 12.45,27.300369 12.75,27.902583 C12.9,28.2538745 13.15,28.504797 13.5,28.6051661 C14.65,28.9062731 15.6,29.5586716 16.65,30.0103321 C18.75,30.9136531 20.8,31.9173432 22.95,32.6199262 C24.75,33.2221402 26.45,33.8745387 28.25,34.5269373 C29.25,34.8782288 30.1,35.4302583 31.05,35.8317343 C32.05,36.2332103 32.35,37.3372694 32.2,38.3911439 C32.1,39.0435424 31.55,39.3948339 31,39.695941 C30.3,40.097417 29.5,40.298155 28.7,40.1476015 C27.9,40.0472325 27.15,39.896679 26.4,39.5453875 C25.7,39.1940959 25,38.8929889 24.3,38.7424354 C22.5,38.2907749 20.85,37.4376384 19.2,36.6848708 C16.6,35.4302583 14,34.1756458 11.4,33.0214022 C10.95,32.8206642 10.5,32.5195572 10,32.3188192 C9.3,32.0177122 8.95,31.5158672 8.7,30.8634686 C7.5,27.802214 6.5,24.6907749 5.8,21.4789668 C5.3,19.1704797 4.85,16.8619926 4.15,14.60369 C4,14.101845 3.8,13.6501845 3.55,13.198524 C2.85,12.0442804 2.25,10.8900369 1.8,9.63542435 C1.35,8.43099631 0.7,7.32693727 0.35,6.07232472 C0.2,5.4701107 0.05,4.91808118 0.1,4.31586716 C0.15,3.51291513 0.25,3.41254613 1.05,3.16162362 C1.1,3.01107011 1.15,2.96088561 1.3,2.91070111 Z M1.05,4.36605166 C1.05,4.56678967 1,4.76752768 1.05,4.86789668 C1.25,5.62066421 1.4,6.32324723 1.75,7.02583026 C2.25,7.97933579 2.75,8.93284133 3,9.98671587 C3.05,10.1874539 3.2,10.3881919 3.35,10.5889299 C3.55,10.8900369 3.7,11.1911439 3.9,11.4922509 C4.35,12.295203 4.65,13.1483395 5.25,13.901107 C5.35,14.0516605 5.4,14.2523985 5.45,14.4531365 C5.85,16.0590406 6.3,17.7151292 6.65,19.3210332 C7.25,22.0309963 7.85,24.6907749 8.7,27.3505535 C8.95,28.20369 9.25,29.0066421 9.55,29.8597786 C9.85,30.7129151 10.35,31.4154982 11.3,31.7166052 C11.55,31.8169742 11.8,31.9675277 12.05,32.0678967 C14.65,33.1719557 17.15,34.3261993 19.7,35.5306273 C21.3,36.2833948 22.9,36.9357934 24.55,37.5881919 C25.75,38.0398524 26.95,38.3911439 28.2,38.7424354 C28.4,38.7926199 28.6,38.7926199 28.8,38.7926199 C29.35,38.7424354 29.9,38.6420664 30.45,38.5416974 C30.75,38.4915129 30.95,38.2405904 31.05,37.9896679 C31.15,37.7387454 31.1,37.4376384 30.85,37.2369004 C30.6,36.9859779 30.3,36.7852399 29.95,36.6346863 C29.35,36.3837638 28.7,36.0324723 28.1,35.8317343 C25.85,35.1793358 23.85,34.0250923 21.6,33.3225092 C21.15,33.1719557 20.7,33.0214022 20.25,32.8206642 C18.3,31.9173432 16.3,31.0140221 14.35,30.1107011 C13.65,29.7594096 12.95,29.3579336 12.25,29.0066421 C11.9,28.8059041 11.7,28.5549815 11.55,28.103321 C11.1,26.9490775 10.7,25.7948339 10.45,24.5402214 C10.3,23.8376384 10.2,23.1350554 10,22.4324723 C9.5,20.5756458 9.15,18.7188192 8.7,16.8118081 C8.45,15.7579336 8.5,14.6538745 8.15,13.6501845 C8.05,13.3490775 8.15,12.997786 8.35,12.7468635 C8.75,12.295203 8.85,11.7431734 8.95,11.1911439 C9.25,9.83616236 9.7,8.48118081 10.55,7.32693727 C10.7,7.12619926 10.8,6.87527675 10.6,6.67453875 C10.4,6.47380074 10.15,6.52398524 9.95,6.57416974 C9.7,6.62435424 9.55,6.77490775 9.35,6.97564576 C8.95,7.42730627 8.6,7.92915129 8.35,8.48118081 C7.85,9.58523985 6.9,10.0369004 5.85,10.3380074 C5.65,10.3881919 5.45,10.3380074 5.35,10.0870849 C5.7,9.48487085 6.45,9.53505535 6.85,9.03321033 C6.85,8.93284133 6.9,8.83247232 6.9,8.68191882 C6.4,6.57416974 6,4.46642066 5.1,2.45904059 C5,2.20811808 4.85,1.95719557 4.7,1.70627306 C4.6,1.55571956 4.5,1.45535055 4.3,1.50553506 C4.05,1.55571956 4,1.75645756 4.05,1.95719557 C4.05,2.15793358 4.1,2.35867159 4.15,2.55940959 C4.5,3.71365314 4.8,4.86789668 5.2,6.02214022 C5.35,6.42361624 5.5,6.87527675 5.55,7.27675277 C5.6,7.42730627 5.55,7.57785978 5.35,7.62804428 C5.05,7.52767528 5,7.22656827 4.9,6.97564576 C4.3,5.72103321 3.95,4.36605166 3.25,3.11143911 C3.15,2.96088561 3.05,2.7601476 2.95,2.6095941 C2.85,2.45904059 2.7,2.40885609 2.5,2.45904059 C2.35,2.50922509 2.25,2.6597786 2.25,2.8103321 C2.2,3.41254613 2.4,4.01476015 2.6,4.56678967 C3.1,5.77121771 3.6,7.02583026 4.1,8.2302583 C4.1,8.2804428 4.1,8.38081181 4.05,8.43099631 C3.9,8.53136531 3.75,8.48118081 3.6,8.33062731 C3.3,7.97933579 3,7.57785978 2.8,7.12619926 C2.45,6.32324723 2.05,5.5202952 1.65,4.71734317 C1.65,4.56678967 1.5,4.31586716 1.05,4.36605166 Z" id="Shape" fill="#010101"/>
          <path d="M1.05,4.36605166 C1.5,4.31586716 1.65,4.61697417 1.75,4.86789668 C2.15,5.67084871 2.55,6.42361624 2.9,7.27675277 C3.1,7.72841328 3.4,8.0797048 3.7,8.48118081 C3.8,8.63173432 3.95,8.63173432 4.15,8.58154982 C4.15,8.53136531 4.2,8.43099631 4.2,8.38081181 C3.7,7.17638376 3.2,5.92177122 2.7,4.71734317 C2.45,4.16531365 2.3,3.61328413 2.35,2.96088561 C2.35,2.8103321 2.45,2.6597786 2.6,2.6095941 C2.75,2.55940959 2.95,2.6095941 3.05,2.7601476 C3.15,2.91070111 3.25,3.11143911 3.35,3.26199262 C4.05,4.51660517 4.4,5.87158672 5,7.12619926 C5.1,7.37712177 5.15,7.67822878 5.45,7.77859779 C5.65,7.72841328 5.7,7.57785978 5.65,7.42730627 C5.6,6.97564576 5.45,6.57416974 5.3,6.17269373 C4.9,5.01845018 4.6,3.86420664 4.25,2.7099631 C4.2,2.50922509 4.2,2.30848708 4.15,2.10774908 C4.1,1.90701107 4.2,1.70627306 4.4,1.65608856 C4.55,1.60590406 4.7,1.70627306 4.8,1.85682657 C4.95,2.10774908 5.05,2.35867159 5.2,2.6095941 C6.15,4.56678967 6.55,6.72472325 7,8.83247232 C7.05,8.93284133 6.95,9.08339483 6.95,9.18376384 C6.55,9.68560886 5.75,9.68560886 5.45,10.2376384 C5.55,10.5387454 5.75,10.5387454 5.95,10.4885609 C7.05,10.1874539 7.95,9.73579336 8.45,8.63173432 C8.7,8.0797048 9,7.57785978 9.45,7.12619926 C9.6,6.92546125 9.8,6.77490775 10.05,6.72472325 C10.3,6.67453875 10.55,6.62435424 10.7,6.82509225 C10.9,7.02583026 10.8,7.27675277 10.65,7.47749077 C9.8,8.63173432 9.35,9.93653137 9.05,11.3416974 C8.9,11.8937269 8.8,12.4457565 8.45,12.897417 C8.25,13.1483395 8.15,13.499631 8.25,13.800738 C8.6,14.8546125 8.55,15.9084871 8.8,16.9623616 C9.2,18.8191882 9.6,20.7261993 10.1,22.5830258 C10.3,23.2856089 10.4,23.9881919 10.55,24.6907749 C10.8,25.895203 11.2,27.0494465 11.65,28.2538745 C11.8,28.6553506 12,28.9564576 12.35,29.1571956 C13.05,29.5586716 13.75,29.9601476 14.45,30.2612546 C16.4,31.1645756 18.35,32.0678967 20.35,32.9712177 C20.8,33.1719557 21.25,33.3225092 21.7,33.4730627 C23.9,34.1756458 25.95,35.3298893 28.2,35.9822878 C28.85,36.1830258 29.45,36.4841328 30.05,36.7852399 C30.4,36.9357934 30.65,37.1365314 30.95,37.3874539 C31.2,37.6383764 31.25,37.8892989 31.15,38.1402214 C31.05,38.3911439 30.9,38.6420664 30.55,38.6922509 C30,38.7926199 29.45,38.8428044 28.9,38.9431734 C28.7,38.9431734 28.5,38.9431734 28.3,38.8929889 C27.1,38.5416974 25.85,38.1904059 24.65,37.7387454 C23,37.0863469 21.4,36.4339483 19.8,35.6811808 C17.3,34.4767528 14.75,33.3225092 12.15,32.2184502 C11.9,32.1180812 11.65,31.9675277 11.4,31.8671587 C10.5,31.5660517 10,30.8634686 9.65,30.0103321 C9.35,29.2073801 9.05,28.3542435 8.8,27.501107 C7.95,24.8915129 7.35,22.1815498 6.75,19.4715867 C6.4,17.8154982 5.95,16.2095941 5.55,14.60369 C5.5,14.402952 5.45,14.202214 5.35,14.0516605 C4.75,13.3490775 4.45,12.4457565 4,11.6428044 C3.8,11.3416974 3.65,11.0405904 3.45,10.7394834 C3.35,10.5387454 3.15,10.3380074 3.1,10.1372694 C2.8,9.08339483 2.3,8.1298893 1.85,7.17638376 C1.5,6.47380074 1.35,5.72103321 1.15,5.01845018 C1,4.71734317 1.05,4.56678967 1.05,4.36605166 Z" id="Shape" fill="#DD002B"/>
        </g>
        <g id="Group" transform="translate(62.500000, 100.313653)">
          <path d="M16.45,50.2346863 C16,50.1845018 15.6,50.1343173 15.2,49.8833948 C14.65,49.5822878 14.45,49.0302583 14.65,48.4782288 C14.8,48.0767528 14.95,47.7254613 15.3,47.5247232 C15.6,47.3239852 15.9,47.1232472 16.2,46.9225092 C17.15,46.2701107 17.75,45.3166052 18.2,44.2627306 C18.35,43.9114391 18.35,43.6103321 18.1,43.2590406 C17.55,42.3557196 17.1,41.4523985 16.55,40.5490775 C14.95,37.7387454 13.4,34.8782288 11.9,32.0177122 C10.7,29.7092251 9.5,27.400738 8.35,25.0420664 C8.05,24.3394834 7.7,23.6369004 7.45,22.9343173 C6.55,20.4250923 5.3,18.0162362 4.2,15.6073801 C3.6,14.202214 2.9,12.8472325 2.4,11.4420664 C1.95,10.2376384 1.4,9.08339483 0.95,7.87896679 C0.35,6.17269373 0.2,4.46642066 0.85,2.7099631 C1.3,1.55571956 2.15,0.903321033 3.25,0.55202952 C4.1,0.301107011 4.95,0.501845018 5.65,1.25461255 C6.2,1.85682657 6.45,2.55940959 6.65,3.26199262 C6.9,4.41623616 7.35,5.4701107 7.75,6.57416974 C8.65,9.28413284 9.5,12.0442804 10.4,14.804428 C10.85,16.2597786 11.3,17.7151292 11.9,19.0701107 C12.25,19.8730627 12.45,20.7261993 12.7,21.5793358 C13.25,23.3859779 14.05,25.0922509 14.9,26.7483395 C17.05,31.1143911 19.2,35.4804428 21.4,39.896679 C21.7,40.498893 22.05,41.101107 22.4,41.6531365 C23,42.7070111 23.65,43.8110701 24.25,44.8649446 C24.7,45.7180812 24.6,46.0693727 23.95,46.7719557 C23.2,47.5749077 22.2,48.0265683 21.3,48.5785978 C19.95,49.3313653 18.6,49.9837638 17.05,50.1845018 C16.85,50.1845018 16.65,50.1845018 16.45,50.2346863 Z M15.9,48.7291513 C16.1,48.9298893 16.35,49.0804428 16.6,49.0302583 C17.1,48.9298893 17.65,48.8797048 18.1,48.6789668 C19.5,48.1269373 20.9,47.5247232 22.15,46.5712177 C23.25,45.7682657 23.3,45.4671587 22.6,44.3129151 C21.9,43.1586716 21.2,42.004428 20.55,40.8 C19.15,38.0398524 17.75,35.2797048 16.4,32.5195572 C15.6,30.9638376 14.95,29.3077491 14.1,27.7520295 C12.7,25.2428044 11.7,22.6332103 10.85,19.8730627 C10.45,18.6184502 10.15,17.3136531 9.6,16.1092251 C9,14.704059 8.6,13.2487085 8.15,11.7933579 C7.7,10.3881919 7.25,8.98302583 6.8,7.57785978 C6.35,6.17269373 5.8,4.81771218 5.45,3.36236162 C5.35,2.91070111 5.15,2.45904059 4.85,2.05756458 C4.7,1.85682657 4.55,1.65608856 4.3,1.60590406 C3.6,1.45535055 2.95,1.60590406 2.45,2.20811808 C2,2.8103321 1.6,3.46273063 1.7,4.26568266 C1.75,4.61697417 1.7,4.96826568 1.7,5.3697417 C1.65,5.97195572 1.8,6.52398524 2,7.12619926 C2.9,9.43468635 3.9,11.6929889 4.95,13.9512915 C5.6,15.3062731 6.25,16.7114391 6.85,18.1166052 C7.4,19.4715867 7.95,20.8767528 8.4,22.2819188 C8.55,22.7837638 8.7,23.2856089 9,23.6870849 C9.6,24.4900369 9.9,25.4937269 10.35,26.3468635 C10.5,26.6479705 10.65,26.999262 10.8,27.300369 C11.75,29.1070111 12.8,30.8634686 13.65,32.7202952 C14,33.4228782 14.4,34.1254613 14.75,34.8280443 C16.05,37.1867159 17.4,39.595572 18.7,41.9542435 C19.75,43.8110701 19.5,43.4597786 18.9,45.0656827 C18.4,46.3202952 17.6,47.3741697 16.4,48.0265683 C16.3,48.2273063 16.05,48.3778598 15.9,48.7291513 Z" id="Shape" fill="#010101"/>
          <path d="M15.9,48.7291513 C16,48.3778598 16.25,48.2273063 16.5,48.0767528 C17.7,47.3741697 18.5,46.3704797 19,45.1158672 C19.65,43.5099631 19.85,43.8612546 18.8,42.004428 C17.5,39.6457565 16.15,37.2369004 14.85,34.8782288 C14.45,34.1756458 14.05,33.4730627 13.75,32.7704797 C12.9,30.9136531 11.85,29.1571956 10.9,27.3505535 C10.75,27.0494465 10.6,26.698155 10.45,26.397048 C9.95,25.5439114 9.7,24.5402214 9.1,23.7372694 C8.8,23.3357934 8.65,22.8339483 8.5,22.3321033 C8,20.9269373 7.5,19.5217712 6.95,18.1667897 C6.35,16.7616236 5.7,15.4066421 5.05,14.001476 C4,11.7431734 3.05,9.48487085 2.1,7.17638376 C1.85,6.57416974 1.75,6.02214022 1.8,5.4199262 C1.8,5.06863469 1.85,4.71734317 1.8,4.31586716 C1.7,3.46273063 2.1,2.86051661 2.55,2.25830258 C3,1.65608856 3.65,1.55571956 4.4,1.65608856 C4.65,1.70627306 4.8,1.90701107 4.95,2.10774908 C5.25,2.50922509 5.45,2.96088561 5.55,3.41254613 C5.9,4.86789668 6.45,6.22287823 6.9,7.62804428 C7.35,9.03321033 7.8,10.4383764 8.25,11.8435424 C8.7,13.298893 9.05,14.7542435 9.7,16.1594096 C10.25,17.3638376 10.55,18.6686347 10.95,19.9232472 C11.8,22.6332103 12.8,25.2929889 14.2,27.802214 C15.05,29.3579336 15.75,30.9638376 16.5,32.5697417 C17.85,35.3298893 19.25,38.0900369 20.65,40.8501845 C21.25,42.0546125 22,43.2088561 22.7,44.3630996 C23.4,45.5173432 23.35,45.8184502 22.25,46.6214022 C21,47.5749077 19.65,48.1269373 18.2,48.7291513 C17.75,48.9298893 17.2,48.9800738 16.7,49.0804428 C16.4,49.0804428 16.15,48.9298893 15.9,48.7291513 Z" id="Shape" fill="#DD002B"/>
        </g>
        <g id="Group" transform="translate(26.000000, 102.321033)">
          <path d="M6.6,48.1771218 C5.3,48.0767528 3.95,48.0265683 2.65,47.9261993 C2.05,47.8760148 1.5,47.7254613 0.9,47.4745387 C0.1,47.1232472 -0.1,46.1697417 0.7,45.5675277 C1.2,45.2162362 1.7,44.9151292 2.25,44.7143911 C3.1,44.3630996 3.9,43.9114391 4.6,43.3092251 C5.05,42.9077491 5.3,42.5062731 5.35,41.904059 C5.5,40.8 5.5,39.6457565 5.55,38.5416974 C5.65,36.7852399 5.75,35.0287823 5.75,33.2723247 C5.8,30.8634686 6.15,28.504797 6.35,26.095941 C6.5,24.4398524 6.75,22.7335793 6.95,21.0774908 C7.05,20.0738007 7.4,19.1202952 7.8,18.2169742 C8.95,15.6575646 10.05,13.098155 11.2,10.5387454 C12.3,8.0797048 13.5,5.72103321 14.75,3.31217712 C15.15,2.6095941 15.75,2.05756458 16.35,1.55571956 C16.75,1.20442804 17.15,0.80295203 17.7,0.55202952 C18.9,0.100369004 20.3,0.702583026 20.7,1.95719557 C21.05,3.06125461 20.95,4.16531365 20.6,5.26937269 C20.15,6.57416974 19.45,7.72841328 18.8,8.93284133 C17.9,10.6892989 16.8,12.295203 15.8,13.9512915 C14.45,16.1092251 13.35,18.3675277 12.3,20.6258303 C11.9,21.4287823 11.85,22.3321033 11.65,23.1852399 C11.35,24.6405904 11.2,26.095941 11.05,27.601476 C10.85,29.6590406 10.6,31.7667897 10.4,33.8243542 C10.3,34.6774908 10.2,35.5808118 10.15,36.4339483 C10,38.3409594 9.9,40.2479705 9.75,42.2051661 C9.65,43.6103321 9.7,45.0154982 9.45,46.3704797 C9.4,46.6214022 9.35,46.8221402 9.3,47.0730627 C9.15,47.6752768 8.75,48.0265683 8.1,48.1269373 C7.6,48.1771218 7.1,48.1771218 6.6,48.1771218 Z M1.6,46.4708487 C3.6,46.8723247 5.4,46.8221402 7.1,46.9726937 C8,47.0730627 8.1,46.9225092 8.3,46.0191882 C8.35,45.8686347 8.35,45.7180812 8.35,45.5675277 C8.35,44.4634686 8.5,43.3594096 8.6,42.2051661 C8.75,40.5490775 8.8,38.9431734 8.9,37.2870849 C8.9,37.1365314 8.95,36.9859779 8.95,36.7852399 C9.1,35.6309963 9.2,34.4767528 9.35,33.3225092 C9.45,32.2184502 9.55,31.1143911 9.65,29.9601476 C9.85,27.8523985 10.1,25.7446494 10.3,23.6369004 C10.4,22.5830258 10.6,21.5793358 11,20.6258303 C11.4,19.6723247 11.95,18.7690037 12.4,17.8656827 C13.25,16.1092251 14.15,14.402952 15.2,12.696679 C16.45,10.6391144 17.65,8.58154982 18.75,6.47380074 C19.25,5.5202952 19.55,4.51660517 19.75,3.41254613 C19.85,2.86051661 19.75,2.40885609 19.4,1.95719557 C18.95,1.35498155 18.75,1.30479705 18.1,1.60590406 C16.95,2.15793358 16.2,3.16162362 15.55,4.21549815 C14.85,5.3697417 14.2,6.57416974 13.75,7.87896679 C13.7,8.0797048 13.6,8.2302583 13.5,8.43099631 C12.35,10.5889299 11.4,12.797048 10.45,15.0553506 C10,16.1092251 9.55,17.1129151 9.1,18.1166052 C8.4,19.5719557 8.05,21.1276753 7.95,22.7335793 C7.85,24.5904059 7.5,26.4472325 7.4,28.304059 C7.25,30.0103321 7,31.7166052 7,33.4228782 C7,33.8745387 7.05,34.3261993 6.95,34.7276753 C6.7,36.1830258 6.75,37.6885609 6.75,39.1439114 C6.75,40.2479705 6.6,41.301845 6.5,42.3557196 C6.5,42.5062731 6.4,42.6568266 6.4,42.8073801 C6.1,43.8110701 5.45,44.4634686 4.55,44.8649446 C3.65,45.4671587 2.75,45.9188192 1.6,46.4708487 Z" id="Shape" fill="#010101"/>
          <path d="M1.6,46.4708487 C2.75,45.9188192 3.6,45.4671587 4.5,45.0656827 C5.4,44.6140221 6.05,43.9616236 6.35,43.0081181 C6.4,42.8575646 6.45,42.7070111 6.45,42.5564576 C6.55,41.502583 6.7,40.398524 6.7,39.3446494 C6.7,37.8892989 6.65,36.3837638 6.9,34.9284133 C6.95,34.4767528 6.95,34.0250923 6.95,33.6236162 C6.95,31.9173432 7.25,30.2110701 7.35,28.504797 C7.5,26.6479705 7.8,24.7911439 7.9,22.9343173 C8,21.3284133 8.35,19.7726937 9.05,18.3173432 C9.55,17.3136531 10,16.2597786 10.4,15.2560886 C11.35,12.997786 12.3,10.7896679 13.45,8.63173432 C13.55,8.43099631 13.65,8.2804428 13.7,8.0797048 C14.1,6.77490775 14.8,5.5704797 15.5,4.41623616 C16.15,3.36236162 16.9,2.35867159 18.05,1.80664207 C18.7,1.50553506 18.9,1.55571956 19.35,2.15793358 C19.65,2.6095941 19.8,3.06125461 19.7,3.61328413 C19.5,4.66715867 19.2,5.67084871 18.7,6.67453875 C17.65,8.83247232 16.4,10.8900369 15.15,12.897417 C14.1,14.5535055 13.2,16.2597786 12.35,18.0664207 C11.9,19.0199262 11.35,19.8730627 10.95,20.8265683 C10.55,21.7800738 10.35,22.7837638 10.25,23.8376384 C10.05,25.9453875 9.8,28.0531365 9.6,30.1608856 C9.5,31.2649446 9.4,32.3690037 9.3,33.5232472 C9.2,34.6774908 9.05,35.8317343 8.9,36.9859779 C8.9,37.1365314 8.85,37.2870849 8.85,37.4878229 C8.75,39.1439114 8.7,40.7498155 8.55,42.4059041 C8.45,43.5099631 8.3,44.6140221 8.3,45.7682657 C8.3,45.9188192 8.25,46.0693727 8.25,46.2199262 C8.05,47.1232472 7.95,47.2738007 7.05,47.1734317 C5.4,46.8221402 3.65,46.9225092 1.6,46.4708487 Z" id="Shape" fill="#DD002B"/>
        </g>
        <g id="Group" transform="translate(11.000000, 15.000000)">
          <path d="M43.15,27.4509225 C43.3,28.304059 42.9,28.9564576 42.25,29.5084871 C40.55,31.0140221 38.85,32.4693727 36.75,33.4228782 C34.15,34.6273063 31.6,35.8819188 28.9,36.7852399 C26.35,37.6383764 23.8,38.3911439 21.2,38.7424354 C17.75,39.2442804 14.25,39.3948339 10.75,38.7424354 C9.65,38.5416974 8.6,38.2907749 7.6,37.8892989 C7.05,37.6383764 6.75,37.3372694 6.65,36.8354244 C6.4,35.5306273 6.15,34.2258303 5.9,32.8708487 C5.85,32.6701107 5.85,32.4693727 5.9,32.3188192 C6.25,31.7667897 6.05,31.2649446 5.9,30.7129151 C5.1,27.802214 4.3,24.8413284 3.5,21.9306273 C3.1,20.4250923 2.7,18.9195572 2.3,17.3136531 C1.65,17.0627306 1.25,16.5608856 1.1,15.8081181 C0.85,14.7542435 0.6,13.6501845 0.2,12.6464945 C-2.67563749e-13,11.9940959 0.15,11.5926199 0.55,11.1409594 C1.2,10.4383764 1.95,9.83616236 2.75,9.23394834 C5.2,7.52767528 7.85,6.27306273 10.55,5.16900369 C15,3.31217712 19.65,1.95719557 24.4,1.00369004 C27.15,0.451660517 29.9,0.0501845018 32.75,0.100369004 C33.15,0.100369004 33.6,0.100369004 34,0.150553506 C35.45,0.351291513 36.35,1.15424354 36.7,2.55940959 C36.95,3.51291513 37.25,4.41623616 37.3,5.3697417 C37.3,5.67084871 37.4,5.97195572 37.45,6.32324723 C37.25,6.62435424 37.1,6.87527675 36.9,7.22656827 C37.5,9.63542435 38.15,12.0944649 38.75,14.503321 C39.55,14.8546125 40.3,14.704059 41,14.60369 C41.9,14.503321 42.85,14.5535055 43.75,14.5535055 C44.65,14.5535055 45.5,14.202214 46.35,14.302583 C47.2,14.402952 48,14.503321 48.8,14.4531365 C49.95,14.402952 51.1,14.3527675 52.3,14.302583 C52.75,12.395572 53.15,10.5387454 53.6,8.63173432 C53.1,8.1298893 53,7.57785978 53.2,6.87527675 C53.5,5.77121771 53.7,4.61697417 53.9,3.51291513 C54,2.96088561 54.35,2.6095941 54.85,2.40885609 C55.7,2.05756458 56.6,1.85682657 57.5,1.75645756 C60.75,1.35498155 64,1.55571956 67.25,1.90701107 C71.4,2.30848708 75.5,3.16162362 79.55,4.26568266 C82.55,5.06863469 85.5,6.12250923 88.3,7.57785978 C88.65,7.77859779 89.05,7.97933579 89.4,8.1800738 C90.65,8.98302583 91.2,10.1372694 90.85,11.5926199 C90.7,12.395572 90.45,13.198524 90.25,14.001476 C90.2,14.202214 90.05,14.402952 90,14.6538745 C89.95,15.3062731 89.5,15.6073801 88.95,15.8081181 C88.45,17.0627306 88.25,18.3675277 87.95,19.6723247 C87.3,22.3822878 86.65,25.0420664 86,27.701845 C85.85,28.2538745 85.75,28.7557196 86.2,29.2073801 C86.4,29.4081181 86.4,29.7092251 86.35,30.0103321 C86.05,31.5158672 85.8,33.0214022 85.4,34.4767528 C85.25,35.0789668 84.9,35.4302583 84.35,35.6309963 C83.7,35.8317343 83,35.9321033 82.35,36.0826568 C80.6,36.4841328 78.85,36.6848708 77.05,36.6346863 C73.95,36.5343173 70.9,36.3335793 67.85,35.7815498 C65.65,35.3800738 63.45,34.8782288 61.3,34.1756458 C57.55,32.8708487 54.05,31.1143911 50.95,28.5549815 C50.35,28.0531365 49.85,27.4509225 49.3,26.898893 C48.9,26.497417 48.8,26.095941 48.95,25.6442804 C49.35,24.2892989 49.8,22.9343173 50.25,21.5793358 C50.3,21.4789668 50.3,21.3785978 50.35,21.3284133 C51.2,20.0236162 51.2,20.0236162 51.4,18.6686347 C50.25,18.5682657 49.15,18.4678967 47.95,18.6686347 C47.75,20.1741697 47.9,21.6295203 47.85,23.0848708 C47.8,24.5402214 47.8,26.0457565 47.85,27.501107 C47.85,28.9062731 47.95,30.3616236 47.9,31.7667897 C47.85,33.2221402 47.85,34.7276753 47.9,36.1328413 C48,36.3335793 48.2,36.4339483 48.35,36.4339483 C49.8,36.4339483 51.25,36.7350554 52.65,37.0361624 C55.45,37.6383764 58.05,38.7424354 60.6,40.0472325 C64.65,42.104797 68,44.9653137 70.8,48.4782288 C72.1,50.0841328 72.95,51.8907749 73.65,53.797786 C73.85,54.2494465 73.95,54.7512915 74.15,55.202952 C75.05,57.1601476 75.45,59.3180812 75.95,61.4258303 C76.7,64.5874539 77.25,67.799262 77.65,71.0612546 C78,73.8214022 77.95,76.5815498 77.5,79.2915129 C76.85,83.2059041 75.6,86.9697417 73.55,90.4324723 C72.55,92.0885609 71.55,93.7446494 70.25,95.2 C67.45,98.2612546 64.35,100.971218 60.7,102.978598 C58.35,104.23321 55.9,105.136531 53.3,105.889299 C51.7,106.340959 50.05,106.441328 48.45,106.692251 C46.1,107.093727 43.8,106.892989 41.45,106.642066 C39.35,106.441328 37.3,105.939483 35.3,105.287085 C33.15,104.584502 31.1,103.681181 29.15,102.577122 C27.1,101.422878 25.25,100.017712 23.5,98.4118081 C19.75,95.0494465 17.05,90.8841328 15.1,86.2671587 C14.5,84.8619926 13.95,83.3564576 13.7,81.800738 C13.5,80.5461255 13.1,79.2915129 13,78.0369004 C12.85,76.0797048 12.65,74.0723247 12.85,72.1151292 C13.05,70.0073801 13.35,67.899631 13.75,65.8420664 C14.3,62.9815498 14.95,60.1712177 15.6,57.3608856 C16.1,55.1527675 17,53.095203 18.2,51.1380074 C19.35,49.2309963 20.6,47.4243542 22.2,45.8686347 C24.05,44.0619926 26,42.4059041 28.2,41.0509225 C30.95,39.3446494 33.9,38.0900369 36.95,37.2369004 C38.75,36.7350554 40.6,36.3837638 42.5,36.2833948 C42.8,36.2833948 43.15,36.2332103 43.45,36.1830258 C43.75,35.9321033 43.75,35.5808118 43.75,35.2797048 C43.75,30.7129151 43.7,26.1461255 43.7,21.5793358 C43.7,20.6258303 43.85,19.6221402 43.5,18.6184502 C42.25,18.6184502 41.1,18.4177122 39.85,18.6184502 C40.1,19.6723247 40.35,20.7261993 40.6,21.7298893 C40.65,21.9808118 40.7,22.2819188 41.05,22.3822878 C41.65,22.5328413 41.8,22.9845018 41.95,23.4863469 C42.35,24.8413284 42.75,26.1461255 43.15,27.4509225 Z M12.5,15.8583026 C13.75,15.7579336 14.95,15.4568266 16.1,15.0553506 C16.95,14.9549815 17.75,14.804428 18.55,14.4531365 C18.65,14.4531365 18.75,14.4531365 18.8,14.4531365 C22.05,13.499631 25.3,12.495941 28.4,11.1409594 C30.35,10.2376384 32.35,9.38450185 34.1,8.1298893 C34.95,7.52767528 35.8,6.92546125 36.45,5.92177122 C36.25,5.06863469 36.05,4.11512915 35.8,3.06125461 C35.25,3.51291513 34.8,3.81402214 34.45,4.21549815 C33.7,4.91808118 32.9,5.4701107 32,5.97195572 C28.75,7.72841328 25.35,9.28413284 21.8,10.3881919 C20.4,10.8398524 19,11.2915129 17.6,11.7431734 C16.75,11.8435424 15.95,12.0442804 15.15,12.3453875 C14,12.495941 12.9,12.7468635 11.8,13.1483395 C11.25,13.1483395 10.7,13.1483395 10.2,13.399262 C9.7,13.4494465 9.2,13.399262 8.7,13.499631 C7.95,13.6501845 7.15,13.700369 6.4,13.700369 C6,13.700369 5.6,13.7505535 5.15,13.7505535 C4.75,13.7505535 4.35,13.800738 3.9,13.800738 C3.5,13.800738 3.1,13.7505535 2.65,13.700369 C2.25,13.6501845 1.85,13.6 1.4,13.5498155 C1.5,14.3527675 1.8,15.0553506 2.05,15.7077491 C2.15,16.0590406 2.45,16.3099631 2.85,16.4103321 C3.2,16.5107011 3.55,16.5107011 3.95,16.5608856 C5.9,16.8118081 7.9,16.5608856 9.85,16.4605166 C10.65,16.4103321 11.5,16.3601476 12.25,15.9586716 L12.35,16.0088561 L12.5,15.8583026 Z M37.35,21.3785978 C37.95,23.9881919 38.35,25.0922509 38.8,25.4435424 C38.85,25.3933579 38.9,25.3933579 38.9,25.3431734 C38.6,23.7874539 38.25,22.2819188 37.65,20.7763838 C37.5,19.7225092 37.25,18.7188192 36.35,18.0162362 C36.15,17.8656827 36,17.6147601 35.95,17.3136531 C35.65,16.0088561 36,15.2560886 37.3,14.704059 C37.45,14.6538745 37.55,14.5535055 37.6,14.3527675 C37.3,13.098155 36.9,11.7933579 36.7,10.4383764 C36.6,9.73579336 36.35,9.03321033 36.15,8.33062731 C36.15,8.2804428 36.1,8.2302583 36.05,8.2302583 C36,8.2302583 35.95,8.2302583 35.85,8.1800738 C35.45,8.53136531 35,8.88265683 34.6,9.23394834 C34.6,9.38450185 34.55,9.43468635 34.6,9.48487085 C35.15,10.4383764 35.2,11.4922509 35.3,12.5461255 C35.35,13.298893 35.2,14.101845 34.6,14.704059 C34.4,14.904797 34.2,15.0553506 34.15,15.3564576 C34.45,16.8118081 35,18.1667897 35.2,19.6221402 C35.3,20.2243542 35.5,20.7763838 35.75,21.3284133 C35.85,21.6295203 36.05,21.8302583 36.4,21.8804428 C36.5,21.6797048 36.45,21.5793358 36.4,21.4287823 C36.2,20.8767528 36,20.3247232 35.85,19.7225092 C35.75,19.3712177 35.9,19.2206642 36.2,19.0199262 C36.9,19.5719557 36.95,20.5756458 37.35,21.3785978 Z M66,14.1520295 C65.3,13.8509225 64.55,13.700369 63.8,13.5498155 C63.1,13.198524 62.4,13.0479705 61.7,12.8472325 C61.3,13.1483395 61.35,13.499631 61.25,13.800738 C61.1,14.302583 61,14.7542435 60.7,15.2059041 C60.15,15.9586716 59.45,16.5107011 58.45,16.5608856 C58.1,17.9158672 57.75,19.2206642 57.45,20.4752768 C58.8,22.4324723 58.75,24.5402214 57.9,26.6479705 C58.65,27.2 59.4,27.4509225 60.2,27.6516605 C60.85,27.902583 61.45,28.304059 62.15,28.3542435 C63,28.7557196 63.95,28.9062731 64.85,29.1070111 C66.2,29.5084871 67.6,29.8597786 69,30.0103321 C69.05,30.0605166 69.15,30.1608856 69.2,30.1608856 C70.7,30.3616236 72.2,30.6125461 73.7,30.7630996 C74.65,30.8634686 75.6,30.8634686 76.5,30.9136531 C76.85,30.4619926 76.9,30.0103321 77.05,29.5586716 C77.5,27.9527675 78.3,26.597786 79.9,25.895203 C80.35,25.6944649 80.5,25.3933579 80.6,24.9416974 C80.9,23.6870849 81.25,22.4826568 81.55,21.2280443 C80.5,19.7225092 80.55,20.2243542 80.55,17.9158672 C80.55,17.5143911 80.7,17.1129151 80.5,16.7114391 C80.15,16.4103321 79.7,16.4605166 79.3,16.4605166 C77.15,16.3601476 75,16.0590406 72.9,15.6575646 C72.65,15.6073801 72.35,15.6073801 72.1,15.6073801 C72,15.5571956 71.9,15.4066421 71.75,15.4066421 C70.35,15.3062731 69,14.8546125 67.6,14.60369 C67.1,14.4531365 66.6,14.001476 66,14.1520295 Z M67.4,10.2376384 C67.2,10.0369004 66.9,10.0369004 66.65,9.93653137 C62.45,8.83247232 58.4,7.47749077 54.8,4.96826568 C54.75,4.91808118 54.65,4.96826568 54.55,4.91808118 C54.45,5.3697417 54.45,5.82140221 54.3,6.27306273 C53.95,7.27675277 54.3,7.97933579 55.15,8.48118081 C55.35,8.58154982 55.55,8.73210332 55.75,8.83247232 C57,9.58523985 58.35,10.2376384 59.65,10.8398524 C61.85,11.8435424 64.2,12.495941 66.55,12.997786 C67.45,13.298893 68.35,13.6501845 69.3,13.6501845 C70.7,14.101845 72.15,14.302583 73.6,14.5535055 C77.75,15.2560886 81.95,15.7579336 86.15,15.3062731 C87.15,15.2059041 88.15,15.0051661 89.1,14.503321 C89.3,13.7505535 89.55,12.9476015 89.75,12.1446494 C89.8,12.0442804 89.8,11.8937269 89.65,11.7933579 C89.55,11.6428044 89.4,11.7431734 89.3,11.7933579 C88.05,12.0442804 86.85,12.4457565 85.55,12.495941 C81.6,12.59631 77.7,12.295203 73.8,11.5424354 C72.5,11.2915129 71.2,11.0907749 69.9,10.8398524 C69.1,10.5387454 68.25,10.2878229 67.4,10.2376384 Z M15.8,16.3601476 C15,16.4103321 14.25,16.5608856 13.55,16.8619926 C12.8,16.8619926 12.1,16.9623616 11.4,17.3136531 C11.8,19.0701107 12.15,20.7763838 10.35,21.9808118 C10.85,24.1387454 11.35,26.2464945 11.8,28.2538745 C13.65,29.2575646 14.65,30.8132841 15.15,33.4228782 C16.35,33.6236162 16.55,33.5734317 17.5,33.2723247 C18.25,33.2221402 19.05,33.3726937 19.75,32.9712177 C20.6,32.9712177 21.4,32.7704797 22.2,32.4191882 C23.65,32.2184502 25,31.8169742 26.35,31.3151292 C26.5,31.3151292 26.65,31.3151292 26.75,31.3151292 C29.05,30.6125461 31.2,29.7092251 33.4,28.7055351 C33.5,28.6553506 33.6,28.504797 33.65,28.404428 C33,24.4900369 33,24.2892989 34.55,21.9808118 C34.05,19.7225092 33.5,17.4642066 33,15.1557196 C31.1,14.804428 30.7,13.098155 30,11.6428044 C29.55,11.8435424 29.1,11.9940959 28.7,12.1948339 C27.05,12.897417 25.4,13.5498155 23.7,14.101845 C23.2,14.2523985 22.65,14.3527675 22.2,14.704059 C22,14.704059 21.7,14.6538745 21.55,14.7542435 C20.25,15.3062731 18.85,15.5070111 17.55,15.9586716 C17.2,16.0088561 16.85,16.0590406 16.45,16.1092251 C16.15,16.1092251 15.95,16.1594096 15.8,16.3601476 Z M22.75,37.1867159 C23.9,37.0361624 24.95,36.7852399 26,36.3335793 C26.1,36.3335793 26.2,36.3837638 26.25,36.3335793 C30.6,35.1793358 34.75,33.4730627 38.6,31.0642066 C39.9,30.2110701 41.05,29.1571956 42.05,27.9527675 C41.65,26.8487085 41.55,25.6944649 41.1,24.6907749 C40.85,24.7409594 40.7,24.8413284 40.6,24.9918819 C39.45,26.497417 37.95,27.5512915 36.4,28.4546125 C34.4,29.6590406 32.25,30.6125461 30.05,31.4154982 C28.25,32.0678967 26.45,32.7704797 24.65,33.3225092 C23.8,33.3726937 23,33.5734317 22.2,33.8745387 C21.8,33.9247232 21.4,33.9749077 21,34.0250923 C20.1,34.1756458 19.2,34.3261993 18.3,34.4767528 C15.95,34.8280443 13.65,34.7276753 11.3,34.5771218 C10.1,34.4767528 8.9,34.3763838 7.8,34.0250923 C7.7,33.9749077 7.55,33.9749077 7.45,34.0752768 C7.4,34.9785978 7.55,35.8819188 8.05,36.9859779 C8.8,37.3874539 9.65,37.5881919 10.5,37.7387454 C14.15,38.2907749 17.8,38.3409594 21.45,37.6383764 C21.75,37.3874539 22.3,37.5380074 22.75,37.1867159 Z M63.25,33.5232472 C64.05,33.8243542 64.85,34.0250923 65.7,34.1254613 C66.1,34.4767528 66.55,34.3763838 67,34.4767528 C71.15,35.4302583 75.35,35.7313653 79.6,35.5306273 C81.15,35.4302583 82.65,34.9785978 84.15,34.4767528 C84.25,34.4265683 84.35,34.3261993 84.4,34.2258303 C84.6,33.3225092 84.8,32.4693727 85,31.6162362 C85.05,31.3653137 85.2,31.0642066 84.85,30.8634686 C83.65,31.5158672 82.3,31.7667897 80.95,31.9675277 C78.05,32.3690037 75.2,32.1180812 72.3,31.7667897 C70.55,31.5660517 68.85,31.3151292 67.15,31.0642066 C66.2,30.6627306 65.2,30.4118081 64.15,30.2110701 C63.8,29.9099631 63.3,29.8597786 62.85,29.7594096 C61.1,29.2073801 59.35,28.6553506 57.75,27.7520295 C55.5,26.5476015 53.15,25.3933579 51.3,23.5867159 C51.15,23.4361624 50.95,23.2856089 50.65,23.4361624 C50.55,23.7874539 50.45,24.1889299 50.3,24.5904059 C49.8,26.3468635 49.8,26.3468635 51.15,27.5512915 C51.2,27.601476 51.3,27.6516605 51.35,27.701845 C54.85,30.4118081 58.75,32.3188192 62.95,33.5232472 C63.05,33.5734317 63.15,33.5232472 63.25,33.5232472 Z M45.65,105.487823 C48.5,105.487823 51.7,105.036162 54.85,103.982288 C57.6,103.078967 60.25,101.924723 62.65,100.268635 C64.05,99.3151292 65.4,98.3114391 66.65,97.1070111 C68.65,95.1498155 70.5,93.0420664 71.95,90.6332103 C72.8,89.1778598 73.65,87.6723247 74.25,86.1166052 C75.1,83.7579336 75.85,81.3490775 76.2,78.8398524 C76.65,75.7284133 76.6,72.7173432 76.15,69.6560886 C75.85,67.498155 75.35,65.4405904 74.6,63.3830258 C73.75,60.9741697 72.35,58.8664207 71.2,56.6583026 C70,55.303321 68.95,53.797786 67.7,52.4929889 C65.45,50.1845018 62.95,48.3276753 60.15,46.8221402 C57.7,45.4671587 55,44.6642066 52.3,43.8612546 C51.65,43.6605166 51,43.7608856 50.4,43.6103321 C48.65,43.1586716 46.85,43.2088561 45.1,43.1586716 C42.4,43.1586716 39.7,43.5601476 37.1,44.2627306 C35.65,44.6642066 34.2,45.1158672 32.85,45.7180812 C32.05,46.0693727 31.35,46.5210332 30.55,46.9225092 C28.05,48.2273063 25.8,49.8332103 23.8,51.8405904 C23.15,52.4929889 22.45,53.195572 21.8,53.898155 C20.95,54.801476 20.4,55.9557196 19.5,56.8088561 C18.75,58.4147601 17.75,59.8199262 17,61.3756458 C15.7,64.1357934 14.95,67.096679 14.55,70.1077491 C14.3,71.8140221 14.2,73.5704797 14.25,75.3269373 C14.3,77.2339483 14.55,79.0907749 14.9,80.9476015 C15.25,82.8546125 15.95,84.7616236 16.7,86.5682657 C17.7,88.9269373 18.95,91.1852399 20.55,93.1926199 C22.3,95.400738 24.2,97.4583026 26.45,99.1143911 C27.95,100.21845 29.55,101.322509 31.2,102.125461 C33.4,103.179336 35.65,104.082657 38.05,104.584502 C40.4,105.086347 42.8,105.487823 45.65,105.487823 Z M64,47.5247232 C63.7,46.0191882 63.45,44.8147601 63.2,43.6103321 C63.15,43.2590406 62.95,43.0081181 62.65,42.8575646 C61.55,42.104797 60.45,41.402214 59.2,40.8501845 C57.35,39.997048 55.45,39.3446494 53.55,38.7424354 C52,38.2405904 50.35,38.0398524 48.7,37.7889299 C48.45,37.7387454 48.15,37.6383764 47.9,37.8892989 C47.8,38.1904059 47.65,38.5416974 48.1,38.7926199 C48.3,38.8929889 48.5,39.0435424 48.65,39.1940959 C49.1,39.695941 49,40.2479705 48.5,40.6494465 C48.15,40.900369 47.8,41.0509225 47.35,41.0509225 C46.3,41.0509225 45.25,41.0509225 44.2,41.000738 C43.8,41.000738 43.4,40.8501845 43,40.699631 C42.8,40.599262 42.65,40.4487085 42.5,40.2479705 C42.2,39.896679 42.3,39.4450185 42.65,39.1439114 C42.95,38.9431734 43.35,38.8929889 43.6,38.5918819 C43.7,38.2907749 43.75,37.9896679 43.4,37.6885609 C43.25,37.6885609 43.05,37.6885609 42.9,37.6885609 C40.95,37.7889299 39,38.1402214 37.1,38.6922509 C35.7,39.0937269 34.3,39.495203 32.95,40.097417 C32.05,40.498893 31.3,41.000738 30.4,41.402214 C29.55,41.7535055 28.85,42.3557196 28.05,42.8073801 C27.75,42.9579336 27.5,43.2088561 27.45,43.5601476 C27.3,44.8147601 26.8,46.0191882 26.75,47.4745387 C32.4,43.6605166 38.55,41.6531365 45.25,41.6531365 C52,41.602952 58.2,43.5601476 64,47.5247232 Z M57.65,5.3697417 C57.9,5.77121771 58.3,5.87158672 58.65,6.02214022 C60.4,6.82509225 62.15,7.57785978 64.05,8.0797048 C67.7,9.13357934 71.4,9.98671587 75.2,10.5889299 C78.25,11.0907749 81.3,11.3416974 84.4,11.3416974 C85.35,11.3416974 86.3,11.2413284 87.25,11.0405904 C87.05,10.6892989 86.75,10.5889299 86.45,10.4383764 C84.5,9.48487085 82.5,8.63173432 80.45,8.0295203 C77.25,7.02583026 74,6.32324723 70.7,5.72103321 C66.9,5.06863469 63.05,4.81771218 59.2,5.01845018 C58.6,5.11881919 58.1,5.11881919 57.65,5.3697417 Z M33.1,3.71365314 C30.95,3.51291513 28.85,3.71365314 26.8,4.06494465 C22.05,4.81771218 17.5,6.17269373 13,7.82878229 C10.2,8.88265683 7.55,10.2878229 5.05,11.8937269 C4.85,12.0442804 4.5,12.0944649 4.55,12.5461255 C4.7,12.59631 4.9,12.6464945 5.05,12.59631 C6.85,12.5461255 8.6,12.4457565 10.4,12.0944649 C13.4,11.5424354 16.3,10.7896679 19.2,9.93653137 C22.95,8.83247232 26.6,7.42730627 30.1,5.67084871 C31.15,5.16900369 32.15,4.51660517 33.1,3.71365314 Z M2.95,12.495941 C3.65,11.7431734 4.45,11.0907749 5.35,10.5387454 C8.05,8.83247232 10.9,7.52767528 13.9,6.42361624 C17.15,5.26937269 20.5,4.41623616 23.85,3.66346863 C26.65,3.01107011 29.45,2.6597786 32.3,2.55940959 C32.9,2.55940959 33.5,2.6095941 34.1,2.6095941 C34.7,2.6095941 34.8,2.55940959 35.05,1.70627306 C34.3,1.25461255 33.45,1.15424354 32.55,1.15424354 C30.2,1.15424354 27.85,1.40516605 25.55,1.85682657 C21.4,2.6597786 17.35,3.81402214 13.35,5.21918819 C10.15,6.37343173 7.05,7.72841328 4.1,9.48487085 C3.45,9.83616236 2.85,10.2878229 2.3,10.7394834 C1.85,11.0405904 1.45,11.4420664 1.35,12.0944649 C1.85,12.495941 2.35,12.5461255 2.95,12.495941 Z M56.3,4.66715867 C56.95,4.51660517 57.55,4.26568266 58.2,4.21549815 C61.45,3.81402214 64.7,3.91439114 67.95,4.31586716 C70.85,4.66715867 73.65,5.26937269 76.45,5.97195572 C80.7,7.02583026 84.85,8.2804428 88.65,10.5889299 C89.15,10.8900369 89.5,10.6391144 89.8,10.2376384 C89.7,9.78597786 89.4,9.58523985 89.1,9.33431734 C88.45,8.78228782 87.75,8.38081181 87,8.0295203 C84.85,7.02583026 82.6,6.17269373 80.3,5.5202952 C76.25,4.41623616 72.1,3.51291513 67.9,3.01107011 C64.95,2.6597786 61.95,2.45904059 58.95,2.6095941 C58.15,2.6597786 57.3,2.7099631 56.5,2.91070111 C56,3.01107011 55.4,3.11143911 55.2,3.71365314 C55.5,4.21549815 55.85,4.51660517 56.3,4.66715867 Z M44.75,39.2944649 C46.5,39.595572 46.65,39.4450185 46.7,37.9896679 C46.7,37.9394834 46.7,37.8892989 46.7,37.8391144 C46.7,34.8280443 46.75,31.8671587 46.75,28.8560886 C46.75,24.7409594 46.75,20.6760148 46.75,16.5608856 C46.75,16.2597786 46.75,15.9084871 46.5,15.6575646 C45.7,15.3564576 45.4,15.3564576 45.1,15.5571956 C44.65,15.9084871 44.75,16.3601476 44.75,16.8118081 C44.75,18.5682657 44.75,20.3247232 44.75,22.0811808 C44.75,26.2464945 44.75,30.3616236 44.75,34.5269373 C44.75,36.0826568 44.75,37.6383764 44.75,39.2944649 Z M6.3,17.8154982 C5.7,17.7151292 5.25,17.6147601 4.8,17.5645756 C4.35,17.5143911 3.9,17.3638376 3.4,17.6147601 C3.3,18.2169742 3.6,18.7690037 3.75,19.3210332 C4.4,21.2782288 5,23.2354244 5.5,25.2428044 C6.05,27.5512915 6.65,29.9099631 7.2,32.2184502 C7.3,32.5697417 7.45,32.7704797 7.9,32.6199262 C7.65,31.5158672 7.4,30.5121771 7.2,29.5084871 C7,28.504797 6.5,27.5512915 6.7,26.4472325 C7.15,26.497417 7.3,26.8487085 7.4,27.099631 C7.7,28.1535055 8.05,29.2073801 8.25,30.3114391 C8.4,31.2147601 8.65,32.1180812 8.85,33.0214022 C8.9,33.1719557 9,33.2221402 9.25,33.1719557 C9.15,32.6701107 9.1,32.1180812 9,31.6162362 C8.8,30.5623616 8.55,29.5586716 8.35,28.504797 C8.3,28.1535055 8.2,27.802214 8.55,27.4509225 C9.4,28.0531365 9.1,29.1070111 9.6,29.8597786 C10.5,29.1070111 10.7,28.304059 10.3,27.2501845 C10.05,26.6479705 10.05,25.995572 9.9,25.3933579 C9.6,24.2892989 9.45,23.1350554 9,22.1313653 C7.75,21.7800738 7.7,21.7298893 7.1,20.6760148 C6.7,19.7225092 6.45,18.8191882 6.3,17.8154982 Z M26.2,44.4132841 C25.9,44.3630996 25.75,44.4634686 25.6,44.5638376 C25.35,44.7143911 25.15,44.8649446 24.95,45.0656827 C24.2,45.7682657 23.5,46.5712177 22.7,47.2738007 C21.35,48.4280443 20.4,49.8833948 19.45,51.2885609 C18.1,53.2457565 17.5,55.504059 17,57.8125461 C17.35,57.8125461 17.4,57.5616236 17.5,57.3608856 C18.85,55.3535055 20.25,53.3461255 22,51.6398524 C22.85,50.7867159 23.75,50.0339483 24.6,49.2309963 C25.1,48.7793358 25.45,48.3276753 25.5,47.6250923 C25.55,47.0228782 25.8,46.4708487 25.9,45.8686347 C26,45.3667897 26.1,44.9151292 26.2,44.4132841 Z M73.55,57.8627306 C73.1,55.6546125 72.65,53.5468635 71.5,51.6900369 C71.15,51.0878229 70.7,50.5859779 70.3,50.0339483 C69,48.0767528 67.25,46.5210332 65.55,44.9151292 C65.25,44.6642066 64.95,44.4132841 64.4,44.4132841 C64.65,45.5173432 65,46.5210332 65.15,47.5749077 C65.25,48.3276753 65.6,48.8295203 66.15,49.2811808 C67,50.0339483 67.85,50.7867159 68.65,51.5896679 C70,52.9446494 71.2,54.500369 72.3,56.0560886 C72.7,56.6583026 73.1,57.2605166 73.55,57.8627306 Z M57.4,16.0088561 C56.45,15.5070111 56.35,14.6538745 56.35,13.6501845 C56.35,12.6464945 56.7,11.7933579 56.8,10.7896679 C56.15,10.3881919 55.55,9.93653137 54.95,9.53505535 C54.75,9.38450185 54.55,9.33431734 54.2,9.48487085 C54.05,10.9904059 53.45,12.495941 53.5,14.101845 C53.75,14.302583 53.95,14.4531365 54.1,14.60369 C55.2,15.8081181 55.2,16.7114391 54.25,18.0162362 C54.1,18.2169742 53.9,18.4177122 53.85,18.7188192 C53.5,20.0738007 53.15,21.4789668 52.8,22.8339483 C52.75,23.0346863 52.65,23.2354244 52.95,23.4361624 C53.35,22.9845018 53.4,22.4324723 53.55,21.9306273 C53.9,20.8767528 54.15,19.8228782 54.5,18.7690037 C54.6,18.5180812 54.7,18.2671587 55.15,18.3173432 C55.55,19.2206642 54.75,20.0236162 54.85,20.9269373 C55.05,20.8265683 55.15,20.6760148 55.35,20.6258303 C56.25,20.4250923 56.55,19.7726937 56.7,18.9697417 C56.85,18.0162362 57.15,17.0627306 57.4,16.0088561 Z M82.65,21.6295203 C82.35,22.9343173 82.1,24.1387454 81.85,25.3431734 C81.8,25.6442804 81.85,25.895203 82.2,26.0457565 C82.5,25.6944649 82.55,25.2428044 82.6,24.7911439 C82.6,24.4398524 82.7,24.1387454 82.85,23.8878229 C82.95,23.6870849 83.1,23.6369004 83.3,23.6870849 C83.5,23.9380074 83.45,24.1889299 83.45,24.4900369 C83.45,25.9453875 83.05,27.400738 82.75,28.8059041 C82.65,29.3579336 82.55,29.8597786 82.7,30.4118081 C82.9,30.0605166 83,29.6590406 83.1,29.2575646 C83.5,27.5512915 83.9,25.8450185 84.25,24.1387454 C84.35,23.6870849 84.55,23.4361624 85,23.3859779 C85.4,23.6369004 85.3,23.9881919 85.25,24.2892989 C84.85,25.995572 84.45,27.6516605 84.05,29.3579336 C84,29.5084871 83.95,29.7092251 84.25,29.8597786 C84.95,28.4546125 85.1,26.898893 85.5,25.3933579 C85.95,23.8376384 86.25,22.2819188 86.6,20.7261993 C86.9,19.2206642 87.6,17.8154982 87.65,16.2095941 C87,16.3099631 86.5,16.4103321 86,16.5107011 C85.75,17.0627306 85.75,17.5645756 85.6,18.0162362 C85.15,19.6221402 84.6,21.1276753 82.65,21.6295203 Z M43.55,17.4642066 C43.55,16.8118081 43.8,16.2597786 43.65,15.6575646 C42.15,15.4066421 38.25,15.5070111 37.05,15.8081181 C36.85,16.2095941 36.7,16.6110701 36.85,17.0125461 C37.25,17.4642066 37.7,17.4642066 38.15,17.4642066 C38.95,17.4642066 39.8,17.4642066 40.6,17.4642066 C41.55,17.5143911 42.45,17.6147601 43.55,17.4642066 Z M53.7,17.4642066 C54.15,16.4103321 54.15,16.4103321 53.75,15.6073801 C52.25,15.2059041 50.7,15.6575646 49.15,15.5571956 C48.75,15.5070111 48.35,15.5070111 47.9,15.7579336 C47.75,16.3099631 47.8,16.8619926 48,17.4642066 C49.7,17.5143911 51.3,17.5143911 52.95,17.5645756 C53.15,17.5143911 53.4,17.5143911 53.7,17.4642066 Z M34.65,28.002952 C35.65,27.601476 36.5,27.0494465 37.35,26.4472325 C37.45,25.1926199 37,24.1387454 36.25,23.2354244 C35.9,22.7837638 35.5,22.7837638 35.05,23.1350554 C34.5,23.6870849 34.25,24.3394834 34.2,25.0922509 C34.2,26.095941 34.35,26.999262 34.65,28.002952 Z M77.8,30.9638376 C78.9,31.0140221 79.95,30.8634686 81,30.7630996 C81.65,29.6590406 81.7,28.504797 81.45,27.300369 C81.4,26.9490775 81.1,26.7483395 80.75,26.798524 C80.1,26.798524 79.65,27.1498155 79.25,27.601476 C78.45,28.504797 78.05,29.6088561 77.8,30.9638376 Z M13.9,33.5232472 C13.7,32.4191882 13.4,31.4656827 12.8,30.6627306 C12.6,30.3616236 12.4,30.0605166 12.1,29.8095941 C11.75,29.4583026 11.2,29.5586716 10.95,30.0103321 C10.75,30.3616236 10.6,30.7630996 10.55,31.1645756 C10.5,31.9173432 10.55,32.7202952 10.7,33.5232472 C11.8,33.5232472 12.75,33.5232472 13.9,33.5232472 Z M54.1,24.5402214 C55,25.1926199 55.85,25.6944649 56.8,26.095941 C57.35,25.3431734 57.25,24.4900369 57.3,23.6870849 C57.35,23.0848708 57.3,22.4826568 57.05,21.9306273 C56.85,21.4287823 56.4,21.2782288 55.95,21.5793358 C55.4,21.8804428 55.05,22.3822878 54.8,22.8841328 C54.55,23.3859779 54.35,23.9380074 54.1,24.5402214 Z M81.7,16.6612546 C81.5,17.4140221 81.55,18.0664207 81.55,18.6686347 C81.55,18.9195572 81.65,19.2206642 81.75,19.4715867 C82.2,20.5756458 82.95,20.6760148 83.7,19.7225092 C84.35,18.8693727 84.55,17.8656827 84.6,16.6612546 C83.6,16.6612546 82.7,16.5608856 81.7,16.6612546 Z M10.05,17.4642066 C9.15,17.5143911 8.2,17.4642066 7.25,17.6649446 C7.5,18.6686347 7.7,19.6221402 8.25,20.4250923 C8.6,20.9771218 9.1,21.1276753 9.8,20.9269373 C10.3,20.7763838 10.6,20.4250923 10.6,19.7726937 C10.6,18.9697417 10.55,18.1667897 10.05,17.4642066 Z M30.85,11.1911439 C31.2,11.8937269 31.4,12.4457565 31.7,12.9476015 C31.95,13.399262 32.3,13.7505535 32.75,13.9512915 C33.2,14.202214 33.7,14.0516605 33.9,13.6 C34.15,13.0479705 34.3,12.4457565 34.15,11.8435424 C34,11.1409594 34,10.3881919 33.4,9.83616236 C32.55,10.3380074 31.75,10.7394834 30.85,11.1911439 Z M57.85,11.2413284 C57.45,12.2450185 57.35,13.198524 57.4,14.1520295 C57.45,14.7542435 57.8,15.1557196 58.4,15.3062731 C59,15.4568266 59.45,15.2560886 59.75,14.704059 C60.1,14.001476 60.45,13.2487085 60.35,12.395572 C59.5,11.9940959 58.75,11.6428044 57.85,11.2413284 Z M39.65,24.4900369 C39.9,23.7874539 39.85,23.3859779 39.75,22.9845018 C39.5,21.8302583 39.2,20.6760148 38.95,19.5217712 C38.9,19.3210332 38.8,19.0701107 38.75,18.8693727 C38.7,18.6686347 38.55,18.5682657 38.3,18.6184502 C38.25,18.7188192 38.15,18.8693727 38.2,18.9697417 C38.65,20.7763838 38.95,22.5830258 39.65,24.4900369 Z M51.85,22.6332103 C51.95,22.4826568 52.05,22.4324723 52.1,22.3822878 C52.4,21.2782288 52.7,20.1741697 53,19.1202952 C53,19.0199262 53.05,18.9195572 53,18.8693727 C52.95,18.8191882 52.9,18.7188192 52.8,18.6686347 C52.75,18.6686347 52.6,18.6686347 52.55,18.7188192 C52.45,18.8191882 52.35,18.9195572 52.3,19.0199262 C52.05,20.0236162 51.75,21.0273063 51.5,22.0309963 C51.5,22.2317343 51.6,22.4826568 51.85,22.6332103 Z" id="Shape" fill="#010001"/>
          <path d="M43.15,27.4509225 C42.75,26.1461255 42.35,24.8413284 41.95,23.5365314 C41.8,23.0346863 41.65,22.5830258 41.05,22.4324723 C40.7,22.3822878 40.7,22.0309963 40.6,21.7800738 C40.35,20.7763838 40.1,19.7225092 39.85,18.6686347 C41.1,18.4678967 42.25,18.6184502 43.5,18.6686347 C43.8,19.6723247 43.65,20.6258303 43.7,21.6295203 C43.4,21.7800738 43.45,22.0811808 43.45,22.3321033 C43.45,23.7874539 43.45,25.2428044 43.45,26.698155 C43.4,26.999262 43.45,27.300369 43.15,27.4509225 Z" id="Shape" fill="#FCFCFC"/>
          <path d="M45.65,105.487823 C42.8,105.538007 40.4,105.086347 38.05,104.634686 C35.65,104.132841 33.4,103.22952 31.2,102.175646 C29.5,101.372694 27.95,100.268635 26.45,99.1645756 C24.15,97.5084871 22.3,95.4509225 20.55,93.2428044 C18.95,91.1852399 17.7,88.9771218 16.7,86.6184502 C15.9,84.8118081 15.25,82.904797 14.9,80.997786 C14.55,79.1409594 14.25,77.2841328 14.25,75.3771218 C14.2,73.6206642 14.3,71.8642066 14.55,70.1579336 C14.95,67.1468635 15.75,64.2361624 17,61.4258303 C17.75,59.8199262 18.75,58.4147601 19.5,56.8590406 C20.4,56.0059041 20.9,54.8516605 21.8,53.9483395 C22.45,53.2457565 23.1,52.5431734 23.8,51.8907749 C25.8,49.8833948 28.05,48.2774908 30.55,46.9726937 C31.3,46.5712177 32.05,46.1195572 32.85,45.7682657 C34.25,45.1660517 35.65,44.7143911 37.1,44.3129151 C39.7,43.5601476 42.4,43.1586716 45.1,43.2088561 C46.85,43.2088561 48.65,43.1586716 50.4,43.6605166 C51,43.8110701 51.65,43.7107011 52.3,43.9114391 C54.95,44.7143911 57.65,45.5173432 60.15,46.8723247 C62.9,48.3778598 65.45,50.2346863 67.7,52.5431734 C69,53.8479705 70,55.3535055 71.2,56.7084871 C72.4,58.9166052 73.75,61.0745387 74.6,63.4332103 C75.35,65.4907749 75.85,67.5483395 76.15,69.7062731 C76.6,72.7675277 76.65,75.8287823 76.2,78.8900369 C75.85,81.399262 75.1,83.8081181 74.25,86.1667897 C73.65,87.7726937 72.8,89.2280443 71.95,90.6833948 C70.5,93.0922509 68.7,95.2501845 66.65,97.1571956 C65.45,98.3114391 64.05,99.3151292 62.65,100.318819 C60.25,101.974908 57.65,103.129151 54.85,104.032472 C51.7,104.985978 48.5,105.487823 45.65,105.487823 Z M74.85,74.3232472 C74.85,58.4649446 62.35,45.0656827 46.05,44.6140221 C29.55,44.1623616 15.6,57.4110701 15.6,74.4236162 C15.6,82.1520295 18.3,89.0273063 23.65,94.6479705 C29.55,100.921033 36.95,104.132841 45.5,104.032472 C61.5,103.932103 74.8,90.9845018 74.85,74.3232472 Z" id="Shape" fill="#CFE8E9"/>
          <path d="M22.15,14.704059 C22.6,14.3527675 23.15,14.302583 23.65,14.101845 C25.35,13.5498155 27,12.897417 28.65,12.1948339 C29.05,11.9940959 29.5,11.8435424 29.95,11.6428044 C30.7,13.098155 31.05,14.804428 32.95,15.1557196 C33.5,17.4642066 34,19.7225092 34.5,21.9808118 C32.95,24.3394834 32.95,24.4900369 33.6,28.404428 C33.5,28.504797 33.45,28.6553506 33.35,28.7055351 C31.2,29.7092251 29,30.6125461 26.7,31.3151292 C26.55,31.3653137 26.45,31.3151292 26.3,31.3151292 C26.25,31.0642066 26.25,30.8634686 26.2,30.6125461 C25.65,28.5549815 25.1,26.497417 24.6,24.4398524 C24,22.0811808 23.35,19.7225092 22.8,17.3136531 C22.6,16.4605166 22.15,15.6575646 22.15,14.704059 Z" id="Shape" fill="#DD002B"/>
          <path d="M72.1,15.5571956 C72.35,15.5571956 72.65,15.5571956 72.9,15.6073801 C75,16.0590406 77.15,16.3601476 79.3,16.4103321 C79.7,16.4103321 80.15,16.3601476 80.5,16.6612546 C80.7,17.0627306 80.55,17.4642066 80.55,17.8656827 C80.55,20.1741697 80.55,19.6723247 81.55,21.1778598 C81.2,22.4324723 80.9,23.6369004 80.6,24.8915129 C80.5,25.3431734 80.35,25.6442804 79.9,25.8450185 C78.3,26.5476015 77.5,27.9527675 77.05,29.5084871 C76.9,29.9601476 76.85,30.4118081 76.5,30.8634686 C75.6,30.8132841 74.65,30.8132841 73.7,30.7129151 C72.2,30.5623616 70.7,30.3114391 69.2,30.1107011 C69.1,30.1107011 69.05,30.0103321 69,29.9601476 C69,29.6088561 69,29.2575646 69.1,28.8560886 C69.35,27.9527675 69.6,27.0494465 69.8,26.095941 C70.35,23.6369004 70.8,21.1276753 71.5,18.7188192 C71.85,17.7151292 72.15,16.6612546 72.1,15.5571956 Z" id="Shape" fill="#DD002B"/>
          <path d="M64,47.5247232 C58.2,43.5099631 52,41.602952 45.25,41.602952 C38.55,41.602952 32.4,43.6103321 26.75,47.4243542 C26.8,45.9690037 27.3,44.8147601 27.45,43.5099631 C27.5,43.1586716 27.75,42.9579336 28.05,42.7571956 C28.85,42.3055351 29.55,41.703321 30.4,41.3520295 C31.25,41.000738 32.05,40.4487085 32.95,40.0472325 C34.3,39.4450185 35.7,39.0435424 37.1,38.6420664 C39,38.0900369 40.95,37.7889299 42.9,37.6383764 C43.1,37.6383764 43.25,37.6383764 43.4,37.6383764 C43.75,37.8892989 43.7,38.1904059 43.6,38.5416974 C43.35,38.8428044 42.95,38.8929889 42.65,39.0937269 C42.25,39.3446494 42.2,39.79631 42.5,40.197786 C42.65,40.3483395 42.8,40.5490775 43,40.6494465 C43.4,40.8 43.8,40.9505535 44.2,40.9505535 C45.25,41.000738 46.3,41.000738 47.35,41.000738 C47.8,41.000738 48.15,40.900369 48.5,40.599262 C49,40.197786 49.1,39.6457565 48.65,39.1439114 C48.5,38.9933579 48.3,38.8428044 48.1,38.7424354 C47.65,38.4915129 47.8,38.1402214 47.9,37.8391144 C48.15,37.5881919 48.45,37.6885609 48.7,37.7387454 C50.35,37.9394834 51.95,38.1402214 53.55,38.6922509 C55.45,39.3446494 57.35,39.997048 59.2,40.8 C60.4,41.3520295 61.55,42.104797 62.65,42.8073801 C62.95,43.0081181 63.1,43.2590406 63.2,43.5601476 C63.45,44.8147601 63.7,46.0191882 64,47.5247232 Z" id="Shape" fill="#DC002B"/>
          <path d="M57.65,5.3697417 C58.1,5.11881919 58.6,5.11881919 59.15,5.06863469 C63,4.86789668 66.85,5.11881919 70.65,5.77121771 C73.95,6.37343173 77.2,7.07601476 80.4,8.0797048 C82.45,8.73210332 84.45,9.53505535 86.4,10.4885609 C86.7,10.6391144 87,10.6892989 87.2,11.0907749 C86.25,11.2915129 85.3,11.3918819 84.35,11.3918819 C81.25,11.3416974 78.2,11.1409594 75.15,10.6391144 C71.4,10.0369004 67.7,9.18376384 64,8.1298893 C62.15,7.57785978 60.35,6.87527675 58.6,6.07232472 C58.3,5.87158672 57.85,5.77121771 57.65,5.3697417 Z" id="Shape" fill="#F4E6D0"/>
          <path d="M33.1,3.71365314 C32.15,4.51660517 31.15,5.16900369 30.1,5.67084871 C26.6,7.42730627 22.95,8.78228782 19.2,9.93653137 C16.3,10.7896679 13.35,11.5424354 10.4,12.0944649 C8.65,12.4457565 6.85,12.5461255 5.05,12.59631 C4.9,12.59631 4.7,12.5461255 4.55,12.5461255 C4.5,12.1446494 4.8,12.0442804 5.05,11.8937269 C7.6,10.2878229 10.2,8.88265683 13,7.82878229 C17.5,6.12250923 22.05,4.81771218 26.8,4.06494465 C28.85,3.71365314 30.95,3.51291513 33.1,3.71365314 Z" id="Shape" fill="#F4E6D0"/>
          <path d="M22.15,14.704059 C22.15,15.6575646 22.6,16.4605166 22.8,17.3638376 C23.35,19.7726937 24,22.1313653 24.6,24.4900369 C25.15,26.5476015 25.7,28.6051661 26.2,30.6627306 C26.25,30.8634686 26.25,31.1143911 26.3,31.3653137 C24.95,31.8671587 23.55,32.3188192 22.15,32.4693727 C22.1,31.5158672 21.75,30.6125461 21.45,29.7092251 C21,28.2538745 20.5,26.7483395 20.15,25.2929889 C19.7,23.6369004 19.5,21.9306273 18.9,20.2745387 C18.6,19.4715867 18.4,18.6184502 18.35,17.7653137 C18.25,17.0125461 18,16.4605166 17.5,15.9586716 C18.85,15.5070111 20.2,15.3062731 21.5,14.7542435 C21.65,14.6538745 21.9,14.704059 22.15,14.704059 Z" id="Shape" fill="#F73D61"/>
          <path d="M72.1,15.5571956 C72.15,16.6612546 71.8,17.7151292 71.5,18.7690037 C70.8,21.2280443 70.35,23.6870849 69.8,26.1461255 C69.6,27.0494465 69.35,28.002952 69.1,28.9062731 C69,29.2575646 69,29.6088561 69,30.0103321 C67.55,29.9099631 66.2,29.5084871 64.85,29.1070111 C64.85,28.8560886 64.85,28.5549815 64.9,28.304059 C65.25,26.698155 65.55,25.0922509 65.8,23.4863469 C66.1,21.7298893 66.65,20.0738007 67.05,18.3173432 C67.3,17.0627306 67.85,15.8583026 67.65,14.5535055 C69.05,14.804428 70.35,15.2560886 71.8,15.3564576 C71.9,15.3564576 72,15.4568266 72.1,15.5571956 Z" id="Shape" fill="#F73D61"/>
          <path d="M67.1,31.0642066 C68.8,31.3151292 70.55,31.5660517 72.25,31.7667897 C75.1,32.1180812 78,32.3690037 80.9,31.9675277 C82.25,31.7667897 83.6,31.5158672 84.8,30.8634686 C85.15,31.1143911 85,31.3653137 84.95,31.6162362 C84.75,32.4693727 84.55,33.3225092 84.35,34.2258303 C84.3,34.2760148 84.2,34.4265683 84.1,34.4767528 C82.65,34.9785978 81.15,35.4804428 79.55,35.5306273 C75.3,35.7313653 71.1,35.4804428 66.95,34.4767528 C66.5,34.3763838 66,34.4767528 65.65,34.1254613 C65.9,34.0250923 66.2,34.1756458 66.45,33.8745387 C66.7,32.9712177 66.9,32.0177122 67.1,31.0642066 Z M75.25,33.4228782 C75.45,33.8745387 75.8,33.8243542 76.2,33.8243542 C78.15,33.8243542 80.05,33.8243542 82,33.8243542 C82.25,33.8243542 82.45,33.8243542 82.7,33.7741697 C82.95,33.6738007 83.2,33.5232472 83.05,33.1217712 C82.65,32.8708487 82.25,33.0214022 81.85,33.0214022 C79.95,33.0214022 78.1,33.0214022 76.2,33.0214022 C75.75,33.0214022 75.4,32.9712177 75.25,33.4228782 Z" id="Shape" fill="#D0E9EA"/>
          <path d="M24.6,33.2723247 C26.45,32.7202952 28.2,32.0177122 30,31.3653137 C32.2,30.5623616 34.35,29.6088561 36.35,28.404428 C37.95,27.4509225 39.45,26.397048 40.55,24.9416974 C40.65,24.7911439 40.8,24.6907749 41.05,24.6405904 C41.5,25.6944649 41.65,26.798524 42,27.902583 C41,29.1070111 39.85,30.2110701 38.55,31.0140221 C34.7,33.4228782 30.6,35.1291513 26.2,36.2833948 C26.1,36.2833948 26,36.2833948 25.95,36.2833948 C26.05,35.1793358 25.35,34.3261993 25.3,33.3225092 C25.05,33.3225092 24.85,33.2723247 24.6,33.2723247 Z M40.3,27.3505535 C40.2,27.3505535 40.1,27.3505535 40.05,27.400738 C38.75,28.103321 37.5,28.9062731 36.1,29.5084871 C35.25,29.8597786 34.45,30.4118081 33.6,30.9136531 C33.45,31.0140221 33.45,31.2649446 33.5,31.4154982 C33.6,31.6162362 33.75,31.6664207 33.95,31.6162362 C34.1,31.5660517 34.3,31.4656827 34.45,31.4154982 C36.1,30.7129151 37.7,29.8095941 39.3,29.0066421 C39.75,28.7557196 40.1,28.4546125 40.45,28.0531365 C40.7,27.701845 40.55,27.501107 40.3,27.3505535 Z" id="Shape" fill="#D0E9EA"/>
          <path d="M17.45,33.3225092 C16.5,33.6236162 16.25,33.6236162 15.1,33.4730627 C14.6,30.9136531 13.65,29.3579336 11.75,28.304059 C11.3,26.296679 10.8,24.1889299 10.3,22.0309963 C12.1,20.8767528 11.75,19.1202952 11.35,17.3638376 C12.05,16.9623616 12.8,16.9121771 13.5,16.9121771 C13.6,17.4642066 13.75,17.9660517 13.8,18.5180812 C14.1,20.8767528 14.8,23.1350554 15.3,25.4435424 C15.95,28.0531365 16.75,30.6627306 17.45,33.3225092 Z" id="Shape" fill="#DD002B"/>
          <path d="M69.9,10.8398524 C71.2,11.0907749 72.5,11.2915129 73.8,11.5424354 C77.7,12.2450185 81.6,12.5461255 85.55,12.495941 C86.85,12.4457565 88.05,12.0944649 89.3,11.7933579 C89.4,11.7431734 89.55,11.6428044 89.65,11.7933579 C89.8,11.8937269 89.75,12.0442804 89.75,12.1446494 C89.55,12.9476015 89.3,13.7505535 89.1,14.503321 C88.1,15.0051661 87.15,15.2059041 86.15,15.3062731 C81.9,15.7579336 77.75,15.2560886 73.6,14.5535055 C72.15,14.302583 70.7,14.101845 69.3,13.6501845 C69.45,12.7468635 69.95,11.8435424 69.9,10.8398524 Z M87.45,13.800738 C87.35,13.5498155 87.25,13.399262 87.05,13.399262 C86.45,13.3490775 85.85,13.2487085 85.3,13.399262 C84.65,13.6 84.05,13.6 83.4,13.6 C81.95,13.6 80.5,13.6 79,13.6 C78.75,13.6 78.55,13.6 78.5,13.9512915 C78.85,14.2523985 79.2,14.402952 79.7,14.402952 C81.8,14.402952 83.9,14.402952 86,14.402952 C86.6,14.4531365 87.05,14.202214 87.45,13.800738 Z" id="Shape" fill="#CFE8E9"/>
          <path d="M17.7,11.6428044 C19.1,11.1911439 20.5,10.7394834 21.9,10.2878229 C25.45,9.18376384 28.85,7.67822878 32.1,5.87158672 C33,5.3697417 33.8,4.81771218 34.55,4.11512915 C34.95,3.71365314 35.4,3.41254613 35.9,2.96088561 C36.15,4.01476015 36.35,4.91808118 36.55,5.82140221 C35.9,6.82509225 35.05,7.42730627 34.2,8.0295203 C32.4,9.28413284 30.45,10.1372694 28.5,11.0405904 C25.4,12.4457565 22.15,13.399262 18.9,14.3527675 C18.8,14.3527675 18.7,14.3527675 18.65,14.3527675 C18.55,13.4494465 18.3,12.59631 18,11.7431734 C17.85,11.7431734 17.75,11.6929889 17.7,11.6428044 Z M34.55,6.22287823 C34.55,6.02214022 34.3,5.82140221 34.1,5.87158672 C33.95,5.92177122 33.85,5.97195572 33.75,6.02214022 C32.8,6.57416974 31.9,7.17638376 30.9,7.67822878 C29.75,8.33062731 28.6,8.93284133 27.45,9.53505535 C27.25,9.63542435 27.05,9.78597786 26.9,9.93653137 C26.85,9.98671587 26.9,10.1874539 26.9,10.3380074 C26.9,10.3881919 27.05,10.4885609 27.1,10.4885609 C27.25,10.4885609 27.4,10.4885609 27.5,10.4383764 C29.3,9.63542435 31.05,8.78228782 32.75,7.77859779 C33.15,7.52767528 33.55,7.32693727 33.95,7.07601476 C34.25,6.92546125 34.55,6.67453875 34.55,6.22287823 Z" id="Shape" fill="#D0E8E9"/>
          <path d="M2.95,12.495941 C2.35,12.59631 1.8,12.5461255 1.4,12.0944649 C1.5,11.4420664 1.9,11.0907749 2.35,10.7394834 C2.95,10.2878229 3.55,9.88634686 4.15,9.48487085 C7.1,7.72841328 10.2,6.37343173 13.4,5.21918819 C17.4,3.76383764 21.45,2.6597786 25.6,1.85682657 C27.9,1.40516605 30.25,1.15424354 32.6,1.15424354 C33.45,1.15424354 34.3,1.25461255 35.1,1.70627306 C34.8,2.55940959 34.75,2.6597786 34.15,2.6095941 C33.55,2.6095941 32.95,2.55940959 32.35,2.55940959 C29.5,2.6597786 26.7,3.01107011 23.9,3.66346863 C20.55,4.41623616 17.2,5.26937269 13.95,6.42361624 C10.95,7.52767528 8.1,8.83247232 5.4,10.5387454 C4.5,11.0907749 3.65,11.7431734 2.95,12.495941 Z" id="Shape" fill="#AACECF"/>
          <path d="M56.3,4.66715867 C55.85,4.51660517 55.45,4.21549815 55.2,3.66346863 C55.4,3.06125461 56,2.96088561 56.5,2.86051661 C57.3,2.7099631 58.15,2.6095941 58.95,2.55940959 C61.95,2.45904059 64.9,2.6095941 67.9,2.96088561 C72.1,3.46273063 76.2,4.36605166 80.3,5.4701107 C82.6,6.12250923 84.8,6.97564576 87,7.97933579 C87.75,8.33062731 88.45,8.73210332 89.1,9.28413284 C89.4,9.53505535 89.7,9.73579336 89.8,10.1874539 C89.55,10.5889299 89.15,10.8398524 88.65,10.5387454 C84.9,8.2302583 80.7,6.97564576 76.45,5.92177122 C73.65,5.21918819 70.8,4.61697417 67.95,4.26568266 C64.7,3.86420664 61.45,3.76383764 58.2,4.16531365 C57.6,4.31586716 56.95,4.51660517 56.3,4.66715867 Z" id="Shape" fill="#AACECF"/>
          <path d="M44.75,39.2944649 C44.75,37.6383764 44.75,36.0826568 44.75,34.5269373 C44.75,30.3616236 44.75,26.2464945 44.75,22.0811808 C44.75,20.3247232 44.75,18.5682657 44.75,16.8118081 C44.75,16.3601476 44.65,15.8583026 45.1,15.5571956 C45.45,15.3062731 45.7,15.3062731 46.5,15.6575646 C46.75,15.9084871 46.75,16.2597786 46.75,16.5608856 C46.75,20.6760148 46.75,24.7409594 46.75,28.8560886 C46.75,31.8671587 46.7,34.8280443 46.7,37.8391144 C46.7,37.8892989 46.7,37.9394834 46.7,37.9896679 C46.65,39.4450185 46.5,39.595572 44.75,39.2944649 Z" id="Shape" fill="#CFE7E8"/>
          <path d="M6.3,17.8154982 C6.45,18.8191882 6.7,19.7225092 7.15,20.5756458 C7.75,21.6295203 7.8,21.6797048 9.05,22.0309963 C9.5,23.0848708 9.65,24.1889299 9.95,25.2929889 C10.1,25.895203 10.15,26.597786 10.35,27.1498155 C10.75,28.20369 10.5,29.0066421 9.65,29.7594096 C9.15,29.0568266 9.45,27.9527675 8.6,27.3505535 C8.25,27.701845 8.35,28.0531365 8.4,28.404428 C8.6,29.4583026 8.8,30.4619926 9.05,31.5158672 C9.15,32.0177122 9.2,32.5697417 9.3,33.0715867 C9.05,33.1217712 8.95,33.0715867 8.9,32.9210332 C8.7,32.0177122 8.45,31.1645756 8.3,30.2110701 C8.1,29.1070111 7.75,28.0531365 7.45,26.999262 C7.35,26.698155 7.2,26.397048 6.75,26.3468635 C6.55,27.4509225 7.05,28.404428 7.25,29.4081181 C7.45,30.4619926 7.7,31.4656827 7.95,32.5195572 C7.5,32.6701107 7.35,32.4693727 7.25,32.1180812 C6.7,29.8095941 6.1,27.4509225 5.55,25.1424354 C5.05,23.1350554 4.45,21.1778598 3.8,19.2206642 C3.6,18.6686347 3.3,18.1166052 3.45,17.5143911 C3.9,17.2634686 4.4,17.4140221 4.85,17.4642066 C5.25,17.6147601 5.7,17.7151292 6.3,17.8154982 Z" id="Shape" fill="#DC002B"/>
          <path d="M60.2,27.6516605 C59.4,27.400738 58.65,27.2 57.9,26.6479705 C58.75,24.5402214 58.75,22.4826568 57.45,20.4752768 C57.8,19.2206642 58.1,17.9158672 58.45,16.5608856 C59.45,16.5107011 60.15,15.9586716 60.7,15.2059041 C61,14.804428 61.1,14.302583 61.25,13.800738 C61.35,13.499631 61.3,13.1483395 61.7,12.8472325 C62.35,13.0479705 63.1,13.198524 63.8,13.5498155 C63.75,13.6 63.7,13.6 63.7,13.6501845 C63,15.2059041 62.6,16.8619926 62.2,18.4678967 C61.5,21.0774908 61.05,23.7874539 60.4,26.4472325 C60.35,26.8487085 60.2,27.2 60.2,27.6516605 Z" id="Shape" fill="#DD002B"/>
          <path d="M63.25,33.5232472 C63.15,33.5232472 63.05,33.5734317 63,33.5232472 C58.8,32.2686347 54.85,30.4118081 51.4,27.701845 C51.35,27.6516605 51.25,27.601476 51.2,27.5512915 C49.85,26.397048 49.85,26.3468635 50.35,24.5904059 C50.45,24.1889299 50.6,23.7874539 50.7,23.4361624 C51,23.2856089 51.15,23.4361624 51.35,23.5867159 C53.25,25.3933579 55.55,26.5476015 57.8,27.7520295 C59.4,28.6051661 61.15,29.2073801 62.9,29.7594096 C63.35,29.9099631 63.8,29.9601476 64.2,30.2110701 C63.6,31.0642066 63.35,32.0678967 63.1,33.0715867 C63,33.1719557 63.2,33.3726937 63.25,33.5232472 Z M56.5,29.9099631 C56.75,29.2073801 56.75,29.0568266 56.3,28.8560886 C54.85,28.103321 53.5,27.1498155 52.2,26.1461255 C52.05,26.0457565 51.9,25.9453875 51.75,25.895203 C51.6,25.8450185 51.5,25.8450185 51.4,25.995572 C51.3,26.095941 51.25,26.19631 51.3,26.3468635 C51.4,26.597786 51.6,26.798524 51.8,26.999262 C53.1,28.1535055 54.55,29.1070111 56.15,29.8597786 C56.25,29.9099631 56.4,29.9099631 56.5,29.9099631 Z" id="Shape" fill="#D0E8E9"/>
          <path d="M22.75,37.1867159 C22.3,37.5380074 21.8,37.4376384 21.3,37.4878229 C17.65,38.1904059 14,38.1904059 10.35,37.5881919 C9.5,37.4376384 8.65,37.2369004 7.9,36.8354244 C7.45,35.6811808 7.3,34.8280443 7.3,33.9247232 C7.4,33.7741697 7.55,33.8243542 7.65,33.8745387 C8.8,34.2258303 10,34.3763838 11.15,34.4265683 C13.5,34.5771218 15.85,34.6774908 18.15,34.3261993 C19.05,34.1756458 19.95,34.0250923 20.85,33.8745387 C21.25,33.8243542 21.65,33.7741697 22.05,33.7239852 C22.15,34.7778598 22.25,35.7815498 22.4,36.7852399 C22.5,36.9859779 22.65,37.0863469 22.75,37.1867159 Z M15.4,36.9859779 C15.45,36.5343173 15.25,36.2833948 14.8,36.2332103 C14.05,36.1830258 13.35,36.1830258 12.6,36.0826568 C11.65,35.9822878 10.7,35.8317343 9.75,35.7313653 C9.45,35.6811808 9.1,35.6309963 8.95,36.0324723 C9,36.4339483 9.3,36.5343173 9.6,36.6346863 C11.3,37.1867159 14.1,37.3874539 15.4,36.9859779 Z" id="Shape" fill="#D0E8E9"/>
          <path d="M17.45,15.9084871 C17.95,16.4103321 18.2,17.0125461 18.3,17.7151292 C18.4,18.5682657 18.55,19.4214022 18.85,20.2243542 C19.45,21.8302583 19.7,23.5867159 20.1,25.2428044 C20.5,26.7483395 20.95,28.20369 21.4,29.6590406 C21.7,30.5623616 22,31.4656827 22.1,32.4191882 C21.35,32.8206642 20.55,32.9712177 19.65,32.9712177 C19.45,31.3151292 18.8,29.7092251 18.35,28.103321 C17.5,24.7911439 16.7,21.5291513 16.25,18.1667897 C16.15,17.5645756 16.1,16.9121771 15.75,16.3601476 C15.9,16.1594096 16.1,16.0590406 16.35,16.0590406 C16.75,16.0590406 17.1,15.9586716 17.45,15.9084871 Z" id="Shape" fill="#DD002B"/>
          <path d="M15.8,16.3601476 C16.15,16.9121771 16.2,17.5645756 16.3,18.1667897 C16.8,21.5291513 17.55,24.8413284 18.4,28.103321 C18.8,29.7092251 19.45,31.3151292 19.7,32.9712177 C19,33.3225092 18.2,33.1719557 17.45,33.2723247 C16.75,30.6627306 15.95,28.0531365 15.35,25.3933579 C14.85,23.0848708 14.1,20.8265683 13.85,18.4678967 C13.8,17.9158672 13.65,17.4140221 13.55,16.8619926 C14.25,16.6110701 15,16.4103321 15.8,16.3601476 Z" id="Shape" fill="#F73C60"/>
          <path d="M66.55,13.0479705 C64.15,12.5461255 61.85,11.8937269 59.65,10.8900369 C58.3,10.2878229 57,9.63542435 55.75,8.88265683 C55.55,8.78228782 55.35,8.63173432 55.15,8.53136531 C54.3,8.0295203 53.95,7.32693727 54.3,6.32324723 C54.45,5.87158672 54.45,5.4199262 54.55,4.96826568 C54.65,4.96826568 54.75,4.96826568 54.8,5.01845018 C58.4,7.52767528 62.45,8.88265683 66.65,9.98671587 C66.9,10.0369004 67.2,10.0369004 67.4,10.2878229 C66.9,11.1409594 66.7,12.0442804 66.55,13.0479705 Z M60.15,9.83616236 C60.2,9.43468635 59.9,9.13357934 59.55,9.03321033 C58.35,8.58154982 57.25,7.97933579 56.15,7.27675277 C56,7.17638376 55.8,7.12619926 55.65,7.12619926 C55.55,7.12619926 55.4,7.22656827 55.35,7.32693727 C55.3,7.37712177 55.3,7.52767528 55.3,7.57785978 C55.35,7.67822878 55.4,7.82878229 55.5,7.92915129 C56.8,8.78228782 58.15,9.53505535 59.65,10.0369004 C59.85,10.0870849 60,9.98671587 60.15,9.83616236 Z" id="Shape" fill="#D3E9EA"/>
          <path d="M60.2,27.6516605 C60.2,27.2501845 60.3,26.8487085 60.4,26.4472325 C61,23.7874539 61.45,21.0774908 62.2,18.4678967 C62.65,16.8619926 63,15.2059041 63.7,13.6501845 C63.7,13.6 63.75,13.6 63.8,13.5498155 C64.55,13.700369 65.3,13.8509225 66,14.1520295 C65.75,15.3062731 65.4,16.4605166 65,17.5645756 C64.65,18.5180812 64.35,19.4715867 64.1,20.4250923 C63.5,22.8841328 62.95,25.3933579 62.45,27.8523985 C62.4,28.0531365 62.35,28.20369 62.2,28.304059 C61.45,28.2538745 60.85,27.902583 60.2,27.6516605 Z" id="Shape" fill="#F73C60"/>
          <path d="M62.15,28.3542435 C62.3,28.2538745 62.4,28.103321 62.4,27.902583 C62.9,25.3933579 63.45,22.9343173 64.05,20.4752768 C64.3,19.5217712 64.65,18.5682657 64.95,17.6147601 C65.35,16.5107011 65.7,15.3564576 65.95,14.202214 C66.55,14.0516605 67.05,14.503321 67.6,14.5535055 C67.85,15.8583026 67.3,17.0627306 67,18.3173432 C66.65,20.0236162 66.1,21.7298893 65.75,23.4863469 C65.45,25.0922509 65.15,26.698155 64.85,28.304059 C64.8,28.5549815 64.8,28.8560886 64.8,29.1070111 C63.95,28.9062731 63,28.7557196 62.15,28.3542435 Z" id="Shape" fill="#DD012B"/>
          <path d="M26.2,44.4132841 C26.1,44.8649446 26,45.3667897 25.9,45.8184502 C25.75,46.4206642 25.55,46.9726937 25.5,47.5749077 C25.45,48.2774908 25.1,48.7291513 24.6,49.1808118 C23.7,49.9837638 22.8,50.7365314 22,51.5896679 C20.25,53.295941 18.9,55.303321 17.5,57.3107011 C17.4,57.4612546 17.3,57.7121771 17,57.7623616 C17.5,55.4538745 18.1,53.195572 19.45,51.2383764 C20.4,49.8332103 21.4,48.3778598 22.7,47.2236162 C23.5,46.5210332 24.2,45.7682657 24.95,45.0154982 C25.15,44.8147601 25.4,44.7143911 25.6,44.5136531 C25.75,44.4634686 25.9,44.3630996 26.2,44.4132841 Z" id="Shape" fill="#DB002B"/>
          <path d="M73.55,57.8627306 C73.15,57.2605166 72.7,56.6583026 72.3,56.0560886 C71.2,54.4501845 70,52.9446494 68.65,51.5896679 C67.85,50.7867159 67,50.0339483 66.15,49.2811808 C65.6,48.8295203 65.25,48.3276753 65.15,47.5749077 C65,46.5712177 64.7,45.5675277 64.4,44.4132841 C64.95,44.4634686 65.25,44.6642066 65.55,44.9151292 C67.25,46.5210332 69,48.0767528 70.3,50.0339483 C70.7,50.5859779 71.1,51.1380074 71.5,51.6900369 C72.65,53.5468635 73.1,55.6546125 73.55,57.8627306 Z" id="Shape" fill="#DB002B"/>
          <path d="M57.4,16.0088561 C57.15,17.0125461 56.85,18.0162362 56.65,18.9697417 C56.5,19.8228782 56.2,20.4250923 55.3,20.6258303 C55.15,20.6760148 55,20.8265683 54.8,20.9269373 C54.7,20.0236162 55.45,19.2206642 55.1,18.3173432 C54.7,18.2169742 54.55,18.5180812 54.45,18.7690037 C54.15,19.8228782 53.85,20.8767528 53.5,21.9306273 C53.35,22.4324723 53.25,22.9845018 52.9,23.4361624 C52.6,23.2856089 52.7,23.0346863 52.75,22.8339483 C53.1,21.4789668 53.5,20.0738007 53.8,18.7188192 C53.85,18.4177122 54.05,18.2169742 54.2,18.0162362 C55.2,16.7114391 55.15,15.8081181 54.05,14.60369 C53.9,14.4531365 53.7,14.302583 53.45,14.101845 C53.4,12.5461255 53.95,11.0405904 54.15,9.48487085 C54.5,9.33431734 54.7,9.38450185 54.9,9.53505535 C55.5,9.93653137 56.1,10.3380074 56.75,10.7896679 C56.65,11.7431734 56.3,12.6464945 56.3,13.6501845 C56.35,14.6538745 56.45,15.5070111 57.4,16.0088561 Z" id="Shape" fill="#DA012B"/>
          <path d="M82.65,21.6295203 C84.6,21.1276753 85.15,19.6221402 85.6,18.0664207 C85.75,17.5645756 85.7,17.0627306 86,16.5608856 C86.5,16.4605166 87,16.4103321 87.65,16.2597786 C87.6,17.8656827 86.9,19.3210332 86.6,20.7763838 C86.25,22.3321033 85.95,23.9380074 85.5,25.4435424 C85.1,26.898893 84.95,28.504797 84.25,29.9099631 C83.95,29.7594096 84,29.5586716 84.05,29.4081181 C84.45,27.701845 84.85,25.995572 85.25,24.3394834 C85.35,24.0383764 85.4,23.6870849 85,23.4361624 C84.55,23.4361624 84.35,23.6870849 84.25,24.1889299 C83.9,25.895203 83.5,27.601476 83.1,29.3077491 C83,29.7092251 82.85,30.0605166 82.7,30.4619926 C82.55,29.9099631 82.65,29.4081181 82.75,28.8560886 C83.05,27.4509225 83.4,25.995572 83.45,24.5402214 C83.45,24.2892989 83.5,23.9881919 83.3,23.7372694 C83.1,23.6870849 82.95,23.7372694 82.85,23.9380074 C82.7,24.2391144 82.6,24.5402214 82.6,24.8413284 C82.6,25.2929889 82.5,25.7446494 82.2,26.095941 C81.85,25.9453875 81.8,25.6944649 81.85,25.3933579 C82.1,24.1387454 82.4,22.9343173 82.65,21.6295203 Z" id="Shape" fill="#D7022B"/>
          <path d="M37.35,21.3785978 C36.95,20.5756458 36.9,19.6221402 36.15,18.9697417 C35.85,19.1202952 35.65,19.3210332 35.8,19.6723247 C36,20.2243542 36.15,20.8265683 36.35,21.3785978 C36.4,21.5291513 36.45,21.6295203 36.35,21.8302583 C36,21.8302583 35.8,21.5793358 35.7,21.2782288 C35.5,20.7261993 35.25,20.1741697 35.15,19.5719557 C34.95,18.1166052 34.4,16.7616236 34.1,15.3062731 C34.15,15.0051661 34.4,14.8546125 34.55,14.6538745 C35.15,14.0516605 35.3,13.2487085 35.25,12.495941 C35.15,11.4420664 35.1,10.3881919 34.55,9.43468635 C34.55,9.38450185 34.55,9.33431734 34.55,9.18376384 C34.95,8.88265683 35.4,8.48118081 35.8,8.1298893 C35.9,8.1298893 35.95,8.1298893 36,8.1800738 C36.05,8.1800738 36.05,8.2302583 36.1,8.2804428 C36.3,8.98302583 36.5,9.68560886 36.65,10.3881919 C36.9,11.7431734 37.25,13.0479705 37.55,14.302583 C37.45,14.503321 37.4,14.60369 37.25,14.6538745 C35.95,15.2059041 35.6,15.9586716 35.9,17.2634686 C35.95,17.5645756 36.1,17.8154982 36.3,17.9660517 C37.25,18.6686347 37.45,19.6723247 37.6,20.7261993 C37.6,20.9771218 37.65,21.2782288 37.35,21.3785978 Z" id="Shape" fill="#D9012B"/>
          <path d="M12.3,15.8583026 C11.55,16.2597786 10.7,16.3099631 9.9,16.3601476 C7.95,16.5107011 6,16.7114391 4,16.4605166 C3.65,16.4103321 3.25,16.3601476 2.9,16.3099631 C2.5,16.2095941 2.25,15.9586716 2.1,15.6073801 C1.85,14.904797 1.6,14.2523985 1.45,13.4494465 C1.95,13.499631 2.3,13.5498155 2.7,13.6 C3.1,13.6501845 3.5,13.6501845 3.95,13.700369 C4.35,13.700369 4.75,13.700369 5.2,13.6501845 C5.6,13.6501845 6,13.6 6.45,13.6 C7.25,13.6 8,13.5498155 8.75,13.399262 C9.25,13.298893 9.75,13.3490775 10.25,13.298893 C10.35,13.6 10.55,13.8509225 10.55,14.202214 C10.5,14.804428 10.8,15.3062731 11,15.8081181 C11.5,15.8081181 11.9,15.8583026 12.3,15.8583026 Z M8.7,15.5571956 C8.55,14.8546125 8.15,14.7542435 7.75,14.804428 C6.55,15.0051661 5.4,14.9549815 4.2,14.904797 C4,14.904797 3.85,14.904797 3.65,14.9549815 C3.45,15.0051661 3.3,15.1055351 3.3,15.3062731 C3.3,15.5070111 3.45,15.6073801 3.6,15.7077491 C3.7,15.7579336 3.75,15.7579336 3.85,15.7579336 C5.2,15.8583026 6.6,15.8583026 7.95,15.7077491 C8.2,15.7077491 8.4,15.6575646 8.7,15.5571956 Z" id="Shape" fill="#CCE4E5"/>
          <path d="M43.55,17.4642066 C42.5,17.6147601 41.55,17.5143911 40.65,17.5143911 C39.85,17.5143911 39,17.5143911 38.2,17.5143911 C37.75,17.5143911 37.3,17.5143911 36.9,17.0627306 C36.75,16.6612546 36.9,16.2597786 37.1,15.8583026 C38.3,15.5070111 42.2,15.4066421 43.7,15.7077491 C43.8,16.2597786 43.55,16.8118081 43.55,17.4642066 Z" id="Shape" fill="#CDE5E6"/>
          <path d="M63.25,33.5232472 C63.15,33.3726937 63,33.1719557 63.05,33.0214022 C63.3,32.0177122 63.5,31.0140221 64.15,30.1608856 C65.2,30.3616236 66.2,30.6125461 67.15,31.0140221 C66.95,31.9675277 66.75,32.9210332 66.55,33.8243542 C66.3,34.1254613 66,33.9749077 65.75,34.0752768 C64.85,34.0752768 64.05,33.8745387 63.25,33.5232472 Z" id="Shape" fill="#F1FDFD"/>
          <path d="M22.75,37.1867159 C22.65,37.0863469 22.5,36.9859779 22.5,36.8856089 C22.35,35.8819188 22.25,34.8280443 22.15,33.8243542 C22.95,33.5232472 23.75,33.3726937 24.6,33.2723247 C24.8,33.3225092 25.05,33.3225092 25.35,33.3726937 C25.4,34.3763838 26.1,35.2797048 26,36.3335793 C24.95,36.7852399 23.85,37.0361624 22.75,37.1867159 Z" id="Shape" fill="#F1FDFD"/>
          <path d="M53.7,17.4642066 C53.4,17.5143911 53.2,17.5143911 52.95,17.5143911 C51.3,17.4642066 49.7,17.4642066 48,17.4140221 C47.8,16.8619926 47.75,16.2597786 47.9,15.7077491 C48.35,15.4568266 48.75,15.5070111 49.15,15.5070111 C50.7,15.6073801 52.25,15.1557196 53.75,15.5571956 C54.15,16.4103321 54.15,16.4103321 53.7,17.4642066 Z" id="Shape" fill="#CCE5E5"/>
          <path d="M34.65,28.002952 C34.3,27.0494465 34.2,26.095941 34.25,25.0922509 C34.3,24.3394834 34.55,23.6369004 35.1,23.1350554 C35.5,22.7335793 35.95,22.7837638 36.3,23.2354244 C37,24.1387454 37.5,25.1926199 37.4,26.4472325 C36.55,26.999262 35.65,27.601476 34.65,28.002952 Z" id="Shape" fill="#CEE6E7"/>
          <path d="M77.8,30.9638376 C78.05,29.6088561 78.4,28.504797 79.25,27.601476 C79.65,27.1498155 80.15,26.798524 80.75,26.798524 C81.1,26.798524 81.4,26.9490775 81.45,27.300369 C81.65,28.504797 81.65,29.6590406 81,30.7630996 C79.95,30.8634686 78.95,31.0140221 77.8,30.9638376 Z" id="Shape" fill="#CEE7E8"/>
          <path d="M13.9,33.5232472 C12.75,33.5232472 11.75,33.5232472 10.75,33.5232472 C10.6,32.6701107 10.55,31.9173432 10.6,31.1645756 C10.6,30.7630996 10.75,30.3616236 11,30.0103321 C11.3,29.5586716 11.8,29.4583026 12.15,29.8095941 C12.4,30.0605166 12.6,30.3616236 12.85,30.6627306 C13.4,31.5158672 13.75,32.4191882 13.9,33.5232472 Z" id="Shape" fill="#CCE5E6"/>
          <path d="M54.1,24.5402214 C54.35,23.9380074 54.55,23.3859779 54.8,22.8841328 C55.05,22.3321033 55.4,21.8804428 55.95,21.5793358 C56.45,21.3284133 56.85,21.4287823 57.05,21.9306273 C57.3,22.4826568 57.3,23.0848708 57.3,23.6870849 C57.25,24.4900369 57.4,25.3431734 56.8,26.095941 C55.85,25.6944649 55,25.1926199 54.1,24.5402214 Z" id="Shape" fill="#CCE5E6"/>
          <path d="M81.7,16.6612546 C82.7,16.6110701 83.6,16.6612546 84.6,16.6612546 C84.55,17.8154982 84.4,18.8191882 83.7,19.7225092 C82.95,20.6760148 82.2,20.5756458 81.75,19.4715867 C81.65,19.2206642 81.55,18.9195572 81.55,18.6686347 C81.55,18.0162362 81.5,17.3638376 81.7,16.6612546 Z" id="Shape" fill="#CDE6E7"/>
          <path d="M10.05,17.4642066 C10.5,18.2169742 10.55,18.9697417 10.55,19.7726937 C10.55,20.4250923 10.3,20.7261993 9.75,20.9269373 C9.05,21.1276753 8.55,20.9771218 8.2,20.4250923 C7.65,19.6221402 7.45,18.6686347 7.2,17.6649446 C8.2,17.4140221 9.15,17.5143911 10.05,17.4642066 Z" id="Shape" fill="#CDE6E7"/>
          <path d="M30.85,11.1911439 C31.75,10.7394834 32.55,10.2878229 33.4,9.88634686 C34,10.4383764 34,11.2413284 34.15,11.8937269 C34.3,12.495941 34.15,13.098155 33.9,13.6501845 C33.7,14.101845 33.2,14.202214 32.75,14.001476 C32.3,13.7505535 31.9,13.4494465 31.7,12.997786 C31.4,12.4457565 31.15,11.8937269 30.85,11.1911439 Z" id="Shape" fill="#CCE5E6"/>
          <path d="M57.85,11.2413284 C58.75,11.6428044 59.55,11.9940959 60.35,12.395572 C60.45,13.2487085 60.1,14.001476 59.75,14.704059 C59.45,15.3062731 58.95,15.4568266 58.4,15.3062731 C57.8,15.1557196 57.45,14.7542435 57.4,14.1520295 C57.35,13.1483395 57.45,12.2450185 57.85,11.2413284 Z" id="Shape" fill="#CEE6E7"/>
          <path d="M17.7,11.6428044 C17.75,11.6929889 17.9,11.7431734 17.9,11.7933579 C18.2,12.6464945 18.5,13.499631 18.55,14.402952 C17.75,14.7542435 16.95,14.904797 16.1,15.0051661 C15.9,14.9549815 15.55,14.9549815 15.55,14.704059 C15.55,13.8509225 15.1,13.098155 15.25,12.2450185 C16.05,11.9439114 16.85,11.7431734 17.7,11.6428044 Z" id="Shape" fill="#F0FBFB"/>
          <path d="M66.55,13.0479705 C66.65,12.0944649 66.9,11.1409594 67.4,10.2878229 C68.25,10.3380074 69.05,10.5889299 69.85,10.8900369 C69.9,11.8937269 69.45,12.7468635 69.3,13.700369 C68.35,13.6501845 67.45,13.298893 66.55,13.0479705 Z" id="Shape" fill="#F2FDFD"/>
          <path d="M15.25,12.2450185 C15.1,13.098155 15.55,13.901107 15.55,14.704059 C15.55,14.9549815 15.9,14.9549815 16.1,15.0051661 C14.9,15.4066421 13.75,15.7077491 12.5,15.8081181 C12.6,15.4568266 13,15.6073801 13.15,15.3564576 C12.9,14.60369 13.25,13.700369 12.55,13.098155 C12.35,13.0479705 12.1,13.0479705 11.9,12.997786 C13,12.696679 14.1,12.395572 15.25,12.2450185 Z" id="Shape" fill="#CDE5E6"/>
          <path d="M11.9,13.0479705 C12.15,13.098155 12.35,13.098155 12.55,13.1483395 C13.3,13.800738 12.9,14.704059 13.15,15.4066421 C12.95,15.6073801 12.55,15.5070111 12.5,15.8583026 L12.4,15.9084871 L12.3,15.8583026 C11.9,15.8081181 11.5,15.8081181 11.05,15.7579336 C10.85,15.2560886 10.55,14.7542435 10.6,14.1520295 C10.65,13.800738 10.4,13.5498155 10.3,13.2487085 C10.8,13.0479705 11.35,13.0479705 11.9,13.0479705 Z" id="Shape" fill="#F2FEFE"/>
          <path d="M39.65,24.4900369 C38.95,22.5328413 38.65,20.7763838 38.2,19.0199262 C38.15,18.9195572 38.25,18.7690037 38.3,18.6686347 C38.55,18.6184502 38.65,18.7188192 38.75,18.9195572 C38.85,19.1202952 38.9,19.3210332 38.95,19.5719557 C39.25,20.7261993 39.5,21.8804428 39.75,23.0346863 C39.85,23.4361624 39.95,23.8376384 39.65,24.4900369 Z" id="Shape" fill="#A80B28"/>
          <path d="M51.85,22.6332103 C51.55,22.4826568 51.45,22.2317343 51.5,22.0309963 C51.75,21.0273063 52,20.0236162 52.3,19.0199262 C52.35,18.9195572 52.45,18.8191882 52.55,18.7188192 C52.6,18.6686347 52.75,18.6686347 52.8,18.6686347 C52.85,18.6686347 52.95,18.7690037 53,18.8693727 C53.05,18.9697417 53.05,19.0701107 53,19.1202952 C52.7,20.2243542 52.4,21.3284133 52.1,22.3822878 C52.1,22.4826568 52,22.5328413 51.85,22.6332103 Z" id="Shape" fill="#B00C2A"/>
          <path d="M37.35,21.3785978 C37.65,21.2782288 37.6,20.9771218 37.65,20.7763838 C38.25,22.2317343 38.6,23.7874539 38.9,25.3431734 C38.9,25.3933579 38.85,25.3933579 38.8,25.4435424 C38.3,25.0420664 37.95,23.9881919 37.35,21.3785978 Z" id="Shape" fill="#9D0F29"/>
          <path d="M74.85,74.3232472 C74.8,90.9845018 61.5,103.932103 45.5,104.082657 C36.9,104.132841 29.55,100.971218 23.65,94.698155 C18.35,89.0273063 15.6,82.202214 15.6,74.4738007 C15.55,57.4612546 29.55,44.2125461 46.05,44.6642066 C62.35,45.0656827 74.85,58.4649446 74.85,74.3232472 Z M45.45,45.9690037 C43.8,45.9188192 42.45,46.0693727 41.05,46.2701107 C38.85,46.5210332 36.75,47.1232472 34.7,47.9261993 C33,48.5785978 31.4,49.4819188 29.85,50.4856089 C28.1,51.6900369 26.45,52.9446494 24.95,54.4501845 C23.75,55.6546125 22.7,57.0095941 21.75,58.3645756 C20.85,59.6191882 20.2,61.0745387 19.5,62.4797048 C18.85,63.8346863 18.3,65.2900369 17.95,66.7453875 C17.5,68.501845 17.2,70.2583026 17.05,72.0649446 C16.9,73.9217712 16.9,75.7284133 17.1,77.5852399 C17.3,79.2915129 17.65,80.9476015 18.1,82.5535055 C18.45,83.6575646 18.8,84.7114391 19.25,85.7653137 C20.3,88.1239852 21.6,90.3321033 23.25,92.3394834 C24.35,93.6442804 25.5,94.898893 26.8,96.002952 C28.75,97.6088561 30.85,98.9638376 33.15,100.067897 C36.35,101.573432 39.7,102.426568 43.2,102.677491 C46.8,102.928413 50.35,102.526937 53.75,101.372694 C56.15,100.569742 58.45,99.6162362 60.55,98.1608856 C62.8,96.6051661 64.85,94.9490775 66.65,92.8413284 C68.05,91.1350554 69.3,89.3284133 70.3,87.3712177 C71.85,84.4103321 72.8,81.2487085 73.2,77.9365314 C73.65,74.1726937 73.4,70.4590406 72.45,66.8457565 C71.85,64.3867159 70.85,62.0280443 69.5,59.9202952 C68.1,57.7121771 66.55,55.6546125 64.6,53.8479705 C62.2,51.6398524 59.6,49.8332103 56.65,48.5284133 C54.8,47.7254613 52.9,47.0730627 50.9,46.6214022 C49.1,46.1195572 47.15,45.8686347 45.45,45.9690037 Z" id="Shape" fill="#010101"/>
          <path d="M75.25,33.4228782 C75.4,32.9712177 75.8,32.9712177 76.15,32.9712177 C78.05,32.9712177 79.9,32.9712177 81.8,32.9712177 C82.2,32.9712177 82.65,32.8708487 83,33.0715867 C83.15,33.4228782 82.9,33.6236162 82.65,33.7239852 C82.45,33.8243542 82.2,33.7741697 81.95,33.7741697 C80,33.7741697 78.1,33.7741697 76.15,33.7741697 C75.8,33.8243542 75.4,33.8745387 75.25,33.4228782 Z" id="Shape" fill="#FDFEFE"/>
          <path d="M40.3,27.3505535 C40.6,27.501107 40.7,27.7520295 40.5,28.002952 C40.2,28.404428 39.8,28.7055351 39.35,28.9564576 C37.75,29.7594096 36.15,30.6627306 34.5,31.3653137 C34.35,31.4154982 34.15,31.5158672 34,31.5660517 C33.8,31.6162362 33.65,31.5660517 33.55,31.3653137 C33.5,31.2147601 33.45,30.9638376 33.65,30.8634686 C34.45,30.3616236 35.25,29.8095941 36.15,29.4583026 C37.55,28.8560886 38.8,28.0531365 40.1,27.3505535 C40.1,27.3505535 40.2,27.3505535 40.3,27.3505535 Z" id="Shape" fill="#FCFDFD"/>
          <path d="M87.45,13.800738 C87.1,14.202214 86.6,14.4531365 86.05,14.4531365 C83.95,14.4531365 81.85,14.4531365 79.75,14.4531365 C79.25,14.4531365 78.9,14.302583 78.55,14.001476 C78.6,13.6501845 78.8,13.6501845 79.05,13.6501845 C80.5,13.6501845 81.95,13.6501845 83.45,13.6501845 C84.1,13.6501845 84.7,13.6501845 85.35,13.4494465 C85.9,13.298893 86.5,13.399262 87.1,13.4494465 C87.2,13.399262 87.35,13.5498155 87.45,13.800738 Z" id="Shape" fill="#FCFEFD"/>
          <path d="M34.55,6.22287823 C34.55,6.67453875 34.25,6.92546125 33.95,7.12619926 C33.6,7.37712177 33.15,7.57785978 32.75,7.82878229 C31.1,8.88265683 29.3,9.68560886 27.5,10.4885609 C27.4,10.5387454 27.25,10.5387454 27.1,10.5387454 C27,10.5387454 26.9,10.4383764 26.9,10.3881919 C26.85,10.2878229 26.8,10.0870849 26.9,9.98671587 C27.05,9.83616236 27.25,9.68560886 27.45,9.58523985 C28.6,8.93284133 29.75,8.33062731 30.9,7.72841328 C31.85,7.17638376 32.8,6.62435424 33.75,6.07232472 C33.85,6.02214022 34,5.97195572 34.1,5.92177122 C34.3,5.82140221 34.6,6.07232472 34.55,6.22287823 Z" id="Shape" fill="#FCFDFD"/>
          <path d="M56.5,29.9099631 C56.35,29.9099631 56.25,29.9099631 56.1,29.8597786 C54.5,29.1070111 53.1,28.1535055 51.75,26.999262 C51.55,26.798524 51.35,26.6479705 51.25,26.3468635 C51.2,26.19631 51.25,26.095941 51.35,25.995572 C51.45,25.895203 51.6,25.8450185 51.7,25.895203 C51.85,25.995572 52.05,26.0457565 52.15,26.1461255 C53.45,27.1498155 54.8,28.103321 56.25,28.8560886 C56.75,29.1070111 56.75,29.2073801 56.5,29.9099631 Z" id="Shape" fill="#0C0D0D"/>
          <path d="M15.4,36.9859779 C14.1,37.3372694 11.3,37.1867159 9.6,36.6346863 C9.3,36.5343173 8.95,36.4841328 8.95,36.0324723 C9.1,35.6309963 9.45,35.7313653 9.75,35.7313653 C10.7,35.8317343 11.65,35.9822878 12.6,36.0826568 C13.3,36.1328413 14.05,36.1830258 14.8,36.2332103 C15.25,36.2833948 15.45,36.5845018 15.4,36.9859779 Z" id="Shape" fill="#0D0E0E"/>
          <path d="M60.15,9.83616236 C60,9.98671587 59.85,10.0870849 59.65,10.0369004 C58.15,9.53505535 56.8,8.78228782 55.5,7.92915129 C55.4,7.87896679 55.35,7.72841328 55.3,7.57785978 C55.25,7.52767528 55.3,7.37712177 55.35,7.32693727 C55.45,7.22656827 55.55,7.12619926 55.65,7.12619926 C55.8,7.12619926 56,7.17638376 56.15,7.27675277 C57.25,7.92915129 58.35,8.58154982 59.55,9.03321033 C59.9,9.13357934 60.2,9.43468635 60.15,9.83616236 Z" id="Shape" fill="#101111"/>
          <path d="M8.7,15.5571956 C8.4,15.6575646 8.2,15.7579336 8,15.7579336 C6.65,15.9084871 5.25,15.9084871 3.9,15.8081181 C3.8,15.8081181 3.7,15.7579336 3.65,15.7579336 C3.5,15.6575646 3.35,15.5571956 3.35,15.3564576 C3.35,15.1557196 3.5,15.0051661 3.7,15.0051661 C3.9,14.9549815 4.05,14.9549815 4.25,14.9549815 C5.45,15.0051661 6.65,15.0553506 7.8,14.8546125 C8.15,14.7542435 8.55,14.8546125 8.7,15.5571956 Z" id="Shape" fill="#111212"/>
          <path d="M45.45,45.9690037 C47.15,45.8686347 49.15,46.0693727 51.05,46.5210332 C53,46.9225092 54.95,47.5749077 56.8,48.4280443 C59.75,49.7328413 62.35,51.5394834 64.75,53.7476015 C66.7,55.5542435 68.25,57.6118081 69.65,59.8199262 C71,61.9778598 72,64.3365314 72.6,66.7453875 C73.5,70.3586716 73.8,74.0723247 73.35,77.8361624 C72.95,81.1483395 71.95,84.3099631 70.45,87.2708487 C69.45,89.2280443 68.25,91.0346863 66.8,92.7409594 C65.05,94.8487085 62.95,96.5549815 60.7,98.0605166 C58.6,99.5158672 56.3,100.469373 53.9,101.272325 C50.45,102.426568 46.9,102.828044 43.35,102.577122 C39.85,102.326199 36.5,101.473063 33.3,99.9675277 C31,98.8634686 28.9,97.5084871 26.95,95.902583 C25.65,94.8487085 24.5,93.5439114 23.4,92.2391144 C21.75,90.2317343 20.45,88.0236162 19.4,85.6649446 C18.95,84.6110701 18.55,83.5571956 18.25,82.4531365 C17.75,80.797048 17.45,79.1409594 17.25,77.4848708 C17.05,75.6280443 17.05,73.8214022 17.2,71.9645756 C17.35,70.1579336 17.7,68.401476 18.1,66.6450185 C18.45,65.1394834 19,63.7343173 19.65,62.3793358 C20.35,60.9741697 21,59.5690037 21.9,58.2642066 C22.85,56.9092251 23.9,55.5542435 25.1,54.3498155 C26.6,52.8442804 28.25,51.5394834 30,50.3852399 C31.5,49.3313653 33.15,48.4782288 34.85,47.8258303 C36.9,47.0730627 39,46.4206642 41.2,46.1697417 C42.4,46.1195572 43.8,45.9188192 45.45,45.9690037 Z" id="Shape" fill="#F4E6D0"/>
        </g>
        <g id="Group" transform="translate(42.000000, 77.730627)">
          <path d="M13.25,22.4324723 C12.05,22.4826568 10.8,22.1815498 9.55,21.8302583 C8.7,21.5793358 8,21.0273063 7.45,20.3247232 C6.8,19.5217712 6.35,18.5682657 5.95,17.6147601 C5.5,16.4605166 6.35,15.5571956 7.45,15.8081181 C8.15,15.9586716 8.85,15.9586716 9.6,15.9586716 C10.7,15.9586716 11.85,15.9586716 12.95,16.0088561 C15.1,16.0590406 17.15,15.9084871 19.25,15.3564576 C19.7,15.2560886 20.1,15.2059041 20.55,15.2560886 C21.2,15.3564576 21.65,15.8081181 21.7,16.4605166 C21.8,17.0125461 21.65,17.5143911 21.5,17.9660517 C20.9,19.4715867 19.9,20.6258303 18.4,21.2782288 C17.8,21.5291513 17.2,21.7298893 16.6,21.9808118 C15.55,22.3822878 14.45,22.5328413 13.25,22.4324723 Z M20.55,16.5107011 C20.15,16.2597786 19.75,16.5107011 19.4,16.4605166 C19.1,16.4103321 18.75,16.5107011 18.45,16.5608856 C17.25,16.8619926 16,17.0125461 14.8,17.0627306 C12.7,17.1630996 10.6,17.1630996 8.45,17.0125461 C8.05,16.9623616 7.7,16.7616236 7.3,16.8619926 C7.2,16.9121771 7.1,16.9623616 7,17.0627306 C7.1,17.3638376 7.2,17.6649446 7.25,18.0162362 C7.65,18.2169742 8.05,18.4177122 8.45,18.5682657 C8.85,18.7188192 9.3,18.8191882 9.75,18.8693727 C11.4,19.0701107 13,19.0701107 14.65,19.0199262 C16,18.9697417 17.35,18.6686347 18.65,18.3173432 C19.15,18.1667897 19.6,17.9158672 20.05,17.6649446 C20.5,17.4140221 20.7,17.0125461 20.55,16.5107011 Z" id="Shape" fill="#010101"/>
          <path d="M12.6,11.7933579 C13.2,12.0442804 13.75,12.0442804 14.25,12.0944649 C14.7,12.1446494 15.15,12.2450185 15.6,12.495941 C15.1,13.0479705 14.45,13.298893 13.55,13.2487085 C12.65,13.198524 11.75,13.1483395 11.25,12.0944649 C11.2,11.8937269 11.35,11.6428044 11.5,11.3918819 C12.4,9.58523985 12.85,7.62804428 13,5.62066421 C13,5.26937269 13.05,4.96826568 13.45,4.86789668 C13.75,4.81771218 13.95,5.16900369 13.95,5.67084871 C13.9,7.57785978 13.7,9.48487085 12.8,11.2915129 C12.7,11.3918819 12.65,11.5424354 12.6,11.7933579 Z" id="Shape" fill="#080808"/>
          <path d="M18.7,2.91070111 C18.35,2.86051661 18.2,2.8103321 18.1,2.6597786 C18,2.40885609 18.1,2.20811808 18.25,2.00738007 C18.6,1.55571956 19.05,1.25461255 19.6,1.00369004 C21.65,0.200738007 23.7,0.150553506 25.8,0.80295203 C26.35,1.00369004 26.9,1.30479705 27.35,1.70627306 C27.65,2.00738007 27.85,2.30848708 27.95,2.7099631 C28,2.96088561 28.05,3.16162362 27.8,3.46273063 C27.3,3.26199262 27.05,2.7099631 26.6,2.40885609 C26.1,2.05756458 25.55,1.80664207 25,1.60590406 C24.45,1.40516605 23.9,1.40516605 23.35,1.35498155 C22.8,1.25461255 22.25,1.40516605 21.7,1.45535055 C21.1,1.45535055 20.55,1.70627306 20,1.95719557 C19.5,2.15793358 18.95,2.35867159 18.7,2.91070111 Z" id="Shape" fill="#0B0B0B"/>
          <path d="M0.25,4.11512915 C-0.05,3.86420664 5.41615364e-14,3.61328413 0.15,3.41254613 C0.4,3.01107011 0.75,2.6597786 1.15,2.35867159 C2.85,1.20442804 4.65,0.652398524 6.7,1.00369004 C7.75,1.20442804 8.65,1.70627306 9.2,2.7099631 C9.25,2.7601476 9.2,2.86051661 9.2,2.91070111 C9.2,2.96088561 9.15,2.96088561 9.15,3.01107011 C8.95,3.16162362 8.85,3.01107011 8.75,2.91070111 C7.6,2.15793358 6.4,1.75645756 5.05,1.90701107 C3.95,2.00738007 2.9,2.30848708 1.95,3.01107011 C1.4,3.46273063 0.95,3.96457565 0.25,4.11512915 Z" id="Shape" fill="#090909"/>
          <path d="M14.25,24.6405904 C13.4,24.7409594 12.6,24.6405904 11.8,24.5904059 C11.45,24.5402214 11.2,24.4398524 10.95,24.1889299 C10.8,24.0383764 10.9,23.6369004 11.1,23.5867159 C11.25,23.5365314 11.4,23.5365314 11.55,23.5365314 C13.15,23.5867159 14.7,23.6369004 16.3,23.3357934 C16.95,23.1852399 17.45,23.4361624 17.4,23.7372694 C17.3,24.2391144 16.85,24.2892989 16.5,24.3896679 C15.8,24.6907749 15,24.5904059 14.25,24.6405904 Z" id="Shape" fill="#090909"/>
          <path d="M3.8,6.97564576 C3.85,5.77121771 4.75,5.4199262 5.6,5.87158672 C5.8,5.97195572 6,6.12250923 6.2,6.27306273 C6.75,6.67453875 6.8,7.02583026 6.5,7.62804428 C6.15,8.33062731 5.6,8.63173432 4.95,8.48118081 C4.3,8.2804428 3.85,7.72841328 3.8,6.97564576 Z" id="Shape" fill="#060606"/>
          <path d="M22.7,7.92915129 C22,7.92915129 21.4,7.42730627 21.35,6.82509225 C21.3,6.12250923 22.05,5.3697417 22.8,5.3697417 C23.55,5.3697417 24.15,5.97195572 24.1,6.62435424 C24.1,7.42730627 23.5,7.92915129 22.7,7.92915129 Z" id="Shape" fill="#0B0B0B"/>
          <path d="M20.55,16.5107011 C20.7,17.0627306 20.45,17.4642066 20,17.7151292 C19.55,17.9660517 19.1,18.2169742 18.6,18.3675277 C17.3,18.7188192 15.95,19.0199262 14.6,19.0701107 C12.95,19.1202952 11.35,19.1202952 9.7,18.9195572 C9.25,18.8693727 8.85,18.7690037 8.4,18.6184502 C8,18.4678967 7.6,18.2671587 7.2,18.0664207 C7.1,17.7151292 7,17.4140221 6.95,17.1129151 C7.05,17.0125461 7.15,16.9121771 7.25,16.9121771 C7.65,16.8118081 8.05,17.0125461 8.4,17.0627306 C10.5,17.2132841 12.6,17.2132841 14.75,17.1129151 C16,17.0627306 17.2,16.9121771 18.4,16.6110701 C18.7,16.5107011 19.05,16.4605166 19.35,16.5107011 C19.8,16.4605166 20.2,16.2597786 20.55,16.5107011 Z" id="Shape" fill="#FDFDFD"/>
        </g>
      </g>
    </g>
  </g>
</svg>