<svg width="145px" height="136px" viewBox="0 0 145 136" version="1.1" xml:space="preserve" xmlns="http://www.w3.org/2000/svg" xmlns:xlink="http://www.w3.org/1999/xlink">
  <defs/>
  <g>
    <title>keyboard-c</title>
    <desc>Created with Sketch.</desc>
    <g id="music" stroke="none" stroke-width="1" fill="none" fill-rule="evenodd">
      <g id="keyboard-c" fill-rule="nonzero">
        <g id="Group" transform="translate(61.000000, 65.235521)">
          <path d="M8.35,10.8416988 C8.45,12.5984556 8.45,14.3552124 8.2,16.1119691 C8.1,16.8146718 8.1,17.5675676 8.1,18.2702703 C8.15,21.4324324 7.9,24.5945946 7.9,27.7567568 C7.9,29.7142857 7.95,31.6718147 8.1,33.6293436 C8.25,35.2355212 8.6,36.7915058 8.9,38.3474903 C9.35,40.5559846 9.85,42.7142857 10.3,44.9227799 C10.55,46.027027 10.7,47.1312741 10.9,48.2355212 C11.55,51.5482625 12.2,54.8108108 12.8,58.1235521 C13.1,59.8803089 13.45,61.6872587 13.95,63.3938224 C14.05,63.7953668 14.15,64.1467181 14.25,64.5482625 C14.45,65.2007722 14.25,65.7027027 13.65,66.0540541 C13.25,66.3050193 12.9,66.5057915 12.45,66.6061776 C11.55,66.8571429 10.7,67.1583012 9.8,67.4092664 C8.95,67.6602317 8.1,67.8610039 7.25,67.96139 C6.05,68.0617761 4.85,68.2625483 3.7,68.3629344 C3.25,68.4131274 2.8,68.4633205 2.4,68.3127413 C1.85,68.1621622 1.5,67.7104247 1.7,67.1081081 C1.9,66.5559846 2.15,66.003861 2.65,65.6023166 C4,64.3976834 5.1,62.9420849 6.35,61.6872587 C6.8,61.2355212 6.9,60.8339768 6.8,60.1814672 C6.5,58.2239382 6.05,56.2664093 5.65,54.2586873 C5.05,51.1969112 4.45,48.1351351 3.8,45.0733591 C3.4,43.2162162 2.9,41.3590734 2.5,39.4517375 C1.9,36.5405405 1.3,33.6293436 1.05,30.7181467 C0.75,27.8571429 0.65,24.9459459 0.45,22.0849421 C0.25,19.5752896 0.15,17.015444 0.15,14.5057915 C0.2,12.2471042 -0.05,10.03861 0.15,7.77992278 C0.2,7.17760618 0.05,6.57528958 0.15,5.97297297 C0.3,4.66795367 0.85,3.46332046 1.3,2.20849421 C1.55,1.60617761 2,1.15444015 2.45,0.702702703 C2.75,0.351351351 3.25,0.250965251 3.65,0.250965251 C4.65,0.200772201 5.65,0.451737452 6.4,1.2046332 C6.9,1.65637066 7.35,2.20849421 7.55,2.86100386 C8.05,4.16602317 8.4,5.52123552 8.4,6.92664093 C8.35,8.33204633 8.35,9.58687259 8.35,10.8416988 Z M3.35,67.3088803 C3.7,67.2586873 4.15,67.2586873 4.6,67.1583012 C4.85,67.1081081 5.15,67.0579151 5.45,67.0579151 C6.6,66.957529 7.75,66.8069498 8.85,66.5057915 C9.9,66.2046332 11,65.9034749 12.05,65.5521236 C12.4,65.4517375 12.75,65.3513514 12.95,64.9498069 C12.95,64.7992278 12.9,64.5984556 12.9,64.3976834 C12.65,63.1428571 12.35,61.8880309 12.1,60.6332046 C11.65,58.4749035 11.2,56.3166023 10.8,54.1583012 C10.45,52.2509653 10.15,50.2934363 9.75,48.3861004 C9.3,46.1274131 8.85,43.8185328 8.35,41.5598456 C8.15,40.5057915 7.9,39.4517375 7.7,38.3976834 C7.45,37.0926641 7.15,35.7876448 7,34.4826255 C6.85,32.6254826 6.8,30.7181467 6.7,28.8610039 C6.6,25.4980695 6.9,22.1351351 6.95,18.7722008 C6.95,17.2162162 7.15,15.6602317 7.15,14.1042471 C7.15,11.8455598 7.2,9.63706564 7,7.37837838 C6.9,6.17374517 6.8,4.96911197 6.45,3.81467181 C6.15,2.81081081 5.5,2.15830116 4.5,1.85714286 C4.3,1.80694981 4.1,1.70656371 3.9,1.80694981 C3.3,2.10810811 2.7,2.45945946 2.35,3.06177606 C1.7,4.21621622 1.3,5.52123552 1.3,6.82625483 C1.3,8.33204633 1.1,9.83783784 1.35,11.3436293 C1.4,11.7451737 1.3,12.1467181 1.3,12.5482625 C1.3,12.8494208 1.2,13.1003861 1.2,13.4015444 C1.25,16.1119691 1.3,18.7722008 1.5,21.4324324 C1.55,22.3359073 1.65,23.1891892 1.65,24.0926641 C1.7,27.1544402 2.05,30.1660232 2.45,33.1776062 C3,37.0926641 3.95,40.957529 4.8,44.8223938 C5.35,47.3320463 5.9,49.8416988 6.45,52.3011583 C6.65,53.3050193 6.75,54.3590734 7.05,55.3629344 C7.45,56.8687259 7.65,58.4247104 7.85,59.980695 C8,61.1853282 7.8,62.2895753 6.75,63.0926641 C6.65,63.1930502 6.5,63.2934363 6.4,63.4440154 C5.65,64.3976834 4.85,65.2509653 3.9,66.0540541 C3.7,66.2548263 3.5,66.4555985 3.35,66.6563707 C3.2,66.8069498 3.15,67.007722 3.35,67.3088803 Z" id="Shape" fill="#010101"/>
          <path d="M3.35,67.3088803 C3.15,67.007722 3.2,66.8069498 3.3,66.6563707 C3.45,66.4555985 3.65,66.2046332 3.85,66.0540541 C4.75,65.2509653 5.6,64.3976834 6.35,63.4440154 C6.45,63.3436293 6.55,63.1930502 6.7,63.0926641 C7.75,62.2895753 7.95,61.1853282 7.8,59.980695 C7.6,58.4247104 7.4,56.8687259 7,55.3629344 C6.75,54.3590734 6.65,53.3050193 6.4,52.3011583 C5.85,49.7915058 5.3,47.2818533 4.75,44.8223938 C3.9,40.957529 2.95,37.0926641 2.4,33.1776062 C2,30.1660232 1.65,27.1544402 1.6,24.0926641 C1.6,23.1891892 1.5,22.3359073 1.45,21.4324324 C1.25,18.7722008 1.2,16.0617761 1.15,13.4015444 C1.15,13.1003861 1.2,12.8494208 1.25,12.5482625 C1.3,12.1467181 1.4,11.7451737 1.3,11.3436293 C1.05,9.83783784 1.25,8.33204633 1.25,6.82625483 C1.25,5.52123552 1.65,4.21621622 2.3,3.06177606 C2.65,2.45945946 3.25,2.10810811 3.85,1.80694981 C4.05,1.70656371 4.25,1.75675676 4.45,1.85714286 C5.45,2.15830116 6.1,2.86100386 6.4,3.81467181 C6.75,4.96911197 6.9,6.17374517 6.95,7.37837838 C7.1,9.63706564 7.05,11.8455598 7.1,14.1042471 C7.1,15.6602317 6.95,17.2162162 6.9,18.7722008 C6.9,22.1351351 6.55,25.4980695 6.65,28.8610039 C6.7,30.7683398 6.75,32.6254826 6.95,34.4826255 C7.05,35.7876448 7.4,37.0926641 7.65,38.3976834 C7.85,39.4517375 8.1,40.5057915 8.3,41.5598456 C8.75,43.8185328 9.25,46.1274131 9.7,48.3861004 C10.05,50.2934363 10.35,52.2509653 10.75,54.1583012 C11.15,56.3166023 11.6,58.4749035 12.05,60.6332046 C12.3,61.8880309 12.6,63.1428571 12.85,64.3976834 C12.9,64.5984556 12.9,64.7992278 12.9,64.9498069 C12.7,65.4015444 12.35,65.4517375 12,65.5521236 C10.95,65.9034749 9.85,66.2046332 8.8,66.5057915 C7.7,66.8069498 6.55,67.007722 5.4,67.0579151 C5.1,67.0579151 4.85,67.1081081 4.55,67.1583012 C4.15,67.2586873 3.7,67.2586873 3.35,67.3088803 Z" id="Shape" fill="#D0E9EA"/>
        </g>
        <g id="Group" transform="translate(38.500000, 65.737452)">
          <path d="M13.55,5.37065637 C13.5,7.22779923 13.1,8.88416988 12.7,10.4903475 C12.35,11.8957529 11.85,13.2509653 11.55,14.6563707 C10.95,17.1660232 10.45,19.6756757 9.95,22.1853282 C9.6,23.7915058 9.35,25.3976834 9,27.003861 C8.7,28.4092664 8.55,29.8146718 8.45,31.2702703 C8.35,33.8301158 8.6,36.2895753 8.9,38.7992278 C9.35,42.5637066 9.75,46.3783784 10.2,50.1428571 C10.4,51.7992278 10.65,53.4555985 10.85,55.1621622 C10.95,55.965251 11.05,56.7683398 11.15,57.5714286 C11.2,57.8725869 11.2,58.1235521 11.2,58.4247104 C11.15,59.5289575 11,59.7297297 9.95,59.980695 C8.1,60.3822394 6.3,60.7837838 4.45,61.1853282 C3.75,61.3359073 3.05,61.5366795 2.35,61.6872587 C1.9,61.7876448 1.4,61.7876448 0.95,61.6370656 C0.1,61.3861004 -0.2,60.6833977 0.35,59.980695 C0.6,59.6293436 0.95,59.3281853 1.25,59.027027 C2.4,58.0733591 3.4,56.969112 4.3,55.8146718 C4.45,55.6138996 4.65,55.3629344 4.8,55.1119691 C4.9,54.96139 4.95,54.7606178 4.9,54.5598456 C4.65,52.2007722 4.4,49.8416988 4.05,47.5328185 C3.65,45.023166 3.3,42.4633205 2.95,39.9034749 C2.85,39.1505792 2.75,38.3976834 2.7,37.6447876 C2.6,35.7374517 2.3,33.8803089 2,32.023166 C1.9,31.5212355 1.95,30.969112 1.95,30.4671815 C2,28.4092664 2.25,26.4015444 2.55,24.3938224 C3,21.2818533 3.75,18.1698842 4,15.007722 C4.15,13.1505792 4.45,11.2432432 4.7,9.38610039 C4.75,9.08494208 4.8,8.78378378 4.95,8.48262548 C5.15,8.08108108 5.2,7.57915058 5.25,7.07722008 C5.3,6.37451737 5.35,5.62162162 5.85,5.01930502 C5.95,4.91891892 5.95,4.71814672 6,4.56756757 C6.35,3.26254826 7.05,2.15830116 7.95,1.15444015 C8.25,0.803088803 8.65,0.501930502 9.1,0.301158301 C10,-0.200772201 10.8,-1.44675938e-15 11.5,0.602316602 C12.85,1.95752896 13.55,3.61389961 13.55,5.37065637 Z M1.6,60.4826255 C2.1,60.5830116 2.55,60.5328185 2.95,60.4324324 C4.25,60.1312741 5.6,59.7799228 6.9,59.4787645 C7.7,59.2779923 8.45,59.1274131 9.25,58.9266409 C10,58.7258687 10.1,58.4749035 10,57.7220077 C9.7,55.7644788 9.3,53.8069498 9.1,51.7992278 C8.85,49.5405405 8.55,47.2818533 8.3,45.023166 C8.1,43.1660232 8,41.2586873 7.75,39.4015444 C7.45,36.8416988 7.2,34.2818533 7.2,31.7220077 C7.2,30.2664093 7.35,28.8610039 7.65,27.4054054 C8.3,24.2934363 9,21.1312741 9.7,18.019305 C10.4,15.0579151 11.1,12.0965251 11.85,9.13513514 C12.3,7.47876448 12.45,5.82239382 12.1,4.16602317 C11.9,3.31274131 11.5,2.50965251 10.85,1.90733591 C10.2,1.30501931 9.75,1.30501931 9.1,1.90733591 C7.8,3.11196911 7.15,4.71814672 6.6,6.32432432 C6.2,7.62934363 6,8.98455598 5.75,10.2895753 C5.3,12.3976834 5.1,14.5057915 4.9,16.6138996 C4.8,17.3667954 4.75,18.1196911 4.6,18.8725869 C3.9,22.2355212 3.35,25.6486486 3.1,29.0617761 C3.05,30.015444 2.9,30.969112 3.1,31.9227799 C3.5,34.030888 3.65,36.1389961 3.95,38.2471042 C4.15,39.8030888 4.3,41.3590734 4.5,42.9150579 C5.05,46.5289575 5.65,50.0926641 6,53.7567568 C6.1,54.7104247 5.9,55.5135135 5.4,56.2664093 C4.6,57.4710425 3.75,58.6254826 2.6,59.5289575 C2.2,59.7297297 1.75,59.9305019 1.6,60.4826255 Z" id="Shape" fill="#010101"/>
          <path d="M1.6,60.4826255 C1.75,59.9305019 2.2,59.7297297 2.55,59.4787645 C3.7,58.5752896 4.55,57.4208494 5.35,56.2162162 C5.85,55.4633205 6,54.6100386 5.95,53.7065637 C5.65,50.0926641 5,46.4787645 4.45,42.8648649 C4.2,41.3088803 4.1,39.7528958 3.9,38.1969112 C3.6,36.0888031 3.5,33.980695 3.05,31.8725869 C2.85,30.9189189 3,29.965251 3.05,29.011583 C3.3,25.5482625 3.9,22.1853282 4.55,18.8223938 C4.7,18.0694981 4.75,17.3166023 4.85,16.5637066 C5.1,14.4555985 5.3,12.3474903 5.7,10.2393822 C6,8.93436293 6.15,7.52895753 6.55,6.27413127 C7.05,4.61776062 7.7,3.01158301 9.05,1.85714286 C9.7,1.25482625 10.2,1.25482625 10.8,1.85714286 C11.45,2.45945946 11.9,3.26254826 12.05,4.11583012 C12.4,5.77220077 12.25,7.42857143 11.8,9.08494208 C11.05,12.046332 10.35,15.007722 9.65,17.969112 C8.95,21.0810811 8.25,24.2432432 7.6,27.3552124 C7.3,28.7606178 7.15,30.2162162 7.15,31.6718147 C7.15,34.2316602 7.4,36.7915058 7.7,39.3513514 C7.9,41.2084942 8.05,43.1158301 8.25,44.972973 C8.5,47.2316602 8.85,49.4903475 9.05,51.7490347 C9.25,53.7567568 9.7,55.7142857 9.95,57.6718147 C10.05,58.4247104 9.9,58.6756757 9.2,58.8764479 C8.45,59.0772201 7.65,59.2277992 6.85,59.4285714 C5.55,59.7297297 4.2,60.0810811 2.9,60.3822394 C2.55,60.5328185 2.1,60.5830116 1.6,60.4826255 Z" id="Shape" fill="#D0E9EA"/>
        </g>
        <g id="Group" transform="translate(4.000000, 4.000000)">
          <path d="M7.95,1.80694981 C8.2,1.35521236 8.4,1.003861 8.6,0.702702703 C8.85,0.351351351 9.25,0.150579151 9.65,0.301158301 C10.05,0.451737452 10.25,0.702702703 10.25,1.1042471 C10.25,1.30501931 10.25,1.50579151 10.25,1.70656371 C10.25,1.85714286 10.25,2.00772201 10.3,2.15830116 C10.5,2.15830116 10.6,2.00772201 10.7,1.90733591 C11.3,1.55598456 11.75,1.65637066 12.1,2.25868726 C12.35,2.76061776 12.4,3.26254826 12.35,3.76447876 C12.25,5.06949807 11.9,6.37451737 11.6,7.62934363 C11.4,8.33204633 11.2,9.08494208 11,9.83783784 C11.45,9.93822394 11.75,9.63706564 12.05,9.53667954 C12.7,9.33590734 13.3,9.33590734 13.9,9.68725869 C14.4,9.98841699 14.45,10.5907336 14,10.992278 C13.9,11.0926641 13.75,11.1930502 13.6,11.2934363 C13.05,11.5945946 12.7,12.046332 12.4,12.5984556 C11.75,14.003861 10.65,14.7065637 9.1,14.8069498 C9,14.8069498 8.85,14.8069498 8.75,14.8069498 C8.65,14.8069498 8.5,14.8571429 8.4,14.8571429 C8,16.7644788 7.6,18.6216216 7.25,20.4787645 C6.85,22.7374517 6.5,24.996139 6.2,27.2548263 C6.05,28.4594595 6,29.7142857 6,30.969112 C6,31.7220077 6.15,32.4749035 6.45,33.1776062 C7,34.5328185 7.6,35.8880309 8.15,37.2934363 C8.75,38.7490347 9.7,40.003861 10.45,41.3590734 C11.2,42.6640927 12,43.969112 12.35,45.4749035 C13.05,46.5289575 12.8,47.6332046 12.5,48.6872587 C12.05,50.3938224 9.9,50.996139 8.65,49.992278 C7.95,49.4401544 7.45,48.7374517 6.9,48.034749 C6.15,47.030888 5.45,46.027027 4.95,44.8725869 C3.55,41.9111969 2,39.0501931 0.9,35.9382239 C-3.67691988e-14,33.3783784 -0.25,30.8185328 0.5,28.1583012 C1.3,25.2471042 2,22.2857143 2.75,19.3243243 C3.05,18.2200772 3.45,17.2162162 3.8,16.1119691 C4,15.5096525 4.2,14.9073359 4.4,14.3050193 C4.5,13.953668 4.55,13.6023166 4.45,13.2509653 C4.15,12.2972973 4.3,11.3436293 4.3,10.3899614 C4.35,9.08494208 4.5,7.77992278 4.75,6.47490347 C5.05,5.06949807 5.3,3.66409266 5.55,2.20849421 C5.65,1.70656371 5.8,1.30501931 6.15,0.903474903 C6.65,0.401544402 7.2,0.451737452 7.6,1.1042471 C7.75,1.40540541 7.8,1.55598456 7.95,1.80694981 Z M6.8,2.96138996 C6.4,3.21235521 6.4,3.51351351 6.35,3.76447876 C6.25,4.41698842 6.15,5.11969112 6,5.77220077 C5.4,8.13127413 5.25,10.5405405 5.4,12.9498069 C5.5,14.3552124 5.2,15.6602317 4.75,16.965251 C4.45,17.8185328 4.15,18.6216216 3.95,19.4749035 C3.2,22.4362934 2.5,25.3976834 1.7,28.3088803 C1.05,30.6177606 1.15,32.8764479 1.9,35.1351351 C2.75,37.6949807 3.9,40.1042471 5.15,42.5135135 C5.4,43.015444 5.5,43.5675676 5.8,44.019305 C6.6,45.2239382 7.3,46.5289575 8.15,47.7335907 C8.65,48.4362934 9.25,49.0888031 10.1,49.3899614 C11.35,48.988417 11.65,48.5868726 11.65,47.4324324 C11.65,46.7297297 11.55,46.027027 11.2,45.3243243 C10.5,43.8687259 9.7,42.4131274 8.8,41.007722 C8.3,40.2046332 7.8,39.4015444 7.4,38.4980695 C6.75,36.9420849 6,35.4362934 5.35,33.8803089 C5.1,33.2779923 4.9,32.6756757 4.85,32.023166 C4.7,30.4169884 4.7,28.8108108 4.95,27.2548263 C5.2,25.5482625 5.5,23.8416988 5.7,22.1351351 C6,19.9266409 6.4,17.7181467 7,15.5598456 C7.15,14.957529 7.4,14.3552124 7.8,13.8030888 C8.3,13.7528958 8.75,13.7528958 9.25,13.7027027 C10.05,13.6023166 10.7,13.3011583 11.1,12.5482625 C11.5,11.8455598 11.9,11.1930502 12.6,10.5405405 C11.7,10.6911197 11.35,10.7915058 10.6,11.4440154 C9.85,12.0965251 9.05,11.8957529 8.25,11.6949807 C8.1,11.6447876 8,11.4942085 8,11.2934363 C8,11.1428571 8.1,10.992278 8.25,10.9420849 C8.45,10.8918919 8.65,10.8416988 8.85,10.8416988 C9.1,10.8416988 9.3,10.992278 9.6,10.7915058 C9.6,10.7413127 9.7,10.6409266 9.7,10.5405405 C10.15,8.68339768 10.6,6.82625483 11.05,4.91891892 C11.2,4.36679537 11.2,3.76447876 11.1,3.16216216 C10.75,3.26254826 10.75,3.56370656 10.65,3.76447876 C10.2,5.01930502 9.8,6.27413127 9.4,7.52895753 C9.3,7.77992278 9.25,7.98069498 9.15,8.18146718 C9.05,8.38223938 8.85,8.43243243 8.65,8.38223938 C8.45,8.33204633 8.3,8.18146718 8.3,7.93050193 C8.3,7.67953668 8.3,7.42857143 8.35,7.22779923 C8.5,6.27413127 8.7,5.32046332 8.9,4.41698842 C9.05,3.66409266 9.2,2.86100386 9.15,1.95752896 C8.65,2.45945946 8.65,3.01158301 8.6,3.56370656 C8.45,5.06949807 7.8,6.42471042 7.5,7.83011583 C7.5,7.88030888 7.45,7.88030888 7.45,7.93050193 C7.35,8.13127413 7.2,8.23166023 6.95,8.18146718 C6.7,8.13127413 6.5,7.98069498 6.5,7.67953668 C6.5,7.42857143 6.55,7.22779923 6.55,6.97683398 C6.65,5.77220077 6.95,4.41698842 6.8,2.96138996 Z" id="Shape" fill="#010101"/>
          <path d="M6.8,2.96138996 C6.9,4.41698842 6.65,5.77220077 6.5,7.12741313 C6.5,7.37837838 6.4,7.62934363 6.45,7.83011583 C6.45,8.08108108 6.65,8.28185328 6.9,8.33204633 C7.1,8.38223938 7.3,8.23166023 7.4,8.08108108 C7.4,8.03088803 7.45,8.03088803 7.45,7.98069498 C7.8,6.52509653 8.45,5.16988417 8.55,3.71428571 C8.6,3.16216216 8.65,2.61003861 9.1,2.10810811 C9.2,3.01158301 9,3.76447876 8.85,4.56756757 C8.7,5.52123552 8.5,6.47490347 8.3,7.37837838 C8.25,7.62934363 8.25,7.88030888 8.25,8.08108108 C8.25,8.28185328 8.4,8.48262548 8.6,8.53281853 C8.8,8.58301158 9,8.53281853 9.1,8.33204633 C9.2,8.13127413 9.3,7.88030888 9.35,7.67953668 C9.75,6.42471042 10.15,5.16988417 10.6,3.91505792 C10.65,3.71428571 10.7,3.41312741 11.05,3.31274131 C11.15,3.91505792 11.1,4.51737452 11,5.06949807 C10.55,6.92664093 10.1,8.78378378 9.65,10.6911197 C9.6,10.7915058 9.55,10.8918919 9.55,10.9420849 C9.3,11.1930502 9.05,10.992278 8.8,10.992278 C8.6,10.992278 8.4,11.042471 8.2,11.0926641 C8.05,11.1428571 7.95,11.2934363 7.95,11.4440154 C7.95,11.6447876 8.05,11.7953668 8.2,11.8455598 C9,12.046332 9.8,12.2471042 10.55,11.5945946 C11.3,10.9420849 11.65,10.8918919 12.55,10.6911197 C11.85,11.2934363 11.45,11.996139 11.05,12.6988417 C10.65,13.4517375 10,13.7528958 9.2,13.8532819 C8.75,13.9034749 8.25,13.9034749 7.75,13.953668 C7.35,14.5057915 7.1,15.1081081 6.95,15.7104247 C6.35,17.8687259 5.95,20.0772201 5.65,22.2857143 C5.45,23.992278 5.15,25.6988417 4.9,27.4054054 C4.65,29.011583 4.6,30.6177606 4.8,32.1737452 C4.85,32.8262548 5.05,33.4285714 5.3,34.030888 C5.95,35.5868726 6.7,37.0926641 7.35,38.6486486 C7.75,39.5521236 8.2,40.3552124 8.75,41.1583012 C9.6,42.5637066 10.4,43.969112 11.15,45.4749035 C11.5,46.1274131 11.6,46.8301158 11.6,47.5830116 C11.6,48.7374517 11.25,49.1389961 10.05,49.5405405 C9.2,49.2393822 8.65,48.5868726 8.1,47.8841699 C7.25,46.6795367 6.55,45.3745174 5.75,44.1698842 C5.45,43.7181467 5.35,43.1660232 5.1,42.6640927 C3.9,40.2548263 2.7,37.8455598 1.85,35.2857143 C1.1,33.027027 1.05,30.7683398 1.65,28.4594595 C2.45,25.4980695 3.1,22.5366795 3.9,19.6254826 C4.1,18.7722008 4.4,17.969112 4.7,17.1158301 C5.15,15.8108108 5.45,14.5057915 5.35,13.1003861 C5.2,10.6911197 5.4,8.28185328 5.95,5.92277992 C6.1,5.27027027 6.15,4.56756757 6.3,3.91505792 C6.45,3.51351351 6.4,3.21235521 6.8,2.96138996 Z" id="Shape" fill="#D0E9EA"/>
        </g>
        <g id="Group" transform="translate(6.000000, 31.104247)">
          <path d="M117.75,5.27027027 C118.4,6.02316602 118.35,6.97683398 118.55,7.83011583 C118.65,8.23166023 118.7,8.63320463 118.7,9.03474903 C118.8,10.4903475 118.9,11.8957529 119,13.3513514 C119.05,13.9034749 118.9,14.3552124 118.65,14.8571429 C116.85,18.4208494 115.1,22.034749 113.25,25.5984556 C111.9,28.1583012 110.65,30.7181467 109.35,33.3281853 C108.55,34.9343629 107.6,36.4903475 106.8,38.0965251 C105.85,39.9034749 104.85,41.7104247 104,43.5173745 C103.55,44.4208494 102.9,44.7220077 102,44.7722008 C101.45,44.7722008 100.9,44.7722008 100.35,44.7722008 C97.7,44.6216216 95,44.4710425 92.35,44.3204633 C90,44.1698842 87.65,43.9189189 85.3,43.7683398 C83,43.6177606 80.65,43.5173745 78.35,43.3667954 C74.65,43.1158301 70.95,42.8648649 67.25,42.6138996 C64.05,42.4131274 60.85,42.1621622 57.7,41.9111969 C55.3,41.7104247 52.95,41.5598456 50.55,41.3088803 C48.75,41.1081081 46.95,41.0579151 45.15,40.957529 C44.05,40.9073359 43,40.8069498 41.9,40.7065637 C39.45,40.5057915 36.95,40.3552124 34.5,40.1544402 C30.65,39.8532819 26.75,39.5521236 22.9,39.2509653 C19.05,38.9498069 15.2,38.6486486 11.3,38.3474903 C8.8,38.1467181 6.3,37.9459459 3.8,37.5945946 C2,37.3436293 1.95,37.3938224 1.6,35.6370656 C1.15,33.3783784 0.75,31.0694981 0.5,28.7606178 C0.45,28.5096525 0.5,28.2586873 0.4,28.0579151 C0.05,27.3552124 0.35,26.8532819 0.8,26.3011583 C2.4,24.2934363 3.95,22.2857143 5.5,20.2277992 C6.6,18.7722008 7.8,17.3667954 8.95,15.9111969 C11.85,12.3976834 14.8,8.93436293 17.7,5.42084942 C18.8,4.11583012 19.85,2.76061776 21.05,1.45559846 C21.2,1.30501931 21.3,1.15444015 21.45,1.003861 C21.8,0.602316602 22.2,0.451737452 22.7,0.451737452 C24.15,0.501930502 25.6,0.501930502 27,0.552123552 C31.25,0.702702703 35.55,0.853281853 39.8,1.05405405 C44.95,1.30501931 50.1,1.60617761 55.25,1.85714286 C58.5,2.05791506 61.8,2.20849421 65.05,2.40926641 C68.9,2.66023166 72.7,2.91119691 76.55,3.11196911 C81.45,3.41312741 86.35,3.66409266 91.25,3.91505792 C94.15,4.06563707 97.1,4.21621622 100,4.36679537 C103.65,4.56756757 107.35,4.76833977 111,4.96911197 C112.5,5.06949807 114.05,5.06949807 115.55,5.11969112 C116.25,5.11969112 116.95,5.16988417 117.75,5.27027027 Z M116.6,6.22393822 C115.1,6.12355212 113.7,6.02316602 112.3,5.97297297 C108.85,5.82239382 105.45,5.67181467 102,5.57142857 C97.15,5.42084942 92.35,5.11969112 87.5,4.81853282 C85.45,4.66795367 83.45,4.61776062 81.4,4.51737452 C77.8,4.31660232 74.2,4.06563707 70.65,3.86486486 C68.45,3.71428571 66.25,3.61389961 64.05,3.51351351 C59.55,3.26254826 55.05,2.96138996 50.55,2.66023166 C48.1,2.50965251 45.7,2.45945946 43.25,2.35907336 C40.4,2.20849421 37.6,2.10810811 34.75,1.95752896 C31.75,1.80694981 28.75,1.65637066 25.75,1.55598456 C24.7,1.50579151 23.7,1.30501931 22.6,1.45559846 C22.25,1.85714286 21.85,2.25868726 21.5,2.71042471 C19.15,5.72200772 16.65,8.58301158 14.2,11.4942085 C10.65,15.6100386 7.2,19.8262548 3.85,24.1428571 C3.2,24.9459459 2.6,25.7992278 2,26.6023166 C2.15,26.8532819 2.35,26.9034749 2.55,26.9034749 C4.65,27.1544402 6.75,27.3552124 8.85,27.5559846 C10.8,27.7567568 10.8,27.7567568 12.1,26.2007722 C14.1,23.7915058 16,21.2316602 18.1,18.8725869 C18.65,18.2200772 19.2,17.8687259 20.05,17.969112 C20.25,17.969112 20.45,17.969112 20.65,18.019305 C22.9,18.1698842 25.2,18.3204633 27.45,18.4710425 C30.55,18.6216216 33.7,18.6718147 36.8,18.8223938 C40.15,18.972973 43.5,19.1235521 46.85,19.2741313 C49.1,19.3745174 51.3,19.5250965 53.55,19.6254826 C55.25,19.7258687 57,19.8764479 58.7,19.9266409 C61.55,20.0772201 64.35,20.1776062 67.2,20.2779923 C69.75,20.3783784 72.3,20.5289575 74.85,20.6795367 C77.1,20.8301158 79.3,21.030888 81.55,21.0810811 C84.85,21.1814672 88.15,21.4324324 91.5,21.6332046 C94.2,21.7837838 96.9,22.034749 99.6,22.2857143 C99.95,22.2857143 100.25,22.3861004 100.5,22.5366795 C100.85,22.7374517 101,23.03861 100.85,23.4401544 C100.75,23.7413127 100.6,24.042471 100.5,24.3436293 C100.1,25.3474903 99.4,26.2007722 98.9,27.1544402 C97.8,29.2123552 96.85,31.3204633 95.65,33.3281853 C95.55,33.4787645 95.5,33.6293436 95.6,33.7799228 C97.05,34.030888 100.5,34.1814672 101.35,34.030888 C102.15,32.6254826 103,31.2200772 103.8,29.8146718 C105.2,27.2046332 106.55,24.5945946 107.95,21.9343629 C109.05,19.8764479 110.1,17.8185328 111.25,15.8108108 C112.7,13.1505792 114.15,10.4903475 115.75,7.88030888 C116.05,7.27799228 116.4,6.87644788 116.6,6.22393822 Z M32.2,19.7258687 C31.65,19.6756757 31.05,19.6756757 30.5,19.6254826 C30,19.5752896 29.65,19.7258687 29.35,20.1274131 C28.55,21.1814672 27.7,22.1853282 27,23.2895753 C26.55,23.992278 26,24.6447876 25.45,25.2972973 C25.3,25.4980695 25.1,25.7490347 24.8,25.7490347 C24.1,25.7490347 23.35,25.8494208 22.7,25.5984556 C22.7,24.9459459 22.7,24.8957529 22.9,24.6447876 C23.25,24.1428571 23.65,23.5907336 24.05,23.0888031 C24.8,22.0849421 25.55,21.0810811 26.3,20.1274131 C26.4,19.976834 26.55,19.8262548 26.5,19.5250965 C26.05,19.4247104 25.6,19.3745174 25.25,19.4749035 C24.15,20.6795367 23.3,21.9343629 22.45,23.1891892 C22,23.8416988 21.45,24.4440154 20.95,25.046332 C20.8,25.2471042 20.65,25.4478764 20.4,25.4478764 C19.65,25.4980695 18.9,25.5482625 18.25,25.2972973 C18.1,24.8455598 18.3,24.5945946 18.45,24.3436293 C18.85,23.7413127 19.3,23.1891892 19.75,22.5868726 C20.35,21.7335907 21,20.9305019 21.65,20.0772201 C21.75,19.9266409 21.85,19.7258687 21.8,19.4749035 C21.45,19.4247104 21.05,19.4247104 20.65,19.3243243 C20.2,19.1737452 19.9,19.3745174 19.6,19.7258687 C19.15,20.3281853 18.65,20.9305019 18.15,21.4826255 C16.85,23.03861 15.75,24.7953668 14.3,26.2509653 C14.1,26.4517375 13.95,26.7027027 13.95,27.0540541 C14.6,27.2548263 15.25,27.2548263 15.9,27.3050193 C17.9,27.4555985 19.9,27.5559846 21.9,27.7065637 C24.75,27.9073359 27.55,28.1081081 30.4,28.3590734 C33.7,28.6100386 37,28.8610039 40.3,29.1119691 C42.35,29.2625483 44.35,29.4131274 46.4,29.5135135 C48.1,29.6138996 49.85,29.7142857 51.55,29.8648649 C53.1,29.965251 54.65,30.1158301 56.2,30.2162162 C58.05,30.3166023 59.85,30.4169884 61.7,30.5675676 C64.75,30.7683398 67.75,31.019305 70.8,31.2200772 C72.65,31.3706564 74.55,31.4710425 76.4,31.5714286 C79.3,31.7722008 82.2,32.023166 85.1,32.2239382 C86.75,32.3745174 88.45,32.5250965 90.1,32.6254826 C91.6,32.7258687 93.1,32.976834 94.65,32.8764479 C96.25,30.1158301 97.85,27.4054054 99.4,24.6447876 C99.6,24.2934363 99.85,23.8918919 99.85,23.4401544 C99.05,23.2895753 98.3,23.2895753 97.6,23.2393822 C96.55,24.2934363 95.75,25.5482625 94.95,26.7027027 C94.45,27.4555985 93.9,28.1081081 93.3,28.7606178 C93.1,28.96139 92.95,29.2123552 92.6,29.2123552 C91.9,29.2123552 91.15,29.3127413 90.55,28.96139 C90.45,28.5096525 90.6,28.2084942 90.85,27.9073359 C91.3,27.3552124 91.7,26.7528958 92.15,26.2007722 C92.75,25.3976834 93.35,24.5945946 93.95,23.7915058 C94.15,23.5405405 94.3,23.2393822 94.15,22.8880309 C93.9,22.7374517 93.6,22.7374517 93.35,22.8378378 C92.3,23.8918919 91.55,25.1969112 90.65,26.3513514 C90.15,27.0540541 89.65,27.7065637 89.1,28.3590734 C88.95,28.5598456 88.75,28.8108108 88.45,28.8108108 C87.75,28.8108108 87,28.9111969 86.35,28.6100386 C86.2,28.0579151 86.5,27.7567568 86.75,27.4054054 C87.7,26.1003861 88.65,24.8455598 89.65,23.5405405 C89.8,23.2895753 90,23.0888031 90.05,22.7876448 C90.05,22.7374517 90,22.6370656 89.95,22.5366795 C89.65,22.4864865 89.35,22.4362934 89.05,22.5366795 C88,23.6409266 87.25,24.8957529 86.35,26.1003861 C85.85,26.8030888 85.35,27.4555985 84.8,28.1081081 C84.65,28.3088803 84.45,28.5598456 84.15,28.5598456 C83.45,28.5598456 82.7,28.6602317 82.05,28.4092664 C81.85,28.007722 82.05,27.7065637 82.2,27.4555985 C82.6,26.8532819 83.05,26.3011583 83.5,25.6988417 C84.1,24.8455598 84.75,24.042471 85.4,23.1891892 C85.6,22.9382239 85.8,22.6872587 85.65,22.2857143 C84.7,22.2355212 83.75,22.1853282 82.85,22.1853282 C81.8,23.2895753 81,24.4942085 80.2,25.6988417 C79.7,26.4517375 79.2,27.1544402 78.55,27.7567568 C78.4,27.9073359 78.2,28.1583012 78,28.2084942 C77.2,28.3088803 76.45,28.4092664 75.75,27.957529 C75.7,27.5559846 75.85,27.2548263 76.05,27.003861 C76.4,26.5019305 76.8,25.9498069 77.2,25.4478764 C77.85,24.5945946 78.5,23.7413127 79.15,22.8378378 C79.3,22.5868726 79.45,22.3861004 79.45,22.0849421 C79.1,21.8841699 78.75,21.984556 78.45,22.034749 C77.4,23.0888031 76.65,24.3436293 75.85,25.4980695 C75.35,26.2509653 74.8,26.9034749 74.2,27.5559846 C74.05,27.7065637 73.9,27.957529 73.65,27.957529 C72.9,28.007722 72.15,28.1081081 71.5,27.7065637 C71.4,27.3050193 71.6,27.003861 71.75,26.7528958 C72.1,26.2509653 72.5,25.6988417 72.9,25.1969112 C73.55,24.3436293 74.2,23.4903475 74.85,22.5868726 C75,22.3359073 75.2,22.1351351 75.15,21.7335907 C73.85,21.6332046 72.5,21.4324324 71.2,21.5328185 C70.15,22.6370656 69.35,23.8416988 68.55,25.046332 C68.05,25.7490347 67.5,26.4517375 66.9,27.1042471 C66.7,27.3552124 66.45,27.5559846 66.1,27.5559846 C65.45,27.5057915 64.8,27.6061776 64.2,27.4054054 C64.15,26.7027027 64.15,26.7027027 64.4,26.4015444 C64.8,25.7992278 65.25,25.2471042 65.7,24.6447876 C66.35,23.7915058 67,22.9382239 67.65,22.034749 C67.8,21.8339768 67.9,21.6332046 67.75,21.3822394 C67.3,21.1814672 66.9,21.2316602 66.6,21.6833977 C66.4,21.9343629 66.2,22.1853282 66,22.4362934 C65.45,23.2393822 64.9,23.992278 64.35,24.7953668 C63.85,25.4980695 63.35,26.1505792 62.8,26.7528958 C62.65,26.9034749 62.45,27.1544402 62.25,27.2046332 C61.45,27.3050193 60.7,27.4054054 59.9,26.9034749 C60.3,25.7992278 61.1,24.996139 61.75,24.0926641 C62.4,23.1891892 63.15,22.3359073 63.65,21.3320463 C63.15,21.030888 62.7,20.980695 62.35,21.4324324 C62.15,21.6833977 61.9,21.9343629 61.75,22.1853282 C61.15,22.988417 60.6,23.7915058 60,24.6447876 C59.5,25.3474903 59,26 58.45,26.6023166 C58.3,26.7528958 58.15,27.003861 57.9,27.003861 C57.15,27.0540541 56.4,27.1544402 55.75,26.7528958 C55.65,26.4015444 55.75,26.1505792 55.95,25.8996139 C56.25,25.4478764 56.55,25.046332 56.85,24.6447876 C57.6,23.6409266 58.4,22.5868726 59.15,21.5830116 C59.25,21.4324324 59.4,21.2818533 59.3,21.0810811 C58.45,20.8803089 56.3,20.7297297 55.3,20.8301158 C54.3,21.8841699 53.5,23.0888031 52.7,24.2934363 C52.1,25.1969112 51.45,26.0501931 50.6,26.7528958 C49.8,26.7528958 49,26.9034749 48.3,26.4517375 C48.3,26.3011583 48.3,26.1505792 48.35,26.0501931 C48.4,25.8494208 48.5,25.6988417 48.65,25.4980695 C49,24.996139 49.4,24.4440154 49.8,23.9420849 C50.45,23.0888031 51.1,22.2355212 51.75,21.3320463 C51.9,21.0810811 52.05,20.8803089 52.05,20.5791506 C51.7,20.3783784 51.4,20.4285714 51.05,20.4787645 C50,21.5328185 49.25,22.7374517 48.45,23.9420849 C47.95,24.6447876 47.4,25.3474903 46.8,26 C46.65,26.1505792 46.5,26.4015444 46.25,26.4015444 C45.5,26.4517375 44.75,26.5521236 44.1,26.1505792 C44,25.7490347 44.15,25.4478764 44.35,25.1969112 C44.8,24.5945946 45.25,23.992278 45.7,23.3899614 C46.3,22.5366795 46.95,21.7335907 47.55,20.8803089 C47.65,20.7297297 47.85,20.4787645 47.65,20.2277992 C46.55,20.1776062 45.45,20.0772201 44.3,20.027027 C43.7,20.9305019 43.1,21.7837838 42.55,22.6370656 C41.85,23.6911197 41.2,24.6949807 40.35,25.6486486 C40.15,25.8494208 40,26.1505792 39.7,26.2007722 C38.9,26.3011583 38.15,26.4015444 37.45,25.9498069 C37.4,25.3976834 37.7,25.046332 37.95,24.6949807 C38.9,23.3397683 39.9,21.9343629 40.85,20.5791506 C40.95,20.4285714 41.15,20.2779923 41,20.027027 C40.55,19.8262548 40.2,19.9266409 39.85,20.2779923 C39.05,21.2316602 38.35,22.2857143 37.65,23.2895753 C37.15,24.042471 36.6,24.6949807 36.05,25.3474903 C35.85,25.5482625 35.7,25.7992278 35.35,25.7992278 C34.65,25.7992278 33.9,25.8996139 33.25,25.5984556 C33.1,25.046332 33.4,24.7451737 33.65,24.3938224 C34.6,23.0888031 35.55,21.8339768 36.55,20.5289575 C36.7,20.3281853 36.9,20.0772201 36.9,19.7760618 C36.55,19.6254826 36.2,19.6254826 35.8,19.7760618 C35.5,20.1274131 35.2,20.4787645 34.9,20.8301158 C34.35,21.5830116 33.8,22.4362934 33.25,23.1891892 C32.75,23.8416988 32.2,24.4942085 31.7,25.1467181 C31.5,25.3474903 31.3,25.5482625 31,25.5482625 C30.35,25.5482625 29.65,25.5984556 29,25.3474903 C28.8,24.7953668 29.1,24.4440154 29.4,24.1428571 C30.4,22.8378378 31.35,21.5328185 32.35,20.1776062 C32.15,20.2277992 32.25,20.0772201 32.2,19.7258687 Z M95.35,39.4015444 C95.1,39.4015444 94.9,39.4015444 94.7,39.4015444 C93.05,39.3011583 91.45,39.2007722 89.8,39.1003861 C89.7,39.1003861 89.65,39.1003861 89.55,39.1003861 C88.05,38.7992278 86.55,38.8996139 85.05,38.6988417 C83.55,38.5482625 82.05,38.4980695 80.5,38.3976834 C77.7,38.1969112 74.95,37.9459459 72.15,37.7451737 C70.3,37.5945946 68.4,37.5444015 66.55,37.4440154 C66.45,37.4440154 66.3,37.4440154 66.2,37.4440154 C64.85,37.0926641 63.5,37.2432432 62.15,37.0926641 C60.35,36.8918919 58.5,36.8416988 56.65,36.7413127 C56.5,36.7413127 56.35,36.7413127 56.15,36.6911197 C54.6,36.3397683 52.95,36.4903475 51.4,36.3397683 C49.6,36.1891892 47.75,35.9382239 45.9,35.988417 C45.75,35.988417 45.6,35.988417 45.4,35.988417 C44.05,35.6872587 42.7,35.7876448 41.35,35.6370656 C39.45,35.4362934 37.55,35.3861004 35.6,35.2857143 C35.5,35.2857143 35.45,35.2857143 35.35,35.2857143 C33.75,35.0849421 32.1,34.9343629 30.45,34.8339768 C29.3,34.7335907 28.15,34.7335907 27,34.5830116 C25.45,34.3822394 23.9,34.4324324 22.35,34.2316602 C20.45,34.030888 18.55,34.030888 16.6,33.8803089 C15.6,33.7799228 14.6,33.6795367 13.6,33.6795367 C13.35,33.6795367 13.15,33.5791506 12.9,33.5289575 C12.35,33.4787645 12.05,33.1274131 11.9,32.6254826 C11.7,31.8725869 11.55,31.0694981 11.4,30.2664093 C11.3,29.8146718 11.25,29.3127413 11.05,28.9111969 C10.65,28.8108108 10.3,28.7104247 9.95,28.7104247 C8.85,28.6602317 7.7,28.6100386 6.6,28.4594595 C5.4,28.2586873 4.15,28.1583012 2.95,28.007722 C2.45,27.957529 1.95,27.8571429 1.4,28.007722 C1.4,29.011583 1.7,29.9150579 1.8,30.8687259 C1.9,31.7722008 2.15,32.6756757 2.25,33.5791506 C2.35,34.5328185 2.65,35.4362934 2.85,36.3397683 C3.1,36.4401544 3.3,36.4903475 3.5,36.5405405 C5.1,36.7413127 6.75,36.8918919 8.35,37.042471 C10.05,37.1930502 11.75,37.4440154 13.45,37.4942085 C15.7,37.5444015 18,37.7953668 20.25,37.9459459 C22.35,38.0965251 24.45,38.2972973 26.55,38.3976834 C28,38.4980695 29.5,38.5984556 30.95,38.7490347 C32.55,38.8996139 34.15,38.9498069 35.75,39.0501931 C35.85,39.0501931 36,39.0501931 36.1,39.1003861 C37.2,39.4015444 38.3,39.3011583 39.4,39.4517375 C41.4,39.6525097 43.45,39.7027027 45.5,39.8030888 C45.65,39.8030888 45.8,39.8030888 46,39.8532819 C47.45,39.953668 48.85,40.1042471 50.3,40.2046332 C52.2,40.3552124 54.15,40.4054054 56.05,40.5057915 C56.15,40.5057915 56.2,40.5057915 56.3,40.5057915 C57.9,40.6563707 59.5,40.8069498 61.05,40.9073359 C62.95,41.007722 64.85,41.1081081 66.8,41.2084942 C66.9,41.2084942 66.95,41.2084942 67.05,41.2084942 C68.6,41.5598456 70.15,41.4594595 71.7,41.5598456 C73.75,41.7606178 75.85,41.9111969 77.9,42.011583 C80.15,42.1621622 82.35,42.3127413 84.55,42.5135135 C85.75,42.6138996 86.95,42.6640927 88.15,42.7644788 C89.75,42.8648649 91.35,43.0656371 92.9,43.1158301 C93.35,43.1158301 93.8,43.1158301 94.2,43.1660232 C96.3,43.3667954 98.4,43.5675676 100.5,43.5675676 C101,43.5675676 101.5,43.5173745 102.15,43.4671815 C101.9,42.011583 101.6,40.6563707 101.4,39.2509653 C101.2,37.8957529 101.1,36.4903475 100.8,35.1351351 C100.55,35.1351351 100.4,35.1351351 100.25,35.1351351 C99,35.034749 97.8,35.1351351 96.55,34.9343629 C96.05,34.8339768 95.45,34.7335907 94.9,35.034749 C94.9,36.4903475 95.45,37.8455598 95.35,39.4015444 Z M94,34.1312741 C93.6,34.0810811 93.25,33.980695 92.9,33.9305019 C91.45,33.8301158 90.05,33.7297297 88.6,33.6293436 C85,33.3783784 81.45,33.1274131 77.85,32.8764479 C75.65,32.7258687 73.45,32.5752896 71.3,32.4247104 C69.65,32.3243243 68.05,32.2239382 66.4,32.1235521 C63.6,31.9227799 60.85,31.7220077 58.05,31.5212355 C56.35,31.4208494 54.6,31.3204633 52.9,31.1698842 C49.3,30.9189189 45.75,30.6679537 42.15,30.4169884 C39,30.1660232 35.85,29.965251 32.7,29.7142857 C29.1,29.4131274 25.45,29.1119691 21.85,28.8610039 C19.8,28.7104247 17.7,28.5598456 15.65,28.4092664 C14.95,28.3590734 14.25,28.3088803 13.45,28.3590734 C13.55,29.5637066 13.85,30.6679537 14.05,31.7722008 C14.25,31.8223938 14.35,31.8725869 14.45,31.8725869 C17.1,32.0733591 19.8,32.2741313 22.45,32.4749035 C25.1,32.6756757 27.8,32.8262548 30.45,33.027027 C33.5,33.2277992 36.5,33.4787645 39.55,33.7297297 C40.95,33.8301158 42.35,33.9305019 43.75,34.030888 C46.45,34.2316602 49.15,34.4324324 51.85,34.6332046 C53.4,34.7335907 54.95,34.8339768 56.5,34.9343629 C59.6,35.1351351 62.7,35.3861004 65.8,35.6370656 C67.25,35.7374517 68.75,35.8378378 70.2,35.9382239 C72.85,36.1389961 75.45,36.3397683 78.1,36.5405405 C80.85,36.7413127 83.6,36.8918919 86.35,37.0926641 C87.95,37.1930502 89.55,37.3436293 91.15,37.4942085 C92.15,37.5444015 93.2,37.5945946 94.2,37.6447876 C94.25,36.3899614 93.75,35.3861004 94,34.1312741 Z M117.05,7.83011583 C116.9,8.08108108 116.75,8.23166023 116.65,8.38223938 C114.2,12.4478764 112,16.5637066 109.8,20.7297297 C107.5,25.046332 105.4,29.4131274 102.8,33.5791506 C102.25,34.4324324 101.95,35.2857143 102.2,36.3899614 C102.6,38.046332 102.75,39.8030888 103,41.5096525 C103.05,41.8108108 103.15,42.0617761 103.35,42.4131274 C103.5,42.2123552 103.6,42.0617761 103.7,41.96139 C104.45,40.4555985 105.25,39 106,37.4942085 C107.75,33.9305019 109.55,30.4169884 111.45,26.953668 C112.2,25.5984556 112.95,24.2934363 113.6,22.9382239 C114.8,20.3783784 116.25,17.9189189 117.35,15.3088803 C117.7,14.4555985 118,13.6525097 117.85,12.7490347 C117.65,11.2432432 117.45,9.73745174 117.25,8.23166023 C117.25,8.08108108 117.2,7.98069498 117.05,7.83011583 Z" id="Shape" fill="#000000"/>
          <path d="M116.6,6.22393822 C116.45,6.87644788 116.05,7.32818533 115.75,7.77992278 C114.15,10.3899614 112.7,13.0501931 111.25,15.7104247 C110.15,17.7683398 109.05,19.7760618 107.95,21.8339768 C106.55,24.4440154 105.2,27.1042471 103.8,29.7142857 C103,31.1698842 102.15,32.5752896 101.35,33.9305019 C100.5,34.0810811 97.05,33.9305019 95.6,33.6795367 C95.5,33.5289575 95.55,33.3783784 95.65,33.2277992 C96.85,31.2200772 97.8,29.1119691 98.9,27.0540541 C99.4,26.1003861 100.1,25.2471042 100.5,24.2432432 C100.6,23.9420849 100.75,23.6409266 100.85,23.3397683 C101,22.9382239 100.85,22.6370656 100.5,22.4362934 C100.2,22.2857143 99.9,22.2355212 99.6,22.1853282 C96.9,21.984556 94.2,21.7335907 91.5,21.5328185 C88.2,21.3320463 84.9,21.0810811 81.55,20.980695 C79.3,20.9305019 77.1,20.6795367 74.85,20.5791506 C72.3,20.4285714 69.75,20.2779923 67.2,20.1776062 C64.35,20.027027 61.55,19.9266409 58.7,19.8262548 C57,19.7258687 55.25,19.6254826 53.55,19.5250965 C51.3,19.3745174 49.1,19.2741313 46.85,19.1737452 C43.5,19.023166 40.15,18.8725869 36.8,18.7220077 C33.7,18.5714286 30.55,18.5212355 27.45,18.3706564 C25.2,18.2702703 22.9,18.0694981 20.65,17.9189189 C20.45,17.9189189 20.25,17.9189189 20.05,17.8687259 C19.2,17.7683398 18.7,18.1196911 18.1,18.7722008 C16,21.1312741 14.15,23.6911197 12.1,26.1003861 C10.8,27.6563707 10.8,27.6563707 8.85,27.4555985 C6.75,27.2548263 4.65,27.003861 2.55,26.8030888 C2.35,26.8030888 2.15,26.7528958 2,26.5019305 C2.6,25.6988417 3.2,24.8455598 3.85,24.042471 C7.2,19.7760618 10.65,15.5096525 14.2,11.3938224 C16.7,8.48262548 19.15,5.62162162 21.5,2.61003861 C21.85,2.15830116 22.25,1.75675676 22.6,1.35521236 C23.65,1.2046332 24.7,1.40540541 25.75,1.45559846 C28.75,1.55598456 31.75,1.70656371 34.75,1.85714286 C37.6,2.00772201 40.4,2.10810811 43.25,2.25868726 C45.7,2.35907336 48.1,2.45945946 50.55,2.55984556 C55.05,2.81081081 59.55,3.11196911 64.05,3.41312741 C66.25,3.56370656 68.45,3.66409266 70.65,3.76447876 C74.25,3.96525097 77.85,4.21621622 81.4,4.41698842 C83.45,4.51737452 85.45,4.61776062 87.5,4.71814672 C92.35,5.01930502 97.15,5.32046332 102,5.47104247 C105.45,5.57142857 108.85,5.72200772 112.3,5.87258687 C113.7,6.02316602 115.1,6.12355212 116.6,6.22393822 Z M80.4,5.92277992 C80.25,5.62162162 80.1,5.42084942 79.85,5.42084942 C79.4,5.37065637 79,5.32046332 78.55,5.27027027 C77.1,5.22007722 75.7,5.22007722 74.25,5.11969112 C72.1,5.01930502 69.95,4.91891892 67.8,4.81853282 C65,4.71814672 62.2,4.61776062 59.45,4.51737452 C56.9,4.41698842 54.35,4.36679537 51.8,4.26640927 C51.5,4.26640927 51.15,4.21621622 50.85,4.36679537 C49.9,5.62162162 49,6.97683398 48.2,8.33204633 C47.25,9.83783784 46.35,11.3436293 45.5,12.8494208 C44.95,13.8030888 44.25,14.7065637 43.9,15.7606178 C43.8,15.96139 43.65,16.2123552 43.9,16.5135135 C44.2,16.7644788 44.65,16.7644788 45.05,16.8146718 C46.95,16.965251 48.85,17.1158301 50.75,17.3166023 C53.55,17.6679537 56.3,17.7683398 59.1,17.8687259 C62.75,18.0694981 66.45,18.1196911 70.1,18.2702703 C70.4,18.2702703 70.75,18.3204633 71.05,18.3204633 C71.7,18.3706564 72.35,18.3706564 72.95,18.3706564 C73.4,18.3706564 73.7,18.2200772 73.85,17.7683398 C73.95,17.4169884 74.15,17.1158301 74.3,16.8146718 C75.25,14.9073359 76.4,13.1505792 77.5,11.3436293 C78.6,9.58687259 79.5,7.67953668 80.4,5.92277992 Z M15.55,18.5212355 C15.4,18.2702703 15.25,18.2200772 15.1,18.2200772 C14.4,18.1698842 13.65,18.1698842 12.95,18.019305 C12.1,17.8687259 11.5,18.2200772 11,18.8725869 C9.55,20.7297297 8.1,22.5868726 6.65,24.4440154 C6.5,24.6447876 6.3,24.8957529 6.4,25.2471042 C6.75,25.5482625 7.2,25.5984556 7.7,25.6486486 C8.25,25.6988417 8.8,25.6988417 9.35,25.7992278 C10,25.8996139 10.45,25.7490347 10.85,25.1467181 C12.25,23.2393822 13.5,21.2316602 15,19.4247104 C15.25,19.1737452 15.45,18.8725869 15.55,18.5212355 Z M36.1,16.2625483 C36.65,16.3127413 37.15,16.1119691 37.6,15.9111969 C38.7,15.3590734 38.95,13.953668 38.1,13.1003861 C37,11.996139 34.4,12.5482625 33.85,14.0540541 C33.55,14.957529 33.9,15.7606178 34.8,16.0617761 C35.25,16.1621622 35.65,16.2625483 36.1,16.2625483 Z M38.45,11.6949807 C39.2,11.6949807 40,11.3938224 40.45,10.992278 C41.3,10.2393822 41.25,9.18532819 40.35,8.53281853 C40.2,8.43243243 40.05,8.38223938 39.95,8.33204633 C39.1,7.98069498 38.25,8.13127413 37.4,8.38223938 C36.8,8.58301158 36.3,9.33590734 36.3,9.98841699 C36.3,10.6409266 36.6,11.1428571 37.2,11.3938224 C37.65,11.5444015 38.05,11.7451737 38.45,11.6949807 Z M19.7,11.6447876 C18.9,11.6447876 18.25,11.8455598 17.8,12.1969112 C16.85,13 16.95,14.3050193 18.1,14.8571429 C18.85,15.2084942 19.7,15.3088803 20.55,14.9073359 C21.4,14.5559846 21.85,13.6023166 21.65,12.7490347 C21.5,12.1467181 20.8,11.6949807 20,11.6447876 C19.85,11.6447876 19.8,11.6447876 19.7,11.6447876 Z M27.95,15.3590734 C28.8,15.4594595 29.5,15.1583012 30.05,14.5057915 C30.65,13.8030888 30.6,13 29.85,12.4478764 C28.7,11.5444015 26.6,11.996139 25.9,13.3011583 C25.6,13.8532819 25.65,14.2548263 26.1,14.7065637 C26.6,15.1583012 27.2,15.4594595 27.95,15.3590734 Z M27.9,4.31660232 C27.9,3.66409266 27.7,3.26254826 27.25,3.01158301 C26.55,2.55984556 24.55,2.76061776 23.9,3.51351351 C23.2,4.26640927 23.3,5.32046332 24.2,5.82239382 C25.15,6.32432432 26.55,6.17374517 27.3,5.42084942 C27.65,5.06949807 27.95,4.71814672 27.9,4.31660232 Z M21.75,10.5405405 C22.6,10.5405405 23.6,10.1891892 24.1,9.78764479 C24.65,9.33590734 24.75,8.43243243 24.25,7.88030888 C23.25,6.72586873 20.9,6.87644788 20,8.58301158 C19.7,9.13513514 19.9,9.78764479 20.45,10.1389961 C20.9,10.4903475 21.4,10.5907336 21.75,10.5405405 Z M41.15,7.07722008 C41.7,6.97683398 42.2,6.97683398 42.7,6.77606178 C43.9,6.37451737 44.1,4.96911197 43.15,4.16602317 C42.9,3.96525097 42.6,3.81467181 42.3,3.76447876 C41.55,3.66409266 40.85,3.76447876 40.2,4.01544402 C39.9,4.11583012 39.65,4.36679537 39.45,4.61776062 C39,5.22007722 39.05,5.97297297 39.65,6.47490347 C40.05,6.82625483 40.6,6.97683398 41.15,7.07722008 Z M33.25,6.67567568 C34,6.72586873 34.65,6.42471042 35.15,5.77220077 C35.7,5.06949807 35.6,4.46718147 34.95,3.86486486 C34.7,3.66409266 34.45,3.51351351 34.1,3.41312741 C33.2,3.21235521 32.35,3.46332046 31.6,3.96525097 C31.45,4.06563707 31.3,4.26640927 31.2,4.41698842 C30.8,5.06949807 30.9,5.62162162 31.45,6.12355212 C31.95,6.62548263 32.55,6.72586873 33.25,6.67567568 Z M30.85,7.57915058 C30.05,7.52895753 29.4,7.77992278 28.8,8.38223938 C28,9.18532819 28.2,10.2895753 29.25,10.7413127 C30.35,11.2432432 31.85,10.8918919 32.6,9.93822394 C33.15,9.23552124 33,8.33204633 32.2,7.93050193 C31.85,7.62934363 31.4,7.52895753 30.85,7.57915058 Z M79,15.7606178 C79.2,16.2123552 79.6,16.2625483 80,16.3127413 C81.5,16.4633205 83,16.5135135 84.55,16.5135135 C84.9,16.5135135 85.3,16.5135135 85.55,16.1621622 C85.5,15.8108108 85.3,15.6602317 84.95,15.5598456 C84.5,15.4092664 84.1,15.5096525 83.65,15.4594595 C82.4,15.3590734 81.2,15.3590734 79.95,15.3590734 C79.5,15.3088803 79.2,15.3590734 79,15.7606178 Z M96.05,13.953668 C96,13.6023166 95.8,13.4517375 95.45,13.3513514 C95,13.2007722 94.6,13.3011583 94.15,13.2509653 C92.9,13.1505792 91.7,13.1505792 90.45,13.1505792 C90.1,13.1505792 89.75,13.2007722 89.55,13.6023166 C89.75,14.0540541 90.15,14.1042471 90.55,14.1544402 C92.05,14.3050193 93.55,14.3552124 95.1,14.3552124 C95.4,14.3552124 95.8,14.3552124 96.05,13.953668 Z M107.45,11.5945946 C107.5,11.3436293 107.45,11.1428571 107.25,11.042471 C106.95,10.8918919 106.65,10.7915058 106.35,10.7915058 C104.95,10.7413127 103.55,10.6409266 102.2,10.5405405 C101.9,10.5405405 101.55,10.4903475 101.25,10.6409266 C101.05,10.7413127 100.85,10.7915058 100.85,11.042471 C100.95,11.3436293 101.2,11.3938224 101.5,11.4440154 C103.05,11.7451737 104.65,11.6447876 106.25,11.8455598 C106.7,11.9459459 107.1,11.7953668 107.45,11.5945946 Z M95,16.6640927 C95.05,16.3127413 94.9,16.1621622 94.7,16.0617761 C94.3,15.8610039 93.85,15.8610039 93.4,15.8108108 C92.3,15.7606178 91.15,15.7606178 90.05,15.6100386 C89.65,15.5598456 89.25,15.6100386 88.85,15.6602317 C88.65,15.7104247 88.35,15.7606178 88.3,16.0617761 C88.4,16.4633205 88.7,16.4633205 89,16.5135135 C90.55,16.8146718 92.1,16.7142857 93.65,16.9150579 C94.15,17.015444 94.6,16.8648649 95,16.6640927 Z M85.95,13.8532819 C86.3,13.8532819 86.55,13.8030888 86.85,13.8030888 C87,13.8030888 87.15,13.6525097 87.15,13.5019305 C87.15,13.3513514 87.05,13.2007722 86.9,13.1505792 C86.4,12.8996139 85.85,12.7992278 85.3,12.7490347 C84.05,12.6988417 82.85,12.6486486 81.6,12.4980695 C81.35,12.4478764 81.1,12.4980695 80.9,12.5482625 C80.8,12.5482625 80.7,12.6988417 80.65,12.7992278 C80.6,12.9498069 80.65,13.1003861 80.8,13.2007722 C81,13.3513514 81.25,13.4015444 81.45,13.4517375 C82.95,13.6023166 84.5,13.7528958 85.95,13.8532819 Z M108.5,8.63320463 C108.3,8.23166023 108,8.13127413 107.7,8.13127413 C106.05,8.03088803 104.35,7.93050193 102.7,7.88030888 C102.5,7.88030888 102.3,7.93050193 102.1,7.98069498 C101.95,8.03088803 101.8,8.13127413 101.8,8.33204633 C101.8,8.53281853 101.95,8.63320463 102.1,8.68339768 C102.4,8.78378378 102.7,8.83397683 103.05,8.88416988 C103.9,8.98455598 104.8,9.03474903 105.65,9.08494208 C106.3,9.13513514 106.9,9.13513514 107.55,9.13513514 C107.9,9.08494208 108.25,9.03474903 108.5,8.63320463 Z M98.2,10.7915058 C97.9,10.3397683 97.45,10.2895753 97,10.2393822 C96.15,10.1891892 95.35,10.0888031 94.5,10.0888031 C93.85,10.03861 93.15,10.03861 92.5,10.03861 C92.2,10.03861 91.95,10.03861 91.7,10.1891892 C91.6,10.2393822 91.5,10.3899614 91.5,10.4401544 C91.5,10.5405405 91.6,10.6911197 91.65,10.7413127 C91.95,10.8416988 92.25,10.9420849 92.55,10.992278 C93.45,11.0926641 94.35,11.1930502 95.25,11.2432432 C95.9,11.2934363 96.5,11.2934363 97.15,11.2934363 C97.55,11.2432432 97.95,11.2432432 98.2,10.7915058 Z M104.4,17.2664093 C103.8,16.8146718 103.8,16.7644788 103.3,16.7644788 C102.65,16.7142857 102.05,16.7644788 101.4,16.6640927 C100.55,16.5637066 99.65,16.5135135 98.8,16.5135135 C98.55,16.5135135 98.25,16.5637066 98,16.6138996 C97.85,16.6640927 97.7,16.7644788 97.7,16.965251 C97.7,17.1660232 97.85,17.2664093 98,17.3166023 C98.25,17.3667954 98.55,17.4671815 98.8,17.5173745 C99.7,17.6177606 100.6,17.6679537 101.5,17.7683398 C102.15,17.8185328 102.75,17.8185328 103.4,17.8185328 C103.8,17.7181467 104.2,17.7181467 104.4,17.2664093 Z M99.15,14.1544402 C99.5,14.5057915 99.9,14.5559846 100.3,14.5559846 C101.7,14.6563707 103.15,14.7567568 104.55,14.8571429 C104.8,14.8571429 105.1,14.8571429 105.4,14.8069498 C105.65,14.7567568 105.85,14.6563707 105.8,14.3552124 C105.2,13.953668 105.2,13.953668 104.65,13.9034749 C103.85,13.8532819 103.05,13.7528958 102.3,13.7528958 C101.5,13.7027027 100.7,13.7027027 99.9,13.7027027 C99.6,13.6023166 99.25,13.6525097 99.15,14.1544402 Z M83.8,7.02702703 C83.7,7.27799228 83.7,7.52895753 84,7.62934363 C84.25,7.72972973 84.5,7.83011583 84.8,7.88030888 C86.35,8.03088803 87.9,8.13127413 89.45,8.23166023 C89.7,8.23166023 90,8.23166023 90.25,8.03088803 C90.3,7.83011583 90.25,7.62934363 90.05,7.52895753 C89.7,7.32818533 89.3,7.22779923 88.9,7.17760618 C87.45,7.07722008 85.95,6.97683398 84.5,6.87644788 C84.25,6.82625483 84,6.82625483 83.8,7.02702703 Z M92.65,7.83011583 C92.7,8.08108108 92.8,8.23166023 92.95,8.28185328 C93.3,8.43243243 93.7,8.53281853 94.1,8.53281853 C95.45,8.58301158 96.8,8.58301158 98.15,8.63320463 C98.4,8.63320463 98.65,8.58301158 98.85,8.53281853 C98.95,8.53281853 99.05,8.38223938 99.1,8.28185328 C99.2,8.13127413 99.1,7.98069498 98.95,7.88030888 C98.6,7.62934363 98.25,7.57915058 97.8,7.57915058 C96.45,7.52895753 95.1,7.47876448 93.75,7.42857143 C93.4,7.47876448 93.05,7.52895753 92.65,7.83011583 Z M82.05,10.0888031 C82.45,10.6409266 83,10.6911197 83.5,10.7413127 C84.9,10.7915058 86.25,10.7915058 87.65,10.8416988 C87.9,10.8416988 88.1,10.7915058 88.35,10.7413127 C88.45,10.6911197 88.55,10.5907336 88.55,10.4903475 C88.55,10.3899614 88.5,10.2393822 88.45,10.1891892 C88.15,9.88803089 87.75,9.88803089 87.35,9.83783784 C85.95,9.78764479 84.55,9.88803089 83.2,9.68725869 C82.8,9.58687259 82.45,9.68725869 82.05,10.0888031 Z" id="Shape" fill="#87D7DC"/>
          <path d="M32.2,19.7258687 C32.25,20.0772201 32.15,20.2277992 32,20.4285714 C31,21.7335907 30.05,23.03861 29.05,24.3938224 C28.8,24.7451737 28.45,25.0965251 28.65,25.5984556 C29.3,25.8494208 29.95,25.7490347 30.65,25.7992278 C30.95,25.7992278 31.2,25.6486486 31.35,25.3976834 C31.9,24.7451737 32.4,24.0926641 32.9,23.4401544 C33.45,22.6872587 34,21.8841699 34.55,21.0810811 C34.85,20.6795367 35.15,20.3281853 35.45,20.027027 C35.85,19.9266409 36.2,19.8764479 36.55,20.027027 C36.55,20.3281853 36.4,20.5289575 36.2,20.7799228 C35.25,22.034749 34.3,23.3397683 33.3,24.6447876 C33.05,24.996139 32.75,25.3474903 32.9,25.8494208 C33.6,26.1003861 34.3,26.0501931 35,26.0501931 C35.3,26.0501931 35.5,25.7992278 35.7,25.5984556 C36.3,24.9459459 36.85,24.2432432 37.3,23.5405405 C38,22.5366795 38.7,21.4826255 39.5,20.5289575 C39.85,20.1274131 40.2,20.0772201 40.65,20.2779923 C40.75,20.5289575 40.6,20.6795367 40.5,20.8301158 C39.55,22.1853282 38.55,23.5907336 37.6,24.9459459 C37.35,25.2972973 37.05,25.6486486 37.1,26.2007722 C37.8,26.6525097 38.6,26.5521236 39.35,26.4517375 C39.65,26.4015444 39.8,26.1003861 40,25.8996139 C40.85,24.996139 41.55,23.9420849 42.2,22.8880309 C42.75,22.034749 43.35,21.1814672 43.95,20.2779923 C45.1,20.3281853 46.2,20.4285714 47.3,20.4787645 C47.5,20.7799228 47.3,20.980695 47.2,21.1312741 C46.6,21.984556 45.95,22.7876448 45.35,23.6409266 C44.9,24.2432432 44.45,24.8455598 44,25.4478764 C43.8,25.6988417 43.65,26 43.75,26.4015444 C44.4,26.8030888 45.2,26.7027027 45.9,26.6525097 C46.15,26.6525097 46.3,26.4015444 46.45,26.2509653 C47.05,25.5984556 47.6,24.8957529 48.1,24.1930502 C48.9,22.988417 49.7,21.7837838 50.7,20.7297297 C51.05,20.6293436 51.35,20.6293436 51.7,20.8301158 C51.7,21.1312741 51.55,21.3822394 51.4,21.5830116 C50.75,22.4362934 50.1,23.2895753 49.45,24.1930502 C49.05,24.6949807 48.7,25.1969112 48.3,25.7490347 C48.2,25.8996139 48.1,26.1003861 48,26.3011583 C47.95,26.4015444 48,26.5521236 47.95,26.7027027 C48.7,27.1544402 49.5,27.003861 50.25,27.003861 C51.1,26.3011583 51.7,25.3976834 52.35,24.5444015 C53.15,23.3397683 53.95,22.1351351 54.95,21.0810811 C55.95,20.980695 58.1,21.0810811 58.95,21.3320463 C59.05,21.5328185 58.95,21.6833977 58.8,21.8339768 C58.05,22.8378378 57.25,23.8918919 56.5,24.8957529 C56.2,25.2972973 55.9,25.7490347 55.6,26.1505792 C55.45,26.4015444 55.3,26.6525097 55.4,27.003861 C56.05,27.3552124 56.85,27.3050193 57.55,27.2548263 C57.8,27.2548263 57.95,27.003861 58.1,26.8532819 C58.7,26.2509653 59.2,25.5984556 59.65,24.8957529 C60.2,24.0926641 60.8,23.2393822 61.4,22.4362934 C61.6,22.1853282 61.8,21.9343629 62,21.6833977 C62.4,21.2316602 62.8,21.2818533 63.3,21.5830116 C62.75,22.6370656 62.05,23.4903475 61.4,24.3436293 C60.75,25.2471042 59.95,26.0501931 59.55,27.1544402 C60.35,27.6563707 61.15,27.5559846 61.9,27.4555985 C62.1,27.4555985 62.3,27.2046332 62.45,27.003861 C63.05,26.4015444 63.55,25.6988417 64,25.046332 C64.55,24.2432432 65.1,23.4903475 65.65,22.6872587 C65.85,22.4362934 66.05,22.1853282 66.25,21.9343629 C66.55,21.5328185 66.95,21.4826255 67.4,21.6332046 C67.6,21.8841699 67.45,22.0849421 67.3,22.2857143 C66.65,23.1389961 66,24.042471 65.35,24.8957529 C64.9,25.4980695 64.5,26.0501931 64.05,26.6525097 C63.8,27.003861 63.85,27.003861 63.85,27.6563707 C64.45,27.8571429 65.1,27.8069498 65.75,27.8069498 C66.1,27.8069498 66.35,27.6061776 66.55,27.3552124 C67.15,26.7027027 67.7,26 68.2,25.2972973 C69,24.0926641 69.8,22.8880309 70.85,21.7837838 C72.15,21.6833977 73.45,21.8841699 74.8,21.984556 C74.8,22.3861004 74.65,22.6370656 74.5,22.8378378 C73.85,23.6911197 73.2,24.5444015 72.55,25.4478764 C72.15,25.9498069 71.8,26.4517375 71.4,27.003861 C71.2,27.2548263 71.05,27.5559846 71.15,27.957529 C71.8,28.3590734 72.6,28.2586873 73.3,28.2084942 C73.55,28.2084942 73.7,27.957529 73.85,27.8069498 C74.45,27.1544402 75,26.4517375 75.5,25.7490347 C76.3,24.5444015 77.1,23.3397683 78.1,22.2857143 C78.4,22.2355212 78.75,22.1351351 79.1,22.3359073 C79.1,22.6370656 78.95,22.8880309 78.8,23.0888031 C78.15,23.9420849 77.5,24.7953668 76.85,25.6988417 C76.45,26.2007722 76.1,26.7027027 75.7,27.2548263 C75.5,27.5057915 75.35,27.8069498 75.4,28.2084942 C76.1,28.6602317 76.9,28.5598456 77.65,28.4594595 C77.85,28.4594595 78.05,28.2084942 78.2,28.007722 C78.8,27.3552124 79.35,26.6525097 79.85,25.9498069 C80.65,24.7451737 81.45,23.5405405 82.5,22.4362934 C83.4,22.4864865 84.35,22.5366795 85.3,22.5366795 C85.45,22.9382239 85.2,23.1891892 85.05,23.4401544 C84.45,24.2934363 83.8,25.0965251 83.15,25.9498069 C82.7,26.5019305 82.3,27.1042471 81.85,27.7065637 C81.65,27.957529 81.5,28.2586873 81.7,28.6602317 C82.35,28.9111969 83.05,28.8610039 83.8,28.8108108 C84.1,28.8108108 84.3,28.5598456 84.45,28.3590734 C85,27.7065637 85.5,27.0540541 86,26.3513514 C86.85,25.1467181 87.65,23.8918919 88.7,22.7876448 C89,22.6872587 89.3,22.7374517 89.6,22.7876448 C89.65,22.8880309 89.7,22.988417 89.7,23.03861 C89.65,23.3397683 89.5,23.5405405 89.3,23.7915058 C88.35,25.046332 87.4,26.3513514 86.4,27.6563707 C86.15,28.007722 85.85,28.3590734 86,28.8610039 C86.7,29.1119691 87.4,29.0617761 88.1,29.0617761 C88.4,29.0617761 88.6,28.8108108 88.75,28.6100386 C89.3,27.957529 89.8,27.3050193 90.3,26.6023166 C91.15,25.3976834 91.95,24.1428571 93,23.0888031 C93.25,22.988417 93.55,22.988417 93.8,23.1389961 C93.95,23.4903475 93.75,23.7413127 93.6,24.042471 C93,24.8455598 92.4,25.6486486 91.8,26.4517375 C91.35,27.003861 90.95,27.6061776 90.5,28.1583012 C90.3,28.4594595 90.1,28.7606178 90.2,29.2123552 C90.85,29.5637066 91.55,29.4633205 92.25,29.4633205 C92.55,29.4633205 92.75,29.2123552 92.95,29.011583 C93.55,28.3590734 94.1,27.6563707 94.6,26.953668 C95.4,25.7490347 96.2,24.5444015 97.25,23.4903475 C97.95,23.5405405 98.7,23.4903475 99.5,23.6911197 C99.5,24.1930502 99.25,24.5444015 99.05,24.8957529 C97.5,27.6563707 95.9,30.3667954 94.3,33.1274131 C92.75,33.2277992 91.25,32.9266409 89.75,32.8764479 C88.1,32.7760618 86.4,32.6254826 84.75,32.4749035 C81.85,32.2741313 78.95,32.023166 76.05,31.8223938 C74.2,31.6718147 72.3,31.5714286 70.45,31.4710425 C67.4,31.2702703 64.4,31.019305 61.35,30.8185328 C59.5,30.7181467 57.7,30.6177606 55.85,30.4671815 C54.3,30.3667954 52.75,30.2162162 51.2,30.1158301 C49.5,30.015444 47.75,29.9150579 46.05,29.7644788 C44,29.6138996 42,29.5135135 39.95,29.3629344 C36.65,29.1119691 33.35,28.8610039 30.05,28.6100386 C27.2,28.4092664 24.4,28.1583012 21.55,27.957529 C19.55,27.8069498 17.55,27.7065637 15.55,27.5559846 C14.9,27.5057915 14.2,27.5057915 13.6,27.3050193 C13.6,26.953668 13.75,26.7027027 13.95,26.5019305 C15.4,25.046332 16.55,23.3397683 17.8,21.7335907 C18.3,21.1312741 18.75,20.5791506 19.25,19.976834 C19.5,19.6254826 19.8,19.4247104 20.3,19.5752896 C20.65,19.6756757 21.05,19.6756757 21.45,19.7258687 C21.5,19.976834 21.45,20.1776062 21.3,20.3281853 C20.65,21.1814672 20.05,21.984556 19.4,22.8378378 C18.95,23.3899614 18.55,23.992278 18.1,24.5945946 C17.9,24.8455598 17.75,25.1467181 17.9,25.5482625 C18.55,25.7992278 19.3,25.7490347 20.05,25.6988417 C20.3,25.6988417 20.45,25.4980695 20.6,25.2972973 C21.1,24.6949807 21.65,24.0926641 22.1,23.4401544 C23,22.1853282 23.8,20.8803089 24.9,19.7258687 C25.25,19.6254826 25.7,19.6756757 26.15,19.7760618 C26.25,20.0772201 26.1,20.2277992 25.95,20.3783784 C25.2,21.3822394 24.45,22.3861004 23.7,23.3397683 C23.3,23.8416988 22.95,24.3436293 22.55,24.8957529 C22.35,25.1467181 22.4,25.1467181 22.35,25.8494208 C23.05,26.1003861 23.75,26.0501931 24.45,26 C24.75,26 24.95,25.7490347 25.1,25.5482625 C25.65,24.8957529 26.15,24.2432432 26.65,23.5405405 C27.4,22.4362934 28.2,21.3822394 29,20.3783784 C29.3,19.976834 29.65,19.8262548 30.15,19.8764479 C31.1,19.6254826 31.65,19.6756757 32.2,19.7258687 Z" id="Shape" fill="#FFFFFF"/>
          <path d="M95.35,39.4015444 C95.45,37.8455598 94.9,36.4401544 95.1,34.984556 C95.65,34.6833977 96.2,34.8339768 96.75,34.8841699 C98,35.0849421 99.2,34.984556 100.45,35.0849421 C100.6,35.0849421 100.75,35.0849421 101,35.0849421 C101.3,36.4903475 101.45,37.8455598 101.6,39.2007722 C101.8,40.5559846 102.05,41.9111969 102.35,43.4169884 C101.75,43.4671815 101.25,43.4671815 100.7,43.5173745 C98.6,43.5173745 96.5,43.3166023 94.4,43.1158301 C93.95,43.0656371 93.5,43.0656371 93.1,43.0656371 C91.5,43.015444 89.9,42.8146718 88.35,42.7142857 C87.15,42.6640927 85.95,42.6138996 84.75,42.4633205 C82.55,42.2625483 80.3,42.1119691 78.1,41.96139 C76.05,41.8108108 73.95,41.6602317 71.9,41.5096525 C70.35,41.3590734 68.8,41.4594595 67.25,41.1583012 C67.15,41.1583012 67.1,41.1583012 67,41.1583012 C65.1,41.0579151 63.15,40.957529 61.25,40.8571429 C59.65,40.7567568 58.05,40.6061776 56.5,40.4555985 C56.4,40.4555985 56.35,40.4555985 56.25,40.4555985 C54.35,40.3552124 52.4,40.2548263 50.5,40.1544402 C49.05,40.0540541 47.65,39.9034749 46.2,39.8030888 C46.05,39.8030888 45.9,39.8030888 45.7,39.7528958 C43.65,39.6525097 41.65,39.6023166 39.6,39.4015444 C38.5,39.3011583 37.35,39.3513514 36.3,39.0501931 C36.2,39 36.05,39.0501931 35.95,39 C34.35,38.8996139 32.75,38.8494208 31.15,38.6988417 C29.7,38.5482625 28.2,38.4478764 26.75,38.3474903 C24.65,38.1969112 22.55,37.996139 20.45,37.8957529 C18.2,37.7451737 15.95,37.5444015 13.65,37.4440154 C11.95,37.3938224 10.25,37.1930502 8.55,36.992278 C6.9,36.8416988 5.3,36.6409266 3.7,36.4903475 C3.5,36.4903475 3.3,36.3899614 3.05,36.2895753 C2.85,35.3861004 2.6,34.4826255 2.45,33.5289575 C2.35,32.6254826 2.1,31.7220077 2,30.8185328 C1.9,29.8648649 1.55,28.96139 1.6,27.957529 C2.15,27.8069498 2.65,27.9073359 3.15,27.957529 C4.4,28.1081081 5.6,28.2586873 6.8,28.4092664 C7.9,28.5598456 9,28.6100386 10.15,28.6602317 C10.5,28.6602317 10.85,28.8108108 11.25,28.8610039 C11.45,29.3127413 11.55,29.7644788 11.6,30.2162162 C11.75,31.019305 11.9,31.7722008 12.1,32.5752896 C12.2,33.0772201 12.5,33.4285714 13.1,33.4787645 C13.35,33.4787645 13.55,33.5791506 13.8,33.6293436 C14.8,33.6795367 15.8,33.7799228 16.8,33.8301158 C18.7,33.980695 20.65,33.980695 22.55,34.1814672 C24.1,34.3822394 25.65,34.3320463 27.2,34.5328185 C28.35,34.6833977 29.5,34.7335907 30.65,34.7837838 C32.3,34.8841699 33.9,35.034749 35.55,35.2355212 C35.65,35.2355212 35.7,35.2355212 35.8,35.2355212 C37.7,35.3359073 39.65,35.3861004 41.55,35.5868726 C42.9,35.7374517 44.25,35.6370656 45.6,35.9382239 C45.75,35.988417 45.9,35.988417 46.1,35.9382239 C47.95,35.8880309 49.75,36.0888031 51.6,36.2895753 C53.2,36.4401544 54.8,36.3397683 56.35,36.6409266 C56.5,36.6911197 56.65,36.6409266 56.85,36.6911197 C58.7,36.7915058 60.55,36.7915058 62.35,37.042471 C63.7,37.1930502 65.05,37.0926641 66.4,37.3938224 C66.5,37.4440154 66.65,37.3938224 66.75,37.3938224 C68.6,37.4942085 70.5,37.5945946 72.35,37.6949807 C75.15,37.8957529 77.9,38.1467181 80.7,38.3474903 C82.2,38.4478764 83.75,38.4980695 85.25,38.6486486 C86.75,38.7992278 88.3,38.7490347 89.75,39.0501931 C89.85,39.0501931 89.9,39.0501931 90,39.0501931 C91.65,39.1505792 93.25,39.2509653 94.9,39.3513514 C94.9,39.4517375 95.1,39.4015444 95.35,39.4015444 Z" id="Shape" fill="#498D91"/>
          <path d="M94,34.1312741 C93.75,35.3861004 94.25,36.3899614 94.2,37.5945946 C93.2,37.5444015 92.15,37.5444015 91.15,37.4440154 C89.55,37.3436293 87.95,37.1930502 86.35,37.042471 C83.6,36.8416988 80.85,36.6911197 78.1,36.4903475 C75.45,36.2895753 72.85,36.0888031 70.2,35.8880309 C68.75,35.7876448 67.25,35.6872587 65.8,35.5868726 C62.7,35.3359073 59.6,35.1351351 56.5,34.8841699 C54.95,34.7837838 53.4,34.6833977 51.85,34.5830116 C49.15,34.3822394 46.45,34.1814672 43.75,33.980695 C42.35,33.8803089 40.95,33.7799228 39.55,33.6795367 C36.5,33.4787645 33.5,33.2277992 30.45,32.976834 C27.8,32.7760618 25.1,32.6254826 22.45,32.4247104 C19.8,32.2239382 17.1,32.023166 14.45,31.8223938 C14.35,31.8223938 14.2,31.7722008 14.05,31.7220077 C13.85,30.6177606 13.55,29.5135135 13.45,28.3088803 C14.25,28.2586873 14.95,28.3088803 15.65,28.3590734 C17.7,28.5096525 19.8,28.6602317 21.85,28.8108108 C25.45,29.1119691 29.1,29.4131274 32.7,29.6640927 C35.85,29.9150579 39,30.1660232 42.15,30.3667954 C45.75,30.6177606 49.3,30.8687259 52.9,31.1196911 C54.6,31.2200772 56.35,31.3204633 58.05,31.4710425 C60.85,31.6718147 63.6,31.8725869 66.4,32.0733591 C68.05,32.1737452 69.65,32.2741313 71.3,32.3745174 C73.5,32.5250965 75.7,32.6756757 77.85,32.8262548 C81.45,33.0772201 85,33.3281853 88.6,33.5791506 C90.05,33.6795367 91.45,33.7799228 92.9,33.8803089 C93.25,33.980695 93.6,34.0810811 94,34.1312741 Z" id="Shape" fill="#D0E9EA"/>
          <path d="M117.05,7.83011583 C117.2,8.03088803 117.25,8.08108108 117.25,8.13127413 C117.45,9.63706564 117.65,11.1428571 117.85,12.6486486 C117.95,13.5521236 117.7,14.3552124 117.35,15.2084942 C116.3,17.8687259 114.8,20.2779923 113.6,22.8378378 C112.95,24.1930502 112.2,25.5482625 111.45,26.8532819 C109.55,30.3166023 107.75,33.8301158 106,37.3938224 C105.25,38.8996139 104.45,40.4054054 103.7,41.8610039 C103.65,42.011583 103.5,42.1119691 103.35,42.3127413 C103.15,42.011583 103.05,41.7104247 103,41.4092664 C102.75,39.7027027 102.55,37.996139 102.2,36.2895753 C101.95,35.1853282 102.25,34.3822394 102.8,33.4787645 C105.35,29.3127413 107.5,24.9459459 109.8,20.6293436 C112,16.4633205 114.25,12.2972973 116.65,8.28185328 C116.75,8.18146718 116.9,8.03088803 117.05,7.83011583 Z" id="Shape" fill="#61AFB4"/>
          <path d="M80.4,5.92277992 C79.45,7.72972973 78.55,9.58687259 77.5,11.3436293 C76.4,13.1505792 75.25,14.957529 74.3,16.8146718 C74.15,17.1158301 73.95,17.4671815 73.85,17.7683398 C73.7,18.2200772 73.4,18.4208494 72.95,18.3706564 C72.3,18.3706564 71.65,18.3204633 71.05,18.3204633 C70.75,18.3204633 70.4,18.2702703 70.1,18.2702703 C66.45,18.1698842 62.75,18.0694981 59.1,17.8687259 C56.3,17.7181467 53.5,17.6177606 50.75,17.3166023 C48.85,17.1158301 46.95,16.965251 45.05,16.8146718 C44.6,16.7644788 44.15,16.7644788 43.9,16.5135135 C43.7,16.1621622 43.85,15.96139 43.9,15.7606178 C44.3,14.7065637 44.95,13.8030888 45.5,12.8494208 C46.35,11.2934363 47.3,9.83783784 48.2,8.33204633 C49.05,6.97683398 49.9,5.62162162 50.85,4.36679537 C51.15,4.16602317 51.5,4.21621622 51.8,4.26640927 C54.35,4.36679537 56.9,4.41698842 59.45,4.51737452 C62.25,4.61776062 65.05,4.71814672 67.8,4.81853282 C69.95,4.91891892 72.1,5.01930502 74.25,5.11969112 C75.7,5.16988417 77.1,5.22007722 78.55,5.27027027 C79,5.27027027 79.4,5.37065637 79.85,5.42084942 C80.15,5.42084942 80.3,5.57142857 80.4,5.92277992 Z M56.85,16.6640927 C57.85,16.8146718 58.8,16.8146718 59.8,16.7644788 C60.1,16.7644788 60.45,16.8146718 60.75,16.8146718 C62.45,16.9150579 64.2,16.9150579 65.9,17.1158301 C67.9,17.3166023 69.9,17.1660232 71.85,17.3667954 C72.3,17.4169884 72.8,17.2664093 73,16.7142857 C73.2,16.2625483 73.5,15.9111969 73.75,15.5096525 C75.15,13.1003861 76.5,10.7413127 77.9,8.33204633 C78.2,7.77992278 78.65,7.22779923 78.75,6.42471042 C77.15,6.47490347 75.7,6.07335907 74.15,6.22393822 C72.95,6.02316602 71.75,6.17374517 70.5,6.07335907 C69.55,5.92277992 68.65,5.97297297 67.7,6.02316602 C66.25,5.97297297 64.75,5.87258687 63.3,5.82239382 C63.2,5.82239382 63.05,5.77220077 62.95,5.77220077 C60.25,5.67181467 57.55,5.57142857 54.8,5.47104247 C54.5,5.47104247 54.15,5.42084942 53.85,5.37065637 C53.05,5.27027027 52.25,5.22007722 51.5,5.27027027 C49.75,7.72972973 45.7,14.4054054 45.1,15.8108108 C46.45,16.1621622 47.8,16.0617761 49.15,16.1119691 C49.25,16.1621622 49.35,16.2625483 49.45,16.2625483 C50.75,16.3629344 52,16.4131274 53.3,16.5135135 C54.55,16.5135135 55.7,16.5637066 56.85,16.6640927 Z" id="Shape" fill="#010201"/>
          <path d="M15.55,18.5212355 C15.45,18.8725869 15.25,19.1737452 15.05,19.4749035 C13.55,21.2818533 12.3,23.2895753 10.9,25.1969112 C10.45,25.7490347 10.05,25.9498069 9.4,25.8494208 C8.85,25.7490347 8.3,25.7490347 7.75,25.6988417 C7.25,25.6486486 6.8,25.5984556 6.45,25.2972973 C6.35,24.8957529 6.55,24.6949807 6.7,24.4942085 C8.15,22.6370656 9.6,20.7799228 11.05,18.9227799 C11.55,18.2702703 12.15,17.9189189 13,18.0694981 C13.7,18.1698842 14.45,18.2200772 15.15,18.2702703 C15.25,18.2200772 15.4,18.2702703 15.55,18.5212355 Z M12.6,21.0810811 C13,20.3783784 13.65,19.9266409 13.95,19.1235521 C13.55,18.8725869 13.2,18.9227799 12.85,19.023166 C12.45,19.5250965 12.05,19.976834 11.65,20.4285714 C11.6,20.5289575 11.6,20.6293436 11.55,20.7799228 C11.9,20.8803089 12.2,20.980695 12.6,21.0810811 Z M11.75,21.8841699 C11.2,21.8339768 10.7,21.7335907 10.15,21.6833977 C9.8,21.984556 9.55,22.2857143 9.35,22.7374517 C10,22.7876448 10.6,22.8880309 11.25,22.9382239 C11.45,22.5868726 11.75,22.3359073 11.75,21.8841699 Z M10.25,24.0926641 C9,23.9420849 9,23.9420849 8.75,24.6949807 C9.3,24.7451737 9.9,24.996139 10.25,24.0926641 Z" id="Shape" fill="#020202"/>
          <path d="M36.1,16.2625483 C35.7,16.3127413 35.25,16.2123552 34.85,16.0617761 C33.95,15.7606178 33.6,14.957529 33.9,14.0540541 C34.45,12.5482625 37.05,11.996139 38.15,13.1003861 C39,13.953668 38.75,15.3590734 37.65,15.9111969 C37.15,16.1119691 36.65,16.2625483 36.1,16.2625483 Z M36.25,15.1081081 C36.75,15.1081081 37.05,15.007722 37.3,14.7065637 C37.55,14.4555985 37.5,14.1042471 37.25,13.9034749 C36.8,13.4517375 35.45,13.7027027 35.15,14.0540541 C34.9,14.3050193 34.95,14.7065637 35.25,14.8571429 C35.55,15.007722 35.9,15.1081081 36.25,15.1081081 Z" id="Shape" fill="#030606"/>
          <path d="M38.45,11.6949807 C38.05,11.7451737 37.65,11.5444015 37.25,11.3938224 C36.65,11.1428571 36.35,10.6409266 36.35,9.98841699 C36.35,9.33590734 36.85,8.58301158 37.45,8.38223938 C38.3,8.13127413 39.15,7.93050193 40,8.33204633 C40.15,8.38223938 40.3,8.43243243 40.4,8.53281853 C41.3,9.18532819 41.3,10.2393822 40.5,10.992278 C40.05,11.4440154 39.2,11.6949807 38.45,11.6949807 Z M37.55,10.4401544 C37.8,10.5405405 38.1,10.6409266 38.4,10.6911197 C38.9,10.7915058 39.35,10.6409266 39.7,10.2895753 C40,10.03861 39.9,9.58687259 39.6,9.38610039 C39.05,9.03474903 38.5,9.08494208 37.9,9.33590734 C37.45,9.53667954 37.4,9.63706564 37.55,10.4401544 Z" id="Shape" fill="#040605"/>
          <path d="M19.7,11.6447876 C19.8,11.6447876 19.85,11.6447876 19.95,11.6447876 C20.8,11.6949807 21.5,12.1467181 21.6,12.7490347 C21.8,13.6525097 21.35,14.5559846 20.5,14.9073359 C19.7,15.2586873 18.85,15.2084942 18.05,14.8571429 C16.95,14.3050193 16.8,13 17.75,12.1969112 C18.25,11.8455598 18.9,11.6447876 19.7,11.6447876 Z M19.45,14.1042471 C19.7,14.1042471 20,13.953668 20.25,13.7528958 C20.6,13.4517375 20.55,12.9498069 20.1,12.7992278 C19.85,12.6988417 19.55,12.6486486 19.3,12.6486486 C18.75,12.6988417 18.3,13.1003861 18.3,13.5019305 C18.35,13.8030888 18.85,14.1042471 19.45,14.1042471 Z" id="Shape" fill="#040505"/>
          <path d="M27.95,15.3590734 C27.2,15.4594595 26.6,15.1583012 26.1,14.6563707 C25.65,14.2548263 25.6,13.8030888 25.9,13.2509653 C26.6,11.9459459 28.7,11.4942085 29.85,12.3976834 C30.55,12.9498069 30.65,13.7528958 30.05,14.4555985 C29.5,15.1583012 28.8,15.4594595 27.95,15.3590734 Z M29.3,13.6525097 C29.05,13.1505792 28.7,12.9498069 28.25,12.9498069 C27.75,12.9498069 27.3,13.1003861 27,13.5019305 C26.8,13.7528958 26.95,14.2046332 27.25,14.2548263 C28,14.4555985 28.75,14.5057915 29.3,13.6525097 Z" id="Shape" fill="#030604"/>
          <path d="M27.9,4.31660232 C27.95,4.71814672 27.65,5.06949807 27.3,5.42084942 C26.5,6.17374517 25.1,6.32432432 24.2,5.82239382 C23.3,5.32046332 23.2,4.26640927 23.9,3.51351351 C24.55,2.81081081 26.55,2.61003861 27.25,3.01158301 C27.7,3.26254826 27.9,3.66409266 27.9,4.31660232 Z M26.7,4.16602317 C26.45,3.71428571 26.05,3.76447876 25.65,3.76447876 C25.25,3.76447876 24.95,3.86486486 24.65,4.11583012 C24.55,4.21621622 24.5,4.31660232 24.45,4.41698842 C24.4,4.56756757 24.45,4.76833977 24.6,4.81853282 C25,5.06949807 25.45,4.96911197 25.85,4.91891892 C26.35,4.86872587 26.6,4.61776062 26.7,4.16602317 Z" id="Shape" fill="#030506"/>
          <path d="M21.75,10.5405405 C21.4,10.5405405 20.9,10.4401544 20.45,10.1389961 C19.9,9.73745174 19.7,9.13513514 20,8.58301158 C20.9,6.87644788 23.25,6.72586873 24.25,7.88030888 C24.75,8.43243243 24.65,9.33590734 24.1,9.78764479 C23.6,10.1891892 22.6,10.5405405 21.75,10.5405405 Z M20.95,9.08494208 C21.95,9.78764479 22.55,9.68725869 23.45,8.68339768 C23.05,8.08108108 22.95,8.03088803 22.35,8.03088803 C21.65,8.08108108 21.2,8.38223938 20.95,9.08494208 Z" id="Shape" fill="#050504"/>
          <path d="M41.15,7.07722008 C40.6,6.97683398 40.05,6.82625483 39.65,6.42471042 C39.1,5.97297297 39,5.16988417 39.45,4.56756757 C39.65,4.31660232 39.9,4.11583012 40.2,3.96525097 C40.9,3.71428571 41.6,3.61389961 42.3,3.71428571 C42.6,3.76447876 42.9,3.91505792 43.15,4.11583012 C44.1,4.91891892 43.85,6.32432432 42.7,6.72586873 C42.2,6.97683398 41.65,6.97683398 41.15,7.07722008 Z M40.1,5.47104247 C40.8,6.02316602 41.35,6.07335907 42.1,5.77220077 C42.3,5.67181467 42.55,5.57142857 42.5,5.27027027 C42.5,5.01930502 42.3,4.81853282 42.05,4.76833977 C41.65,4.61776062 41.25,4.66795367 40.9,4.76833977 C40.6,4.86872587 40.25,5.01930502 40.1,5.47104247 Z" id="Shape" fill="#050304"/>
          <path d="M33.25,6.67567568 C32.55,6.67567568 32,6.57528958 31.5,6.17374517 C30.95,5.67181467 30.85,5.11969112 31.25,4.46718147 C31.35,4.31660232 31.5,4.11583012 31.65,4.01544402 C32.4,3.51351351 33.2,3.26254826 34.15,3.46332046 C34.45,3.56370656 34.75,3.71428571 35,3.91505792 C35.65,4.46718147 35.75,5.11969112 35.2,5.82239382 C34.65,6.47490347 33.95,6.72586873 33.25,6.67567568 Z M32,5.11969112 C32.5,5.62162162 32.6,5.62162162 33,5.67181467 C33.4,5.67181467 33.8,5.57142857 34.1,5.37065637 C34.4,5.16988417 34.3,4.76833977 34,4.61776062 C33.6,4.41698842 33.2,4.51737452 32.85,4.61776062 C32.5,4.66795367 32.1,4.71814672 32,5.11969112 Z" id="Shape" fill="#040405"/>
          <path d="M30.85,7.57915058 C31.35,7.52895753 31.8,7.67953668 32.25,7.93050193 C33.05,8.33204633 33.2,9.23552124 32.65,9.93822394 C31.9,10.8918919 30.4,11.2432432 29.3,10.7413127 C28.25,10.2895753 28.05,9.18532819 28.85,8.38223938 C29.4,7.77992278 30.1,7.52895753 30.85,7.57915058 Z M31.9,8.98455598 C31.3,8.53281853 31.2,8.53281853 30.7,8.53281853 C30.25,8.53281853 29.85,8.73359073 29.55,9.03474903 C29.3,9.28571429 29.35,9.63706564 29.65,9.83783784 C30.05,10.0888031 30.5,10.0888031 30.9,9.98841699 C31.3,9.78764479 31.75,9.58687259 31.9,8.98455598 Z" id="Shape" fill="#040506"/>
          <path d="M79,15.7606178 C79.2,15.3590734 79.55,15.3088803 79.9,15.3088803 C81.15,15.3590734 82.35,15.3590734 83.6,15.4092664 C84.05,15.4594595 84.45,15.3590734 84.9,15.5096525 C85.25,15.6100386 85.45,15.7606178 85.5,16.1119691 C85.25,16.4633205 84.85,16.4633205 84.5,16.4633205 C83,16.4633205 81.45,16.4131274 79.95,16.2625483 C79.55,16.2625483 79.2,16.2123552 79,15.7606178 Z" id="Shape" fill="#0C1212"/>
          <path d="M96.05,13.953668 C95.8,14.3050193 95.4,14.3050193 95.05,14.3050193 C93.55,14.3050193 92,14.3050193 90.5,14.1042471 C90.1,14.0540541 89.7,14.003861 89.5,13.5521236 C89.7,13.1505792 90.05,13.1003861 90.4,13.1003861 C91.65,13.1505792 92.85,13.1505792 94.1,13.2007722 C94.55,13.2509653 94.95,13.1505792 95.4,13.3011583 C95.8,13.4517375 96,13.6023166 96.05,13.953668 Z" id="Shape" fill="#0D1313"/>
          <path d="M107.45,11.5945946 C107.1,11.7953668 106.65,11.9459459 106.25,11.8957529 C104.65,11.6949807 103.05,11.7953668 101.5,11.4942085 C101.2,11.4440154 100.95,11.3938224 100.85,11.0926641 C100.85,10.8416988 101.05,10.7915058 101.25,10.6911197 C101.55,10.5405405 101.9,10.5907336 102.2,10.5907336 C103.6,10.6409266 105,10.7413127 106.35,10.8416988 C106.7,10.8416988 106.95,10.9420849 107.25,11.0926641 C107.45,11.1428571 107.55,11.2934363 107.45,11.5945946 Z" id="Shape" fill="#090C0D"/>
          <path d="M95,16.6640927 C94.6,16.8648649 94.15,17.015444 93.7,16.965251 C92.15,16.7644788 90.6,16.8648649 89.05,16.5637066 C88.75,16.5135135 88.4,16.5135135 88.35,16.1119691 C88.4,15.8108108 88.7,15.7606178 88.9,15.7104247 C89.3,15.6602317 89.7,15.6100386 90.1,15.6602317 C91.2,15.8108108 92.3,15.8108108 93.45,15.8610039 C93.9,15.8610039 94.3,15.9111969 94.75,16.1119691 C94.9,16.1621622 95.05,16.3127413 95,16.6640927 Z" id="Shape" fill="#090D0E"/>
          <path d="M85.95,13.8532819 C84.5,13.7027027 83,13.5521236 81.5,13.4015444 C81.25,13.4015444 81,13.3513514 80.85,13.1505792 C80.7,13.0501931 80.65,12.8996139 80.7,12.7490347 C80.75,12.6486486 80.85,12.4980695 80.95,12.4980695 C81.2,12.4478764 81.45,12.3976834 81.65,12.4478764 C82.9,12.6486486 84.1,12.6486486 85.35,12.6988417 C85.9,12.7490347 86.45,12.8494208 86.95,13.1003861 C87.1,13.2007722 87.2,13.3011583 87.2,13.4517375 C87.2,13.6023166 87.05,13.7528958 86.9,13.7528958 C86.55,13.8532819 86.25,13.8532819 85.95,13.8532819 Z" id="Shape" fill="#080B0B"/>
          <path d="M108.5,8.63320463 C108.3,9.08494208 107.9,9.08494208 107.55,9.08494208 C106.9,9.08494208 106.3,9.08494208 105.65,9.03474903 C104.8,8.98455598 103.9,8.88416988 103.05,8.83397683 C102.75,8.78378378 102.45,8.73359073 102.1,8.63320463 C101.95,8.58301158 101.8,8.48262548 101.8,8.28185328 C101.8,8.13127413 101.95,7.98069498 102.1,7.93050193 C102.3,7.88030888 102.5,7.83011583 102.7,7.83011583 C104.35,7.93050193 106.05,7.98069498 107.7,8.08108108 C108,8.13127413 108.3,8.23166023 108.5,8.63320463 Z" id="Shape" fill="#07090A"/>
          <path d="M98.2,10.7915058 C97.95,11.2432432 97.6,11.2432432 97.25,11.2432432 C96.6,11.2432432 96,11.2432432 95.35,11.1930502 C94.45,11.1428571 93.55,11.042471 92.65,10.9420849 C92.35,10.8918919 92.05,10.7915058 91.75,10.6911197 C91.65,10.6409266 91.6,10.4903475 91.6,10.3899614 C91.6,10.2895753 91.7,10.1891892 91.8,10.1389961 C92.05,9.98841699 92.35,9.98841699 92.6,9.98841699 C93.25,9.98841699 93.95,10.03861 94.6,10.03861 C95.45,10.0888031 96.25,10.1891892 97.1,10.1891892 C97.45,10.2393822 97.85,10.2895753 98.2,10.7915058 Z" id="Shape" fill="#07090A"/>
          <path d="M104.4,17.2664093 C104.15,17.7181467 103.8,17.7683398 103.45,17.7683398 C102.8,17.7683398 102.2,17.7683398 101.55,17.7181467 C100.65,17.6679537 99.75,17.5675676 98.85,17.4671815 C98.6,17.4169884 98.3,17.3667954 98.05,17.2664093 C97.9,17.2162162 97.75,17.1158301 97.75,16.9150579 C97.75,16.7142857 97.9,16.6138996 98.05,16.5637066 C98.3,16.5135135 98.6,16.4633205 98.85,16.4633205 C99.7,16.4633205 100.6,16.5135135 101.45,16.6138996 C102.1,16.7142857 102.7,16.6640927 103.35,16.7142857 C103.8,16.7644788 103.8,16.7644788 104.4,17.2664093 Z" id="Shape" fill="#060909"/>
          <path d="M99.15,14.1544402 C99.25,13.6525097 99.6,13.6023166 99.9,13.6023166 C100.7,13.6023166 101.5,13.6023166 102.3,13.6525097 C103.1,13.7027027 103.9,13.7528958 104.65,13.8030888 C105.2,13.8532819 105.2,13.8532819 105.8,14.2548263 C105.85,14.5559846 105.6,14.6563707 105.4,14.7065637 C105.15,14.7567568 104.85,14.8069498 104.55,14.7567568 C103.15,14.6563707 101.7,14.6061776 100.3,14.4555985 C99.9,14.5559846 99.5,14.5057915 99.15,14.1544402 Z" id="Shape" fill="#060909"/>
          <path d="M83.8,7.02702703 C84,6.82625483 84.25,6.82625483 84.5,6.82625483 C85.95,6.92664093 87.45,7.02702703 88.9,7.12741313 C89.3,7.17760618 89.7,7.22779923 90.05,7.47876448 C90.25,7.57915058 90.3,7.77992278 90.25,7.98069498 C90.05,8.18146718 89.75,8.18146718 89.45,8.18146718 C87.9,8.08108108 86.35,7.98069498 84.8,7.83011583 C84.55,7.83011583 84.25,7.72972973 84,7.57915058 C83.75,7.47876448 83.75,7.22779923 83.8,7.02702703 Z" id="Shape" fill="#070909"/>
          <path d="M92.65,7.83011583 C93,7.52895753 93.35,7.47876448 93.8,7.47876448 C95.15,7.52895753 96.5,7.57915058 97.85,7.62934363 C98.25,7.62934363 98.65,7.67953668 99,7.93050193 C99.1,8.03088803 99.2,8.18146718 99.15,8.33204633 C99.1,8.43243243 99,8.53281853 98.9,8.58301158 C98.65,8.63320463 98.45,8.68339768 98.2,8.68339768 C96.85,8.68339768 95.5,8.63320463 94.15,8.58301158 C93.75,8.58301158 93.35,8.48262548 93,8.33204633 C92.85,8.23166023 92.75,8.08108108 92.65,7.83011583 Z" id="Shape" fill="#050606"/>
          <path d="M82.05,10.0888031 C82.4,9.73745174 82.8,9.63706564 83.2,9.68725869 C84.6,9.83783784 85.95,9.73745174 87.35,9.83783784 C87.75,9.83783784 88.15,9.88803089 88.45,10.1891892 C88.5,10.2393822 88.6,10.3899614 88.55,10.4903475 C88.55,10.5907336 88.45,10.6911197 88.35,10.7413127 C88.1,10.7915058 87.9,10.8416988 87.65,10.8416988 C86.25,10.8416988 84.9,10.7915058 83.5,10.7413127 C83,10.6911197 82.45,10.6409266 82.05,10.0888031 Z" id="Shape" fill="#050606"/>
          <path d="M74.15,6.22393822 C75.65,6.07335907 77.15,6.47490347 78.75,6.42471042 C78.6,7.17760618 78.2,7.72972973 77.9,8.33204633 C76.55,10.7413127 75.15,13.1003861 73.75,15.5096525 C73.5,15.9111969 73.15,16.3127413 73,16.7142857 C72.75,17.2664093 72.3,17.4169884 71.85,17.3667954 C69.85,17.1660232 67.85,17.3166023 65.9,17.1158301 C64.2,16.965251 62.5,16.9150579 60.75,16.8146718 C60.45,16.8146718 60.1,16.7644788 59.8,16.7644788 C59.85,16.6640927 59.95,16.5637066 60,16.5135135 C61.3,15.5598456 62.65,14.6061776 63.95,13.6023166 C67.2,11.1930502 70.5,8.83397683 73.85,6.57528958 C73.95,6.47490347 74.05,6.32432432 74.15,6.22393822 Z" id="Shape" fill="#00FF00"/>
          <path d="M49.25,16.0617761 C47.9,16.011583 46.55,16.1119691 45.2,15.7606178 C45.8,14.3050193 49.85,7.62934363 51.6,5.22007722 C52.35,5.16988417 53.15,5.22007722 53.95,5.32046332 C54.25,5.37065637 54.6,5.42084942 54.9,5.42084942 C57.6,5.52123552 60.3,5.62162162 63.05,5.72200772 C63.15,5.72200772 63.3,5.77220077 63.4,5.77220077 C60.35,8.08108108 57.2,10.2393822 54.05,12.4478764 C52.4,13.6525097 50.8,14.8571429 49.25,16.0617761 Z" id="Shape" fill="#00FF00"/>
          <path d="M49.25,16.0617761 C50.85,14.8571429 52.4,13.6525097 54,12.4980695 C57.1,10.2895753 60.3,8.13127413 63.35,5.82239382 C64.8,5.87258687 66.3,5.97297297 67.75,6.02316602 C67,6.57528958 66.3,7.12741313 65.55,7.62934363 C63.2,9.33590734 60.85,10.992278 58.5,12.6988417 C56.8,13.953668 55.1,15.2084942 53.45,16.4633205 C52.15,16.4131274 50.9,16.3127413 49.6,16.2123552 C49.45,16.1621622 49.35,16.1119691 49.25,16.0617761 Z" id="Shape" fill="#87FF87"/>
          <path d="M74.15,6.22393822 C74.05,6.32432432 73.95,6.47490347 73.85,6.57528958 C70.5,8.83397683 67.2,11.1930502 63.95,13.6023166 C62.65,14.5559846 61.35,15.5096525 60,16.5135135 C59.9,16.5637066 59.85,16.7142857 59.8,16.7644788 C58.8,16.8146718 57.85,16.8146718 56.85,16.6640927 C57.2,16.011583 57.9,15.6602317 58.45,15.2586873 C60.45,13.6023166 62.5,11.996139 64.55,10.4401544 C66.5,8.93436293 68.55,7.52895753 70.55,6.07335907 C71.75,6.17374517 72.95,6.02316602 74.15,6.22393822 Z" id="Shape" fill="#86FF86"/>
          <path d="M70.55,6.02316602 C68.55,7.47876448 66.55,8.88416988 64.55,10.3899614 C62.5,11.9459459 60.45,13.5521236 58.45,15.2084942 C57.9,15.6602317 57.25,15.96139 56.85,16.6138996 C55.7,16.5135135 54.55,16.4633205 53.4,16.3629344 C55.1,15.1081081 56.75,13.8532819 58.45,12.5984556 C60.8,10.8918919 63.15,9.23552124 65.5,7.52895753 C66.25,6.97683398 66.95,6.42471042 67.7,5.92277992 C68.65,5.92277992 69.6,5.87258687 70.55,6.02316602 Z" id="Shape" fill="#01FF01"/>
          <path d="M12.6,21.0810811 C12.2,20.980695 11.9,20.8803089 11.55,20.7799228 C11.6,20.6293436 11.6,20.5289575 11.65,20.4285714 C12.05,19.976834 12.4,19.5250965 12.85,19.023166 C13.2,18.9227799 13.6,18.8725869 13.95,19.1235521 C13.65,19.9266409 13,20.3783784 12.6,21.0810811 Z" id="Shape" fill="#589CA0"/>
          <path d="M11.75,21.8841699 C11.75,22.3861004 11.45,22.5868726 11.25,22.9382239 C10.65,22.8880309 10.05,22.7876448 9.35,22.7374517 C9.55,22.2355212 9.8,21.9343629 10.15,21.6833977 C10.7,21.7335907 11.2,21.7837838 11.75,21.8841699 Z" id="Shape" fill="#5BA3A7"/>
          <path d="M10.25,24.0926641 C9.95,24.996139 9.35,24.7451737 8.75,24.6949807 C9,23.9420849 9,23.9420849 10.25,24.0926641 Z" id="Shape" fill="#56999D"/>
          <path d="M36.25,15.1081081 C35.9,15.1081081 35.55,15.007722 35.25,14.8571429 C34.95,14.7065637 34.95,14.2548263 35.15,14.0540541 C35.5,13.7027027 36.8,13.5019305 37.25,13.9034749 C37.5,14.1544402 37.55,14.4555985 37.3,14.7065637 C37.05,15.007722 36.75,15.1081081 36.25,15.1081081 Z" id="Shape" fill="#01F4F4"/>
          <path d="M37.55,10.4401544 C37.4,9.63706564 37.45,9.53667954 37.9,9.33590734 C38.45,9.08494208 39.05,9.03474903 39.6,9.38610039 C39.95,9.58687259 40,10.03861 39.7,10.2895753 C39.35,10.6409266 38.9,10.7915058 38.4,10.6911197 C38.1,10.6409266 37.85,10.5405405 37.55,10.4401544 Z" id="Shape" fill="#35A76D"/>
          <path d="M19.45,14.1042471 C18.9,14.1042471 18.35,13.8030888 18.3,13.5019305 C18.25,13.1003861 18.75,12.6988417 19.3,12.6486486 C19.6,12.6486486 19.85,12.6988417 20.1,12.7992278 C20.5,13 20.6,13.4517375 20.25,13.7528958 C20,13.953668 19.7,14.0540541 19.45,14.1042471 Z" id="Shape" fill="#DA6694"/>
          <path d="M29.3,13.6525097 C28.75,14.5057915 28,14.5057915 27.25,14.2548263 C26.9,14.1544402 26.75,13.7027027 27,13.5019305 C27.35,13.1003861 27.8,12.9498069 28.25,12.9498069 C28.7,12.9498069 29.05,13.1505792 29.3,13.6525097 Z" id="Shape" fill="#01F001"/>
          <path d="M26.7,4.16602317 C26.6,4.56756757 26.3,4.86872587 25.9,4.91891892 C25.5,4.96911197 25.05,5.06949807 24.65,4.81853282 C24.5,4.71814672 24.45,4.56756757 24.5,4.41698842 C24.55,4.31660232 24.6,4.21621622 24.7,4.11583012 C24.95,3.86486486 25.3,3.76447876 25.7,3.76447876 C26.05,3.76447876 26.45,3.76447876 26.7,4.16602317 Z" id="Shape" fill="#008BDA"/>
          <path d="M20.95,9.08494208 C21.2,8.38223938 21.65,8.03088803 22.35,8.03088803 C22.95,8.03088803 23.05,8.08108108 23.45,8.68339768 C22.55,9.68725869 21.95,9.78764479 20.95,9.08494208 Z" id="Shape" fill="#EBE502"/>
          <path d="M40.1,5.47104247 C40.25,4.96911197 40.55,4.81853282 40.9,4.76833977 C41.3,4.66795367 41.7,4.61776062 42.05,4.76833977 C42.3,4.86872587 42.45,5.01930502 42.5,5.27027027 C42.5,5.57142857 42.3,5.67181467 42.1,5.77220077 C41.4,6.12355212 40.8,6.02316602 40.1,5.47104247 Z" id="Shape" fill="#F30001"/>
          <path d="M32,5.11969112 C32.1,4.66795367 32.5,4.61776062 32.8,4.56756757 C33.2,4.46718147 33.6,4.41698842 33.95,4.56756757 C34.3,4.71814672 34.35,5.11969112 34.05,5.32046332 C33.7,5.57142857 33.35,5.67181467 32.95,5.62162162 C32.6,5.67181467 32.5,5.62162162 32,5.11969112 Z" id="Shape" fill="#DE93AD"/>
          <path d="M31.9,8.98455598 C31.75,9.63706564 31.35,9.83783784 30.9,9.98841699 C30.5,10.1389961 30.05,10.0888031 29.65,9.83783784 C29.35,9.63706564 29.3,9.33590734 29.55,9.03474903 C29.9,8.73359073 30.25,8.53281853 30.7,8.53281853 C31.2,8.53281853 31.3,8.53281853 31.9,8.98455598 Z" id="Shape" fill="#865492"/>
        </g>
        <g id="Group" transform="translate(59.000000, 38.131274)">
          <path d="M10.6,6.67567568 C10.9,6.17374517 11.15,5.77220077 11.4,5.37065637 C11.55,5.16988417 11.65,4.96911197 11.8,4.76833977 C11.95,4.61776062 12.1,4.51737452 12.35,4.61776062 C12.55,4.71814672 12.6,4.91891892 12.6,5.11969112 C12.6,5.32046332 12.55,5.52123552 12.45,5.67181467 C12.2,6.17374517 11.9,6.62548263 11.6,7.12741313 C11.3,7.62934363 10.9,7.88030888 10.3,7.77992278 C9.75,7.72972973 9.2,7.67953668 8.65,7.62934363 C6.5,7.47876448 4.35,7.37837838 2.2,7.37837838 C1.65,7.37837838 1.1,7.32818533 0.5,7.32818533 C0.15,7.27799228 -0.1,6.97683398 0.05,6.62548263 C0.4,5.87258687 0.7,5.06949807 1.2,4.41698842 C1.35,4.26640927 1.55,4.16602317 1.75,4.26640927 C1.95,4.36679537 2,4.56756757 1.95,4.76833977 C1.85,5.01930502 1.75,5.27027027 1.65,5.57142857 C1.55,5.77220077 1.45,6.02316602 1.6,6.32432432 C4.6,6.37451737 7.6,6.22393822 10.6,6.67567568 Z" id="Shape" fill="#030303"/>
          <path d="M3.9,2.05791506 C3.35,2.05791506 2.8,2.05791506 2.3,2.05791506 C2,2.05791506 1.8,1.70656371 1.9,1.45559846 C2.05,1.1042471 2.25,0.752895753 2.5,0.401544402 C2.55,0.301158301 2.75,0.200772201 2.9,0.200772201 C3.5,0.200772201 4.1,0.200772201 4.65,0.552123552 C4.55,1.1042471 4.25,1.50579151 3.9,2.05791506 Z" id="Shape" fill="#171717"/>
          <path d="M14.85,0.652509653 C14.8,0.953667954 14.85,1.1042471 14.75,1.25482625 C14.6,1.65637066 14.35,2.05791506 14.15,2.45945946 C13.45,2.66023166 12.8,2.30888031 12.1,2.35907336 C12,1.60617761 12.4,1.2046332 12.7,0.702702703 C13.4,0.552123552 14.05,0.552123552 14.85,0.652509653 Z" id="Shape" fill="#0C0C0C"/>
        </g>
        <g id="Group" transform="translate(111.000000, 21.567568)">
          <path d="M23.55,8.28185328 C23.8,7.12741313 23.8,6.07335907 23.75,4.96911197 C23.7,4.21621622 23.8,3.51351351 23.85,2.81081081 C23.85,2.61003861 23.9,2.40926641 24,2.20849421 C24.3,1.40540541 24.65,1.15444015 25.55,1.2046332 C25.65,1.2046332 25.8,1.2046332 25.9,1.2046332 C26.15,0.853281853 26.35,0.501930502 26.7,0.301158301 C27.35,-0.150579151 27.8,-0.0501930502 28.2,0.602316602 C28.3,0.803088803 28.4,1.05405405 28.45,1.25482625 C28.7,1.40540541 28.85,1.15444015 29,1.1042471 C29.65,0.903474903 30.25,1.15444015 30.4,1.80694981 C30.55,2.40926641 30.65,2.96138996 30.6,3.61389961 C30.45,5.72200772 30.35,7.88030888 29.75,9.93822394 C29.6,10.4903475 29.55,11.042471 29.45,11.5945946 C29.35,12.3474903 29.15,13 28.8,13.6525097 C28.7,13.8532819 28.65,14.1042471 28.6,14.3552124 C28.25,17.1158301 27.8,19.8262548 27.5,22.5868726 C27.15,26.3011583 26.5,29.965251 26,33.6795367 C26,33.7297297 26,33.7799228 26,33.7799228 C25.8,35.3861004 25,36.3397683 23.5,36.9420849 C19.65,38.4478764 15.75,39.953668 11.9,41.4594595 C10.4,42.0617761 8.85,42.6138996 7.35,43.2162162 C6.6,43.5173745 5.85,43.7683398 5.05,43.969112 C4.05,44.2200772 3.05,44.1698842 2.1,44.019305 C1.1,43.8185328 0.45,43.2162162 0.2,42.2123552 C-0.05,41.3088803 0.3,40.5559846 0.95,39.953668 C1.55,39.4015444 2.2,38.9498069 2.95,38.6988417 C4.2,38.2471042 5.45,37.6949807 6.75,37.2934363 C10.65,36.1891892 14.4,34.7335907 18.25,33.5289575 C18.8,33.3281853 19.4,33.1776062 19.9,32.7258687 C20.4,30.4169884 21.15,28.1081081 21.7,25.7490347 C22.45,22.4864865 23.1,19.2741313 23.8,16.011583 C23.9,15.5096525 24,15.007722 24.15,14.5057915 C24.25,14.1042471 24.2,13.7528958 24,13.3513514 C23.45,12.3474903 22.7,11.5444015 21.7,10.992278 C21.15,10.6911197 20.6,10.2895753 20.25,9.78764479 C19.9,9.28571429 19.8,8.73359073 20.1,8.23166023 C20.4,7.72972973 20.85,7.32818533 21.55,7.42857143 C22.1,7.47876448 22.55,7.62934363 23,7.93050193 C23.1,7.93050193 23.3,8.08108108 23.55,8.28185328 Z M25.35,13.6023166 C24.95,15.6602317 24.7,17.5675676 24.25,19.4749035 C23.6,22.1853282 23.2,24.9459459 22.4,27.6563707 C21.9,29.3127413 21.5,30.969112 21.1,32.6254826 C20.95,33.3281853 20.55,33.7297297 19.9,33.9305019 C18.55,34.3822394 17.3,34.8841699 15.95,35.3359073 C11.75,36.6911197 7.55,38.1467181 3.4,39.7027027 C2.9,39.9034749 2.4,40.1544402 1.85,40.4054054 C1.55,40.5559846 1.3,40.7567568 1.1,40.957529 C0.7,41.3590734 0.75,41.8610039 1.15,42.2123552 C1.45,42.4633205 1.75,42.5637066 2.1,42.6640927 C3.4,42.9150579 4.65,42.8146718 5.85,42.3629344 C8.9,41.3088803 11.9,40.1544402 14.95,39 C17.75,37.8957529 20.5,36.7413127 23.3,35.6872587 C24.15,35.3359073 24.6,34.8339768 24.7,33.980695 C25.05,31.6216216 25.4,29.2123552 25.75,26.8532819 C26.1,24.1930502 26.45,21.5328185 26.8,18.8725869 C26.9,18.0694981 27,17.2664093 27.15,16.5135135 C27.4,15.1583012 27.55,13.7528958 28.1,12.4478764 C28.25,12.0965251 28.3,11.6949807 28.35,11.2934363 C28.45,10.3899614 28.65,9.48648649 28.85,8.58301158 C29.2,6.77606178 29.35,4.91891892 29.4,3.11196911 C29.4,2.86100386 29.4,2.61003861 29.25,2.30888031 C28.85,2.86100386 28.75,3.11196911 28.65,3.66409266 C28.45,4.86872587 28.3,6.02316602 28.15,7.22779923 C28.1,7.47876448 28.05,7.77992278 27.95,8.03088803 C27.9,8.23166023 27.7,8.33204633 27.5,8.33204633 C27.25,8.28185328 27.05,8.13127413 27,7.88030888 C26.95,7.62934363 26.95,7.37837838 27,7.17760618 C27.35,5.67181467 27.15,4.11583012 27.3,2.61003861 C27.35,2.25868726 27.35,1.85714286 27.05,1.45559846 C26.65,2.10810811 26.5,2.76061776 26.5,3.46332046 C26.5,4.51737452 26.5,5.57142857 26.5,6.57528958 C26.5,6.92664093 26.5,7.27799228 26.45,7.62934363 C26.4,7.83011583 26.25,7.98069498 26.05,7.98069498 C25.85,7.98069498 25.65,7.93050193 25.55,7.72972973 C25.45,7.57915058 25.4,7.37837838 25.4,7.17760618 C25.4,6.67567568 25.4,6.12355212 25.4,5.62162162 C25.4,4.56756757 25.5,3.56370656 25.3,2.50965251 C25,2.50965251 24.95,2.71042471 24.9,2.91119691 C24.85,3.36293436 24.85,3.81467181 24.85,4.21621622 C24.85,5.57142857 24.85,6.92664093 24.7,8.28185328 C24.65,8.68339768 24.55,9.08494208 24.8,9.53667954 C25.15,9.63706564 25.5,9.73745174 25.9,9.83783784 C26.15,9.88803089 26.35,9.93822394 26.55,10.0888031 C26.75,10.2393822 26.75,10.5907336 26.5,10.6911197 C26.35,10.7413127 26.2,10.8416988 26.05,10.8416988 C25.05,10.8416988 24.1,10.6409266 23.5,9.78764479 C23.05,9.18532819 22.45,8.93436293 21.9,8.53281853 C21.8,8.43243243 21.6,8.43243243 21.45,8.43243243 C21.3,8.43243243 21.15,8.48262548 21.05,8.63320463 C20.95,8.78378378 21,8.93436293 21.1,9.08494208 C21.4,9.53667954 21.85,9.83783784 22.3,10.03861 C23.4,10.5907336 24.2,11.4440154 24.8,12.5482625 C24.9,12.8996139 25.1,13.2509653 25.35,13.6023166 Z" id="Shape" fill="#010101"/>
          <path d="M25.35,13.6023166 C25.15,13.2509653 24.9,12.8996139 24.75,12.5482625 C24.15,11.4942085 23.35,10.5907336 22.25,10.03861 C21.8,9.78764479 21.35,9.48648649 21.05,9.08494208 C20.95,8.93436293 20.9,8.78378378 21,8.63320463 C21.1,8.48262548 21.25,8.43243243 21.4,8.43243243 C21.55,8.43243243 21.75,8.43243243 21.85,8.53281853 C22.4,8.93436293 23,9.18532819 23.45,9.78764479 C24.05,10.6409266 25,10.8416988 26,10.8416988 C26.15,10.8416988 26.3,10.7915058 26.45,10.6911197 C26.7,10.5907336 26.7,10.2393822 26.5,10.0888031 C26.3,9.93822394 26.05,9.88803089 25.85,9.83783784 C25.45,9.73745174 25.1,9.63706564 24.75,9.53667954 C24.5,9.08494208 24.6,8.68339768 24.65,8.28185328 C24.85,6.92664093 24.8,5.57142857 24.8,4.21621622 C24.8,3.76447876 24.8,3.31274131 24.85,2.91119691 C24.85,2.71042471 24.95,2.50965251 25.25,2.50965251 C25.45,3.51351351 25.35,4.56756757 25.35,5.62162162 C25.35,6.12355212 25.35,6.67567568 25.35,7.17760618 C25.35,7.37837838 25.4,7.57915058 25.5,7.72972973 C25.6,7.93050193 25.8,7.98069498 26,7.98069498 C26.25,7.98069498 26.4,7.83011583 26.4,7.62934363 C26.45,7.27799228 26.45,6.92664093 26.45,6.57528958 C26.45,5.52123552 26.45,4.46718147 26.45,3.46332046 C26.45,2.76061776 26.6,2.10810811 27,1.45559846 C27.3,1.85714286 27.3,2.25868726 27.25,2.61003861 C27.1,4.11583012 27.25,5.67181467 26.95,7.17760618 C26.9,7.42857143 26.9,7.67953668 26.95,7.88030888 C27,8.13127413 27.2,8.28185328 27.45,8.33204633 C27.65,8.38223938 27.85,8.23166023 27.9,8.03088803 C28,7.77992278 28.05,7.47876448 28.1,7.22779923 C28.3,6.02316602 28.45,4.86872587 28.6,3.66409266 C28.7,3.11196911 28.8,2.86100386 29.2,2.30888031 C29.35,2.61003861 29.35,2.86100386 29.35,3.11196911 C29.3,4.96911197 29.15,6.77606178 28.8,8.58301158 C28.6,9.48648649 28.4,10.3899614 28.3,11.2934363 C28.25,11.6949807 28.2,12.0965251 28.05,12.4478764 C27.5,13.7528958 27.3,15.1583012 27.1,16.5135135 C26.95,17.3166023 26.85,18.0694981 26.75,18.8725869 C26.4,21.5328185 26.05,24.1930502 25.7,26.8532819 C25.35,29.2123552 25,31.6216216 24.65,33.980695 C24.55,34.8841699 24.1,35.3861004 23.25,35.6872587 C20.45,36.7413127 17.7,37.9459459 14.9,39 C11.9,40.1544402 8.85,41.3088803 5.8,42.3629344 C4.6,42.7644788 3.3,42.9150579 2.05,42.6640927 C1.7,42.6138996 1.35,42.4633205 1.1,42.2123552 C0.7,41.8610039 0.7,41.3590734 1.05,40.957529 C1.25,40.7065637 1.5,40.5057915 1.8,40.4054054 C2.3,40.2046332 2.8,39.9034749 3.35,39.7027027 C7.5,38.1467181 11.7,36.6911197 15.9,35.3359073 C17.25,34.8841699 18.5,34.3822394 19.85,33.9305019 C20.55,33.7297297 20.9,33.3281853 21.05,32.6254826 C21.45,30.969112 21.85,29.2625483 22.35,27.6563707 C23.15,24.9459459 23.55,22.1853282 24.2,19.4749035 C24.7,17.5675676 24.95,15.6602317 25.35,13.6023166 Z" id="Shape" fill="#D0E9EA"/>
        </g>
      </g>
    </g>
  </g>
</svg>