<svg width="87px" height="120px" viewBox="0 0 87 120" version="1.1" xml:space="preserve" xmlns="http://www.w3.org/2000/svg" xmlns:xlink="http://www.w3.org/1999/xlink">
  <defs/>
  <g>
    <title>drum-c</title>
    <desc>Created with Sketch.</desc>
    <g id="music" stroke="none" stroke-width="1" fill="none" fill-rule="evenodd">
      <g id="drum-c" fill-rule="nonzero">
        <g id="Group" transform="translate(44.000000, 72.294931)">
          <path d="M9.7,19.6400922 C10.65,19.1880184 11.45,18.6857143 12.2,18.1834101 C14.75,16.4253456 17.35,14.7175115 20,13.0599078 C20.65,12.6580645 21.25,12.2059908 21.9,11.7539171 C22.05,11.6534562 22.2,11.4525346 22.4,11.4525346 C23.55,11.2516129 23.75,11.0506912 24.6,12.0552995 C25.05,12.5576037 25.25,13.1603687 25.4,13.7631336 C25.75,14.8682028 25.95,16.0235023 26.1,17.1788018 C26.4,18.9870968 26.6,20.8456221 26.6,22.7041475 C26.6,23.2064516 26.6,23.6585253 26.4,24.1105991 C26.05,24.9645161 25.35,25.1654378 24.7,24.5626728 C24.4,24.2612903 24.1,23.9096774 23.85,23.5580645 C22.8,22.1516129 21.9,20.59447 21.2,19.0373272 C20.85,18.8364055 20.7,19.0875576 20.55,19.2382488 C17.9,21.2976959 15.05,23.1059908 12.3,25.0147465 C11.2,25.7682028 10.05,25.9691244 8.75,25.7179724 C8.15,25.6175115 7.55,25.6175115 7,25.2658986 C5.95,24.6129032 5.1,23.7589862 4.7,22.6036866 C3.7,19.740553 2.8,16.8271889 2.2,13.8133641 C1.9,12.1557604 1.3,10.5483871 1.1,8.89078341 C0.9,7.53456221 0.65,6.17834101 0.45,4.87235023 C0.35,4.4202765 0.3,3.91797235 0.2,3.46589862 C0.05,2.36082949 0.3,1.40645161 1.15,0.652995392 C1.5,0.351612903 1.85,0.200921659 2.2,0.150691244 C3.05,0.100460829 3.85,0.200921659 4.65,0.552534562 C5.35,0.853917051 5.8,1.3562212 6,2.10967742 C6.3,3.16451613 6.6,4.16912442 6.7,5.27419355 C6.85,6.37926267 7.1,7.4843318 7.35,8.58940092 C7.65,9.84516129 7.85,11.1009217 8.05,12.356682 C8.2,13.4617512 8.4,14.5668203 8.65,15.6718894 C9.15,16.9276498 9.4,18.2336406 9.7,19.6400922 Z M25.35,23.5580645 C25.55,23.1562212 25.55,22.9050691 25.55,22.7041475 C25.3,20.1926267 25.05,17.681106 24.6,15.2198157 C24.45,14.3658986 24.2,13.6124424 23.8,12.8087558 C23.7,12.6078341 23.6,12.4571429 23.3,12.4069124 C23,12.4069124 22.8,12.6580645 22.55,12.8589862 C21.45,13.7129032 20.2,14.3658986 19.05,15.1193548 C17.85,15.8728111 16.65,16.6764977 15.4,17.4299539 C13.65,18.535023 12,19.7907834 10.1,20.6949309 C9.9,21.0465438 10.05,21.5488479 9.65,21.8 C9.3,21.8502304 9.1,21.6995392 9,21.3981567 C8.85,20.9963134 8.75,20.5442396 8.65,20.1423963 C8.3,18.6354839 8,17.078341 7.6,15.5714286 C7.3,14.3658986 7,13.1603687 6.8,11.9548387 C6.7,11.1009217 6.55,10.297235 6.3,9.49354839 C5.8,7.93640553 5.65,6.27880184 5.4,4.67142857 C5.3,4.16912442 5.2,3.66682028 5.05,3.16451613 C4.8,2.10967742 4.15,1.60737327 3.1,1.60737327 C3,1.60737327 2.85,1.55714286 2.75,1.55714286 C2.25,1.55714286 1.75,1.90875576 1.65,2.31059908 C1.55,2.7124424 1.4,3.16451613 1.45,3.61658986 C1.6,4.87235023 1.7,6.17834101 1.95,7.43410138 C2.55,10.1967742 3.15,12.959447 3.8,15.7221198 C4.35,18.0829493 5.15,20.3935484 5.95,22.7041475 C6.15,23.3069124 6.55,23.859447 7.1,24.2110599 C8.25,25.0147465 10.7,24.9645161 11.65,24.2110599 C13.05,23.1059908 14.6,22.1516129 16.05,21.0967742 C17.4,20.1423963 18.8,19.137788 20.15,18.1834101 C20.55,17.9322581 20.9,17.6308756 21.45,17.5806452 C22.7,19.5396313 23.8,21.5990783 25.35,23.5580645 Z" id="Shape" fill="#010101"/>
          <path d="M25.35,23.5580645 C23.8,21.6493088 22.7,19.5396313 21.55,17.4801843 C21,17.4801843 20.65,17.7815668 20.25,18.0829493 C18.9,19.0373272 17.5,20.0419355 16.15,20.9963134 C14.7,22.0511521 13.15,23.00553 11.75,24.1105991 C10.8,24.8640553 8.35,24.9142857 7.2,24.1105991 C6.65,23.7087558 6.3,23.2064516 6.05,22.6036866 C5.25,20.2930876 4.5,17.9824885 3.9,15.621659 C3.25,12.8589862 2.6,10.0963134 2.05,7.33364055 C1.8,6.07788018 1.65,4.82211982 1.55,3.51612903 C1.5,3.11428571 1.65,2.66221198 1.75,2.21013825 C1.85,1.75806452 2.4,1.45668203 2.85,1.45668203 C2.95,1.45668203 3.1,1.50691244 3.2,1.50691244 C4.25,1.55714286 4.9,2.059447 5.15,3.0640553 C5.25,3.56635945 5.4,4.06866359 5.5,4.57096774 C5.75,6.17834101 5.9,7.8359447 6.4,9.39308756 C6.65,10.1967742 6.75,11.0506912 6.9,11.8543779 C7.1,13.1101382 7.4,14.2654378 7.7,15.4709677 C8.05,16.9778802 8.4,18.535023 8.75,20.0419355 C8.85,20.4940092 8.95,20.8958525 9.1,21.2976959 C9.2,21.5990783 9.4,21.7497696 9.75,21.6995392 C10.15,21.4483871 10,20.9963134 10.2,20.59447 C12.1,19.740553 13.75,18.4345622 15.5,17.3294931 C16.7,16.5760369 17.9,15.7723502 19.15,15.018894 C20.3,14.2654378 21.55,13.6124424 22.65,12.7585253 C22.9,12.5576037 23.15,12.356682 23.4,12.3064516 C23.65,12.356682 23.8,12.5576037 23.9,12.7082949 C24.25,13.4617512 24.55,14.2654378 24.7,15.1193548 C25.15,17.5806452 25.4,20.0921659 25.65,22.6036866 C25.55,22.9050691 25.6,23.1562212 25.35,23.5580645 Z" id="Shape" fill="#D0E9EA"/>
        </g>
        <g id="Group" transform="translate(22.500000, 69.281106)">
          <path d="M3.1,47.0156682 C3.7,46.3124424 4.3,45.5589862 4.85,44.80553 C5.45,44.0520737 5.95,43.2483871 6.55,42.4447005 C6.15,41.2894009 5.8,40.1843318 5.35,39.0290323 C4.75,37.4718894 4.4,35.9147465 3.95,34.3073733 C3.25,31.8963134 2.55,29.4852535 1.85,27.0239631 C1.45,25.6677419 1.05,24.3115207 0.65,23.00553 C0.4,22.1516129 0.35,21.2976959 0.5,20.3935484 C1.05,17.7815668 1.45,15.1695853 2.1,12.6078341 C2.65,10.4479263 3.15,8.33824885 3.65,6.17834101 C3.85,5.37465438 4.1,4.57096774 4.45,3.81751152 C4.95,2.7124424 5.65,1.75806452 6.55,0.95437788 C7.8,-0.150691244 9.7,0.200921659 10.6,1.55714286 C11.4,2.7124424 11.35,4.01843318 11.2,5.27419355 C10.95,7.08248848 10.4,8.89078341 9.7,10.5483871 C9.1,12.0050691 8.55,13.562212 8.1,15.0691244 C7.5,17.0281106 6.95,18.9870968 6.35,20.9460829 C6.25,21.2976959 6.15,21.6493088 6.3,22.0009217 C7.05,23.6082949 7.45,25.316129 8,26.9737327 C8.55,28.7820276 9.15,30.5400922 9.75,32.3483871 C10.25,33.90553 10.65,35.5129032 11.1,37.0700461 C11.55,38.6271889 12.05,40.2345622 12.55,41.7917051 C12.85,42.7460829 13,43.7506912 13,44.7552995 C13,45.2073733 12.85,45.5589862 12.4,45.659447 C11.45,45.9608295 10.55,46.6640553 9.45,46.4631336 C9.15,46.4129032 8.75,46.6138249 8.4,46.7142857 C7.5,46.9654378 6.55,47.2668203 5.65,47.5179724 C5.05,47.6686636 4.45,47.718894 3.85,47.5682028 C3.55,47.6184332 3.55,47.6184332 3.1,47.0156682 Z M11.75,44.6046083 C11.9,44.2529954 11.85,43.9516129 11.75,43.6 C11.55,42.8465438 11.35,42.0428571 11.15,41.2894009 C10.75,39.9834101 10.3,38.7276498 9.95,37.421659 C9.1,34.1064516 8.05,30.8917051 7,27.6267281 C6.5,25.9691244 5.95,24.3617512 5.45,22.7041475 C5.25,21.9506912 5.15,21.2474654 5.5,20.4940092 C5.85,19.6400922 6.05,18.7359447 6.3,17.8317972 C6.85,15.9732719 7.3,14.0645161 8,12.2059908 C8.8,10.0460829 9.45,7.78571429 10,5.52534562 C10.2,4.62119816 10.2,3.71705069 9.95,2.81290323 C9.85,2.41105991 9.6,2.059447 9.3,1.80829493 C8.75,1.3562212 8.1,1.25576037 7.55,1.75806452 C6.9,2.31059908 6.3,2.86313364 5.9,3.61658986 C5.4,4.57096774 5.05,5.52534562 4.8,6.52995392 C4.55,7.68525346 4.3,8.79032258 4.05,9.94562212 C3.35,12.8087558 2.65,15.621659 2.15,18.535023 C2,19.5396313 1.75,20.59447 1.55,21.5990783 C1.5,21.9004608 1.6,22.1516129 1.65,22.402765 C2.4,24.7133641 3.1,26.9737327 3.8,29.2843318 C5.05,33.4032258 6.1,37.5221198 7.55,41.540553 C7.7,41.9926267 7.7,42.39447 7.45,42.7963134 C6.95,43.8511521 6.25,44.80553 5.55,45.7096774 C5.4,45.9105991 5.15,46.0612903 5.2,46.4631336 C6.35,46.3124424 7.4,45.8603687 8.45,45.5589862 C9.5,45.2576037 10.6,44.9562212 11.75,44.6046083 Z" id="Shape" fill="#010101"/>
          <path d="M11.75,44.6046083 C10.6,44.9562212 9.55,45.2576037 8.45,45.5589862 C7.4,45.8603687 6.35,46.3124424 5.2,46.4631336 C5.15,46.0612903 5.4,45.9105991 5.55,45.7096774 C6.25,44.80553 6.95,43.8511521 7.45,42.7963134 C7.65,42.3442396 7.7,41.9926267 7.55,41.540553 C6.1,37.5221198 5.05,33.3529954 3.8,29.2843318 C3.1,26.9737327 2.35,24.7133641 1.65,22.402765 C1.55,22.1516129 1.45,21.9004608 1.55,21.5990783 C1.75,20.59447 2,19.5396313 2.15,18.535023 C2.65,15.6718894 3.35,12.8087558 4.05,9.94562212 C4.3,8.840553 4.55,7.68525346 4.8,6.52995392 C5.05,5.52534562 5.4,4.52073733 5.9,3.61658986 C6.3,2.86313364 6.9,2.31059908 7.55,1.75806452 C8.1,1.30599078 8.75,1.3562212 9.3,1.80829493 C9.6,2.059447 9.85,2.41105991 9.95,2.81290323 C10.2,3.71705069 10.2,4.62119816 10,5.52534562 C9.45,7.78571429 8.8,9.99585253 8,12.2059908 C7.35,14.0645161 6.85,15.9732719 6.3,17.8317972 C6.05,18.7359447 5.85,19.6400922 5.5,20.4940092 C5.2,21.2474654 5.25,22.0009217 5.45,22.7041475 C5.95,24.3617512 6.5,25.9691244 7,27.6267281 C8,30.8917051 9.05,34.1064516 9.95,37.421659 C10.3,38.7276498 10.75,40.0336406 11.15,41.2894009 C11.4,42.0428571 11.55,42.8465438 11.75,43.6 C11.8,43.9516129 11.85,44.2529954 11.75,44.6046083 Z" id="Shape" fill="#D0E9EA"/>
        </g>
        <g id="Group" transform="translate(53.000000, 8.000000)">
          <path d="M26.85,4.87235023 C26.5,6.42949309 26.15,7.88617512 25,8.99124424 C25.25,11.1009217 25.2,13.2608295 25.5,15.3705069 C25.65,16.3248848 25.6,17.2792627 25.7,18.2336406 C25.95,21.0465438 26.1,23.8092166 26.1,26.6221198 C26.1,27.6769585 25.85,28.6815668 25.1,29.4852535 C23.3,31.5447005 21.5,33.6041475 19.75,35.6635945 C17.75,38.024424 15.55,40.1843318 13.3,42.2940092 C12.8,42.7963134 12.3,43.2986175 11.85,43.9013825 C11,44.9562212 10,45.8101382 9.05,46.6640553 C7.9,47.718894 6.5,48.0705069 4.95,47.8193548 C3.9,47.6686636 3.35,47.0156682 3.25,45.9608295 C3.25,45.7096774 3.2,45.4585253 3.25,45.2576037 C3.45,43.9516129 3.9,42.7963134 4.8,41.8419355 C6.4,40.1843318 8.1,38.5769585 9.9,37.1202765 C12.55,34.9603687 15.05,32.5995392 17.45,30.1382488 C18.5,29.0834101 19.5,28.0285714 20.55,26.9737327 C20.9,26.6221198 21.1,26.2705069 21.1,25.7179724 C21.05,22.402765 21.05,19.137788 21,15.8225806 C21,13.9640553 21,12.10553 20.95,10.297235 C20.95,9.89539171 20.95,9.49354839 20.95,9.09170507 C18.65,8.08709677 17.55,6.32903226 17.6,3.86774194 C12.65,3.26497696 7.8,2.7124424 2.85,2.10967742 C2.55,2.56175115 2.15,2.91336406 1.5,2.81290323 C0.65,2.66221198 0.2,2.059447 0.3,1.15529954 C0.4,0.351612903 1.2,-0.150691244 1.95,0.0502304147 C2.1,0.100460829 2.3,0.100460829 2.4,0.200921659 C2.8,0.602764977 3.3,0.602764977 3.85,0.652995392 C7,1.00460829 10.15,1.05483871 13.3,1.3562212 C14.9,1.50691244 16.5,1.45668203 18.05,1.75806452 C18.3,1.80829493 18.55,1.75806452 18.75,1.75806452 C19.8,0.602764977 21.2,0.452073733 22.6,0.703225806 C23.9,0.904147465 25.2,1.30599078 26.1,2.41105991 C26.3,2.66221198 26.6,2.76267281 26.95,2.81290323 C27.5,2.86313364 28.05,2.96359447 28.6,3.01382488 C28.8,3.0640553 29,3.0640553 29.2,3.11428571 C29.7,3.31520737 29.95,3.81751152 29.9,4.26958525 C29.8,4.7718894 29.35,5.17373272 28.8,5.17373272 C28.55,5.17373272 28.35,5.1235023 28.1,5.07327189 C27.7,4.92258065 27.3,4.92258065 26.85,4.87235023 Z M18.75,3.86774194 C18.55,4.31981567 18.7,4.72165899 18.75,5.07327189 C18.85,6.37926267 19.6,7.18294931 20.7,7.73548387 C20.9,7.8359447 21.05,7.88617512 21.25,7.98663594 C21.55,8.13732719 21.75,8.33824885 21.85,8.68986175 C21.95,8.99124424 22,9.29262673 22,9.64423963 C22.05,11.9548387 22.1,14.2654378 22.15,16.6262673 C22.2,19.4894009 22.2,22.402765 22.25,25.2658986 C22.25,25.5672811 22.25,25.918894 22.2,26.2202765 C22.15,26.7728111 21.95,27.1746544 21.5,27.5764977 C20.55,28.4304147 19.65,29.3847926 18.75,30.2889401 C17.3,31.7958525 15.9,33.302765 14.4,34.759447 C13.45,35.7138249 12.5,36.6682028 11.35,37.421659 C11.05,37.6225806 10.75,37.8235023 10.5,38.0746544 C9.4,39.3304147 8.1,40.3852535 6.9,41.5907834 C6.25,42.2437788 5.6,42.8967742 5,43.5497696 C4.6,44.0018433 4.45,44.6046083 4.55,45.2576037 C4.6,45.7599078 4.95,46.0110599 5.4,46.2119816 C5.5,46.262212 5.6,46.3626728 5.7,46.4129032 C6,46.7142857 6.35,46.6640553 6.7,46.5635945 C7.1,46.4631336 7.55,46.3124424 7.85,45.9608295 C8.1,45.6092166 8.55,45.4082949 8.85,45.1571429 C9.1,44.9562212 9.35,44.80553 9.6,44.5543779 C10.85,43.2986175 12.1,42.0428571 13.35,40.8373272 C14.7,39.5815668 16,38.275576 17.2,36.8691244 C18.6,35.2617512 20,33.6543779 21.4,32.0470046 C22.4,30.8414747 23.4,29.6359447 24.45,28.4806452 C24.85,28.0285714 25,27.5764977 25,26.9737327 C25,23.9096774 24.85,20.8958525 24.6,17.8317972 C24.55,17.0281106 24.55,16.224424 24.4,15.4207373 C24.2,14.164977 24.2,12.8589862 24.15,11.6032258 C24.1,11.1009217 24.1,10.5483871 24.05,10.0460829 C24,9.44331797 23.85,8.79032258 24.1,8.1875576 C25.2,7.38387097 25.3,7.23317972 25.35,6.22857143 C25.2,6.27880184 25.05,6.32903226 24.9,6.37926267 C24.75,6.42949309 24.6,6.52995392 24.45,6.52995392 C22.75,6.93179724 21.2,6.63041475 19.95,5.37465438 C19.85,5.27419355 19.75,5.1235023 19.8,4.97281106 C19.85,4.7718894 20.05,4.67142857 20.25,4.67142857 C20.45,4.67142857 20.65,4.72165899 20.85,4.72165899 C21.3,4.67142857 21.7,4.67142857 22.15,4.62119816 C22.3,4.62119816 22.45,4.47050691 22.5,4.31981567 C22.55,4.16912442 22.45,4.01843318 22.3,3.91797235 C21,3.31520737 19.85,3.31520737 18.75,3.86774194 Z M25.75,3.66682028 C25.5,3.11428571 25.2,2.51152074 24.55,2.31059908 C23.65,2.00921659 22.75,1.65760369 21.8,1.60737327 C21.25,1.55714286 20.7,1.60737327 20.15,1.85852535 C19.95,1.95898618 19.75,2.10967742 19.9,2.46129032 C20.15,2.46129032 20.45,2.46129032 20.7,2.46129032 C21.45,2.41105991 22.1,2.7124424 22.7,3.11428571 C23.55,3.61658986 23.6,4.52073733 22.8,5.1235023 C22.7,5.22396313 22.5,5.27419355 22.55,5.47511521 C24.4,5.72626728 25.15,5.27419355 25.75,3.66682028 Z" id="Shape" fill="#010101"/>
          <path d="M18.75,3.86774194 C19.85,3.31520737 21,3.31520737 22.15,3.91797235 C22.3,4.01843318 22.4,4.11889401 22.35,4.31981567 C22.3,4.47050691 22.2,4.62119816 22,4.62119816 C21.55,4.67142857 21.15,4.72165899 20.7,4.72165899 C20.5,4.72165899 20.3,4.72165899 20.1,4.67142857 C19.85,4.67142857 19.7,4.7718894 19.65,4.97281106 C19.6,5.1235023 19.7,5.27419355 19.8,5.37465438 C21.1,6.63041475 22.6,6.93179724 24.3,6.52995392 C24.45,6.4797235 24.6,6.42949309 24.75,6.37926267 C24.9,6.32903226 25.05,6.27880184 25.2,6.22857143 C25.2,7.18294931 25.05,7.38387097 23.95,8.1875576 C23.7,8.79032258 23.85,9.44331797 23.9,10.0460829 C23.95,10.5483871 24,11.1009217 24,11.6032258 C24.05,12.8589862 24.05,14.164977 24.25,15.4207373 C24.35,16.224424 24.35,17.0281106 24.45,17.8317972 C24.7,20.8958525 24.85,23.9096774 24.85,26.9737327 C24.85,27.5764977 24.7,28.0285714 24.3,28.4806452 C23.3,29.6861751 22.3,30.8917051 21.25,32.0470046 C19.85,33.6543779 18.5,35.2617512 17.05,36.8691244 C15.85,38.2253456 14.55,39.5313364 13.2,40.8373272 C11.95,42.0428571 10.7,43.2986175 9.45,44.5543779 C9.2,44.80553 8.95,44.9562212 8.7,45.1571429 C8.35,45.4585253 7.95,45.6092166 7.7,45.9608295 C7.4,46.3124424 7,46.4631336 6.55,46.5635945 C6.2,46.6640553 5.85,46.7142857 5.55,46.4129032 C5.45,46.3124424 5.35,46.262212 5.25,46.2119816 C4.85,46.0110599 4.45,45.7599078 4.4,45.2576037 C4.3,44.6548387 4.45,44.0520737 4.85,43.5497696 C5.45,42.8465438 6.1,42.2437788 6.75,41.5907834 C7.95,40.4354839 9.25,39.3304147 10.35,38.0746544 C10.6,37.8235023 10.9,37.6225806 11.2,37.421659 C12.35,36.6682028 13.3,35.7138249 14.25,34.759447 C15.75,33.302765 17.15,31.7958525 18.6,30.2889401 C19.5,29.3847926 20.4,28.4304147 21.35,27.5764977 C21.75,27.1746544 22,26.7728111 22.05,26.2202765 C22.05,25.918894 22.1,25.5672811 22.1,25.2658986 C22.05,22.402765 22.05,19.4894009 22,16.6262673 C21.95,14.3156682 21.9,12.0050691 21.85,9.64423963 C21.85,9.29262673 21.8,8.99124424 21.7,8.68986175 C21.6,8.33824885 21.4,8.13732719 21.1,7.98663594 C20.9,7.88617512 20.75,7.8359447 20.55,7.73548387 C19.45,7.18294931 18.7,6.37926267 18.6,5.07327189 C18.7,4.67142857 18.55,4.31981567 18.75,3.86774194 Z" id="Shape" fill="#D0E9EA"/>
          <path d="M25.75,3.66682028 C25.15,5.32442396 24.4,5.72626728 22.55,5.42488479 C22.55,5.22396313 22.7,5.17373272 22.8,5.07327189 C23.6,4.47050691 23.55,3.56635945 22.7,3.0640553 C22.1,2.7124424 21.45,2.41105991 20.7,2.41105991 C20.45,2.41105991 20.15,2.41105991 19.9,2.41105991 C19.75,2.059447 19.95,1.90875576 20.15,1.80829493 C20.65,1.55714286 21.2,1.50691244 21.8,1.55714286 C22.75,1.60737327 23.65,1.95898618 24.55,2.26036866 C25.2,2.51152074 25.5,3.11428571 25.75,3.66682028 Z" id="Shape" fill="#CBE3E4"/>
        </g>
        <g id="Group" transform="translate(3.000000, 12.520737)">
          <path d="M6.25,34.2571429 C6.4,34.4078341 6.45,34.4580645 6.5,34.5082949 C9.3,35.8142857 12,37.4718894 14.85,38.7276498 C15.15,38.878341 15.45,38.9788018 15.75,39.0792627 C17.75,39.7322581 19.7,40.5861751 21.6,41.4400922 C22.75,41.9423963 23.35,42.8465438 23.5,44.2529954 C23.65,45.7096774 23.05,46.5133641 22,47.2668203 C21.45,47.6686636 20.8,47.6686636 20.15,47.718894 C19.55,47.8193548 18.95,47.718894 18.4,47.6184332 C17.7,47.5682028 17.15,47.2668203 16.55,46.8147465 C15.85,46.3124424 15.05,45.9105991 14.3,45.5087558 C13.55,45.056682 12.75,44.6548387 12.05,44.1525346 C10.1,42.8465438 8.05,41.8419355 6,40.7870968 C5,40.2847926 4,39.7824885 3.1,39.1294931 C2.85,38.9285714 2.55,38.8281106 2.3,38.6271889 C1.95,38.4262673 1.6,38.2253456 1.3,37.9741935 C0.5,37.3211982 0.2,36.4672811 0.5,35.4124424 C1.1,33.3529954 1.55,31.1930876 2.25,29.183871 C2.4,28.8322581 2.5,28.4304147 2.55,28.0285714 C2.95,26.3709677 3.4,24.7635945 3.95,23.2064516 C4.7,20.9963134 5.35,18.6857143 6.05,16.4253456 C6.3,15.6718894 6.45,14.8682028 6.65,14.0645161 C5.95,13.6626728 5.6,13.0599078 5.45,12.3064516 C4.75,12.4069124 4.2,12.7585253 3.6,12.959447 C3.35,13.0599078 3.1,13.1603687 2.8,13.0096774 C2.4,12.8087558 2.1,12.5576037 2.1,12.10553 C2.1,11.7036866 2.25,11.3018433 2.65,11.1009217 C3.05,10.9 3.5,10.6990783 3.95,10.4981567 C4.25,10.3474654 4.55,10.2470046 4.8,10.0963134 C5.15,9.94562212 5.4,9.64423963 5.4,9.24239631 C5.35,8.03686636 6.05,7.43410138 7,6.93179724 C7.85,6.4797235 8.75,6.1281106 9.65,5.87695853 C10.5,5.62580645 11.3,5.72626728 12.15,5.97741935 C12.5,6.07788018 12.8,6.27880184 13.05,6.63041475 C14.1,6.27880184 15.15,5.92718894 16.2,5.52534562 C19.55,4.26958525 22.85,3.0640553 26.2,1.80829493 C26.75,1.60737327 27.2,1.40645161 27.55,0.904147465 C28,0.301382488 28.6,0.301382488 29.3,0.602764977 C30.1,1.00460829 30.3,2.46129032 29.35,2.96359447 C28.65,3.36543779 28.15,3.21474654 27.65,2.76267281 C23.05,4.72165899 18.5,6.63041475 13.85,8.58940092 C13.7,8.79032258 14,8.94101382 14.1,9.14193548 C14.45,9.99585253 14.4,10.7995392 13.85,11.5529954 C13.45,12.0552995 13.05,12.5576037 12.55,12.959447 C12.2,13.2105991 11.9,13.4617512 11.55,13.6626728 C10.95,14.0142857 10.6,14.5165899 10.5,15.2700461 C10.3,16.6262673 9.95,17.9322581 9.5,19.2382488 C9.45,19.4391705 9.4,19.6400922 9.35,19.8410138 C9,21.6995392 8.55,23.5078341 8,25.316129 C7.85,25.7682028 7.85,26.2705069 7.75,26.7225806 C7.5,28.7820276 6.9,30.7912442 6.55,32.8506912 C6.35,33.302765 6.3,33.8050691 6.25,34.2571429 Z M7.5,13.562212 C7.6,14.9184332 7.25,16.1741935 6.85,17.3797235 C6.35,18.8866359 5.9,20.343318 5.5,21.8502304 C5.3,22.6036866 5,23.3571429 4.8,24.1608295 C4.55,24.9142857 4.25,25.6677419 4.1,26.4714286 C3.65,28.581106 2.95,30.640553 2.35,32.7502304 C2.05,33.7548387 1.8,34.759447 1.55,35.7640553 C1.3,36.8691244 1.5,37.0700461 2.3,37.5221198 C3.8,38.3760369 5.3,39.2299539 6.8,39.9834101 C8.8,40.9880184 10.8,41.9926267 12.65,43.2483871 C13.7,43.9013825 14.75,44.6046083 15.8,45.1571429 C17.05,45.8101382 18.3,46.1617512 19.65,46.262212 C20.1,46.3124424 20.5,46.2119816 20.95,46.1617512 C21.4,46.1115207 21.7,45.8603687 21.9,45.5087558 C22.3,44.8557604 22.15,43.7004608 21.6,43.1479263 C21.3,42.8967742 21,42.6456221 20.6,42.4949309 C19.5,42.0930876 18.5,41.540553 17.4,41.1889401 C16.5,40.8373272 15.65,40.4354839 14.75,40.083871 C13.8,39.7322581 12.9,39.3304147 12.05,38.8281106 C11.1,38.275576 10.1,37.7732719 9.1,37.2709677 C8.1,36.7184332 7.05,36.1658986 6.05,35.6133641 C5.2,35.1110599 4.9,34.4580645 5.1,33.5036866 C5.2,32.9009217 5.3,32.2981567 5.4,31.7456221 C5.65,30.1884793 6.15,28.6313364 6.35,27.0239631 C6.55,25.5672811 6.85,24.1105991 7.35,22.7041475 C7.7,20.0921659 8.7,17.681106 9.15,15.1193548 C9.2,14.8682028 9.3,14.5668203 9.35,14.3156682 C9.5,13.7631336 9.75,13.3612903 10.25,13.1101382 C10.65,12.8589862 11.05,12.6078341 11.45,12.356682 C12.1,11.9046083 12.55,11.3018433 12.9,10.5986175 C13.1,10.1967742 12.95,9.69447005 12.6,9.44331797 C12.15,9.14193548 11.65,8.99124424 11.15,9.04147465 C10.7,9.04147465 10.15,9.04147465 9.85,9.5437788 C10.25,10.297235 10.25,10.297235 10.95,10.3976959 C11.05,10.3976959 11.1,10.3976959 11.2,10.3976959 C11.45,10.4479263 11.6,10.6990783 11.6,10.9 C11.6,11.1511521 11.4,11.3520737 11.1,11.3018433 C10.35,11.2013825 9.8,11.502765 9.2,11.8543779 C8.4,12.356682 7.5,12.5073733 6.55,12.10553 C6.45,12.0552995 6.3,12.0552995 6.15,12.2059908 C6.4,12.7585253 7,13.0599078 7.5,13.562212 Z M9.4,10.6488479 C9.3,10.3474654 9.15,10.1465438 9.1,9.84516129 C8.9,9.14193548 9.1,8.58940092 9.75,8.23778802 C10.1,8.03686636 10.5,8.03686636 10.9,7.98663594 C11.3,7.93640553 11.7,8.13732719 12.05,7.93640553 C11.95,7.08248848 11.9,6.98202765 11.3,6.88156682 C10.8,6.78110599 10.25,6.73087558 9.75,6.88156682 C8.6,7.28341014 7.5,7.63502304 6.55,8.43870968 C6.35,9.14193548 6.45,9.84516129 6.75,10.4479263 C6.95,10.9502304 7.35,11.2013825 7.9,11.1009217 C8.45,11.1009217 8.95,10.9502304 9.4,10.6488479 Z" id="Shape" fill="#010101"/>
          <path d="M7.5,13.562212 C7,13.1101382 6.4,12.7585253 6.3,12.10553 C6.45,11.9046083 6.6,11.9548387 6.7,12.0050691 C7.6,12.4069124 8.5,12.3064516 9.35,11.7539171 C9.95,11.4023041 10.5,11.1009217 11.25,11.2013825 C11.5,11.2516129 11.7,11.0506912 11.75,10.7995392 C11.75,10.5483871 11.6,10.3474654 11.35,10.297235 C11.25,10.297235 11.2,10.297235 11.1,10.297235 C10.4,10.1967742 10.4,10.1967742 10,9.44331797 C10.3,8.94101382 10.85,8.94101382 11.3,8.94101382 C11.8,8.94101382 12.35,9.04147465 12.75,9.34285714 C13.15,9.64423963 13.25,10.0963134 13.05,10.4981567 C12.7,11.2013825 12.25,11.8041475 11.6,12.2562212 C11.2,12.5073733 10.8,12.8087558 10.4,13.0096774 C9.9,13.2608295 9.6,13.6626728 9.5,14.2152074 C9.45,14.4663594 9.35,14.7677419 9.3,15.018894 C8.85,17.5806452 7.85,20.0419355 7.5,22.6036866 C7,24.0101382 6.65,25.4668203 6.5,26.9235023 C6.3,28.5308756 5.8,30.037788 5.55,31.6451613 C5.45,32.2479263 5.35,32.8506912 5.25,33.4032258 C5.1,34.3576037 5.4,35.0105991 6.2,35.5129032 C7.2,36.0654378 8.25,36.6179724 9.25,37.1705069 C10.25,37.7230415 11.25,38.1751152 12.2,38.7276498 C13.05,39.2299539 14,39.6317972 14.9,39.9834101 C15.8,40.335023 16.65,40.7870968 17.55,41.0884793 C18.65,41.4903226 19.65,42.0428571 20.75,42.39447 C21.15,42.5451613 21.45,42.7460829 21.75,43.0474654 C22.3,43.6 22.45,44.7050691 22.05,45.4082949 C21.85,45.7599078 21.55,46.0612903 21.1,46.0612903 C20.65,46.1115207 20.25,46.2119816 19.8,46.1617512 C18.45,46.0612903 17.15,45.7096774 15.95,45.056682 C14.85,44.5041475 13.8,43.8009217 12.8,43.1479263 C10.9,41.9423963 8.95,40.8875576 6.95,39.8829493 C5.4,39.1294931 3.9,38.275576 2.45,37.421659 C1.65,36.9695853 1.45,36.7686636 1.7,35.6635945 C1.95,34.6589862 2.2,33.6543779 2.5,32.6497696 C3.1,30.5903226 3.8,28.5308756 4.25,26.3709677 C4.4,25.5672811 4.7,24.8138249 4.95,24.0603687 C5.2,23.3069124 5.45,22.5534562 5.65,21.7497696 C6.05,20.2428571 6.55,18.7359447 7,17.2792627 C7.25,16.1741935 7.6,14.9184332 7.5,13.562212 Z" id="Shape" fill="#D0E9EA"/>
          <path d="M9.4,10.6488479 C8.95,11.0004608 8.45,11.1009217 7.95,11.1511521 C7.4,11.2516129 7,11.0004608 6.8,10.4981567 C6.55,9.84516129 6.45,9.1921659 6.6,8.48894009 C7.5,7.68525346 8.65,7.28341014 9.8,6.93179724 C10.3,6.78110599 10.85,6.83133641 11.35,6.93179724 C11.9,7.03225806 12,7.13271889 12.1,7.98663594 C11.75,8.23778802 11.35,7.98663594 10.95,8.03686636 C10.55,8.08709677 10.15,8.08709677 9.8,8.28801843 C9.15,8.63963134 8.9,9.1921659 9.15,9.89539171 C9.2,10.0963134 9.3,10.3474654 9.4,10.6488479 Z" id="Shape" fill="#CDE6E7"/>
        </g>
        <g id="Group" transform="translate(21.000000, 18.548387)">
          <path d="M1.3,10.8497696 C0.65,10.5483871 0.6,9.89539171 0.55,9.1921659 C0.45,8.03686636 0.5,6.88156682 0.45,5.72626728 C0.45,5.1235023 0.7,4.72165899 1.15,4.4202765 C2.05,3.81751152 3.05,3.36543779 4.05,3.01382488 C6.75,2.059447 9.5,1.50691244 12.3,1.10506912 C16.2,0.552534562 20.1,0.301382488 24,0.351612903 C27.35,0.401843318 30.7,0.703225806 34,1.30599078 C34.85,1.45668203 35.7,1.75806452 36.55,1.95898618 C36.75,2.00921659 36.95,2.10967742 37.1,2.15990783 C38.3,2.7124424 38.95,3.66682028 39,4.97281106 C39.05,6.27880184 38.95,7.53456221 38.85,8.79032258 C38.8,9.29262673 38.35,9.39308756 38.05,9.79493088 C38,16.224424 38,22.8046083 37.95,29.3345622 C37.9,35.8142857 37.8,42.3442396 37.7,48.8741935 C38.4,49.175576 38.55,49.778341 38.6,50.4313364 C38.7,51.8880184 38.75,53.29447 38.7,54.7511521 C38.7,55.3539171 38.5,55.7557604 38,56.0571429 C37.35,56.4087558 36.75,56.7101382 36.1,57.0617512 C34.15,58.0663594 32.15,58.7193548 30,59.0709677 C29.1,59.221659 28.2,59.4225806 27.3,59.5732719 C26.05,59.7741935 24.75,59.9751152 23.5,60.075576 C21.05,60.2764977 18.65,60.3769585 16.2,60.2262673 C15.05,60.1760369 13.9,60.1258065 12.75,59.8746544 C11.3,59.5732719 9.85,59.3723502 8.4,58.9705069 C6.55,58.4179724 4.8,57.7147465 3.05,56.8608295 C2.4,56.559447 1.85,56.1073733 1.25,55.70553 C1,55.5548387 0.85,55.3036866 0.85,55.0023041 C0.85,54.7511521 0.8,54.5 0.85,54.2990783 C0.95,53.043318 1,51.837788 1.1,50.5820276 C1.1,50.3308756 1.1,50.0294931 1.25,49.8788018 C1.7,49.4267281 1.65,48.8741935 1.65,48.321659 C1.65,46.2119816 1.65,44.0520737 1.45,41.9423963 C1.4,41.2391705 1.5,40.4857143 1.5,39.7824885 C1.45,38.4262673 1.35,37.0700461 1.35,35.7138249 C1.35,32.7 1.2,29.6861751 1.25,26.6723502 C1.3,22.6539171 1.25,18.6354839 1.25,14.6170507 C1.3,13.3110599 1.3,12.10553 1.3,10.8497696 Z M12.45,9.14193548 C12.4,9.09170507 12.3,9.04147465 12.25,9.04147465 C10,8.94101382 7.8,8.63963134 5.65,8.1875576 C4.5,7.93640553 3.3,7.68525346 2.25,7.18294931 C2,7.08248848 1.8,6.93179724 1.45,6.98202765 C1.5,7.53456221 1.6,8.08709677 1.55,8.63963134 C1.5,9.5437788 1.95,10.0460829 2.75,10.3474654 C2.95,10.3976959 3.1,10.4981567 3.3,10.5483871 C5.15,11.1511521 7.05,11.5529954 9,11.8543779 C9.9,12.0050691 10.8,12.1557604 11.7,12.0050691 C12,12.0552995 12.35,12.10553 12.65,12.0050691 C12.8,12.0552995 12.95,12.10553 13.1,12.10553 C15.45,12.1557604 17.8,12.2059908 20.15,12.10553 C23.6,11.9046083 27,11.6534562 30.35,11.0004608 C32.1,10.6488479 33.75,10.2470046 35.4,9.64423963 C36.25,9.34285714 37.05,8.89078341 37.8,8.28801843 C37.95,7.28341014 38,6.32903226 37.95,5.37465438 C37.7,5.32442396 37.6,5.42488479 37.45,5.47511521 C36.65,5.87695853 35.8,6.32903226 34.95,6.68064516 C33.65,7.23317972 32.25,7.4843318 30.9,7.73548387 C28.1,8.33824885 25.25,8.79032258 22.35,8.89078341 C20.75,8.94101382 19.15,9.04147465 17.55,9.09170507 C16.85,8.99124424 16.1,8.99124424 15.4,9.09170507 C14.45,8.99124424 13.5,8.99124424 12.5,9.09170507 C12.55,9.09170507 12.5,9.09170507 12.45,9.14193548 Z M12.15,55.0023041 C12,55.0023041 11.85,54.9520737 11.7,54.9520737 C11.6,54.9018433 11.5,54.8013825 11.4,54.8013825 C9.4,54.5 7.45,53.7967742 5.55,53.1940092 C4.65,52.9428571 3.75,52.5410138 2.95,52.0387097 C2.7,51.8880184 2.5,51.7373272 2.1,51.7875576 C2,52.7419355 1.9,53.7465438 1.95,54.7511521 C2.45,55.2534562 3,55.6552995 3.6,55.9064516 C5.6,56.7603687 7.65,57.6142857 9.75,58.1165899 C11,58.4179724 12.25,58.5686636 13.5,58.7193548 C15.75,59.0207373 18,59.1714286 20.3,59.0207373 C20.65,59.0207373 21,59.1211982 21.35,58.8700461 C21.6,58.8700461 21.8,58.9202765 22.05,58.9202765 C25.15,58.8198157 28.25,58.3175115 31.25,57.5640553 C33.25,57.0617512 35.15,56.3585253 36.85,55.2534562 C37.1,55.102765 37.4,54.9520737 37.6,54.5502304 C37.5,53.4953917 37.65,52.3400922 37.5,51.235023 C37.25,51.1345622 37.1,51.235023 37,51.3354839 C35.6,52.4907834 34,53.1437788 32.3,53.6460829 C29.95,54.3493088 27.6,54.8013825 25.15,55.0023041 C24.3,55.102765 23.4,55.102765 22.55,55.2534562 C21.7,55.4041475 20.8,55.4543779 19.95,55.4543779 C19.6,55.4543779 19.25,55.4543779 18.9,55.5046083 C18.35,55.5046083 17.8,55.4543779 17.25,55.4543779 C15.55,55.3036866 13.85,55.1529954 12.15,55.0023041 Z M14.55,54.0479263 C15.7,54.3493088 16.9,54.1986175 18.1,54.1483871 C19.25,54.1986175 20.4,54.2488479 21.5,54.0479263 C24.1,54.0981567 26.7,53.6460829 29.15,53.1940092 C29.4,52.8423963 29.4,52.5410138 29.4,52.2898618 C29.4,51.9382488 29.4,51.5866359 29.4,51.1847926 C29.55,49.5774194 30.1,48.2211982 31.4,47.2668203 C31.55,47.1663594 31.65,47.116129 31.75,47.0658986 C31.8,46.0612903 31.8,45.1571429 31.85,44.3032258 C31.9,40.7368664 31.75,37.1705069 32,33.6543779 C32.1,32.097235 32.1,30.5400922 32.1,28.9829493 C32.1,27.1746544 32.05,25.3663594 32.15,23.5580645 C32.25,21.5990783 32.3,19.6400922 32.3,17.681106 C32.3,17.3797235 32.35,17.0281106 32.1,16.6262673 C30.95,16.1741935 30.5,15.0691244 30.2,13.8635945 C30.15,13.6124424 30.15,13.3110599 30.1,13.0096774 C30.05,12.7585253 30.05,12.5073733 29.75,12.356682 C29.15,12.5576037 28.4,12.5073733 27.7,12.6580645 C25.4,13.0599078 23.05,13.3110599 20.7,13.3110599 C19.45,13.3110599 18.25,13.3612903 17,13.4115207 C16.9,13.4115207 16.75,13.4115207 16.65,13.4115207 C15.8,13.2608295 14.95,13.3110599 14.1,13.3612903 C13.55,13.2608295 12.95,13.2608295 12.4,13.3110599 C11.75,13.2608295 11.05,13.1603687 10.4,13.1101382 C10.15,13.5119816 10.25,13.9138249 10.25,14.3156682 C10.1,15.7723502 9.8,17.078341 8.1,17.5806452 C8.1,17.8820276 8.1,18.0829493 8.1,18.3341014 C8.1,20.2428571 8.15,22.1013825 8.1,23.9599078 C8.05,26.4211982 8.15,28.9327189 7.95,31.3940092 C7.85,32.4488479 7.95,33.5539171 8,34.6087558 C8.15,38.4262673 8.15,42.2940092 8.1,46.1617512 C8.1,46.6138249 8.1,47.0156682 8.1,47.4175115 C9.65,48.8741935 10.2,50.8331797 9.95,53.3447005 C10.75,53.6963134 11.6,53.8470046 12.45,53.7967742 C13.1,53.9976959 13.8,54.0479263 14.55,54.0479263 Z M2.25,11.3520737 C2.25,11.8543779 2.25,12.2059908 2.25,12.5576037 C2.25,15.0691244 2.3,17.6308756 2.3,20.1423963 C2.3,25.4668203 2.25,30.7410138 2.35,36.0654378 C2.4,38.2253456 2.5,40.3852535 2.5,42.5451613 C2.5,45.0064516 2.5,47.4677419 2.5,49.8788018 C2.5,50.0797235 2.5,50.2806452 2.55,50.4815668 C2.6,50.6322581 2.7,50.7829493 2.9,50.7327189 C3.1,50.6824885 3.1,50.4815668 3.1,50.3308756 C3.1,50.0294931 3.1,49.6778802 3.1,49.3764977 C3.1,47.9198157 3.15,46.4631336 3.15,45.056682 C3.15,44.7552995 3.15,44.4036866 3.5,44.2529954 C3.65,44.3032258 3.8,44.4036866 3.8,44.6046083 C3.9,45.7096774 4.1,46.8147465 4,47.9198157 C3.9,49.0248848 3.95,50.1801843 3.9,51.2852535 C3.9,51.4359447 4,51.5866359 4.2,51.5866359 C4.25,51.4861751 4.3,51.3857143 4.3,51.2852535 C4.4,49.778341 4.5,48.2211982 4.55,46.7142857 C4.55,46.5133641 4.55,46.3124424 4.6,46.1115207 C4.6,45.9608295 4.75,45.8101382 4.95,45.7599078 C5.65,46.5635945 5.1,47.5682028 5.35,48.4723502 C5.8,48.1207373 6.2,47.8193548 6.65,47.4677419 C6.65,47.116129 6.7,46.7645161 6.7,46.4129032 C6.7,41.8921659 6.65,37.3211982 6.6,32.8004608 C6.6,32.3986175 6.45,31.9967742 6.5,31.5949309 C6.7,30.5400922 6.6,29.5354839 6.65,28.4806452 C6.65,26.5718894 6.7,24.6129032 6.75,22.7041475 C6.8,21.2976959 6.85,19.9414747 6.85,18.535023 C6.85,17.8820276 6.75,17.3797235 6.05,17.078341 C5.55,16.8774194 5.3,16.3751152 5.15,15.7723502 C4.95,14.9184332 4.9,14.0142857 4.9,13.1603687 C4.9,12.9092166 5,12.6078341 4.7,12.2562212 C4.1,12.10553 3.35,11.5529954 2.25,11.3520737 Z M33.35,16.7769585 C33.35,17.3797235 33.35,17.8820276 33.35,18.4345622 C33.4,19.4894009 33.55,20.4940092 33.3,21.5488479 C33.25,21.7497696 33.3,21.9506912 33.3,22.1516129 C33.3,24.9142857 33.25,27.6769585 33.25,30.4396313 C33.25,31.1930876 33.1,31.9465438 33.1,32.7 C33.05,36.1658986 33.05,39.5815668 33.05,43.0474654 C33.05,44.0520737 33.1,45.056682 32.95,46.0612903 C32.85,46.8147465 32.85,46.8147465 33.75,47.116129 C33.75,46.6138249 33.75,46.1617512 33.75,45.659447 C33.75,45.2073733 33.6,44.7050691 33.95,44.3534562 C34.35,44.4036866 34.45,44.6046083 34.45,44.8557604 C34.45,45.8603687 34.8,46.8147465 34.75,47.8193548 C34.7,48.3718894 34.8,48.924424 34.75,49.5271889 C34.75,50.1299539 34.9,50.6824885 35.05,51.3354839 C35.25,51.0341014 35.2,50.7829493 35.2,50.5317972 C35.2,48.321659 35.2,46.1115207 35.2,43.9013825 C35.2,43.6502304 35.2,43.3990783 35.25,43.1981567 C35.25,43.0474654 35.4,42.8967742 35.6,42.8967742 C35.75,42.8967742 35.9,42.997235 35.95,43.1479263 C36,43.2483871 36,43.3990783 36,43.4995392 C36.2,45.3078341 36.25,47.116129 36.2,48.8741935 C36.2,49.3764977 36.2,49.8788018 36.25,50.4815668 C36.75,50.1299539 36.7,49.6778802 36.7,49.2258065 C36.7,47.9700461 36.7,46.7142857 36.75,45.5087558 C36.8,42.0930876 36.75,38.6774194 36.85,35.3119816 C36.9,33.8552995 36.9,32.4488479 36.95,30.9921659 C37,26.3709677 37,21.7497696 37,17.1285714 C37,15.0691244 37.05,13.0096774 37.05,11.0004608 C37.05,10.7995392 37.15,10.4981567 36.8,10.3474654 C36.35,10.5986175 35.8,10.6990783 35.35,11.1009217 C35.35,11.8543779 35.4,12.6078341 35.35,13.3612903 C35.15,14.8179724 34.65,16.0235023 33.35,16.7769585 Z M4.35,6.63041475 C4.75,6.78110599 4.95,6.93179724 5.2,6.93179724 C6.65,7.23317972 8.1,7.53456221 9.55,7.68525346 C11.65,7.88617512 13.8,7.93640553 15.9,7.93640553 C20.3,7.93640553 24.7,7.73548387 29,6.93179724 C30.9,6.58018433 32.75,6.22857143 34.55,5.57557604 C34.75,5.47511521 34.9,5.37465438 34.8,5.07327189 C34.45,4.97281106 34.1,4.87235023 33.7,4.7718894 C31.8,4.4202765 29.85,4.06866359 27.9,3.91797235 C24.7,3.66682028 21.5,3.66682028 18.3,3.86774194 C15.05,4.06866359 11.85,4.37004608 8.7,5.22396313 C7.35,5.67603687 5.95,6.02764977 4.35,6.63041475 Z M37.6,3.86774194 C36.95,3.16451613 36.15,2.91336406 35.35,2.66221198 C34.4,2.36082949 33.4,2.21013825 32.4,2.059447 C30.55,1.7078341 28.7,1.50691244 26.8,1.45668203 C25.45,1.40645161 24.1,1.40645161 22.7,1.40645161 C20.25,1.40645161 17.85,1.50691244 15.4,1.75806452 C13.2,1.95898618 11.05,2.26036866 8.9,2.7124424 C6.95,3.11428571 5,3.61658986 3.15,4.37004608 C2.65,4.57096774 2.2,4.82211982 1.85,5.17373272 C1.75,5.27419355 1.7,5.47511521 1.75,5.62580645 C1.95,6.07788018 2.95,6.42949309 3.4,6.1281106 C4.1,5.67603687 4.9,5.32442396 5.7,5.07327189 C6.8,4.72165899 7.9,4.37004608 9.05,4.11889401 C12.2,3.36543779 15.4,2.96359447 18.65,2.86313364 C20.05,2.81290323 21.45,2.86313364 22.85,2.81290323 C25.85,2.76267281 28.85,2.91336406 31.8,3.36543779 C33.25,3.61658986 34.75,3.76728111 36.1,4.37004608 C36.8,4.67142857 37.25,4.57096774 37.6,3.86774194 Z M30.4,52.8926267 C31.5,52.6917051 32.5,52.3903226 33.4,52.0387097 C33.75,51.0341014 33.75,50.3308756 33.45,49.2760369 C33.3,48.7737327 33.2,48.2211982 32.65,47.9700461 C31.7,48.1207373 31.2,48.7737327 30.85,49.5271889 C30.45,50.5820276 30.3,51.6368664 30.4,52.8926267 Z M8.75,53.0935484 C8.9,51.6368664 8.65,50.3308756 8.05,49.1253456 C8,48.9746544 7.9,48.8741935 7.75,48.7235023 C7.5,48.4723502 7.15,48.4221198 6.9,48.6230415 C6.5,48.924424 6.2,49.3764977 6.05,49.8788018 C5.85,50.5820276 5.7,51.3354839 5.65,52.1391705 C6.65,52.5912442 7.6,52.8926267 8.75,53.0935484 Z M8.95,12.8589862 C8,12.9092166 7.15,12.5073733 6.2,12.4571429 C6.1,13.4115207 6.1,14.3658986 6.4,15.3202765 C6.6,16.0235023 7.1,16.3751152 7.8,16.3248848 C8.35,16.3248848 8.75,15.9732719 8.95,15.2700461 C9.1,14.5668203 9.1,13.8133641 8.95,12.8589862 Z M31.05,12.1557604 C31.05,12.4069124 31.05,12.6580645 31.1,12.9092166 C31.2,13.3612903 31.25,13.8635945 31.4,14.3156682 C31.5,14.7175115 31.75,15.018894 32.05,15.3202765 C32.6,15.8225806 33.15,15.7723502 33.55,15.1193548 C34.25,14.0142857 34.2,12.8087558 33.95,11.5529954 C32.9,11.7036866 32,11.8041475 31.05,12.1557604 Z" id="Shape" fill="#010000"/>
          <path d="M17,13.3612903 C18.25,13.3110599 19.45,13.3110599 20.7,13.2608295 C23.05,13.2608295 25.4,13.0096774 27.7,12.6078341 C28.4,12.5073733 29.1,12.5073733 29.75,12.3064516 C30.1,12.5073733 30.1,12.7585253 30.1,12.959447 C30.15,13.2608295 30.15,13.5119816 30.2,13.8133641 C30.5,15.018894 30.9,16.1239631 32.1,16.5760369 C32.35,16.9778802 32.3,17.2792627 32.3,17.6308756 C32.25,19.5898618 32.25,21.5488479 32.15,23.5078341 C32.05,25.316129 32.1,27.124424 32.1,28.9327189 C32.1,30.4898618 32.1,32.0470046 32,33.6041475 C31.75,37.1705069 31.9,40.7368664 31.85,44.2529954 C31.85,45.1571429 31.8,46.0110599 31.75,47.0156682 C31.7,47.0658986 31.55,47.116129 31.4,47.2165899 C30.05,48.1709677 29.5,49.5271889 29.4,51.1345622 C29.35,51.4861751 29.4,51.837788 29.4,52.2396313 C29.4,52.5410138 29.4,52.7921659 29.15,53.1437788 C26.7,53.6460829 24.15,54.0981567 21.5,53.9976959 C21.5,51.1847926 21.5,48.3718894 21.5,45.5589862 C21.5,45.2073733 21.55,44.80553 21.45,44.5041475 C21.25,44.0018433 21.3,43.4995392 21.3,42.9470046 C21.3,40.083871 21.3,37.2709677 21.3,34.4078341 C21.3,34.1064516 21.35,33.7046083 21.25,33.4534562 C21,32.8506912 21.1,32.2479263 21.05,31.6953917 C21.05,28.9829493 21,26.3207373 21.05,23.6082949 C21.05,22.8548387 20.75,22.1516129 21,21.3981567 C20.65,20.6949309 20.85,19.9917051 20.8,19.2884793 C20.75,18.3843318 20.75,17.4299539 20.8,16.5258065 C20.85,15.5211982 20.55,14.5668203 20.5,13.5119816 C19.55,13.4617512 18.7,13.5119816 17.85,13.4617512 C17.55,13.4617512 17.25,13.6124424 17,13.3612903 Z" id="Shape" fill="#DD002B"/>
          <path d="M17,13.3612903 C17.25,13.6124424 17.5,13.4617512 17.8,13.5119816 C18.65,13.562212 19.55,13.4617512 20.45,13.562212 C20.5,14.6170507 20.85,15.5714286 20.75,16.5760369 C20.7,17.4801843 20.75,18.4345622 20.75,19.3387097 C20.75,20.0419355 20.6,20.7953917 20.95,21.4483871 C20.7,22.2018433 21,22.9050691 21,23.6585253 C21,26.3709677 21,29.0331797 21,31.7456221 C21,32.3483871 20.95,32.9511521 21.2,33.5036866 C21.3,33.8050691 21.25,34.156682 21.25,34.4580645 C21.25,37.3211982 21.25,40.1341014 21.25,42.997235 C21.25,43.4995392 21.2,44.0018433 21.4,44.5543779 C21.5,44.8557604 21.45,45.2576037 21.45,45.6092166 C21.45,48.4221198 21.45,51.235023 21.45,54.0479263 C20.3,54.2990783 19.2,54.1986175 18.05,54.1483871 C17.85,53.8470046 17.4,54.1483871 17.15,53.6963134 C17.15,53.2442396 17.15,52.6917051 17.15,52.1391705 C17.15,51.837788 17.15,51.4861751 17.05,51.1847926 C16.9,50.7829493 16.9,50.381106 16.9,49.9792627 C16.9,49.2760369 17,48.5728111 16.85,47.9198157 C16.55,46.5635945 16.7,45.2073733 16.65,43.8511521 C16.65,43.6 16.7,43.3488479 16.6,43.1479263 C16.3,42.4447005 16.4,41.7414747 16.4,40.9880184 C16.4,39.5313364 16.4,38.0746544 16.4,36.6682028 C16.4,36.3668203 16.45,36.0654378 16.35,35.8142857 C16.1,35.2617512 16.15,34.7092166 16.15,34.156682 C16.15,27.6267281 16.15,21.1470046 16.15,14.6170507 C16.15,14.2654378 16.15,13.9138249 16.15,13.562212 C16.3,13.4115207 16.45,13.3612903 16.55,13.2608295 C16.75,13.3612903 16.9,13.3612903 17,13.3612903 Z" id="Shape" fill="#F73D61"/>
          <path d="M2.25,11.3520737 C3.35,11.5529954 4.1,12.10553 4.9,12.1557604 C5.2,12.5073733 5.15,12.8087558 5.1,13.0599078 C5.05,13.9640553 5.15,14.8179724 5.35,15.6718894 C5.5,16.2746544 5.75,16.7769585 6.25,16.9778802 C6.95,17.2792627 7.05,17.7815668 7.05,18.4345622 C7.05,19.8410138 7,21.197235 6.95,22.6036866 C6.9,24.5124424 6.85,26.4714286 6.85,28.3801843 C6.85,29.435023 6.9,30.4396313 6.7,31.49447 C6.65,31.8963134 6.75,32.2981567 6.8,32.7 C6.85,37.2207373 6.85,41.7917051 6.9,46.3124424 C6.9,46.6640553 6.85,47.0156682 6.85,47.3672811 C6.4,47.718894 6,48.0202765 5.55,48.3718894 C5.25,47.4677419 5.8,46.4631336 5.15,45.659447 C4.95,45.7599078 4.8,45.8603687 4.8,46.0110599 C4.75,46.2119816 4.75,46.4129032 4.75,46.6138249 C4.65,48.1207373 4.6,49.6778802 4.5,51.1847926 C4.5,51.2852535 4.45,51.3857143 4.4,51.4861751 C4.2,51.4861751 4.05,51.3857143 4.1,51.1847926 C4.15,50.0797235 4.15,48.924424 4.2,47.8193548 C4.3,46.7142857 4.1,45.6092166 4,44.5041475 C4,44.3534562 3.85,44.2529954 3.7,44.1525346 C3.35,44.3032258 3.35,44.6548387 3.35,44.9562212 C3.35,46.4129032 3.3,47.8695853 3.3,49.2760369 C3.3,49.5774194 3.3,49.9290323 3.3,50.2304147 C3.3,50.381106 3.25,50.5317972 3.1,50.6322581 C2.9,50.6322581 2.8,50.5317972 2.75,50.381106 C2.7,50.1801843 2.7,49.9792627 2.7,49.778341 C2.7,47.3170507 2.7,44.8557604 2.7,42.4447005 C2.7,40.2847926 2.55,38.1248848 2.55,35.964977 C2.45,30.6907834 2.5,25.3663594 2.5,20.0419355 C2.5,17.5304147 2.45,14.9686636 2.45,12.4571429 C2.25,12.2059908 2.25,11.8543779 2.25,11.3520737 Z" id="Shape" fill="#DD002B"/>
          <path d="M12.35,53.7465438 C11.45,53.7967742 10.65,53.6460829 9.85,53.29447 C10.15,50.7327189 9.55,48.8239631 8,47.3672811 C8,47.0156682 8,46.5635945 8,46.1115207 C8.05,42.2437788 8.05,38.4262673 7.9,34.5585253 C7.85,33.5036866 7.75,32.3986175 7.85,31.3437788 C8.1,28.8824885 7.95,26.3709677 8,23.9096774 C8.05,22.0511521 8,20.1423963 8,18.283871 C8,18.0327189 8,17.8317972 8,17.5304147 C9.65,17.0281106 10,15.7221198 10.15,14.2654378 C10.2,13.8635945 10.05,13.4617512 10.3,13.0599078 C11,13.1603687 11.65,13.2105991 12.3,13.2608295 C12.3,14.5668203 12.3,15.8225806 12.3,17.1285714 C12.3,17.3797235 12.35,17.6308756 12.25,17.8317972 C12,18.3843318 12.05,18.9368664 12.05,19.4894009 C12.05,23.859447 12.05,28.2294931 12.05,32.5995392 C12.05,35.7640553 12,38.9285714 12.05,42.0930876 C12.1,45.3078341 11.85,48.4723502 12.25,51.6870968 C12.45,52.3903226 12.35,53.0935484 12.35,53.7465438 Z" id="Shape" fill="#DD002B"/>
          <path d="M33.35,16.7769585 C34.65,15.9732719 35.15,14.8179724 35.2,13.4115207 C35.25,12.6580645 35.2,11.9046083 35.2,11.1511521 C35.65,10.7493088 36.2,10.6488479 36.65,10.3976959 C37,10.5483871 36.9,10.8497696 36.9,11.0506912 C36.9,13.1101382 36.85,15.1695853 36.85,17.1788018 C36.85,21.8 36.85,26.4211982 36.8,31.0423963 C36.8,32.4990783 36.75,33.90553 36.7,35.362212 C36.6,38.7778802 36.6,42.143318 36.6,45.5589862 C36.6,46.8147465 36.6,48.0705069 36.55,49.2760369 C36.55,49.6778802 36.6,50.1801843 36.1,50.5317972 C36.1,49.9792627 36.05,49.4267281 36.05,48.924424 C36.1,47.116129 36.05,45.3078341 35.85,43.5497696 C35.85,43.4493088 35.85,43.2986175 35.8,43.1981567 C35.75,43.0474654 35.6,42.9470046 35.45,42.9470046 C35.3,42.9470046 35.15,43.0474654 35.1,43.2483871 C35.05,43.4995392 35.05,43.7506912 35.05,43.9516129 C35.05,46.1617512 35.05,48.3718894 35.05,50.5820276 C35.05,50.8331797 35.1,51.0843318 34.9,51.3857143 C34.75,50.7327189 34.6,50.1801843 34.6,49.5774194 C34.6,49.0248848 34.55,48.4723502 34.6,47.8695853 C34.65,46.864977 34.35,45.9105991 34.3,44.9059908 C34.3,44.6548387 34.15,44.4539171 33.8,44.4036866 C33.45,44.7552995 33.6,45.2576037 33.6,45.7096774 C33.6,46.1617512 33.6,46.6640553 33.6,47.1663594 C32.7,46.8147465 32.7,46.8147465 32.8,46.1115207 C32.95,45.1069124 32.9,44.1023041 32.9,43.0976959 C32.95,39.6317972 32.95,36.216129 32.95,32.7502304 C32.95,31.9967742 33.1,31.243318 33.1,30.4898618 C33.15,27.7271889 33.15,24.9645161 33.15,22.2018433 C33.15,22.0009217 33.1,21.8 33.15,21.5990783 C33.4,20.5442396 33.2,19.5396313 33.2,18.4847926 C33.3,17.9322581 33.35,17.3797235 33.35,16.7769585 Z" id="Shape" fill="#DC002B"/>
          <path d="M4.35,6.63041475 C5.9,5.97741935 7.35,5.62580645 8.8,5.27419355 C11.95,4.4202765 15.15,4.11889401 18.4,3.91797235 C21.6,3.71705069 24.8,3.71705069 28,3.96820276 C29.95,4.11889401 31.9,4.47050691 33.8,4.82211982 C34.2,4.87235023 34.55,5.02304147 34.9,5.1235023 C35,5.47511521 34.85,5.57557604 34.65,5.62580645 C32.85,6.27880184 30.95,6.63041475 29.1,6.98202765 C24.75,7.78571429 20.4,7.98663594 16,7.98663594 C13.9,7.98663594 11.75,7.93640553 9.65,7.73548387 C8.2,7.58479263 6.75,7.28341014 5.3,6.98202765 C5,6.93179724 4.75,6.83133641 4.35,6.63041475 Z" id="Shape" fill="#F4E6D0"/>
          <path d="M12.35,53.7465438 C12.35,53.043318 12.45,52.3903226 12.35,51.6870968 C11.95,48.4723502 12.2,45.3078341 12.15,42.0930876 C12.1,38.9285714 12.15,35.7640553 12.15,32.5995392 C12.15,28.2294931 12.15,23.859447 12.15,19.4894009 C12.15,18.9368664 12.05,18.3843318 12.35,17.8317972 C12.45,17.6308756 12.4,17.3797235 12.4,17.1285714 C12.4,15.8225806 12.4,14.5668203 12.4,13.2608295 C12.95,13.2105991 13.55,13.2105991 14.1,13.3110599 C14.4,13.6626728 14.3,14.0645161 14.3,14.4663594 C14.3,16.3751152 14.3,18.2336406 14.3,20.0921659 C14.3,20.7953917 14.45,21.5488479 14.15,22.2520737 C14.35,23.0557604 14.25,23.859447 14.25,24.6129032 C14.25,25.4668203 14.3,26.2705069 14.3,27.124424 C14.3,32.7502304 14.3,38.4262673 14.3,44.1023041 C14.3,44.4539171 14.25,44.8557604 14.35,45.1571429 C14.5,45.6092166 14.5,46.0110599 14.5,46.4631336 C14.5,48.9746544 14.5,51.5364055 14.55,54.0479263 C13.8,54.0479263 13.1,53.9976959 12.35,53.7465438 Z" id="Shape" fill="#F73D61"/>
          <path d="M14.55,54.0479263 C14.55,51.5364055 14.55,48.9746544 14.5,46.4631336 C14.5,46.0110599 14.5,45.6092166 14.35,45.1571429 C14.25,44.8557604 14.3,44.4539171 14.3,44.1023041 C14.3,38.4764977 14.3,32.8004608 14.3,27.124424 C14.3,26.2705069 14.25,25.4668203 14.25,24.6129032 C14.25,23.8092166 14.4,23.00553 14.15,22.2520737 C14.4,21.5488479 14.25,20.8456221 14.3,20.0921659 C14.3,18.2336406 14.3,16.3248848 14.3,14.4663594 C14.3,14.0645161 14.35,13.6626728 14.1,13.3110599 C14.95,13.2608295 15.8,13.2105991 16.65,13.3612903 C16.5,13.4617512 16.4,13.562212 16.25,13.6626728 C16.25,13.9640553 16.25,14.3658986 16.25,14.7175115 C16.25,21.2474654 16.25,27.7271889 16.25,34.2571429 C16.25,34.8096774 16.2,35.362212 16.45,35.9147465 C16.55,36.1658986 16.5,36.4672811 16.5,36.7686636 C16.5,38.2253456 16.5,39.6820276 16.5,41.0884793 C16.5,41.7917051 16.4,42.5451613 16.7,43.2483871 C16.8,43.4493088 16.7,43.7004608 16.75,43.9516129 C16.8,45.3078341 16.65,46.6640553 16.95,48.0202765 C17.1,48.6732719 17,49.3764977 17,50.0797235 C17,50.4815668 17,50.8834101 17.15,51.2852535 C17.25,51.5866359 17.25,51.9382488 17.25,52.2396313 C17.25,52.7921659 17.25,53.3447005 17.25,53.7967742 C17.55,54.2488479 17.95,53.897235 18.15,54.2488479 C16.9,54.1986175 15.75,54.3493088 14.55,54.0479263 Z" id="Shape" fill="#DD002B"/>
          <path d="M12.6,9.14193548 C13.55,9.04147465 14.5,9.09170507 15.5,9.14193548 C15.2,9.5437788 15.2,10.0460829 15.3,10.4981567 C15.4,11.0004608 14.9,11.4023041 15.15,11.9548387 C16.1,11.9548387 17.05,12.0050691 18.1,11.9548387 C18.15,11.1009217 18.15,10.297235 18.15,9.59400922 C17.95,9.39308756 17.8,9.29262673 17.65,9.14193548 C19.25,9.09170507 20.85,8.99124424 22.45,8.94101382 C25.35,8.79032258 28.15,8.38847926 31,7.78571429 C32.35,7.4843318 33.75,7.28341014 35.05,6.73087558 C35.9,6.37926267 36.7,5.92718894 37.55,5.52534562 C37.7,5.47511521 37.8,5.32442396 38.05,5.42488479 C38.1,6.37926267 38.05,7.38387097 37.9,8.33824885 C37.15,8.94101382 36.35,9.34285714 35.5,9.69447005 C33.85,10.297235 32.15,10.7493088 30.45,11.0506912 C27.05,11.7036866 23.65,11.9548387 20.25,12.1557604 C17.9,12.2562212 15.55,12.2059908 13.2,12.1557604 C13.05,12.1557604 12.9,12.10553 12.75,12.0552995 C12.6,11.1009217 12.6,10.1465438 12.6,9.14193548 Z M35.9,7.98663594 C35.85,7.93640553 35.8,7.78571429 35.7,7.78571429 C35.5,7.73548387 35.3,7.73548387 35.1,7.78571429 C33.3,8.38847926 31.5,8.840553 29.6,9.24239631 C28.95,9.39308756 28.3,9.59400922 27.65,9.74470046 C27.45,9.79493088 27.3,9.94562212 27.3,10.1465438 C27.3,10.3474654 27.55,10.5986175 27.75,10.5986175 C27.85,10.5986175 28,10.6488479 28.1,10.5986175 C29.3,10.3474654 30.5,10.0963134 31.65,9.84516129 C32.7,9.64423963 33.7,9.34285714 34.7,8.94101382 C35.05,8.840553 35.35,8.68986175 35.65,8.48894009 C35.85,8.33824885 35.9,8.1875576 35.9,7.98663594 Z" id="Shape" fill="#D0E9EA"/>
          <path d="M18.85,55.5046083 C19.2,55.5046083 19.55,55.4543779 19.9,55.4543779 C20.8,55.4543779 21.65,55.4041475 22.5,55.2534562 C23.35,55.102765 24.25,55.102765 25.1,55.0023041 C27.55,54.8013825 29.9,54.3493088 32.25,53.6460829 C33.95,53.1437788 35.55,52.4907834 36.95,51.3354839 C37.05,51.235023 37.2,51.1345622 37.45,51.235023 C37.6,52.3400922 37.45,53.4953917 37.55,54.5502304 C37.4,54.9520737 37.1,55.102765 36.8,55.2534562 C35.05,56.3585253 33.15,57.1119816 31.2,57.5640553 C28.15,58.3175115 25.1,58.8198157 22,58.9202765 C21.75,58.9202765 21.55,58.8700461 21.3,58.8700461 C20.85,58.8700461 20.4,58.8198157 19.95,58.8198157 C20,57.8152074 20,56.8105991 19.95,55.956682 C19.65,55.5548387 19.1,55.9064516 18.85,55.5046083 Z M28.55,56.1576037 C29.05,56.2078341 29.55,56.2580645 30,56.1073733 C31.55,55.7557604 33.1,55.3539171 34.7,55.0023041 C35.4,54.8516129 35.9,54.5 36.3,53.897235 C36.15,53.6460829 36,53.5456221 35.7,53.6460829 C34.6,53.9976959 33.55,54.2990783 32.4,54.6004608 C32.15,54.6506912 31.95,54.7511521 31.7,54.7511521 C31.1,54.8013825 30.45,54.9018433 29.85,55.0525346 C29.45,55.1529954 29.05,55.3539171 28.65,55.5548387 C28.45,55.6050691 28.45,55.8059908 28.55,56.1576037 Z" id="Shape" fill="#D0E9EA"/>
          <path d="M37.6,3.86774194 C37.2,4.57096774 36.8,4.67142857 36.15,4.4202765 C34.8,3.86774194 33.3,3.66682028 31.85,3.4156682 C28.9,2.91336406 25.9,2.81290323 22.9,2.86313364 C21.5,2.86313364 20.1,2.86313364 18.7,2.91336406 C15.45,3.01382488 12.25,3.4156682 9.1,4.16912442 C7.95,4.4202765 6.85,4.7718894 5.75,5.1235023 C4.95,5.37465438 4.2,5.72626728 3.45,6.17834101 C3,6.4797235 2,6.1281106 1.8,5.67603687 C1.75,5.52534562 1.8,5.37465438 1.9,5.22396313 C2.3,4.87235023 2.7,4.62119816 3.2,4.4202765 C5.05,3.66682028 7,3.21474654 8.95,2.76267281 C11.1,2.31059908 13.3,2.00921659 15.45,1.80829493 C17.9,1.60737327 20.3,1.45668203 22.75,1.45668203 C24.1,1.45668203 25.45,1.45668203 26.85,1.50691244 C28.75,1.55714286 30.6,1.75806452 32.45,2.10967742 C33.45,2.31059908 34.45,2.41105991 35.4,2.7124424 C36.15,2.91336406 36.95,3.16451613 37.6,3.86774194 Z" id="Shape" fill="#AACECF"/>
          <path d="M20,58.8198157 C20.45,58.8198157 20.9,58.8700461 21.35,58.8700461 C21,59.0709677 20.65,58.9705069 20.3,59.0207373 C18.05,59.1714286 15.75,59.0207373 13.5,58.7193548 C12.25,58.5686636 10.95,58.4179724 9.75,58.1165899 C7.6,57.6142857 5.6,56.7603687 3.6,55.9064516 C3,55.6552995 2.4,55.2534562 1.95,54.7511521 C1.9,53.7465438 2,52.7921659 2.1,51.7875576 C2.45,51.7373272 2.7,51.8880184 2.95,52.0387097 C3.75,52.5410138 4.65,52.9428571 5.55,53.1940092 C7.5,53.7967742 9.4,54.5 11.4,54.8013825 C11.5,54.8013825 11.6,54.9018433 11.7,54.9520737 C11.5,55.0525346 11.2,54.9520737 11,55.1529954 C11,55.2534562 10.95,55.3539171 10.95,55.4543779 C10.95,55.6050691 10.95,55.7557604 10.95,55.956682 C11,56.4589862 11.15,56.6599078 11.7,56.6599078 C12.15,56.6599078 12.55,56.7101382 12.95,56.9110599 C13.6,56.4589862 13.35,55.9064516 13.3,55.4543779 C12.9,55.102765 12.4,55.4543779 12.15,55.0525346 C13.85,55.2032258 15.55,55.3539171 17.25,55.5046083 C17.05,55.6050691 16.75,55.5046083 16.5,55.7557604 C16.5,56.7101382 16.4,57.764977 16.6,58.8700461 C17.75,58.8198157 18.9,58.8198157 20,58.8198157 Z M9.2,56.0069124 C7.45,55.6050691 5.9,55.0023041 4.35,54.2990783 C4.05,54.1483871 3.7,53.897235 3.35,54.2488479 C3.15,54.4497696 3.35,54.8516129 3.9,55.1529954 C5.4,55.956682 6.9,56.559447 8.55,56.9110599 C8.7,56.9612903 8.85,56.9612903 9,57.0115207 C9.3,57.0617512 9.45,56.8105991 9.35,56.4589862 C9.35,56.3082949 9.25,56.2078341 9.2,56.0069124 Z" id="Shape" fill="#CFE8E9"/>
          <path d="M11.65,12.0552995 C10.75,12.2059908 9.8,12.0552995 8.95,11.9046083 C7.05,11.6032258 5.1,11.1511521 3.25,10.5986175 C3.05,10.5483871 2.9,10.4479263 2.7,10.3976959 C1.9,10.0963134 1.45,9.59400922 1.5,8.68986175 C1.55,8.13732719 1.45,7.58479263 1.4,7.03225806 C1.7,6.98202765 1.95,7.13271889 2.2,7.23317972 C3.3,7.73548387 4.45,7.98663594 5.6,8.23778802 C7.8,8.68986175 10,8.99124424 12.2,9.09170507 C12.25,9.09170507 12.35,9.14193548 12.4,9.1921659 C11.7,9.24239631 11,9.24239631 10.2,9.29262673 C10.15,10.1465438 10.1,10.9502304 10.2,11.7539171 C10.55,11.9548387 10.9,11.9046083 11.2,11.9046083 C11.45,11.8543779 11.55,11.9046083 11.65,12.0552995 Z M8,10.7493088 C8.2,10.4479263 8.05,10.1967742 7.8,10.0460829 C7.7,9.94562212 7.5,9.89539171 7.35,9.89539171 C6.1,9.69447005 4.85,9.39308756 3.65,8.99124424 C3.35,8.89078341 3,8.79032258 2.8,9.14193548 C2.65,9.39308756 2.9,9.74470046 3.35,9.89539171 C4.6,10.297235 5.85,10.5986175 7.15,10.8497696 C7.45,10.8497696 7.75,10.9 8,10.7493088 Z" id="Shape" fill="#CEE7E8"/>
          <path d="M30.4,52.8926267 C30.3,51.6368664 30.45,50.5820276 30.85,49.5774194 C31.2,48.7737327 31.7,48.1709677 32.65,48.0202765 C33.2,48.2714286 33.3,48.8239631 33.45,49.3262673 C33.75,50.381106 33.75,51.0843318 33.4,52.0889401 C32.5,52.3903226 31.55,52.6917051 30.4,52.8926267 Z" id="Shape" fill="#CDE6E7"/>
          <path d="M20,58.8198157 C18.85,58.8198157 17.75,58.8198157 16.55,58.8198157 C16.35,57.7147465 16.5,56.6599078 16.45,55.70553 C16.75,55.4543779 17,55.5046083 17.2,55.4543779 C17.75,55.4543779 18.3,55.5046083 18.85,55.5046083 C19.1,55.956682 19.65,55.5548387 20.05,55.956682 C20.1,56.8105991 20.1,57.8152074 20,58.8198157 Z" id="Shape" fill="#F0FCFC"/>
          <path d="M8.75,53.0935484 C7.6,52.8926267 6.65,52.5912442 5.65,52.1894009 C5.75,51.3857143 5.85,50.6322581 6.05,49.9290323 C6.2,49.4267281 6.5,48.9746544 6.9,48.6732719 C7.2,48.4723502 7.5,48.4723502 7.75,48.7737327 C7.85,48.8741935 7.95,49.0248848 8.05,49.175576 C8.65,50.381106 8.9,51.6368664 8.75,53.0935484 Z" id="Shape" fill="#CDE6E7"/>
          <path d="M8.95,12.8589862 C9.1,13.8133641 9.1,14.5668203 8.9,15.2700461 C8.75,15.9230415 8.35,16.2746544 7.75,16.3248848 C7.05,16.3248848 6.55,15.9732719 6.35,15.3202765 C6.05,14.416129 6.05,13.4617512 6.15,12.4571429 C7.15,12.5073733 8,12.9092166 8.95,12.8589862 Z" id="Shape" fill="#CCE5E6"/>
          <path d="M31.05,12.1557604 C32,11.8041475 32.9,11.7036866 33.95,11.502765 C34.2,12.7585253 34.25,13.9640553 33.55,15.0691244 C33.15,15.7221198 32.6,15.7723502 32.05,15.2700461 C31.75,14.9686636 31.55,14.6672811 31.4,14.2654378 C31.25,13.8133641 31.15,13.3612903 31.1,12.8589862 C31.05,12.6580645 31.05,12.4069124 31.05,12.1557604 Z" id="Shape" fill="#CEE6E7"/>
          <path d="M17.65,9.1921659 C17.8,9.34285714 17.95,9.44331797 18.15,9.64423963 C18.15,10.3474654 18.2,11.1511521 18.1,12.0050691 C17.05,12.10553 16.1,12.0552995 15.15,12.0050691 C14.9,11.4023041 15.35,11.0506912 15.3,10.5483871 C15.2,10.0963134 15.2,9.59400922 15.5,9.1921659 C16.2,9.09170507 16.95,9.09170507 17.65,9.1921659 Z" id="Shape" fill="#EDF9F9"/>
          <path d="M11.65,12.0552995 C11.55,11.9046083 11.45,11.8543779 11.25,11.8041475 C10.95,11.7539171 10.6,11.8543779 10.25,11.6534562 C10.15,10.9 10.2,10.0963134 10.25,9.1921659 C11.05,9.14193548 11.75,9.14193548 12.45,9.09170507 C12.5,9.04147465 12.6,9.04147465 12.65,9.14193548 C12.65,10.0963134 12.65,11.0506912 12.65,12.0552995 C12.3,12.1557604 12,12.10553 11.65,12.0552995 Z" id="Shape" fill="#F0FCFC"/>
          <path d="M12.15,55.0023041 C12.4,55.4543779 12.9,55.102765 13.3,55.4041475 C13.3,55.8562212 13.55,56.4087558 12.95,56.8608295 C12.55,56.7101382 12.15,56.6599078 11.7,56.6096774 C11.15,56.6096774 11,56.4087558 10.95,55.9064516 C10.95,55.7557604 10.95,55.6050691 10.95,55.4041475 C10.95,55.3036866 11,55.1529954 11,55.102765 C11.2,54.9018433 11.5,55.0023041 11.7,54.9018433 C11.85,54.9520737 12,55.0023041 12.15,55.0023041 Z" id="Shape" fill="#F2FEFE"/>
          <path d="M35.9,7.98663594 C35.9,8.1875576 35.85,8.33824885 35.75,8.48894009 C35.45,8.74009217 35.15,8.840553 34.8,8.94101382 C33.8,9.29262673 32.8,9.59400922 31.75,9.84516129 C30.55,10.0963134 29.35,10.3474654 28.2,10.5986175 C28.1,10.5986175 27.95,10.5986175 27.85,10.5986175 C27.6,10.5483871 27.35,10.3474654 27.4,10.1465438 C27.4,9.94562212 27.6,9.74470046 27.75,9.74470046 C28.4,9.59400922 29.05,9.39308756 29.7,9.24239631 C31.55,8.89078341 33.4,8.38847926 35.2,7.78571429 C35.4,7.73548387 35.6,7.73548387 35.8,7.78571429 C35.8,7.78571429 35.85,7.93640553 35.9,7.98663594 Z" id="Shape" fill="#FCFEFE"/>
          <path d="M28.55,56.1576037 C28.45,55.8059908 28.4,55.6050691 28.65,55.5046083 C29.05,55.3036866 29.45,55.102765 29.85,55.0023041 C30.45,54.8516129 31.1,54.8013825 31.7,54.7009217 C31.95,54.6506912 32.15,54.6004608 32.4,54.5502304 C33.5,54.2488479 34.6,53.9474654 35.7,53.5958525 C36,53.4953917 36.15,53.5958525 36.3,53.8470046 C35.95,54.4497696 35.4,54.8013825 34.7,54.9520737 C33.15,55.3036866 31.55,55.70553 30,56.0571429 C29.55,56.2078341 29.1,56.2078341 28.55,56.1576037 Z" id="Shape" fill="#FCFEFE"/>
          <path d="M9.2,56.0069124 C9.3,56.1576037 9.35,56.2580645 9.4,56.4087558 C9.5,56.7603687 9.35,57.0115207 9.05,56.9612903 C8.9,56.9612903 8.75,56.9110599 8.6,56.8608295 C6.95,56.5092166 5.4,55.9064516 3.95,55.102765 C3.4,54.8013825 3.15,54.4497696 3.4,54.1986175 C3.75,53.8470046 4.1,54.0981567 4.4,54.2488479 C5.85,55.0023041 7.45,55.6552995 9.2,56.0069124 Z" id="Shape" fill="#090A0A"/>
          <path d="M8,10.7493088 C7.75,10.9502304 7.45,10.8497696 7.2,10.7995392 C5.9,10.5483871 4.65,10.297235 3.4,9.84516129 C2.9,9.69447005 2.65,9.34285714 2.85,9.09170507 C3.1,8.74009217 3.45,8.89078341 3.7,8.94101382 C4.9,9.34285714 6.15,9.64423963 7.4,9.84516129 C7.55,9.84516129 7.7,9.89539171 7.85,9.99585253 C8.05,10.1967742 8.2,10.4479263 8,10.7493088 Z" id="Shape" fill="#0B0C0C"/>
        </g>
        <g id="Group" transform="translate(31.500000, 49.691244)">
          <path d="M13.6,9.84516129 C14,10.0460829 14.15,10.2470046 14.05,10.5483871 C13.9,10.9502304 13.7,11.2516129 13.4,11.5529954 C11.9,13.0096774 8.55,14.2654378 5.95,12.959447 C5.2,12.5576037 4.55,12.0552995 4,11.4023041 C3.9,11.3018433 3.85,11.2013825 3.85,11.1009217 C3.8,10.9 3.85,10.6990783 4,10.5483871 C4.15,10.4479263 4.3,10.4981567 4.45,10.5986175 C4.6,10.6990783 4.75,10.8497696 4.9,11.0004608 C6.45,12.5576037 8.25,12.6580645 10.2,12.0552995 C11.2,11.7539171 12.1,11.2516129 12.85,10.4981567 C13.1,10.2470046 13.35,10.0460829 13.6,9.84516129 Z" id="Shape" fill="#080808"/>
          <path d="M6.8,2.00921659 C6.5,2.21013825 6.25,2.059447 6,1.95898618 C4.1,1.3562212 2.4,1.65760369 1.05,3.21474654 C0.9,3.36543779 0.75,3.46589862 0.55,3.36543779 C0.3,3.21474654 0.25,3.01382488 0.35,2.76267281 C0.5,2.36082949 0.75,2.059447 1.05,1.80829493 C2.15,0.95437788 3.4,0.452073733 4.8,0.602764977 C5.45,0.652995392 6.05,0.853917051 6.55,1.30599078 C6.75,1.50691244 6.95,1.7078341 6.8,2.00921659 Z" id="Shape" fill="#0D0C0C"/>
          <path d="M17.8,2.46129032 C17,1.75806452 16.15,1.20552995 15,1.20552995 C13.9,1.20552995 12.95,1.65760369 11.95,1.95898618 C11.75,1.80829493 11.65,1.7078341 11.75,1.50691244 C11.85,1.15529954 12.15,0.904147465 12.45,0.753456221 C13.75,0.100460829 15.1,-0.0502304147 16.5,0.351612903 C17.15,0.552534562 17.7,0.95437788 18.1,1.55714286 C18.2,1.7078341 18.25,1.90875576 18.2,2.10967742 C18.15,2.31059908 18.05,2.41105991 17.8,2.46129032 Z" id="Shape" fill="#0C0C0C"/>
          <path d="M3.55,4.16912442 C3.85,4.11889401 4.15,4.37004608 4.25,4.67142857 C4.4,5.17373272 4.15,5.72626728 3.7,5.97741935 C3.35,6.17834101 3,6.07788018 2.8,5.72626728 C2.35,5.1235023 2.8,4.21935484 3.55,4.16912442 Z" id="Shape" fill="#161515"/>
          <path d="M16.35,4.4202765 C16.3,4.92258065 15.85,5.27419355 15.35,5.22396313 C15,5.17373272 14.7,4.7718894 14.7,4.47050691 C14.75,4.06866359 15.2,3.61658986 15.55,3.66682028 C16,3.66682028 16.35,4.01843318 16.35,4.4202765 Z" id="Shape" fill="#161515"/>
        </g>
      </g>
    </g>
  </g>
</svg>