<svg width="95px" height="167px" viewBox="0 0 95 167" version="1.1" xml:space="preserve" xmlns="http://www.w3.org/2000/svg" xmlns:xlink="http://www.w3.org/1999/xlink">
  <defs/>
  <g>
    <title>guitar-c</title>
    <desc>Created with Sketch.</desc>
    <g id="music" stroke="none" stroke-width="1" fill="none" fill-rule="evenodd">
      <g id="guitar-c" fill-rule="nonzero">
        <g id="Group" transform="translate(51.272189, 122.500000)">
          <path d="M4.72781065,34.85 C4.22485207,33.6 3.72189349,32.45 3.21893491,31.25 C2.16272189,28.9 1.45857988,26.45 0.75443787,24 C0.553254438,23.35 0.402366864,22.7 0.301775148,22 C0.050295858,20.75 0.25147929,19.45 0.402366864,18.2 C0.75443787,14.75 1.5591716,11.35 2.31360947,7.95 C2.66568047,6.5 2.96745562,5 3.52071006,3.6 C3.87278107,2.8 4.27514793,2 4.82840237,1.35 C5.33136095,0.8 5.88461538,0.4 6.68934911,0.45 C6.84023669,0.45 7.04142012,0.45 7.14201183,0.55 C8.39940828,1.15 9.50591716,2.25 9.4556213,4 C9.40532544,5.5 9.15384615,7 8.85207101,8.5 C8.44970414,10.35 7.94674556,12.15 7.59467456,14 C7.14201183,16.1 6.73964497,18.25 6.33727811,20.35 C6.18639053,21.1 6.28698225,21.85 6.53846154,22.6 C7.94674556,26.75 9.4556213,30.9 11.1153846,34.95 C11.4171598,35.65 11.7189349,36.35 12.0207101,37.05 C12.3727811,37.85 12.1213018,38.55 11.3668639,38.95 C10.7130178,39.3 10.0088757,39.6 9.30473373,39.9 C8.44970414,40.25 7.59467456,40.6 6.78994083,41 C5.3816568,41.75 3.82248521,42 2.26331361,42.25 C2.01183432,42.3 1.76035503,42.25 1.5591716,42.25 C0.50295858,42.25 0.050295858,41.3 0.653846154,40.55 C1.10650888,40 1.50887574,39.4 2.06213018,38.9 C3.26923077,37.75 3.92307692,36.25 4.72781065,34.85 Z M1.86094675,40.9 C2.91715976,40.85 3.97337278,40.7 4.92899408,40.3 C5.63313609,40 6.33727811,39.75 7.04142012,39.5 C7.94674556,39.1 8.90236686,38.75 9.80769231,38.3 C10.612426,37.9 10.8136095,37.4 10.4615385,36.55 C9.70710059,34.55 8.90236686,32.55 8.14792899,30.5 C7.24260355,27.95 6.43786982,25.35 5.33136095,22.85 C4.97928994,22.1 4.87869822,21.3 5.13017751,20.5 C5.23076923,20.25 5.23076923,19.95 5.28106509,19.7 C5.53254438,18.05 5.73372781,16.4 6.13609467,14.75 C6.73964497,12.25 7.29289941,9.7 7.79585799,7.15 C7.99704142,6.1 8.19822485,5.05 8.14792899,3.95 C8.09763314,3.15 7.74556213,2.5 7.09171598,2 C6.48816568,1.5 5.9852071,1.6 5.58284024,2.25 C5.0295858,3.15 4.52662722,4.15 4.17455621,5.15 C3.42011834,7.25 3.06804734,9.5 2.66568047,11.7 C2.56508876,12.15 2.56508876,12.6 2.36390533,13 C2.01183432,13.7 1.96153846,14.45 1.81065089,15.2 C1.60946746,16.4 1.45857988,17.65 1.25739645,18.85 C1.00591716,20.2 0.955621302,21.55 1.35798817,22.9 C1.71005917,24.1 1.96153846,25.3 2.5147929,26.4 C2.71597633,26.8 2.91715976,27.15 3.06804734,27.6 C3.57100592,29.05 4.0739645,30.55 4.72781065,31.95 C5.18047337,32.9 5.53254438,33.95 5.88461538,34.85 C5.3816568,36.05 4.72781065,37.05 4.12426036,38.05 C3.57100592,39.1 2.56508876,39.85 1.86094675,40.9 Z" id="Shape" fill="#010101"/>
          <path d="M1.86094675,40.9 C2.56508876,39.85 3.62130178,39.1 4.27514793,38.05 C4.87869822,37 5.53254438,36 6.03550296,34.85 C5.68343195,33.9 5.33136095,32.9 4.87869822,31.95 C4.22485207,30.55 3.72189349,29.05 3.21893491,27.6 C3.06804734,27.2 2.86686391,26.8 2.66568047,26.4 C2.06213018,25.3 1.81065089,24.1 1.50887574,22.9 C1.15680473,21.55 1.15680473,20.25 1.40828402,18.85 C1.65976331,17.65 1.76035503,16.4 1.96153846,15.2 C2.11242604,14.45 2.16272189,13.7 2.5147929,13 C2.71597633,12.6 2.71597633,12.15 2.81656805,11.7 C3.21893491,9.5 3.57100592,7.3 4.32544379,5.15 C4.67751479,4.15 5.18047337,3.2 5.73372781,2.25 C6.13609467,1.55 6.5887574,1.5 7.24260355,2 C7.84615385,2.5 8.24852071,3.15 8.29881657,3.95 C8.34911243,5.05 8.14792899,6.1 7.94674556,7.15 C7.44378698,9.7 6.89053254,12.25 6.28698225,14.75 C5.88461538,16.4 5.68343195,18.05 5.43195266,19.7 C5.3816568,20 5.3816568,20.25 5.28106509,20.5 C5.0295858,21.3 5.13017751,22.1 5.48224852,22.85 C6.5887574,25.35 7.39349112,27.95 8.29881657,30.5 C9.00295858,32.55 9.80769231,34.55 10.612426,36.55 C10.9142012,37.4 10.7633136,37.9 9.95857988,38.3 C9.05325444,38.75 8.14792899,39.1 7.19230769,39.5 C6.48816568,39.8 5.78402367,40.05 5.07988166,40.3 C3.92307692,40.7 2.91715976,40.8 1.86094675,40.9 Z" id="Shape" fill="#EBDCC5"/>
        </g>
        <g id="Group" transform="translate(17.071006, 123.500000)">
          <path d="M5.78402367,37.2 C4.62721893,37.2 3.4704142,37.25 2.31360947,37.15 C1.81065089,37.1 1.35798817,37 0.955621302,36.75 C0.050295858,36.25 -0.050295858,35.4 0.653846154,34.7 C1.10650888,34.3 1.5591716,33.9 2.06213018,33.6 C2.96745562,33.1 3.82248521,32.6 4.67751479,32.15 C5.48224852,31.75 5.93491124,31.2 5.9852071,30.3 C6.08579882,29.25 6.18639053,28.25 6.28698225,27.2 C6.48816568,25.35 6.43786982,23.55 6.68934911,21.7 C6.78994083,20.9 6.68934911,20.1 6.84023669,19.3 C6.99112426,18.6 7.24260355,17.95 7.69526627,17.35 C9.55621302,14.65 11.3668639,11.9 13.2278107,9.2 C13.3786982,8.95 13.5295858,8.75 13.6804734,8.5 C14.3846154,7.3 15.0887574,6.2 16.0443787,5.2 C16.8491124,4.35 17.4526627,3.4 18.2071006,2.5 C18.5591716,2.05 18.9615385,1.65 19.3639053,1.3 C20.1686391,0.7 21.0739645,0.45 22.0798817,0.5 C22.7337278,0.55 23.1360947,0.95 23.4378698,1.55 C24.0414201,2.75 23.9408284,3.95 23.387574,5.15 C23.2366864,5.45 23.1360947,5.75 22.9349112,6 C22.0798817,7.35 21.2751479,8.7 20.3698225,10 C18.056213,13.2 15.6923077,16.35 13.1775148,19.45 C12.5236686,20.25 12.4733728,21.15 12.3727811,22.05 C12.3224852,22.7 12.3224852,23.4 12.2721893,24.1 C12.1715976,25.2 12.0710059,26.3 11.8698225,27.4 C11.6686391,28.35 11.7692308,29.3 11.6183432,30.25 C11.4674556,31.1 11.4171598,32 11.2662722,32.85 C11.1153846,33.7 11.0650888,34.5 11.0147929,35.35 C11.0147929,35.65 10.964497,35.9 10.9142012,36.2 C10.8639053,36.5 10.6627219,36.7 10.4112426,36.8 C9.80769231,37.05 9.20414201,37.2 8.55029586,37.2 C7.64497041,37.2 6.73964497,37.2 5.78402367,37.2 Z M9.60650888,35.6 C9.95857988,34.2 9.95857988,32.8 10.1597633,31.4 C10.5118343,28.9 10.7130178,26.4 10.964497,23.9 C11.0650888,23 11.1153846,22.05 11.1656805,21.15 C11.2159763,20.25 11.5177515,19.45 12.1213018,18.75 C13.1272189,17.5 14.0828402,16.25 15.0384615,14.95 C15.6420118,14.2 16.1449704,13.4 16.7988166,12.65 C17.6035503,11.65 18.4585799,10.7 19.1627219,9.65 C20.2189349,8.15 21.3254438,6.7 22.1301775,5.05 C22.5325444,4.25 22.683432,3.4 22.5828402,2.5 C22.5325444,2.1 22.2810651,1.85 21.9289941,1.7 C21.5769231,1.6 21.2248521,1.6 20.8727811,1.75 C20.4704142,1.95 20.1183432,2.2 19.816568,2.5 C18.5591716,3.6 17.704142,5 16.6982249,6.3 C15.5414201,7.8 14.4349112,9.4 13.3284024,10.95 C13.1775148,11.15 13.0266272,11.3 12.8757396,11.5 C12.0710059,12.75 11.2159763,13.95 10.4112426,15.2 C9.80769231,16.15 9.15384615,17.05 8.60059172,18 C8.29881657,18.45 7.99704142,18.95 7.94674556,19.55 C7.84615385,20.8 7.74556213,22 7.74556213,23.25 C7.74556213,25.55 7.5443787,27.8 7.34319527,30.05 C7.24260355,31.35 6.73964497,32.5 5.43195266,33.2 C4.47633136,33.7 3.57100592,34.35 2.56508876,34.7 C2.06213018,34.85 1.65976331,35.15 1.50887574,35.7 C2.06213018,36 2.66568047,35.95 3.21893491,35.95 C4.92899408,35.95 6.68934911,35.8 8.39940828,35.9 C8.80177515,35.95 9.20414201,35.95 9.60650888,35.6 Z" id="Shape" fill="#010101"/>
          <path d="M9.60650888,35.6 C9.25443787,35.95 8.80177515,35.95 8.39940828,35.95 C6.68934911,35.85 4.92899408,36.05 3.21893491,36 C2.66568047,36 2.11242604,36.05 1.50887574,35.75 C1.65976331,35.2 2.11242604,34.9 2.56508876,34.75 C3.62130178,34.4 4.47633136,33.8 5.43195266,33.25 C6.68934911,32.55 7.19230769,31.45 7.34319527,30.1 C7.5443787,27.85 7.74556213,25.55 7.74556213,23.3 C7.74556213,22.05 7.84615385,20.85 7.94674556,19.6 C7.99704142,19.05 8.29881657,18.55 8.60059172,18.05 C9.20414201,17.1 9.80769231,16.15 10.4112426,15.25 C11.2159763,14 12.0207101,12.8 12.8757396,11.55 C13.0266272,11.35 13.1775148,11.15 13.3284024,11 C14.4349112,9.45 15.5414201,7.9 16.6982249,6.35 C17.704142,5.05 18.5591716,3.65 19.816568,2.55 C20.1686391,2.25 20.4704142,2 20.8727811,1.8 C21.2248521,1.65 21.5769231,1.6 21.9289941,1.75 C22.2810651,1.85 22.5325444,2.1 22.5828402,2.55 C22.683432,3.45 22.4822485,4.3 22.1301775,5.1 C21.3254438,6.75 20.1686391,8.2 19.1627219,9.7 C18.4585799,10.75 17.6035503,11.75 16.7988166,12.7 C16.1952663,13.45 15.6420118,14.25 15.0384615,15 C14.0828402,16.25 13.1272189,17.55 12.1213018,18.8 C11.5177515,19.5 11.2159763,20.3 11.1656805,21.2 C11.1153846,22.1 11.0650888,23.05 10.964497,23.95 C10.7130178,26.45 10.5118343,28.95 10.1597633,31.45 C9.95857988,32.8 9.95857988,34.2 9.60650888,35.6 Z" id="Shape" fill="#EBDCC5"/>
        </g>
        <g id="Group" transform="translate(5.000000, 78.500000)">
          <path d="M11.7189349,27.8 C12.1213018,28 12.5236686,28.2 12.9260355,28.4 C14.6360947,29.15 16.295858,29.85 18.0059172,30.55 C20.0177515,31.4 22.0798817,32.25 24.091716,33.05 C25.0473373,33.45 25.852071,33.95 26.6065089,34.65 C27.612426,35.55 27.8136095,36.7 27.5621302,37.95 C27.5118343,38.3 27.3106509,38.55 27.0088757,38.7 C26.5059172,39 26.0029586,39.15 25.3994083,39.15 C24.1923077,39.15 23.0857988,38.9 21.9792899,38.5 C18.9112426,37.35 15.8934911,36 12.8757396,34.75 C11.6686391,34.25 10.4615385,33.65 9.35502959,32.9 C8.29881657,32.2 7.59467456,31.3 6.99112426,30.25 C6.68934911,29.7 6.63905325,29.1 6.53846154,28.5 C6.18639053,25.85 6.03550296,23.15 5.83431953,20.5 C5.68343195,18.55 5.3816568,16.6 5.07988166,14.65 C3.62130178,13.75 2.81656805,12.3 2.26331361,10.75 C2.16272189,10.45 2.06213018,10.15 1.9112426,9.85 C1.30769231,8.75 0.905325444,7.5 0.402366864,6.3 C0.150887574,5.75 0.100591716,5.15 0.050295858,4.55 C-0.050295858,3.55 0.150887574,3.3 1.20710059,2.9 C1.35798817,2.55 1.25739645,2.15 1.40828402,1.75 C1.71005917,1.05 2.16272189,0.8 2.91715976,1.1 C3.06804734,1.15 3.16863905,1.25 3.31952663,1.35 C3.42011834,1.15 3.52071006,1 3.62130178,0.85 C4.0739645,0.3 4.87869822,0.3 5.28106509,0.85 C5.53254438,1.2 5.68343195,1.6 5.88461538,2 C6.63905325,3.55 7.19230769,5.2 7.74556213,6.8 C7.8964497,7.15 7.99704142,7.55 8.14792899,7.85 C8.55029586,7.9 8.44970414,7.6 8.55029586,7.45 C8.85207101,6.75 9.30473373,6.25 10.0591716,6.05 C10.964497,5.8 11.5680473,6.3 11.4674556,7.2 C11.4171598,7.45 11.316568,7.65 11.2662722,7.9 C10.9142012,8.65 10.7130178,9.4 10.6627219,10.2 C10.612426,11.35 10.3106509,12.5 9.65680473,13.5 C9.40532544,13.85 9.40532544,14.2 9.50591716,14.55 C10.1094675,17.8 10.4112426,21.1 11.1153846,24.35 C11.3668639,25.45 11.316568,26.6 11.7189349,27.8 Z M10.4615385,7.25 C10.0591716,7.15 9.85798817,7.25 9.80769231,7.45 C9.65680473,7.75 9.50591716,8.1 9.35502959,8.45 C9.25443787,8.75 9.15384615,9.05 8.90236686,9.3 C8.5,9.65 8.04733728,10 7.59467456,10.4 C7.14201183,10.75 6.5887574,10.9 6.03550296,11 C5.78402367,11.05 5.58284024,10.95 5.43195266,10.7 C5.68343195,10.2 5.68343195,10.2 5.93491124,10.1 C6.48816568,9.9 7.09171598,9.75 7.49408284,9.25 C5.3816568,2.7 5.28106509,2.4 4.57692308,1.55 C4.27514793,1.7 4.22485207,1.95 4.32544379,2.25 C4.62721893,3.7 5.0295858,5.1 5.53254438,6.5 C5.63313609,6.8 5.73372781,7.1 5.78402367,7.4 C5.83431953,7.65 5.68343195,7.85 5.3816568,7.95 C5.18047337,8 4.97928994,7.9 4.87869822,7.75 C4.77810651,7.6 4.67751479,7.4 4.62721893,7.2 C4.47633136,6.75 4.37573964,6.3 4.17455621,5.85 C3.77218935,4.7 3.4704142,3.55 2.86686391,2.5 C2.76627219,2.35 2.66568047,2.15 2.46449704,2.15 C2.26331361,2.2 2.16272189,2.35 2.16272189,2.5 C2.16272189,2.7 2.16272189,2.9 2.26331361,3.1 C2.5147929,3.95 2.81656805,4.75 3.1183432,5.6 C3.36982249,6.4 3.67159763,7.2 3.97337278,7.95 C4.0739645,8.2 4.02366864,8.45 3.77218935,8.55 C3.52071006,8.7 3.31952663,8.55 3.1183432,8.4 C2.86686391,8.2 2.81656805,7.9 2.71597633,7.65 C2.31360947,6.7 1.96153846,5.7 1.5591716,4.75 C1.45857988,4.55 1.40828402,4.3 1.05621302,4.25 C0.804733728,4.5 0.955621302,4.8 1.05621302,5.1 C1.96153846,7.25 2.86686391,9.45 3.82248521,11.6 C4.17455621,12.4 4.72781065,13.1 5.53254438,13.55 C5.73372781,13.65 5.9852071,13.7 6.13609467,14 C6.18639053,14.2 6.18639053,14.5 6.23668639,14.75 C6.89053254,17.55 7.04142012,20.45 7.34319527,23.3 C7.49408284,24.95 7.59467456,26.65 7.84615385,28.3 C8.04733728,29.9 8.80177515,31.15 10.260355,31.95 C11.2159763,32.5 12.2218935,33.05 13.2278107,33.5 C14.9378698,34.25 16.6982249,34.95 18.408284,35.75 C20.2692308,36.6 22.2810651,37.1 24.1923077,37.75 C24.7455621,37.95 25.3994083,38 25.9526627,37.8 C26.3550296,37.65 26.6065089,37.25 26.4556213,36.85 C26.3047337,36.4 26.1538462,35.95 25.7514793,35.65 C24.795858,34.95 23.8905325,34.15 22.7337278,33.7 C20.8727811,33 19.0118343,32.3 17.2011834,31.45 C15.3905325,30.6 13.5295858,29.85 11.6686391,29.1 C11.0650888,28.85 10.7130178,28.5 10.6627219,27.9 C10.612426,27.35 10.5118343,26.8 10.4112426,26.25 C9.80769231,23.35 9.40532544,20.45 9.00295858,17.5 C8.85207101,16.15 8.70118343,14.8 8.34911243,13.45 C9.25443787,12.6 9.55621302,11.45 9.80769231,10.3 C10.0088757,9.3 9.80769231,8.25 10.4615385,7.25 Z" id="Shape" fill="#010101"/>
          <path d="M10.4615385,7.25 C9.80769231,8.25 10.0088757,9.3 9.80769231,10.3 C9.55621302,11.5 9.25443787,12.6 8.34911243,13.45 C8.65088757,14.8 8.80177515,16.15 9.00295858,17.5 C9.40532544,20.45 9.80769231,23.35 10.4112426,26.25 C10.5118343,26.8 10.612426,27.35 10.6627219,27.9 C10.7633136,28.5 11.1153846,28.85 11.6686391,29.1 C13.5295858,29.85 15.3905325,30.6 17.2011834,31.45 C19.0118343,32.3 20.8727811,33 22.7337278,33.7 C23.8905325,34.15 24.795858,34.9 25.7514793,35.65 C26.1538462,35.95 26.3550296,36.4 26.4556213,36.85 C26.556213,37.25 26.3550296,37.65 25.9526627,37.8 C25.3491124,38 24.7455621,37.95 24.1923077,37.75 C22.2307692,37.1 20.2692308,36.65 18.408284,35.75 C16.6982249,34.95 14.9378698,34.25 13.2278107,33.5 C12.2218935,33.05 11.2159763,32.5 10.260355,31.95 C8.85207101,31.15 8.04733728,29.9 7.84615385,28.3 C7.64497041,26.65 7.5443787,24.95 7.34319527,23.3 C7.04142012,20.45 6.89053254,17.55 6.23668639,14.75 C6.18639053,14.5 6.18639053,14.2 6.13609467,14 C5.9852071,13.7 5.73372781,13.65 5.53254438,13.55 C4.72781065,13.1 4.17455621,12.45 3.82248521,11.6 C2.86686391,9.45 2.01183432,7.25 1.05621302,5.1 C0.955621302,4.8 0.804733728,4.5 1.05621302,4.25 C1.40828402,4.3 1.50887574,4.5 1.5591716,4.75 C1.96153846,5.7 2.31360947,6.7 2.71597633,7.65 C2.81656805,7.9 2.86686391,8.2 3.1183432,8.4 C3.31952663,8.55 3.52071006,8.7 3.77218935,8.55 C4.02366864,8.4 4.0739645,8.2 3.97337278,7.95 C3.72189349,7.15 3.42011834,6.35 3.1183432,5.6 C2.81656805,4.75 2.56508876,3.95 2.26331361,3.1 C2.21301775,2.9 2.16272189,2.7 2.16272189,2.5 C2.16272189,2.35 2.26331361,2.2 2.46449704,2.15 C2.71597633,2.15 2.76627219,2.35 2.86686391,2.5 C3.52071006,3.55 3.77218935,4.7 4.17455621,5.85 C4.32544379,6.3 4.47633136,6.75 4.62721893,7.2 C4.67751479,7.4 4.77810651,7.55 4.87869822,7.75 C4.97928994,7.95 5.18047337,8 5.3816568,7.95 C5.68343195,7.9 5.78402367,7.65 5.78402367,7.4 C5.73372781,7.1 5.63313609,6.8 5.53254438,6.5 C5.0295858,5.1 4.62721893,3.7 4.32544379,2.25 C4.27514793,1.95 4.27514793,1.7 4.57692308,1.55 C5.28106509,2.4 5.3816568,2.65 7.49408284,9.25 C7.09171598,9.75 6.53846154,9.9 5.93491124,10.1 C5.68343195,10.2 5.68343195,10.2 5.43195266,10.7 C5.58284024,10.95 5.78402367,11.05 6.03550296,11 C6.5887574,10.9 7.14201183,10.75 7.59467456,10.4 C8.04733728,10.05 8.44970414,9.7 8.90236686,9.3 C9.15384615,9.1 9.25443787,8.75 9.35502959,8.45 C9.4556213,8.1 9.60650888,7.8 9.80769231,7.45 C9.85798817,7.25 10.0088757,7.15 10.4615385,7.25 Z" id="Shape" fill="#EBDCC5"/>
        </g>
        <g id="Group" transform="translate(23.609467, 2.000000)">
          <path d="M29.6745562,9.35 C30.3284024,9.85 30.6804734,10.45 30.5798817,11.3 C30.4792899,11.95 30.1775148,12.4 29.7751479,12.85 C29.5236686,13.15 29.1213018,13.2 28.7692308,13.1 C28.1153846,13 27.6627219,12.65 27.3106509,12.1 C27.1094675,11.8 27.0088757,11.45 26.8579882,11.15 C26.8076923,11.15 26.7573964,11.2 26.7071006,11.2 C26.6568047,11.25 26.556213,11.3 26.556213,11.35 C26.4053254,12.45 26.4053254,13.55 26.1538462,14.7 C26.6065089,14.6 26.6568047,14.3 26.8579882,14.1 C27.3609467,13.6 27.964497,13.4 28.6183432,13.7 C29.3224852,14 29.7751479,14.5 29.8254438,15.35 C29.8254438,15.75 29.7248521,16.15 29.5739645,16.5 C29.1715976,17.35 28.316568,17.65 27.4615385,17.25 C27.1094675,17.05 26.8076923,16.8 26.556213,16.45 C26.4556213,16.25 26.3550296,16.05 26.2544379,15.85 C26.1538462,15.85 26.1035503,15.8 26.1035503,15.85 C26.0532544,15.85 26.0532544,15.9 26.0532544,15.95 C26.0029586,16.4 25.9023669,16.9 25.852071,17.35 C25.8017751,18 25.7514793,18.6 25.6005917,19.25 C25.3491124,20.5 25.4497041,21.75 25.6005917,22.95 C25.7011834,23.5 25.7514793,24.05 25.7514793,24.6 C25.852071,26.65 26.0029586,28.65 26.0532544,30.7 C26.0532544,31.95 26.3047337,33.15 26.3047337,34.4 C26.3047337,35.5 26.4556213,36.55 26.5059172,37.65 C26.7573964,41.1 26.9585799,44.6 27.260355,48.05 C27.5118343,51.4 27.8639053,54.75 28.0147929,58.1 C28.0650888,59.5 28.2159763,60.9 28.316568,62.25 C28.6686391,62.45 29.0207101,62.5 29.3727811,62.55 C31.535503,62.75 33.647929,63.35 35.7100592,64 C36.9171598,64.4 37.9230769,65.05 38.8786982,65.95 C40.7899408,67.7 42.0473373,69.85 42.7514793,72.35 C43.4556213,74.9 43.6568047,77.45 43.3047337,80.05 C43.0532544,81.85 42.9023669,83.6 42.5,85.35 C42.3491124,86.15 42.0976331,86.9 41.9467456,87.7 C41.4940828,89.8 41.6952663,91.8 42.8017751,93.75 C43.5059172,94.95 44.260355,96.15 45.0147929,97.3 C46.3224852,99.25 47.4792899,101.3 48.6360947,103.35 C49.0887574,104.1 49.3905325,104.95 49.6420118,105.8 C49.9940828,107.05 50.4467456,108.3 50.5976331,109.65 C50.7485207,111.45 50.8491124,113.25 50.3461538,115 C50.1449704,115.6 50.0443787,116.25 49.8431953,116.85 C49.239645,118.6 48.2337278,120.15 46.9763314,121.5 C44.2100592,124.5 40.739645,126.25 36.8668639,127.2 C33.4467456,128.05 30.0266272,128.55 26.5059172,128.45 C24.9467456,128.4 23.387574,128.45 21.8284024,128.35 C20.5710059,128.3 19.3136095,128.25 18.1065089,128.05 C16.7485207,127.8 15.3402367,127.7 13.9822485,127.35 C12.2218935,126.85 10.4112426,126.45 8.70118343,125.7 C4.27514793,123.7 1.50887574,120.35 0.50295858,115.55 C0.301775148,114.6 0.201183432,113.65 0.150887574,112.7 C0.100591716,109.75 0.452662722,106.9 1.60946746,104.15 C2.46449704,102.2 3.36982249,100.3 4.32544379,98.4 C5.48224852,96.05 6.38757396,93.65 6.68934911,91.05 C6.78994083,90.4 6.73964497,89.8 6.63905325,89.15 C6.43786982,87.25 5.83431953,85.5 5.23076923,83.7 C4.27514793,80.9 3.97337278,78 4.17455621,75.1 C4.27514793,73.2 5.07988166,71.45 6.23668639,69.95 C8.29881657,67.3 10.8639053,65.3 14.1331361,64.25 C14.535503,64.15 14.887574,64 15.2899408,63.9 C15.3402367,63.9 15.3402367,63.85 15.3905325,63.8 C15.3905325,63.25 15.4408284,62.65 15.3905325,62.05 C15.239645,59.4 15.0887574,56.7 14.9378698,54.05 C14.7869822,51.45 14.6360947,48.85 14.4349112,46.3 C14.0325444,41.3 13.8313609,36.35 13.7307692,31.35 C13.6804734,28.45 13.6301775,25.55 13.5798817,22.6 C13.5798817,21.75 13.5295858,20.85 13.2278107,20 C12.9763314,19.3 12.9763314,18.5 12.8254438,17.75 C12.7751479,17.55 12.8254438,17.35 12.6242604,17.2 C12.3224852,17.15 12.0207101,17.2 11.8698225,17.55 C11.8195266,17.65 11.8195266,17.8 11.7189349,17.9 C11.2159763,18.8 10.1094675,18.95 9.35502959,18.3 C8.55029586,17.6 8.44970414,16.6 9.1035503,15.85 C9.35502959,15.55 9.65680473,15.4 10.0591716,15.55 C10.612426,15.7 11.2662722,15.65 11.7189349,16.2 C11.8698225,16.4 12.1715976,16.3 12.4230769,16.1 C12.3224852,15.15 12.1213018,14.15 11.8195266,13.15 C11.3668639,13.05 11.0650888,13.2 10.9142012,13.55 C10.7633136,13.9 10.4615385,14.15 10.1597633,14.3 C9.60650888,14.55 9.05325444,14.45 8.55029586,14.1 C8.09763314,13.75 7.79585799,13.3 7.84615385,12.65 C7.94674556,11.85 8.44970414,11.35 9.15384615,11.1 C9.55621302,10.95 9.95857988,11.1 10.3106509,11.35 C10.5118343,11.5 10.7130178,11.75 10.9142012,11.95 C11.1153846,12.15 11.316568,12.1 11.6686391,12.05 C11.4674556,10.9 11.2159763,9.8 11.0650888,8.8 C10.8136095,8.65 10.612426,8.65 10.3609467,8.8 C10.3106509,8.9 10.3106509,9.05 10.2100592,9.2 C9.90828402,9.95 9.35502959,10.4 8.70118343,10.35 C7.99704142,10.3 7.29289941,9.85 7.09171598,9.25 C6.84023669,8.6 7.09171598,7.75 7.64497041,7.3 C8.14792899,6.9 8.70118343,6.95 9.25443787,7.2 C9.4556213,7.3 9.65680473,7.45 9.85798817,7.6 C10.1597633,7.85 10.4615385,7.75 10.8136095,7.6 C10.7130178,6.85 10.6627219,6.05 10.5621302,5.3 C10.4615385,4.75 10.612426,4.4 11.1153846,4.1 C11.9704142,3.6 12.6242604,2.9 13.2781065,2.2 C13.7307692,1.7 14.183432,1.3 14.7869822,1.05 C15.7426036,0.65 16.6982249,0.55 17.6538462,1.2 C17.7544379,1.25 17.8550296,1.3 17.9556213,1.35 C18.2573964,1.35 18.3579882,1.05 18.5088757,0.9 C19.3136095,0.2 20.2189349,-1.76025861e-13 21.1745562,0.35 C21.7781065,0.55 22.3816568,0.85 22.8846154,1.25 C23.8402367,2 24.8964497,2.5 26.1035503,2.85 C26.2544379,2.9 26.4053254,2.95 26.556213,3 C27.3106509,3.3 27.4615385,3.55 27.4615385,4.35 C27.4615385,4.9 27.4112426,5.45 27.3609467,6 C27.6627219,6 27.7633136,5.8 27.9142012,5.65 C28.316568,5.25 28.7692308,5.1 29.3224852,5.15 C29.9763314,5.2 30.4792899,5.5 30.8816568,6 C31.2337278,6.45 31.2840237,7 31.0828402,7.6 C30.8816568,8.2 30.4792899,8.65 30.0266272,9 C28.9201183,9.25 28.0147929,8.85 27.2100592,8.1 C27.1597633,8.5 27.1094675,8.8 27.0088757,9.15 C26.908284,9.5 26.8076923,9.85 27.0088757,10.15 C27.2100592,10.3 27.4112426,10.2 27.5621302,10.1 C27.8639053,9.85 28.2159763,9.65 28.5177515,9.4 C28.7692308,9.25 29.0207101,9.2 29.2721893,9.4 C29.3224852,9.35 29.5236686,9.35 29.6745562,9.35 Z M16.8994083,89.2 C12.3224852,85.75 12.3224852,79.75 16.0946746,75.65 C15.6923077,67.25 15.6923077,66.65 15.2899408,65.3 C13.7307692,65.75 12.2721893,66.3 10.9142012,67.2 C9.35502959,68.25 8.04733728,69.55 6.9408284,71 C5.9852071,72.25 5.48224852,73.65 5.3816568,75.2 C5.18047337,78.35 5.78402367,81.4 6.73964497,84.4 C7.09171598,85.5 7.39349112,86.6 7.69526627,87.75 C8.29881657,89.95 7.94674556,92.1 7.39349112,94.25 C6.9408284,96.1 6.08579882,97.75 5.28106509,99.45 C4.52662722,101.05 3.67159763,102.65 2.91715976,104.3 C1.9112426,106.55 1.30769231,108.9 1.35798817,111.4 C1.40828402,112.8 1.45857988,114.2 1.71005917,115.55 C2.16272189,117.85 3.1183432,119.9 4.77810651,121.55 C6.28698225,123.05 8.09763314,124.15 10.1597633,124.9 C12.1213018,125.55 14.0828402,126.05 16.0946746,126.35 C18.056213,126.6 20.0177515,126.75 21.9792899,126.75 C23.4881657,126.75 25.0473373,126.7 26.556213,126.75 C27.4112426,126.75 28.2159763,126.75 29.0710059,126.55 C30.5798817,126.25 32.0887574,125.95 33.5473373,125.55 C34.8550296,125.2 36.1627219,124.8 37.4201183,124.3 C38.9792899,123.7 40.3372781,122.75 41.443787,121.5 C43.8076923,118.85 44.7633136,115.65 44.7633136,112.15 C44.7633136,110.9 44.612426,109.6 44.3609467,108.35 C43.7071006,105.1 42.4497041,102.1 40.9408284,99.2 C40.2869822,97.95 39.4319527,96.75 38.9792899,95.35 C38.2751479,93.35 37.7218935,91.3 37.8224852,89.15 C37.9230769,87.35 38.1242604,85.55 38.4763314,83.8 C38.9792899,81.45 39.3816568,79.1 39.3816568,76.7 C39.3816568,74.9 39.0798817,73.15 38.4260355,71.45 C37.3195266,68.6 35.6597633,66.2 32.7426036,65 C32.6420118,64.95 32.5414201,64.9 32.4408284,64.85 C31.4852071,64.35 30.4289941,64.05 29.3224852,63.95 C28.316568,63.85 27.3609467,63.85 26.4053254,63.8 C26.204142,64.15 26.3047337,64.4 26.3047337,64.7 C26.3550296,65.8 26.4556213,66.85 26.556213,67.9 C26.6065089,68.35 26.6065089,68.8 26.6065089,69.2 C26.7573964,70.65 26.9585799,72.15 27.0088757,73.6 C27.0591716,74.5 27.260355,75.2 27.9142012,75.85 C28.8195266,76.7 29.4230769,77.75 29.8254438,78.85 C30.7307692,81.3 30.6301775,83.8 29.4733728,86.2 C29.1715976,86.8 28.8195266,87.4 28.4674556,87.95 C28.2159763,88.3 28.1153846,88.65 28.1656805,89.05 C28.2662722,90.1 28.316568,91.1 28.4171598,92.15 C28.5177515,93.6 28.6686391,95 28.7692308,96.45 C28.8195266,97.35 28.9201183,98.25 29.0207101,99.25 C29.5236686,99.3 29.9260355,99.5 30.1775148,99.95 C30.3786982,100.3 30.7810651,100.5 31.183432,100.55 C31.6360947,100.65 32.0887574,100.75 32.591716,100.7 C33.3461538,100.6 33.5473373,100.8 33.6982249,101.45 C33.7988166,101.8 33.8994083,102.15 33.9497041,102.5 C34.0502959,103.2 34.1508876,103.95 33.5473373,104.6 C33.0946746,104.65 32.591716,104.75 32.0384615,104.8 C29.5236686,104.95 27.0088757,105.15 24.443787,105.3 C21.5769231,105.45 18.760355,105.55 15.8934911,105.65 C15.591716,105.65 15.239645,105.65 14.9378698,105.65 C14.2840237,105.6 14.1331361,105.45 14.0325444,104.8 C13.9319527,104.3 13.8816568,103.75 13.7810651,103.25 C13.7307692,102.9 13.8313609,102.6 13.8313609,102.3 C13.8816568,101.85 14.1331361,101.7 14.535503,101.6 C14.6863905,101.6 14.8372781,101.55 15.0384615,101.55 C15.5414201,101.55 16.0443787,101.3 16.2455621,100.9 C16.5473373,100.4 17,100.25 17.4023669,100 C17.352071,96.35 17.1005917,92.75 16.8994083,89.2 Z M24.6449704,3.55 C24.0414201,3.25 23.6390533,3.05 23.2366864,2.8 C22.9349112,2.6 22.6331361,2.4 22.3313609,2.2 C21.8786982,1.95 21.4260355,1.65 20.9733728,1.45 C20.0680473,1.05 19.464497,1.2 18.8106509,1.95 C18.6597633,2.15 18.5088757,2.35 18.3579882,2.5 C17.9556213,2.9 17.6035503,2.9 17.2011834,2.55 C17.1005917,2.45 17.0502959,2.35 17,2.25 C16.5473373,1.8 16.0443787,1.7 15.4408284,2 C15.1390533,2.15 14.7869822,2.3 14.535503,2.55 C13.6301775,3.4 12.7248521,4.25 11.7189349,5 C11.7189349,5.3 11.7692308,5.5 11.7692308,5.75 C12.0207101,8 12.5236686,10.25 12.9260355,12.45 C13.2781065,14.75 13.8816568,16.95 14.183432,19.25 C14.2337278,19.5 14.1331361,19.8 14.3846154,20.1 C17.0502959,19.85 19.7159763,19.25 22.4822485,19.2 C23.1863905,13.95 24.091716,8.8 24.6449704,3.55 Z M18.9112426,22.2 C18.5591716,22.15 18.2071006,22.05 17.9053254,22.35 C17.9053254,22.55 17.9053254,22.85 17.9053254,23.1 C17.9556213,24.35 18.1568047,25.65 18.1568047,26.9 C18.2071006,28.55 18.2573964,30.25 18.4585799,31.9 C18.6094675,33.1 18.6094675,34.3 18.6597633,35.5 C18.6597633,35.7 18.6597633,35.9 18.7100592,36.1 C18.9112426,37.05 18.8609467,38 18.9112426,38.95 C18.9615385,39.9 19.0621302,40.85 19.112426,41.8 C19.1627219,42.9 19.112426,43.95 19.2130178,45.05 C19.4142012,46.8 19.4142012,48.55 19.5650888,50.3 C19.6656805,51.15 19.5147929,52.05 19.6656805,52.95 C19.9171598,54.45 19.816568,55.95 20.0177515,57.45 C20.2189349,58.85 20.1183432,60.3 20.2692308,61.75 C20.4201183,63.4 20.4201183,65.1 20.5207101,66.75 C20.7218935,69 20.7721893,71.3 20.8727811,73.55 C20.8727811,73.6 20.9230769,73.7 20.9733728,73.8 C21.2751479,74 21.5769231,73.95 21.8284024,73.75 C22.0295858,73.55 22.0295858,73.3 21.9792899,73.1 C21.6272189,71.45 21.8786982,69.75 21.6272189,68.1 C21.4260355,66.75 21.5266272,65.4 21.3757396,64.05 C21.2248521,62.55 21.2751479,61.05 21.1242604,59.5 C20.9733728,58.05 21.0739645,56.55 20.8727811,55.1 C20.7218935,53.75 20.7721893,52.4 20.6213018,51.05 C20.4704142,49.45 20.5207101,47.8 20.3698225,46.15 C20.2189349,44.85 20.2692308,43.55 20.1686391,42.2 C20.0177515,40.7 20.0680473,39.2 19.9171598,37.65 C19.7662722,36.45 19.816568,35.25 19.7159763,34.05 C19.5650888,32.4 19.5650888,30.7 19.464497,29.05 C19.3136095,26.85 19.2130178,24.65 19.112426,22.5 C19.0118343,22.4 18.9615385,22.35 18.9112426,22.2 Z M20.0680473,22.2 C20.0680473,23.2 19.9674556,24.15 20.0680473,25.1 C20.2692308,27.3 20.3698225,29.55 20.4704142,31.75 C20.5710059,33.85 20.8224852,35.95 20.7721893,38.1 C20.7721893,38.15 20.7721893,38.2 20.7721893,38.2 C21.1242604,40.15 20.9733728,42.2 21.1745562,44.15 C21.4260355,46.25 21.3757396,48.35 21.4763314,50.5 C21.4763314,50.6 21.4763314,50.65 21.4763314,50.75 C21.7781065,52.6 21.6775148,54.5 21.8786982,56.35 C22.0798817,58.5 22.0798817,60.65 22.2307692,62.8 C22.2307692,62.85 22.2307692,62.9 22.2307692,62.9 C22.5828402,64.85 22.4319527,66.9 22.6331361,68.85 C22.7840237,70.3 22.8343195,71.8 22.9349112,73.25 C22.9349112,73.35 23.035503,73.45 23.0857988,73.55 C23.387574,73.6 23.6893491,73.65 23.8905325,73.35 C23.8905325,72.25 23.8402367,71.1 23.6893491,69.95 C23.5384615,68.55 23.5887574,67.1 23.4378698,65.65 C23.2869822,64.2 23.2869822,62.7 23.1863905,61.25 C23.035503,58.8 22.8846154,56.3 22.7337278,53.85 C22.5828402,51.2 22.4822485,48.5 22.2307692,45.85 C22.1301775,44.4 22.0798817,43 21.9792899,41.55 C21.8786982,39.5 21.5769231,37.4 21.6272189,35.35 C21.6272189,35.2 21.6272189,35.05 21.6272189,34.85 C21.2751479,33.2 21.3757396,31.5 21.2751479,29.85 C21.1242604,27.7 20.8727811,25.55 20.9230769,23.4 C20.9230769,22.9 20.8224852,22.45 20.6213018,22.1 C20.4201183,22.1 20.2692308,22.05 20.0680473,22.2 Z M15.943787,22.4 C15.943787,22.75 15.943787,22.95 15.943787,23.2 C15.8934911,24.1 16.1449704,24.95 16.1449704,25.8 C16.1449704,27.95 16.4970414,30.1 16.4467456,32.25 C16.4467456,32.35 16.4467456,32.5 16.4467456,32.6 C16.7988166,34.15 16.5976331,35.8 16.7988166,37.35 C17,38.85 16.8491124,40.35 17.0502959,41.9 C17.2011834,43.1 17.2011834,44.3 17.2514793,45.5 C17.352071,47.3 17.5029586,49.1 17.5532544,50.85 C17.6035503,52.7 17.9053254,54.5 17.8550296,56.35 C17.8550296,56.4 17.8550296,56.45 17.8550296,56.45 C18.056213,58.9 18.3076923,61.35 18.3076923,63.85 C18.3076923,64.2 18.3076923,64.55 18.3579882,64.95 C18.6094675,66.8 18.6597633,68.7 18.760355,70.55 C18.8106509,71.55 18.8106509,72.55 18.8609467,73.55 C18.8609467,74 19.112426,74.2 19.464497,74.15 C19.8668639,74.1 19.816568,73.8 19.816568,73.5 C19.7662722,72.2 19.7662722,70.85 19.6153846,69.55 C19.4142012,67.95 19.5650888,66.3 19.3136095,64.65 C19.1627219,63.6 19.1627219,62.5 19.112426,61.45 C19.0621302,59.45 18.760355,57.45 18.8106509,55.5 C18.8106509,53.6 18.4585799,51.7 18.5591716,49.75 C18.5591716,49.7 18.5591716,49.65 18.5591716,49.65 C18.1568047,47.8 18.4585799,45.9 18.1568047,44.05 C17.9556213,42.85 18.056213,41.6 17.9556213,40.35 C17.8047337,38.9 17.8550296,37.4 17.704142,35.95 C17.5532544,34.55 17.5532544,33.1 17.5029586,31.65 C17.4023669,29.6 17.1508876,27.6 17.2011834,25.55 C17.2011834,24.55 17.1005917,23.55 16.9497041,22.6 C16.9497041,22.55 16.8491124,22.5 16.7485207,22.4 C16.4970414,22.4 16.295858,22.4 15.943787,22.4 Z M27.260355,62.3 C27.3106509,61.4 27.1094675,60.6 27.1094675,59.75 C27.0591716,58.05 26.8579882,56.4 26.8076923,54.75 C26.7573964,53.6 26.6568047,52.45 26.5059172,51.3 C26.3047337,49.9 26.3550296,48.45 26.1035503,47 C25.9023669,45.5 25.9023669,44 25.8017751,42.45 C25.8017751,42.3 25.8017751,42.15 25.7514793,41.95 C25.4497041,40.55 25.5,39.1 25.3994083,37.7 C25.2485207,36.15 25.147929,34.6 25.147929,33.05 C25.0976331,30.35 24.8964497,27.65 24.8461538,24.9 C24.8461538,24.75 24.8461538,24.55 24.795858,24.4 C24.4940828,23.5 24.6952663,22.5 24.443787,21.55 C24.3431953,21.25 24.443787,20.9 24.4940828,20.6 C24.6449704,18.95 24.9467456,17.3 24.8964497,15.6 C24.8964497,15.35 24.8964497,15.15 24.9467456,14.9 C25.3994083,13.25 25.5,12.4 25.3491124,10.6 C25.3491124,10.5 25.3491124,10.35 25.3994083,10.25 C25.9023669,9.6 25.7514793,8.8 26.0029586,8.1 C26.1538462,7.6 26.0029586,7.25 25.4497041,7.05 C25.2485207,8.85 24.9467456,10.6 24.8461538,12.35 C24.8461538,12.6 24.795858,12.85 24.7455621,13.05 C24.1923077,15.25 24.0414201,17.5 23.6893491,19.75 C23.6390533,20.2 23.5887574,20.7 23.739645,21.2 C23.8402367,21.6 23.8402367,22 23.8402367,22.4 C23.8905325,24 23.8905325,25.6 24.0414201,27.2 C24.1923077,29.2 24.2426036,31.15 24.3431953,33.15 C24.3934911,34.1 24.2426036,35.1 24.443787,36 C24.6952663,37.55 24.443787,39.1 24.8461538,40.65 C24.8461538,43.2 25.0976331,45.75 25.2988166,48.25 C25.3994083,49.6 25.3994083,50.95 25.5502959,52.3 C25.7011834,53.6 25.7011834,54.9 25.7514793,56.25 C25.852071,58.05 26.0532544,59.85 26.1035503,61.6 C26.1035503,61.85 26.0532544,62.1 26.2544379,62.3 C26.556213,62.5 26.8579882,62.5 27.260355,62.3 Z M14.887574,22.65 C14.6360947,22.6 14.535503,22.75 14.535503,22.85 C14.7366864,23.7 14.6360947,24.6 14.6863905,25.45 C14.6863905,26.05 14.6863905,26.65 14.6863905,27.25 C14.6863905,29.9 14.7869822,32.5 14.887574,35.15 C14.9881657,37.6 15.2899408,40.1 15.1893491,42.55 C15.1893491,42.65 15.1893491,42.8 15.1893491,42.9 C15.5414201,44.55 15.3905325,46.25 15.5414201,47.9 C15.7426036,49.9 15.943787,51.85 15.8934911,53.85 C15.8934911,53.95 15.8934911,54 15.8934911,54.1 C16.1449704,56 16.2455621,57.9 16.295858,59.8 C16.3461538,61.05 16.3964497,62.35 16.4970414,63.6 C16.5976331,65.5 16.7485207,67.4 16.7988166,69.35 C16.8491124,70.95 16.9497041,72.55 17.0502959,74.1 C17.0502959,74.15 17.1508876,74.2 17.2011834,74.3 C17.4023669,74.3 17.6538462,74.4 17.9053254,74.15 C17.9053254,74.05 17.9556213,73.9 17.9556213,73.75 C17.9053254,72.95 17.8047337,72.1 17.7544379,71.3 C17.704142,70.45 17.6538462,69.65 17.5532544,68.8 C17.4526627,67.5 17.4526627,66.2 17.3017751,64.85 C17.1508876,63.55 17.1005917,62.25 17.1005917,60.9 C17.0502959,58.7 16.8491124,56.5 16.7485207,54.35 C16.647929,52.5 16.5976331,50.6 16.3964497,48.75 C16.2455621,47.15 16.295858,45.55 16.1449704,44 C15.9940828,42.8 16.0443787,41.6 15.943787,40.4 C15.7928994,38.95 15.8934911,37.45 15.6923077,36 C15.5414201,34.8 15.7426036,33.55 15.4408284,32.3 C15.4911243,30.2 15.0887574,28.1 15.1390533,25.95 C15.239645,24.9 15.0384615,23.8 14.887574,22.65 Z M22.6331361,21.95 C21.8284024,21.95 21.7781065,22 21.8284024,22.6 C21.8786982,23 21.9289941,23.4 21.9289941,23.8 C21.9792899,24.7 21.8786982,25.65 22.0295858,26.55 C22.2810651,28.2 22.2307692,29.9 22.3816568,31.55 C22.5828402,33.65 22.6331361,35.75 22.7337278,37.9 C22.7337278,38 22.7337278,38.05 22.7337278,38.15 C23.035503,39.9 22.9349112,41.65 23.1360947,43.4 C23.3372781,45.35 23.3372781,47.3 23.4378698,49.25 C23.4378698,49.35 23.4378698,49.4 23.4378698,49.5 C23.7899408,51.15 23.5887574,52.85 23.7899408,54.5 C23.9911243,56.05 23.8402367,57.6 24.0414201,59.15 C24.1923077,60.3 24.1420118,61.45 24.2928994,62.6 C24.443787,63.85 24.3934911,65.15 24.5443787,66.4 C24.7455621,68.5 24.795858,70.6 24.8964497,72.75 C24.8964497,73 24.8461538,73.25 25.0473373,73.45 C25.2988166,73.6 25.5,73.8 25.8017751,73.6 C25.8017751,73.5 25.852071,73.35 25.852071,73.25 C25.852071,71.7 25.6508876,70.15 25.5,68.6 C25.3994083,67.4 25.2988166,66.15 25.1982249,64.9 C24.9970414,62.5 24.8461538,60.15 24.6952663,57.75 C24.5946746,56 24.443787,54.25 24.3934911,52.5 C24.3934911,52.1 24.443787,51.7 24.3431953,51.3 C24.091716,50.35 24.1420118,49.4 24.1420118,48.45 C24.1420118,47.5 23.9408284,46.55 23.8905325,45.6 C23.8402367,43.85 23.739645,42.1 23.5887574,40.35 C23.5384615,39.9 23.5887574,39.45 23.5384615,39.05 C23.2869822,37.65 23.5384615,36.25 23.1863905,34.9 C23.2366864,32.1 22.8846154,29.3 22.8846154,26.5 C22.9349112,25 22.9349112,23.5 22.6331361,21.95 Z M24.0414201,89.05 C24.795858,88.95 24.8964497,88.9 24.8964497,88.35 C24.8964497,87.65 24.9467456,87 24.8461538,86.3 C24.5443787,84.65 24.6952663,82.95 24.4940828,81.3 C24.2928994,79.35 24.2928994,77.4 24.1923077,75.45 C24.1923077,75.4 24.1923077,75.35 24.1923077,75.35 C24.1420118,74.8 23.9408284,74.65 23.387574,74.85 C23.2869822,74.9 23.1863905,74.95 23.0857988,75.05 C22.8846154,75.7 23.1360947,76.35 23.1863905,76.95 C23.2366864,78.3 23.3372781,79.65 23.387574,81 C23.4881657,83.2 23.6893491,85.4 23.739645,87.55 C23.739645,87.8 23.739645,88.05 23.7899408,88.25 C23.739645,88.55 23.7899408,88.85 24.0414201,89.05 Z M16.7988166,87.55 C17,86.95 16.6982249,86.4 16.6982249,85.85 C16.5976331,83.75 16.4970414,81.65 16.3964497,79.55 C16.3964497,79.2 16.3964497,78.85 16.3964497,78.5 C16.3964497,78.35 16.3461538,78.2 16.295858,78.05 C16.2455621,77.95 16.295858,77.7 16.0443787,77.75 C15.4911243,78.65 15.0384615,79.6 14.7869822,80.6 C14.3343195,82.35 14.5857988,84.05 15.239645,85.7 C15.5414201,86.4 16.0443787,87.1 16.7988166,87.55 Z M27.0088757,87.75 C27.2100592,86.15 26.8579882,84.65 26.7573964,83.15 C26.6568047,81.55 26.4556213,79.9 26.3550296,78.3 C26.3047337,77.55 26.1538462,76.8 26.1035503,76.05 C26.0532544,75.55 25.7514793,75.4 25.147929,75.45 C25.147929,75.95 25.0976331,76.45 25.1982249,76.95 C25.2485207,77.25 25.2988166,77.6 25.2988166,77.9 C25.3491124,79.3 25.3994083,80.7 25.5,82.05 C25.7011834,83.95 25.7011834,85.85 25.8017751,87.75 C25.8017751,87.95 25.7514793,88.15 26.0029586,88.25 C26.4053254,88.25 26.6568047,87.95 27.0088757,87.75 Z M21.8284024,75 C21.0739645,75.05 20.9733728,75.1 20.9733728,75.7 C20.9733728,76.2 20.9733728,76.65 21.0236686,77.15 C21.2751479,79.1 21.2248521,81 21.4260355,82.95 C21.5769231,84.95 21.6272189,87 21.7781065,89.05 C21.7781065,89.1 21.8786982,89.2 21.8786982,89.25 C22.1301775,89.35 22.4319527,89.4 22.6331361,89.15 C22.6331361,88.1 22.683432,87.05 22.6331361,86.05 C22.5325444,84 22.2810651,81.95 22.2307692,79.85 C22.1804734,78.3 21.9289941,76.75 21.9289941,75.2 C21.9289941,75.15 21.9289941,75.15 21.8284024,75 Z M27.2100592,89.3 C26.908284,89.45 26.7071006,89.5 26.556213,89.6 C26.3550296,89.7 26.204142,89.75 26.0532544,90.15 C26.2544379,93.1 26.4556213,96.2 26.6568047,99.25 C27.3609467,99.4 27.3609467,99.4 28.0147929,99.2 C27.7130178,95.95 27.4615385,92.75 27.2100592,89.3 Z M19.9171598,75.3 C19.6153846,75.1 19.3639053,75.25 19.1627219,75.45 C19.0118343,75.85 19.0621302,76.25 19.112426,76.65 C19.4142012,78.1 19.3136095,79.6 19.464497,81.05 C19.6153846,83.1 19.6656805,85.2 19.816568,87.25 C19.8668639,87.85 19.7662722,88.45 19.9674556,89 C20.2189349,89.1 20.4201183,89.25 20.6715976,89.2 C20.8224852,89.05 20.7721893,88.85 20.7721893,88.65 C20.7721893,87.8 20.6213018,87 20.5710059,86.15 C20.5207101,84.55 20.3698225,82.95 20.3195266,81.35 C20.2189349,79.45 20.1183432,77.5 20.0177515,75.6 C20.0177515,75.5 19.9674556,75.4 19.9171598,75.3 Z M17.1508876,76.3 C17.5029586,78.15 17.4023669,80 17.5532544,81.85 C17.704142,83.8 17.9053254,85.75 17.9053254,87.7 C17.9053254,88.4 17.9556213,88.4 18.8106509,88.65 C18.8106509,88.05 18.8609467,87.45 18.8106509,86.85 C18.6094675,84.45 18.4585799,82.05 18.3579882,79.6 C18.3076923,78.35 18.2071006,77.05 18.1065089,75.8 C18.1065089,75.7 18.056213,75.65 17.9053254,75.65 C17.8550296,75.7 17.7544379,75.7 17.6538462,75.8 C17.4526627,76 17.3017751,76.15 17.1508876,76.3 Z M28.0650888,85.95 C29.9763314,82.9 29.2218935,78.95 27.260355,76.9 C27.4615385,79.6 27.612426,82.2 27.8136095,84.8 C27.8136095,85.1 27.964497,85.45 28.0650888,85.95 Z M23.9408284,90.55 C24.0414201,93.1 24.2928994,99.1 24.5443787,99.4 C24.8964497,99.45 25.2485207,99.55 25.5,99.25 C25.4497041,97.75 25.3994083,96.25 25.2485207,94.8 C25.0976331,93.3 25.2485207,91.8 24.8461538,90.35 C24.4940828,90.25 24.2928994,90.45 23.9408284,90.55 Z M19.464497,99.75 C19.464497,99.6 19.5147929,99.45 19.5147929,99.35 C19.3639053,96.95 19.2130178,94.6 19.0621302,92.2 C19.0118343,91.6 18.9615385,91 18.9112426,90.4 C18.8609467,89.95 18.6094675,89.8 18.1568047,89.85 C18.056213,90.6 18.5088757,98.85 18.7100592,99.95 C18.9615385,100.05 19.1627219,99.95 19.464497,99.75 Z M23.3372781,99.4 C23.1863905,98.4 23.2366864,97.4 23.1863905,96.45 C23.1360947,95.5 23.0857988,94.55 22.9852071,93.6 C22.8846154,92.65 23.0857988,91.6 22.683432,90.7 C22.3816568,90.6 22.1804734,90.55 21.9792899,90.8 C21.8786982,92.3 22.2810651,98.6 22.5325444,99.55 C22.7840237,99.65 22.9852071,99.65 23.3372781,99.4 Z M21.2248521,99.6 C21.3254438,97.85 20.9230769,91.55 20.6213018,90.6 C20.4201183,90.55 20.2692308,90.45 20.0177515,90.7 C20.2692308,93.65 20.2692308,96.7 20.6213018,99.75 C20.9230769,99.8 21.0739645,99.75 21.2248521,99.6 Z M29.0710059,7.95 C29.5236686,7.95 29.8757396,7.55 29.9260355,7 C29.9763314,6.55 29.4230769,6.05 28.8698225,6.1 C28.5177515,6.1 28.1656805,6.6 28.1656805,7.05 C28.1153846,7.55 28.5177515,7.9 29.0710059,7.95 Z M29.5236686,10.95 C29.5236686,10.75 29.3727811,10.5 29.1213018,10.35 C28.8195266,10.2 28.5680473,10.3 28.316568,10.45 C28.0650888,10.65 27.964497,11.15 28.1153846,11.45 C28.316568,11.85 28.8195266,12.15 29.0710059,12.05 C29.4230769,11.85 29.4733728,11.5 29.5236686,11.15 C29.5236686,11.1 29.5236686,11.1 29.5236686,10.95 Z M28.7692308,15.7 C28.7692308,15.2 28.5680473,14.9 28.0650888,14.7 C27.9142012,14.65 27.7633136,14.65 27.612426,14.75 C27.3106509,15 27.2100592,15.35 27.260355,15.7 C27.3609467,16.1 27.8136095,16.4 28.2662722,16.35 C28.5680473,16.4 28.7692308,16.1 28.7692308,15.7 Z M25.6508876,6.7 C26.0532544,6.7 26.0532544,6.4 26.1035503,6.2 C26.3550296,5.45 26.3047337,4.7 26.204142,3.95 C26.204142,3.85 26.0029586,3.8 25.852071,3.7 C25.7514793,4.35 25.6005917,5 25.5502959,5.6 C25.5502959,5.95 25.5,6.3 25.6508876,6.7 Z M10.1094675,12.85 C10.1597633,12.5 9.70710059,12.05 9.35502959,12.05 C9.05325444,12.05 8.70118343,12.35 8.65088757,12.6 C8.60059172,13.05 8.95266272,13.45 9.4556213,13.45 C9.75739645,13.5 10.1094675,13.2 10.1094675,12.85 Z M8.60059172,9.35 C8.90236686,9.35 9.20414201,9 9.20414201,8.6 C9.20414201,8.2 8.95266272,7.95 8.55029586,7.9 C8.24852071,7.9 7.94674556,8.2 7.94674556,8.65 C7.8964497,9 8.24852071,9.35 8.60059172,9.35 Z M9.75739645,16.55 C9.60650888,17.3 9.70710059,17.5 10.2100592,17.7 C10.4615385,17.8 10.6627219,17.7 10.7633136,17.45 C10.9142012,17.1 10.8136095,16.8 10.5118343,16.65 C10.3106509,16.55 10.0591716,16.5 9.75739645,16.55 Z M22.7337278,20.6 C22.7337278,20.55 22.683432,20.45 22.6331361,20.4 C22.4319527,20.2 21.9792899,20.2 21.7781065,20.4 C21.7278107,20.45 21.6775148,20.55 21.6775148,20.6 C21.6775148,20.7 21.7278107,20.85 21.8284024,20.9 C22.0798817,21.05 22.3313609,21.05 22.5828402,20.85 C22.683432,20.75 22.683432,20.65 22.7337278,20.6 Z M18.2071006,21.15 C18.4585799,21.1 18.760355,21.15 18.8609467,20.8 C18.8609467,20.75 18.8106509,20.65 18.760355,20.6 C18.5591716,20.4 18.3076923,20.5 18.1065089,20.55 C18.056213,20.55 17.9556213,20.6 17.9053254,20.65 C17.8550296,20.75 17.7544379,20.85 17.8047337,20.95 C17.8550296,21 17.9053254,21.1 17.9556213,21.1 C18.056213,21.15 18.1568047,21.15 18.2071006,21.15 Z M15.8431953,21 C15.8431953,21.2 15.943787,21.4 16.1449704,21.4 C16.3461538,21.4 16.5976331,21.45 16.7988166,21.25 C16.8491124,21.2 16.8491124,21.1 16.8491124,21.05 C16.8491124,21 16.7988166,20.9 16.6982249,20.85 C16.3964497,20.85 16.0946746,20.8 15.8431953,21 Z M20.2189349,20.95 C20.2692308,20.95 20.3195266,20.95 20.3195266,20.95 C20.5207101,20.9 20.7218935,20.9 20.6715976,20.6 C20.6213018,20.35 20.4201183,20.35 20.2189349,20.35 C20.1183432,20.35 20.0177515,20.4 19.9171598,20.45 C19.8668639,20.5 19.816568,20.55 19.816568,20.65 C19.7662722,20.8 19.8668639,20.85 19.9674556,20.9 C20.0680473,20.95 20.1686391,20.95 20.2189349,20.95 Z M14.9378698,21.3 C14.887574,21.15 14.887574,20.95 14.6863905,20.95 C14.4349112,20.95 14.4852071,21.15 14.4349112,21.3 C14.4349112,21.45 14.4349112,21.65 14.6863905,21.65 C14.887574,21.6 14.9378698,21.45 14.9378698,21.3 Z" id="Shape" fill="#000000"/>
          <path d="M29.6745562,9.35 C29.5236686,9.35 29.3224852,9.35 29.2218935,9.25 C28.9201183,9.05 28.7189349,9.1 28.4674556,9.25 C28.1153846,9.45 27.8136095,9.7 27.5118343,9.95 C27.3609467,10.1 27.1597633,10.15 26.9585799,10 C26.7573964,9.65 26.8579882,9.35 26.9585799,9 C27.0591716,8.7 27.0591716,8.35 27.1597633,7.95 C27.964497,8.7 28.8698225,9.15 29.9763314,8.85 C29.8757396,9.05 29.7751479,9.2 29.6745562,9.35 Z" id="Shape" fill="#E7E7E6"/>
          <path d="M16.8994083,89.2 C17.1005917,92.75 17.352071,96.3 17.5532544,99.95 C17.1508876,100.2 16.647929,100.4 16.3964497,100.85 C16.1449704,101.25 15.6923077,101.5 15.1893491,101.5 C15.0384615,101.5 14.887574,101.5 14.6863905,101.55 C14.2840237,101.6 14.0325444,101.8 13.9822485,102.25 C13.9319527,102.55 13.8313609,102.85 13.9319527,103.2 C14.0325444,103.7 14.0828402,104.25 14.183432,104.75 C14.2840237,105.4 14.4349112,105.55 15.0887574,105.6 C15.3905325,105.65 15.7426036,105.65 16.0443787,105.6 C18.9112426,105.5 21.7278107,105.4 24.5946746,105.25 C27.1094675,105.1 29.6242604,104.95 32.1893491,104.75 C32.6923077,104.7 33.1952663,104.6 33.6982249,104.55 C34.3017751,103.9 34.2011834,103.15 34.1005917,102.45 C34.0502959,102.1 33.9497041,101.75 33.8491124,101.4 C33.6982249,100.75 33.4970414,100.55 32.7426036,100.65 C32.239645,100.7 31.7869822,100.6 31.3343195,100.5 C30.9319527,100.45 30.5295858,100.25 30.3284024,99.9 C30.0769231,99.4 29.6745562,99.25 29.1715976,99.2 C29.0710059,98.2 29.0207101,97.3 28.9201183,96.4 C28.8195266,94.95 28.6686391,93.55 28.5680473,92.1 C28.4674556,91.05 28.4171598,90.05 28.316568,89 C28.2662722,88.6 28.3668639,88.25 28.6183432,87.9 C28.9704142,87.35 29.3224852,86.75 29.6242604,86.15 C30.7810651,83.75 30.8816568,81.3 29.9763314,78.8 C29.5739645,77.7 28.9201183,76.65 28.0650888,75.8 C27.4112426,75.2 27.1597633,74.45 27.1597633,73.55 C27.1094675,72.1 26.908284,70.6 26.7573964,69.15 C26.7071006,68.7 26.7071006,68.25 26.7071006,67.85 C26.6065089,66.8 26.556213,65.7 26.4556213,64.65 C26.4556213,64.4 26.3550296,64.1 26.556213,63.75 C27.5118343,63.8 28.5177515,63.8 29.4733728,63.9 C30.5798817,64 31.5857988,64.3 32.591716,64.8 C32.6923077,64.85 32.7928994,64.95 32.8934911,64.95 C35.8609467,66.2 37.4704142,68.55 38.5769231,71.4 C39.2307692,73.1 39.4822485,74.85 39.5325444,76.65 C39.5325444,79.05 39.1301775,81.4 38.6272189,83.75 C38.2751479,85.5 38.0739645,87.3 37.9733728,89.1 C37.8727811,91.25 38.4260355,93.3 39.1301775,95.3 C39.6331361,96.65 40.4378698,97.85 41.091716,99.15 C42.6005917,102.05 43.8579882,105.1 44.5118343,108.3 C44.7633136,109.55 44.964497,110.85 44.9142012,112.1 C44.9142012,115.6 43.9585799,118.8 41.5946746,121.45 C40.4881657,122.7 39.1301775,123.65 37.5710059,124.25 C36.3136095,124.75 35.0059172,125.15 33.6982249,125.5 C32.239645,125.9 30.7307692,126.15 29.2218935,126.5 C28.4171598,126.7 27.5621302,126.7 26.7071006,126.7 C25.1982249,126.7 23.6390533,126.7 22.1301775,126.7 C20.1686391,126.7 18.2071006,126.55 16.2455621,126.3 C14.183432,126 12.2218935,125.55 10.3106509,124.85 C8.24852071,124.15 6.43786982,123.05 4.92899408,121.5 C3.26923077,119.85 2.26331361,117.8 1.86094675,115.5 C1.60946746,114.15 1.50887574,112.75 1.50887574,111.35 C1.45857988,108.85 2.06213018,106.5 3.06804734,104.25 C3.77218935,102.6 4.62721893,101 5.43195266,99.4 C6.23668639,97.7 7.09171598,96.05 7.5443787,94.2 C8.04733728,92.05 8.44970414,89.9 7.84615385,87.7 C7.5443787,86.6 7.24260355,85.45 6.89053254,84.35 C5.93491124,81.35 5.33136095,78.3 5.53254438,75.15 C5.63313609,73.6 6.13609467,72.2 7.09171598,70.95 C8.19822485,69.45 9.50591716,68.2 11.0650888,67.15 C12.4230769,66.25 13.8816568,65.7 15.4408284,65.25 C15.8431953,66.6 15.8934911,67.2 16.2455621,75.6 C12.3224852,79.75 12.3224852,85.75 16.8994083,89.2 Z M8.09763314,121.65 C8.29881657,121.3 8.29881657,121 8.04733728,120.7 C7.64497041,120.25 7.29289941,119.8 6.89053254,119.3 C5.9852071,118.2 5.33136095,116.9 4.82840237,115.55 C4.52662722,114.65 4.22485207,113.75 4.12426036,112.8 C3.97337278,111.25 4.0739645,109.7 4.47633136,108.2 C4.62721893,107.7 4.57692308,107.2 4.52662722,106.75 C4.22485207,106.5 3.97337278,106.55 3.82248521,106.75 C3.62130178,106.95 3.4704142,107.2 3.42011834,107.45 C3.16863905,108.55 2.91715976,109.6 2.86686391,110.7 C2.86686391,111.9 2.91715976,113.05 3.06804734,114.25 C3.21893491,115.35 3.57100592,116.4 3.87278107,117.45 C4.82840237,118.85 5.78402367,120.3 7.09171598,121.45 C7.39349112,121.7 7.69526627,121.75 8.09763314,121.65 Z M12.0207101,68.8 C11.5177515,68.35 11.4171598,68.3 11.0147929,68.6 C10.8136095,68.75 10.6627219,68.95 10.4615385,69.05 C9.05325444,70 8.04733728,71.35 7.39349112,72.9 C7.19230769,73.45 6.9408284,74 6.99112426,74.6 C6.99112426,75.25 7.44378698,75.5 8.04733728,75.2 C8.44970414,75 8.65088757,74.65 8.65088757,74.25 C8.65088757,73.5 9.05325444,72.9 9.4556213,72.3 C10.0088757,71.5 10.5621302,70.65 11.316568,70 C11.6686391,69.7 11.9704142,69.35 12.0207101,68.8 Z M8.34911243,77.1 C7.49408284,77.25 7.19230769,77.65 7.24260355,78.45 C7.29289941,79.2 7.34319527,79.85 7.69526627,80.5 C8.04733728,81.25 8.39940828,81.3 9.05325444,80.7 C9.1035503,80.65 9.15384615,80.55 9.20414201,80.45 C8.70118343,79.45 8.80177515,78.25 8.34911243,77.1 Z" id="Shape" fill="#DEC6A3"/>
          <path d="M23.2366864,2.8 C22.9349112,2.6 22.6331361,2.4 22.3313609,2.2 C21.8786982,1.95 21.4260355,1.65 20.9733728,1.45 C20.0680473,1.05 19.464497,1.2 18.8106509,1.95 C18.6597633,2.15 18.5088757,2.35 18.3579882,2.5 C17.9556213,2.9 17.6035503,2.9 17.2011834,2.55 C17.1005917,2.45 17.0502959,2.35 17,2.25 C16.5473373,1.8 16.0443787,1.7 15.4408284,2 C15.1390533,2.15 14.7869822,2.3 14.535503,2.55 C13.6301775,3.4 12.7248521,4.25 11.7189349,5 C11.7189349,5.3 11.7692308,5.5 11.7692308,5.75 C12.0207101,8 12.5236686,10.25 12.9260355,12.45 C13.2781065,14.75 13.8816568,16.95 14.183432,19.25 C14.2337278,19.5 14.1331361,19.8 14.3846154,20.1 C17.0502959,19.85 19.7159763,19.25 22.4822485,19.2 C23.1863905,14 24.091716,8.8 24.6449704,3.6 C24.091716,3.25 23.6390533,3.05 23.2366864,2.8 Z M15.3402367,19.2 C14.9378698,18.95 14.7366864,18.55 14.7366864,18.1 C14.6863905,17.45 14.4852071,16.85 14.3343195,16.25 C14.2337278,15.9 14.2337278,15.55 14.2840237,15.2 C14.2840237,14.95 14.4852071,14.8 14.6863905,14.7 C15.3905325,15.05 15.239645,15.75 15.3905325,16.3 C15.591716,17 15.6420118,17.75 15.8934911,18.45 C15.9940828,18.8 15.8934911,18.9 15.3402367,19.2 Z" id="Shape" fill="#DEC6A3"/>
          <path d="M18.9112426,22.2 C18.9615385,22.35 19.0118343,22.4 19.0118343,22.5 C19.112426,24.7 19.1627219,26.9 19.3639053,29.05 C19.5147929,30.7 19.464497,32.4 19.6153846,34.05 C19.7159763,35.25 19.6656805,36.45 19.816568,37.65 C19.9674556,39.15 19.9171598,40.7 20.0680473,42.2 C20.2189349,43.5 20.1686391,44.85 20.2692308,46.15 C20.4704142,47.8 20.3698225,49.4 20.5207101,51.05 C20.6715976,52.4 20.5710059,53.75 20.7721893,55.1 C20.9733728,56.55 20.8727811,58.05 21.0236686,59.5 C21.1745562,61 21.1242604,62.55 21.2751479,64.05 C21.4260355,65.4 21.3254438,66.75 21.5266272,68.1 C21.7781065,69.75 21.5266272,71.45 21.8786982,73.1 C21.9289941,73.35 21.9289941,73.6 21.7278107,73.75 C21.4763314,74 21.1745562,74 20.8727811,73.8 C20.8224852,73.7 20.7721893,73.65 20.7721893,73.55 C20.6715976,71.3 20.6213018,69 20.4201183,66.75 C20.2692308,65.1 20.3195266,63.4 20.1686391,61.75 C20.0177515,60.3 20.1183432,58.85 19.9171598,57.45 C19.7159763,55.95 19.816568,54.45 19.5650888,52.95 C19.4142012,52.1 19.5650888,51.2 19.464497,50.3 C19.3136095,48.55 19.3136095,46.8 19.112426,45.05 C19.0118343,44 19.0621302,42.9 19.0118343,41.8 C18.9615385,40.85 18.8609467,39.9 18.8106509,38.95 C18.760355,38 18.8106509,37.05 18.6094675,36.1 C18.5591716,35.9 18.5591716,35.7 18.5591716,35.5 C18.5088757,34.3 18.5088757,33.1 18.3579882,31.9 C18.1568047,30.25 18.1065089,28.55 18.056213,26.9 C18.056213,25.6 17.8550296,24.35 17.8047337,23.1 C17.8047337,22.85 17.8047337,22.55 17.8047337,22.35 C18.2071006,22.05 18.5591716,22.15 18.9112426,22.2 Z" id="Shape" fill="#806F5B"/>
          <path d="M20.0680473,22.2 C20.2692308,22.05 20.4201183,22.05 20.6213018,22.1 C20.8224852,22.5 20.9230769,22.95 20.9230769,23.4 C20.8727811,25.55 21.1242604,27.7 21.2751479,29.85 C21.3757396,31.5 21.2751479,33.2 21.6272189,34.85 C21.6775148,35 21.6775148,35.15 21.6272189,35.35 C21.5769231,37.45 21.8284024,39.5 21.9792899,41.55 C22.0798817,43 22.0798817,44.4 22.2307692,45.85 C22.4319527,48.5 22.5828402,51.2 22.7337278,53.85 C22.8846154,56.3 23.035503,58.8 23.1863905,61.25 C23.2869822,62.7 23.2869822,64.2 23.4378698,65.65 C23.5887574,67.1 23.5384615,68.5 23.6893491,69.95 C23.8402367,71.1 23.8402367,72.25 23.8905325,73.35 C23.6390533,73.65 23.387574,73.6 23.0857988,73.55 C23.035503,73.45 22.9349112,73.35 22.9349112,73.25 C22.8343195,71.8 22.7840237,70.3 22.6331361,68.85 C22.4319527,66.85 22.5828402,64.85 22.2307692,62.9 C22.2307692,62.85 22.2307692,62.8 22.2307692,62.8 C22.1301775,60.65 22.0798817,58.5 21.8786982,56.35 C21.7278107,54.5 21.7781065,52.6 21.4763314,50.75 C21.4763314,50.65 21.4763314,50.6 21.4763314,50.5 C21.3757396,48.4 21.3757396,46.25 21.1745562,44.15 C20.9733728,42.15 21.1242604,40.15 20.7721893,38.2 C20.7721893,38.15 20.7721893,38.1 20.7721893,38.1 C20.8224852,36 20.5710059,33.9 20.4704142,31.75 C20.3698225,29.5 20.2692308,27.3 20.0680473,25.1 C19.9674556,24.2 20.0680473,23.25 20.0680473,22.2 Z" id="Shape" fill="#806E5B"/>
          <path d="M15.943787,22.4 C16.295858,22.35 16.4970414,22.35 16.6982249,22.35 C16.7988166,22.45 16.8491124,22.5 16.8994083,22.55 C17.0502959,23.55 17.1508876,24.5 17.1508876,25.5 C17.1508876,27.55 17.352071,29.55 17.4526627,31.6 C17.5532544,33.05 17.5029586,34.45 17.6538462,35.9 C17.8047337,37.35 17.7544379,38.85 17.9053254,40.3 C18.056213,41.55 17.9556213,42.8 18.1065089,44 C18.408284,45.85 18.1065089,47.75 18.5088757,49.6 C18.5088757,49.65 18.5088757,49.7 18.5088757,49.7 C18.4585799,51.6 18.8106509,53.5 18.760355,55.45 C18.760355,57.45 19.0118343,59.45 19.0621302,61.4 C19.112426,62.45 19.112426,63.55 19.2633136,64.6 C19.464497,66.25 19.3639053,67.85 19.5650888,69.5 C19.7159763,70.8 19.7159763,72.15 19.7662722,73.45 C19.7662722,73.75 19.816568,74.05 19.4142012,74.1 C19.0621302,74.15 18.8609467,73.95 18.8106509,73.5 C18.760355,72.5 18.760355,71.5 18.7100592,70.5 C18.6094675,68.65 18.5591716,66.75 18.3076923,64.9 C18.2573964,64.55 18.2573964,64.2 18.2573964,63.8 C18.2071006,61.35 18.0059172,58.85 17.8047337,56.4 C17.8047337,56.35 17.8047337,56.3 17.8047337,56.3 C17.8550296,54.45 17.5532544,52.65 17.5029586,50.8 C17.4526627,49 17.3017751,47.2 17.2011834,45.45 C17.1508876,44.25 17.1508876,43.05 17,41.85 C16.7988166,40.35 16.9497041,38.8 16.7485207,37.3 C16.5473373,35.7 16.7485207,34.1 16.3964497,32.55 C16.3461538,32.45 16.3964497,32.3 16.3964497,32.2 C16.4467456,30.05 16.0946746,27.9 16.0946746,25.75 C16.0946746,24.9 15.8431953,24 15.8934911,23.15 C15.943787,23 15.943787,22.75 15.943787,22.4 Z" id="Shape" fill="#746254"/>
          <path d="M27.260355,62.3 C26.8579882,62.5 26.556213,62.45 26.2544379,62.35 C26.0532544,62.15 26.1035503,61.9 26.1035503,61.65 C26.0532544,59.85 25.852071,58.05 25.7514793,56.3 C25.7011834,55 25.6508876,53.65 25.5502959,52.35 C25.3994083,51 25.4497041,49.65 25.2988166,48.3 C25.0473373,45.75 24.8461538,43.25 24.8461538,40.7 C24.4940828,39.2 24.7455621,37.6 24.443787,36.05 C24.2928994,35.1 24.3934911,34.15 24.3431953,33.2 C24.2426036,31.2 24.1923077,29.2 24.0414201,27.25 C23.9408284,25.65 23.9408284,24.05 23.8402367,22.45 C23.8402367,22.05 23.8402367,21.65 23.739645,21.25 C23.5887574,20.8 23.6390533,20.3 23.6893491,19.8 C23.9911243,17.55 24.1923077,15.3 24.7455621,13.1 C24.795858,12.85 24.795858,12.65 24.8461538,12.4 C24.9467456,10.65 25.1982249,8.85 25.4497041,7.1 C25.9526627,7.3 26.1538462,7.65 26.0029586,8.15 C25.8017751,8.85 25.9023669,9.65 25.3994083,10.3 C25.3491124,10.4 25.3491124,10.55 25.3491124,10.65 C25.4497041,12.45 25.3994083,13.3 24.9467456,14.95 C24.8964497,15.2 24.8964497,15.4 24.8964497,15.65 C24.9467456,17.35 24.6449704,19 24.4940828,20.65 C24.443787,20.95 24.3431953,21.3 24.443787,21.6 C24.6952663,22.55 24.4940828,23.5 24.795858,24.45 C24.8461538,24.6 24.8461538,24.75 24.8461538,24.95 C24.8964497,27.65 25.0976331,30.35 25.147929,33.1 C25.147929,34.65 25.2988166,36.2 25.3994083,37.75 C25.5,39.15 25.4497041,40.6 25.7514793,42 C25.8017751,42.15 25.7514793,42.3 25.8017751,42.5 C25.9023669,44 25.9023669,45.55 26.1035503,47.05 C26.3047337,48.45 26.3047337,49.9 26.5059172,51.35 C26.6568047,52.5 26.7573964,53.65 26.8076923,54.8 C26.8579882,56.45 27.0591716,58.15 27.1094675,59.8 C27.1094675,60.6 27.3106509,61.45 27.260355,62.3 Z" id="Shape" fill="#806E5B"/>
          <path d="M14.887574,22.65 C15.0384615,23.8 15.1893491,24.9 15.1893491,26 C15.1390533,28.1 15.5414201,30.2 15.4911243,32.35 C15.7928994,33.55 15.591716,34.8 15.7426036,36.05 C15.943787,37.5 15.8431953,39 15.9940828,40.45 C16.1449704,41.65 16.0946746,42.85 16.1952663,44.05 C16.3964497,45.65 16.295858,47.25 16.4467456,48.8 C16.647929,50.65 16.7485207,52.55 16.7988166,54.4 C16.8994083,56.6 17.1005917,58.8 17.1508876,60.95 C17.2011834,62.25 17.2011834,63.6 17.352071,64.9 C17.5029586,66.2 17.4526627,67.55 17.6035503,68.85 C17.6538462,69.7 17.7544379,70.5 17.8047337,71.35 C17.8550296,72.15 17.9556213,73 18.0059172,73.8 C18.0059172,73.95 18.0059172,74.1 17.9556213,74.2 C17.704142,74.45 17.4526627,74.35 17.2514793,74.35 C17.2011834,74.25 17.1005917,74.2 17.1005917,74.15 C17,72.55 16.8994083,70.95 16.8491124,69.4 C16.7988166,67.5 16.647929,65.6 16.5473373,63.65 C16.4970414,62.4 16.3964497,61.1 16.3461538,59.85 C16.2455621,57.95 16.1449704,56.05 15.943787,54.15 C15.943787,54.05 15.943787,54 15.943787,53.9 C15.9940828,51.9 15.7928994,49.9 15.591716,47.95 C15.4408284,46.3 15.591716,44.6 15.239645,42.95 C15.1893491,42.85 15.239645,42.7 15.239645,42.6 C15.2899408,40.1 15.0384615,37.65 14.9378698,35.2 C14.8372781,32.55 14.7366864,29.95 14.7366864,27.3 C14.7366864,26.7 14.7366864,26.1 14.7366864,25.5 C14.7366864,24.6 14.7869822,23.75 14.5857988,22.9 C14.535503,22.75 14.6360947,22.65 14.887574,22.65 Z" id="Shape" fill="#746253"/>
          <path d="M22.6331361,21.95 C22.9349112,23.5 22.9349112,24.95 22.9349112,26.45 C22.9349112,29.25 23.2869822,32.05 23.2366864,34.85 C23.5887574,36.2 23.2869822,37.65 23.5887574,39 C23.6893491,39.4 23.6390533,39.85 23.6390533,40.3 C23.7899408,42.05 23.8905325,43.8 23.9408284,45.55 C23.9911243,46.5 24.1923077,47.45 24.1923077,48.4 C24.1923077,49.35 24.1420118,50.3 24.3934911,51.25 C24.4940828,51.65 24.443787,52.05 24.443787,52.45 C24.4940828,54.2 24.6449704,55.95 24.7455621,57.7 C24.8964497,60.1 25.0473373,62.45 25.2485207,64.85 C25.3491124,66.1 25.4497041,67.3 25.5502959,68.55 C25.7011834,70.1 25.9023669,71.65 25.9023669,73.2 C25.9023669,73.3 25.852071,73.45 25.852071,73.55 C25.5502959,73.75 25.2988166,73.55 25.0976331,73.4 C24.8964497,73.2 24.9970414,72.95 24.9467456,72.7 C24.8461538,70.6 24.795858,68.45 24.5946746,66.35 C24.4940828,65.1 24.4940828,63.8 24.3431953,62.55 C24.1923077,61.4 24.2426036,60.25 24.091716,59.1 C23.8905325,57.55 23.9911243,56 23.8402367,54.45 C23.6390533,52.8 23.7899408,51.1 23.4881657,49.45 C23.4881657,49.35 23.4881657,49.3 23.4881657,49.2 C23.387574,47.25 23.387574,45.3 23.1863905,43.35 C23.035503,41.6 23.0857988,39.85 22.7840237,38.1 C22.7840237,38 22.7840237,37.95 22.7840237,37.85 C22.683432,35.75 22.683432,33.6 22.4319527,31.5 C22.2810651,29.85 22.3313609,28.15 22.0798817,26.5 C21.9289941,25.6 22.0295858,24.65 21.9792899,23.75 C21.9792899,23.35 21.9289941,22.95 21.8786982,22.55 C21.7781065,22 21.8284024,21.95 22.6331361,21.95 Z" id="Shape" fill="#7D6C58"/>
          <path d="M24.0414201,89.05 C23.7899408,88.85 23.7899408,88.55 23.739645,88.3 C23.6893491,88.05 23.6893491,87.8 23.6893491,87.6 C23.6893491,85.4 23.4378698,83.2 23.3372781,81.05 C23.2869822,79.7 23.1863905,78.35 23.1360947,77 C23.0857988,76.35 22.8343195,75.75 23.035503,75.1 C23.1360947,75.05 23.2366864,74.95 23.3372781,74.9 C23.8905325,74.7 24.091716,74.8 24.1420118,75.4 C24.1420118,75.45 24.1420118,75.5 24.1420118,75.5 C24.2426036,77.45 24.2426036,79.4 24.443787,81.35 C24.6449704,83 24.5443787,84.7 24.795858,86.35 C24.8964497,87 24.8964497,87.7 24.8461538,88.4 C24.8461538,88.9 24.795858,88.9 24.0414201,89.05 Z" id="Shape" fill="#7F6D5A"/>
          <path d="M16.7988166,87.55 C16.0443787,87.1 15.5414201,86.45 15.239645,85.65 C14.5857988,84 14.3343195,82.3 14.7869822,80.55 C15.0384615,79.55 15.4911243,78.6 16.0443787,77.7 C16.295858,77.65 16.2455621,77.9 16.295858,78 C16.3461538,78.15 16.3964497,78.3 16.3964497,78.45 C16.3964497,78.8 16.3964497,79.15 16.3964497,79.5 C16.4970414,81.6 16.5976331,83.7 16.6982249,85.8 C16.6982249,86.4 17,86.9 16.7988166,87.55 Z" id="Shape" fill="#806E5A"/>
          <path d="M27.0088757,87.75 C26.6568047,87.95 26.4556213,88.25 26.0532544,88.3 C25.8017751,88.2 25.852071,87.95 25.852071,87.8 C25.7514793,85.9 25.7514793,84 25.5502959,82.1 C25.3994083,80.7 25.3994083,79.3 25.3491124,77.95 C25.3491124,77.65 25.2988166,77.3 25.2485207,77 C25.147929,76.5 25.1982249,76 25.1982249,75.5 C25.8017751,75.4 26.1035503,75.6 26.1538462,76.1 C26.204142,76.85 26.3550296,77.6 26.4053254,78.35 C26.5059172,79.95 26.7071006,81.6 26.8076923,83.2 C26.8076923,84.65 27.1597633,86.15 27.0088757,87.75 Z" id="Shape" fill="#7D6C59"/>
          <path d="M21.8284024,75 C21.8786982,75.15 21.9289941,75.15 21.9289941,75.2 C21.9289941,76.75 22.1804734,78.3 22.2307692,79.85 C22.2810651,81.9 22.5325444,83.95 22.6331361,86.05 C22.683432,87.1 22.6331361,88.1 22.6331361,89.15 C22.4319527,89.4 22.1301775,89.35 21.8786982,89.25 C21.8284024,89.2 21.7781065,89.1 21.7781065,89.05 C21.6775148,87 21.6272189,85 21.4260355,82.95 C21.2751479,81 21.3254438,79.05 21.0236686,77.15 C20.9733728,76.7 20.9733728,76.2 20.9733728,75.7 C21.0236686,75.1 21.0739645,75.05 21.8284024,75 Z" id="Shape" fill="#7E6D59"/>
          <path d="M27.2100592,89.3 C27.4615385,92.7 27.7130178,95.95 28.0147929,99.2 C27.3609467,99.4 27.3609467,99.4 26.6568047,99.25 C26.4556213,96.15 26.2544379,93.1 26.0532544,90.15 C26.204142,89.8 26.3550296,89.7 26.556213,89.6 C26.7071006,89.5 26.8579882,89.45 27.2100592,89.3 Z" id="Shape" fill="#D8C19F"/>
          <path d="M19.9171598,75.3 C19.9674556,75.4 20.0177515,75.5 20.0177515,75.6 C20.1183432,77.5 20.2189349,79.45 20.3195266,81.35 C20.4201183,82.95 20.5207101,84.55 20.5710059,86.15 C20.6213018,87 20.7721893,87.8 20.7721893,88.65 C20.7721893,88.85 20.8224852,89.05 20.6715976,89.2 C20.4201183,89.25 20.2189349,89.1 19.9674556,89 C19.7662722,88.45 19.8668639,87.8 19.816568,87.25 C19.7159763,85.2 19.6153846,83.1 19.464497,81.05 C19.3639053,79.6 19.4142012,78.1 19.112426,76.65 C19.0621302,76.25 19.0118343,75.85 19.1627219,75.45 C19.3639053,75.25 19.6153846,75.1 19.9171598,75.3 Z" id="Shape" fill="#7C6B58"/>
          <path d="M17.1508876,76.3 C17.3017751,76.15 17.4526627,76 17.6035503,75.85 C17.704142,75.8 17.8047337,75.75 17.8550296,75.7 C18.0059172,75.7 18.056213,75.75 18.056213,75.85 C18.1568047,77.1 18.2573964,78.4 18.3076923,79.65 C18.408284,82.05 18.5591716,84.5 18.760355,86.9 C18.8106509,87.5 18.760355,88.1 18.760355,88.7 C17.9053254,88.45 17.8047337,88.45 17.8550296,87.75 C17.8550296,85.8 17.6538462,83.85 17.5029586,81.9 C17.4023669,80 17.5029586,78.15 17.1508876,76.3 Z" id="Shape" fill="#7E6D59"/>
          <path d="M28.0650888,85.95 C27.964497,85.5 27.8136095,85.15 27.8136095,84.8 C27.612426,82.2 27.4615385,79.6 27.260355,76.9 C29.2218935,78.9 29.9763314,82.9 28.0650888,85.95 Z" id="Shape" fill="#7C6B58"/>
          <path d="M23.9408284,90.55 C24.2426036,90.4 24.4940828,90.25 24.8461538,90.35 C25.2485207,91.8 25.0976331,93.3 25.2485207,94.8 C25.3994083,96.25 25.3994083,97.75 25.5,99.25 C25.2485207,99.5 24.8964497,99.45 24.5443787,99.4 C24.2928994,99.15 24.0414201,93.1 23.9408284,90.55 Z" id="Shape" fill="#D5BD9C"/>
          <path d="M19.464497,99.75 C19.2130178,99.95 18.9615385,100 18.760355,99.95 C18.5591716,98.85 18.1065089,90.55 18.2071006,89.85 C18.6094675,89.8 18.9112426,89.95 18.9615385,90.4 C19.0118343,91 19.0621302,91.6 19.112426,92.2 C19.2633136,94.6 19.4142012,96.95 19.5650888,99.35 C19.464497,99.5 19.464497,99.6 19.464497,99.75 Z" id="Shape" fill="#D4BD9C"/>
          <path d="M23.3372781,99.4 C22.9852071,99.65 22.7840237,99.65 22.5828402,99.55 C22.3313609,98.55 21.9289941,92.25 22.0295858,90.8 C22.2307692,90.55 22.4319527,90.6 22.7337278,90.7 C23.0857988,91.6 22.9349112,92.6 23.035503,93.6 C23.1360947,94.55 23.1863905,95.5 23.2366864,96.45 C23.1863905,97.4 23.1863905,98.4 23.3372781,99.4 Z" id="Shape" fill="#D0BA99"/>
          <path d="M21.2248521,99.6 C21.0739645,99.75 20.8727811,99.8 20.5710059,99.75 C20.2692308,96.75 20.2189349,93.7 19.9674556,90.7 C20.2189349,90.45 20.4201183,90.5 20.5710059,90.6 C20.9230769,91.55 21.3757396,97.85 21.2248521,99.6 Z" id="Shape" fill="#D5BE9C"/>
          <path d="M29.0710059,7.95 C28.5177515,7.9 28.1153846,7.55 28.1656805,7.05 C28.2159763,6.55 28.5680473,6.1 28.8698225,6.1 C29.3727811,6.05 29.9763314,6.55 29.9260355,7 C29.8757396,7.5 29.4733728,7.95 29.0710059,7.95 Z" id="Shape" fill="#7FC7CB"/>
          <path d="M29.5236686,10.95 C29.5236686,11.1 29.5236686,11.1 29.5236686,11.15 C29.4733728,11.5 29.4230769,11.85 29.0710059,12.05 C28.8195266,12.15 28.316568,11.85 28.1153846,11.45 C27.964497,11.2 28.0650888,10.65 28.316568,10.45 C28.5177515,10.25 28.8195266,10.2 29.1213018,10.35 C29.3727811,10.5 29.5236686,10.75 29.5236686,10.95 Z" id="Shape" fill="#80CACE"/>
          <path d="M28.7692308,15.7 C28.7692308,16.1 28.5680473,16.4 28.2662722,16.4 C27.8136095,16.45 27.3609467,16.15 27.260355,15.75 C27.2100592,15.4 27.3106509,15.05 27.612426,14.8 C27.7633136,14.7 27.9142012,14.7 28.0650888,14.75 C28.5680473,14.9 28.7692308,15.2 28.7692308,15.7 Z" id="Shape" fill="#7EC5C9"/>
          <path d="M25.6508876,6.7 C25.4497041,6.3 25.5502959,5.95 25.5502959,5.6 C25.6005917,5 25.7514793,4.35 25.852071,3.7 C26.0029586,3.8 26.1538462,3.85 26.204142,3.95 C26.3047337,4.7 26.3550296,5.45 26.1035503,6.2 C26.0532544,6.4 26.1035503,6.65 25.6508876,6.7 Z" id="Shape" fill="#6B5C4B"/>
          <path d="M10.1094675,12.85 C10.1094675,13.15 9.75739645,13.45 9.50591716,13.45 C9.00295858,13.45 8.65088757,13.05 8.70118343,12.6 C8.75147929,12.35 9.05325444,12.05 9.40532544,12.05 C9.70710059,12.05 10.1597633,12.5 10.1094675,12.85 Z" id="Shape" fill="#78B9BC"/>
          <path d="M8.60059172,9.35 C8.24852071,9.35 7.94674556,9 7.94674556,8.65 C7.94674556,8.25 8.19822485,7.9 8.55029586,7.9 C8.95266272,7.9 9.20414201,8.2 9.20414201,8.6 C9.15384615,9 8.90236686,9.35 8.60059172,9.35 Z" id="Shape" fill="#7DC1C5"/>
          <path d="M9.75739645,16.55 C10.0591716,16.5 10.3106509,16.55 10.5118343,16.65 C10.8136095,16.8 10.9142012,17.1 10.7633136,17.45 C10.6627219,17.7 10.4112426,17.8 10.2100592,17.7 C9.70710059,17.5 9.60650888,17.3 9.75739645,16.55 Z" id="Shape" fill="#7CC0C4"/>
          <path d="M22.7337278,20.6 C22.683432,20.65 22.683432,20.75 22.6331361,20.8 C22.3816568,21 22.1301775,21 21.8786982,20.85 C21.7781065,20.8 21.7278107,20.65 21.7278107,20.55 C21.7278107,20.5 21.7781065,20.4 21.8284024,20.35 C22.0798817,20.15 22.4822485,20.2 22.683432,20.35 C22.7337278,20.45 22.7337278,20.55 22.7337278,20.6 Z" id="Shape" fill="#9F8E75"/>
          <path d="M18.2071006,21.15 C18.1065089,21.15 18.056213,21.15 17.9556213,21.1 C17.9053254,21.05 17.8550296,21 17.8047337,20.95 C17.7544379,20.8 17.8047337,20.7 17.9053254,20.65 C17.9556213,20.6 18.056213,20.55 18.1065089,20.55 C18.3076923,20.5 18.5591716,20.4 18.760355,20.6 C18.8106509,20.65 18.8609467,20.75 18.8609467,20.8 C18.8106509,21.2 18.4585799,21.1 18.2071006,21.15 Z" id="Shape" fill="#CDB796"/>
          <path d="M15.8431953,21 C16.0946746,20.8 16.3964497,20.8 16.7485207,20.85 C16.7988166,20.85 16.8491124,20.95 16.8994083,21.05 C16.8994083,21.1 16.8994083,21.2 16.8491124,21.25 C16.6982249,21.45 16.4467456,21.45 16.1952663,21.4 C15.943787,21.4 15.8431953,21.25 15.8431953,21 Z" id="Shape" fill="#C8B293"/>
          <path d="M20.2189349,20.95 C20.1686391,20.95 20.0680473,20.95 20.0177515,20.9 C19.9171598,20.85 19.816568,20.75 19.8668639,20.65 C19.8668639,20.6 19.9171598,20.5 19.9674556,20.45 C20.0680473,20.4 20.1686391,20.35 20.2692308,20.35 C20.4704142,20.35 20.6715976,20.35 20.7218935,20.6 C20.7721893,20.85 20.5710059,20.9 20.3698225,20.95 C20.3195266,20.95 20.2692308,20.95 20.2189349,20.95 Z" id="Shape" fill="#BFAA8C"/>
          <path d="M14.9378698,21.3 C14.9378698,21.45 14.887574,21.6 14.6863905,21.6 C14.4852071,21.6 14.4349112,21.4 14.4349112,21.25 C14.4349112,21.1 14.4349112,20.9 14.6863905,20.9 C14.887574,21 14.9378698,21.15 14.9378698,21.3 Z" id="Shape" fill="#9D8C73"/>
          <path d="M8.09763314,121.65 C7.69526627,121.75 7.39349112,121.7 7.14201183,121.45 C5.83431953,120.3 4.87869822,118.9 3.92307692,117.45 C3.62130178,116.4 3.26923077,115.35 3.1183432,114.25 C2.96745562,113.05 2.91715976,111.9 2.91715976,110.7 C2.91715976,109.6 3.21893491,108.5 3.4704142,107.45 C3.52071006,107.2 3.72189349,106.95 3.87278107,106.75 C4.02366864,106.55 4.27514793,106.55 4.57692308,106.75 C4.57692308,107.2 4.62721893,107.7 4.52662722,108.2 C4.12426036,109.7 4.02366864,111.25 4.17455621,112.8 C4.27514793,113.75 4.57692308,114.65 4.87869822,115.55 C5.3816568,116.9 6.03550296,118.15 6.9408284,119.3 C7.29289941,119.75 7.69526627,120.2 8.09763314,120.7 C8.24852071,121 8.24852071,121.3 8.09763314,121.65 Z" id="Shape" fill="#F0DFC7"/>
          <path d="M12.0207101,68.8 C11.9704142,69.3 11.6686391,69.65 11.316568,70 C10.5621302,70.7 10.0088757,71.5 9.4556213,72.3 C9.05325444,72.9 8.65088757,73.5 8.65088757,74.25 C8.65088757,74.65 8.44970414,75 8.04733728,75.2 C7.44378698,75.5 6.99112426,75.3 6.99112426,74.6 C6.99112426,74 7.19230769,73.4 7.39349112,72.9 C8.04733728,71.35 9.05325444,70.05 10.4615385,69.05 C10.6627219,68.9 10.8136095,68.75 11.0147929,68.6 C11.4171598,68.35 11.5177515,68.35 12.0207101,68.8 Z" id="Shape" fill="#EFDFC7"/>
          <path d="M8.34911243,77.1 C8.85207101,78.25 8.70118343,79.4 9.15384615,80.45 C9.1035503,80.55 9.05325444,80.65 9.00295858,80.7 C8.34911243,81.35 8.04733728,81.3 7.64497041,80.5 C7.34319527,79.85 7.24260355,79.15 7.19230769,78.45 C7.19230769,77.65 7.49408284,77.25 8.34911243,77.1 Z" id="Shape" fill="#EFDFC7"/>
          <path d="M15.3402367,19.2 C14.9378698,18.95 14.7366864,18.55 14.7366864,18.1 C14.6863905,17.45 14.4852071,16.85 14.3343195,16.25 C14.2337278,15.9 14.2337278,15.55 14.2840237,15.2 C14.2840237,14.95 14.4852071,14.8 14.6863905,14.7 C15.3905325,15.05 15.239645,15.75 15.3905325,16.3 C15.591716,17 15.6420118,17.75 15.8934911,18.45 C15.9940828,18.8 15.8934911,18.9 15.3402367,19.2 Z" id="Shape" fill="#EFDFC6"/>
        </g>
        <g id="Group" transform="translate(36.183432, 6.500000)">
          <path d="M8.24852071,7.35 C8.60059172,7.65 8.80177515,7.95 8.65088757,8.4 C8.19822485,9.8 6.33727811,11.15 4.62721893,10.7 C3.87278107,10.5 3.26923077,10 2.86686391,9.35 C2.76627219,9.2 2.71597633,9.05 2.71597633,8.9 C2.66568047,8.65 2.66568047,8.4 2.91715976,8.25 C3.16863905,8.1 3.36982249,8.3 3.52071006,8.5 C3.67159763,8.75 3.82248521,8.95 4.02366864,9.15 C4.72781065,9.8 5.63313609,9.85 6.43786982,9.3 C6.9408284,8.95 7.39349112,8.6 7.59467456,8 C7.69526627,7.7 7.84615385,7.45 8.24852071,7.35 Z" id="Shape" fill="#060606"/>
          <path d="M6.9408284,1.75 C6.78994083,1.6 6.73964497,1.5 6.78994083,1.3 C7.24260355,0.45 8.04733728,0.25 8.90236686,0.25 C9.80769231,0.25 10.5118343,0.7 10.8639053,1.55 C10.9142012,1.65 10.8639053,1.8 10.8136095,1.9 C10.7130178,2.05 10.5118343,2.05 10.4112426,1.95 C10.260355,1.9 10.1597633,1.75 10.0088757,1.65 C9.25443787,1.05 8.5,1 7.64497041,1.45 C7.44378698,1.6 7.24260355,1.8 6.9408284,1.75 Z" id="Shape" fill="#0D0D0D"/>
          <path d="M0.402366864,4 C0.150887574,3.45 0.301775148,3.05 0.653846154,2.65 C1.40828402,1.9 2.36390533,1.65 3.42011834,1.8 C3.72189349,1.85 3.92307692,2.05 3.87278107,2.4 C3.26923077,2.7 2.56508876,2.5 1.9112426,2.8 C1.35798817,3.1 1.05621302,3.7 0.402366864,4 Z" id="Shape" fill="#0F0F0F"/>
          <path d="M3.01775148,5.65 C2.5147929,5.65 2.01183432,5.35 2.01183432,5 C2.01183432,4.6 2.46449704,4.2 2.91715976,4.2 C3.42011834,4.15 3.72189349,4.45 3.77218935,5 C3.82248521,5.4 3.57100592,5.65 3.01775148,5.65 Z" id="Shape" fill="#121212"/>
          <path d="M9.55621302,4 C9.55621302,4.45 9.00295858,4.9 8.55029586,4.85 C8.14792899,4.8 7.8964497,4.45 7.94674556,3.95 C7.94674556,3.5 8.29881657,3.2 8.85207101,3.2 C9.25443787,3.25 9.60650888,3.55 9.55621302,4 Z" id="Shape" fill="#101010"/>
        </g>
        <g id="Group" transform="translate(70.384615, 77.000000)">
          <path d="M14.2337278,1.45 C14.4852071,1.1 14.6360947,0.8 14.887574,0.5 C15.2899408,1.52933222e-14 15.9940828,0.1 16.295858,0.65 C16.4467456,0.95 16.4970414,1.25 16.647929,1.55 C16.9497041,1.6 17,1.3 17.2011834,1.25 C17.9556213,0.9 18.7100592,1.15 18.9615385,2.25 C19.112426,2.85 19.2130178,3.5 19.1627219,4.15 C19.0621302,6.35 19.0621302,8.55 18.8609467,10.75 C18.760355,12.1 18.3579882,13.35 18.0059172,14.6 C17.8550296,15.05 17.8047337,15.5 17.7544379,16 C17.704142,18.8 17.704142,21.6 17.6538462,24.4 C17.6538462,26.1 17.6035503,27.85 17.6035503,29.55 C17.6035503,30.65 17.2011834,31.35 16.2455621,31.9 C15.591716,32.3 14.9378698,32.65 14.2337278,33 C12.2218935,34 10.1597633,34.85 8.04733728,35.7 C7.84615385,35.8 7.59467456,35.85 7.39349112,36 C6.18639053,36.75 4.77810651,37.05 3.42011834,37.3 C2.56508876,37.45 1.65976331,37.4 0.855029586,36.95 C0.402366864,36.7 0.150887574,36.35 0.100591716,35.8 C-0.050295858,34.3 0.201183432,33.7 1.40828402,32.85 C1.9112426,32.5 2.41420118,32.2 2.96745562,31.95 C5.28106509,31.15 7.49408284,30.05 9.70710059,29.1 C10.4615385,28.75 11.2662722,28.5 11.9704142,28.05 C12.2218935,27.15 13.3284024,16.1 13.3786982,14.65 C12.4230769,14.25 11.8698225,13.45 11.5680473,12.45 C11.3668639,11.9 11.0147929,11.6 10.5118343,11.35 C10.0088757,11.1 9.50591716,10.8 9.20414201,10.35 C9.00295858,10.1 8.85207101,9.8 8.90236686,9.45 C9.00295858,8.65 9.40532544,8.25 10.260355,8.2 C10.7130178,8.15 11.1153846,8.3 11.5177515,8.5 C11.8195266,8.65 12.0710059,8.8 12.3224852,9 C12.6242604,8.85 12.5739645,8.6 12.5236686,8.4 C12.4733728,7.7 12.3727811,6.95 12.2721893,6.25 C12.1213018,5.2 12.1715976,4.2 12.2218935,3.15 C12.2218935,2.9 12.3224852,2.7 12.3727811,2.45 C12.6745562,1.35 13.0769231,1.15 14.2337278,1.45 Z M10.0088757,9.4 C9.95857988,9.6 9.95857988,9.75 10.1094675,9.85 C10.4112426,10.1 10.7633136,10.35 11.1153846,10.5 C11.8698225,10.9 12.3727811,11.45 12.6242604,12.25 C12.8254438,12.9 13.1775148,13.4 13.8313609,13.65 C14.0325444,13.75 14.2840237,13.85 14.3846154,14.25 C14.2337278,16.15 14.1331361,18.25 13.9319527,20.3 C13.8313609,21.85 13.6301775,23.4 13.5295858,24.95 C13.4289941,26.05 13.3284024,27.15 13.1272189,28.25 C13.0769231,28.6 12.9260355,28.85 12.6242604,29 C12.3727811,29.15 12.1715976,29.3 11.8698225,29.4 C9.20414201,30.5 6.53846154,31.6 3.87278107,32.7 C3.21893491,32.95 2.61538462,33.25 2.01183432,33.6 C1.30769231,34 1.05621302,34.55 1.30769231,35.3 C1.65976331,35.75 2.16272189,35.85 2.66568047,35.9 C3.52071006,35.95 4.32544379,35.75 5.13017751,35.45 C8.39940828,34.15 11.6686391,32.75 14.8372781,31.2 C15.0887574,31.1 15.3402367,30.95 15.591716,30.8 C16.0946746,30.45 16.295858,30.05 16.3461538,29.4 C16.3461538,27.35 16.4467456,25.35 16.4970414,23.3 C16.5473373,20.95 16.6982249,18.6 16.7485207,16.25 C16.7485207,15.2 16.6982249,14.2 17.2011834,13.2 C17.4023669,12.85 17.4023669,12.45 17.5029586,12.05 C17.8047337,10.55 17.9556213,9.05 18.0059172,7.55 C18.0059172,6.4 18.056213,5.25 18.1568047,4.1 C18.2071006,3.6 18.2071006,3.05 18.056213,2.55 C18.0059172,2.35 17.9053254,2.2 17.6538462,2.25 C17.4526627,2.45 17.4023669,2.65 17.4023669,2.9 C17.352071,3.9 17.1005917,4.85 17.1005917,5.9 C17.1005917,6.4 17.0502959,6.85 17,7.35 C16.9497041,7.55 16.8491124,7.75 16.7485207,7.9 C16.647929,8 16.4970414,8.1 16.295858,8.05 C16.1449704,8 15.9940828,7.9 15.943787,7.75 C15.8934911,7.4 15.8934911,7.05 15.8934911,6.7 C15.8934911,5.35 15.8431953,4 15.8431953,2.65 C15.8431953,2.35 15.7928994,2.1 15.7426036,1.8 C15.7426036,1.7 15.591716,1.6 15.4911243,1.55 C15.2899408,1.5 15.1893491,1.65 15.1390533,1.8 C15.0887574,2.5 15.0887574,3.25 15.0384615,3.95 C15.0384615,5.15 15.0384615,6.35 14.9881657,7.55 C14.9881657,7.75 14.887574,7.95 14.6863905,8 C14.4349112,8.05 14.2337278,7.9 14.1331361,7.6 C14.0828402,7.35 14.0325444,7.05 14.0325444,6.75 C13.9822485,5.7 13.9319527,4.7 13.8816568,3.65 C13.8816568,3.25 13.9319527,2.85 13.5295858,2.55 C13.3284024,2.6 13.1775148,2.75 13.1775148,3 C13.1272189,3.4 13.1272189,3.8 13.1272189,4.2 C13.2278107,5.95 13.3284024,7.7 13.4289941,9.45 C13.4289941,9.55 13.5295858,9.65 13.5295858,9.65 C14.3846154,10.25 15.3402367,9.55 16.1449704,9.9 C16.2455621,10.3 16.0443787,10.5 15.7928994,10.65 C15.4408284,10.85 15.0384615,10.95 14.6360947,10.9 C13.8816568,10.85 13.1272189,10.65 12.4733728,10.2 C12.1715976,9.95 11.8195266,9.75 11.4674556,9.55 C11.0147929,9.3 10.5118343,9.2 10.0088757,9.4 Z" id="Shape" fill="#010101"/>
          <path d="M10.0088757,9.4 C10.5118343,9.2 11.0147929,9.3 11.4674556,9.55 C11.8195266,9.75 12.1715976,9.95 12.4733728,10.2 C13.1272189,10.65 13.8313609,10.85 14.6360947,10.9 C15.0384615,10.95 15.4408284,10.8 15.7928994,10.65 C16.0443787,10.5 16.2455621,10.3 16.1449704,9.9 C15.3402367,9.55 14.4349112,10.25 13.5295858,9.65 C13.5295858,9.65 13.4289941,9.55 13.4289941,9.45 C13.3284024,7.7 13.2278107,5.95 13.1272189,4.2 C13.1272189,3.8 13.1272189,3.4 13.1775148,3 C13.1775148,2.8 13.2781065,2.65 13.5295858,2.55 C13.9319527,2.8 13.8816568,3.25 13.8816568,3.65 C13.9319527,4.7 13.9822485,5.7 14.0325444,6.75 C14.0325444,7.05 14.0828402,7.3 14.1331361,7.6 C14.183432,7.85 14.3846154,8 14.6863905,8 C14.9378698,7.95 14.9881657,7.75 14.9881657,7.55 C14.9881657,6.35 14.9881657,5.15 15.0384615,3.95 C15.0384615,3.25 15.0887574,2.5 15.1390533,1.8 C15.1390533,1.65 15.2899408,1.5 15.4911243,1.55 C15.591716,1.55 15.7426036,1.7 15.7426036,1.8 C15.7928994,2.05 15.8431953,2.35 15.8431953,2.65 C15.8934911,4 15.8934911,5.35 15.8934911,6.7 C15.8934911,7.05 15.8934911,7.4 15.943787,7.75 C15.943787,7.9 16.1449704,8 16.295858,8.05 C16.4467456,8.1 16.647929,8 16.7485207,7.9 C16.8491124,7.75 17,7.55 17,7.35 C17.0502959,6.9 17.1005917,6.4 17.1005917,5.9 C17.1005917,4.9 17.3017751,3.9 17.4023669,2.9 C17.4023669,2.65 17.5029586,2.45 17.6538462,2.25 C17.9053254,2.2 18.0059172,2.35 18.056213,2.55 C18.2071006,3.05 18.2071006,3.6 18.1568047,4.1 C18.056213,5.25 18.0059172,6.4 18.0059172,7.55 C17.9556213,9.05 17.8550296,10.6 17.5029586,12.05 C17.4023669,12.45 17.4023669,12.85 17.2011834,13.2 C16.6982249,14.15 16.7485207,15.2 16.7485207,16.25 C16.6982249,18.6 16.5976331,20.95 16.4970414,23.3 C16.4467456,25.35 16.3461538,27.35 16.3461538,29.4 C16.3461538,30.05 16.0946746,30.45 15.591716,30.8 C15.3402367,30.95 15.0887574,31.1 14.8372781,31.2 C11.6686391,32.75 8.44970414,34.15 5.13017751,35.45 C4.32544379,35.75 3.52071006,35.95 2.66568047,35.9 C2.11242604,35.9 1.65976331,35.75 1.30769231,35.3 C1.05621302,34.55 1.35798817,34 2.01183432,33.6 C2.61538462,33.25 3.21893491,32.95 3.87278107,32.7 C6.53846154,31.6 9.20414201,30.5 11.8698225,29.4 C12.1213018,29.3 12.3727811,29.15 12.6242604,29 C12.9260355,28.85 13.0769231,28.55 13.1272189,28.25 C13.3284024,27.15 13.4289941,26.05 13.5295858,24.95 C13.6804734,23.4 13.8313609,21.85 13.9319527,20.3 C14.0828402,18.25 14.2337278,16.15 14.3846154,14.25 C14.2337278,13.85 14.0325444,13.7 13.8313609,13.65 C13.1775148,13.4 12.8254438,12.9 12.6242604,12.25 C12.3727811,11.45 11.8698225,10.85 11.1153846,10.5 C10.7633136,10.3 10.4615385,10.05 10.1094675,9.85 C9.95857988,9.75 9.95857988,9.6 10.0088757,9.4 Z" id="Shape" fill="#EBDCC5"/>
        </g>
      </g>
    </g>
  </g>
</svg>