<svg width="74px" height="146px" viewBox="0 0 74 146" version="1.1" xml:space="preserve" xmlns="http://www.w3.org/2000/svg" xmlns:xlink="http://www.w3.org/1999/xlink">
  <defs/>
  <g>
    <title>trumpet-c</title>
    <desc>Created with Sketch.</desc>
    <g id="music" stroke="none" stroke-width="1" fill="none" fill-rule="evenodd">
      <g id="trumpet-c" fill-rule="nonzero">
        <g id="Group" transform="translate(38.000000, 95.000000)">
          <path d="M16.75,49.7 C16.25,49.75 15.8,49.6 15.4,49.4 C14.8,49.1 14.6,48.5 14.8,47.9 C14.95,47.55 15.1,47.25 15.4,47.05 C15.65,46.9 15.85,46.7 16.1,46.55 C17.15,45.95 17.75,44.95 18.3,43.9 C18.5,43.5 18.5,43.1 18.25,42.65 C17.65,41.65 17.05,40.55 16.45,39.55 C14.95,36.95 13.55,34.35 12.15,31.65 C10.95,29.3 9.7,27 8.55,24.6 C8.25,24 8,23.35 7.75,22.7 C6.8,20.1 5.55,17.65 4.4,15.15 C3.75,13.75 3.1,12.4 2.6,11 C2.2,9.85 1.65,8.7 1.2,7.55 C0.95,6.95 0.7,6.3 0.5,5.65 C0.45,5.5 0.4,5.3 0.45,5.2 C0.75,4.2 0.7,3.15 1.1,2.2 C1.6,1 2.55,0.4 3.7,0.1 C4.5,-0.1 5.25,0.2 5.85,0.85 C6.35,1.4 6.65,2.1 6.8,2.75 C7.05,3.9 7.55,5 7.9,6.15 C8.8,8.9 9.65,11.6 10.55,14.35 C11,15.75 11.45,17.15 12,18.5 C12.35,19.35 12.6,20.25 12.85,21.1 C13.35,22.85 14.15,24.45 14.95,26.05 C17.15,30.5 19.35,34.95 21.55,39.35 C21.85,39.95 22.25,40.5 22.6,41.1 C23.2,42.15 23.8,43.15 24.4,44.2 C24.9,45.1 24.8,45.45 24.1,46.2 C23.55,46.75 22.95,47.15 22.25,47.5 C20.9,48.25 19.55,49.05 18,49.35 C17.55,49.65 17.1,49.75 16.75,49.7 Z M16.1,48.25 C16.45,48.6 16.8,48.5 17.15,48.45 C18.95,48.1 20.55,47.25 22.05,46.3 C23.3,45.5 23.55,45.15 22.6,43.7 C22.1,42.95 21.65,42.2 21.25,41.45 C20.1,39.2 18.9,37 17.8,34.75 C16.6,32.3 15.45,29.85 14.2,27.45 C13.1,25.3 12.05,23.15 11.4,20.85 C10.45,17.6 9.15,14.45 8.2,11.2 C7.4,8.45 6.45,5.75 5.6,3 C5.5,2.6 5.3,2.25 5.1,1.95 C4.8,1.55 4.4,1.35 3.85,1.45 C3.4,1.55 3,1.7 2.75,2.05 C2.3,2.6 1.95,3.25 2,4 C2.05,4.85 1.85,5.65 2.15,6.5 C2.8,8.05 3.45,9.6 4.1,11.15 C4.75,12.65 5.45,14.15 6.1,15.6 C6.45,16.4 6.85,17.2 7.2,18 C7.7,19.2 8.15,20.45 8.6,21.7 C8.95,22.65 9.5,23.5 9.9,24.35 C10.5,25.6 11.05,26.9 11.75,28.1 C12.4,29.2 12.95,30.35 13.55,31.5 C14.5,33.25 15.4,35 16.4,36.75 C17.4,38.6 18.45,40.45 19.5,42.3 C19.7,42.7 19.9,43.1 19.75,43.55 C19.15,45.25 18.4,46.8 16.75,47.75 C16.5,47.8 16.25,47.95 16.1,48.25 Z" id="Shape" fill="#010101"/>
          <path d="M16.1,48.25 C16.25,47.95 16.45,47.8 16.65,47.7 C18.25,46.75 19.05,45.2 19.65,43.5 C19.8,43.05 19.6,42.65 19.4,42.25 C18.35,40.4 17.3,38.55 16.3,36.7 C15.35,34.95 14.4,33.2 13.45,31.45 C12.85,30.3 12.3,29.2 11.65,28.05 C10.95,26.85 10.4,25.55 9.8,24.3 C9.35,23.4 8.8,22.6 8.5,21.65 C8.05,20.4 7.6,19.2 7.1,17.95 C6.75,17.15 6.4,16.35 6,15.55 C5.35,14.05 4.65,12.6 4,11.1 C3.35,9.55 2.7,8 2.05,6.45 C1.7,5.65 1.9,4.8 1.9,3.95 C1.85,3.2 2.2,2.55 2.65,2 C2.95,1.65 3.3,1.45 3.75,1.4 C4.3,1.3 4.7,1.5 5,1.9 C5.25,2.2 5.4,2.6 5.5,2.95 C6.35,5.7 7.3,8.4 8.1,11.15 C9.05,14.4 10.35,17.55 11.3,20.8 C11.95,23.1 13,25.25 14.1,27.4 C15.35,29.8 16.5,32.25 17.7,34.7 C18.85,36.95 20,39.2 21.15,41.4 C21.55,42.2 22,42.95 22.5,43.65 C23.45,45.05 23.2,45.4 21.95,46.25 C20.45,47.25 18.85,48.05 17.05,48.4 C16.8,48.5 16.45,48.6 16.1,48.25 Z" id="Shape" fill="#FFC941"/>
        </g>
        <g id="Group" transform="translate(16.500000, 94.000000)">
          <path d="M6.25,48 C4.85,47.9 3.45,47.8 2.1,47.65 C1.6,47.6 1.15,47.45 0.75,47.2 C0.1,46.85 1.69309011e-15,46.15 0.5,45.6 C1,45.1 1.6,44.8 2.25,44.55 C3.1,44.2 3.9,43.75 4.6,43.15 C5.1,42.7 5.4,42.2 5.45,41.5 C5.5,40.2 5.6,38.85 5.65,37.55 C5.75,35.1 5.8,32.6 6.05,30.15 C6.3,27.45 6.65,24.75 6.95,22.05 C7.1,20.4 7.55,18.85 8.3,17.35 C9.05,15.85 9.6,14.25 10.3,12.75 C11.65,9.7 13.15,6.65 14.7,3.7 C15.15,2.8 15.8,2.15 16.5,1.5 C16.85,1.2 17.2,0.85 17.6,0.6 C18.9,-0.15 20.5,0.7 20.9,2.05 C21.2,3.15 21.05,4.2 20.7,5.2 C20.25,6.5 19.5,7.75 18.85,8.95 C18.05,10.4 17.2,11.85 16.25,13.25 C14.75,15.55 13.6,18 12.4,20.4 C12.3,20.65 12.2,20.9 12.15,21.2 C11.8,22.7 11.45,24.25 11.3,25.8 C10.9,29.65 10.5,33.5 10.1,37.35 C9.95,38.8 9.85,40.2 9.8,41.65 C9.75,43.15 9.65,44.6 9.5,46.05 C9.45,46.4 9.35,46.65 9.25,46.95 C9.05,47.5 8.65,47.8 8.05,47.8 C7.45,47.8 6.85,47.8 6.25,47.8 C6.25,47.95 6.25,48 6.25,48 Z M8.05,46.7 C8.15,46.25 8.3,45.95 8.35,45.6 C8.5,43.85 8.7,42.1 8.8,40.35 C8.95,37.65 9.2,34.95 9.5,32.25 C9.8,29.5 10,26.75 10.3,24.05 C10.4,22.9 10.6,21.75 11.05,20.7 C11.9,18.85 12.9,17.05 13.8,15.25 C15.15,12.65 16.9,10.35 18.15,7.7 C18.2,7.6 18.3,7.5 18.35,7.4 C19.05,6.25 19.45,4.95 19.8,3.65 C20,2.95 19.7,2.4 19.25,1.9 C19,1.6 18.7,1.55 18.4,1.7 C17.9,2 17.35,2.25 16.95,2.7 C16.3,3.4 15.75,4.2 15.3,5.05 C14.7,6.15 14.25,7.3 13.7,8.4 C12.55,10.7 11.5,13.1 10.45,15.45 C10,16.45 9.6,17.4 9.15,18.4 C8.75,19.3 8.45,20.15 8.3,21.15 C8.1,22.4 8,23.7 7.85,24.95 C7.65,27.05 7.35,29.15 7.2,31.25 C7,33.9 7,36.6 6.85,39.25 C6.8,40.15 6.75,41.1 6.65,42 C6.5,43.5 5.75,44.5 4.4,45.15 C3.7,45.45 3.05,45.8 2.35,46.1 C2.2,46.15 2.05,46.25 2.1,46.5 C3.95,46.55 5.9,46.85 8.05,46.7 Z" id="Shape" fill="#010101"/>
          <path d="M8.05,46.7 C5.95,46.85 4,46.55 2.05,46.4 C2,46.1 2.15,46.05 2.3,46 C3,45.65 3.65,45.35 4.35,45.05 C5.7,44.45 6.5,43.4 6.6,41.9 C6.7,41 6.75,40.05 6.8,39.15 C6.9,36.5 6.95,33.8 7.15,31.15 C7.3,29.05 7.6,26.95 7.8,24.85 C7.95,23.6 8.05,22.3 8.25,21.05 C8.4,20.1 8.7,19.2 9.1,18.3 C9.55,17.3 10,16.35 10.4,15.35 C11.45,13 12.45,10.6 13.65,8.3 C14.2,7.2 14.65,6.05 15.25,4.95 C15.7,4.1 16.25,3.35 16.9,2.6 C17.3,2.15 17.85,1.85 18.35,1.6 C18.65,1.4 18.95,1.5 19.2,1.8 C19.65,2.3 19.9,2.85 19.75,3.55 C19.4,4.85 19.05,6.15 18.3,7.3 C18.25,7.4 18.15,7.5 18.1,7.6 C16.85,10.25 15.05,12.55 13.75,15.15 C12.8,16.95 11.85,18.75 11,20.6 C10.5,21.65 10.35,22.8 10.25,23.95 C9.95,26.7 9.75,29.45 9.45,32.15 C9.15,34.85 8.9,37.55 8.75,40.25 C8.65,42 8.45,43.75 8.3,45.5 C8.25,45.95 8.15,46.25 8.05,46.7 Z" id="Shape" fill="#FFC941"/>
        </g>
        <g id="Group" transform="translate(2.000000, 38.000000)">
          <path d="M1.45,2.25 C1.5,2.05 1.5,1.8 1.55,1.55 C1.7,0.95 1.9,0.75 2.55,0.8 C2.7,0.8 2.85,0.85 3,0.9 C3.2,0.85 3.25,0.65 3.35,0.55 C3.85,-0.05 4.6,-0.05 5.05,0.55 C5.4,1.1 5.65,1.7 5.8,2.3 C6.1,3.55 6.6,4.7 6.85,6.05 C7.3,5.9 7.4,5.55 7.6,5.3 C8,4.85 8.45,4.6 9.05,4.55 C10.1,4.5 10.8,5.4 10.2,6.25 C9.45,7.3 9.1,8.45 8.85,9.65 C8.85,9.7 8.85,9.75 8.8,9.75 C8.1,10.8 8.35,12 8.55,13.1 C8.95,15.1 9.4,17.1 9.85,19.05 C10.05,19.95 10.3,20.85 10.5,21.7 C10.6,22.05 10.7,22.4 10.85,22.7 C11.05,23.3 11.45,23.65 12.1,23.85 C12.95,24.15 13.75,24.6 14.6,25 C16,25.6 17.35,26.25 18.75,26.8 C19.95,27.3 21.2,27.7 22.45,28.1 C23.8,28.55 25.1,29.2 26.4,29.8 C27.15,30.15 27.6,31.35 27.3,32.05 C27.1,32.5 26.75,32.8 26.3,33.05 C25.75,33.3 25.2,33.45 24.55,33.4 C23.85,33.35 23.2,33.2 22.6,32.9 C22.1,32.65 21.6,32.45 21.05,32.3 C18.55,31.55 16.3,30.3 13.95,29.2 C12.5,28.5 11,27.8 9.5,27.15 C8.35,26.7 7.8,25.85 7.4,24.75 C6.1,21.35 5.35,17.8 4.55,14.25 C4.2,12.75 3.85,11.3 3,10 C2.6,9.35 2.3,8.65 2.05,7.95 C1.8,7.3 1.5,6.6 1.2,5.95 C0.9,5.3 0.65,4.6 0.55,3.9 C0.3,3.05 0.5,2.75 1.45,2.25 Z M5.05,6.55 C4.75,6.5 4.6,6.3 4.5,6 C4,4.8 3.5,3.65 3,2.45 C2.9,2.25 2.85,1.95 2.45,2.1 C2.25,2.7 2.6,3.25 2.8,3.8 C3,4.3 3.25,4.85 3.45,5.35 C3.65,5.9 4.05,6.4 4.05,7 C3.6,7.2 3.35,7.05 3.2,6.7 C2.85,6 2.5,5.25 2.15,4.55 C1.95,4.2 1.9,3.8 1.5,3.55 C1.35,4.2 1.65,4.75 1.85,5.25 C2.45,6.6 2.9,8 3.7,9.25 C4.05,9.85 4.35,10.45 4.7,11 C4.9,11.35 5.1,11.7 5.2,12.1 C5.45,13.1 5.75,14.1 5.95,15.1 C6.55,18.2 7.3,21.25 8.35,24.2 C8.45,24.5 8.55,24.8 8.65,25.1 C8.85,25.55 9.15,25.85 9.55,26.05 C9.9,26.25 10.25,26.4 10.65,26.55 C12.95,27.45 15.2,28.55 17.4,29.6 C19.45,30.6 21.6,31.35 23.75,32.05 C24.45,32.25 25.1,32.25 25.75,32 C26.05,31.9 26.3,31.7 26.3,31.3 C26.05,30.9 25.6,30.65 25.15,30.5 C23.5,29.85 21.9,29.2 20.25,28.55 C17.6,27.55 15,26.4 12.45,25.15 C11.65,24.75 10.75,24.5 10.2,23.8 C9.6,23.05 9.4,22.05 9.2,21.15 C8.55,17.95 7.7,14.8 7.2,11.55 C7.15,11.15 7.05,10.7 7.3,10.4 C7.65,9.95 7.75,9.4 7.9,8.85 C8.2,7.8 8.5,6.8 9.2,5.9 C9.25,5.8 9.25,5.7 9.3,5.55 C8.95,5.3 8.65,5.45 8.45,5.65 C8.1,6 7.85,6.35 7.65,6.8 C7.2,7.85 6.3,8.35 5.25,8.5 C5.05,8.55 4.85,8.4 4.8,8.15 C5.1,7.6 5.8,7.6 6.2,7.1 C5.8,4.8 5,2.15 4.45,1.3 C4.4,1.2 4.25,1.2 4.15,1.15 C3.95,1.5 4.1,1.8 4.2,2.1 C4.5,3.15 4.85,4.25 5.15,5.3 C5.15,5.85 5.35,6.2 5.05,6.55 Z" id="Shape" fill="#010101"/>
          <path d="M5.05,6.55 C5.3,6.2 5.15,5.85 5.05,5.5 C4.7,4.45 4.4,3.35 4.1,2.3 C4,2 3.85,1.7 4.05,1.35 C4.15,1.4 4.3,1.45 4.35,1.5 C4.9,2.35 5.7,5.05 6.1,7.3 C5.75,7.75 5,7.75 4.7,8.35 C4.75,8.6 4.9,8.7 5.15,8.7 C6.25,8.55 7.1,8.05 7.55,7 C7.75,6.55 8.05,6.15 8.35,5.85 C8.6,5.6 8.85,5.5 9.2,5.75 C9.15,5.85 9.2,6 9.1,6.1 C8.4,6.95 8.1,8 7.8,9.05 C7.65,9.6 7.6,10.15 7.2,10.6 C6.95,10.9 7.05,11.35 7.1,11.75 C7.55,15 8.4,18.15 9.1,21.35 C9.3,22.3 9.55,23.25 10.1,24 C10.65,24.7 11.55,24.95 12.35,25.35 C14.9,26.6 17.5,27.75 20.15,28.75 C21.8,29.35 23.4,30.05 25.05,30.7 C25.5,30.9 25.9,31.1 26.2,31.5 C26.2,31.9 26,32.1 25.65,32.2 C25,32.45 24.35,32.45 23.65,32.25 C21.45,31.6 19.35,30.8 17.3,29.8 C15.05,28.75 12.85,27.65 10.55,26.75 C10.2,26.6 9.8,26.45 9.45,26.25 C9.05,26.05 8.75,25.75 8.55,25.3 C8.45,25 8.35,24.7 8.25,24.4 C7.15,21.45 6.45,18.35 5.85,15.3 C5.65,14.3 5.35,13.3 5.1,12.3 C5,11.9 4.8,11.55 4.6,11.2 C4.25,10.6 3.95,10 3.6,9.45 C2.85,8.15 2.35,6.8 1.75,5.45 C1.5,4.9 1.25,4.4 1.4,3.75 C1.85,4 1.9,4.4 2.05,4.75 C2.4,5.45 2.75,6.2 3.1,6.9 C3.25,7.2 3.5,7.4 3.95,7.2 C3.95,6.6 3.55,6.1 3.35,5.55 C3.15,5.05 2.9,4.5 2.7,4 C2.5,3.45 2.15,2.95 2.35,2.3 C2.75,2.15 2.8,2.45 2.9,2.65 C3.4,3.8 3.9,5 4.4,6.2 C4.6,6.3 4.75,6.5 5.05,6.55 Z" id="Shape" fill="#FEC841"/>
        </g>
        <g id="Group" transform="translate(6.500000, 14.000000)">
          <path d="M16.85,70 C16,69.75 15.35,69.3 15,68.45 C14.6,67.45 14.6,66.5 15,65.55 C15.15,65.2 15.35,64.85 15.8,64.7 C16.3,64.55 16.85,64.7 17.2,65.15 C17.35,65.35 17.5,65.6 17.65,65.85 C17.75,66.05 17.85,66.25 17.95,66.45 C18.2,66.6 18.35,66.45 18.6,66.35 C18.6,65.35 18.5,64.35 18.75,63.35 C18.4,62.75 18.05,62.15 17.85,61.5 C17.75,61.2 17.5,61.1 17.2,61.2 C16.95,61.35 17,61.65 17,61.85 C17,62.35 16.85,62.8 16.55,63.2 C16.1,63.9 15.35,64.05 14.7,63.6 C13.45,62.75 12.9,60.35 13.65,59 C14.2,58 15.6,58 16.2,59.05 C16.4,59.4 16.5,59.8 16.65,60.1 C16.95,60.2 17.15,60.2 17.45,59.95 C17.55,59.35 17.4,58.7 17.65,58.05 C17.85,57.55 18.05,57.2 18.55,57.05 C18.9,56.95 19.2,56.85 19.55,56.75 C19.55,56.6 19.6,56.5 19.6,56.45 C19.1,54.7 18.95,52.9 18.55,51.15 C18.1,49.15 17.75,47.15 17.4,45.15 C17.05,43.2 16.7,41.2 16.3,39.25 C16.15,38.6 16,37.95 15.85,37.25 C15.4,35.25 14.95,33.2 14.45,31.2 C13.75,28.5 12.9,25.85 11.6,23.35 C10.2,20.75 8.65,18.2 6.9,15.85 C5.2,13.6 3.25,11.6 1,9.9 C0.85,9.8 0.7,9.65 0.55,9.5 C0.05,8.9 0.05,8.35 0.55,7.75 C0.9,7.3 1.35,6.95 1.8,6.65 C3.15,5.8 4.65,5.2 6.15,4.65 C9.45,3.45 12.8,2.4 16.25,1.65 C17.8,1.3 19.4,1.05 20.95,0.9 C23.6,0.6 26.25,0.35 28.95,0.35 C30.25,0.35 31.6,0.45 32.9,0.6 C33.45,0.7 34,0.8 34.5,1.05 C35.25,1.45 35.4,1.8 35.25,2.7 C35.15,3.55 34.65,4.2 34.3,4.9 C32.3,8.9 30.75,13.1 29.8,17.5 C29.25,20 28.75,22.5 28.5,25.05 C28.4,25.85 28.35,26.65 28.4,27.45 C28.45,28.1 28.2,28.7 28.35,29.35 C28.6,29.5 28.75,29.35 28.9,29.2 C29.35,28.9 29.8,28.55 30.3,28.25 C32.95,26.6 35.55,27 38.1,28.4 C38.75,28.75 39.3,29.35 39.75,29.95 C41.05,31.65 42.05,33.5 42.65,35.55 C42.75,35.9 42.85,36.25 43,36.65 C44.3,37.15 45,38.25 45.55,39.5 C45.95,40.35 46.35,41.25 46.55,42.2 C47,44.45 47.45,46.75 47.9,49 C48,49.5 47.8,50.05 48.1,50.5 C48.35,50.75 48.65,50.55 48.95,50.65 C49,50.7 49.1,50.7 49.15,50.8 C50,51.9 50.5,53.15 50.6,54.55 C50.65,55.1 50.8,55.65 50.65,56.2 C50.55,56.5 50.7,56.75 50.9,56.95 C51.9,58.2 52.15,59.7 52.25,61.2 C51.9,62.3 52.35,63.3 52.8,64.3 C53.25,65.25 53.3,66.3 53.25,67.35 C53.25,67.85 53.15,68.3 52.8,68.75 C52.2,68.6 51.6,68.8 50.95,69 C51.25,70.95 51.55,72.9 51.65,74.8 C51.75,76 51.75,77.2 51.25,78.3 C50.7,79.55 49.95,80.55 48.6,81.05 C46.7,84.9 43.9,87.6 39.35,87.9 C39.7,90.1 40.45,92.2 40.85,94.35 C42.05,95.1 42.2,95.5 41.55,96.9 C42.15,97.85 42.9,98.8 43.25,100.05 C43,100.85 42.3,101.3 41.55,101.55 C40.2,102.05 38.8,102.4 37.35,102.25 C36.25,102.15 35.9,101.75 35.9,100.6 C35.9,99.8 36.1,99 36.3,98.2 C36.15,98.05 36,97.9 35.9,97.75 C35.5,97.3 35.35,96.75 35.65,96.2 C35.95,95.7 35.85,95.3 35.75,94.8 C35.25,92.55 34.75,90.3 34.25,88.05 C34.25,88 34.2,87.9 34.1,87.8 C33.85,87.75 33.6,87.65 33.35,87.55 C31.75,87.1 30.45,86.2 29.4,85 C28.65,84.15 27.95,83.3 27.3,82.4 C26.4,81.05 25.75,79.6 25.2,78.1 C24.85,77.15 24.5,76.15 24.1,75.2 C23.9,75.2 23.8,75.15 23.7,75.15 C22.65,75.5 21.9,75 21.3,74.2 C21.05,73.85 20.8,73.5 20.55,73.1 C20.2,72.95 19.8,73.1 19.45,73.2 C19.2,73.55 19.35,73.85 19.3,74.15 C19.25,74.5 19.2,74.85 18.95,75.15 C18.6,75.6 18.1,75.75 17.6,75.6 C16.6,75.25 16.15,74.45 16,73.55 C15.8,72.3 15.95,71.15 17,70.3 C18,70.15 18.2,70.25 18.65,71 C18.85,71.35 19,71.75 19.2,72.15 C19.6,72.15 19.95,72.05 20.25,71.8 C20,70.9 20.05,70 20.4,69.1 C20.15,68.8 19.9,68.55 19.7,68.25 C19.45,67.95 19.35,67.55 19,67.35 C18.75,67.35 18.5,67.45 18.35,67.6 C17.95,69.45 17.95,69.45 16.85,70 Z M48.05,67.05 C48.05,67.4 47.85,67.8 48.25,68.05 C48.35,68.2 48.5,68.25 48.65,68.25 C49.1,68.15 49.6,68 50.05,67.9 C50.5,67.8 51,67.7 51.45,67.6 C51.7,67.55 51.85,67.35 51.9,67.1 C52.05,65.7 51.9,64.35 51.05,63.1 C49.9,63.35 48.75,63.6 47.6,63.85 C47.7,64.95 48.05,66 48.05,67.05 Z M39.2,50.75 C39.15,51.2 39.15,51.6 39.35,52 C39.45,52.15 39.55,52.25 39.8,52.05 C39.75,51.8 39.7,51.5 39.65,51.2 C39.8,50.85 40.05,50.9 40.35,51.1 C40.35,50.9 40.4,50.75 40.4,50.6 C40.2,49.75 40,48.9 39.8,48.05 C39.55,46.95 39.25,45.9 39.1,44.8 C38.75,42.8 38.3,40.85 37.9,38.85 C37.35,39.4 37.25,39.65 37.05,40.4 C36.7,41.8 36.7,43.25 36.9,44.7 C37.1,46.35 37.35,48 37.65,49.65 C37.8,50.6 38,51.5 38.2,52.4 C38.65,52.2 38.65,52.2 38.65,52.1 C38.55,51.55 38.45,51 38.5,50.45 C38.5,50.25 38.6,50.05 38.85,50.05 C39,50.05 39.15,50.15 39.2,50.35 C39.15,50.45 39.15,50.6 39.2,50.75 Z M37,65.9 C36.3,65.85 35.6,66.1 34.85,66.15 C35.1,67.5 35.35,68.8 35.6,70.1 C35.65,70.35 35.75,70.55 36.05,70.65 C38.45,70 40.9,69.6 43.4,69.25 C43.25,67.7 43.05,66.2 42.7,64.8 C42.45,64.65 42.25,64.7 42.05,64.75 C40.4,65 38.8,65.4 37.15,65.8 C37.1,65.75 37.05,65.85 37,65.9 Z M5.65,6.4 C5.95,6.45 6.4,6.2 6.55,6.75 C6.25,7.25 5.7,7.25 5.25,7.5 C4.75,7.75 4.25,8 3.75,8.25 C3.3,8.5 2.85,8.65 2.4,9.1 C2.8,9.3 3.1,9.3 3.4,9.15 C3.7,9 4.05,8.8 4.35,8.65 C5.05,8.3 5.75,7.95 6.55,7.7 C6.85,7.6 7.1,7.6 7.25,7.95 C6.6,8.6 5.65,8.8 4.95,9.35 C5.2,9.6 5.45,9.5 5.75,9.4 C6.15,9.25 6.55,9.05 7,8.95 C7.45,8.85 7.6,9 7.75,9.6 C8.15,9.6 8.55,9.6 8.95,9.6 C12.85,9.35 16.7,8.7 20.5,7.9 C21.95,7.6 23.35,7.2 24.8,6.85 C25.9,6.55 26.95,6.3 28,5.85 C28.3,5.9 28.55,5.85 28.6,5.4 C28.3,5.4 28.05,5.35 27.8,5.35 C27.65,5.25 27.7,5.15 27.75,5.05 C27.85,4.85 28.1,4.85 28.3,4.8 C28.8,4.8 29.35,4.8 29.85,4.85 C30.3,4.9 30.7,4.85 31,4.45 C30.1,4.1 29,4.7 28.15,4.05 C28.2,3.8 28.3,3.7 28.45,3.65 C28.75,3.6 29.1,3.55 29.4,3.5 C30.3,3.45 31.25,3.45 32.15,3.7 C32.5,3.8 32.8,3.7 33,3.3 C32.3,3 31.55,2.95 30.85,2.95 C30.3,2.95 29.75,2.95 29.15,2.9 C28.9,2.9 28.7,2.75 28.75,2.4 C29.05,2.05 29.5,2.05 29.95,2.05 C30.4,2.05 30.85,2.05 31.25,2.05 C31.75,2.1 32.2,2.2 32.65,2.25 C33.1,2.3 33.4,2.7 33.9,2.65 C34.05,2.35 34.1,2.05 33.8,1.9 C33.55,1.75 33.2,1.65 32.9,1.6 C32.25,1.5 31.55,1.45 30.9,1.4 C29.8,1.35 28.75,1.5 27.65,1.55 C25.25,1.6 22.85,1.75 20.5,2.05 C18.8,2.25 17.1,2.6 15.45,2.95 C13.6,3.4 11.75,3.9 9.9,4.45 C8.3,4.95 6.7,5.4 5.2,6.15 C3.85,6.55 2.65,7.25 1.55,8.05 C1.35,8.2 1.15,8.35 1.2,8.6 C1.35,8.8 1.55,8.75 1.7,8.6 C2.5,7.95 3.4,7.45 4.35,7 C4.7,6.85 5.25,6.75 5.65,6.4 Z M3.4,10.55 C3.65,10.8 3.85,11 4.05,11.25 C5,12.2 6,13.15 6.9,14.15 C7.85,15.2 8.65,16.35 9.35,17.55 C10.55,19.55 11.9,21.4 12.85,23.55 C13.45,24.85 14.05,26.15 14.45,27.55 C15.4,30.85 16.1,34.2 16.85,37.55 C17.45,40.25 18,42.95 18.5,45.65 C19.35,49.9 20.15,54.2 21,58.45 C21.55,61.15 22.05,63.85 22.8,66.5 C23.85,70.2 24.7,74 26.15,77.6 C26.75,79.15 27.35,80.7 28.3,82.15 C29.3,83.65 30.6,84.8 32,85.85 C32.45,86.2 33,86.4 33.7,86.45 C33.6,85.9 33.6,85.5 33.5,85.05 C33.2,83.65 32.9,82.25 32.65,80.85 C32.2,78.6 31.85,76.35 31.4,74.15 C30.7,70.5 29.9,66.9 29.2,63.25 C28.7,60.65 28.15,58.1 27.65,55.5 C27.1,52.65 26.55,49.8 26.05,46.9 C25.75,44.95 25.45,43.05 25.3,41.1 C25.15,39.4 25.2,37.65 25.45,35.95 C25.65,34.3 25.95,32.7 26.85,31.3 C27.1,30.9 27.15,30.5 27.15,30.05 C27.05,27.95 27.05,25.8 27.4,23.7 C27.65,22.25 27.8,20.8 28.1,19.35 C28.6,17 29.15,14.7 29.9,12.4 C30.7,9.95 31.7,7.65 32.7,5.3 C32.75,5.15 32.95,4.95 32.75,4.75 C32.65,4.8 32.55,4.8 32.45,4.85 C28.6,6.9 24.55,8.3 20.3,9.1 C17.8,9.55 15.3,10.05 12.75,10.35 C9.95,10.7 7.2,10.85 4.4,10.55 C4.1,10.45 3.75,10.35 3.4,10.55 Z M39.6,94.8 C39.15,92.95 38.75,91.15 38.3,89.3 C37.6,86.3 36.95,83.3 36.45,80.3 C36.2,79 36,77.7 35.75,76.4 C35.5,75.3 35.35,74.2 35.15,73.1 C34.7,70.85 34.3,68.55 33.75,66.3 C33.2,63.9 32.7,61.45 32.3,59.05 C32,57.2 31.8,55.35 31.5,53.5 C31.3,51.9 31.1,50.35 30.8,48.75 C30.6,47.65 30.6,46.5 30.45,45.4 C30.15,43 30,40.65 30.05,38.25 C30.05,36.95 30.4,35.8 30.95,34.7 C31.3,34 31.85,33.4 32.6,33 C34.25,32.1 36.5,32.75 37.5,34.45 C38.05,35.35 38.55,36.25 38.75,37.3 C39.1,38.8 39.4,40.35 39.7,41.85 C40.05,43.55 40.2,45.25 40.65,46.9 C41.3,49.2 41.75,51.55 42.2,53.9 C42.4,55 42.6,56.1 42.8,57.2 C43,58.4 43.15,59.65 43.35,60.85 C43.7,63.1 44.15,65.3 44.45,67.6 C44.75,69.85 45.3,72.05 45.65,74.3 C45.75,74.9 46,75.45 46.3,75.95 C46.45,76.2 46.65,76.4 46.95,76.4 C47.3,76.35 47.65,76.15 47.8,75.8 C47.85,75.65 47.85,75.5 47.85,75.35 C47.85,74.65 47.85,73.9 47.8,73.2 C47.45,69.9 47,66.65 46.35,63.4 C45.95,61.5 45.6,59.55 45.25,57.65 C44.9,55.75 44.55,53.8 44.3,51.85 C43.95,49.3 43.55,46.8 43.2,44.25 C42.8,41.65 42.2,39.1 41.6,36.55 C41.15,34.65 40.25,32.9 39.2,31.25 C37.8,28.95 33.35,27.4 30.45,29.45 C28.7,30.65 27.45,32.2 26.95,34.3 C26.25,37.4 26.45,40.5 26.75,43.6 C26.9,45.1 27.2,46.6 27.45,48.1 C28.1,51.65 28.8,55.15 29.45,58.65 C29.65,59.75 30,60.8 30.15,61.9 C30.45,63.6 30.8,65.25 31.15,66.95 C31.75,69.85 32.3,72.75 32.9,75.65 C33.6,79.35 34.3,83.1 35,86.8 C35.35,88.7 35.8,90.65 36.2,92.55 C36.4,93.5 36.55,94.5 36.9,95.45 C37.9,95.6 38.75,95.3 39.6,94.8 Z M37.5,37.55 C37.15,36.65 36.85,35.8 36.35,35.05 C35.75,34.15 34.85,33.75 33.8,33.75 C33.2,33.75 32.7,34 32.35,34.45 C31.85,35.05 31.45,35.75 31.25,36.55 C31.15,37.15 31,37.8 31,38.45 C31,40.9 31.25,43.3 31.5,45.7 C31.55,45.95 31.5,46.25 31.75,46.45 C33.4,45.05 34.05,44.95 35.7,45.8 C35.7,45.75 35.8,45.65 35.75,45.6 C35.5,44.5 35.45,43.4 35.55,42.25 C35.7,40.55 35.85,38.75 37.5,37.55 Z M36.05,71.65 C36.15,72.8 37.2,78.5 37.55,79.7 C39.7,80.75 41.2,80.3 42.5,78.2 C41.6,76.2 41.05,74.1 40.85,71.9 C40.8,71.5 40.7,71.1 40.45,70.7 C38.95,71.05 37.55,71.35 36.05,71.65 Z M48.55,69.3 C48.55,69.45 48.5,69.55 48.55,69.7 C48.7,71.1 48.85,72.45 49,73.85 C49.05,74.45 49.05,75.05 49.05,75.65 C49.05,75.9 48.95,76.2 48.85,76.45 C48.4,77.65 46.3,78.1 45.35,76.85 C44.95,76.25 44.6,75.6 44.45,74.9 C44.25,74.05 44.1,73.2 43.95,72.3 C43.8,71.65 43.8,70.95 43.5,70.3 C42.9,70.4 42.35,70.5 41.85,70.55 C41.65,71.25 41.95,71.8 42.05,72.35 C42.35,74.3 42.85,76.15 43.75,77.95 C43.9,78.25 44.1,78.55 44.3,78.9 C45.15,80.3 48,80.3 48.95,79.35 C49.8,78.5 50.2,77.55 50.3,76.4 C50.4,74.65 50.2,72.9 49.9,71.15 C49.8,70.45 49.8,69.75 49.45,69.1 C49.1,69.2 48.8,69.25 48.55,69.3 Z M46.95,81.1 C46.15,81.1 45.45,81 44.85,80.75 C44.2,80.45 43.65,80.05 43,79.65 C42.4,80.55 41.5,80.95 40.65,81.25 C39.7,81.6 38.7,81.4 37.75,81.1 C37.85,82.3 38.65,86.05 38.95,86.7 C41.8,86.95 45.65,84.35 46.95,81.1 Z M42.45,63.45 C42.45,62.7 41.95,59.7 41.65,58.75 C39,59.1 36.4,59.9 33.8,60.3 C33.75,60.45 33.7,60.55 33.7,60.6 C33.95,61.95 34.25,63.35 34.5,64.7 C34.55,64.9 34.6,65.1 34.9,65.2 C37.3,64.85 39.7,63.95 42.15,63.65 C42.25,63.55 42.35,63.5 42.45,63.45 Z M40.85,53.15 C39.4,53.15 38.1,53.6 36.8,53.8 C35.45,54 34.15,54.25 32.85,54.45 C32.8,55.65 33.2,58.3 33.55,59.25 C34.9,59.2 36.2,58.75 37.5,58.45 C38.85,58.1 40.2,57.9 41.65,57.65 C41.35,56.1 41.1,54.7 40.85,53.15 Z M50.85,62 C51,60.15 50.9,58.45 49.5,57.05 C48.55,57.4 47.6,57.55 46.6,57.7 C46.85,59.45 47.05,61.1 47.45,62.85 C48.55,62.6 49.65,62.3 50.85,62 Z M46.8,50.75 C46.8,50.45 46.85,50.2 46.8,49.95 C46.4,47.7 46.05,45.45 45.55,43.25 C45.25,42.1 45,40.9 44.45,39.85 C44.15,39.25 43.85,38.65 43.2,38 C43.55,40.35 44.2,42.4 44.45,44.55 C44.75,46.7 45.05,48.9 45.5,51 C46,51.05 46.35,50.95 46.8,50.75 Z M49.45,55.9 C49.25,54.35 49.45,52.85 48.4,51.6 C47.45,51.75 46.6,51.9 45.7,52.05 C45.7,53.2 46.1,55.4 46.5,56.7 C47.5,56.55 48.45,56.35 49.45,55.9 Z M36.85,100.8 C38.45,101.35 40.25,101.05 41.75,99.95 C41.45,99.05 41,98.3 40.35,97.6 C39.35,98.15 38.2,98.3 37.1,98.4 C36.75,99.8 36.75,99.8 36.85,100.8 Z M35.8,48.8 C35.85,48.05 35.6,47.35 35.2,46.85 C34.95,46.55 34.65,46.4 34.25,46.4 C33.25,46.4 32.5,47.2 32.4,48.25 C32.3,49.4 33.05,50.45 34,50.6 C34.85,50.75 35.25,50.5 35.55,49.7 C35.7,49.35 35.75,49 35.8,48.8 Z M23.6,74 C23.2,72.35 22.7,70.8 22.25,69.25 C22,69.25 21.85,69.25 21.7,69.3 C21.05,69.4 20.95,69.5 20.95,70.15 C20.9,71.45 21.2,72.65 22,73.75 C22.45,74.3 22.65,74.45 23.6,74 Z M36.45,50.6 C35.25,51.95 34.3,52.1 32.85,51.3 C32.65,51.2 32.55,50.95 32.2,51.15 C32.35,51.9 32.3,52.7 32.65,53.5 C34.15,53.3 35.55,53.05 37,52.7 C36.85,52.05 36.75,51.5 36.6,50.9 C36.65,50.8 36.55,50.75 36.45,50.6 Z M18.55,58.1 C18.35,59.4 18.3,60.75 19,62 C19.2,62.35 19.3,62.75 19.6,63 C19.95,63 20.3,63.05 20.65,62.75 C20.3,61.15 19.95,59.5 19.6,57.85 C19.25,57.8 18.9,57.75 18.55,58.1 Z M19.75,64 C19.7,64.05 19.65,64.1 19.65,64.1 C19.25,65.7 19.75,67 20.9,68.05 C21.25,68.4 21.6,68.3 21.95,68 C21.95,67.25 21.65,66.55 21.45,65.9 C21.25,65.2 21.25,64.5 20.8,63.85 C20.4,63.95 20.05,64 19.75,64 Z M15.85,61.55 C15.7,61.4 15.55,61.5 15.4,61.5 C15.15,61.45 14.95,61.35 14.9,61.05 C14.85,60.8 15,60.7 15.2,60.6 C15.4,60.55 15.55,60.45 15.6,60.15 C15.55,60 15.45,59.75 15.35,59.55 C15.25,59.35 15.05,59.15 14.8,59.2 C14.5,59.25 14.3,59.45 14.25,59.75 C14.1,60.65 14.2,61.5 14.65,62.25 C14.85,62.55 15.1,62.8 15.5,62.8 C15.85,62.25 15.85,62.25 15.85,61.55 Z M17.15,71.55 C16.75,72.2 16.7,72.9 16.95,73.6 C17.1,74.05 17.35,74.5 17.9,74.6 C18.3,74.3 18.35,73.9 18.25,73.5 C18,73.15 17.5,73.25 17.4,72.9 C17.35,72.35 17.9,72.35 18,72 C17.9,71.6 17.55,71.55 17.15,71.55 Z M16.9,68.85 C17.1,68.45 17.15,68.2 17,67.85 C16.7,67.8 16.25,67.75 16.2,67.3 C16.15,66.85 16.7,66.95 16.8,66.65 C16.7,66.3 16.6,65.9 16.2,65.65 C15.55,66.25 15.55,66.95 15.75,67.7 C15.9,68.25 16.15,68.8 16.9,68.85 Z M40.65,95.6 C39.75,95.9 39.1,96.2 38.45,96.4 C37.75,96.6 37.05,96.5 36.35,96.7 C36.65,97.35 37.25,97.25 37.65,97.2 C38.7,97.05 39.85,96.95 40.65,95.6 Z" id="Shape" fill="#010001"/>
          <path d="M16.85,70 C17.95,69.45 17.95,69.45 18.15,67.65 C18.35,67.5 18.55,67.4 18.8,67.4 C19.15,67.6 19.25,68 19.5,68.3 C19.75,68.55 19.95,68.85 20.2,69.15 C19.85,70.05 19.75,70.9 20.05,71.85 C19.75,72.1 19.45,72.2 19,72.2 C18.8,71.85 18.65,71.45 18.45,71.05 C18,70.25 17.8,70.2 16.8,70.35 C16.85,70.15 16.85,70.1 16.85,70 Z" id="Shape" fill="#FAFAFA"/>
          <path d="M3.4,10.55 C3.8,10.35 4.1,10.45 4.4,10.5 C7.2,10.85 9.95,10.65 12.75,10.3 C15.3,10 17.8,9.5 20.3,9.05 C24.55,8.25 28.65,6.9 32.45,4.8 C32.55,4.75 32.65,4.7 32.75,4.7 C32.95,4.9 32.8,5.05 32.7,5.25 C31.7,7.6 30.65,9.95 29.9,12.35 C29.15,14.65 28.65,16.95 28.1,19.3 C27.8,20.75 27.65,22.2 27.4,23.65 C27.05,25.75 27.05,27.85 27.15,30 C27.15,30.45 27.1,30.85 26.85,31.25 C25.95,32.65 25.65,34.25 25.45,35.9 C25.25,37.6 25.15,39.35 25.3,41.05 C25.45,43 25.75,44.95 26.05,46.85 C26.55,49.7 27.1,52.6 27.65,55.45 C28.15,58.05 28.7,60.6 29.2,63.2 C29.95,66.85 30.7,70.45 31.4,74.1 C31.85,76.35 32.2,78.55 32.65,80.8 C32.9,82.2 33.2,83.6 33.5,85 C33.6,85.4 33.65,85.85 33.7,86.4 C33,86.35 32.45,86.15 32,85.8 C30.6,84.75 29.3,83.6 28.3,82.1 C27.35,80.7 26.75,79.15 26.15,77.55 C24.7,73.95 23.85,70.15 22.8,66.45 C22.05,63.8 21.55,61.1 21,58.4 C20.15,54.15 19.35,49.85 18.5,45.6 C17.95,42.9 17.45,40.2 16.85,37.5 C16.1,34.15 15.4,30.8 14.45,27.5 C14.05,26.1 13.45,24.8 12.85,23.5 C11.9,21.4 10.55,19.5 9.35,17.5 C8.65,16.3 7.85,15.15 6.9,14.1 C6,13.1 5,12.15 4.05,11.2 C3.85,11.05 3.6,10.8 3.4,10.55 Z M26.05,72.3 C25.55,72.45 25.5,72.75 25.55,73.1 C25.7,74.05 26.05,74.95 26.35,75.85 C26.95,77.75 27.75,79.5 28.85,81.15 C29.45,82.05 30.1,83 31.05,83.65 C31.25,83.55 31.4,83.4 31.35,83.15 C31.2,82.65 30.9,82.25 30.6,81.8 C29.8,80.75 29.1,79.65 28.55,78.45 C27.9,77.1 27.45,75.7 26.95,74.3 C26.7,73.65 26.55,72.9 26.05,72.3 Z M29.05,76.7 C28.85,76.75 28.7,76.85 28.7,77 C28.7,77.15 28.7,77.3 28.75,77.45 C29.3,78.7 29.95,79.85 30.75,80.95 C30.85,81.1 30.95,81.2 31.05,81.3 C31.2,81.4 31.4,81.55 31.55,81.4 C31.75,81.25 31.7,81.05 31.6,80.85 C31.55,80.7 31.45,80.55 31.35,80.45 C30.65,79.55 30.1,78.5 29.6,77.5 C29.5,77.3 29.35,77.1 29.25,76.9 C29.25,76.75 29.15,76.75 29.05,76.7 Z M27.95,74.15 C27.85,74.2 27.75,74.25 27.7,74.3 C27.45,74.8 27.7,75.5 28.15,75.85 C28.3,75.95 28.6,75.85 28.6,75.7 C28.65,75.15 28.4,74.7 28.15,74.3 C28.15,74.2 28.05,74.2 27.95,74.15 Z M25.3,71.15 C25.55,71.05 25.65,70.8 25.6,70.6 C25.55,70.25 25.5,69.85 25.2,69.6 C25.15,69.55 24.95,69.5 24.85,69.55 C24.55,69.65 24.5,70.4 24.8,70.95 C24.95,71.05 25.1,71.15 25.3,71.15 Z M24.05,67.5 C24,67.85 24,68.1 24.3,68.25 C24.45,68.3 24.55,68.3 24.6,68.2 C24.85,68 24.8,67.7 24.7,67.45 C24.65,67.35 24.55,67.25 24.45,67.2 C24.35,67.1 24.2,67.15 24.15,67.25 C24.1,67.35 24.05,67.45 24.05,67.5 Z" id="Shape" fill="#FFC941"/>
          <path d="M39.6,94.8 C38.75,95.3 37.95,95.6 36.95,95.35 C36.6,94.4 36.45,93.4 36.25,92.45 C35.85,90.55 35.4,88.65 35.05,86.7 C34.35,83 33.65,79.25 32.95,75.55 C32.4,72.65 31.85,69.75 31.2,66.85 C30.85,65.2 30.5,63.5 30.2,61.8 C30,60.7 29.7,59.6 29.5,58.55 C28.8,55.05 28.15,51.5 27.5,48 C27.2,46.5 26.95,45 26.8,43.5 C26.5,40.4 26.3,37.3 27,34.2 C27.5,32.1 28.75,30.6 30.5,29.35 C33.35,27.3 37.85,28.9 39.25,31.15 C40.3,32.85 41.2,34.55 41.65,36.45 C42.25,39 42.9,41.55 43.25,44.15 C43.6,46.7 44.05,49.2 44.35,51.75 C44.6,53.7 44.95,55.6 45.3,57.55 C45.65,59.5 46,61.4 46.4,63.3 C47.05,66.55 47.45,69.85 47.85,73.1 C47.95,73.8 47.9,74.55 47.9,75.25 C47.9,75.4 47.9,75.55 47.85,75.7 C47.7,76.05 47.4,76.25 47,76.3 C46.7,76.3 46.45,76.1 46.35,75.85 C46.05,75.35 45.8,74.8 45.7,74.2 C45.35,71.95 44.8,69.75 44.5,67.5 C44.2,65.25 43.75,63 43.4,60.75 C43.2,59.55 43.05,58.3 42.85,57.1 C42.65,56 42.5,54.9 42.25,53.8 C41.8,51.45 41.35,49.1 40.7,46.8 C40.25,45.15 40.1,43.45 39.75,41.75 C39.45,40.2 39.15,38.7 38.8,37.2 C38.55,36.2 38.05,35.25 37.55,34.35 C36.55,32.65 34.3,32 32.65,32.9 C31.9,33.3 31.4,33.85 31,34.6 C30.45,35.7 30.1,36.9 30.1,38.15 C30.05,40.55 30.25,42.95 30.5,45.3 C30.65,46.4 30.65,47.55 30.85,48.65 C31.1,50.2 31.3,51.8 31.55,53.4 C31.8,55.25 32,57.15 32.35,58.95 C32.75,61.4 33.25,63.8 33.8,66.2 C34.3,68.45 34.75,70.75 35.2,73 C35.4,74.1 35.55,75.2 35.8,76.3 C36.1,77.6 36.3,78.9 36.5,80.2 C37.05,83.2 37.65,86.25 38.35,89.2 C38.7,91.1 39.15,92.95 39.6,94.8 Z M27.95,38.1 C28.25,37.75 28.35,37.35 28.4,36.95 C28.55,35.95 28.7,35 29.1,34.05 C29.7,32.65 30.25,31.15 31.9,30.5 C32.15,30.4 32.3,30.2 32.2,29.95 C32.1,29.65 31.85,29.65 31.6,29.65 C30.85,29.65 30.3,30.05 29.85,30.55 C28.55,32.05 27.85,33.9 27.45,35.8 C27.35,36.35 27.4,36.9 27.45,37.45 C27.45,37.7 27.55,38 27.95,38.1 Z M28.15,40.5 C28.15,40.35 28.15,40 28.1,39.65 C28.1,39.55 27.95,39.45 27.85,39.4 C27.7,39.35 27.55,39.45 27.5,39.6 C27.35,40.1 27.1,40.55 27.35,41.1 C27.5,41.4 27.45,41.75 27.85,41.85 C28.05,41.9 28.2,41.6 28.2,40.95 C28.15,40.85 28.15,40.8 28.15,40.5 Z" id="Shape" fill="#FFC941"/>
          <path d="M5.1,6.15 C6.6,5.4 8.25,4.95 9.8,4.45 C11.65,3.9 13.45,3.35 15.35,2.95 C17,2.55 18.7,2.25 20.4,2.05 C22.8,1.75 25.15,1.6 27.55,1.55 C28.6,1.55 29.7,1.35 30.8,1.4 C31.5,1.45 32.15,1.5 32.8,1.6 C33.1,1.65 33.4,1.75 33.7,1.9 C34,2.05 33.95,2.35 33.8,2.65 C33.35,2.7 33,2.3 32.55,2.25 C32.05,2.2 31.6,2.1 31.15,2.05 C30.7,2 30.25,2.05 29.85,2.05 C29.4,2.05 29,2.05 28.65,2.4 C28.6,2.75 28.8,2.9 29.05,2.9 C29.6,2.95 30.15,2.95 30.75,2.95 C31.45,2.95 32.2,3 32.9,3.3 C32.7,3.7 32.4,3.8 32.05,3.7 C31.15,3.45 30.25,3.45 29.3,3.5 C29,3.5 28.65,3.55 28.35,3.65 C28.2,3.7 28.05,3.8 28.05,4.05 C28.9,4.7 29.95,4.1 30.9,4.45 C30.6,4.85 30.2,4.9 29.75,4.85 C29.25,4.8 28.7,4.8 28.2,4.8 C28,4.8 27.8,4.85 27.65,5.05 C27.6,5.15 27.55,5.25 27.7,5.35 C27.75,5.5 27.85,5.7 27.9,5.85 C26.85,6.3 25.8,6.55 24.7,6.85 C23.25,7.2 21.85,7.6 20.4,7.9 C16.55,8.7 12.75,9.35 8.85,9.6 C8.45,9.65 8.05,9.6 7.65,9.6 C7.5,9 7.35,8.85 6.9,8.95 C6.5,9.05 6.1,9.25 5.65,9.4 C5.4,9.5 5.15,9.55 4.85,9.35 C5.55,8.75 6.5,8.6 7.15,7.95 C7,7.6 6.7,7.6 6.45,7.7 C5.65,7.9 4.95,8.25 4.25,8.65 C3.95,8.8 3.6,9 3.3,9.15 C3,9.3 2.7,9.3 2.3,9.1 C2.75,8.7 3.2,8.5 3.65,8.25 C4.15,8 4.65,7.75 5.15,7.5 C5.6,7.25 6.15,7.25 6.45,6.75 C6.3,6.2 5.9,6.45 5.55,6.4 C5.45,6.35 5.2,6.4 5.1,6.15 Z M12,4.85 C12.15,5.3 12.35,5.4 12.75,5.3 C13.8,5 14.9,4.7 15.95,4.5 C17.4,4.25 18.8,3.9 20.25,3.6 C20.5,3.55 20.8,3.5 21.05,3.4 C21.25,3.35 21.35,3.15 21.25,2.9 C21.1,2.85 20.95,2.8 20.8,2.8 C19.15,3.05 17.5,3.3 15.9,3.65 C14.65,3.9 13.45,4.2 12.25,4.7 C12.2,4.7 12.1,4.8 12,4.85 Z M7.65,5.85 C7.45,5.9 7.15,5.9 6.95,6.1 C6.8,6.25 6.85,6.5 7,6.6 C7.35,6.85 8.1,6.6 8.15,6.15 C8.15,5.95 7.9,5.9 7.65,5.85 Z M26.85,2.65 C26.9,2.75 26.95,2.9 27,2.95 C27.3,3.1 27.6,3.1 27.85,2.9 C28,2.8 28,2.55 27.8,2.4 C27.55,2.25 27.3,2.25 27.05,2.35 C26.95,2.45 26.9,2.55 26.85,2.65 Z M9.65,5.7 C9.7,5.5 9.6,5.4 9.45,5.3 C9.25,5.2 9.05,5.3 8.9,5.4 C8.75,5.5 8.65,5.6 8.75,5.8 C8.8,5.95 8.95,6.05 9.1,6.05 C9.35,6.05 9.55,5.95 9.65,5.7 Z M27,4.4 C27.25,4.4 27.5,4.15 27.4,3.95 C27.35,3.7 27.15,3.7 26.95,3.7 C26.75,3.7 26.55,3.75 26.5,4 C26.5,4.2 26.8,4.4 27,4.4 Z M26,2.75 C26.05,2.55 25.9,2.4 25.7,2.35 C25.45,2.3 25.15,2.45 25.15,2.65 C25.1,2.9 25.3,3 25.45,3.05 C25.7,3.1 25.95,2.95 26,2.75 Z M8.6,7.5 C8.55,7.3 8.45,7.15 8.2,7.15 C7.95,7.15 7.8,7.3 7.8,7.5 C7.8,7.7 7.95,7.85 8.15,7.85 C8.45,7.85 8.55,7.7 8.6,7.5 Z" id="Shape" fill="#FFC941"/>
          <path d="M48.55,69.3 C48.85,69.25 49.1,69.2 49.4,69.15 C49.75,69.8 49.7,70.5 49.85,71.2 C50.15,72.95 50.35,74.65 50.25,76.45 C50.2,77.6 49.75,78.6 48.9,79.4 C47.95,80.35 45.15,80.35 44.25,78.95 C44.05,78.65 43.85,78.35 43.7,78 C42.85,76.25 42.3,74.35 42,72.4 C41.9,71.8 41.6,71.25 41.8,70.6 C42.35,70.5 42.85,70.45 43.45,70.35 C43.75,71 43.75,71.7 43.9,72.35 C44.1,73.2 44.25,74.05 44.4,74.95 C44.55,75.65 44.9,76.3 45.3,76.9 C46.2,78.2 48.3,77.75 48.8,76.5 C48.9,76.25 48.95,75.95 49,75.7 C49,75.1 49,74.5 48.95,73.9 C48.8,72.5 48.65,71.15 48.5,69.75 C48.5,69.55 48.55,69.45 48.55,69.3 Z" id="Shape" fill="#FDC841"/>
          <path d="M46.95,81.1 C45.65,84.35 41.8,87 38.95,86.7 C38.65,86.05 37.85,82.3 37.75,81.1 C38.7,81.4 39.7,81.6 40.65,81.25 C41.55,80.9 42.45,80.55 43,79.65 C43.65,80.05 44.2,80.45 44.85,80.75 C45.5,81 46.15,81.1 46.95,81.1 Z M39.15,82.6 C39.55,83.15 40.05,83.25 40.5,83.15 C41.1,83 41.8,82.95 42.2,82.4 C42.35,82.2 42.4,81.95 42,81.8 C41.2,82.5 40.1,82 39.15,82.6 Z M39.25,84 C39,84.5 39.15,85 39.25,85.5 C39.25,85.55 39.3,85.55 39.3,85.6 C39.4,85.75 39.55,85.9 39.8,85.85 C40.05,85.8 40.1,85.6 40.05,85.4 C39.95,85 39.85,84.65 39.7,84.3 C39.65,84.1 39.55,84 39.25,84 Z M40.9,83.95 C40.8,84 40.7,84.05 40.7,84.1 C40.45,84.55 40.65,85.2 41.1,85.55 C41.25,85.65 41.55,85.5 41.55,85.3 C41.55,84.85 41.4,84.45 41.2,84.1 C41.15,84 41,84 40.9,83.95 Z M42.95,84.05 C42.95,83.75 42.75,83.45 42.5,83.5 C42.3,83.5 42.25,83.7 42.25,83.85 C42.25,84.1 42.25,84.3 42.55,84.4 C42.75,84.45 42.95,84.3 42.95,84.05 Z" id="Shape" fill="#FDC841"/>
          <path d="M42.45,63.45 C42.35,63.5 42.25,63.55 42.15,63.6 C39.65,63.9 37.3,64.8 34.9,65.15 C34.6,65.05 34.55,64.85 34.5,64.65 C34.2,63.3 33.95,61.9 33.7,60.55 C33.7,60.5 33.75,60.4 33.8,60.25 C36.4,59.85 39,59.1 41.65,58.7 C41.95,59.7 42.45,62.7 42.45,63.45 Z M39.1,60.25 C38.05,60.05 38.05,60.05 35.15,61.05 C35.1,61.2 35.05,61.35 35.15,61.5 C35.35,61.7 35.6,61.85 35.9,61.75 C36.9,61.5 37.9,61.25 38.8,60.8 C39.05,60.7 39.2,60.55 39.1,60.25 Z M38.85,62.75 C38.7,62.75 38.55,62.75 38.35,62.8 C37.45,63.05 36.5,63.3 35.6,63.55 C35.5,63.55 35.45,63.6 35.4,63.65 C35.3,63.75 35.25,63.85 35.2,63.95 C35.2,64.1 35.3,64.25 35.45,64.3 C35.6,64.35 35.75,64.35 35.9,64.35 C36.95,64.2 38,63.85 39,63.55 C39.1,63.5 39.2,63.45 39.3,63.35 C39.35,63.3 39.4,63.2 39.35,63.15 C39.3,63.05 39.25,62.95 39.15,62.9 C39.1,62.75 38.95,62.75 38.85,62.75 Z M41.15,62.85 C41.3,62.8 41.5,62.8 41.7,62.7 C41.85,62.65 41.95,62.5 41.95,62.35 C41.9,62.2 41.8,62.05 41.65,62.05 C41.35,62 41,62.05 40.75,62.25 C40.65,62.3 40.6,62.45 40.65,62.55 C40.7,62.6 40.75,62.7 40.8,62.7 C40.85,62.8 41,62.8 41.15,62.85 Z" id="Shape" fill="#FDC841"/>
          <path d="M40.85,53.15 C41.1,54.7 41.35,56.1 41.6,57.6 C40.15,57.9 38.8,58.1 37.45,58.4 C36.15,58.7 34.85,59.15 33.5,59.2 C33.1,58.25 32.7,55.6 32.8,54.4 C34.1,54.2 35.45,53.95 36.75,53.75 C38.1,53.6 39.4,53.15 40.85,53.15 Z M33.45,55.65 C33.6,56.05 33.85,56.15 34.1,56.1 C35.35,56.05 36.5,55.7 37.65,55.25 C37.85,55.2 37.95,55 37.9,54.75 C37.55,54.45 37.15,54.55 36.8,54.65 C35.7,54.95 34.5,55 33.45,55.65 Z M37.25,57.35 C37.2,57.3 37.1,57.25 37.05,57.25 C36.05,57.25 35.1,57.55 34.15,57.9 C33.95,57.95 33.9,58.2 34,58.5 C35.1,58.6 36.15,58.3 37.15,57.8 C37.25,57.7 37.25,57.55 37.25,57.35 Z M38.2,57.4 C39,57.65 39.5,57.45 39.95,56.95 C39.85,56.65 39.65,56.5 39.4,56.55 C38.9,56.65 38.45,56.75 38.2,57.4 Z" id="Shape" fill="#FDC841"/>
          <path d="M37,65.9 C37.05,65.85 37.1,65.75 37.15,65.75 C38.75,65.35 40.4,64.95 42.05,64.7 C42.25,64.65 42.45,64.6 42.7,64.75 C43,66.15 43.25,67.65 43.4,69.2 C40.9,69.6 38.45,70 36.05,70.6 C35.75,70.5 35.65,70.3 35.6,70.05 C35.35,68.75 35.1,67.5 34.85,66.1 C35.6,66.1 36.3,65.85 37,65.9 C36.9,66.25 36.55,66.1 36.3,66.25 C36.15,66.4 36,66.5 36.1,66.75 C36.15,66.8 36.25,66.85 36.3,66.85 C37.45,66.95 38.55,66.65 39.65,66.2 C39.8,66.15 39.9,66 39.8,65.7 C39.35,65.6 38.8,65.6 38.25,65.75 C37.85,65.9 37.4,65.95 37,65.9 Z M37.15,69.75 C38.05,69.65 39.1,69.4 40.1,69.05 C40.5,68.9 40.65,68.75 40.6,68.5 C40.5,68.25 40.25,68.25 40,68.25 C39.85,68.25 39.7,68.25 39.55,68.3 C38.65,68.5 37.75,68.65 36.9,68.85 C36.45,68.95 36.25,69.2 36.35,69.45 C36.4,69.8 36.7,69.8 37.15,69.75 Z M43.05,68.2 C42.65,67.85 42.55,67.8 42.35,67.85 C42.05,67.9 41.8,67.95 41.65,68.2 C41.6,68.25 41.6,68.45 41.65,68.5 C41.7,68.6 41.8,68.7 41.9,68.7 C42.4,68.8 42.8,68.65 43.05,68.2 Z" id="Shape" fill="#FDC841"/>
          <path d="M39.2,50.75 C39.15,50.6 39.15,50.45 39.1,50.3 C39.05,50.15 38.9,50 38.75,50 C38.5,50 38.45,50.2 38.4,50.4 C38.35,50.95 38.45,51.5 38.55,52.05 C38.55,52.2 38.55,52.2 38.1,52.35 C37.9,51.4 37.7,50.5 37.55,49.6 C37.3,47.95 37,46.3 36.8,44.65 C36.6,43.2 36.65,41.8 36.95,40.35 C37.15,39.6 37.25,39.35 37.8,38.8 C38.2,40.8 38.7,42.8 39,44.75 C39.2,45.85 39.5,46.95 39.7,48 C39.9,48.85 40.1,49.7 40.3,50.55 C40.35,50.7 40.3,50.85 40.25,51.05 C39.95,50.85 39.7,50.8 39.55,51.15 C39.45,51.1 39.35,50.95 39.2,50.75 Z" id="Shape" fill="#FDC741"/>
          <path d="M50.85,62 C49.65,62.3 48.55,62.6 47.45,62.9 C47.05,61.15 46.85,59.45 46.6,57.75 C47.6,57.55 48.55,57.4 49.5,57.1 C50.9,58.45 51,60.15 50.85,62 Z M48.4,61.65 C48.55,61.6 48.7,61.6 48.8,61.5 C48.95,61.4 49,61.25 48.95,61.1 C48.85,60.9 48.7,60.8 48.5,60.85 C48.15,60.9 47.9,61.1 47.95,61.35 C47.95,61.4 48,61.5 48.05,61.55 C48.1,61.6 48.25,61.6 48.4,61.65 Z" id="Shape" fill="#FCC741"/>
          <path d="M46.8,50.75 C46.35,50.9 46,51.05 45.5,51 C45,48.9 44.7,46.7 44.45,44.55 C44.15,42.4 43.55,40.35 43.2,38 C43.85,38.65 44.15,39.25 44.45,39.85 C45,40.95 45.25,42.1 45.55,43.25 C46.1,45.45 46.4,47.7 46.8,49.95 C46.85,50.2 46.8,50.45 46.8,50.75 Z" id="Shape" fill="#F9C540"/>
          <path d="M48.05,67.05 C48.05,65.95 47.7,64.95 47.6,63.85 C48.75,63.6 49.85,63.35 51.05,63.1 C51.9,64.3 52.1,65.65 51.9,67.1 C51.85,67.35 51.7,67.55 51.45,67.6 C51,67.7 50.5,67.8 50.05,67.9 C49.6,68 49.1,68.15 48.65,68.25 C48.5,68.3 48.35,68.2 48.25,68.05 C48.3,67.85 48.2,67.6 48.4,67.35 C48.95,67.6 49.45,67.5 49.95,67.2 C50.1,67.15 50.15,67 50.15,66.8 C50.1,66.6 49.95,66.5 49.8,66.5 C49.35,66.5 48.85,66.55 48.5,66.9 C48.35,67.1 48.2,67.1 48.05,67.05 Z" id="Shape" fill="#FCC741"/>
          <path d="M49.45,55.9 C48.45,56.35 47.5,56.55 46.5,56.7 C46.1,55.45 45.7,53.2 45.7,52.05 C46.6,51.9 47.45,51.75 48.4,51.6 C49.45,52.85 49.3,54.35 49.45,55.9 Z M47.5,55.55 C47.5,55.35 47.25,55.15 47,55.15 C46.75,55.15 46.55,55.35 46.55,55.6 C46.55,55.85 46.75,55.9 46.95,55.9 C47.1,55.9 47.25,55.85 47.4,55.8 C47.45,55.7 47.45,55.6 47.5,55.55 Z" id="Shape" fill="#FBC641"/>
          <path d="M36.85,100.8 C36.7,99.8 36.7,99.8 37.1,98.4 C38.2,98.3 39.35,98.15 40.35,97.6 C41,98.3 41.45,99.05 41.75,99.95 C40.25,101.05 38.5,101.35 36.85,100.8 Z" id="Shape" fill="#FBC641"/>
          <path d="M35.8,48.8 C35.75,48.95 35.7,49.3 35.55,49.65 C35.25,50.45 34.85,50.7 34,50.55 C33.05,50.4 32.35,49.35 32.4,48.2 C32.5,47.15 33.25,46.4 34.25,46.35 C34.65,46.35 34.95,46.45 35.2,46.8" id="Shape" fill="#FDFDFD"/>
          <path d="M23.6,74 C22.65,74.45 22.45,74.3 22,73.7 C21.2,72.65 20.9,71.45 20.95,70.1 C20.95,69.45 21.05,69.35 21.7,69.25 C21.85,69.2 22,69.25 22.25,69.2 C22.7,70.8 23.2,72.35 23.6,74 Z" id="Shape" fill="#FBC640"/>
          <path d="M37.05,52.65 C35.6,53.05 34.15,53.25 32.7,53.45 C32.35,52.65 32.4,51.85 32.25,51.1 C32.55,50.9 32.7,51.15 32.9,51.25" id="Shape" fill="#F6F6F6"/>
          <path d="M18.55,58.1 C18.9,57.75 19.25,57.8 19.65,57.9 C20,59.55 20.35,61.15 20.7,62.8 C20.35,63.1 20,63.05 19.65,63.05 C19.3,62.8 19.25,62.4 19.05,62.05 C18.3,60.75 18.4,59.4 18.55,58.1 Z" id="Shape" fill="#F7C340"/>
          <path d="M19.75,64 C20.05,63.95 20.4,63.95 20.8,63.9 C21.25,64.55 21.25,65.25 21.45,65.95 C21.65,66.65 22,67.3 21.95,68.05 C21.6,68.3 21.25,68.4 20.9,68.1 C19.75,67 19.25,65.7 19.65,64.15 C19.6,64.1 19.65,64.1 19.75,64 Z" id="Shape" fill="#F8C440"/>
          <path d="M15.85,61.55 C15.85,62.3 15.85,62.3 15.5,62.8 C15.1,62.85 14.85,62.6 14.65,62.25 C14.2,61.45 14.1,60.6 14.25,59.75 C14.3,59.45 14.5,59.25 14.8,59.2 C15.05,59.15 15.25,59.35 15.35,59.55 C15.45,59.75 15.55,60 15.6,60.15 C15.55,60.45 15.35,60.5 15.2,60.6 C15,60.7 14.9,60.8 14.9,61.05 C14.95,61.35 15.1,61.45 15.4,61.5 C15.55,61.5 15.7,61.4 15.85,61.55 Z" id="Shape" fill="#ECBB3F"/>
          <path d="M5.1,6.15 C5.2,6.4 5.45,6.35 5.65,6.4 C5.25,6.75 4.7,6.8 4.25,7 C3.3,7.45 2.4,7.95 1.6,8.6 C1.45,8.75 1.25,8.8 1.1,8.6 C1.05,8.3 1.25,8.15 1.45,8.05 C2.55,7.25 3.75,6.55 5.1,6.15 Z" id="Shape" fill="#D8AC3C"/>
          <path d="M17.15,71.55 C17.55,71.55 17.9,71.6 18,72.05 C17.9,72.4 17.35,72.4 17.4,72.95 C17.5,73.3 18,73.2 18.25,73.55 C18.35,73.95 18.3,74.35 17.9,74.65 C17.35,74.55 17.1,74.1 16.95,73.65 C16.7,72.9 16.75,72.2 17.15,71.55 Z" id="Shape" fill="#DFB13D"/>
          <path d="M16.9,68.85 C16.15,68.8 15.95,68.25 15.8,67.75 C15.6,67 15.55,66.25 16.25,65.7 C16.65,65.95 16.8,66.3 16.85,66.7 C16.7,67 16.2,66.9 16.25,67.35 C16.3,67.8 16.75,67.8 17.05,67.9 C17.15,68.2 17.1,68.5 16.9,68.85 Z" id="Shape" fill="#E4B53E"/>
          <path d="M40.65,95.6 C39.85,96.95 38.7,97.05 37.6,97.2 C37.2,97.25 36.65,97.35 36.3,96.7 C37.05,96.5 37.75,96.65 38.4,96.4 C39.15,96.2 39.8,95.9 40.65,95.6 Z" id="Shape" fill="#E3B53E"/>
          <path d="M48.05,67.05 C48.2,67.1 48.35,67.1 48.45,66.95 C48.8,66.55 49.3,66.55 49.75,66.55 C49.9,66.55 50.05,66.65 50.1,66.85 C50.15,67 50.05,67.15 49.9,67.25 C49.4,67.5 48.9,67.6 48.35,67.4 C48.15,67.65 48.3,67.9 48.2,68.1 C47.9,67.8 48.05,67.4 48.05,67.05 Z" id="Shape" fill="#272111"/>
          <path d="M39.2,50.75 C39.35,50.9 39.5,51.05 39.6,51.2 C39.65,51.5 39.7,51.8 39.75,52.05 C39.5,52.25 39.4,52.15 39.3,52 C39.15,51.65 39.15,51.2 39.2,50.75 Z" id="Shape" fill="#AC8B37"/>
          <path d="M27.85,5.9 C27.8,5.75 27.7,5.55 27.65,5.4 C27.9,5.4 28.2,5.45 28.45,5.45 C28.4,5.9 28.15,5.95 27.85,5.9 Z" id="Shape" fill="#574A2A"/>
          <path d="M26.05,72.3 C26.5,72.9 26.65,73.65 26.9,74.3 C27.4,75.7 27.85,77.1 28.5,78.45 C29.05,79.65 29.75,80.75 30.55,81.8 C30.85,82.2 31.2,82.6 31.3,83.15 C31.35,83.4 31.25,83.5 31,83.65 C30.1,83 29.4,82.1 28.8,81.15 C27.7,79.5 26.9,77.75 26.3,75.85 C26,74.95 25.65,74.05 25.5,73.1 C25.55,72.75 25.55,72.45 26.05,72.3 Z" id="Shape" fill="#070603"/>
          <path d="M29.05,76.7 C29.15,76.75 29.25,76.8 29.3,76.85 C29.45,77.05 29.55,77.25 29.65,77.45 C30.15,78.5 30.7,79.5 31.4,80.4 C31.5,80.55 31.6,80.65 31.65,80.8 C31.75,81 31.75,81.2 31.6,81.35 C31.4,81.5 31.25,81.4 31.1,81.25 C31,81.15 30.9,81 30.8,80.9 C29.95,79.85 29.3,78.65 28.8,77.4 C28.75,77.25 28.7,77.1 28.75,76.95 C28.75,76.85 28.85,76.75 29.05,76.7 Z" id="Shape" fill="#110E08"/>
          <path d="M27.95,74.15 C28.05,74.2 28.15,74.2 28.2,74.3 C28.45,74.75 28.65,75.2 28.65,75.7 C28.65,75.9 28.35,76 28.2,75.85 C27.75,75.5 27.5,74.8 27.75,74.3 C27.75,74.2 27.85,74.15 27.95,74.15 Z" id="Shape" fill="#241E10"/>
          <path d="M25.3,71.15 C25.1,71.15 24.95,71.05 24.9,70.95 C24.6,70.4 24.6,69.65 24.95,69.55 C25.05,69.5 25.2,69.55 25.3,69.6 C25.6,69.85 25.6,70.25 25.7,70.6 C25.65,70.8 25.55,71.05 25.3,71.15 Z" id="Shape" fill="#1E190D"/>
          <path d="M24.05,67.5 C24.1,67.45 24.1,67.3 24.2,67.25 C24.3,67.15 24.4,67.1 24.5,67.2 C24.6,67.3 24.7,67.35 24.75,67.45 C24.85,67.7 24.9,68 24.65,68.2 C24.55,68.3 24.45,68.3 24.35,68.25 C24,68.1 24,67.85 24.05,67.5 Z" id="Shape" fill="#2F2815"/>
          <path d="M27.95,38.1 C27.55,38 27.45,37.75 27.45,37.45 C27.45,36.9 27.35,36.3 27.45,35.8 C27.9,33.9 28.6,32.1 29.85,30.55 C30.3,30.05 30.85,29.65 31.6,29.65 C31.85,29.65 32.1,29.7 32.2,29.95 C32.3,30.25 32.15,30.45 31.9,30.5 C30.3,31.15 29.75,32.65 29.1,34.05 C28.7,34.95 28.5,35.95 28.4,36.95 C28.35,37.35 28.25,37.7 27.95,38.1 Z" id="Shape" fill="#FEFDFA"/>
          <path d="M28.15,40.5 C28.15,40.8 28.15,40.9 28.15,40.95 C28.15,41.55 28.05,41.9 27.8,41.85 C27.4,41.75 27.45,41.4 27.3,41.1 C27.05,40.55 27.3,40.1 27.45,39.6 C27.5,39.45 27.65,39.35 27.8,39.4 C27.9,39.45 28,39.55 28.05,39.65 C28.15,40 28.15,40.35 28.15,40.5 Z" id="Shape" fill="#FEFBF3"/>
          <path d="M12,4.85 C12.1,4.8 12.15,4.7 12.3,4.65 C13.5,4.15 14.7,3.85 15.95,3.6 C17.6,3.25 19.25,3 20.85,2.75 C21,2.75 21.15,2.8 21.3,2.85 C21.4,3.15 21.3,3.3 21.1,3.35 C20.85,3.45 20.55,3.5 20.3,3.55 C18.85,3.9 17.45,4.2 16,4.45 C14.9,4.65 13.85,5 12.8,5.25 C12.35,5.4 12.15,5.3 12,4.85 Z" id="Shape" fill="#FEFCF4"/>
          <path d="M7.65,5.85 C7.95,5.9 8.15,5.95 8.15,6.2 C8.1,6.65 7.4,6.9 7,6.65 C6.8,6.5 6.8,6.3 6.95,6.15 C7.15,5.85 7.45,5.85 7.65,5.85 Z" id="Shape" fill="#262011"/>
          <path d="M26.85,2.65 C26.95,2.55 27,2.4 27.05,2.4 C27.3,2.3 27.55,2.3 27.8,2.45 C28,2.55 28,2.8 27.85,2.95 C27.55,3.15 27.3,3.15 27,3 C26.9,2.9 26.9,2.8 26.85,2.65 Z" id="Shape" fill="#272112"/>
          <path d="M9.65,5.7 C9.55,5.95 9.35,6.05 9.1,6.05 C8.95,6.05 8.8,5.95 8.75,5.8 C8.7,5.6 8.75,5.5 8.9,5.4 C9.05,5.3 9.25,5.2 9.45,5.3 C9.6,5.4 9.7,5.5 9.65,5.7 Z" id="Shape" fill="#42371A"/>
          <path d="M27,4.4 C26.75,4.4 26.5,4.2 26.5,4 C26.55,3.75 26.75,3.7 26.95,3.7 C27.15,3.7 27.35,3.7 27.4,3.95 C27.5,4.15 27.25,4.4 27,4.4 Z" id="Shape" fill="#44381B"/>
          <path d="M26,2.75 C25.95,3 25.7,3.1 25.45,3 C25.25,2.95 25.1,2.8 25.15,2.6 C25.2,2.4 25.45,2.25 25.7,2.3 C25.9,2.35 26,2.55 26,2.75 Z" id="Shape" fill="#2D2615"/>
          <path d="M8.6,7.5 C8.55,7.7 8.45,7.85 8.2,7.85 C7.95,7.85 7.8,7.7 7.85,7.5 C7.85,7.3 8,7.15 8.25,7.15 C8.45,7.15 8.55,7.3 8.6,7.5 Z" id="Shape" fill="#5C4C25"/>
          <path d="M39.15,82.6 C40.1,82 41.25,82.5 42,81.8 C42.4,81.95 42.4,82.2 42.2,82.4 C41.8,82.95 41.1,83.05 40.5,83.15 C40,83.25 39.55,83.15 39.15,82.6 Z" id="Shape" fill="#FEF7E3"/>
          <path d="M39.25,84 C39.55,84 39.65,84.1 39.7,84.25 C39.85,84.6 39.95,85 40.05,85.35 C40.1,85.55 40.05,85.75 39.8,85.8 C39.6,85.85 39.45,85.75 39.3,85.55 C39.3,85.5 39.25,85.5 39.25,85.45 C39.15,85 39,84.55 39.25,84 Z" id="Shape" fill="#292212"/>
          <path d="M40.9,83.95 C41,84 41.15,84 41.2,84.1 C41.4,84.45 41.55,84.85 41.55,85.3 C41.55,85.5 41.25,85.65 41.1,85.55 C40.65,85.25 40.45,84.6 40.7,84.1 C40.7,84 40.8,84 40.9,83.95 Z" id="Shape" fill="#211C0F"/>
          <path d="M42.95,84.05 C42.95,84.25 42.75,84.4 42.55,84.4 C42.25,84.35 42.2,84.1 42.25,83.85 C42.25,83.7 42.3,83.55 42.5,83.5 C42.75,83.5 42.95,83.75 42.95,84.05 Z" id="Shape" fill="#4B3F20"/>
          <path d="M39.1,60.25 C39.2,60.55 39.05,60.7 38.8,60.8 C37.85,61.25 36.85,61.45 35.9,61.75 C35.65,61.8 35.35,61.65 35.15,61.5 C35,61.4 35.05,61.2 35.15,61.05 C38.05,60.05 38.05,60.05 39.1,60.25 Z" id="Shape" fill="#FEFBF1"/>
          <path d="M38.85,62.75 C38.95,62.75 39.1,62.75 39.2,62.8 C39.3,62.85 39.35,62.95 39.4,63.05 C39.4,63.1 39.4,63.2 39.35,63.25 C39.25,63.35 39.15,63.4 39.05,63.45 C38,63.75 37,64.15 35.95,64.25 C35.8,64.25 35.65,64.25 35.5,64.2 C35.35,64.15 35.25,64 35.25,63.85 C35.25,63.75 35.35,63.65 35.45,63.55 C35.5,63.5 35.6,63.5 35.65,63.45 C36.55,63.2 37.5,62.95 38.4,62.7 C38.5,62.75 38.65,62.75 38.85,62.75 Z" id="Shape" fill="#120F08"/>
          <path d="M41.15,62.85 C41,62.8 40.9,62.8 40.8,62.75 C40.75,62.7 40.7,62.65 40.65,62.6 C40.6,62.45 40.65,62.35 40.75,62.3 C41,62.05 41.3,62 41.65,62.1 C41.8,62.15 41.95,62.25 41.95,62.4 C42,62.6 41.85,62.7 41.7,62.75 C41.5,62.8 41.3,62.8 41.15,62.85 Z" id="Shape" fill="#1F1A0F"/>
          <path d="M33.45,55.65 C34.5,55 35.7,54.95 36.75,54.65 C37.1,54.55 37.55,54.45 37.85,54.75 C37.9,55 37.8,55.2 37.6,55.25 C36.45,55.7 35.25,56.05 34.05,56.1 C33.85,56.1 33.6,56 33.45,55.65 Z" id="Shape" fill="#FEFCF4"/>
          <path d="M37.25,57.35 C37.3,57.5 37.3,57.7 37.15,57.8 C36.15,58.3 35.1,58.6 34,58.5 C33.9,58.15 33.95,57.95 34.15,57.9 C35.1,57.6 36.05,57.3 37.05,57.25 C37.1,57.25 37.15,57.35 37.25,57.35 Z" id="Shape" fill="#120F09"/>
          <path d="M38.2,57.4 C38.45,56.75 38.9,56.65 39.35,56.55 C39.6,56.5 39.8,56.6 39.9,56.95 C39.5,57.45 39,57.65 38.2,57.4 Z" id="Shape" fill="#3B3017"/>
          <path d="M37.15,69.75 C36.7,69.75 36.4,69.8 36.3,69.45 C36.2,69.2 36.4,68.95 36.85,68.85 C37.75,68.65 38.65,68.45 39.5,68.3 C39.65,68.25 39.8,68.25 39.95,68.25 C40.2,68.25 40.45,68.25 40.55,68.5 C40.65,68.7 40.5,68.9 40.05,69.05 C39.1,69.4 38.05,69.65 37.15,69.75 Z" id="Shape" fill="#0F0D07"/>
          <path d="M37,65.9 C37.45,65.95 37.85,65.9 38.3,65.75 C38.8,65.6 39.35,65.6 39.85,65.7 C39.95,66 39.85,66.15 39.7,66.2 C38.65,66.65 37.55,66.9 36.35,66.85 C36.3,66.85 36.2,66.8 36.15,66.75 C36.05,66.5 36.15,66.4 36.35,66.25 C36.5,66.1 36.9,66.25 37,65.9 Z" id="Shape" fill="#FDF7E7"/>
          <path d="M43.05,68.2 C42.8,68.65 42.35,68.8 41.85,68.7 C41.75,68.7 41.65,68.55 41.6,68.5 C41.55,68.4 41.55,68.25 41.6,68.2 C41.8,68 42.05,67.9 42.3,67.85 C42.55,67.8 42.65,67.85 43.05,68.2 Z" id="Shape" fill="#352C16"/>
          <path d="M48.4,61.65 C48.25,61.6 48.15,61.6 48.05,61.55 C48,61.5 47.95,61.45 47.95,61.35 C47.9,61.15 48.15,60.9 48.5,60.85 C48.7,60.8 48.9,60.85 48.95,61.1 C49,61.25 48.95,61.45 48.8,61.5 C48.7,61.6 48.5,61.6 48.4,61.65 Z" id="Shape" fill="#3C321B"/>
          <path d="M47.5,55.55 C47.45,55.6 47.45,55.7 47.4,55.75 C47.25,55.8 47.1,55.85 46.95,55.85 C46.75,55.85 46.55,55.85 46.55,55.55 C46.55,55.3 46.75,55.1 47,55.1 C47.25,55.15 47.5,55.35 47.5,55.55 Z" id="Shape" fill="#342C17"/>
        </g>
        <g id="Group" transform="translate(18.000000, 28.500000)">
          <path d="M0.7,4.1 C0.3,3.95 0.3,3.65 0.4,3.3 C0.6,2.7 1.05,2.3 1.5,1.9 C2.6,0.95 4.95,1 5.85,1.95 C5.95,2.05 6.05,2.2 6.1,2.35 C6.2,2.5 6,2.75 5.8,2.75 C5.55,2.75 5.35,2.6 5.15,2.5 C4.6,2.25 4,2.1 3.4,2.15 C2.6,2.2 1.95,2.5 1.45,3.15 C1.25,3.55 1.15,4 0.7,4.1 Z" id="Shape" fill="#080808"/>
          <path d="M5.4,11.05 C5.8,10.75 6.1,10.9 6.4,11.05 C8,11.85 9.5,11.6 10.8,10.45 C10.85,10.4 10.9,10.35 11,10.3 C11.15,10.2 11.3,10.2 11.45,10.3 C11.6,10.4 11.65,10.55 11.55,10.7 C11.45,10.9 11.4,11.15 11.2,11.3 C10.15,12.45 7.15,13.1 5.55,11.4 C5.5,11.35 5.5,11.2 5.4,11.05 Z" id="Shape" fill="#0B0B0B"/>
          <path d="M14.8,2.3 C14.6,2.1 14.45,1.95 14.3,1.85 C13.25,1 11.9,0.9 10.7,1.55 C10.35,1.75 10,2.1 9.6,2.1 C9.35,1.9 9.4,1.7 9.5,1.55 C9.65,1.3 9.8,1.05 10.05,0.9 C11.3,0.1 12.65,-0.1 14.05,0.5 C14.5,0.7 14.9,1 15.1,1.4 C15.25,1.75 15.25,1.75 14.8,2.3 Z" id="Shape" fill="#0E0E0E"/>
          <path d="M4.05,4.9 C4.55,4.9 4.85,5.1 5,5.45 C5.15,5.85 5.05,6.4 4.75,6.65 C4.4,7 3.8,6.9 3.5,6.5 C3.35,6.3 3.3,6.1 3.25,5.85 C3.2,5.2 3.45,4.9 4.05,4.9 Z" id="Shape" fill="#090909"/>
          <path d="M13.1,5.15 C13.1,5.45 13,5.75 12.7,5.95 C12.4,6.2 11.95,6.25 11.7,6.05 C11.4,5.85 11.35,5.55 11.4,5.2 C11.4,5.1 11.45,4.95 11.5,4.85 C11.65,4.35 12,4.1 12.5,4.2 C12.95,4.3 13.15,4.6 13.1,5.15 Z" id="Shape" fill="#0E0E0E"/>
        </g>
        <g id="Group" transform="translate(52.500000, 25.000000)">
          <path d="M10,6.35 C10,5.05 10,3.9 10,2.75 C10,2.2 10,1.65 10.25,1.1 C10.3,0.9 10.4,0.7 10.5,0.55 C10.85,0.05 11.3,-1.43288159e-14 11.85,0.35 C11.9,0.35 11.9,0.4 11.95,0.45 C12,0.5 12.05,0.55 12.15,0.6 C12.25,0.5 12.35,0.4 12.5,0.3 C13,-0.1 13.4,-0.1 13.8,0.45 C13.9,0.6 14,0.8 14.1,0.95 C14.2,0.95 14.3,1 14.35,0.95 C14.7,0.7 15.1,0.6 15.45,0.8 C15.85,1 16,1.4 16,1.8 C16.05,2.4 16.05,3 16,3.6 C15.85,4.8 15.7,5.95 15.4,7.15 C15.1,8.35 14.75,9.55 14.6,10.75 C14.4,12.45 14.55,14.15 14.75,15.85 C15.1,18.6 15.4,21.3 15.35,24.1 C15.35,24.9 15.15,25.6 14.75,26.25 C13,28.95 11.3,31.65 9.6,34.3 C9.55,34.35 9.5,34.45 9.45,34.5 C8.2,35.9 7.3,37.55 6.2,39.05 C5.55,39.9 4.9,40.8 3.9,41.3 C3.15,41.65 2.4,41.9 1.6,41.6 C0.7,41.25 0.35,40.7 0.55,39.75 C0.7,38.9 1.2,38.2 1.65,37.5 C3.15,35.1 5,32.95 6.7,30.7 C8.35,28.6 9.6,26.3 11,24.1 C11.2,23.8 11.25,23.5 11.25,23.2 C11.25,23.05 11.25,22.9 11.25,22.7 C11.1,20.85 10.9,18.95 10.75,17.1 C10.6,15.65 10.4,14.25 10.25,12.8 C10.2,12.5 10.15,12.15 10.15,11.85 C10.1,10.95 9.7,10.2 9.05,9.55 C8.35,8.9 7.85,8.05 7.3,7.25 C7.1,6.95 6.95,6.6 7,6.25 C7.1,5.35 8,4.95 8.8,5.45 C9.15,5.75 9.4,6.2 10,6.35 Z M10.8,7.4 C11.3,7.65 11.7,7.75 12.15,7.75 C12.3,7.75 12.45,7.8 12.6,7.85 C12.7,7.9 12.8,8 12.8,8.1 C12.8,8.2 12.75,8.35 12.65,8.4 C12.55,8.5 12.35,8.55 12.2,8.6 C11.3,8.7 10.45,8.55 9.8,7.85 C9.4,7.4 8.95,7 8.5,6.6 C8.4,6.5 8.2,6.45 8.1,6.6 C8.05,6.8 8.1,6.9 8.2,7.05 C8.85,7.85 9.55,8.65 10.25,9.4 C10.8,10 11.15,10.6 11.2,11.4 C11.3,12.45 11.55,13.55 11.65,14.6 C11.9,17 12.1,19.45 12.3,21.9 C12.4,23.25 12.2,24.5 11.4,25.65 C11.05,26.15 10.75,26.75 10.4,27.3 C9.45,28.9 8.4,30.45 7.2,31.95 C6.4,33 5.55,34 4.7,35 C3.65,36.25 2.85,37.7 1.95,39.05 C1.65,39.5 1.35,40 1.65,40.6 C2.5,40.95 3.15,40.65 3.75,40.1 C4.35,39.55 4.9,38.9 5.4,38.2 C6.1,37.2 6.85,36.2 7.5,35.15 C8.1,34.2 8.9,33.4 9.45,32.45 C9.85,31.75 10.3,31.1 10.7,30.4 C11.6,29 12.5,27.65 13.35,26.3 C13.85,25.55 14.15,24.75 14.1,23.85 C14,22 14.05,20.1 13.7,18.25 C13.5,17.05 13.4,15.85 13.3,14.7 C13.15,13 13.15,11.25 13.6,9.6 C14.3,7.2 14.75,4.8 15.1,2.35 C15.15,2.1 15.1,1.85 14.75,1.75 C14.35,2.4 14.5,3.2 14.3,3.95 C14.1,4.7 14.1,5.5 13.8,6.15 C13.55,6.25 13.4,6.2 13.25,6.05 C13.1,5.9 13.05,5.7 13.1,5.5 C13.3,4.45 13.25,3.35 13.2,2.25 C13.2,1.9 13.15,1.55 12.9,1.35 C12.6,1.5 12.6,1.7 12.6,1.9 C12.55,2.7 12.55,3.5 12.5,4.3 C12.45,4.8 12.4,5.25 12.35,5.75 C12.3,6 12.2,6.2 11.9,6.2 C11.6,6.2 11.5,5.95 11.45,5.7 C11.4,5.45 11.4,5.2 11.4,5 C11.4,4.1 11.35,3.15 11.35,2.25 C11.35,2 11.45,1.7 11.15,1.5 C10.85,1.55 10.85,1.75 10.85,1.95 C10.85,2.7 10.8,3.45 10.85,4.25 C11,5.2 11,6.25 10.8,7.4 Z" id="Shape" fill="#010101"/>
          <path d="M10.8,7.4 C11,6.25 11,5.2 10.95,4.1 C10.9,3.35 10.95,2.6 10.95,1.8 C10.95,1.6 10.95,1.4 11.25,1.35 C11.55,1.55 11.45,1.85 11.45,2.1 C11.5,3 11.5,3.95 11.5,4.85 C11.5,5.1 11.5,5.35 11.55,5.55 C11.6,5.8 11.65,6.05 12,6.05 C12.3,6.05 12.4,5.85 12.45,5.6 C12.5,5.1 12.55,4.65 12.6,4.15 C12.65,3.35 12.65,2.55 12.7,1.75 C12.7,1.55 12.7,1.35 13,1.2 C13.3,1.45 13.3,1.8 13.3,2.1 C13.35,3.2 13.4,4.25 13.2,5.35 C13.15,5.55 13.25,5.75 13.35,5.9 C13.45,6 13.6,6.1 13.9,6 C14.2,5.35 14.2,4.55 14.4,3.8 C14.6,3.1 14.45,2.3 14.85,1.6 C15.2,1.75 15.25,1.95 15.2,2.2 C14.85,4.65 14.4,7.1 13.7,9.45 C13.2,11.15 13.25,12.85 13.4,14.55 C13.5,15.75 13.6,16.95 13.8,18.1 C14.1,19.95 14.05,21.85 14.2,23.7 C14.25,24.6 13.95,25.4 13.45,26.15 C12.55,27.5 11.65,28.9 10.8,30.25 C10.35,30.9 9.95,31.6 9.55,32.3 C8.95,33.25 8.2,34.05 7.6,35 C6.95,36.05 6.2,37.05 5.5,38.05 C5,38.75 4.45,39.4 3.85,39.95 C3.25,40.5 2.6,40.8 1.75,40.45 C1.45,39.85 1.75,39.35 2.05,38.9 C3,37.55 3.8,36.15 4.8,34.85 C5.65,33.85 6.45,32.8 7.3,31.8 C8.45,30.35 9.5,28.75 10.5,27.15 C10.85,26.6 11.1,26.05 11.5,25.5 C12.3,24.35 12.5,23.1 12.4,21.75 C12.2,19.3 12,16.9 11.75,14.45 C11.65,13.4 11.4,12.3 11.3,11.25 C11.2,10.45 10.85,9.85 10.35,9.25 C9.65,8.5 9,7.7 8.3,6.9 C8.2,6.8 8.1,6.65 8.2,6.45 C8.3,6.3 8.5,6.3 8.6,6.45 C9.05,6.85 9.5,7.25 9.9,7.7 C10.6,8.4 11.4,8.55 12.3,8.45 C12.45,8.45 12.6,8.35 12.75,8.25 C12.85,8.2 12.9,8.05 12.9,7.95 C12.9,7.85 12.8,7.7 12.7,7.7 C12.55,7.65 12.4,7.6 12.25,7.6 C11.7,7.75 11.3,7.65 10.8,7.4 Z" id="Shape" fill="#FEC841"/>
        </g>
      </g>
    </g>
  </g>
</svg>