<svg width="80px" height="139px" viewBox="0 0 80 139" version="1.1" xml:space="preserve" xmlns="http://www.w3.org/2000/svg" xmlns:xlink="http://www.w3.org/1999/xlink">
  <defs/>
  <g>
    <title>drum-snare-c</title>
    <desc>Created with Sketch.</desc>
    <g id="music" stroke="none" stroke-width="1" fill="none" fill-rule="evenodd">
      <g id="drum-snare-c" fill-rule="nonzero">
        <g id="Group" transform="translate(3.000000, 8.000000)">
          <path d="M14.15,6.55 C16.3,5.75 18.4,5 20.5,4.2 C22.85,3.35 25.2,2.45 27.6,1.6 C27.95,1.45 28.25,1.3 28.45,1 C28.75,0.5 29.25,0.3 29.8,0.4 C30.35,0.5 30.75,0.75 30.95,1.3 C31.1,1.85 31,2.45 30.6,2.7 C30.15,3 29.65,3.35 29.05,3 C28.9,2.9 28.8,2.85 28.6,2.7 C24.05,4.7 19.45,6.65 14.8,8.5 C14.8,8.5 14.8,8.55 14.85,8.6 C15.65,9.8 15.35,10.85 14.5,11.9 C14.05,12.4 13.5,12.8 12.95,13.2 C11.7,14.1 11.65,14.1 11.4,15.55 C11.15,16.75 10.9,17.9 10.5,19 C10.4,19.25 10.4,19.45 10.35,19.7 C10,21.5 9.55,23.3 9.05,25.05 C8.75,26 8.75,27 8.5,28 C8.2,29.05 8,30.1 7.75,31.15 C7.1,34.2 6.55,37.25 6.1,40.3 C5.9,41.65 5.85,43 5.85,44.4 C6.1,44.8 6.5,45.1 6.85,45.4 C9.05,47.3 11.5,48.9 13.95,50.45 C15.45,51.4 16.95,52.4 18.45,53.4 C20.15,54.45 21.85,55.5 23.55,56.55 C26.4,58.35 29.35,60.05 32.3,61.7 C32.85,62 33.4,62.4 33.9,62.75 C34.75,63.4 35,64.25 34.75,65.3 C34.4,66.55 33.5,67 32.65,67.15 C31.9,67.25 31.2,67.15 30.6,66.75 C30.05,66.4 29.55,66.05 29,65.75 C26.55,64.3 24.1,62.75 21.75,61.15 C20.1,60.05 18.4,58.95 16.75,57.9 C14.55,56.5 12.5,54.95 10.4,53.45 C8.25,51.9 6.1,50.25 3.95,48.65 C3.2,48.1 2.5,47.5 1.8,46.95 C1.25,46.55 1,45.9 0.55,45.35 C0.35,45.1 0.45,44.65 0.5,44.3 C0.85,42.05 1.2,39.8 1.55,37.55 C2.1,34.25 2.9,31 3.8,27.75 C4.85,24.05 6.05,20.45 7.45,16.85 C7.8,15.9 8.1,14.95 7.8,13.8 C7.25,13.5 6.95,12.85 6.75,12.1 C6.1,12.15 5.6,12.45 5.05,12.65 C4.75,12.75 4.45,12.85 4.15,12.75 C3.3,12.4 3.2,11.5 3.9,10.95 C4.1,10.8 4.3,10.7 4.55,10.6 C5.05,10.35 5.55,10.15 6.1,9.9 C6.55,9.7 6.85,9.4 6.8,8.9 C6.75,7.95 7.25,7.4 7.95,6.95 C8.9,6.35 9.95,5.9 11,5.65 C11.75,5.45 12.5,5.55 13.25,5.65 C13.45,5.85 13.8,6.15 14.15,6.55 Z M8.65,13.6 C8.7,14.85 8.35,16.15 7.95,17.4 C7.6,18.5 7.2,19.6 6.9,20.7 C6.55,21.85 6.3,23 5.85,24.15 C5.55,24.95 5.25,25.8 5.1,26.65 C4.8,28 4.4,29.35 4,30.7 C3.8,31.35 3.5,31.95 3.35,32.6 C2.9,34.65 2.5,36.75 2.15,38.8 C1.85,40.55 1.7,42.35 1.55,44.15 C1.5,45.05 1.75,45.7 2.35,46.25 C2.95,46.8 3.6,47.2 4.25,47.7 C5.75,48.85 7.2,50 8.75,51.1 C11.1,52.75 13.3,54.55 15.75,56.1 C17.5,57.25 19.2,58.55 21.05,59.6 C22.05,60.15 23.05,60.75 24,61.4 C26.25,63 28.7,64.25 30.95,65.8 C31.25,66 31.6,66.05 31.95,66.1 C32.55,66.15 33.05,66 33.35,65.45 C33.7,64.85 33.7,64.45 33.25,63.95 C32.95,63.7 32.65,63.45 32.3,63.25 C30.7,62.3 29.05,61.4 27.5,60.35 C27.3,60.2 27.1,60.1 26.85,60 C24.75,58.85 22.7,57.65 20.7,56.35 C18.65,55 16.55,53.65 14.5,52.3 C12,50.7 9.55,49.1 7.2,47.3 C6.55,46.8 5.9,46.25 5.35,45.6 C4.85,45.05 4.45,44.5 4.7,43.65 C4.75,43.45 4.75,43.25 4.75,43.05 C4.7,40.35 5.1,37.7 5.65,35.1 C6.1,32.8 6.75,30.55 7.25,28.25 C7.45,27.3 7.55,26.35 7.8,25.45 C8.2,23.65 8.7,21.9 9.1,20.1 C9.55,18.1 10.25,16.2 10.6,14.2 C10.7,13.55 11.1,13.15 11.65,12.85 C12,12.65 12.3,12.4 12.65,12.2 C13.3,11.8 13.75,11.25 14.05,10.6 C14.4,9.9 14.25,9.35 13.5,9.05 C12.95,8.85 12.4,8.75 11.85,8.85 C11.55,8.9 11.25,9 11.05,9.3 C11.2,9.85 11.5,10.15 12.05,10.2 C12.25,10.2 12.45,10.15 12.6,10.3 C12.7,10.4 12.85,10.55 12.8,10.7 C12.75,10.85 12.65,11 12.5,11.05 C12.4,11.1 12.25,11.1 12.15,11.1 C11.6,10.95 11.15,11.15 10.7,11.45 C10.35,11.7 10.05,11.9 9.6,11.95 C9.3,12 8.95,12.05 8.65,12.1 C8.2,12.15 7.85,11.85 7.4,11.75 C7.45,12.8 8.25,13 8.65,13.6 Z M13.15,7.95 C13.25,7.35 13.05,7.05 12.55,6.9 C12.1,6.75 11.6,6.7 11.15,6.85 C9.95,7.2 8.75,7.65 7.75,8.45 C7.55,9.15 7.65,9.8 7.9,10.45 C8.1,10.9 8.45,11.15 8.95,11.1 C9.5,11.1 10.05,10.95 10.5,10.65 C10.55,10.35 10.35,10.2 10.3,9.95 C10,9.1 10.3,8.45 11.15,8.15 C11.45,8.05 11.75,8 12.1,7.95 C12.35,7.9 12.75,7.95 13.15,7.95 Z" id="Shape" fill="#010101"/>
          <path d="M8.65,13.6 C8.25,13 7.45,12.8 7.5,11.85 C7.95,11.95 8.3,12.25 8.75,12.2 C9.05,12.15 9.4,12.1 9.7,12.05 C10.1,12 10.45,11.75 10.8,11.55 C11.25,11.25 11.7,11.05 12.25,11.2 C12.35,11.25 12.5,11.2 12.6,11.15 C12.7,11.05 12.85,10.9 12.9,10.8 C12.95,10.65 12.85,10.5 12.7,10.4 C12.55,10.25 12.35,10.3 12.15,10.3 C11.6,10.3 11.3,9.95 11.15,9.4 C11.3,9.1 11.6,9 11.95,8.95 C12.5,8.85 13.05,8.95 13.6,9.15 C14.3,9.45 14.5,9.95 14.15,10.7 C13.8,11.35 13.35,11.9 12.75,12.3 C12.4,12.5 12.1,12.75 11.75,12.95 C11.15,13.25 10.8,13.7 10.7,14.3 C10.35,16.3 9.65,18.2 9.2,20.2 C8.8,22 8.3,23.75 7.9,25.55 C7.7,26.5 7.6,27.45 7.35,28.35 C6.8,30.65 6.2,32.9 5.75,35.2 C5.2,37.8 4.8,40.45 4.85,43.15 C4.85,43.35 4.85,43.55 4.8,43.75 C4.55,44.55 4.95,45.15 5.45,45.7 C6,46.3 6.65,46.85 7.3,47.4 C9.65,49.15 12.1,50.8 14.6,52.4 C16.7,53.75 18.75,55.05 20.8,56.45 C22.8,57.75 24.85,59 26.95,60.1 C27.15,60.2 27.4,60.3 27.6,60.45 C29.15,61.5 30.8,62.4 32.4,63.35 C32.75,63.55 33.05,63.8 33.35,64.05 C33.85,64.5 33.85,64.95 33.45,65.55 C33.1,66.1 32.65,66.3 32.05,66.2 C31.7,66.15 31.35,66.1 31.05,65.9 C28.8,64.35 26.3,63.1 24.1,61.5 C23.15,60.8 22.15,60.25 21.15,59.7 C19.3,58.65 17.65,57.35 15.85,56.2 C13.45,54.65 11.2,52.85 8.85,51.2 C7.35,50.1 5.85,48.95 4.35,47.8 C3.7,47.3 3.05,46.9 2.45,46.35 C1.8,45.75 1.55,45.15 1.65,44.25 C1.8,42.45 1.95,40.65 2.25,38.9 C2.6,36.8 3,34.75 3.45,32.7 C3.6,32.05 3.9,31.4 4.1,30.8 C4.5,29.45 4.9,28.15 5.2,26.75 C5.4,25.9 5.65,25.05 5.95,24.25 C6.4,23.15 6.65,21.95 7,20.8 C7.3,19.7 7.7,18.6 8.05,17.5 C8.35,16.15 8.75,14.85 8.65,13.6 Z" id="Shape" fill="#D0E9EA"/>
          <path d="M13.15,7.95 C12.7,7.95 12.35,7.95 12,7.95 C11.7,8 11.35,8.05 11.05,8.15 C10.2,8.45 9.95,9.1 10.2,9.95 C10.25,10.15 10.5,10.35 10.4,10.65 C9.95,11 9.4,11.1 8.85,11.1 C8.35,11.1 8,10.9 7.8,10.45 C7.55,9.8 7.45,9.15 7.65,8.45 C8.65,7.6 9.85,7.2 11.05,6.85 C11.5,6.7 12,6.8 12.45,6.9 C13.1,7 13.3,7.3 13.15,7.95 Z" id="Shape" fill="#CDE5E6"/>
        </g>
        <g id="Group" transform="translate(38.500000, 14.500000)">
          <path d="M4.5,54.1 C6.15,53 7.8,51.95 9.45,50.8 C11.7,49.2 14,47.75 16.15,45.95 C18.8,43.75 21.35,41.35 23.75,38.9 C24.3,38.35 24.85,37.75 25.45,37.2 C26.2,36.5 26.5,35.55 26.5,34.6 C26.5,33.4 26.6,32.2 26.65,31 C26.95,26.95 27,22.85 27,18.8 C27,17.55 27.15,16.35 27.15,15.1 C27.15,13.1 27.1,11.1 27.05,9.1 C26.05,8.55 25.1,7.95 24.5,7 C23.9,6.05 23.8,5 23.7,3.85 C18.85,3.25 13.95,2.7 9.05,2.1 C8.7,2.45 8.4,2.9 7.8,2.85 C7.15,2.8 6.75,2.5 6.5,1.95 C6.3,1.4 6.4,0.95 6.8,0.5 C7.25,0.05 7.85,-0.15 8.3,0.15 C9.15,0.75 10.1,0.7 11.05,0.8 C13.7,1 16.4,1.15 19.05,1.35 C20.75,1.45 22.45,1.6 24.2,1.75 C24.45,1.75 24.7,1.75 24.9,1.75 C25.95,0.6 27.35,0.45 28.75,0.7 C30.05,0.9 31.35,1.3 32.25,2.4 C32.45,2.65 32.75,2.75 33.1,2.8 C33.65,2.85 34.2,2.95 34.75,3 C34.9,3 35.05,3.05 35.2,3.05 C35.7,3.2 36.15,3.8 36.05,4.2 C35.95,4.75 35.4,5.15 34.85,5.15 C34.25,5.1 33.65,4.95 33,5 C32.85,5.5 32.65,6 32.55,6.55 C32.35,7.4 32,8.15 31.4,8.75 C31.2,8.95 31.1,9.2 31.15,9.5 C31.5,12.45 31.5,15.4 31.65,18.35 C31.75,20.1 31.6,21.85 31.7,23.6 C31.85,25.7 31.8,27.85 31.8,29.95 C31.8,31.15 31.75,32.35 31.7,33.55 C31.7,34.05 31.7,34.6 31.7,35.1 C31.65,36.2 31.15,37.1 30.6,38 C30,39.05 29.25,40.05 28.25,40.85 C27.6,41.35 27.1,41.95 26.5,42.5 C24.6,44.2 22.65,45.85 20.75,47.55 C18.25,49.7 15.75,51.9 13.1,53.85 C11.1,55.35 9.05,56.8 7,58.25 C6.9,58.3 6.8,58.3 6.65,58.35 C6.3,58.2 6.05,57.95 5.85,57.65 C7.55,56.45 9.25,55.15 10.95,53.95 C12.8,52.6 14.6,51.1 16.4,49.65 C17.75,48.55 19.1,47.4 20.4,46.25 C21.75,45.1 23.1,44 24.35,42.8 C25.55,41.65 26.85,40.6 28.1,39.45 C29.1,38.5 29.9,37.45 30.3,36.1 C30.55,35.25 30.6,34.4 30.6,33.5 C30.55,31.4 30.6,29.25 30.6,27.15 C30.55,24.25 30.4,21.35 30.35,18.4 C30.3,17.25 30.4,16.1 30.35,14.95 C30.3,13.05 30.15,11.15 30,9.2 C29.95,8.7 30.05,8.3 30.55,8 C31.25,7.55 31.3,7.25 31.35,6.45 C31.25,6.45 31.1,6.45 31,6.5 C29.95,7 28.9,6.9 27.85,6.7 C27.05,6.55 26.45,6 25.85,5.45 C25.65,5.3 25.8,4.9 26.05,4.9 C26.25,4.85 26.45,4.9 26.65,4.9 C27.1,4.9 27.6,4.85 28.05,4.8 C28.25,4.8 28.4,4.65 28.4,4.4 C28.4,4.25 28.3,4.1 28.15,4.05 C27.05,3.5 25.95,3.5 24.85,4.05 C24.6,6.1 25.15,7.1 26.85,8 C26.9,8.05 27,8.05 27.05,8.1 C27.8,8.35 28.05,8.95 28,9.6 C27.95,10.5 28.1,11.35 28.1,12.2 C28.05,14.2 28.1,16.2 28.1,18.2 C28.1,19.65 28.1,21.05 28.1,22.5 C28.05,23.75 27.95,25.05 27.9,26.3 C27.85,28.35 27.85,30.45 27.8,32.55 C27.8,33.7 27.6,34.85 27.35,36 C27.2,36.75 26.85,37.4 26.25,37.95 C25.6,38.55 24.9,39.2 24.3,39.9 C22.4,41.95 20.3,43.8 18.15,45.55 C15.95,47.35 13.7,49.05 11.45,50.75 C9.45,52.3 7.35,53.65 5.25,55 C4.85,55.05 4.55,54.9 4.2,54.7 C4.4,54.4 4.45,54.25 4.5,54.1 Z M28.65,5.5 C29.15,5.7 29.55,5.65 29.95,5.6 C30.5,5.55 31,5.3 31.4,4.85 C32.1,4.05 32.05,3.25 31.15,2.6 C31,2.5 30.9,2.4 30.75,2.35 C29.8,2.05 28.9,1.7 27.9,1.6 C27.4,1.55 26.85,1.65 26.4,1.85 C26.2,1.95 26,2.1 26.1,2.45 C26.4,2.45 26.7,2.45 27,2.45 C27.75,2.4 28.4,2.75 29,3.15 C29.75,3.65 29.75,4.55 29,5.1 C28.95,5.25 28.85,5.3 28.65,5.5 Z" id="Shape" fill="#010101"/>
          <path d="M5.95,57.6 C6.15,57.9 6.4,58.15 6.75,58.3 C6,59.5 4.8,60 3.55,60.45 C2.7,60.75 1.8,60.55 1,60.15 C0.65,60 0.45,59.7 0.4,59.3 C0.3,58.5 0.4,57.7 0.95,57.05 C1.95,55.85 3.1,54.85 4.5,54.15 C4.45,54.3 4.4,54.45 4.4,54.6 C4.7,54.8 5.05,55 5.45,54.9 C4.5,55.7 3.6,56.5 2.65,57.25 C2.1,57.7 1.7,58.2 1.45,58.9 C1.6,59 1.7,59.15 1.8,59.2 C2.6,59.45 3.4,59.3 4.05,58.8 C4.65,58.35 5.3,57.9 5.95,57.6 Z" id="Shape" fill="#121313"/>
          <path d="M5.95,57.6 C5.25,57.95 4.65,58.35 4.05,58.8 C3.35,59.3 2.6,59.45 1.8,59.2 C1.65,59.15 1.55,59 1.45,58.9 C1.65,58.2 2.1,57.7 2.65,57.25 C3.6,56.45 4.55,55.65 5.45,54.9 C7.6,53.55 9.7,52.2 11.65,50.65 C13.9,48.9 16.15,47.2 18.35,45.45 C20.5,43.7 22.6,41.85 24.5,39.8 C25.1,39.15 25.8,38.5 26.45,37.85 C27.05,37.3 27.4,36.65 27.55,35.9 C27.8,34.75 28,33.65 28,32.45 C28,30.35 28.05,28.3 28.1,26.2 C28.15,24.95 28.25,23.65 28.3,22.4 C28.35,20.95 28.3,19.55 28.3,18.1 C28.3,16.1 28.25,14.1 28.3,12.1 C28.3,11.2 28.15,10.35 28.2,9.5 C28.2,8.85 27.95,8.25 27.25,8 C27.15,8 27.1,7.95 27.05,7.9 C25.35,7.05 24.8,6 25.05,3.95 C26.15,3.45 27.25,3.45 28.35,3.95 C28.5,4.05 28.6,4.15 28.6,4.3 C28.6,4.55 28.45,4.65 28.25,4.7 C27.8,4.75 27.3,4.75 26.85,4.8 C26.65,4.8 26.45,4.8 26.25,4.8 C26,4.85 25.9,5.2 26.05,5.35 C26.6,5.9 27.2,6.45 28.05,6.6 C29.1,6.8 30.2,6.9 31.2,6.4 C31.3,6.35 31.45,6.35 31.55,6.35 C31.55,7.15 31.45,7.45 30.75,7.9 C30.25,8.2 30.15,8.6 30.2,9.1 C30.35,11 30.45,12.9 30.55,14.85 C30.6,16 30.5,17.15 30.55,18.3 C30.6,21.2 30.75,24.1 30.8,27.05 C30.85,29.15 30.75,31.3 30.8,33.4 C30.8,34.3 30.75,35.15 30.5,36 C30.1,37.35 29.35,38.45 28.3,39.35 C27.05,40.5 25.75,41.5 24.55,42.7 C23.3,43.9 21.9,45 20.6,46.15 C19.25,47.3 17.95,48.45 16.6,49.55 C14.8,51 13.05,52.5 11.15,53.85 C9.35,55.1 7.7,56.4 5.95,57.6 Z" id="Shape" fill="#D0E9EA"/>
          <path d="M28.65,5.5 C28.85,5.35 28.95,5.25 29,5.2 C29.7,4.65 29.7,3.7 29,3.25 C28.4,2.85 27.75,2.55 27,2.55 C26.7,2.55 26.4,2.55 26.1,2.55 C26,2.2 26.2,2.05 26.4,1.95 C26.9,1.75 27.4,1.65 27.9,1.7 C28.9,1.75 29.85,2.1 30.75,2.45 C30.9,2.5 31.05,2.6 31.15,2.7 C32,3.35 32.1,4.1 31.4,4.95 C31,5.4 30.55,5.65 29.95,5.7 C29.55,5.65 29.15,5.7 28.65,5.5 Z" id="Shape" fill="#CAE2E3"/>
        </g>
        <g id="Group" transform="translate(38.000000, 76.000000)">
          <path d="M9.65,60 C9.45,60 9.35,60 9.25,60 C8.55,59.9 8.2,59.4 8.4,58.7 C8.45,58.5 8.55,58.3 8.65,58.15 C9,57.65 9.3,57.1 9.7,56.7 C10.4,55.9 10.9,55 11.25,54.05 C11.7,52.85 11.75,51.6 11.4,50.4 C10.8,48.3 10.05,46.25 9.2,44.2 C8.4,42.25 7.55,40.3 6.75,38.35 C6.3,37.2 6,36 5.55,34.85 C4.85,33.15 4.3,31.4 3.6,29.7 C3.15,28.55 2.85,27.35 2.7,26.1 C2.5,24.5 2.25,22.85 2.1,21.25 C1.8,18.35 1.6,15.45 1.3,12.55 C1.1,10.3 1,8 0.6,5.75 C0.45,4.8 0.35,3.85 0.25,2.9 C0.2,2.55 0.2,2.2 0.55,1.95 C0.8,1.7 0.95,1.35 1.15,1.1 C1.75,0.4 2.6,0.2 3.45,0.55 C4.6,1 5.25,1.85 5.55,3 C5.65,3.4 5.7,3.8 5.7,4.2 C5.9,6.6 6.15,9.05 6.3,11.45 C6.45,13.25 6.55,15.05 6.7,16.8 C6.75,17.6 6.9,18.4 7,19.2 C7.25,21.2 7.5,23.15 7.65,25.15 C7.7,26 7.85,26.8 8.15,27.6 C8.6,28.85 9.1,30.15 9.6,31.4 C10.45,33.55 11.25,35.7 12.1,37.85 C12.3,38.4 12.6,38.95 12.85,39.5 C14.1,42.15 15.2,44.9 16.4,47.6 C17.3,49.65 18.05,51.85 19.4,53.7 C19.85,54.35 19.7,55.15 19.05,55.6 C18.35,56.1 17.6,56.45 16.9,56.9 C16.1,57.35 15.3,57.8 14.5,58.3 C13.2,59.2 11.7,59.6 10.2,60 C10,59.95 9.8,60 9.65,60 Z M9.6,58.75 C10.85,58.55 11.8,58.25 12.75,57.75 C14.15,57 15.55,56.25 16.95,55.45 C17.2,55.3 17.45,55.2 17.65,55 C18.1,54.6 18.3,54 18.05,53.5 C17.3,52.1 16.6,50.7 16,49.2 C14.8,46.35 13.45,43.55 12.2,40.7 C11.3,38.6 10.35,36.55 9.55,34.45 C8.8,32.55 8.3,30.6 7.35,28.8 C7.3,28.75 7.3,28.65 7.3,28.55 C6.75,26.3 6.2,24.05 6.25,21.7 C6.25,21.55 6.25,21.4 6.25,21.2 C5.75,18.3 5.55,15.35 5.3,12.4 C5.05,9.45 4.8,6.5 4.6,3.6 C4.55,3.2 4.4,2.8 4.3,2.45 C4.1,1.95 3.7,1.6 3.15,1.45 C2.5,1.25 1.9,1.55 1.6,2.15 C1.45,2.45 1.5,2.75 1.45,3.1 C1.4,4.05 1.65,4.95 1.8,5.85 C2.25,8.7 2.4,11.55 2.7,14.4 C2.85,15.85 2.95,17.25 3.1,18.7 C3.2,20.1 3.35,21.5 3.4,22.85 C3.55,25.15 3.95,27.4 4.8,29.6 C5.55,31.55 6.3,33.55 7.05,35.55 C7.5,36.8 7.95,38.1 8.45,39.35 C8.7,40 9.05,40.65 9.35,41.3 C9.9,42.75 10.4,44.2 11,45.65 C11.75,47.4 12.25,49.15 12.65,51 C12.8,51.65 12.8,52.35 12.9,53 C12.9,53.15 12.85,53.3 12.8,53.45 C12.25,54.7 11.7,55.95 10.9,57.05 C10.45,57.55 9.95,57.95 9.6,58.75 Z" id="Shape" fill="#010101"/>
          <path d="M9.6,58.75 C9.95,57.95 10.45,57.55 10.85,57.05 C11.7,55.95 12.2,54.7 12.75,53.45 C12.8,53.3 12.9,53.15 12.85,53 C12.8,52.35 12.75,51.65 12.6,51 C12.2,49.2 11.7,47.4 10.95,45.65 C10.35,44.25 9.85,42.75 9.3,41.3 C9.05,40.65 8.65,40 8.4,39.35 C7.9,38.1 7.45,36.8 7,35.55 C6.25,33.55 5.5,31.6 4.75,29.6 C3.9,27.45 3.5,25.2 3.35,22.85 C3.25,21.45 3.15,20.05 3.05,18.7 C2.95,17.25 2.8,15.85 2.65,14.4 C2.35,11.55 2.2,8.7 1.75,5.85 C1.6,4.95 1.35,4.05 1.4,3.1 C1.4,2.8 1.4,2.45 1.55,2.15 C1.85,1.5 2.45,1.2 3.1,1.45 C3.6,1.6 4.05,1.95 4.25,2.45 C4.4,2.8 4.55,3.2 4.55,3.6 C4.75,6.55 5,9.5 5.25,12.4 C5.5,15.35 5.7,18.3 6.2,21.2 C6.25,21.35 6.2,21.5 6.2,21.7 C6.1,24.05 6.65,26.3 7.25,28.55 C7.25,28.65 7.3,28.7 7.3,28.8 C8.2,30.6 8.75,32.6 9.5,34.45 C10.3,36.55 11.25,38.65 12.15,40.7 C13.4,43.55 14.75,46.35 15.95,49.2 C16.55,50.65 17.25,52.1 18,53.5 C18.25,54 18.1,54.6 17.6,55 C17.4,55.2 17.15,55.3 16.9,55.45 C15.5,56.2 14.1,57 12.7,57.75 C11.8,58.25 10.8,58.55 9.6,58.75 Z" id="Shape" fill="#D0E9EA"/>
        </g>
        <g id="Group" transform="translate(19.500000, 77.000000)">
          <path d="M5.05,48.95 C5.1,47.25 5.2,45.55 5.35,43.8 C5.5,41.8 5.5,39.85 5.65,37.85 C5.8,35.65 6,33.5 6.2,31.3 C6.3,29.95 6.4,28.6 6.65,27.25 C7,25.45 7.1,23.6 7.65,21.85 C8.25,20.1 8.7,18.35 9.25,16.6 C10.05,14.05 10.95,11.55 11.95,9.1 C12.8,7.05 13.5,4.9 14.25,2.8 C14.5,2.05 14.9,1.35 15.5,0.8 C16.15,0.2 17,0.1 17.75,0.35 C18.6,0.6 19.1,1.3 19.25,2.2 C19.3,2.45 19.2,2.65 19.15,2.9 C18.4,5.15 17.75,7.5 16.85,9.7 C15.65,12.55 14.65,15.4 13.65,18.3 C12.8,20.75 12.05,23.2 11.45,25.75 C11.05,27.45 10.9,29.15 10.9,30.85 C10.8,34.4 10.65,37.95 10.65,41.5 C10.65,44.35 10.7,47.2 10.7,50.1 C10.7,51.4 10.6,52.65 10.65,53.95 C10.65,54.75 10.75,55.55 10.8,56.35 C10.85,56.9 10.65,57.25 10.15,57.5 C9.6,57.75 9.05,58 8.45,58.05 C7,58.15 5.5,58.4 4.05,58.7 C3.3,58.85 2.55,58.85 1.8,58.8 C1.5,58.8 1.15,58.75 0.85,58.6 C-2.6786906e-13,58.15 -0.2,57.4 0.4,56.65 C0.75,56.2 1.15,55.7 1.65,55.35 C2.45,54.75 3.2,54.1 4.05,53.55 C4.75,53.1 5.1,52.45 5.1,51.65 C5.1,50.7 5.05,49.85 5.05,48.95 Z M1.2,57.5 C1.75,57.6 2.2,57.7 2.7,57.6 C3.35,57.5 4.05,57.4 4.7,57.3 C5.85,57.1 7,56.95 8.15,56.8 C9.1,56.7 9.45,56.4 9.5,55.45 C9.55,54.55 9.65,53.6 9.55,52.7 C9.4,50.9 9.5,49.15 9.45,47.35 C9.4,45.7 9.5,44 9.4,42.35 C9.35,40.65 9.4,38.9 9.45,37.2 C9.45,36.65 9.45,36.1 9.45,35.55 C9.55,34.05 9.7,32.55 9.75,31 C9.85,28.85 10,26.7 10.65,24.6 C11.2,22.75 11.75,20.95 12.3,19.1 C12.95,16.95 13.65,14.75 14.45,12.65 C15.3,10.45 16.15,8.25 16.95,6.05 C17.3,5.15 17.55,4.25 17.85,3.35 C18,3 18.05,2.65 18.05,2.3 C17.95,1.55 17.35,1.15 16.6,1.35 C16.1,1.5 15.8,1.85 15.6,2.3 C15.35,2.9 15.15,3.45 14.9,4.05 C14.25,5.7 13.65,7.4 13,9.05 C12.25,10.9 11.55,12.75 11,14.7 C10.95,14.95 10.85,15.15 10.7,15.35 C10.45,15.6 10.4,15.9 10.35,16.2 C10.25,16.6 10.15,16.95 10.05,17.35 C9.55,19.05 9,20.8 8.55,22.5 C8.45,22.9 8.4,23.35 8.3,23.8 C8.15,24.8 7.95,25.85 7.85,26.85 C7.65,28.45 7.45,30.1 7.3,31.7 C7.05,34.75 6.85,37.8 6.65,40.85 C6.6,41.65 6.5,42.45 6.55,43.25 C6.6,44.35 6.5,45.5 6.45,46.6 C6.4,48.35 6.25,50.1 6.25,51.85 C6.25,52.65 6,53.4 5.3,53.95 C4.35,54.7 3.55,55.55 2.4,56.05 C1.85,56.4 1.4,56.75 1.2,57.5 Z" id="Shape" fill="#010101"/>
          <path d="M1.2,57.5 C1.4,56.75 1.85,56.4 2.35,56.15 C3.45,55.65 4.3,54.75 5.25,54.05 C5.95,53.5 6.2,52.75 6.2,51.95 C6.2,50.2 6.3,48.45 6.4,46.7 C6.45,45.6 6.5,44.5 6.5,43.35 C6.5,42.55 6.55,41.75 6.6,40.95 C6.8,37.9 7,34.85 7.25,31.8 C7.4,30.15 7.6,28.55 7.8,26.95 C7.95,25.9 8.1,24.9 8.25,23.9 C8.3,23.45 8.35,23.05 8.5,22.6 C9,20.9 9.5,19.15 10,17.45 C10.1,17.05 10.25,16.7 10.3,16.3 C10.35,16 10.45,15.7 10.65,15.45 C10.8,15.3 10.9,15.05 10.95,14.8 C11.5,12.85 12.25,11 12.95,9.15 C13.6,7.5 14.25,5.8 14.85,4.15 C15.1,3.55 15.3,2.95 15.55,2.4 C15.75,1.95 16.05,1.6 16.55,1.45 C17.3,1.2 17.95,1.6 18,2.4 C18.05,2.75 17.95,3.1 17.8,3.45 C17.5,4.35 17.2,5.25 16.9,6.15 C16.1,8.35 15.25,10.55 14.4,12.75 C13.6,14.85 12.9,17.05 12.25,19.2 C11.7,21.05 11.15,22.85 10.6,24.7 C10,26.8 9.8,28.9 9.7,31.1 C9.65,32.6 9.5,34.1 9.4,35.65 C9.35,36.2 9.4,36.75 9.4,37.3 C9.35,39 9.3,40.75 9.35,42.45 C9.4,44.1 9.35,45.8 9.4,47.45 C9.45,49.25 9.3,51 9.5,52.8 C9.6,53.7 9.45,54.65 9.45,55.55 C9.4,56.45 9.1,56.75 8.1,56.9 C6.95,57.05 5.8,57.2 4.65,57.4 C4,57.5 3.3,57.6 2.65,57.7 C2.2,57.7 1.75,57.6 1.2,57.5 Z" id="Shape" fill="#D0E9EA"/>
        </g>
        <g id="Group" transform="translate(17.500000, 19.000000)">
          <path d="M18.75,56 C18.9,48.05 18.8,40.1 18.8,32.1 C18.25,32.05 17.8,32 17.35,32 C15.9,32.1 14.5,31.9 13.05,31.7 C11.8,31.55 10.5,31.4 9.25,31.15 C7.9,30.9 6.65,30.45 5.35,30.05 C4.75,29.85 4.15,29.6 3.55,29.4 C2.6,29.1 1.8,28.45 0.95,28 C0.65,27.85 0.55,27.5 0.5,27.2 C0.4,25.9 0.35,24.55 0.6,23.25 C0.65,23.05 0.7,22.85 0.85,22.75 C1.25,22.55 1.2,22.2 1.2,21.8 C1.1,18.05 1,14.3 1.15,10.6 C1,10.15 0.5,10.15 0.4,9.8 C0.3,9.45 0.3,9.1 0.25,8.75 C0.2,7.65 0.2,6.5 0.15,5.4 C0.1,4.75 0.4,4.35 0.9,4.05 C1.85,3.45 2.9,3.05 3.95,2.7 C6.1,2 8.25,1.5 10.45,1.15 C12.3,0.85 14.15,0.65 16.05,0.45 C20.15,0.05 24.25,-0.1 28.35,0.1 C31.2,0.2 34,0.5 36.8,1 C37.7,1.15 38.6,1.4 39.45,1.65 C39.75,1.75 40.05,1.85 40.35,2 C41.5,2.5 42.05,3.45 42.05,4.65 C42.1,5.7 42.15,6.7 41.9,7.75 C41.85,8.05 41.85,8.4 41.85,8.7 C41.55,8.95 41.3,9.15 40.95,9.4 C40.95,12.85 40.95,16.3 40.95,20 C41,20.2 41.5,20.2 41.6,20.6 C41.7,21 41.75,21.4 41.8,21.8 C41.9,23.1 41.9,24.45 41.9,25.75 C41.9,26.3 41.65,26.65 41.25,26.95 C41.1,27.05 41,27.15 40.85,27.2 C38.85,28.25 36.85,29.2 34.7,29.8 C33.95,30 33.25,30.15 32.5,30.3 C30.8,30.65 29.15,31 27.45,31.3 C26.5,31.45 25.55,31.55 24.6,31.65 C24.15,31.7 23.7,31.7 23.3,31.9 C23.05,32.25 23.2,32.65 23.2,33.05 C23.2,35.55 23.2,38 23.15,40.45 C23.1,42.55 23.15,44.65 23.15,46.75 C23.15,49.65 23.3,52.6 23.2,55.5 C23.2,55.8 23.2,56.05 23.25,56.3 C23.45,56.65 23.7,56.7 23.95,56.8 C25.7,57.35 27.45,57.9 29.2,58.35 C30.25,58.65 31.25,58.95 32.25,59.3 C32.7,59.45 33.1,59.45 33.55,59.5 C34.4,59.55 35.2,59.85 35.9,60.25 C36.95,60.85 37.3,62.1 36.8,63.15 C36.15,64.35 34.95,64.85 33.8,64.25 C33.3,64 32.8,63.7 32.4,63.35 C32.05,63 31.65,62.8 31.2,62.6 C28.7,61.6 26.2,60.7 23.6,60.05 C23.4,60 23.25,60 23,60.05 C21.85,60.45 20.65,60.3 19.45,60.05 C18.9,59.95 18.35,59.9 17.8,60.1 C17.45,60.25 17.1,60.3 16.75,60.35 C14.45,60.95 12.2,61.85 10,62.75 C9.75,62.85 9.55,63 9.3,63.2 C8.85,63.65 8.3,63.95 7.7,64.25 C6.25,65 4.45,63.55 4.55,62.1 C4.6,61.2 4.95,60.5 5.85,60.1 C6.6,59.75 7.4,59.45 8.25,59.45 C8.8,59.45 9.25,59.3 9.75,59.15 C11.5,58.5 13.35,58.15 15.1,57.55 C15.95,57.3 16.8,57.05 17.6,56.8 C18.15,56.65 18.3,56.2 18.75,56 Z M17.15,8.85 C16.9,8.8 16.65,8.8 16.45,8.85 C15.4,8.75 14.35,8.75 13.35,8.8 C13.3,8.75 13.25,8.75 13.2,8.75 C12.45,8.55 11.65,8.6 10.85,8.5 C8.2,8.25 5.55,7.9 3,7.1 C2.45,6.95 1.85,6.7 1.3,6.5 C1.15,7.05 1.35,7.55 1.35,8.05 C1.35,9.2 1.4,9.5 2.85,10 C3.05,10.05 3.25,10.15 3.4,10.2 C4.75,10.55 6.1,10.9 7.5,11.15 C9.05,11.4 10.6,11.75 12.2,11.65 C12.6,11.75 13,11.75 13.4,11.7 C13.8,11.85 14.2,11.8 14.6,11.8 C17.85,12 21.15,11.8 24.4,11.65 C25.55,11.6 26.7,11.55 27.85,11.4 C31.15,11 34.4,10.6 37.6,9.55 C38.8,9.15 39.9,8.75 40.95,8 C41.1,7.05 41.1,6.1 41.05,5.15 C41.05,5.1 40.95,5.05 40.9,5 C39.55,5.6 38.25,6.3 36.8,6.7 C32,7.9 27.1,8.5 22.15,8.7 C21.05,8.75 20,8.75 18.9,8.8 C18.8,8.8 18.75,8.8 18.65,8.8 C18.15,8.8 17.65,8.75 17.15,8.85 Z M12.3,30.45 C12.4,30.5 12.5,30.6 12.6,30.6 C14.7,30.7 16.8,31 18.9,30.9 C19.55,30.85 20.15,30.95 20.8,30.75 C21,30.8 21.25,30.85 21.45,30.7 C21.65,30.7 21.85,30.7 22.05,30.7 C26.5,30.5 30.85,29.7 35.1,28.45 C36.9,27.95 38.5,27.1 40.1,26.2 C40.3,26.1 40.5,25.95 40.6,25.75 C40.6,24.65 40.6,23.5 40.6,22.35 C40.2,22.4 39.95,22.6 39.7,22.8 C39.25,23.15 38.75,23.45 38.25,23.65 C36.3,24.5 34.3,25.15 32.25,25.65 C30,26.2 27.7,26.5 25.4,26.85 C24.75,26.95 24.15,27.05 23.5,27.1 C22.8,27.15 22.05,27.2 21.35,27.35 C20.05,27.25 18.8,27.3 17.5,27.35 C16,27.2 14.45,27.1 12.95,27.15 C12.65,27.15 12.35,27.1 12.05,27.1 C11.8,26.9 11.55,26.95 11.25,26.9 C8.95,26.6 6.75,26 4.5,25.35 C3.65,25.1 2.9,24.7 2.1,24.35 C1.65,24.15 1.4,24.35 1.35,24.8 C1.3,25.65 1.35,26.45 1.45,27.35 C1.75,27.55 2.05,27.7 2.35,27.9 C3.65,28.65 5.1,29 6.5,29.4 C8.3,29.95 10.1,30.5 11.95,30.45 L12.05,30.5 L12.3,30.45 Z M15.5,13.15 C15.35,13.15 15.2,13.15 15.1,13.15 C14.8,12.95 14.5,13 14.15,13 C13.1,12.95 12,12.95 11,12.8 C10.8,13 10.8,13.2 10.75,13.4 C10.75,13.75 10.75,14.1 10.7,14.5 C10.6,15.25 10.3,15.5 9.55,15.6 C9.3,15.6 9.05,15.55 8.85,15.75 C8.55,17.8 8.5,19.9 8.6,22 C8.85,22.1 9.05,22.15 9.2,22.2 C10,22.5 10.4,23.1 10.45,23.95 C10.45,24.25 10.45,24.6 10.45,24.9 C10.45,25.15 10.4,25.4 10.7,25.65 C11.9,25.55 13.2,25.95 14.5,25.9 C15.9,25.95 17.3,26.05 18.65,26.1 C19.2,26.1 19.75,26.2 20.3,25.95 C20.75,26 21.25,26.05 21.7,25.9 C21.85,25.9 22,25.95 22.15,25.95 C24.75,25.7 27.3,25.45 29.85,25 C30.55,24.9 31.2,24.6 31.9,24.4 C31.7,22.45 32.35,21.05 34.35,20.55 C34.25,18.7 34.45,16.9 34.25,15.05 C34.05,15 33.9,14.95 33.75,14.9 C32.65,14.6 32.45,14.35 32.3,13.2 C32.25,12.85 32.3,12.4 32.05,12.1 C30.5,12.3 29,12.55 27.5,12.7 C25.2,12.95 22.9,13.05 20.6,13.05 C20.35,13.05 20.1,13 19.9,13.2 C19.2,13.1 18.5,13.15 17.8,13.25 C17.1,13.1 16.3,13 15.5,13.15 Z M38,5.1 C37.85,4.8 37.65,4.8 37.5,4.75 C36.45,4.55 35.4,4.35 34.3,4.15 C31.9,3.75 29.45,3.6 27.05,3.5 C23.85,3.4 20.65,3.45 17.45,3.75 C15.75,3.9 14.05,4.05 12.35,4.3 C10.2,4.65 8.05,5.15 5.95,5.75 C5.5,5.9 5,5.95 4.55,6.3 C4.65,6.35 4.7,6.45 4.8,6.45 C5,6.5 5.15,6.6 5.35,6.65 C7.75,7.15 10.15,7.5 12.6,7.55 C15.1,7.6 17.55,7.65 20.05,7.6 C22.55,7.6 25,7.4 27.45,7.15 C29.35,7 31.25,6.6 33.15,6.3 C34.8,6.1 36.4,5.65 38,5.1 Z M40.55,3.7 C40.45,3.35 40.25,3.25 40.05,3.15 C39.4,2.8 38.75,2.55 38.05,2.35 C36.25,1.9 34.45,1.65 32.65,1.45 C31.05,1.25 29.4,1.2 27.75,1.15 C23.25,1.05 18.75,1.2 14.25,1.7 C11.1,2.05 8,2.6 5,3.45 C4.35,3.65 3.7,3.85 3.05,4.1 C2.55,4.25 2.1,4.55 1.75,4.9 C1.6,5.05 1.55,5.25 1.7,5.45 C2.25,6 3,6.1 3.65,5.75 C4.3,5.4 4.95,5.1 5.65,4.9 C6.65,4.6 7.65,4.35 8.65,4.1 C11.85,3.3 15.1,2.85 18.35,2.7 C23.7,2.5 29.05,2.4 34.35,3.15 C35.95,3.4 37.6,3.55 39.15,4.15 C39.75,4.35 40.15,4.25 40.55,3.7 Z M7.25,21.55 C7.25,19.55 7.25,17.5 7.3,15.4 C6.95,15.25 6.65,15.15 6.35,15.05 C5.45,14.75 5,14.15 5.1,13.15 C5.15,12.75 5.1,12.3 5.1,11.85 C4.05,11.55 3.1,11.25 2.05,10.95 C2.05,11.25 2,11.45 2,11.65 C2,13.15 2,14.7 2.05,16.2 C2.05,17.4 2.2,18.6 2.15,19.8 C2.1,20.9 2.25,22 2.35,23.15 C3.15,23.65 3.95,23.95 4.9,24.15 C4.95,23.7 4.95,23.35 5,23 C5.15,22.15 5.5,21.85 6.35,21.75 C6.6,21.75 6.85,21.8 7.25,21.55 Z M21.95,56.05 C21.95,48 21.95,40.1 21.95,32.15 C21.95,32.1 21.9,32.1 21.9,32.05 C21.9,32 21.85,32 21.75,31.9 C21.15,31.9 20.55,31.9 19.9,32.1 C19.9,32.25 19.85,32.45 19.85,32.6 C19.9,33.45 19.95,34.25 19.95,35.1 C19.95,39.15 19.95,43.15 19.95,47.2 C19.95,49.45 19.85,51.75 19.9,54 C19.9,54.65 19.75,55.35 20,56 C20.65,56.15 21.2,56.2 21.95,56.05 Z M37.7,22.55 C38.3,22.25 38.75,22.05 39.2,21.75 C39.6,21.5 39.75,21.2 39.8,20.65 C40.05,17.25 39.9,13.9 39.95,10.5 C39.95,10.3 39.95,10.1 39.65,10 C39.15,10.2 38.6,10.45 38.1,10.65 C37.9,11.05 38,11.45 38.05,11.8 C38.25,13.15 37.65,14.05 36.45,14.55 C36.2,14.65 35.95,14.8 35.7,14.9 C35.7,16.7 35.7,18.5 35.7,20.3 C36.05,20.35 36.35,20.4 36.7,20.45 C37.25,20.55 37.55,20.9 37.6,21.4 C37.65,21.75 37.65,22.05 37.7,22.55 Z M31.7,61.8 C32.1,61.35 32.4,60.9 32.25,60.3 C31.4,59.95 24.15,57.9 23.5,57.8 C23.4,58.2 23.4,58.55 23.6,59 C26.3,59.8 29,60.7 31.7,61.8 Z M17.85,57.8 C16.95,58.05 16,58.35 15.05,58.65 C14.1,58.95 13.15,59.15 12.2,59.5 C11.25,59.8 10.25,59.9 9.35,60.4 C9.4,60.95 9.55,61.45 9.9,61.7 C10.2,61.8 10.3,61.7 10.45,61.65 C11.7,61.1 13,60.65 14.25,60.25 C15.3,59.9 16.35,59.55 17.45,59.25 C17.95,59.1 18.1,58.9 18.1,58.4 C18.1,58.2 18.1,58 17.85,57.8 Z M36.5,11.15 C35.45,11.4 34.4,11.45 33.45,11.85 C33.45,12.6 33.65,13.2 33.85,13.85 C34.8,14.05 35.55,13.9 36.35,13.45 C36.6,13.3 36.75,13.15 36.75,12.9 C36.8,12.35 36.9,11.75 36.5,11.15 Z M19.35,56.85 C19.3,57.6 19.25,58.15 19.2,58.75 C19.2,59.15 19.45,59.45 19.75,59.4 C20.55,59.3 21.4,59.6 22.3,59.25 C22.3,58.9 22.35,58.55 22.3,58.2 C22.25,57.85 22.45,57.5 22.15,57.1 C21.2,57.2 20.35,57 19.35,56.85 Z M6.35,22.8 C6,23.35 5.85,23.85 6.1,24.5 C7.1,24.9 8.1,25.2 9.3,25.15 C9.3,24.75 9.35,24.35 9.35,23.95 C9.35,23.6 9.15,23.35 8.8,23.25 C8,23 7.25,22.75 6.35,22.8 Z M33.35,24 C34.3,24 35.1,23.6 35.9,23.35 C36.15,23.3 36.3,23.05 36.3,22.8 C36.35,22.4 36.45,21.95 36.15,21.55 C35.75,21.55 35.4,21.5 35.05,21.55 C33.8,21.9 33.1,21.8 33.35,24 Z M6.45,13.95 C7.55,14.45 8.05,14.5 9.45,14.2 C9.55,13.7 9.6,13.15 9.35,12.55 C8.3,12.5 7.35,12.1 6.3,12.15 C6.25,12.8 6.25,13.35 6.45,13.95 Z" id="Shape" fill="#010001"/>
          <path d="M20,13.1 C20.2,12.95 20.45,12.95 20.7,12.95 C23,12.95 25.3,12.85 27.6,12.6 C29.1,12.45 30.6,12.2 32.15,12 C32.4,12.3 32.35,12.75 32.4,13.1 C32.55,14.25 32.75,14.5 33.85,14.8 C34,14.85 34.15,14.9 34.35,14.95 C34.55,16.75 34.35,18.6 34.45,20.45 C32.4,20.95 31.75,22.35 32,24.3 C31.3,24.5 30.65,24.8 29.95,24.9 C27.4,25.3 24.85,25.6 22.25,25.85 C22.1,25.85 21.95,25.85 21.8,25.8 C22.05,25.35 22.7,25.8 23,25.3 C23,23.4 23,21.45 23,19.5 C23,19.4 23,19.25 23,19.15 C22.7,18.45 22.8,17.75 22.8,17.05 C22.8,15.95 22.8,14.9 22.8,13.8 C22.8,13.55 22.85,13.3 22.6,13.15 C21.65,13.15 20.85,13.15 20,13.1 Z" id="Shape" fill="#D0E9EA"/>
          <path d="M38,5.1 C36.4,5.65 34.75,6.1 33.1,6.4 C31.2,6.7 29.35,7.05 27.4,7.25 C24.95,7.45 22.45,7.65 20,7.7 C17.5,7.7 15.05,7.7 12.55,7.65 C10.1,7.6 7.7,7.25 5.3,6.75 C5.1,6.7 4.9,6.65 4.75,6.55 C4.7,6.5 4.6,6.45 4.5,6.4 C4.95,6.1 5.4,6 5.9,5.85 C8,5.25 10.15,4.75 12.3,4.4 C14,4.15 15.7,4 17.4,3.85 C20.6,3.6 23.8,3.55 27,3.6 C29.45,3.65 31.85,3.8 34.25,4.25 C35.3,4.45 36.35,4.6 37.45,4.85 C37.65,4.8 37.85,4.8 38,5.1 Z" id="Shape" fill="#F4E6D0"/>
          <path d="M18.85,8.85 C19.95,8.8 21,8.8 22.1,8.75 C27.05,8.55 31.95,7.95 36.75,6.75 C38.2,6.4 39.5,5.65 40.85,5.05 C40.9,5.1 41,5.15 41,5.2 C41.05,6.15 41.05,7.1 40.9,8.05 C39.85,8.8 38.7,9.2 37.55,9.6 C34.4,10.6 31.1,11 27.8,11.45 C26.65,11.6 25.5,11.65 24.35,11.7 C21.1,11.85 17.8,12.05 14.55,11.85 C14.15,11.85 13.75,11.9 13.35,11.75 C13.35,10.8 13.35,9.8 13.35,8.85 C14.4,8.8 15.45,8.8 16.45,8.9 C16,9.8 16.25,10.75 16.3,11.7 C17.3,11.7 18.25,11.7 19.15,11.7 C19.8,11.1 19.55,10.35 19.55,9.65 C19.55,9.15 19,9.15 18.85,8.85 Z M38.75,7.55 C38.3,7.35 37.95,7.4 37.55,7.55 C36.65,7.85 35.75,8.2 34.85,8.35 C33.25,8.6 31.7,9.05 30.1,9.35 C29.7,9.4 29.45,9.65 29.25,9.95 C29.55,10.45 30,10.35 30.4,10.25 C31.55,10.05 32.7,9.8 33.85,9.55 C35.15,9.25 36.45,8.95 37.75,8.5 C38.2,8.35 38.6,8.1 38.75,7.55 Z" id="Shape" fill="#D0E9EA"/>
          <path d="M20,13.1 C20.85,13.15 21.65,13.15 22.45,13.2 C22.7,13.4 22.65,13.65 22.65,13.85 C22.65,14.95 22.65,16 22.65,17.1 C22.65,17.8 22.55,18.55 22.85,19.2 C22.9,19.3 22.85,19.45 22.85,19.55 C22.85,21.5 22.85,23.45 22.85,25.35 C22.55,25.85 21.9,25.4 21.65,25.85 C21.2,26 20.75,25.95 20.25,25.9 C19.45,25.75 18.65,26 17.9,25.75 C17.85,25.6 17.8,25.55 17.8,25.5 C17.8,21.4 17.8,17.25 17.8,13.15 C18.6,13.1 19.3,13 20,13.1 Z" id="Shape" fill="#F3FFFF"/>
          <path d="M21.5,27.3 C22.2,27.15 22.9,27.1 23.65,27.05 C24.3,27 24.9,26.9 25.55,26.8 C27.85,26.45 30.15,26.15 32.4,25.6 C34.45,25.1 36.45,24.4 38.4,23.6 C38.9,23.4 39.4,23.1 39.85,22.75 C40.1,22.55 40.35,22.35 40.75,22.3 C40.75,23.45 40.75,24.55 40.75,25.7 C40.65,25.9 40.45,26.05 40.25,26.15 C38.65,27.05 37.05,27.9 35.25,28.4 C30.95,29.65 26.6,30.4 22.2,30.65 C22,30.65 21.8,30.65 21.6,30.65 C21.5,29.55 21.5,28.45 21.5,27.3 Z M38.9,24.75 C38.4,24.9 37.8,25 37.25,25.15 C36.45,25.35 35.65,25.7 34.85,25.8 C33.7,25.95 32.65,26.35 31.5,26.6 C31.25,26.65 31.05,26.8 30.85,26.9 C30.65,27 30.55,27.15 30.7,27.45 C31.25,27.55 31.85,27.55 32.45,27.4 C34,27 35.5,26.65 37.05,26.25 C37.75,26.05 38.4,25.85 39,25.4 C39.3,25.3 39.3,25 38.9,24.75 Z" id="Shape" fill="#D0E9EA"/>
          <path d="M40.55,3.7 C40.15,4.25 39.7,4.4 39.1,4.15 C37.55,3.55 35.95,3.35 34.3,3.15 C29,2.4 23.6,2.45 18.3,2.7 C15.05,2.85 11.8,3.3 8.6,4.1 C7.6,4.35 6.6,4.6 5.6,4.9 C4.9,5.1 4.25,5.4 3.6,5.75 C2.95,6.1 2.2,6 1.65,5.45 C1.5,5.3 1.5,5.05 1.7,4.9 C2.1,4.55 2.5,4.25 3,4.1 C3.65,3.9 4.3,3.65 4.95,3.45 C8,2.6 11.1,2.05 14.2,1.7 C18.7,1.2 23.2,1.1 27.7,1.15 C29.35,1.2 31,1.25 32.6,1.45 C34.4,1.65 36.25,1.9 38,2.35 C38.7,2.55 39.35,2.8 40,3.15 C40.25,3.2 40.45,3.35 40.55,3.7 Z" id="Shape" fill="#AACECF"/>
          <path d="M7.25,21.55 C6.85,21.8 6.6,21.7 6.4,21.7 C5.55,21.75 5.2,22.1 5.05,22.95 C5,23.3 5,23.65 4.95,24.1 C4,23.9 3.15,23.6 2.4,23.1 C2.3,22 2.15,20.9 2.2,19.75 C2.25,18.55 2.1,17.35 2.1,16.15 C2.05,14.65 2.1,13.1 2.05,11.6 C2.05,11.4 2.05,11.2 2.1,10.9 C3.15,11.2 4.1,11.5 5.15,11.8 C5.15,12.25 5.2,12.65 5.15,13.1 C5.05,14.1 5.45,14.7 6.4,15 C6.7,15.1 7,15.2 7.35,15.35 C7.25,17.5 7.25,19.6 7.25,21.55 Z" id="Shape" fill="#CFE8E9"/>
          <path d="M21.95,56.05 C21.2,56.2 20.65,56.15 20,56 C19.75,55.35 19.9,54.65 19.9,54 C19.85,51.75 19.95,49.45 19.95,47.2 C19.95,43.15 19.95,39.15 19.95,35.1 C19.95,34.25 19.9,33.45 19.85,32.6 C19.85,32.45 19.9,32.3 19.9,32.1 C20.55,31.95 21.15,31.9 21.75,31.9 C21.85,31.95 21.85,32 21.9,32.05 C21.9,32.1 21.95,32.1 21.95,32.15 C21.95,40.1 21.95,48 21.95,56.05 Z" id="Shape" fill="#CFE8E9"/>
          <path d="M14.55,25.85 C13.25,25.9 11.95,25.55 10.75,25.6 C10.45,25.35 10.5,25.1 10.5,24.85 C10.5,24.55 10.5,24.2 10.5,23.9 C10.45,23.05 10.05,22.5 9.25,22.15 C9.05,22.1 8.85,22 8.65,21.95 C8.55,19.85 8.6,17.75 8.9,15.7 C9.15,15.45 9.4,15.55 9.6,15.55 C10.4,15.45 10.65,15.2 10.75,14.45 C10.8,14.1 10.8,13.75 10.8,13.35 C10.8,13.15 10.8,12.95 11.05,12.75 C12.05,12.9 13.15,12.9 14.2,12.95 C14.5,12.95 14.85,12.9 15.15,13.1 C14.5,13.15 13.9,13.15 13.2,13.2 C13.2,14.6 13.2,15.95 13.2,17.3 C13.2,18.7 13.2,20.1 13.2,21.5 C13.2,22.85 13.1,24.2 13.25,25.55 C13.75,25.55 14.2,25.6 14.6,25.6 C14.55,25.7 14.55,25.8 14.55,25.85 Z" id="Shape" fill="#D0E9EA"/>
          <path d="M37.7,22.55 C37.65,22.05 37.65,21.75 37.6,21.4 C37.5,20.85 37.25,20.5 36.7,20.45 C36.4,20.4 36.1,20.35 35.7,20.3 C35.7,18.5 35.7,16.7 35.7,14.9 C35.95,14.8 36.2,14.65 36.45,14.55 C37.65,14 38.2,13.1 38.05,11.8 C38,11.45 37.9,11.1 38.1,10.65 C38.6,10.45 39.1,10.2 39.65,10 C39.95,10.1 39.95,10.3 39.95,10.5 C39.9,13.9 40.05,17.25 39.8,20.65 C39.75,21.15 39.6,21.5 39.2,21.75 C38.75,22.05 38.25,22.25 37.7,22.55 Z" id="Shape" fill="#CFE8E9"/>
          <path d="M14.55,25.65 C14.1,25.65 13.7,25.6 13.2,25.6 C13.05,24.2 13.15,22.85 13.15,21.55 C13.15,20.15 13.15,18.75 13.15,17.35 C13.15,16 13.15,14.65 13.15,13.25 C13.85,13.2 14.5,13.15 15.1,13.15 C15.25,13.15 15.4,13.15 15.5,13.15 C15.5,14.4 15.5,15.7 15.5,16.95 C15.5,17.3 15.55,17.65 15.6,18 C15.8,19.05 15.8,20.15 15.6,21.2 C15.55,21.6 15.45,21.95 15.45,22.35 C15.45,23.2 15.45,24 15.45,24.85 C15.45,25.1 15.5,25.35 15.25,25.55 C15.05,25.6 14.8,25.6 14.55,25.65 Z" id="Shape" fill="#F3FFFF"/>
          <path d="M14.55,25.65 C14.8,25.65 15.1,25.6 15.35,25.6 C15.6,25.35 15.55,25.1 15.55,24.9 C15.55,24.05 15.55,23.25 15.55,22.4 C15.55,22 15.65,21.6 15.7,21.25 C15.85,20.2 15.9,19.1 15.7,18.05 C15.65,17.7 15.6,17.35 15.6,17 C15.6,15.75 15.6,14.45 15.6,13.2 C16.4,13.05 17.2,13.15 18,13.2 C18,17.3 18,21.45 18,25.55 C18,25.6 18.05,25.7 18.1,25.8 C18.85,26 19.65,25.8 20.45,25.95 C19.9,26.2 19.35,26.1 18.8,26.1 C17.4,26.05 16,25.95 14.65,25.9 C14.55,25.8 14.55,25.7 14.55,25.65 Z" id="Shape" fill="#D0E9EA"/>
          <path d="M12.15,30.4 C10.25,30.45 8.45,29.9 6.7,29.35 C5.3,28.9 3.85,28.6 2.55,27.85 C2.25,27.65 1.95,27.5 1.65,27.3 C1.55,26.4 1.5,25.6 1.55,24.75 C1.6,24.3 1.85,24.1 2.3,24.3 C3.1,24.65 3.9,25.05 4.7,25.3 C6.9,25.9 9.15,26.55 11.45,26.85 C11.7,26.9 12,26.85 12.25,27.05 C12,27.15 11.7,27 11.4,27.45 C11.4,28.25 11.4,29.2 11.4,30.15 C11.55,30.3 12,30.05 12.15,30.4 Z M3.1,26.7 C3.05,27.2 3.45,27.35 3.8,27.55 C5.2,28.2 6.7,28.65 8.25,29 C8.65,29.1 9.05,29.15 9.45,29.2 C9.75,29.25 9.95,28.95 9.85,28.65 C9.75,28.4 9.6,28.25 9.35,28.2 C8.75,28.1 8.15,28 7.6,27.8 C6.5,27.45 5.4,27.1 4.3,26.7 C3.9,26.6 3.5,26.4 3.1,26.7 Z" id="Shape" fill="#CFE8E8"/>
          <path d="M12.15,11.7 C10.55,11.8 9,11.45 7.45,11.2 C6.05,10.95 4.7,10.6 3.35,10.25 C3.15,10.2 2.95,10.15 2.8,10.05 C1.4,9.55 1.3,9.25 1.3,8.1 C1.3,7.6 1.1,7.1 1.25,6.55 C1.85,6.75 2.4,7 2.95,7.15 C5.5,7.95 8.15,8.3 10.8,8.55 C11.6,8.65 12.4,8.55 13.15,8.8 C12.55,8.8 11.95,8.85 11.4,8.85 C11.15,8.85 10.9,8.8 10.75,9.1 C10.7,9.85 10.7,10.6 10.75,11.45 C11.15,11.5 11.45,11.5 11.75,11.5 C11.9,11.5 12.05,11.55 12.15,11.7 Z M7.6,10.45 C7.9,10.45 8,10.5 8.05,10.45 C8.2,10.45 8.35,10.35 8.4,10.2 C8.45,10 8.35,9.9 8.25,9.8 C8,9.55 7.7,9.5 7.4,9.45 C6.2,9.3 5,9 3.8,8.65 C3.6,8.6 3.4,8.55 3.2,8.5 C2.95,8.45 2.7,8.5 2.6,8.75 C2.5,8.95 2.7,9.25 3.05,9.35 C3.4,9.5 3.8,9.6 4.2,9.7 C5.4,10.1 6.6,10.3 7.6,10.45 Z" id="Shape" fill="#CEE7E8"/>
          <path d="M13.1,27.1 C14.6,27.1 16.15,27.2 17.65,27.3 C17.2,28.35 17.45,29.45 17.45,30.6 C18.65,30.65 19.75,30.65 20.8,30.7 C20.2,30.95 19.55,30.85 18.9,30.85 C16.8,31 14.7,30.65 12.6,30.55 C12.5,30.55 12.4,30.45 12.3,30.4 C12.85,30.3 13.4,30.45 14,30.25 C13.7,29.3 14.2,28.3 13.95,27.45 C13.7,27.2 13.25,27.45 13.1,27.1 Z" id="Shape" fill="#D0E9EA"/>
          <path d="M20.85,30.7 C19.75,30.65 18.65,30.65 17.5,30.6 C17.5,29.45 17.25,28.35 17.7,27.3 C19,27.25 20.25,27.2 21.55,27.3 C21.55,28.4 21.55,29.55 21.55,30.65 C21.25,30.8 21.05,30.75 20.85,30.7 Z" id="Shape" fill="#F0FCFC"/>
          <path d="M31.7,61.8 C29.05,60.7 26.3,59.8 23.6,59.05 C23.4,58.6 23.4,58.25 23.5,57.85 C24.15,57.95 31.4,60 32.25,60.35 C32.4,60.9 32.1,61.35 31.7,61.8 Z" id="Shape" fill="#CAE2E3"/>
          <path d="M17.85,57.8 C18.1,57.95 18.1,58.2 18.1,58.35 C18.1,58.9 17.95,59.1 17.45,59.2 C16.35,59.5 15.3,59.85 14.25,60.2 C12.95,60.65 11.7,61.1 10.45,61.6 C10.3,61.65 10.2,61.8 9.9,61.65 C9.55,61.4 9.4,60.9 9.35,60.35 C10.25,59.85 11.25,59.75 12.2,59.45 C13.15,59.15 14.1,58.9 15.05,58.6 C16,58.35 16.95,58.1 17.85,57.8 Z" id="Shape" fill="#CAE2E3"/>
          <path d="M18.85,8.85 C19.05,9.15 19.55,9.15 19.55,9.6 C19.55,10.3 19.75,11.05 19.15,11.65 C18.25,11.65 17.3,11.65 16.3,11.65 C16.25,10.7 16,9.75 16.45,8.85 C16.7,8.8 16.95,8.8 17.15,8.85 C17.65,9.2 18.1,9.2 18.6,8.85 C18.7,8.85 18.75,8.85 18.85,8.85 Z" id="Shape" fill="#F3FFFF"/>
          <path d="M13.1,27.1 C13.3,27.45 13.7,27.2 14,27.5 C14.25,28.4 13.75,29.35 14.05,30.3 C13.45,30.55 12.85,30.35 12.35,30.45 L12.25,30.45 L12.15,30.4 C12,30 11.55,30.3 11.4,30.1 C11.4,29.1 11.4,28.2 11.4,27.4 C11.65,27 12,27.1 12.25,27 C12.5,27.05 12.8,27.1 13.1,27.1 Z" id="Shape" fill="#F1FDFD"/>
          <path d="M36.5,11.15 C36.9,11.75 36.75,12.35 36.75,12.9 C36.75,13.15 36.55,13.3 36.35,13.45 C35.6,13.9 34.8,14.05 33.85,13.85 C33.65,13.25 33.45,12.6 33.45,11.85 C34.45,11.45 35.45,11.35 36.5,11.15 Z" id="Shape" fill="#CAE2E3"/>
          <path d="M12.15,11.7 C12.05,11.55 11.95,11.5 11.75,11.5 C11.45,11.5 11.15,11.45 10.75,11.45 C10.7,10.65 10.7,9.85 10.75,9.1 C10.95,8.8 11.2,8.9 11.4,8.85 C12,8.85 12.6,8.8 13.15,8.8 C13.2,8.75 13.25,8.75 13.3,8.85 C13.3,9.8 13.3,10.8 13.3,11.75 C12.9,11.8 12.5,11.75 12.15,11.7 Z" id="Shape" fill="#F0FCFC"/>
          <path d="M19.35,56.85 C20.35,57.05 21.25,57.25 22.1,57.1 C22.4,57.5 22.2,57.9 22.25,58.2 C22.3,58.55 22.25,58.9 22.25,59.25 C21.35,59.6 20.55,59.3 19.7,59.4 C19.4,59.45 19.15,59.1 19.15,58.75 C19.2,58.15 19.25,57.55 19.35,56.85 Z" id="Shape" fill="#CEE7E8"/>
          <path d="M6.35,22.8 C7.25,22.7 8,23 8.75,23.2 C9.1,23.3 9.3,23.55 9.3,23.9 C9.3,24.3 9.3,24.7 9.25,25.1 C8.05,25.2 7.05,24.85 6.05,24.45 C5.85,23.9 6,23.4 6.35,22.8 Z" id="Shape" fill="#C9E1E2"/>
          <path d="M33.35,24 C33.1,21.85 33.8,21.9 35.1,21.55 C35.45,21.45 35.8,21.55 36.2,21.55 C36.45,21.95 36.35,22.4 36.35,22.8 C36.35,23.05 36.2,23.3 35.95,23.35 C35.1,23.6 34.3,23.95 33.35,24 Z" id="Shape" fill="#C9E1E2"/>
          <path d="M6.45,13.95 C6.3,13.35 6.3,12.8 6.35,12.2 C7.4,12.15 8.35,12.55 9.4,12.6 C9.65,13.2 9.6,13.7 9.5,14.25 C8.05,14.45 7.55,14.4 6.45,13.95 Z" id="Shape" fill="#C8E0E1"/>
          <path d="M18.6,8.85 C18.1,9.2 17.65,9.2 17.15,8.85 C17.65,8.75 18.15,8.8 18.6,8.85 Z" id="Shape" fill="#D0E9EA"/>
          <path d="M38.75,7.55 C38.55,8.15 38.2,8.35 37.75,8.5 C36.5,8.95 35.2,9.3 33.85,9.55 C32.7,9.8 31.55,10 30.4,10.25 C30,10.3 29.5,10.45 29.25,9.95 C29.45,9.6 29.65,9.4 30.1,9.35 C31.7,9.1 33.25,8.65 34.85,8.35 C35.8,8.2 36.65,7.85 37.55,7.55 C37.95,7.4 38.3,7.3 38.75,7.55 Z" id="Shape" fill="#FCFEFE"/>
          <path d="M38.9,24.75 C39.25,25 39.25,25.25 39,25.45 C38.4,25.85 37.75,26.1 37.05,26.3 C35.55,26.7 34,27.05 32.45,27.45 C31.85,27.6 31.3,27.6 30.7,27.5 C30.6,27.2 30.7,27.05 30.85,26.95 C31.05,26.8 31.25,26.7 31.5,26.65 C32.6,26.4 33.7,26 34.85,25.85 C35.65,25.75 36.45,25.4 37.25,25.2 C37.8,25.05 38.4,24.9 38.9,24.75 Z" id="Shape" fill="#FCFEFD"/>
          <path d="M3.1,26.7 C3.5,26.4 3.85,26.6 4.25,26.7 C5.35,27.05 6.45,27.45 7.55,27.8 C8.1,27.95 8.7,28.05 9.3,28.2 C9.55,28.25 9.7,28.4 9.8,28.65 C9.9,28.95 9.7,29.25 9.4,29.2 C9,29.15 8.6,29.1 8.2,29 C6.7,28.65 5.2,28.2 3.75,27.55 C3.45,27.4 3.05,27.25 3.1,26.7 Z" id="Shape" fill="#090A0A"/>
          <path d="M7.6,10.45 C6.6,10.3 5.4,10.1 4.2,9.75 C3.8,9.65 3.45,9.55 3.05,9.4 C2.7,9.3 2.55,9 2.6,8.8 C2.7,8.55 2.95,8.5 3.2,8.55 C3.4,8.6 3.6,8.6 3.8,8.7 C5,9.05 6.2,9.35 7.4,9.5 C7.7,9.55 8.05,9.6 8.25,9.85 C8.35,9.95 8.45,10.1 8.4,10.25 C8.35,10.4 8.2,10.5 8.05,10.5 C8,10.5 7.9,10.5 7.6,10.45 Z" id="Shape" fill="#0B0C0D"/>
        </g>
        <g id="Group" transform="translate(31.000000, 33.500000)">
          <path d="M6.25,10 C4.95,10 3.9,9.55 3.05,8.6 C2.9,8.45 2.85,8.3 2.8,8.05 C2.8,7.75 3.05,7.5 3.35,7.6 C3.55,7.65 3.7,7.75 3.85,7.9 C5.45,9.55 7.8,8.95 9.25,7.7 C9.45,7.5 9.65,7.3 9.85,7.15 C10,7.05 10.25,7.05 10.4,7.15 C10.55,7.3 10.6,7.5 10.55,7.7 C10.45,8.3 10,8.7 9.55,9 C8.55,9.65 7.45,10.05 6.25,10 Z" id="Shape" fill="#070707"/>
          <path d="M3.5,0.4 C4,0.25 4.45,0.5 4.9,0.75 C5.05,0.8 5.15,0.95 5.25,1.1 C5.35,1.25 5.45,1.45 5.3,1.65 C5.2,1.8 5.05,1.8 4.85,1.8 C4.6,1.75 4.4,1.7 4.15,1.6 C3.2,1.2 2.35,1.55 1.6,2.1 C1.35,2.3 1.15,2.55 0.9,2.7 C0.7,2.85 0.3,2.65 0.25,2.4 C0.2,2.05 0.3,1.8 0.55,1.55 C1.2,0.9 1.95,0.5 2.85,0.45 C3.05,0.4 3.25,0.4 3.5,0.4 Z" id="Shape" fill="#0C0C0C"/>
          <path d="M8.65,1.55 C8.55,1.1 8.65,0.8 8.95,0.6 C9.2,0.45 9.5,0.25 9.8,0.2 C10.6,7.15677517e-14 11.45,7.15677517e-14 12.3,0.2 C12.8,0.3 13.25,0.65 13.5,1.1 C13.65,1.3 13.65,1.55 13.6,1.8 C13.55,2 13.3,2.1 13.1,2.05 C12.95,2 12.85,1.9 12.7,1.8 C11.9,1.15 11,0.95 10.05,1.35 C9.75,1.45 9.45,1.6 9.15,1.65 C9,1.65 8.85,1.6 8.65,1.55 Z" id="Shape" fill="#0A0A0A"/>
          <path d="M3.2,3.05 C3.45,3.4 3.5,3.75 3.35,4.15 C3.25,4.5 2.9,4.75 2.55,4.7 C2.15,4.65 1.85,4.3 1.9,3.85 C1.95,3.15 2.15,3 3.2,3.05 Z" id="Shape" fill="#1A1A1A"/>
          <path d="M12.25,3.2 C12.25,3.7 11.95,4 11.45,4 C11,4 10.75,3.75 10.75,3.4 C10.75,2.9 11.1,2.55 11.55,2.55 C11.95,2.6 12.3,2.85 12.25,3.2 Z" id="Shape" fill="#121212"/>
        </g>
      </g>
    </g>
  </g>
</svg>