<svg width="205.00000000000003" height="194.8" xmlns="http://www.w3.org/2000/svg">
 <style type="text/css">.st0{fill:#FFFFFF;}</style>

 <g>
  <title>background</title>
  <rect fill="none" id="canvas_background" height="196.8" width="207" y="-1" x="-1"/>
 </g>
 <g>
  <title>Layer 1</title>
  <g id="svg_1">
   <path transform="rotate(90 102.56520080566406,96.94002532958986) " id="svg_2" d="m128.710198,8.553543c-6.26,-7.46 -15.65,-12.21 -26.14,-12.21c-10.5,0 -19.89,4.75 -26.15,12.21c-40.59,11.4 -70.35,48.68 -70.35,92.91c0,50.17 38.28,91.39 87.22,96.06c1.44,0.14 2.75,-0.87 3.02,-2.3c0.39,-2.08 0.79,-4.15 1.18,-6.23l3.27,-0.03c0.6,0.01 1.2,0.02 1.8,0.02c1.06,0 2.1,-0.03 3.15,-0.06l1.92,-0.02c0.4,2.08 0.8,4.21 1.2,6.31c0.27,1.42 1.58,2.43 3.02,2.29c48.93,-4.68 87.21,-45.9 87.21,-96.06c0.01,-44.21 -29.75,-81.49 -70.35,-92.89zm-80.36,84.05l-4.86,0l0,7.32l-1,0l0,-18.43c0,-3.13 -2.54,-5.67 -5.67,-5.67l-11.55,0c-3.13,0 -5.67,2.54 -5.67,5.67l0,39.05c0,3.13 2.54,5.67 5.67,5.67l11.55,0c3.13,0 5.67,-2.54 5.67,-5.67l0,-18.43l1,0l0,7.65l4.86,0l0,2.28l-0.25,0c-1.57,0 -2.83,1.27 -2.83,2.83l0,12.83c0,1.57 -1.27,2.83 -2.83,2.83l-15.67,0c-1.57,0 -2.83,1.27 -2.83,2.83l0,6.56c-5.69,-11.61 -8.89,-24.67 -8.89,-38.48s3.2,-26.86 8.89,-38.48l0,-0.04l0.02,0c-0.01,0.01 -0.01,0.02 -0.02,0.04l0,7.06c0,1.57 1.27,2.83 2.83,2.83l15.33,0c1.57,0 2.83,1.27 2.83,2.83l0,11.83c0,1.57 1.27,2.83 2.83,2.83l0.58,0l0.01,2.26l0,0zm130,37.95l-15.66,0c-1.57,0 -2.83,-1.27 -2.83,-2.83l0,-12.84c0,-1.57 -1.27,-2.83 -2.83,-2.83l-0.25,0l0,-2.28l4.86,0l0,-7.65l1,0l0,18.43c0,3.13 2.54,5.67 5.67,5.67l11.55,0c3.13,0 5.67,-2.54 5.67,-5.67l0,-39.05c0,-3.13 -2.54,-5.67 -5.67,-5.67l-11.55,0c-3.13,0 -5.67,2.54 -5.67,5.67l0,18.43l-1,0l0,-7.32l-4.86,0l0,-2.22l0.58,0c1.57,0 2.83,-1.27 2.83,-2.83l0,-11.83c0,-1.57 1.27,-2.83 2.83,-2.83l15.33,0c1.57,0 2.83,-1.27 2.83,-2.83l0,-7.06c-0.01,-0.01 -0.01,-0.02 -0.02,-0.04l0.02,0l0,0.04c5.69,11.61 8.89,24.67 8.89,38.48s-3.2,26.87 -8.89,38.48l0,-6.56c0.01,-1.6 -1.26,-2.86 -2.83,-2.86z" class="st0"/>
   <path transform="rotate(90 98.28167724609376,47.49501037597657) " id="svg_3" d="m98.281682,60.495013c-1.2,0 -2.17,-0.97 -2.17,-2.17s0.97,-2.17 2.17,-2.17c1.2,0 2.17,0.97 2.17,2.17s-0.97,2.17 -2.17,2.17zm0,-3.84c-0.92,0 -1.67,0.75 -1.67,1.67s0.75,1.67 1.67,1.67s1.67,-0.75 1.67,-1.67s-0.75,-1.67 -1.67,-1.67zm0,-17.82c-1.2,0 -2.17,-0.97 -2.17,-2.17s0.97,-2.17 2.17,-2.17c1.2,0 2.17,0.97 2.17,2.17s-0.97,2.17 -2.17,2.17zm0,-3.84c-0.92,0 -1.67,0.75 -1.67,1.67s0.75,1.67 1.67,1.67s1.67,-0.75 1.67,-1.67s-0.75,-1.67 -1.67,-1.67z"/>
   <path transform="rotate(90 103.01667785644531,96.94500732421876) " id="svg_4" d="m103.016678,189.710002c-48.4,0 -87.78,-39.38 -87.78,-87.78c0,-39.6 26.65,-74.43 64.83,-84.75c4.82,-8.02 13.6,-13 22.95,-13c9.35,0 18.14,4.98 22.95,13c38.17,10.3 64.83,45.14 64.83,84.75c0,48.4 -39.38,87.78 -87.78,87.78zm0,-185.03c-9.21,0 -17.86,4.92 -22.58,12.85l-0.05,0.09l-0.1,0.03c-38.01,10.22 -64.55,44.88 -64.55,84.29c0,48.13 39.15,87.28 87.28,87.28c48.13,0 87.28,-39.15 87.28,-87.28c0,-39.42 -26.55,-74.08 -64.55,-84.29l-0.1,-0.03l-0.05,-0.09c-4.72,-7.93 -13.37,-12.85 -22.58,-12.85z"/>
   <g transform="rotate(90 167.7166900634766,96.75001525878908) " id="svg_5">
    <path id="svg_6" d="m181.581674,110.845015l-28.5,0l0,-8.55c-2.67,-0.49 -4.66,-2.86 -4.66,-5.59c0,-2.74 1.99,-5.1 4.66,-5.59l0,-8.46l21.15,0l0.07,0.09l7.17,8.36c3.12,0.23 5.54,2.82 5.54,5.95c0,3.09 -2.37,5.66 -5.43,5.94l0,7.85zm-28,-0.5l27.5,0l0,-7.82l0.24,-0.01c2.91,-0.15 5.19,-2.55 5.19,-5.46c0,-2.91 -2.28,-5.31 -5.19,-5.46l-0.24,-0.01l0,-0.17l-7.08,-8.26l-20.42,0l0,8.39l-0.21,0.03c-2.53,0.36 -4.45,2.57 -4.45,5.13c0,2.56 1.91,4.77 4.45,5.13l0.21,0.03l0,8.48z"/>
    <g id="svg_7">
     <g id="svg_8">
      <g id="svg_9">
       <path id="svg_10" d="m176.371674,106.755015l-7.21,0l0,-7.21l7.21,0l0,7.21zm-6.71,-0.5l6.21,0l0,-6.21l-6.21,0l0,6.21z"/>
      </g>
      <g id="svg_11">
       <path id="svg_12" d="m164.751674,106.755015l-7.21,0l0,-7.21l7.21,0l0,7.21zm-6.71,-0.5l6.21,0l0,-6.21l-6.21,0l0,6.21z"/>
      </g>
     </g>
     <g id="svg_13">
      <g id="svg_14">
       <path id="svg_15" d="m176.371674,95.135015l-7.21,0l0,-7.21l7.21,0l0,7.21zm-6.71,-0.5l6.21,0l0,-6.21l-6.21,0l0,6.21z"/>
      </g>
      <g id="svg_16">
       <path id="svg_17" d="m164.751674,95.135015l-7.21,0l0,-7.21l7.21,0l0,7.21zm-6.71,-0.5l6.21,0l0,-6.21l-6.21,0l0,6.21z"/>
      </g>
     </g>
    </g>
   </g>
   <g transform="rotate(90 141.85667419433597,55.85501098632814) " id="svg_18">
    <path id="svg_19" d="m155.726678,69.95001l-28.5,0l0,-8.55c-2.67,-0.49 -4.66,-2.86 -4.66,-5.59c0,-2.74 1.99,-5.1 4.66,-5.59l0,-8.46l21.14,0l0.07,0.09l7.15,8.36c3.13,0.22 5.56,2.82 5.56,5.95c0,3.09 -2.36,5.66 -5.42,5.94l0,7.85zm-28,-0.5l27.5,0l0,-7.82l0.24,-0.01c2.91,-0.15 5.18,-2.55 5.18,-5.46c0,-2.91 -2.28,-5.31 -5.19,-5.46l-0.11,-0.01l-7.22,-8.43l-20.4,0l0,8.39l-0.21,0.03c-2.53,0.37 -4.45,2.57 -4.45,5.13c0,2.56 1.91,4.77 4.45,5.13l0.21,0.03l0,8.48z"/>
    <g id="svg_20">
     <g id="svg_21">
      <g id="svg_22">
       <path id="svg_23" d="m150.516678,65.86001l-7.21,0l0,-7.21l7.21,0l0,7.21zm-6.71,-0.5l6.21,0l0,-6.21l-6.21,0l0,6.21z"/>
      </g>
      <g id="svg_24">
       <path id="svg_25" d="m138.896678,65.86001l-7.21,0l0,-7.21l7.21,0l0,7.21zm-6.71,-0.5l6.21,0l0,-6.21l-6.21,0l0,6.21z"/>
      </g>
     </g>
     <g id="svg_26">
      <g id="svg_27">
       <path id="svg_28" d="m150.516678,54.24001l-7.21,0l0,-7.21l7.21,0l0,7.21zm-6.71,-0.5l6.21,0l0,-6.21l-6.21,0l0,6.21z"/>
      </g>
      <g id="svg_29">
       <path id="svg_30" d="m138.896678,54.24001l-7.21,0l0,-7.21l7.21,0l0,7.21zm-6.71,-0.5l6.21,0l0,-6.21l-6.21,0l0,6.21z"/>
      </g>
     </g>
    </g>
   </g>
   <g transform="rotate(90 141.85667419433594,137.73001098632815) " id="svg_31">
    <path id="svg_32" d="m155.721678,151.82501l-28.5,0l0,-8.55c-2.67,-0.49 -4.66,-2.86 -4.66,-5.59c0,-2.74 1.99,-5.1 4.66,-5.59l0,-8.46l21.14,0l7.23,8.45c3.13,0.22 5.56,2.82 5.56,5.95c0,3.09 -2.37,5.66 -5.43,5.94l0,7.85zm-28,-0.5l27.5,0l0,-7.82l0.24,-0.01c2.91,-0.15 5.19,-2.55 5.19,-5.46s-2.28,-5.31 -5.19,-5.46l-0.11,-0.01l-7.22,-8.43l-20.41,0l0,8.39l-0.21,0.03c-2.53,0.37 -4.45,2.57 -4.45,5.13c0,2.56 1.91,4.77 4.45,5.13l0.21,0.03l0,8.48z"/>
    <g id="svg_33">
     <g id="svg_34">
      <g id="svg_35">
       <path id="svg_36" d="m150.521678,147.73501l-7.21,0l0,-7.21l7.21,0l0,7.21zm-6.71,-0.5l6.21,0l0,-6.21l-6.21,0l0,6.21z"/>
      </g>
      <g id="svg_37">
       <path id="svg_38" d="m138.901678,147.73501l-7.21,0l0,-7.21l7.21,0l0,7.21zm-6.71,-0.5l6.21,0l0,-6.21l-6.21,0l0,6.21z"/>
      </g>
     </g>
     <g id="svg_39">
      <g id="svg_40">
       <path id="svg_41" d="m150.521678,136.11501l-7.21,0l0,-7.21l7.21,0l0,7.21zm-6.71,-0.5l6.21,0l0,-6.21l-6.21,0l0,6.21z"/>
      </g>
      <g id="svg_42">
       <path id="svg_43" d="m138.901678,136.11501l-7.21,0l0,-7.21l7.21,0l0,7.21zm-6.71,-0.5l6.21,0l0,-6.21l-6.21,0l0,6.21z"/>
      </g>
     </g>
    </g>
   </g>
   <g transform="rotate(90 56.026683807373026,136.96000671386722) " id="svg_44">
    <path id="svg_45" d="m70.671688,151.055012l-21.15,0l-7.23,-8.45c-3.13,-0.22 -5.56,-2.82 -5.56,-5.95c0,-3.1 2.37,-5.67 5.43,-5.94l0,-7.85l28.5,0l0,8.55c2.67,0.49 4.66,2.86 4.66,5.59c0,2.74 -1.99,5.1 -4.66,5.59l0,8.46l0.01,0zm-20.91,-0.5l20.42,0l0,-8.39l0.21,-0.03c2.53,-0.37 4.45,-2.57 4.45,-5.13c0,-2.56 -1.91,-4.77 -4.45,-5.13l-0.21,-0.03l0,-8.48l-27.5,0l0,7.82l-0.24,0.01c-2.91,0.14 -5.19,2.54 -5.19,5.46c0,2.91 2.28,5.31 5.19,5.46l0.11,0.01l7.21,8.43z"/>
    <g id="svg_46">
     <g id="svg_47">
      <g id="svg_48">
       <path id="svg_49" d="m54.591688,134.165012l-7.21,0l0,-7.21l7.21,0l0,7.21zm-6.71,-0.5l6.21,0l0,-6.21l-6.21,0l0,6.21z"/>
      </g>
      <g id="svg_50">
       <path id="svg_51" d="m66.211688,134.165012l-7.21,0l0,-7.21l7.21,0l0,7.21zm-6.71,-0.5l6.21,0l0,-6.21l-6.21,0l0,6.21z"/>
      </g>
     </g>
     <g id="svg_52">
      <g id="svg_53">
       <path id="svg_54" d="m54.591688,145.785012l-7.21,0l0,-7.21l7.21,0l0,7.21zm-6.71,-0.5l6.21,0l0,-6.21l-6.21,0l0,6.21z"/>
      </g>
      <g id="svg_55">
       <path id="svg_56" d="m66.211688,145.785012l-7.21,0l0,-7.21l7.21,0l0,7.21zm-6.71,-0.5l6.21,0l0,-6.21l-6.21,0l0,6.21z"/>
      </g>
     </g>
    </g>
   </g>
   <g transform="rotate(90 56.02668380737305,55.090011596679695) " id="svg_57">
    <path id="svg_58" d="m70.661683,69.185016l-21.15,0l-0.07,-0.09l-7.15,-8.36c-3.13,-0.22 -5.56,-2.82 -5.56,-5.95c0,-3.1 2.37,-5.67 5.43,-5.94l0,-7.85l28.5,0l0,8.55c2.67,0.49 4.66,2.86 4.66,5.59c0,2.74 -1.99,5.1 -4.66,5.59l0,8.46zm-20.91,-0.5l20.41,0l0,-8.39l0.21,-0.03c2.53,-0.37 4.45,-2.57 4.45,-5.13c0,-2.56 -1.91,-4.77 -4.45,-5.13l-0.21,-0.03l0,-8.48l-27.5,0l0,7.82l-0.24,0.01c-2.91,0.14 -5.19,2.54 -5.19,5.46c0,2.91 2.28,5.31 5.19,5.46l0.11,0.01l7.22,8.43z"/>
    <g id="svg_59">
     <g id="svg_60">
      <g id="svg_61">
       <path id="svg_62" d="m54.581683,52.295016l-7.21,0l0,-7.21l7.21,0l0,7.21zm-6.71,-0.5l6.21,0l0,-6.21l-6.21,0l0,6.21z"/>
      </g>
      <g id="svg_63">
       <path id="svg_64" d="m66.201683,52.295016l-7.21,0l0,-7.21l7.21,0l0,7.21zm-6.71,-0.5l6.21,0l0,-6.21l-6.21,0l0,6.21z"/>
      </g>
     </g>
     <g id="svg_65">
      <g id="svg_66">
       <path id="svg_67" d="m54.581683,63.915016l-7.21,0l0,-7.21l7.21,0l0,7.21zm-6.71,-0.5l6.21,0l0,-6.21l-6.21,0l0,6.21z"/>
      </g>
      <g id="svg_68">
       <path id="svg_69" d="m66.201683,63.915016l-7.21,0l0,-7.21l7.21,0l0,7.21zm-6.71,-0.5l6.21,0l0,-6.21l-6.21,0l0,6.21z"/>
      </g>
     </g>
    </g>
   </g>
   <g transform="rotate(90 185.24168395996097,96.85501098632814) " id="svg_70">
    <path id="svg_71" d="m177.23168,99.165012c-1.27,0 -2.31,-1.04 -2.31,-2.31c0,-1.27 1.04,-2.31 2.31,-2.31s2.31,1.04 2.31,2.31c0,1.27 -1.04,2.31 -2.31,2.31zm0,-4.12c-1,0 -1.81,0.81 -1.81,1.81c0,1 0.81,1.81 1.81,1.81s1.81,-0.81 1.81,-1.81c0,-1 -0.81,-1.81 -1.81,-1.81z"/>
    <path id="svg_72" d="m193.25168,99.165012c-1.27,0 -2.31,-1.04 -2.31,-2.31c0,-1.27 1.04,-2.31 2.31,-2.31c1.27,0 2.31,1.04 2.31,2.31c0,1.27 -1.04,2.31 -2.31,2.31zm0,-4.12c-1,0 -1.81,0.81 -1.81,1.81c0,1 0.81,1.81 1.81,1.81s1.81,-0.81 1.81,-1.81c0,-1 -0.81,-1.81 -1.81,-1.81z"/>
   </g>
   <g transform="rotate(90 136.56169128417972,96.40501403808595) " id="svg_73">
    <path id="svg_74" d="m136.561677,101.225015c-2.66,0 -4.82,-2.16 -4.82,-4.82s2.16,-4.82 4.82,-4.82c2.66,0 4.82,2.16 4.82,4.82s-2.16,4.82 -4.82,4.82zm0,-9.14c-2.38,0 -4.32,1.94 -4.32,4.32s1.94,4.32 4.32,4.32s4.32,-1.94 4.32,-4.32s-1.94,-4.32 -4.32,-4.32z"/>
    <path id="svg_75" d="m121.581677,101.225015c-2.66,0 -4.82,-2.16 -4.82,-4.82s2.16,-4.82 4.82,-4.82s4.82,2.16 4.82,4.82s-2.16,4.82 -4.82,4.82zm0,-9.14c-2.38,0 -4.32,1.94 -4.32,4.32s1.94,4.32 4.32,4.32s4.32,-1.94 4.32,-4.32s-1.94,-4.32 -4.32,-4.32z"/>
    <path id="svg_76" d="m151.541677,101.225015c-2.66,0 -4.82,-2.16 -4.82,-4.82s2.16,-4.82 4.82,-4.82c2.66,0 4.82,2.16 4.82,4.82s-2.16,4.82 -4.82,4.82zm0,-9.14c-2.38,0 -4.32,1.94 -4.32,4.32s1.94,4.32 4.32,4.32s4.32,-1.94 4.32,-4.32s-1.94,-4.32 -4.32,-4.32z"/>
   </g>
   <g transform="rotate(90 21.86167526245116,96.85501098632814) " id="svg_77">
    <path id="svg_78" d="m13.851675,99.165007c-1.27,0 -2.31,-1.04 -2.31,-2.31c0,-1.27 1.04,-2.31 2.31,-2.31s2.31,1.04 2.31,2.31c0,1.27 -1.04,2.31 -2.31,2.31zm0,-4.12c-1,0 -1.81,0.81 -1.81,1.81s0.81,1.81 1.81,1.81s1.81,-0.81 1.81,-1.81s-0.81,-1.81 -1.81,-1.81z"/>
    <path id="svg_79" d="m29.871675,99.165007c-1.27,0 -2.31,-1.04 -2.31,-2.31c0,-1.27 1.04,-2.31 2.31,-2.31c1.27,0 2.31,1.04 2.31,2.31c0,1.27 -1.04,2.31 -2.31,2.31zm0,-4.12c-1,0 -1.81,0.81 -1.81,1.81s0.81,1.81 1.81,1.81s1.81,-0.81 1.81,-1.81s-0.81,-1.81 -1.81,-1.81z"/>
   </g>
   <g transform="rotate(90 34.37667465209961,55.47501373291016) " id="svg_80">
    <path id="svg_81" d="m44.796672,61.020009l-20.84,0l0,-11.09l20.84,0l0,11.09zm-20.34,-0.5l19.84,0l0,-10.09l-19.84,0l0,10.09z"/>
    <path id="svg_82" d="m42.506672,59.010009l-16.26,0l0,-7.08l16.26,0l0,7.08zm-15.76,-0.5l15.26,0l0,-6.08l-15.26,0l0,6.08z"/>
    <g id="svg_83">
     <g id="svg_84">
      <g id="svg_85">
       <polygon id="svg_86" points="41.646671295166016,57.750022888183594 39.49667739868164,57.750022888183594 39.49667739868164,53.170005798339844 39.99667739868164,53.170005798339844 39.99667739868164,57.250022888183594 41.146671295166016,57.250022888183594 41.146671295166016,53.170005798339844 41.646671295166016,53.170005798339844 "/>
       <path id="svg_87" d="m41.646672,57.760009l-2.15,0l0,-4.13l2.15,0l0,4.13zm-1.65,-0.5l1.15,0l0,-3.13l-1.15,0l0,3.13z"/>
       <path id="svg_88" d="m41.646672,57.770009l-2.15,0l0,-3.18l2.15,0l0,3.18zm-1.65,-0.5l1.15,0l0,-2.18l-1.15,0l0,2.18z"/>
      </g>
     </g>
     <g id="svg_89">
      <g id="svg_90">
       <polygon id="svg_91" points="39.16667556762695,57.750022888183594 37.016666412353516,57.750022888183594 37.016666412353516,53.170005798339844 37.516666412353516,53.170005798339844 37.516666412353516,57.250022888183594 38.66667556762695,57.250022888183594 38.66667556762695,53.170005798339844 39.16667556762695,53.170005798339844 "/>
       <path id="svg_92" d="m39.166672,57.760009l-2.15,0l0,-4.13l2.15,0l0,4.13zm-1.65,-0.5l1.15,0l0,-3.13l-1.15,0l0,3.13z"/>
       <path id="svg_93" d="m39.166672,57.770009l-2.15,0l0,-3.18l2.15,0l0,3.18zm-1.65,-0.5l1.15,0l0,-2.18l-1.15,0l0,2.18z"/>
      </g>
     </g>
     <g id="svg_94">
      <g id="svg_95">
       <polygon id="svg_96" points="36.68667221069336,57.750022888183594 34.53667068481445,57.750022888183594 34.53667068481445,53.170005798339844 35.03667068481445,53.170005798339844 35.03667068481445,57.250022888183594 36.18667221069336,57.250022888183594 36.18667221069336,53.170005798339844 36.68667221069336,53.170005798339844 "/>
       <path id="svg_97" d="m36.686672,57.760009l-2.15,0l0,-4.13l2.15,0l0,4.13zm-1.65,-0.5l1.15,0l0,-3.13l-1.15,0l0,3.13z"/>
       <path id="svg_98" d="m36.686672,57.770009l-2.15,0l0,-3.18l2.15,0l0,3.18zm-1.65,-0.5l1.15,0l0,-2.18l-1.15,0l0,2.18z"/>
      </g>
     </g>
     <g id="svg_99">
      <g id="svg_100">
       <polygon id="svg_101" points="34.206668853759766,57.750022888183594 32.05666732788086,57.750022888183594 32.05666732788086,53.170005798339844 32.55667495727539,53.170005798339844 32.55667495727539,57.250022888183594 33.7066764831543,57.250022888183594 33.7066764831543,53.170005798339844 34.206668853759766,53.170005798339844 "/>
       <path id="svg_102" d="m34.206672,57.760009l-2.15,0l0,-4.13l2.15,0l0,4.13zm-1.65,-0.5l1.15,0l0,-3.13l-1.15,0l0,3.13z"/>
       <path id="svg_103" d="m34.206672,57.770009l-2.15,0l0,-3.18l2.15,0l0,3.18zm-1.65,-0.5l1.15,0l0,-2.18l-1.15,0l0,2.18z"/>
      </g>
     </g>
     <g id="svg_104">
      <g id="svg_105">
       <polygon id="svg_106" points="31.726673126220703,57.750022888183594 29.576671600341797,57.750022888183594 29.576671600341797,53.170005798339844 30.076671600341797,53.170005798339844 30.076671600341797,57.250022888183594 31.226673126220703,57.250022888183594 31.226673126220703,53.170005798339844 31.726673126220703,53.170005798339844 "/>
       <path id="svg_107" d="m31.726672,57.760009l-2.15,0l0,-4.13l2.15,0l0,4.13zm-1.65,-0.5l1.15,0l0,-3.13l-1.15,0l0,3.13z"/>
       <path id="svg_108" d="m31.726672,57.770009l-2.15,0l0,-3.18l2.15,0l0,3.18zm-1.65,-0.5l1.15,0l0,-2.18l-1.15,0l0,2.18z"/>
      </g>
     </g>
     <g id="svg_109">
      <g id="svg_110">
       <polygon id="svg_111" points="29.24667739868164,57.750022888183594 27.096668243408203,57.750022888183594 27.096668243408203,53.170005798339844 27.596675872802734,53.170005798339844 27.596675872802734,57.250022888183594 28.74667739868164,57.250022888183594 28.74667739868164,53.170005798339844 29.24667739868164,53.170005798339844 "/>
       <path id="svg_112" d="m29.246672,57.760009l-2.15,0l0,-4.13l2.15,0l0,4.13zm-1.65,-0.5l1.15,0l0,-3.13l-1.15,0l0,3.13z"/>
       <path id="svg_113" d="m29.246672,57.770009l-2.15,0l0,-3.18l2.15,0l0,3.18zm-1.65,-0.5l1.15,0l0,-2.18l-1.15,0l0,2.18z"/>
      </g>
     </g>
    </g>
   </g>
   <g transform="rotate(90 42.996685028076165,91.81001281738283) " id="svg_114">
    <path id="svg_115" d="m49.391683,96.135019l-12.79,0c-0.92,0 -1.67,-0.75 -1.67,-1.67l0,-5.31c0,-0.92 0.75,-1.67 1.67,-1.67l12.79,0c0.92,0 1.67,0.75 1.67,1.67l0,5.31c-0.01,0.94 -0.75,1.67 -1.67,1.67zm-12.79,-8.15c-0.65,0 -1.17,0.52 -1.17,1.17l0,5.31c0,0.65 0.52,1.17 1.17,1.17l12.79,0c0.65,0 1.16,-0.52 1.17,-1.17l0,-5.31c0,-0.65 -0.52,-1.17 -1.17,-1.17l-12.79,0z"/>
    <path id="svg_116" d="m46.861683,94.705019l-7.74,0c-1.59,0 -2.89,-1.3 -2.89,-2.89s1.3,-2.89 2.89,-2.89l7.74,0c1.59,0 2.89,1.3 2.89,2.89c0,0.77 -0.29,1.49 -0.83,2.03c-0.55,0.56 -1.28,0.86 -2.06,0.86zm-7.74,-5.28c-1.32,0 -2.39,1.07 -2.39,2.39c0,1.32 1.07,2.39 2.39,2.39l7.74,0c0.65,0 1.25,-0.25 1.7,-0.71c0.45,-0.45 0.69,-1.05 0.69,-1.68c0,-1.32 -1.07,-2.39 -2.39,-2.39l-7.74,0z"/>
   </g>
   <path transform="rotate(90 102.57669067382812,96.94500732421876) " id="svg_117" d="m111.606691,197.790015c-1.44,0 -2.73,-1.05 -3,-2.51l-0.42,-2.22c-0.26,-1.37 -0.52,-2.74 -0.78,-4.09l0.49,-0.09c0.26,1.35 0.52,2.72 0.78,4.09l0.42,2.22c0.25,1.3 1.47,2.21 2.75,2.09c49.59,-4.74 86.98,-45.93 86.98,-95.81c0,-42.96 -28.86,-81.07 -70.18,-92.67l-0.07,-0.02l-0.05,-0.06c-6.46,-7.7 -15.92,-12.12 -25.95,-12.12c-10.03,0 -19.49,4.42 -25.96,12.12l-0.05,0.06l-0.07,0.02c-41.32,11.6 -70.17,49.71 -70.17,92.67c0,49.89 37.4,91.08 86.99,95.81c1.29,0.12 2.5,-0.79 2.75,-2.1c0.2,-1.06 0.4,-2.12 0.6,-3.18c0.19,-1.02 0.39,-2.03 0.58,-3.05l0.49,0.09c-0.19,1.02 -0.38,2.04 -0.58,3.05c-0.2,1.06 -0.4,2.12 -0.6,3.18c-0.29,1.55 -1.74,2.65 -3.29,2.5c-23.84,-2.27 -45.9,-13.3 -62.12,-31.05c-16.33,-17.85 -25.32,-41.03 -25.32,-65.25c0,-21.52 6.92,-41.9 20.01,-58.92c12.66,-16.46 30.57,-28.61 50.45,-34.21c6.56,-7.78 16.14,-12.24 26.29,-12.24c10.15,0 19.72,4.46 26.28,12.24c19.88,5.6 37.8,17.75 50.46,34.21c13.09,17.02 20.01,37.39 20.01,58.92c0,24.22 -8.99,47.39 -25.32,65.25c-16.22,17.75 -38.28,28.78 -62.11,31.06c-0.1,0.01 -0.2,0.01 -0.29,0.01z"/>
   <path transform="rotate(90 109.70167541503906,96.34500885009767) " id="svg_118" d="m131.241682,113.595009l-43.08,0c-2.48,0 -4.5,-2.02 -4.5,-4.5l0,-25.5c0,-2.48 2.02,-4.5 4.5,-4.5l43.08,0c2.48,0 4.5,2.02 4.5,4.5l0,25.5c0,2.48 -2.02,4.5 -4.5,4.5zm-43.08,-34c-2.21,0 -4,1.79 -4,4l0,25.5c0,2.21 1.79,4 4,4l43.08,0c2.21,0 4,-1.79 4,-4l0,-25.5c0,-2.21 -1.79,-4 -4,-4l-43.08,0z"/>
   <path transform="rotate(90 85.00167846679688,96.35000610351564) " id="svg_119" d="m104.58668,101.480002l-39.17,0c-0.92,0 -1.67,-0.75 -1.67,-1.67l0,-6.92c0,-0.92 0.75,-1.67 1.67,-1.67l39.17,0c0.92,0 1.67,0.75 1.67,1.67l0,6.92c-0.01,0.92 -0.76,1.67 -1.67,1.67zm-39.17,-9.76c-0.65,0 -1.17,0.52 -1.17,1.17l0,6.92c0,0.65 0.52,1.17 1.17,1.17l39.17,0c0.64,0 1.16,-0.53 1.17,-1.17l0,-6.92c0,-0.65 -0.52,-1.17 -1.17,-1.17l-39.17,0z"/>
   <path transform="rotate(90 109.70668029785156,96.35001373291017) " id="svg_120" d="m124.871674,107.395011l-30.33,0c-0.92,0 -1.67,-0.75 -1.67,-1.67l0,-18.75c0,-0.92 0.75,-1.67 1.67,-1.67l30.33,0c0.92,0 1.67,0.75 1.67,1.67l0,18.75c0,0.92 -0.75,1.67 -1.67,1.67zm-30.33,-21.59c-0.65,0 -1.17,0.53 -1.17,1.17l0,18.75c0,0.65 0.52,1.17 1.17,1.17l30.33,0c0.65,0 1.17,-0.52 1.17,-1.17l0,-18.75c0,-0.65 -0.52,-1.17 -1.17,-1.17l-30.33,0z"/>
   <path transform="rotate(90 109.71168518066406,96.34500885009767) " id="svg_121" d="m123.001684,106.265011l-26.58,0c-0.92,0 -1.67,-0.75 -1.67,-1.67l0,-16.5c0,-0.92 0.75,-1.67 1.67,-1.67l26.58,0c0.92,0 1.67,0.75 1.67,1.67l0,16.5c0,0.92 -0.75,1.67 -1.67,1.67zm-26.58,-19.34c-0.65,0 -1.17,0.52 -1.17,1.17l0,16.5c0,0.65 0.52,1.17 1.17,1.17l26.58,0c0.66,0 1.17,-0.51 1.17,-1.17l0,-16.5c0,-0.65 -0.52,-1.17 -1.17,-1.17l-26.58,0z"/>
   <path transform="rotate(90 109.70668029785156,96.3450164794922) " id="svg_122" d="m122.866671,105.440014l-26.32,0c-0.53,0 -0.96,-0.43 -0.96,-0.96l0,-16.27c0,-0.53 0.43,-0.96 0.96,-0.96l26.32,0c0.53,0 0.96,0.43 0.96,0.96l0,16.27c0,0.53 -0.43,0.96 -0.96,0.96zm-26.32,-17.69c-0.25,0 -0.46,0.21 -0.46,0.46l0,16.27c0,0.25 0.21,0.46 0.46,0.46l26.32,0c0.25,0 0.46,-0.21 0.46,-0.46l0,-16.27c0,-0.25 -0.21,-0.46 -0.46,-0.46l-26.32,0z"/>
   <path transform="rotate(90 109.70668029785156,96.35001373291017) " id="svg_123" d="m124.871674,107.395011l-30.33,0c-0.92,0 -1.67,-0.75 -1.67,-1.67l0,-18.75c0,-0.92 0.75,-1.67 1.67,-1.67l30.33,0c0.92,0 1.67,0.75 1.67,1.67l0,18.75c0,0.92 -0.75,1.67 -1.67,1.67zm-30.33,-21.59c-0.65,0 -1.17,0.53 -1.17,1.17l0,18.75c0,0.65 0.52,1.17 1.17,1.17l30.33,0c0.65,0 1.17,-0.52 1.17,-1.17l0,-18.75c0,-0.65 -0.52,-1.17 -1.17,-1.17l-30.33,0z"/>
   <path transform="rotate(90 116.01667785644531,96.35000610351564) " id="svg_124" d="m140.391687,141.275009l-48.75,0c-0.92,0 -1.67,-0.75 -1.67,-1.67l0,-60.94l4.99,-4.22c0.57,-0.48 0.91,-1.22 0.91,-1.97l0,-5c0,-0.76 -0.33,-1.48 -0.91,-1.97l-4.99,-4.22l0,-8.19c0,-0.92 0.75,-1.67 1.67,-1.67l7.48,0c0.92,0 1.67,0.75 1.67,1.67l0,6.53l30.44,0l0,-6.53c0,-0.92 0.75,-1.67 1.67,-1.67l7.48,0c0.92,0 1.67,0.75 1.67,1.67l0,8.19l-0.09,0.07l-4.9,4.15c-0.58,0.49 -0.91,1.21 -0.9,1.97l0,5c0,0.76 0.33,1.48 0.91,1.97l4.99,4.23l0,60.94c0,0.91 -0.75,1.66 -1.67,1.66zm-49.92,-62.37l0,60.7c0,0.65 0.52,1.17 1.17,1.17l48.75,0c0.65,0 1.17,-0.52 1.17,-1.17l0,-60.7l-4.81,-4.08c-0.69,-0.58 -1.09,-1.44 -1.09,-2.35l0,-5c-0.01,-0.91 0.38,-1.76 1.08,-2.35l4.81,-4.08l0,-7.95c0,-0.65 -0.53,-1.17 -1.17,-1.17l-7.48,0c-0.65,0 -1.17,0.52 -1.17,1.17l0,7.03l-31.44,0l0,-7.03c0,-0.65 -0.52,-1.17 -1.17,-1.17l-7.48,0c-0.65,0 -1.17,0.52 -1.17,1.17l0,7.95l4.81,4.08c0.69,0.58 1.09,1.44 1.09,2.35l0,5c0,0.9 -0.41,1.78 -1.09,2.35l-4.81,4.08z"/>
   <g transform="rotate(90 109.70167541503906,75.34500885009767) " id="svg_125">
    <path id="svg_126" d="m109.701682,76.935009c-0.88,0 -1.59,-0.71 -1.59,-1.59s0.71,-1.59 1.59,-1.59c0.88,0 1.59,0.71 1.59,1.59s-0.71,1.59 -1.59,1.59zm0,-2.68c-0.6,0 -1.09,0.49 -1.09,1.09s0.49,1.09 1.09,1.09s1.09,-0.49 1.09,-1.09s-0.49,-1.09 -1.09,-1.09z"/>
    <path id="svg_127" d="m111.581682,78.595009l-3.76,0l-1.87,-3.25l1.87,-3.25l3.76,0l1.87,3.25l-1.87,3.25zm-3.47,-0.5l3.18,0l1.59,-2.75l-1.59,-2.75l-3.18,0l-1.59,2.75l1.59,2.75z"/>
   </g>
   <g transform="rotate(90 109.70167541503908,117.44500732421875) " id="svg_128">
    <path id="svg_129" d="m109.711683,119.035008c-0.88,0 -1.59,-0.71 -1.59,-1.59s0.71,-1.59 1.59,-1.59s1.59,0.71 1.59,1.59s-0.71,1.59 -1.59,1.59zm0,-2.68c-0.6,0 -1.09,0.49 -1.09,1.09s0.49,1.09 1.09,1.09s1.09,-0.49 1.09,-1.09s-0.49,-1.09 -1.09,-1.09z"/>
    <path id="svg_130" d="m111.581683,120.695008l-3.76,0l-1.87,-3.25l1.87,-3.25l3.76,0l1.87,3.25l-1.87,3.25zm-3.47,-0.5l3.18,0l1.59,-2.75l-1.59,-2.75l-3.18,0l-1.59,2.75l1.59,2.75z"/>
   </g>
   <path transform="rotate(90 98.48667907714845,37.365009307861335) " id="svg_131" d="m99.236677,38.710006l-1.5,0l0,-2.69l1.5,0l0,2.69zm-1,-0.5l0.5,0l0,-1.69l-0.5,0l0,1.69z"/>
   <path transform="rotate(90 98.48167419433595,55.9850082397461) " id="svg_132" d="m102.441681,63.485007l-7.92,0l0,-15l7.92,0l0,6.62l-1.89,0l0,1.75l1.89,0l0,6.63zm-7.42,-0.5l6.92,0l0,-5.63l-1.89,0l0,-2.75l1.89,0l0,-5.62l-6.92,0l0,14z"/>
   <path transform="rotate(90 98.48167419433595,56.54000854492188) " id="svg_133" d="m102.996681,64.040008l-9.03,0l0,-15l9.03,0l0,15zm-8.53,-0.5l8.03,0l0,-14l-8.03,0l0,14z"/>
   <path transform="rotate(90 98.48167419433595,61.24501037597657) " id="svg_134" d="m99.171679,64.115009l-1.38,0l0,-5.74l1.38,0l0,5.74zm-0.88,-0.5l0.38,0l0,-4.74l-0.38,0l0,4.74z"/>
   <g transform="rotate(90 98.48667907714844,25.420013427734386) " id="svg_135">
    <path id="svg_136" d="m104.261673,50.86501l-11.55,0c-3.26,0 -5.92,-2.66 -5.92,-5.92l0,-39.05c0,-3.26 2.66,-5.92 5.92,-5.92l11.55,0c3.26,0 5.92,2.66 5.92,5.92l0,39.05c0,3.26 -2.66,5.92 -5.92,5.92zm-11.55,-50.39c-2.99,0 -5.42,2.43 -5.42,5.42l0,39.05c0,2.99 2.43,5.42 5.42,5.42l11.55,0c2.99,0 5.42,-2.43 5.42,-5.42l0,-39.05c0,-2.99 -2.43,-5.42 -5.42,-5.42l-11.55,0z"/>
    <g id="svg_137">
     <path id="svg_138" d="m93.201673,6.31501c-3.89,0 -5.13,-1.19 -5.18,-1.24l0.35,-0.36c0.01,0.01 1.18,1.1 4.82,1.1c1.78,0 3.31,-0.63 4.93,-1.3c1.83,-0.75 3.72,-1.53 6.18,-1.53c3.27,0 4.87,2.54 4.93,2.65l-0.43,0.26c-0.02,-0.02 -1.52,-2.41 -4.51,-2.41c-2.36,0 -4.21,0.76 -5.99,1.49c-1.65,0.69 -3.22,1.34 -5.1,1.34z"/>
     <path id="svg_139" d="m93.201673,11.43501c-3.89,0 -5.13,-1.19 -5.18,-1.24l0.35,-0.36c0.01,0.01 1.18,1.1 4.82,1.1c1.78,0 3.31,-0.63 4.93,-1.3c1.83,-0.75 3.72,-1.53 6.18,-1.53c3.27,0 4.87,2.54 4.93,2.65l-0.43,0.26c-0.02,-0.02 -1.52,-2.41 -4.51,-2.41c-2.36,0 -4.21,0.76 -5.99,1.49c-1.65,0.69 -3.22,1.34 -5.1,1.34z"/>
     <path id="svg_140" d="m93.201673,16.55501c-3.89,0 -5.13,-1.19 -5.18,-1.24l0.35,-0.36c0.01,0.01 1.18,1.1 4.82,1.1c1.78,0 3.31,-0.63 4.93,-1.3c1.83,-0.75 3.72,-1.53 6.18,-1.53c3.27,0 4.87,2.54 4.93,2.65l-0.43,0.26c-0.02,-0.02 -1.52,-2.41 -4.51,-2.41c-2.36,0 -4.21,0.76 -5.99,1.49c-1.65,0.69 -3.22,1.34 -5.1,1.34z"/>
     <path id="svg_141" d="m93.201673,21.67501c-3.89,0 -5.13,-1.19 -5.18,-1.24l0.35,-0.36c0.01,0.01 1.18,1.1 4.82,1.1c1.78,0 3.31,-0.63 4.93,-1.3c1.83,-0.75 3.72,-1.53 6.18,-1.53c3.27,0 4.87,2.54 4.93,2.65l-0.43,0.26c-0.02,-0.02 -1.52,-2.41 -4.51,-2.41c-2.36,0 -4.21,0.76 -5.99,1.49c-1.65,0.69 -3.22,1.34 -5.1,1.34z"/>
     <path id="svg_142" d="m93.201673,26.80501c-3.89,0 -5.13,-1.19 -5.18,-1.24l0.35,-0.36c0.01,0.01 1.18,1.1 4.82,1.1c1.78,0 3.31,-0.63 4.93,-1.3c1.83,-0.75 3.72,-1.53 6.18,-1.53c3.27,0 4.87,2.54 4.93,2.65l-0.41,0.26c-0.02,-0.02 -1.52,-2.41 -4.51,-2.41c-2.36,0 -4.21,0.76 -5.99,1.49c-1.67,0.69 -3.24,1.34 -5.12,1.34z"/>
     <path id="svg_143" d="m93.201673,31.92501c-3.89,0 -5.13,-1.19 -5.18,-1.24l0.35,-0.36c0.01,0.01 1.18,1.1 4.82,1.1c1.78,0 3.31,-0.63 4.93,-1.3c1.83,-0.75 3.72,-1.53 6.18,-1.53c3.27,0 4.87,2.54 4.93,2.65l-0.43,0.26c-0.02,-0.02 -1.52,-2.41 -4.51,-2.41c-2.36,0 -4.21,0.76 -5.99,1.49c-1.65,0.69 -3.22,1.34 -5.1,1.34z"/>
     <path id="svg_144" d="m93.201673,37.04501c-3.89,0 -5.13,-1.19 -5.18,-1.24l0.35,-0.36c0.01,0.01 1.18,1.1 4.82,1.1c1.78,0 3.31,-0.63 4.93,-1.3c1.83,-0.75 3.72,-1.53 6.18,-1.53c3.27,0 4.87,2.54 4.93,2.65l-0.43,0.26c-0.02,-0.02 -1.52,-2.41 -4.51,-2.41c-2.36,0 -4.21,0.76 -5.99,1.49c-1.65,0.69 -3.22,1.34 -5.1,1.34z"/>
     <path id="svg_145" d="m93.201673,42.17501c-3.89,0 -5.13,-1.19 -5.18,-1.24l0.35,-0.36c0.01,0.01 1.18,1.1 4.82,1.1c1.78,0 3.31,-0.63 4.93,-1.3c1.83,-0.75 3.72,-1.53 6.18,-1.53c3.27,0 4.87,2.54 4.93,2.65l-0.43,0.26c-0.02,-0.02 -1.52,-2.41 -4.51,-2.41c-2.36,0 -4.21,0.76 -5.99,1.49c-1.65,0.69 -3.22,1.34 -5.1,1.34z"/>
     <path id="svg_146" d="m93.201673,47.29501c-3.89,0 -5.13,-1.19 -5.18,-1.24l0.35,-0.36c0.01,0.01 1.18,1.1 4.82,1.1c1.78,0 3.31,-0.63 4.93,-1.3c1.83,-0.75 3.72,-1.53 6.18,-1.53c3.27,0 4.87,2.54 4.93,2.65l-0.43,0.26c-0.02,-0.02 -1.52,-2.41 -4.51,-2.41c-2.36,0 -4.21,0.76 -5.99,1.49c-1.65,0.69 -3.22,1.34 -5.1,1.34z"/>
    </g>
   </g>
   <polygon transform="rotate(90 108.01168823242189,47.50000762939454) " id="svg_147" points="113.03668594360352,48.860008239746094 102.9866828918457,48.860008239746094 102.9866828918457,46.14000701904297 106.08668899536133,46.14000701904297 106.08668899536133,46.64000701904297 103.4866828918457,46.64000701904297 103.4866828918457,48.360008239746094 112.53668594360352,48.360008239746094 112.53668594360352,46.64000701904297 109.92669296264648,46.64000701904297 109.92669296264648,46.14000701904297 113.03668594360352,46.14000701904297 "/>
   <path transform="rotate(90 98.28167724609376,47.49501037597657) " id="svg_148" d="m98.281682,60.495013c-1.2,0 -2.17,-0.97 -2.17,-2.17s0.97,-2.17 2.17,-2.17c1.2,0 2.17,0.97 2.17,2.17s-0.97,2.17 -2.17,2.17zm0,-3.84c-0.92,0 -1.67,0.75 -1.67,1.67s0.75,1.67 1.67,1.67s1.67,-0.75 1.67,-1.67s-0.75,-1.67 -1.67,-1.67zm0,-17.82c-1.2,0 -2.17,-0.97 -2.17,-2.17s0.97,-2.17 2.17,-2.17c1.2,0 2.17,0.97 2.17,2.17s-0.97,2.17 -2.17,2.17zm0,-3.84c-0.92,0 -1.67,0.75 -1.67,1.67s0.75,1.67 1.67,1.67s1.67,-0.75 1.67,-1.67s-0.75,-1.67 -1.67,-1.67z"/>
   <path transform="rotate(90 122.70167541503906,31.650012969970714) " id="svg_149" d="m136.286674,45.480013l-3.09,0c-1.7,0 -3.08,-1.38 -3.08,-3.08l0,-11.83c0,-1.42 -1.16,-2.58 -2.58,-2.58l-15.34,0c-1.7,0 -3.08,-1.38 -3.08,-3.08l0,-7.09l0.5,0l0,7.09c0,1.42 1.16,2.58 2.58,2.58l15.34,0c1.7,0 3.08,1.38 3.08,3.08l0,11.83c0,1.42 1.16,2.58 2.58,2.58l3.09,0l0,0.5z"/>
   <path transform="rotate(90 84.46166992187501,41.835014343261726) " id="svg_150" d="m61.181671,66.735009l-0.5,0l0,-6.56c0,-1.7 1.38,-3.08 3.08,-3.08l15.66,0c1.42,0 2.58,-1.16 2.58,-2.58l0,-12.84c0,-1.7 1.38,-3.08 3.08,-3.08l2.86,0c0.12,-1.08 1.04,-1.92 2.16,-1.92c1.11,0 2.03,0.84 2.16,1.92l12.9,0c1.42,0 2.58,-1.16 2.58,-2.58l0,-16c0,-1.42 -1.16,-2.58 -2.58,-2.58l-13.14,0l0,-0.5l13.14,0c1.7,0 3.08,1.38 3.08,3.08l0,16c0,1.7 -1.38,3.08 -3.08,3.08l-13.39,0l0,-0.25c0,-0.92 -0.75,-1.67 -1.67,-1.67s-1.67,0.75 -1.67,1.67l0,0.25l-3.35,0c-1.42,0 -2.58,1.16 -2.58,2.58l0,12.84c0,1.7 -1.38,3.08 -3.08,3.08l-15.66,0c-1.42,0 -2.58,1.16 -2.58,2.58l0,6.56z"/>
   <path transform="rotate(90 97.1716766357422,45.07001113891602) " id="svg_151" d="m104.62668,55.040013l-3.36,0l0,-0.25c0,-0.92 -0.75,-1.67 -1.67,-1.67s-1.67,0.75 -1.67,1.67l0,0.25l-3.35,0l0,-2.28l-4.86,0l0,-17.42l0.25,0l0,-0.24l14.66,0l0,19.94zm-2.87,-0.5l2.37,0l0,-18.94l-13.91,0l0,16.66l4.86,0l0,2.28l2.36,0c0.12,-1.08 1.04,-1.92 2.16,-1.92c1.11,0 2.03,0.84 2.16,1.92z"/>
   <path transform="rotate(90 98.28668212890626,47.49501037597657) " id="svg_152" d="m98.286679,59.40001c-0.59,0 -1.07,-0.48 -1.07,-1.07s0.48,-1.07 1.07,-1.07c0.59,0 1.07,0.48 1.07,1.07s-0.48,1.07 -1.07,1.07zm0,-1.64c-0.31,0 -0.57,0.26 -0.57,0.57c0,0.31 0.26,0.57 0.57,0.57c0.31,0 0.57,-0.26 0.57,-0.57c0,-0.31 -0.26,-0.57 -0.57,-0.57zm0,-20.03c-0.59,0 -1.07,-0.48 -1.07,-1.07s0.48,-1.07 1.07,-1.07c0.59,0 1.07,0.48 1.07,1.07c-0.01,0.59 -0.49,1.07 -1.07,1.07zm0,-1.64c-0.31,0 -0.57,0.26 -0.57,0.57c0,0.31 0.26,0.57 0.57,0.57c0.31,0 0.56,-0.26 0.57,-0.58c0,-0.3 -0.26,-0.56 -0.57,-0.56z"/>
   <path transform="rotate(90 98.47668457031249,156.50500488281253) " id="svg_153" d="m99.226687,157.850007l-1.5,0l0,-2.69l1.5,0l0,2.69zm-1,-0.5l0.5,0l0,-1.69l-0.5,0l0,1.69z"/>
   <path transform="rotate(90 98.48167419433592,137.88000488281253) " id="svg_154" d="m102.436684,145.380004l-7.91,0l0,-6.63l1.89,0l0,-1.75l-1.89,0l0,-6.62l7.91,0l0,15zm-7.41,-0.5l6.91,0l0,-14l-6.91,0l0,5.62l1.89,0l0,2.75l-1.89,0l0,5.63z"/>
   <path transform="rotate(90 98.48167419433592,137.32000732421878) " id="svg_155" d="m102.996682,144.820006l-9.03,0l0,-15l9.03,0l0,15zm-8.53,-0.5l8.03,0l0,-14l-8.03,0l0,14z"/>
   <path transform="rotate(90 98.48167419433592,132.61502075195315) " id="svg_156" d="m99.171668,135.48502l-1.38,0l0,-5.74l1.38,0l0,5.74zm-0.88,-0.5l0.38,0l0,-4.74l-0.38,0l0,4.74z"/>
   <g transform="rotate(90 98.48667907714842,168.45001220703128) " id="svg_157">
    <path id="svg_158" d="m104.261674,193.895009l-11.55,0c-3.26,0 -5.92,-2.66 -5.92,-5.92l0,-39.05c0,-3.26 2.66,-5.92 5.92,-5.92l11.55,0c3.26,0 5.92,2.66 5.92,5.92l0,39.05c0,3.26 -2.66,5.92 -5.92,5.92zm-11.55,-50.39c-2.99,0 -5.42,2.43 -5.42,5.42l0,39.05c0,2.99 2.43,5.42 5.42,5.42l11.55,0c2.99,0 5.42,-2.43 5.42,-5.42l0,-39.05c0,-2.99 -2.43,-5.42 -5.42,-5.42l-11.55,0z"/>
    <g id="svg_159">
     <path id="svg_160" d="m93.211674,149.345009c-3.89,0 -5.13,-1.19 -5.18,-1.24l0.35,-0.36c0.01,0.01 1.18,1.1 4.83,1.1c1.78,0 3.31,-0.63 4.93,-1.3c1.83,-0.75 3.72,-1.53 6.18,-1.53c3.27,0 4.87,2.54 4.93,2.65l-0.43,0.26c-0.01,-0.02 -1.52,-2.41 -4.51,-2.41c-2.36,0 -4.21,0.76 -5.99,1.49c-1.66,0.69 -3.23,1.34 -5.11,1.34z"/>
     <path id="svg_161" d="m93.211674,154.465009c-3.89,0 -5.13,-1.19 -5.18,-1.24l0.35,-0.36c0.01,0.01 1.18,1.1 4.83,1.1c1.78,0 3.31,-0.63 4.93,-1.3c1.83,-0.75 3.72,-1.53 6.18,-1.53c3.27,0 4.87,2.54 4.93,2.65l-0.43,0.26c-0.01,-0.02 -1.52,-2.41 -4.51,-2.41c-2.36,0 -4.21,0.76 -5.99,1.49c-1.66,0.69 -3.23,1.34 -5.11,1.34z"/>
     <path id="svg_162" d="m93.211674,159.585009c-3.89,0 -5.13,-1.19 -5.18,-1.24l0.35,-0.36c0.01,0.01 1.18,1.1 4.83,1.1c1.78,0 3.31,-0.63 4.93,-1.3c1.83,-0.75 3.72,-1.53 6.18,-1.53c3.27,0 4.87,2.54 4.93,2.65l-0.43,0.26c-0.01,-0.02 -1.52,-2.41 -4.51,-2.41c-2.36,0 -4.21,0.76 -5.99,1.49c-1.66,0.69 -3.23,1.34 -5.11,1.34z"/>
     <path id="svg_163" d="m93.211674,164.705009c-3.89,0 -5.13,-1.19 -5.18,-1.24l0.35,-0.36c0.01,0.01 1.18,1.1 4.83,1.1c1.78,0 3.31,-0.63 4.93,-1.3c1.83,-0.75 3.72,-1.53 6.18,-1.53c3.27,0 4.87,2.54 4.93,2.65l-0.43,0.26c-0.01,-0.02 -1.52,-2.41 -4.51,-2.41c-2.36,0 -4.21,0.76 -5.99,1.49c-1.66,0.69 -3.23,1.34 -5.11,1.34z"/>
     <path id="svg_164" d="m93.211674,169.835009c-3.89,0 -5.13,-1.19 -5.18,-1.24l0.35,-0.36c0.01,0.01 1.18,1.1 4.83,1.1c1.78,0 3.31,-0.63 4.93,-1.3c1.83,-0.75 3.72,-1.53 6.18,-1.53c3.27,0 4.87,2.54 4.93,2.65l-0.42,0.26c-0.01,-0.02 -1.52,-2.41 -4.51,-2.41c-2.36,0 -4.21,0.76 -5.99,1.49c-1.67,0.69 -3.24,1.34 -5.12,1.34z"/>
     <path id="svg_165" d="m93.211674,174.955009c-3.89,0 -5.13,-1.19 -5.18,-1.24l0.35,-0.36c0.01,0.01 1.18,1.1 4.83,1.1c1.78,0 3.31,-0.63 4.93,-1.3c1.83,-0.75 3.72,-1.53 6.18,-1.53c3.27,0 4.87,2.54 4.93,2.65l-0.43,0.26c-0.01,-0.02 -1.52,-2.41 -4.51,-2.41c-2.36,0 -4.21,0.76 -5.99,1.49c-1.66,0.69 -3.23,1.34 -5.11,1.34z"/>
     <path id="svg_166" d="m93.211674,180.075009c-3.89,0 -5.13,-1.19 -5.18,-1.24l0.35,-0.36c0.01,0.01 1.18,1.1 4.83,1.1c1.78,0 3.31,-0.63 4.93,-1.3c1.83,-0.75 3.72,-1.53 6.18,-1.53c3.27,0 4.87,2.54 4.93,2.65l-0.43,0.26c-0.01,-0.02 -1.52,-2.41 -4.51,-2.41c-2.36,0 -4.21,0.76 -5.99,1.49c-1.66,0.69 -3.23,1.34 -5.11,1.34z"/>
     <path id="svg_167" d="m93.211674,185.205009c-3.89,0 -5.13,-1.19 -5.18,-1.24l0.35,-0.36c0.01,0.01 1.18,1.1 4.83,1.1c1.78,0 3.31,-0.63 4.93,-1.3c1.83,-0.75 3.72,-1.53 6.18,-1.53c3.27,0 4.87,2.54 4.93,2.65l-0.43,0.26c-0.01,-0.02 -1.52,-2.41 -4.51,-2.41c-2.36,0 -4.21,0.76 -5.99,1.49c-1.66,0.69 -3.23,1.34 -5.11,1.34z"/>
     <path id="svg_168" d="m93.211674,190.325009c-3.89,0 -5.13,-1.19 -5.18,-1.24l0.35,-0.36c0.01,0.01 1.18,1.1 4.83,1.1c1.78,0 3.31,-0.63 4.93,-1.3c1.83,-0.75 3.72,-1.53 6.18,-1.53c3.27,0 4.87,2.54 4.93,2.65l-0.43,0.26c-0.01,-0.02 -1.52,-2.41 -4.51,-2.41c-2.36,0 -4.21,0.76 -5.99,1.49c-1.66,0.69 -3.23,1.34 -5.11,1.34z"/>
    </g>
   </g>
   <polygon transform="rotate(90 108.01168823242186,146.3650054931641) " id="svg_169" points="113.04168319702148,147.72500610351562 102.98168563842773,147.72500610351562 102.98168563842773,145.0050048828125 106.10168075561523,145.0050048828125 106.10168075561523,145.5050048828125 103.48168563842773,145.5050048828125 103.48168563842773,147.22500610351562 112.54168319702148,147.22500610351562 112.54168319702148,145.5050048828125 109.94169235229492,145.5050048828125 109.94169235229492,145.0050048828125 113.04168319702148,145.0050048828125 "/>
   <path transform="rotate(90 98.28167724609374,146.3750152587891) " id="svg_170" d="m98.281677,159.375017c-1.2,0 -2.17,-0.97 -2.17,-2.17s0.97,-2.17 2.17,-2.17s2.17,0.97 2.17,2.17s-0.97,2.17 -2.17,2.17zm0,-3.84c-0.92,0 -1.67,0.75 -1.67,1.67s0.75,1.67 1.67,1.67s1.67,-0.75 1.67,-1.67s-0.75,-1.67 -1.67,-1.67zm0,-17.82c-1.2,0 -2.17,-0.97 -2.17,-2.17s0.97,-2.17 2.17,-2.17s2.17,0.97 2.17,2.17s-0.97,2.17 -2.17,2.17zm0,-3.84c-0.92,0 -1.67,0.75 -1.67,1.67s0.75,1.67 1.67,1.67s1.67,-0.75 1.67,-1.67s-0.75,-1.67 -1.67,-1.67z"/>
   <path transform="rotate(90 122.70167541503905,162.21501159667972) " id="svg_171" d="m112.211679,176.045012l-3.09,0l0,-0.5l3.09,0c1.42,0 2.58,-1.16 2.58,-2.58l0,-11.83c0,-1.7 1.38,-3.08 3.08,-3.08l15.33,0c1.42,0 2.58,-1.16 2.58,-2.58l0,-7.09l0.5,0l0,7.09c0,1.7 -1.38,3.08 -3.08,3.08l-15.33,0c-1.42,0 -2.58,1.16 -2.58,2.58l0,11.83c0,1.7 -1.38,3.08 -3.08,3.08z"/>
   <path transform="rotate(90 84.46166992187499,152.0400085449219) " id="svg_172" d="m108.236676,176.940003l-0.5,0l0,-6.56c0,-1.42 -1.16,-2.58 -2.58,-2.58l-15.66,0c-1.7,0 -3.08,-1.38 -3.08,-3.08l0,-12.84c0,-1.42 -1.16,-2.58 -2.58,-2.58l-3.35,0l0,-0.25c0,-0.92 -0.75,-1.67 -1.67,-1.67s-1.67,0.75 -1.67,1.67l0,0.25l-13.39,0c-1.7,0 -3.08,-1.38 -3.08,-3.08l0,-16c0,-1.7 1.38,-3.08 3.08,-3.08l13.14,0l0,0.5l-13.14,0c-1.42,0 -2.58,1.16 -2.58,2.58l0,16c0,1.42 1.16,2.58 2.58,2.58l12.91,0c0.12,-1.08 1.04,-1.92 2.16,-1.92s2.03,0.84 2.16,1.92l2.86,0c1.7,0 3.08,1.38 3.08,3.08l0,12.84c0,1.42 1.16,2.58 2.58,2.58l15.66,0c1.7,0 3.08,1.38 3.08,3.08l0,6.56l-0.01,0z"/>
   <path transform="rotate(90 97.17167663574217,148.8000183105469) " id="svg_173" d="m99.766673,158.77002l-3.35,0l0,-0.25c0,-0.92 -0.75,-1.67 -1.67,-1.67s-1.67,0.75 -1.67,1.67l0,0.25l-3.36,0l0,-19.94l14.66,0l0,0.24l0.25,0.01l0,17.41l-4.86,0l0,2.28zm-2.87,-0.5l2.37,0l0,-2.28l4.86,0l0,-16.66l-13.91,0l0,18.94l2.37,0c0.12,-1.08 1.04,-1.92 2.16,-1.92s2.03,0.84 2.15,1.92z"/>
   <path transform="rotate(90 98.28668212890624,146.37500000000003) " id="svg_174" d="m98.286689,158.279999c-0.59,0 -1.07,-0.48 -1.07,-1.07s0.48,-1.07 1.07,-1.07s1.07,0.48 1.07,1.07s-0.48,1.07 -1.07,1.07zm0,-1.64c-0.31,0 -0.57,0.26 -0.57,0.57c0,0.31 0.26,0.57 0.57,0.57c0.31,0 0.57,-0.26 0.57,-0.57c0,-0.31 -0.26,-0.57 -0.57,-0.57zm0,-20.03c-0.59,0 -1.07,-0.48 -1.07,-1.07s0.48,-1.07 1.07,-1.07s1.07,0.48 1.07,1.07s-0.48,1.07 -1.07,1.07zm0,-1.64c-0.31,0 -0.57,0.26 -0.57,0.57c0,0.31 0.26,0.57 0.57,0.57c0.31,0 0.57,-0.26 0.57,-0.57c0,-0.31 -0.26,-0.57 -0.57,-0.57z"/>
   <g transform="rotate(90 84.99667358398438,96.34564208984376) " id="svg_175">
    <path id="svg_176" d="m103.836046,99.260641l-37.68,0c-0.29,0 -0.53,-0.24 -0.53,-0.53l0,-4.77c0,-0.29 0.24,-0.53 0.53,-0.53l37.68,0c0.29,0 0.53,0.24 0.53,0.53l0,4.77c0.01,0.12 -0.04,0.26 -0.14,0.36c-0.1,0.11 -0.24,0.17 -0.39,0.17zm-37.68,-5.33l-0.03,4.8l37.71,0.03c0.02,0 0.03,-0.01 0.03,-0.02l0,-4.79l-37.71,-0.02z"/>
    <g id="svg_177">
     <g id="svg_178">
      <g id="svg_179">
       <path id="svg_180" d="m102.266046,98.260641l-1.85,0l0,-1.48l1.85,0l0,1.48zm-1.35,-0.5l0.85,0l0,-0.48l-0.85,0l0,0.48z"/>
      </g>
      <g id="svg_181">
       <path id="svg_182" d="m99.006046,98.260641l-1.85,0l0,-1.48l1.85,0l0,1.48zm-1.35,-0.5l0.85,0l0,-0.48l-0.85,0l0,0.48z"/>
      </g>
      <g id="svg_183">
       <path id="svg_184" d="m95.746046,98.260641l-1.85,0l0,-1.48l1.85,0l0,1.48zm-1.35,-0.5l0.85,0l0,-0.48l-0.85,0l0,0.48z"/>
      </g>
      <g id="svg_185">
       <path id="svg_186" d="m92.486046,98.260641l-1.85,0l0,-1.48l1.85,0l0,1.48zm-1.35,-0.5l0.85,0l0,-0.48l-0.85,0l0,0.48z"/>
      </g>
      <g id="svg_187">
       <path id="svg_188" d="m89.226046,98.260641l-1.85,0l0,-1.48l1.85,0l0,1.48zm-1.35,-0.5l0.85,0l0,-0.48l-0.85,0l0,0.48z"/>
      </g>
      <g id="svg_189">
       <path id="svg_190" d="m85.966046,98.260641l-1.85,0l0,-1.48l1.85,0l0,1.48zm-1.35,-0.5l0.85,0l0,-0.48l-0.85,0l0,0.48z"/>
      </g>
      <g id="svg_191">
       <path id="svg_192" d="m82.706046,98.260641l-1.85,0l0,-1.48l1.85,0l0,1.48zm-1.35,-0.5l0.85,0l0,-0.48l-0.85,0l0,0.48z"/>
      </g>
      <g id="svg_193">
       <path id="svg_194" d="m79.446046,98.260641l-1.85,0l0,-1.48l1.85,0l0,1.48zm-1.35,-0.5l0.85,0l0,-0.48l-0.85,0l0,0.48z"/>
      </g>
      <g id="svg_195">
       <path id="svg_196" d="m76.186046,98.260641l-1.85,0l0,-1.48l1.85,0l0,1.48zm-1.35,-0.5l0.85,0l0,-0.48l-0.85,0l0,0.48z"/>
      </g>
      <g id="svg_197">
       <path id="svg_198" d="m72.926046,98.260641l-1.85,0l0,-1.48l1.85,0l0,1.48zm-1.35,-0.5l0.85,0l0,-0.48l-0.85,0l0,0.48z"/>
      </g>
      <g id="svg_199">
       <path id="svg_200" d="m69.666046,98.260641l-1.85,0l0,-1.48l1.85,0l0,1.48zm-1.35,-0.5l0.85,0l0,-0.48l-0.85,0l0,0.48z"/>
      </g>
     </g>
     <g id="svg_201">
      <g id="svg_202">
       <path id="svg_203" d="m102.266046,95.990641l-1.85,0l0,-1.48l1.85,0l0,1.48zm-1.35,-0.5l0.85,0l0,-0.48l-0.85,0l0,0.48z"/>
      </g>
      <g id="svg_204">
       <path id="svg_205" d="m99.006046,95.990641l-1.85,0l0,-1.48l1.85,0l0,1.48zm-1.35,-0.5l0.85,0l0,-0.48l-0.85,0l0,0.48z"/>
      </g>
      <g id="svg_206">
       <path id="svg_207" d="m95.746046,95.990641l-1.85,0l0,-1.48l1.85,0l0,1.48zm-1.35,-0.5l0.85,0l0,-0.48l-0.85,0l0,0.48z"/>
      </g>
      <g id="svg_208">
       <path id="svg_209" d="m92.486046,95.990641l-1.85,0l0,-1.48l1.85,0l0,1.48zm-1.35,-0.5l0.85,0l0,-0.48l-0.85,0l0,0.48z"/>
      </g>
      <g id="svg_210">
       <path id="svg_211" d="m89.226046,95.990641l-1.85,0l0,-1.48l1.85,0l0,1.48zm-1.35,-0.5l0.85,0l0,-0.48l-0.85,0l0,0.48z"/>
      </g>
      <g id="svg_212">
       <path id="svg_213" d="m85.966046,95.990641l-1.85,0l0,-1.48l1.85,0l0,1.48zm-1.35,-0.5l0.85,0l0,-0.48l-0.85,0l0,0.48z"/>
      </g>
      <g id="svg_214">
       <path id="svg_215" d="m82.706046,95.990641l-1.85,0l0,-1.48l1.85,0l0,1.48zm-1.35,-0.5l0.85,0l0,-0.48l-0.85,0l0,0.48z"/>
      </g>
      <g id="svg_216">
       <path id="svg_217" d="m79.446046,95.990641l-1.85,0l0,-1.48l1.85,0l0,1.48zm-1.35,-0.5l0.85,0l0,-0.48l-0.85,0l0,0.48z"/>
      </g>
      <g id="svg_218">
       <path id="svg_219" d="m76.186046,95.990641l-1.85,0l0,-1.48l1.85,0l0,1.48zm-1.35,-0.5l0.85,0l0,-0.48l-0.85,0l0,0.48z"/>
      </g>
      <g id="svg_220">
       <path id="svg_221" d="m72.926046,95.990641l-1.85,0l0,-1.48l1.85,0l0,1.48zm-1.35,-0.5l0.85,0l0,-0.48l-0.85,0l0,0.48z"/>
      </g>
      <g id="svg_222">
       <path id="svg_223" d="m69.666046,95.990641l-1.85,0l0,-1.48l1.85,0l0,1.48zm-1.35,-0.5l0.85,0l0,-0.48l-0.85,0l0,0.48z"/>
      </g>
     </g>
    </g>
   </g>
   <rect transform="rotate(90 199.35168457031253,96.94500732421876) " id="svg_224" height="7.62" width="0.5" y="93.135009" x="199.101685"/>
   <style transform="translate(-2.005725860595703,0) translate(0.5730645060539246,2.2922580242156982) translate(0.2865322530269623,-1.1461290121078491) translate(0,-0.2865322530269623) matrix(0.11260909012566245,0,0,0.11260909012566245,0,0) " type="text/css">.st0{fill:#FFFFFF;}</style>
  </g>
 </g>
</svg>