<svg width="66px" height="146px" viewBox="0 0 66 146" version="1.1" xml:space="preserve" xmlns="http://www.w3.org/2000/svg" xmlns:xlink="http://www.w3.org/1999/xlink">
  <defs/>
  <g>
    <title>drum-highhat-c</title>
    <desc>Created with Sketch.</desc>
    <g id="music" stroke="none" stroke-width="1" fill="none" fill-rule="evenodd">
      <g id="drum-highhat-c" fill-rule="nonzero">
        <g id="hh_2" transform="translate(2.000000, 11.000000)">
          <g id="Group" transform="translate(32.000000, 69.260377)">
            <path d="M5,56.1611321 C4.8,53.6516981 4.45,51.2928302 4.15,48.9339623 C3.75,45.9728302 3.45,43.0116981 2.95,40.1007547 C2.55,37.6916981 2.2,35.2324528 1.9,32.8233962 C1.55,30.4143396 1.3,28.005283 1.25,25.5962264 C1.2,23.789434 1.1,21.9324528 1.1,20.1256604 C1.1,17.9173585 1.05,15.7090566 1.1,13.5509434 C1.15,11.0415094 1.3,8.53207547 1.45,6.02264151 C1.45,5.77169811 1.5,5.52075472 1.45,5.32 C1.35,4.1154717 1.8,3.06150943 2.15,1.95735849 C2.45,1.05396226 3.9,0.351320755 4.5,0.401509434 C5,0.451698113 5.45,0.752830189 5.75,1.10415094 C6.25,1.60603774 6.65,2.15811321 6.75,2.96113208 C6.9,4.01509434 7.05,5.0690566 7,6.17320755 C6.95,8.43169811 7.05,10.64 6.9,12.8984906 C6.85,13.450566 6.7,14.0026415 6.65,14.554717 C6.55,15.3075472 6.6,16.0603774 6.55,16.8132075 C6.5,17.7667925 6.5,18.7203774 6.45,19.6739623 C6.35,21.3301887 6.35,22.9362264 6.35,24.5924528 C6.35,25.7969811 6.35,27.0015094 6.4,28.2060377 C6.4,28.8083019 6.45,29.410566 6.55,29.9626415 C7,33.2750943 7.5,36.5875472 8.15,39.9 C8.25,40.4520755 8.3,41.0041509 8.4,41.5562264 C8.9,44.8686792 9.35,48.2313208 9.85,51.5437736 C10.25,54.0030189 10.5,56.5124528 11.15,58.8713208 C11.2,59.0720755 11.25,59.2728302 11.25,59.4735849 C11.4,60.4773585 11.3,60.7283019 10.5,61.2301887 C10.35,61.330566 10.2,61.4309434 10.05,61.5313208 C8.45,62.0332075 6.95,62.8362264 5.3,63.0871698 C4.1,63.2879245 2.95,63.4384906 1.75,63.6392453 C1.5,63.689434 1.2,63.6392453 0.9,63.5890566 C0.35,63.5388679 -5.11257703e-14,63.0871698 0.25,62.2841509 C0.45,61.6818868 0.75,61.1298113 1.2,60.6781132 C2.65,59.2728302 3.7,57.5664151 5,56.1611321 Z M10.1,59.9754717 C10.25,59.6241509 10.2,59.4233962 10.15,59.1724528 C9.85,57.3154717 9.5,55.4584906 9.2,53.5513208 C8.8,50.9916981 8.45,48.4822642 8.05,45.9226415 C7.7,43.814717 7.5,41.7067925 7.1,39.5988679 C6.9,38.494717 6.75,37.4407547 6.55,36.3366038 C6.35,35.2826415 6.2,34.2286792 6,33.174717 C5.8,31.92 5.6,30.665283 5.5,29.410566 C5.4,27.7041509 5.35,25.9977358 5.35,24.2913208 C5.3,21.28 5.55,18.3188679 5.65,15.3075472 C5.7,14.2535849 5.95,13.2498113 5.9,12.2460377 C5.85,11.6939623 5.9,11.1418868 5.9,10.5898113 C5.9,8.83320755 5.95,7.07660377 5.9,5.32 C5.9,4.41660377 5.8,3.51320755 5.55,2.60981132 C5.35,1.90716981 5,1.55584906 4.35,1.55584906 C3.75,1.55584906 3.4,1.80679245 3.15,2.50943396 C3.05,2.71018868 3,2.96113208 2.95,3.21207547 C2.55,4.56716981 2.55,5.97245283 2.5,7.37773585 C2.45,8.38150943 2.5,9.38528302 2.35,10.3890566 C2.2,11.8445283 2.15,13.2498113 2.15,14.705283 C2.15,16.1607547 2.25,17.5660377 2.2,19.0215094 C2.1,21.8822642 2.25,24.6928302 2.4,27.5033962 C2.65,31.6188679 3.35,35.6841509 3.95,39.749434 C4.3,42.1584906 4.65,44.5173585 4.95,46.9264151 C5.1,48.030566 5.15,49.134717 5.35,50.2388679 C5.65,51.8950943 5.75,53.6015094 5.85,55.3079245 C5.85,55.6090566 5.8,55.86 5.75,56.1109434 C5.55,56.9641509 5.3,57.7169811 4.65,58.2690566 C4.45,58.4196226 4.3,58.670566 4.15,58.9215094 C3.65,59.6241509 3.1,60.2766038 2.5,60.8286792 C2.2,61.1298113 1.95,61.4811321 1.7,61.7822642 C1.6,61.9328302 1.55,62.1335849 1.75,62.3343396 C4.65,61.9830189 7.45,61.330566 10.1,59.9754717 Z" id="Shape" fill="#010101"/>
            <path d="M10.1,59.9754717 C7.45,61.330566 4.65,61.9830189 1.75,62.2339623 C1.6,62.0332075 1.6,61.8324528 1.7,61.6818868 C1.95,61.330566 2.2,61.029434 2.5,60.7283019 C3.1,60.1260377 3.65,59.4735849 4.15,58.8211321 C4.3,58.6203774 4.45,58.369434 4.65,58.1686792 C5.3,57.6166038 5.55,56.8637736 5.75,56.010566 C5.8,55.709434 5.85,55.4584906 5.85,55.2075472 C5.75,53.5011321 5.6,51.794717 5.35,50.1384906 C5.15,49.0343396 5.1,47.9301887 4.95,46.8260377 C4.6,44.4169811 4.25,42.0581132 3.95,39.6490566 C3.35,35.5837736 2.7,31.5184906 2.4,27.4030189 C2.2,24.5924528 2.05,21.7818868 2.2,18.9211321 C2.25,17.4656604 2.15,16.0603774 2.15,14.6049057 C2.15,13.149434 2.15,11.7441509 2.35,10.2886792 C2.45,9.28490566 2.4,8.28113208 2.5,7.27735849 C2.6,5.87207547 2.6,4.46679245 2.95,3.11169811 C3,2.86075472 3.05,2.66 3.15,2.4090566 C3.45,1.70641509 3.75,1.4554717 4.35,1.4554717 C5,1.4554717 5.35,1.80679245 5.55,2.50943396 C5.8,3.36264151 5.9,4.31622642 5.9,5.21962264 C5.95,6.97622642 5.9,8.73283019 5.9,10.489434 C5.9,11.0415094 5.85,11.5935849 5.9,12.1456604 C5.95,13.1996226 5.7,14.2033962 5.65,15.2071698 C5.5,18.2184906 5.3,21.1796226 5.35,24.1909434 C5.35,25.8973585 5.4,27.6037736 5.5,29.3101887 C5.6,30.5649057 5.8,31.8196226 6,33.0743396 C6.15,34.1283019 6.35,35.1822642 6.55,36.2362264 C6.75,37.3403774 6.9,38.4445283 7.1,39.4984906 C7.5,41.6064151 7.75,43.7143396 8.05,45.8222642 C8.45,48.3818868 8.8,50.8913208 9.2,53.4509434 C9.5,55.3079245 9.85,57.1649057 10.15,59.0720755 C10.2,59.4233962 10.25,59.6743396 10.1,59.9754717 Z" id="Shape" fill="#D0E9EA"/>
          </g>
          <g id="Group" transform="translate(19.000000, 68.758491)">
            <path d="M13,4.1154717 C13.1,5.0690566 12.95,6.02264151 12.7,6.97622642 C12.1,9.13433962 11.55,11.2924528 11,13.450566 C10.7,14.705283 10.5,16.0101887 10.25,17.3150943 C9.7,20.3766038 9.15,23.4381132 8.55,26.4996226 C8.4,27.3528302 8.35,28.2562264 8.3,29.109434 C8.1,31.3177358 8.3,33.5260377 8.55,35.6841509 C8.75,37.5411321 8.95,39.4483019 9.1,41.305283 C9.25,42.7607547 9.4,44.2664151 9.55,45.7218868 C9.75,47.6290566 9.95,49.5362264 10.15,51.4433962 C10.3,52.8988679 10.5,54.4045283 10.65,55.86 C10.65,56.0607547 10.75,56.2615094 10.75,56.4622642 C10.8,57.7169811 10.55,58.1184906 9.45,58.4196226 C7.65,58.8713208 5.8,59.3230189 4,59.7245283 C3.55,59.8249057 3.05,59.925283 2.6,60.0758491 C2.1,60.2264151 1.65,60.1762264 1.2,59.9754717 C0.55,59.7245283 0.3,59.1222642 0.65,58.4698113 C0.9,58.0683019 1.2,57.7169811 1.55,57.4158491 C2.65,56.5124528 3.5,55.3581132 4.35,54.2037736 C4.75,53.7018868 5.05,53.1498113 4.85,52.4471698 C4.9,48.6328302 4.35,44.8686792 4.15,41.0543396 C4,38.6954717 3.85,36.3366038 3.75,33.9777358 C3.7,32.9237736 3.65,31.92 3.55,30.8660377 C3.4,28.9588679 3.65,27.1018868 3.9,25.2449057 C4.2,23.2373585 4.6,21.2298113 5.1,19.2724528 C5.75,16.5622642 6.15,13.8018868 6.65,11.0415094 C6.85,9.83698113 7.1,8.68264151 7.3,7.52830189 C7.3,7.42792453 7.35,7.27735849 7.4,7.17698113 C7.85,6.67509434 7.85,6.02264151 7.9,5.37018868 C8.1,4.06528302 8.55,2.81056604 9.1,1.65622642 C9.65,0.451698113 10.65,0.150566038 11.8,0.602264151 C12.35,0.853207547 12.55,1.30490566 12.75,1.80679245 C12.85,2.05773585 12.95,2.30867925 12.95,2.60981132 C13,3.16188679 13,3.61358491 13,4.1154717 Z M2,58.8713208 C2.3,58.9716981 2.6,58.9215094 2.9,58.8211321 C4.75,58.369434 6.6,57.8675472 8.45,57.4158491 C9.55,57.114717 9.9,57.114717 9.6,55.4083019 C9.4,54.2037736 9.15,53.049434 9,51.8449057 C8.55,48.1309434 8.1,44.4671698 7.85,40.7532075 C7.8,39.8498113 7.75,38.8962264 7.65,37.9928302 C7.45,36.4871698 7.25,34.9815094 7.25,33.4758491 C7.25,33.0241509 7.25,32.5724528 7.2,32.1709434 C6.95,29.9124528 7.1,27.6539623 7.6,25.4958491 C8.15,22.7856604 8.65,20.0754717 9.2,17.4154717 C10,13.5509434 10.9,9.73660377 11.8,5.87207547 C12.05,4.71773585 12.05,3.56339623 11.9,2.4090566 C11.85,1.90716981 11.55,1.75660377 11.1,1.90716981 C10.25,2.20830189 9.7,2.86075472 9.45,3.81433962 C9.3,4.56716981 9.15,5.32 8.95,6.02264151 C8.5,7.47811321 8.2,8.93358491 7.9,10.4392453 C7.55,12.2962264 7.3,14.1532075 6.95,16.0101887 C6.5,18.4192453 5.9,20.7279245 5.45,23.1369811 C5.2,24.6426415 4.9,26.0981132 4.75,27.6037736 C4.65,28.6075472 4.6,29.6615094 4.65,30.7154717 C4.85,33.2249057 4.95,35.7343396 5.1,38.2939623 C5.25,40.7030189 5.35,43.1120755 5.6,45.4709434 C5.8,47.6792453 5.95,49.8373585 6,52.0456604 C6,53.1498113 5.8,54.1033962 5.2,54.9566038 C4.45,56.0607547 3.65,57.2150943 2.6,58.0181132 C2.4,58.1686792 2.25,58.3192453 2.15,58.52 C2.05,58.6203774 2.05,58.7709434 2,58.8713208 Z" id="Shape" fill="#010101"/>
            <path d="M2,58.8713208 C2,58.7709434 2,58.6203774 2.05,58.52 C2.2,58.3192453 2.35,58.1686792 2.5,58.0181132 C3.55,57.2150943 4.35,56.0607547 5.1,54.9566038 C5.7,54.1033962 5.95,53.0996226 5.9,52.0456604 C5.85,49.8373585 5.7,47.6290566 5.5,45.4709434 C5.3,43.0618868 5.15,40.7030189 5,38.2939623 C4.85,35.7845283 4.75,33.2249057 4.55,30.7154717 C4.45,29.6615094 4.5,28.6075472 4.65,27.6037736 C4.8,26.0981132 5.1,24.5924528 5.35,23.1369811 C5.8,20.7279245 6.4,18.4192453 6.85,16.0101887 C7.2,14.1532075 7.45,12.2962264 7.8,10.4392453 C8.1,8.93358491 8.4,7.47811321 8.85,6.02264151 C9.05,5.32 9.2,4.56716981 9.35,3.81433962 C9.55,2.86075472 10.1,2.20830189 11,1.90716981 C11.45,1.75660377 11.75,1.90716981 11.8,2.4090566 C11.95,3.56339623 12,4.71773585 11.7,5.87207547 C10.8,9.68641509 9.9,13.5509434 9.1,17.4154717 C8.55,20.1256604 8.05,22.8358491 7.5,25.4958491 C7.05,27.7041509 6.85,29.9124528 7.1,32.1709434 C7.15,32.6226415 7.15,33.0743396 7.15,33.4758491 C7.2,34.9815094 7.4,36.4871698 7.55,37.9928302 C7.65,38.8962264 7.7,39.8498113 7.75,40.7532075 C8,44.4671698 8.45,48.1811321 8.9,51.8449057 C9.05,53.049434 9.3,54.2037736 9.5,55.4083019 C9.75,57.114717 9.45,57.114717 8.35,57.4158491 C6.5,57.8675472 4.65,58.369434 2.8,58.8211321 C2.6,58.9215094 2.35,58.9716981 2,58.8713208 Z" id="Shape" fill="#D0E9EA"/>
          </g>
          <g id="Group" transform="translate(0.000000, 28.607547)">
            <path d="M5.3,12.8483019 C4.1,12.4467925 3.6,11.3928302 3.1,10.3890566 C2.5,9.13433962 1.85,7.87962264 1.05,6.72528302 C0.8,6.37396226 0.6,6.02264151 0.5,5.5709434 C0.45,5.32 0.4,5.01886792 0.4,4.71773585 C0.35,4.26603774 0.5,3.91471698 0.8,3.56339623 C1.15,3.16188679 1.55,3.26226415 1.95,3.51320755 C1.95,3.01132075 1.95,2.60981132 1.95,2.20830189 C2,1.10415094 2.65,0.752830189 3.65,1.25471698 C3.7,1.30490566 3.75,1.30490566 3.85,1.30490566 C3.95,1.10415094 4.05,0.853207547 4.15,0.65245283 C4.4,0.351320755 4.75,0.301132075 5.1,0.501886792 C5.45,0.752830189 5.65,1.15433962 5.8,1.50566038 C6.1,2.4090566 6.4,3.31245283 6.7,4.21584906 C7,5.16943396 7.3,6.07283019 7.65,7.02641509 C7.65,7.07660377 7.75,7.12679245 7.8,7.22716981 C8,6.97622642 8.15,6.72528302 8.35,6.47433962 C8.8,5.97245283 9.3,5.62113208 9.95,5.52075472 C10.55,5.42037736 10.95,5.77169811 10.95,6.42415094 C10.95,6.7754717 10.85,7.02641509 10.65,7.32754717 C10.45,7.67886792 10.3,8.08037736 10.3,8.53207547 C10.3,9.78679245 9.95,10.8407547 8.9,11.5433962 C8.85,11.894717 9,12.1456604 9.1,12.3966038 C10.1,14.8558491 11.1,17.2649057 12.15,19.7241509 C13,21.7316981 13.95,23.6890566 14.9,25.6464151 C15.15,26.1483019 15.55,26.449434 15.95,26.750566 C16.75,27.3026415 17.7,27.6539623 18.6,28.0554717 C19.9,28.6577358 21.25,29.2098113 22.55,29.7618868 C24.55,30.5649057 26.5,31.4181132 28.5,32.1709434 C29.8,32.6728302 31.05,33.325283 32.35,33.8773585 C32.8,34.0781132 33.1,34.5298113 33.4,34.8811321 C33.55,35.0316981 33.55,35.2826415 33.55,35.4833962 C33.5,37.0392453 32.05,38.0430189 30.6,37.5411321 C28.7,36.8886792 26.8,36.2362264 24.95,35.5335849 C22.6,34.58 20.25,33.6766038 17.95,32.6226415 C16.5,31.9701887 15.05,31.2173585 13.6,30.514717 C12.05,29.7618868 11,28.5573585 10.3,26.9513208 C9.7,25.4958491 9.2,24.0403774 8.65,22.5849057 C8.45,22.0830189 8.25,21.5811321 8.05,21.129434 C7.25,19.1218868 6.5,17.0641509 5.9,14.9562264 C5.85,14.3037736 5.6,13.6513208 5.3,12.8483019 Z M6.55,12.2460377 C6.3,12.8984906 6.55,13.4003774 6.7,13.9022642 C7.35,15.7592453 7.9,17.6664151 8.65,19.4732075 C9.4,21.3803774 10.15,23.2875472 10.8,25.194717 C11.05,25.9475472 11.4,26.7003774 11.75,27.4532075 C12.15,28.3566038 12.85,29.0592453 13.75,29.5109434 C16.6,30.9162264 19.5,32.2211321 22.5,33.3754717 C24.25,34.0279245 26.05,34.730566 27.8,35.4332075 C28.85,35.834717 29.9,36.2362264 31,36.5373585 C31.6,36.6879245 31.95,36.4369811 32.35,36.1358491 C32.75,35.834717 32.75,35.3830189 32.4,35.0316981 C32.25,34.8811321 32.1,34.730566 31.9,34.6803774 C31.2,34.4796226 30.5,34.2286792 29.85,33.8773585 C28.2,33.1245283 26.55,32.3215094 24.85,31.6188679 C22.8,30.7656604 20.7,29.8622642 18.65,28.9588679 C17.4,28.4067925 16.15,27.854717 15,27.1520755 C14.55,26.8509434 14.2,26.4996226 13.95,25.9977358 C13.75,25.5460377 13.55,25.0943396 13.35,24.6426415 C12.35,22.5849057 11.4,20.5271698 10.6,18.3690566 C10.55,18.2184906 10.5,18.0177358 10.4,17.8671698 C9.45,16.0101887 8.8,14.0528302 8.05,12.0954717 C7.95,11.8445283 7.85,11.5433962 7.95,11.2924528 C8,11.2422642 8,11.1418868 8.1,11.1418868 C9.05,10.5396226 9.5,9.63622642 9.5,8.48188679 C9.5,7.92981132 9.6,7.42792453 9.95,6.97622642 C10.05,6.87584906 10.1,6.72528302 9.95,6.57471698 C9.35,6.7754717 8.95,7.17698113 8.65,7.7290566 C8.5,8.03018868 8.35,8.38150943 8.15,8.68264151 C8,8.98377358 7.7,8.98377358 7.45,8.73283019 C7.2,8.48188679 7.1,8.13056604 6.95,7.82943396 C6.35,6.12301887 5.75,4.36641509 5.1,2.66 C5.05,2.50943396 5.1,2.20830189 4.8,2.20830189 C4.7,2.66 4.8,3.11169811 4.95,3.56339623 C5.15,4.21584906 5.35,4.91849057 5.55,5.5709434 C5.65,5.87207547 5.7,6.17320755 5.65,6.5245283 C5.65,6.72528302 5.55,6.87584906 5.35,6.92603774 C5.15,6.97622642 5,6.87584906 4.9,6.72528302 C4.75,6.5245283 4.7,6.27358491 4.6,6.07283019 C4.15,4.86830189 3.75,3.71396226 3.3,2.50943396 C3.25,2.35886792 3.2,2.15811321 3,2.15811321 C2.8,2.25849057 2.85,2.45924528 2.85,2.60981132 C2.85,3.51320755 3.15,4.31622642 3.5,5.16943396 C3.65,5.62113208 3.85,6.02264151 4.05,6.42415094 C4.15,6.67509434 4.25,6.92603774 4.35,7.22716981 C4.4,7.47811321 4.25,7.77924528 4.1,7.87962264 C3.9,7.92981132 3.6,7.82943396 3.45,7.57849057 C3.45,7.52830189 3.4,7.52830189 3.4,7.47811321 C3,6.42415094 2.25,5.62113208 1.7,4.66754717 C1.65,4.51698113 1.55,4.41660377 1.35,4.46679245 C1.15,5.11924528 1.45,5.62113208 1.75,6.12301887 C2.65,7.47811321 3.5,8.88339623 4.1,10.3388679 C4.15,10.3890566 4.2,10.4392453 4.2,10.5396226 C4.65,11.3928302 5.25,12.1456604 6.55,12.2460377 Z" id="Shape" fill="#010101"/>
            <path d="M6.55,12.2460377 C5.3,12.1456604 4.65,11.3928302 4.2,10.489434 C4.15,10.4392453 4.1,10.3890566 4.1,10.2886792 C3.45,8.78301887 2.65,7.42792453 1.75,6.07283019 C1.4,5.5709434 1.15,5.0690566 1.35,4.41660377 C1.55,4.41660377 1.65,4.46679245 1.7,4.61735849 C2.25,5.5709434 3,6.37396226 3.4,7.42792453 C3.4,7.47811321 3.45,7.47811321 3.45,7.52830189 C3.6,7.7290566 3.9,7.87962264 4.1,7.82943396 C4.3,7.77924528 4.45,7.42792453 4.35,7.17698113 C4.3,6.92603774 4.2,6.62490566 4.05,6.37396226 C3.9,5.97245283 3.7,5.52075472 3.5,5.11924528 C3.2,4.31622642 2.9,3.46301887 2.85,2.55962264 C2.85,2.4090566 2.8,2.20830189 3,2.10792453 C3.25,2.10792453 3.25,2.30867925 3.3,2.45924528 C3.75,3.66377358 4.15,4.81811321 4.6,6.02264151 C4.7,6.27358491 4.75,6.47433962 4.9,6.67509434 C5,6.82566038 5.15,6.92603774 5.35,6.87584906 C5.55,6.82566038 5.65,6.67509434 5.65,6.47433962 C5.7,6.17320755 5.6,5.82188679 5.55,5.52075472 C5.35,4.86830189 5.15,4.16566038 4.95,3.51320755 C4.8,3.06150943 4.75,2.60981132 4.8,2.15811321 C5.1,2.15811321 5.05,2.45924528 5.1,2.60981132 C5.7,4.31622642 6.3,6.07283019 6.95,7.77924528 C7.05,8.13056604 7.15,8.43169811 7.45,8.68264151 C7.7,8.93358491 8,8.93358491 8.15,8.63245283 C8.35,8.33132075 8.45,7.98 8.65,7.67886792 C8.95,7.12679245 9.35,6.72528302 9.95,6.5245283 C10.1,6.67509434 10,6.7754717 9.95,6.92603774 C9.65,7.37773585 9.5,7.87962264 9.5,8.43169811 C9.5,9.58603774 9.05,10.489434 8.1,11.0916981 C8.05,11.1418868 8,11.1920755 7.95,11.2422642 C7.85,11.5433962 7.95,11.7943396 8.05,12.045283 C8.8,13.9524528 9.5,15.96 10.4,17.8169811 C10.5,17.9675472 10.5,18.1683019 10.6,18.3188679 C11.35,20.4769811 12.35,22.534717 13.35,24.5924528 C13.55,25.0441509 13.75,25.4958491 13.95,25.9475472 C14.15,26.449434 14.55,26.8007547 15,27.1018868 C16.15,27.854717 17.4,28.3566038 18.65,28.9086792 C20.7,29.8120755 22.75,30.7154717 24.85,31.5686792 C26.55,32.2713208 28.2,33.0241509 29.85,33.8271698 C30.5,34.1283019 31.2,34.429434 31.9,34.6301887 C32.1,34.6803774 32.3,34.7807547 32.4,34.9815094 C32.7,35.3830189 32.7,35.7845283 32.35,36.0856604 C32,36.3867925 31.6,36.6377358 31,36.4871698 C29.9,36.2362264 28.85,35.834717 27.8,35.3830189 C26.05,34.6803774 24.25,34.0279245 22.5,33.325283 C19.5,32.1709434 16.6,30.8660377 13.75,29.4607547 C12.8,29.0090566 12.15,28.3064151 11.75,27.4030189 C11.4,26.6501887 11.05,25.9475472 10.8,25.1445283 C10.15,23.1871698 9.35,21.3301887 8.65,19.4230189 C7.95,17.5660377 7.35,15.7090566 6.7,13.8520755 C6.55,13.4003774 6.3,12.9486792 6.55,12.2460377 Z" id="Shape" fill="#D0E9EA"/>
          </g>
          <g id="Group" transform="translate(33.500000, 27.603774)">
            <path d="M20.75,11.7943396 C20.55,11.5433962 20.4,11.2924528 20.2,11.0916981 C19.9,10.7403774 19.65,10.3388679 19.55,9.88716981 C19.4,9.28490566 19.15,8.78301887 18.6,8.43169811 C18.2,8.18075472 17.95,7.67886792 17.9,7.12679245 C17.85,6.37396226 18.3,5.82188679 19.1,5.82188679 C19.75,5.82188679 20.25,6.12301887 20.7,6.57471698 C20.9,6.7754717 21.15,7.02641509 21.35,7.27735849 C21.65,7.12679245 21.55,6.87584906 21.55,6.72528302 C21.7,5.01886792 22.05,3.31245283 22.65,1.70641509 C22.75,1.50566038 22.8,1.30490566 22.9,1.10415094 C23.05,0.752830189 23.3,0.552075472 23.7,0.451698113 C24.05,0.351320755 24.3,0.602264151 24.5,0.853207547 C24.55,0.903396226 24.6,0.903396226 24.75,1.00377358 C24.85,0.853207547 24.95,0.65245283 25.15,0.501886792 C25.75,0.100377358 26.25,0.301132075 26.5,0.953584906 C26.6,1.25471698 26.65,1.55584906 26.7,1.90716981 C26.95,1.75660377 27.15,1.65622642 27.4,1.55584906 C28.2,1.90716981 28.35,2.10792453 28.35,2.9109434 C28.3,3.96490566 28.1,4.96867925 27.8,5.92226415 C27.25,7.67886792 26.6,9.33509434 25.7,10.9411321 C25.1,11.9950943 24.65,13.0992453 24.5,14.3539623 C24.35,15.6588679 23.9,16.9135849 23.65,18.2184906 C23.3,19.874717 22.95,21.4807547 22.65,23.1369811 C22.35,24.4920755 21.95,25.8471698 21.5,27.1520755 C21.35,27.5535849 21.1,27.9049057 20.7,28.1558491 C20.05,28.6075472 19.4,29.0090566 18.75,29.4607547 C16.5,30.8158491 14.2,32.070566 11.9,33.3754717 C10,34.429434 8.1,35.4833962 6.2,36.4871698 C5.2,36.9890566 4.1,37.3403774 3,37.6916981 C2.35,37.8924528 1.7,37.9928302 1.1,37.4407547 C0.6,36.9890566 0.35,36.6377358 0.5,35.985283 C0.7,35.0818868 1.05,34.2788679 1.95,33.8271698 C3.15,32.7230189 4.7,32.1709434 6,31.2675472 C6.3,31.0667925 6.7,30.9162264 7.05,30.7656604 C8.6,30.1132075 10.05,29.26 11.5,28.4569811 C13.2,27.5033962 14.9,26.5498113 16.6,25.5962264 C16.8,25.4958491 17,25.3954717 17.15,25.2449057 C17.6,24.8935849 17.95,24.4920755 18.1,23.8898113 C18.45,22.3841509 18.85,20.9286792 19.2,19.4230189 C19.7,17.2649057 20.15,15.1067925 20.6,12.9486792 C20.65,12.5973585 20.7,12.1958491 20.75,11.7943396 Z M23.8,1.90716981 C23.05,3.01132075 22.25,6.97622642 22.45,8.38150943 C22.75,8.48188679 23.05,8.58226415 23.35,8.68264151 C23.5,8.73283019 23.7,8.83320755 23.8,8.93358491 C23.85,8.98377358 23.9,9.13433962 23.9,9.23471698 C23.9,9.33509434 23.8,9.4354717 23.7,9.48566038 C23.5,9.53584906 23.25,9.53584906 23.05,9.48566038 C22.05,9.28490566 21.2,8.73283019 20.55,7.98 C20.3,7.62867925 20,7.32754717 19.65,7.07660377 C19.35,6.92603774 19.05,6.82566038 18.8,7.07660377 C18.8,7.52830189 19.05,7.77924528 19.35,7.98 C19.75,8.2309434 20.05,8.58226415 20.2,9.03396226 C20.4,9.88716981 20.85,10.64 21.4,11.2924528 C21.65,11.5433962 21.7,11.8445283 21.65,12.1958491 C21.55,12.8984906 21.45,13.6011321 21.3,14.3037736 C21.15,14.9562264 20.95,15.6086792 20.85,16.2611321 C20.4,18.8709434 19.85,21.430566 19.1,23.9901887 C18.9,24.7430189 18.5,25.2950943 17.95,25.7467925 C17.75,25.9475472 17.5,26.0981132 17.25,26.2486792 C14.75,27.854717 12.1,29.26 9.45,30.6150943 C7.3,31.7192453 5.15,32.8233962 3.1,34.0781132 C2.6,34.3792453 2.15,34.730566 1.7,35.0818868 C1.45,35.2826415 1.35,35.5335849 1.3,35.7845283 C1.2,36.2864151 1.5,36.6377358 1.8,36.8886792 C2.1,37.1898113 2.35,36.9388679 2.65,36.7381132 C2.7,36.6879245 2.8,36.6879245 2.85,36.6879245 C4.4,36.2864151 5.85,35.5837736 7.25,34.8309434 C9.3,33.7267925 11.25,32.5724528 13.3,31.4181132 C15.05,30.4645283 16.75,29.4607547 18.55,28.5573585 C19.75,27.9550943 20.5,27.0015094 20.8,25.6966038 C21.15,24.4418868 21.4,23.1369811 21.7,21.8320755 C21.95,20.6777358 22.15,19.5233962 22.45,18.3690566 C22.8,16.7630189 23.25,15.2071698 23.55,13.6011321 C23.7,12.6977358 24,11.894717 24.45,11.0916981 C25.55,9.23471698 26.35,7.27735849 26.9,5.16943396 C27.1,4.46679245 27.35,3.81433962 27.25,3.06150943 C27,3.11169811 26.95,3.26226415 26.85,3.41283019 C26.45,4.16566038 26.2,4.96867925 25.95,5.82188679 C25.85,6.07283019 25.8,6.32377358 25.7,6.5245283 C25.6,6.67509434 25.4,6.72528302 25.25,6.67509434 C25.05,6.62490566 24.9,6.5245283 24.9,6.32377358 C24.9,6.07283019 24.9,5.82188679 25,5.5709434 C25.15,4.96867925 25.3,4.41660377 25.45,3.81433962 C25.65,3.11169811 25.75,2.4090566 25.55,1.65622642 C25.2,1.95735849 25.15,2.30867925 25.1,2.66 C24.85,3.61358491 24.6,4.61735849 24.35,5.5709434 C24.2,6.07283019 23.95,6.32377358 23.65,6.22339623 C23.4,6.12301887 23.25,5.87207547 23.35,5.42037736 C23.45,4.91849057 23.55,4.36641509 23.7,3.8645283 C23.9,3.21207547 23.9,2.60981132 23.8,1.90716981 Z" id="Shape" fill="#010101"/>
            <path d="M23.8,1.90716981 C23.95,2.60981132 23.9,3.21207547 23.75,3.81433962 C23.6,4.31622642 23.5,4.86830189 23.4,5.37018868 C23.3,5.82188679 23.45,6.07283019 23.7,6.17320755 C24,6.27358491 24.25,6.07283019 24.4,5.52075472 C24.65,4.56716981 24.9,3.56339623 25.15,2.60981132 C25.25,2.25849057 25.3,1.90716981 25.6,1.60603774 C25.8,2.35886792 25.7,3.06150943 25.5,3.76415094 C25.35,4.36641509 25.15,4.91849057 25.05,5.52075472 C25,5.77169811 24.95,6.02264151 24.95,6.27358491 C24.95,6.47433962 25.1,6.57471698 25.3,6.62490566 C25.5,6.67509434 25.7,6.62490566 25.75,6.47433962 C25.85,6.27358491 25.95,6.02264151 26,5.77169811 C26.25,4.96867925 26.5,4.1154717 26.9,3.36264151 C27,3.21207547 27.05,3.01132075 27.3,3.01132075 C27.4,3.76415094 27.15,4.41660377 26.95,5.11924528 C26.4,7.17698113 25.6,9.1845283 24.5,11.0415094 C24.05,11.7943396 23.75,12.6475472 23.6,13.5509434 C23.3,15.1569811 22.85,16.7630189 22.5,18.3188679 C22.25,19.4732075 22,20.6275472 21.75,21.7818868 C21.45,23.0867925 21.2,24.3415094 20.85,25.6464151 C20.5,26.9011321 19.8,27.854717 18.6,28.5071698 C16.85,29.410566 15.1,30.4143396 13.35,31.3679245 C11.35,32.4720755 9.35,33.6766038 7.3,34.7807547 C5.9,35.5335849 4.45,36.2362264 2.9,36.6377358 C2.85,36.6377358 2.75,36.6377358 2.7,36.6879245 C2.45,36.8886792 2.2,37.1396226 1.85,36.8384906 C1.55,36.5373585 1.25,36.1860377 1.35,35.7343396 C1.4,35.4332075 1.5,35.1822642 1.75,35.0316981 C2.2,34.730566 2.65,34.3290566 3.15,34.0279245 C5.2,32.7732075 7.35,31.6690566 9.5,30.5649057 C12.15,29.2098113 14.8,27.8045283 17.3,26.1984906 C17.55,26.0479245 17.8,25.8973585 18,25.6966038 C18.55,25.2449057 18.9,24.6426415 19.15,23.94 C19.85,21.3803774 20.45,18.8207547 20.9,16.2109434 C21,15.5584906 21.2,14.9060377 21.35,14.2535849 C21.5,13.5509434 21.55,12.8483019 21.7,12.1456604 C21.75,11.7943396 21.7,11.5433962 21.45,11.2422642 C20.9,10.5898113 20.45,9.83698113 20.25,8.98377358 C20.15,8.53207547 19.8,8.18075472 19.4,7.92981132 C19.1,7.7290566 18.85,7.47811321 18.85,7.02641509 C19.1,6.7754717 19.4,6.82566038 19.7,7.02641509 C20.05,7.22716981 20.35,7.57849057 20.6,7.92981132 C21.25,8.73283019 22.05,9.28490566 23.1,9.4354717 C23.3,9.48566038 23.5,9.48566038 23.75,9.4354717 C23.85,9.4354717 23.9,9.28490566 23.95,9.1845283 C23.95,9.08415094 23.9,8.93358491 23.85,8.88339623 C23.7,8.78301887 23.55,8.68264151 23.4,8.63245283 C23.1,8.53207547 22.8,8.43169811 22.5,8.33132075 C22.25,6.92603774 23,3.01132075 23.8,1.90716981 Z" id="Shape" fill="#D0E9EA"/>
          </g>
          <g id="Group" transform="translate(10.000000, 0.000000)">
            <path d="M20.5,23.6890566 C20.05,23.6388679 19.55,23.5384906 19,23.5384906 C16.55,23.3879245 14.15,23.0366038 11.8,22.4845283 C9.25,21.9324528 6.8,21.129434 4.55,19.8245283 C3.5,19.2222642 2.5,18.5698113 1.7,17.6664151 C0.65,16.4618868 0.05,15.1569811 0.25,13.5007547 C0.3,12.9988679 0.5,12.5973585 0.65,12.045283 C0.5,11.5433962 0.25,10.9913208 0.25,10.3890566 C0.15,9.28490566 0.4,8.33132075 1,7.42792453 C1.7,6.32377358 2.7,5.47056604 3.8,4.81811321 C6,3.41283019 8.4,2.50943396 10.95,1.85698113 C13,1.35509434 15.1,0.953584906 17.2,0.702641509 C19.2,0.501886792 21.15,0.351320755 23.15,0.351320755 C24.65,0.351320755 26.2,0.451698113 27.7,0.552075472 C31.45,0.853207547 35.15,1.50566038 38.7,2.76037736 C40.6,3.41283019 42.35,4.36641509 43.95,5.62113208 C44.7,6.22339623 45.25,7.02641509 45.75,7.82943396 C46.35,8.88339623 46.4,10.0377358 46.05,11.1920755 C45.95,11.4430189 45.85,11.6939623 45.8,11.9449057 C46,12.5471698 46.25,13.0992453 46.3,13.7015094 C46.4,15.3577358 45.65,16.6626415 44.55,17.7667925 C43.05,19.2724528 41.2,20.1758491 39.25,20.9286792 C35.4,22.4343396 31.35,23.1369811 27.25,23.4381132 C26.6,23.4883019 26,23.5384906 25.4,23.5886792 C25.35,23.5886792 25.25,23.6388679 25.15,23.6890566 C24.95,23.8898113 25,24.1909434 25,24.4920755 C24.95,25.9977358 24.8,27.5535849 24.85,29.0592453 C24.9,30.7154717 24.85,32.4218868 24.85,34.0781132 C24.85,35.6841509 24.85,37.24 24.85,38.8460377 C24.85,40.2011321 24.9,41.5562264 24.9,42.9113208 C24.9,45.4207547 24.95,47.9803774 24.9,50.4898113 C24.85,53.4007547 25,56.3116981 24.9,59.2226415 C24.85,61.4309434 24.85,63.6392453 24.85,65.7973585 C24.85,66.3996226 24.85,67.0018868 24.9,67.6041509 C24.9,68.3067925 25.15,68.6581132 25.8,68.8588679 C27.85,69.4109434 29.9,70.2139623 32,70.6656604 C32.3,70.7158491 32.6,70.8162264 32.9,70.9667925 C33.85,71.3181132 34.75,71.6192453 35.8,71.669434 C36.55,71.7196226 37.15,72.0709434 37.85,72.3218868 C39.25,72.8739623 39.45,75.2328302 38,76.1864151 C37.3,76.6381132 36.5,76.7886792 35.75,76.3369811 C35.3,76.0860377 34.8,75.8350943 34.45,75.4837736 C34.05,75.0822642 33.55,74.8313208 33.05,74.630566 C30.65,73.6769811 28.2,72.7735849 25.7,72.1713208 C25.5,72.1211321 25.35,72.0207547 25.15,72.1211321 C24,72.5728302 22.8,72.4222642 21.6,72.1713208 C21,72.0709434 20.45,71.970566 19.85,72.2215094 C19.45,72.3720755 19,72.4222642 18.55,72.5226415 C16.35,73.1249057 14.25,73.9781132 12.15,74.8313208 C11.85,74.9316981 11.6,75.1324528 11.35,75.3332075 C10.9,75.734717 10.4,76.0860377 9.85,76.3369811 C8.95,76.7886792 7.95,76.5377358 7.25,75.7849057 C6.15,74.630566 6.65,72.6732075 7.95,72.1713208 C8.7,71.8701887 9.45,71.5690566 10.25,71.5188679 C10.8,71.5188679 11.35,71.3683019 11.85,71.1675472 C13.6,70.6154717 15.35,70.1135849 17.1,69.6116981 C17.95,69.3607547 18.8,69.16 19.6,68.8588679 C20.25,68.6079245 20.75,68.1562264 20.8,67.4033962 C20.8,67.1022642 20.8,66.7509434 20.8,66.4498113 C20.8,64.8437736 20.9,63.1875472 20.85,61.5815094 C20.75,59.1222642 20.85,56.7132075 20.75,54.3041509 C20.7,52.7984906 20.75,51.2426415 20.75,49.7369811 C20.75,48.5826415 20.8,47.4283019 20.8,46.2739623 C20.8,44.6177358 20.7,42.9113208 20.75,41.2550943 C20.8,38.4445283 20.7,35.5837736 20.75,32.7732075 C20.8,30.7154717 20.7,28.6075472 20.75,26.5498113 C20.75,25.7969811 20.85,25.0441509 20.9,24.2913208 C20.6,24.090566 20.65,23.8898113 20.5,23.6890566 Z M1.4,15.2573585 C1.4,15.6086792 1.55,15.8596226 1.75,16.1607547 C2.4,16.9637736 3.1,17.7667925 4,18.3188679 C5.45,19.2724528 7,19.9750943 8.65,20.5271698 C12.1,21.6815094 15.7,22.2837736 19.3,22.534717 C22.8,22.7856604 26.25,22.685283 29.7,22.2837736 C32.65,21.9324528 35.5,21.3301887 38.3,20.2762264 C40,19.6237736 41.7,18.8207547 43.1,17.6162264 C43.9,16.9135849 44.7,16.1607547 44.95,15.0064151 C45.2,14.4041509 45.3,13.8520755 44.9,13.1996226 C44.1,13.8018868 43.5,14.4543396 42.7,15.0064151 C40.8,16.2611321 38.75,17.0641509 36.6,17.6664151 C33.1,18.6701887 29.5,19.2724528 25.9,19.3226415 C25.45,19.3226415 24.95,19.5233962 24.5,19.4230189 C23.7,19.2222642 22.9,19.3226415 22.1,19.3226415 C19.85,19.3226415 17.65,19.1720755 15.4,18.8709434 C12.6,18.469434 9.85,17.8169811 7.2,16.8132075 C5.15,16.0101887 3.2,14.9562264 1.65,13.3501887 C1.55,13.2498113 1.5,13.149434 1.3,13.1996226 C1.2,13.9524528 0.95,14.6049057 1.4,15.2573585 Z M23.05,18.4192453 C26,18.4192453 29,18.2184906 32,17.7166038 C35,17.214717 37.9,16.4116981 40.65,15.0064151 C41.95,14.3539623 43.15,13.5509434 44.1,12.4467925 C45.45,10.8909434 45.55,8.83320755 43.95,7.17698113 C42.95,6.17320755 41.85,5.37018868 40.55,4.71773585 C38.3,3.61358491 36,2.86075472 33.55,2.35886792 C30,1.60603774 26.35,1.30490566 22.7,1.30490566 C20.7,1.35509434 18.7,1.4554717 16.75,1.70641509 C14.35,2.00754717 11.95,2.4090566 9.6,3.16188679 C7.65,3.76415094 5.75,4.51698113 4.05,5.62113208 C3.1,6.27358491 2.25,7.07660377 1.65,8.08037736 C0.85,9.38528302 1.1,11.1920755 2,12.2460377 C2.75,13.149434 3.65,13.9022642 4.65,14.4543396 C6.55,15.6086792 8.6,16.3615094 10.75,16.9135849 C14.75,18.0177358 18.8,18.469434 23.05,18.4192453 Z M23.5,68.2064151 C23.5,62.9867925 23.5,57.8173585 23.55,52.6981132 C23.55,43.1120755 23.55,33.5762264 23.55,23.9901887 C23.55,23.94 23.55,23.8898113 23.5,23.8898113 C23.5,23.8396226 23.45,23.8396226 23.35,23.7392453 C22.85,23.8396226 22.25,23.4883019 21.7,23.8396226 C21.6,24.7932075 21.45,65.245283 21.55,67.3532075 C21.55,67.6041509 21.55,67.8550943 21.75,68.1060377 C22.25,68.3067925 22.85,68.3569811 23.5,68.2064151 Z M25.3,71.1675472 C28.05,71.9203774 30.75,72.8237736 33.35,73.9279245 C33.8,73.5264151 34,73.074717 34,72.4724528 C33.85,72.3720755 33.7,72.2716981 33.6,72.2215094 C32.45,71.8701887 31.3,71.5188679 30.15,71.2177358 C28.75,70.8162264 27.3,70.414717 25.9,70.0132075 C25.7,69.9630189 25.5,69.7622642 25.2,69.9630189 C25.05,70.3645283 25.1,70.7660377 25.3,71.1675472 Z M11.65,73.9781132 C14.3,72.8237736 16.95,72.0207547 19.55,71.2177358 C19.75,70.7660377 19.8,70.3645283 19.55,69.9630189 C16.8,70.7660377 14.05,71.5188679 11.35,72.3218868 C11.25,72.3720755 11.15,72.4222642 11.05,72.5226415 C11,73.074717 11.2,73.5264151 11.65,73.9781132 Z M20.95,71.3683019 C21.45,71.4686792 21.9,71.5690566 22.3,71.5690566 C22.75,71.6192453 23.2,71.5690566 23.6,71.5690566 C23.85,71.5690566 24.1,71.5188679 24.2,71.2679245 C24.3,70.0132075 24.3,70.0132075 23.95,69.2101887 C23,69.3607547 22,69.16 21.05,69.009434 C20.6,70.3645283 20.6,70.3645283 20.95,71.3683019 Z" id="Shape" fill="#010101"/>
            <path d="M23.05,18.4192453 C18.8,18.4192453 14.75,18.0177358 10.75,16.9135849 C8.6,16.3615094 6.55,15.6086792 4.65,14.4543396 C3.65,13.8520755 2.8,13.0992453 2,12.2460377 C1.1,11.2422642 0.8,9.4354717 1.65,8.08037736 C2.25,7.07660377 3.1,6.27358491 4.05,5.62113208 C5.75,4.46679245 7.65,3.76415094 9.6,3.16188679 C11.95,2.4090566 14.3,2.00754717 16.75,1.70641509 C18.75,1.4554717 20.7,1.35509434 22.7,1.30490566 C26.35,1.25471698 29.95,1.60603774 33.55,2.35886792 C36,2.86075472 38.3,3.66377358 40.55,4.71773585 C41.8,5.32 42.95,6.12301887 43.95,7.17698113 C45.55,8.83320755 45.45,10.8909434 44.1,12.4467925 C43.15,13.5509434 41.95,14.3539623 40.65,15.0064151 C37.9,16.4116981 35,17.214717 32,17.7166038 C29,18.2184906 26,18.469434 23.05,18.4192453 Z M19.45,5.11924528 C20.35,6.17320755 20.4,6.22339623 21.55,6.47433962 C22.75,6.72528302 23.9,6.72528302 25.1,6.42415094 C25.8,6.27358491 26.25,5.92226415 26.45,5.32 C27.35,5.16943396 28.05,5.47056604 28.75,5.82188679 C29.15,6.02264151 29.5,6.27358491 29.9,6.47433962 C30.5,6.7754717 31,7.22716981 31.6,7.62867925 C32.05,7.92981132 32.05,7.92981132 32.6,7.47811321 C32.45,7.02641509 32.15,6.72528302 31.8,6.42415094 C31,5.77169811 30.15,5.21962264 29.15,4.86830189 C28.3,4.56716981 27.45,4.16566038 26.55,3.96490566 C26.1,3.8645283 25.85,3.56339623 25.9,3.11169811 C25.9,3.01132075 25.9,2.86075472 25.9,2.76037736 C25.8,2.30867925 25.4,2.00754717 24.95,2.05773585 C24.55,2.05773585 24.2,2.35886792 23.85,2.50943396 C23.2,2.20830189 22.6,2.25849057 22,2.55962264 C21.95,2.50943396 21.85,2.50943396 21.8,2.45924528 C20.8,1.90716981 20.2,2.20830189 19.95,3.21207547 C19.9,3.46301887 19.95,3.71396226 19.7,3.91471698 C18.3,4.21584906 16.9,4.76792453 15.55,5.52075472 C14.95,5.82188679 14.45,6.27358491 13.9,6.67509434 C13.7,6.82566038 13.5,7.07660377 13.5,7.37773585 C13.5,7.57849057 13.7,7.82943396 13.85,7.77924528 C14.1,7.67886792 14.4,7.57849057 14.6,7.47811321 C15.4,7.02641509 16.15,6.5245283 16.95,6.07283019 C17.75,5.62113208 18.55,5.21962264 19.45,5.11924528 Z" id="Shape" fill="#FFC941"/>
            <path d="M23.5,68.2064151 C22.85,68.3569811 22.25,68.3067925 21.75,68.1060377 C21.55,67.8550943 21.55,67.6041509 21.55,67.3532075 C21.45,65.245283 21.55,24.7932075 21.7,23.8396226 C22.25,23.4883019 22.85,23.8396226 23.35,23.7392453 C23.45,23.8396226 23.5,23.8396226 23.5,23.8898113 C23.5,23.94 23.55,23.94 23.55,23.9901887 C23.55,33.5762264 23.55,43.1120755 23.55,52.6981132 C23.55,57.8675472 23.5,62.9867925 23.5,68.2064151 Z" id="Shape" fill="#D0E9EA"/>
            <path d="M44.9,15.0566038 C44.7,16.2109434 43.9,16.9637736 43.05,17.6664151 C41.65,18.8709434 39.95,19.6739623 38.25,20.3264151 C35.5,21.3803774 32.6,21.9826415 29.65,22.3339623 C26.2,22.7354717 22.75,22.8358491 19.25,22.5849057 C15.6,22.3339623 12.05,21.7316981 8.6,20.5773585 C6.95,20.025283 5.4,19.3226415 3.95,18.3690566 C3.1,17.8169811 2.35,17.0641509 1.7,16.2109434 C1.5,15.96 1.35,15.6588679 1.35,15.3075472 C1.4,15.1569811 1.35,15.0064151 1.5,14.9060377 C1.95,15.0064151 2.25,15.3577358 2.55,15.6588679 C3.7,16.7630189 5.1,17.5660377 6.55,18.1683019 C7.4,18.5196226 8.25,18.770566 9.15,19.0716981 C10.1,19.3728302 11,19.7241509 12,19.874717 C13.55,20.1256604 15.1,20.4769811 16.65,20.8283019 C17.2,20.9788679 17.75,21.0290566 18.3,21.0290566 C21.55,20.9286792 24.75,21.2298113 28,20.8283019 C28.95,20.7279245 29.85,20.4267925 30.85,20.5271698 C31.4,20.2260377 32.05,20.3766038 32.6,20.1758491 C33.7,19.7743396 34.8,19.5735849 35.9,19.2724528 C37.3,18.9211321 38.75,18.5196226 40,17.7667925 C40.35,17.5660377 40.7,17.365283 41.05,17.214717 C42.05,16.8132075 42.95,16.2109434 43.7,15.4581132 C44,15.2071698 44.35,15.0064151 44.65,14.8056604 C44.8,14.8558491 44.85,15.0064151 44.9,15.0566038 Z" id="Shape" fill="#FEC841"/>
            <path d="M44.9,15.0566038 C44.85,15.0064151 44.75,14.9060377 44.75,14.9060377 C44.4,15.1067925 44.05,15.3075472 43.8,15.5584906 C43,16.3113208 42.15,16.9135849 41.15,17.3150943 C40.8,17.4656604 40.45,17.6664151 40.1,17.8671698 C38.8,18.62 37.4,19.0215094 36,19.3728302 C34.9,19.6237736 33.75,19.874717 32.7,20.2762264 C32.15,20.4769811 31.5,20.2762264 30.95,20.6275472 C30,20.5271698 29.05,20.7781132 28.1,20.9286792 C24.85,21.3301887 21.65,21.0290566 18.4,21.129434 C17.85,21.129434 17.3,21.0792453 16.75,20.9286792 C15.2,20.5271698 13.7,20.2260377 12.1,19.9750943 C11.1,19.8245283 10.2,19.4732075 9.25,19.1720755 C8.4,18.9211321 7.5,18.62 6.65,18.2686792 C5.15,17.6664151 3.8,16.8633962 2.65,15.7592453 C2.35,15.4581132 2.05,15.1067925 1.6,15.0064151 C1.45,15.0566038 1.45,15.2573585 1.45,15.4079245 C1,14.7554717 1.2,14.0528302 1.25,13.4003774 C1.45,13.3501887 1.55,13.450566 1.6,13.5509434 C3.15,15.1569811 5.1,16.2109434 7.15,17.0139623 C9.8,18.0679245 12.55,18.6701887 15.35,19.0716981 C17.55,19.4230189 19.8,19.5233962 22.05,19.5233962 C22.85,19.5233962 23.65,19.4732075 24.45,19.6237736 C24.9,19.7241509 25.4,19.5233962 25.85,19.5233962 C29.5,19.4230189 33.05,18.8709434 36.55,17.8671698 C38.7,17.2649057 40.8,16.4116981 42.65,15.2071698 C43.4,14.705283 44.05,14.0528302 44.85,13.4003774 C45.25,13.8520755 45.15,14.4543396 44.9,15.0566038 Z" id="Shape" fill="#EC9B24"/>
            <path d="M25.3,71.1675472 C25.15,70.7660377 25.05,70.3645283 25.2,69.9630189 C25.45,69.7622642 25.65,69.9630189 25.9,70.0132075 C27.3,70.414717 28.75,70.8162264 30.15,71.2177358 C31.3,71.5690566 32.45,71.8701887 33.6,72.2215094 C33.75,72.2716981 33.85,72.3720755 34,72.4724528 C34,73.074717 33.85,73.4762264 33.35,73.9279245 C30.7,72.8739623 28,71.970566 25.3,71.1675472 Z" id="Shape" fill="#CBE3E4"/>
            <path d="M11.65,73.9781132 C11.2,73.5264151 11,73.074717 11.05,72.5226415 C11.15,72.4724528 11.25,72.3720755 11.35,72.3218868 C14.1,71.5188679 16.85,70.7158491 19.55,69.9630189 C19.8,70.3645283 19.75,70.7660377 19.55,71.2177358 C16.95,71.970566 14.3,72.8237736 11.65,73.9781132 Z" id="Shape" fill="#CAE3E4"/>
            <path d="M20.95,71.3683019 C20.6,70.414717 20.6,70.414717 21.05,69.009434 C22,69.16 23,69.3607547 23.95,69.2101887 C24.3,70.0132075 24.3,70.0132075 24.2,71.2679245 C24.1,71.5188679 23.85,71.5690566 23.6,71.5690566 C23.15,71.5690566 22.7,71.6192453 22.3,71.5690566 C21.9,71.5188679 21.45,71.4184906 20.95,71.3683019 Z" id="Shape" fill="#CAE2E3"/>
            <path d="M19.45,5.11924528 C18.55,5.21962264 17.7,5.62113208 16.9,6.02264151 C16.1,6.42415094 15.3,6.92603774 14.55,7.42792453 C14.3,7.57849057 14.05,7.67886792 13.8,7.7290566 C13.65,7.77924528 13.45,7.52830189 13.45,7.32754717 C13.45,7.02641509 13.65,6.7754717 13.85,6.62490566 C14.4,6.22339623 14.9,5.77169811 15.5,5.47056604 C16.85,4.76792453 18.25,4.16566038 19.65,3.8645283 C19.95,3.66377358 19.85,3.36264151 19.9,3.16188679 C20.15,2.10792453 20.8,1.85698113 21.75,2.4090566 C21.8,2.45924528 21.9,2.45924528 21.95,2.50943396 C22.55,2.20830189 23.15,2.15811321 23.8,2.45924528 C24.15,2.30867925 24.45,2.05773585 24.9,2.00754717 C25.35,2.00754717 25.75,2.25849057 25.85,2.71018868 C25.85,2.81056604 25.85,2.96113208 25.85,3.06150943 C25.8,3.56339623 26.05,3.81433962 26.5,3.91471698 C27.4,4.1154717 28.25,4.51698113 29.1,4.81811321 C30.1,5.16943396 30.95,5.77169811 31.75,6.37396226 C32.1,6.67509434 32.4,6.97622642 32.55,7.42792453 C32,7.87962264 32,7.87962264 31.55,7.57849057 C31,7.22716981 30.5,6.72528302 29.85,6.42415094 C29.45,6.22339623 29.1,5.97245283 28.7,5.77169811 C28,5.42037736 27.25,5.0690566 26.4,5.26981132 C26.2,5.92226415 25.7,6.22339623 25.05,6.37396226 C23.85,6.67509434 22.7,6.67509434 21.5,6.42415094 C20.4,6.22339623 20.35,6.17320755 19.45,5.11924528 Z M20.9,4.96867925 C21.85,5.47056604 22.9,5.5709434 23.9,5.62113208 C24.4,5.62113208 24.85,5.32 25.25,4.81811321 C24.65,4.91849057 24.2,5.01886792 23.75,5.0690566 C23.3,5.11924528 22.8,5.0690566 22.3,5.0690566 C21.9,5.0690566 21.45,4.61735849 20.9,4.96867925 Z M24.5,3.36264151 C24.15,3.66377358 23.9,3.76415094 23.65,3.76415094 C23.4,3.71396226 23.25,3.36264151 22.9,3.46301887 C22.7,3.66377358 22.4,3.76415094 22.4,4.16566038 C22.85,4.16566038 23.35,4.16566038 23.8,4.16566038 C24.15,4.16566038 24.35,3.91471698 24.5,3.36264151 Z" id="Shape" fill="#020201"/>
            <path d="M20.9,4.96867925 C21.45,4.61735849 21.85,5.0690566 22.3,5.0690566 C22.8,5.0690566 23.25,5.0690566 23.75,5.0690566 C24.2,5.01886792 24.65,4.91849057 25.25,4.81811321 C24.85,5.32 24.4,5.67132075 23.9,5.62113208 C22.9,5.5709434 21.9,5.47056604 20.9,4.96867925 Z" id="Shape" fill="#AFC4C5"/>
            <path d="M24.5,3.36264151 C24.35,3.96490566 24.15,4.16566038 23.8,4.16566038 C23.35,4.16566038 22.85,4.16566038 22.4,4.16566038 C22.4,3.76415094 22.7,3.66377358 22.9,3.46301887 C23.2,3.36264151 23.35,3.71396226 23.65,3.76415094 C23.95,3.76415094 24.15,3.66377358 24.5,3.36264151 Z" id="Shape" fill="#95A7A7"/>
          </g>
          <g id="Group" transform="translate(28.000000, 8.532075)">
            <path d="M8.4,5.37018868 C8.6,5.42037736 8.7,5.52075472 8.75,5.72150943 C8.8,5.97245283 8.7,6.22339623 8.5,6.37396226 C7.85,6.92603774 7.15,7.32754717 6.3,7.47811321 C4.8,7.7290566 3.55,7.27735849 2.4,6.37396226 C2.3,6.32377358 2.2,6.22339623 2.15,6.12301887 C2.05,5.92226415 2,5.67132075 2.2,5.47056604 C2.35,5.32 2.6,5.37018868 2.75,5.47056604 C2.95,5.5709434 3.15,5.72150943 3.35,5.87207547 C4.7,6.82566038 6.1,6.82566038 7.5,5.97245283 C7.8,5.72150943 8.05,5.47056604 8.4,5.37018868 Z" id="Shape" fill="#0A0A0A"/>
            <path d="M8.35,1.10415094 C8.35,0.351320755 8.7,0 9.4,0 C10.05,0 10.45,0.401509434 10.5,1.00377358 C10.55,1.65622642 10.1,2.25849057 9.5,2.25849057 C8.8,2.30867925 8.35,1.90716981 8.35,1.10415094 Z" id="Shape" fill="#080808"/>
            <path d="M0.3,1.40528302 C0.3,0.803018868 0.75,0.401509434 1.35,0.401509434 C2,0.401509434 2.5,0.903396226 2.5,1.50566038 C2.5,2.00754717 2,2.50943396 1.4,2.50943396 C0.8,2.55962264 0.3,2.05773585 0.3,1.40528302 Z" id="Shape" fill="#080808"/>
          </g>
        </g>
      </g>
    </g>
  </g>
</svg>