<?xml version="1.0" encoding="UTF-8" standalone="no"?>
<!-- Created with Inkscape (http://www.inkscape.org/) -->

<svg
   xmlns:dc="http://purl.org/dc/elements/1.1/"
   xmlns:cc="http://creativecommons.org/ns#"
   xmlns:rdf="http://www.w3.org/1999/02/22-rdf-syntax-ns#"
   xmlns:svg="http://www.w3.org/2000/svg"
   xmlns="http://www.w3.org/2000/svg"
   xmlns:sodipodi="http://sodipodi.sourceforge.net/DTD/sodipodi-0.dtd"
   xmlns:inkscape="http://www.inkscape.org/namespaces/inkscape"
   width="81"
   height="130"
   viewBox="0 0 81.000002 130"
   id="svg6616"
   version="1.1"
   inkscape:version="0.91 r13725"
   sodipodi:docname="ROB3_end.svg">
  <defs
     id="defs6618" />
  <sodipodi:namedview
     id="base"
     pagecolor="#ffffff"
     bordercolor="#666666"
     borderopacity="1.0"
     inkscape:pageopacity="0.0"
     inkscape:pageshadow="2"
     inkscape:zoom="1.979899"
     inkscape:cx="-50.961193"
     inkscape:cy="-30.305347"
     inkscape:document-units="px"
     inkscape:current-layer="layer1"
     showgrid="false"
     inkscape:window-width="1920"
     inkscape:window-height="1027"
     inkscape:window-x="0"
     inkscape:window-y="0"
     inkscape:window-maximized="1"
     fit-margin-top="0"
     fit-margin-left="0"
     fit-margin-right="0"
     fit-margin-bottom="0"
     units="px" />
  <metadata
     id="metadata6621">
    <rdf:RDF>
      <cc:Work
         rdf:about="">
        <dc:format>image/svg+xml</dc:format>
        <dc:type
           rdf:resource="http://purl.org/dc/dcmitype/StillImage" />
        <dc:title></dc:title>
      </cc:Work>
    </rdf:RDF>
  </metadata>
  <g
     inkscape:label="Layer 1"
     inkscape:groupmode="layer"
     id="layer1"
     transform="translate(-331.5472,-461.18109)">
    <g
       id="g3367"
       transform="matrix(0.9988166,0,0,1.0016826,-62.813319,-250.70431)">
      <g
         transform="matrix(1.25,0,0,-1.25,449.76334,744.08334)"
         id="g5052">
        <path
           inkscape:connector-curvature="0"
           id="path5054"
           style="fill:#00b040;fill-opacity:1;fill-rule:nonzero;stroke:none"
           d="m 0,0 -23.042,0 c -1.015,0 -1.836,0.822 -1.836,1.836 l 0,21.966 c 0,1.606 1.306,2.913 2.913,2.913 l 20.888,0 c 1.606,0 2.913,-1.307 2.913,-2.913 l 0,-21.966 C 1.836,0.822 1.014,0 0,0 m -21.207,3.672 19.371,0 0,19.371 -19.371,0 0,-19.371 z" />
      </g>
      <g
         transform="matrix(1.25,0,0,-1.25,413.47544,735.09409)"
         id="g5056">
        <path
           inkscape:connector-curvature="0"
           id="path5058"
           style="fill:#00b040;fill-opacity:1;fill-rule:nonzero;stroke:none"
           d="m 0,0 c -1.014,0 -1.836,0.822 -1.836,1.836 l 0,7.353 c 0,1.014 0.822,1.836 1.836,1.836 1.014,0 1.836,-0.822 1.836,-1.836 l 0,-7.353 C 1.836,0.822 1.014,0 0,0" />
      </g>
      <g
         transform="matrix(1.25,0,0,-1.25,457.54034,735.09409)"
         id="g5060">
        <path
           inkscape:connector-curvature="0"
           id="path5062"
           style="fill:#00b040;fill-opacity:1;fill-rule:nonzero;stroke:none"
           d="m 0,0 c -1.014,0 -1.836,0.822 -1.836,1.836 l 0,7.353 c 0,1.014 0.822,1.836 1.836,1.836 1.014,0 1.836,-0.822 1.836,-1.836 l 0,-7.353 C 1.836,0.822 1.014,0 0,0" />
      </g>
      <g
         transform="matrix(1.25,0,0,-1.25,455.90644,790.51647)"
         id="g5064">
        <path
           inkscape:connector-curvature="0"
           id="path5066"
           style="fill:#00b040;fill-opacity:1;fill-rule:nonzero;stroke:none"
           d="m 0,0 -32.849,0 c -1.014,0 -1.836,0.822 -1.836,1.836 l 0,22.721 c 0,1.013 0.822,1.836 1.836,1.836 1.014,0 1.836,-0.823 1.836,-1.836 l 0,-20.885 29.177,0 0,20.885 c 0,1.013 0.822,1.836 1.836,1.836 1.014,0 1.836,-0.823 1.836,-1.836 l 0,-22.721 C 1.836,0.822 1.014,0 0,0" />
      </g>
      <g
         transform="matrix(1.25,0,0,-1.25,431.88884,723.60697)"
         id="g5068">
        <path
           inkscape:connector-curvature="0"
           id="path5070"
           style="fill:#00b040;fill-opacity:1;fill-rule:nonzero;stroke:none"
           d="m 0,0 c 0,-1.083 -0.878,-1.961 -1.961,-1.961 -1.083,0 -1.961,0.878 -1.961,1.961 0,1.083 0.878,1.961 1.961,1.961 C -0.878,1.961 0,1.083 0,0" />
      </g>
      <g
         transform="matrix(1.25,0,0,-1.25,443.73694,723.60697)"
         id="g5072">
        <path
           inkscape:connector-curvature="0"
           id="path5074"
           style="fill:#00b040;fill-opacity:1;fill-rule:nonzero;stroke:none"
           d="m 0,0 c 0,-1.083 -0.878,-1.961 -1.961,-1.961 -1.083,0 -1.961,0.878 -1.961,1.961 0,1.083 0.878,1.961 1.961,1.961 C -0.878,1.961 0,1.083 0,0" />
      </g>
      <g
         transform="matrix(1.25,0,0,-1.25,440.97544,735.09409)"
         id="g5076">
        <path
           inkscape:connector-curvature="0"
           id="path5078"
           style="fill:#00b040;fill-opacity:1;fill-rule:nonzero;stroke:none"
           d="m 0,0 -8.656,0 c -1.014,0 -1.836,0.822 -1.836,1.836 0,1.014 0.822,1.836 1.836,1.836 L 0,3.672 C 1.014,3.672 1.836,2.85 1.836,1.836 1.836,0.822 1.014,0 0,0" />
      </g>
      <g
         transform="matrix(1.25,0,0,-1.25,424.53134,800.47497)"
         id="g5080">
        <path
           inkscape:connector-curvature="0"
           id="path5082"
           style="fill:#00b040;fill-opacity:1;fill-rule:nonzero;stroke:none"
           d="m 0,0 c -1.014,0 -1.836,0.822 -1.836,1.836 l 0,6.576 c 0,1.014 0.822,1.836 1.836,1.836 1.014,0 1.836,-0.822 1.836,-1.836 l 0,-6.576 C 1.836,0.822 1.014,0 0,0" />
      </g>
      <g
         transform="matrix(1.25,0,0,-1.25,446.61084,800.47497)"
         id="g5084">
        <path
           inkscape:connector-curvature="0"
           id="path5086"
           style="fill:#00b040;fill-opacity:1;fill-rule:nonzero;stroke:none"
           d="m 0,0 c -1.014,0 -1.836,0.822 -1.836,1.836 l 0,6.576 c 0,1.014 0.822,1.836 1.836,1.836 1.014,0 1.836,-0.822 1.836,-1.836 l 0,-6.576 C 1.836,0.822 1.014,0 0,0" />
      </g>
      <g
         transform="matrix(1.25,0,0,-1.25,431.37714,840.47122)"
         id="g5088">
        <path
           inkscape:connector-curvature="0"
           id="path5090"
           style="fill:#00b040;fill-opacity:1;fill-rule:nonzero;stroke:none"
           d="m 0,0 -11.076,0 c -1.014,0 -1.836,0.822 -1.836,1.836 l 0,31.46 c 0,1.014 0.822,1.836 1.836,1.836 l 11.076,0 c 1.014,0 1.836,-0.822 1.836,-1.836 l 0,-31.46 C 1.836,0.822 1.014,0 0,0 m -9.24,3.672 7.404,0 0,27.788 -7.404,0 0,-27.788 z" />
      </g>
      <g
         transform="matrix(1.25,0,0,-1.25,453.25574,840.47122)"
         id="g5092">
        <path
           inkscape:connector-curvature="0"
           id="path5094"
           style="fill:#00b040;fill-opacity:1;fill-rule:nonzero;stroke:none"
           d="m 0,0 -11.015,0 c -1.014,0 -1.836,0.822 -1.836,1.836 l 0,31.46 c 0,1.014 0.822,1.836 1.836,1.836 l 11.015,0 c 1.014,0 1.836,-0.822 1.836,-1.836 l 0,-31.46 C 1.836,0.822 1.014,0 0,0 m -9.179,3.672 7.343,0 0,27.788 -7.343,0 0,-27.788 z" />
      </g>
      <g
         transform="matrix(1.25,0,0,-1.25,403.58964,788.36684)"
         id="g5096">
        <path
           inkscape:connector-curvature="0"
           id="path5098"
           style="fill:#00b040;fill-opacity:1;fill-rule:nonzero;stroke:none"
           d="m 0,0 c -1.014,0 -1.836,0.822 -1.836,1.836 l 0,28.493 c 0,1.014 0.822,1.836 1.836,1.836 l 25.429,0 c 1.014,0 1.836,-0.822 1.836,-1.836 0,-1.014 -0.822,-1.836 -1.836,-1.836 l -23.593,0 0,-26.657 C 1.836,0.822 1.014,0 0,0" />
      </g>
      <g
         transform="matrix(1.25,0,0,-1.25,407.31034,804.55822)"
         id="g5100">
        <path
           inkscape:connector-curvature="0"
           id="path5102"
           style="fill:#00b040;fill-opacity:1;fill-rule:nonzero;stroke:none"
           d="M 0,0 C -0.214,0 -0.433,0.038 -0.646,0.118 -1.595,0.475 -2.075,1.534 -1.718,2.482 L 0.124,7.384 -2.977,11.526 -6.078,7.384 -4.235,2.482 C -3.879,1.534 -4.359,0.475 -5.308,0.118 -6.258,-0.24 -7.316,0.241 -7.673,1.191 l -2.196,5.842 c -0.22,0.586 -0.126,1.244 0.249,1.746 l 5.174,6.911 c 0.346,0.463 0.891,0.736 1.469,0.736 0.579,0 1.123,-0.273 1.47,-0.736 L 3.666,8.779 C 4.042,8.277 4.135,7.619 3.915,7.033 L 1.719,1.191 C 1.442,0.454 0.743,0 0,0" />
      </g>
      <g
         transform="matrix(1.25,0,0,-1.25,467.16264,788.36684)"
         id="g5104">
        <path
           inkscape:connector-curvature="0"
           id="path5106"
           style="fill:#00b040;fill-opacity:1;fill-rule:nonzero;stroke:none"
           d="m 0,0 c -1.014,0 -1.836,0.822 -1.836,1.836 l 0,26.657 -23.593,0 c -1.014,0 -1.836,0.822 -1.836,1.836 0,1.014 0.822,1.836 1.836,1.836 l 25.429,0 c 1.014,0 1.836,-0.822 1.836,-1.836 l 0,-28.493 C 1.836,0.822 1.014,0 0,0" />
      </g>
      <g
         transform="matrix(1.25,0,0,-1.25,470.88334,804.55822)"
         id="g5108">
        <path
           inkscape:connector-curvature="0"
           id="path5110"
           style="fill:#00b040;fill-opacity:1;fill-rule:nonzero;stroke:none"
           d="M 0,0 C -0.214,0 -0.433,0.038 -0.646,0.118 -1.595,0.475 -2.075,1.534 -1.718,2.482 L 0.124,7.384 -2.977,11.526 -6.078,7.384 -4.235,2.482 C -3.879,1.534 -4.359,0.475 -5.308,0.118 -6.259,-0.24 -7.316,0.241 -7.673,1.191 l -2.196,5.842 c -0.22,0.586 -0.126,1.244 0.249,1.746 l 5.174,6.911 c 0.346,0.463 0.891,0.736 1.469,0.736 0.579,0 1.123,-0.273 1.47,-0.736 L 3.666,8.779 C 4.042,8.277 4.135,7.619 3.915,7.033 L 1.719,1.191 C 1.442,0.454 0.743,0 0,0" />
      </g>
      <g
         transform="matrix(1.25,0,0,-1.25,431.37714,828.79035)"
         id="g5112">
        <path
           inkscape:connector-curvature="0"
           id="path5114"
           style="fill:#00b040;fill-opacity:1;fill-rule:nonzero;stroke:none"
           d="m 0,0 -11.076,0 c -1.014,0 -1.836,0.822 -1.836,1.836 0,1.014 0.822,1.836 1.836,1.836 L 0,3.672 C 1.014,3.672 1.836,2.85 1.836,1.836 1.836,0.822 1.014,0 0,0" />
      </g>
      <g
         transform="matrix(1.25,0,0,-1.25,453.49864,828.79035)"
         id="g5116">
        <path
           inkscape:connector-curvature="0"
           id="path5118"
           style="fill:#00b040;fill-opacity:1;fill-rule:nonzero;stroke:none"
           d="m 0,0 -11.076,0 c -1.014,0 -1.836,0.822 -1.836,1.836 0,1.014 0.822,1.836 1.836,1.836 L 0,3.672 C 1.014,3.672 1.836,2.85 1.836,1.836 1.836,0.822 1.014,0 0,0" />
      </g>
    </g>
  </g>
</svg>
