<?xml version="1.0" encoding="utf-8"?>
<!-- Generator: Adobe Illustrator 23.0.1, SVG Export Plug-In . SVG Version: 6.00 Build 0)  -->
<svg version="1.1" id="Layer_1" xmlns="http://www.w3.org/2000/svg" xmlns:xlink="http://www.w3.org/1999/xlink" x="0px" y="0px"
	 viewBox="0 0 651.67 160.06" style="enable-background:new 0 0 651.67 160.06;" xml:space="preserve">
<style type="text/css">
	.st0{fill:#FFFFFF;}
	.st1{fill:#00AF41;}
</style>
<g>
	<path class="st0" d="M569.56,160.06c-22.62,0-43.38-7.93-58.45-22.32c-1.2-1.15-2.36-2.33-3.48-3.55
		c-8.53,14.58-24.8,23.59-45.19,23.59h-74.08c-5.89,0-10.96-3.51-13.23-8.56c-8.38,5.48-18.9,8.56-30.82,8.56h-74.08
		c-8.01,0-14.5-6.49-14.5-14.5v-7.85c-0.75,0.78-1.51,1.54-2.29,2.29c-15.03,14.41-35.76,22.34-58.37,22.34
		c-22.62,0-43.38-7.93-58.45-22.32c-0.4-0.39-0.8-0.78-1.2-1.17c2.31,4.43,2.18,9.75-0.36,14.07c-2.61,4.43-7.36,7.14-12.5,7.14
		h-37.4c-5.49,0-10.51-3.1-12.97-8.01l-10.52-21.04v14.55c0,8.01-6.49,14.5-14.5,14.5H14.5c-8.01,0-14.5-6.49-14.5-14.5V16.59
		c0-8.01,6.49-14.5,14.5-14.5h63.44c23.4,0,42.02,10.73,51.56,28.06c2.18-2.76,4.56-5.38,7.13-7.83C151.7,7.93,172.46,0,195.08,0
		s43.35,7.93,58.37,22.34c0.78,0.75,1.55,1.51,2.29,2.29v-8.04c0-8.01,6.49-14.5,14.5-14.5h71.8c13.47,0,24.39,3.73,32.65,9.69
		c1.98-5.65,7.36-9.69,13.68-9.69h71.8c23.04,0,38.59,10.91,46.18,25.21c1.51-1.73,3.09-3.39,4.76-4.99
		C526.18,7.93,546.94,0,569.56,0s43.35,7.93,58.37,22.34c15.31,14.68,23.74,35.17,23.74,57.69s-8.43,43.01-23.74,57.69
		C612.9,152.12,592.17,160.06,569.56,160.06z"/>
	<g>
		<path class="st1" d="M73,45.08H47.17v27.16H73c8.55,0,15.76-4.75,15.76-13.68C88.77,50.02,81.55,45.08,73,45.08z M63.88,100.73
			H47.17v42.55H14.5V16.59h63.44c28.11,0,44.06,18.61,44.06,42.17c0,22.03-13.48,33.81-25.26,37.99l25.83,46.54H85.16L63.88,100.73z
			 M195.08,43.37c-21.08,0-34.57,15.95-34.57,36.66c0,20.51,13.49,36.66,34.57,36.66c20.89,0,34.38-16.14,34.38-36.66
			C229.45,59.32,215.97,43.37,195.08,43.37z M195.08,14.5c38.75,0,67.62,26.97,67.62,65.53s-28.87,65.53-67.62,65.53
			s-67.81-26.97-67.81-65.53C127.27,41.47,156.33,14.5,195.08,14.5z M335.77,115.74c7.79,0,12.54-4.56,12.54-11.39
			c0-6.27-4.56-11.4-12.54-11.4h-32.86v22.79H335.77z M334.63,65.21c6.65,0,11.21-4.37,11.21-10.64c0-6.08-4.56-10.45-11.21-10.45
			h-31.72V65.2h31.72V65.21z M270.24,16.59h71.8c25.07,0,37.04,16.34,37.04,32.29c0,15.76-9.69,26.4-21.65,29.06
			c13.49,2.09,24.12,15,24.12,30.96c0,18.42-12.35,34.38-37.23,34.38h-74.08V16.59z M453.89,115.74c7.79,0,12.54-4.56,12.54-11.39
			c0-6.27-4.56-11.4-12.54-11.4h-32.86v22.79H453.89z M452.75,65.21c6.65,0,11.21-4.37,11.21-10.64c0-6.08-4.56-10.45-11.21-10.45
			h-31.72V65.2h31.72V65.21z M388.37,16.59h71.8c25.07,0,37.04,16.34,37.04,32.29c0,15.76-9.69,26.4-21.65,29.06
			c13.49,2.09,24.12,15,24.12,30.96c0,18.42-12.35,34.38-37.23,34.38h-74.08V16.59z M569.56,43.37c-21.08,0-34.57,15.95-34.57,36.66
			c0,20.51,13.48,36.66,34.57,36.66c20.89,0,34.38-16.14,34.38-36.66C603.93,59.32,590.45,43.37,569.56,43.37z M569.56,14.5
			c38.75,0,67.62,26.97,67.62,65.53s-28.87,65.53-67.62,65.53s-67.81-26.97-67.81-65.53S530.81,14.5,569.56,14.5z"/>
	</g>
</g>
</svg>
